<?xml version="1.0" encoding="utf-8" ?>
<svg baseProfile="full" height="8.5in" version="1.1" width="11in" xmlns="http://www.w3.org/2000/svg" xmlns:ev="http://www.w3.org/2001/xml-events" xmlns:xlink="http://www.w3.org/1999/xlink"><defs /><polygon fill="none" points="756.0,221.35093493074834 754.4023921204479,221.14659634161237 750.835258297914,220.66125492350045 747.2729223167676,220.14186840323828 743.7163640937287,219.5842900624338 740.1664130639599,218.98608634609306 736.6236329986893,218.34678249883288 733.0882329835968,217.667851918226 729.5600335879861,216.9524436258415 726.0385210801464,216.2048142677179 722.5230121232953,215.42944546882322 719.0129270195184,214.62988148498954 715.5077274051228,213.80916493023963 712.0064147219514,212.97202127789322 708.5076351247242,212.12435310577246 705.0098657094937,211.27252617623856 701.5115920670663,210.42277237501278 698.0114585812132,209.58071205578997 694.5083790113035,208.75099311127838 691.00160247782,207.93704081279344 687.4907368729275,207.14091098394456 683.9757349994488,206.36324664154432 680.4568559573025,205.60331882474617 676.9346107284741,204.85914912098502 673.4097021651492,204.1276987671008 669.8829641378364,203.4051208220273 666.3553033138925,202.68706155482732 662.8276418344619,201.96900550789118 659.3008572694569,201.24665473988327 655.775715767917,200.51632783080734 652.2527944176788,199.77536551055329 648.7323927900268,199.0225226451259 645.2144445900307,198.2582972450352 641.6984951494147,197.4849282961937 638.1837066509265,196.70630013661116 634.6689018052916,195.9277457729976 631.1526635393489,195.15569107472797 627.633477489888,194.39718626308849 624.1098930930524,193.65938344500248 620.5806768759601,192.94900826735878 617.0449317419316,192.27187729982447 613.5021660205338,191.63249396935026 609.9523057993911,191.03375161211403 606.3956539590578,190.47677074471048 602.8328134173944,189.96085672602138 599.2645896454169,189.4835946249758 595.69189167879,189.04106864917333 592.1156450671151,188.62820042263573 588.5367230923458,188.23920492328682 584.9558954053479,187.8681616966552 581.3737863780386,187.5096998207616 577.7908313236405,187.15979543644494 574.2072349853087,186.81652107985227 570.6232020050837,186.47783598029858 567.0391215724006,186.1396534082193 563.4554754894208,185.79689875552492 559.8727713524416,185.44443447808396 556.291495681959,185.07774036576532 552.7120736749458,184.6933732291496 549.1348304033645,184.28923145213776 545.5599553472923,183.8646512671631 541.9874766108012,183.42035893398742 538.4172504716214,182.9583142228206 534.8489710693568,182.48146822317895 531.2821987536989,181.9934771902109 527.7164047417995,181.49838824395812 524.1510243339086,181.00032946527085 520.585511536786,180.50321932299252 517.0193879972167,180.01050957016747 513.4522806720666,179.5249734429215 509.88394566015876,179.04854375997536 506.31427732118544,178.58220917008157 502.7433026611108,178.12598556579897 499.1710792558488,177.6796449527037 495.5976173943973,177.2433304735124 492.0229515733099,176.81699226557205 488.4471845282359,176.39999101933597 484.870500884631,175.99092609347568 481.29316213780254,175.5876303081763 477.71549177071734,175.18728702487994 474.13785585423074,174.7866359933518 470.56064229078817,174.38223134263296 466.9842390298204,173.97072227233343 463.4090101435879,173.54913193675958 459.83527006847777,173.11510212724028 456.2632571028469,172.66708050570276 452.69310985653306,172.20442659656794 449.124851737004,171.72742136345704 445.5583900664118,171.2371651526892 441.99353413956766,170.73536616818996 438.43003488674935,170.22402178798865 434.86764514160836,169.70500415465239 431.3061968242683,169.17956540187953 427.745621644655,168.64824215721418 424.18583822627676,168.11163987037668 420.62671985659813,167.57064409348322 417.0680906009154,167.02644025244692 413.5097309410098,166.48047639763902 409.95139100813145,165.93438398596948 406.3928082081926,165.3898764506866 402.83372639815605,164.8486402088595 399.2739144420252,164.31222727371753 395.7131814697463,163.7819625284006 392.15138754341103,163.25887168894621 388.5884491670661,162.7436337571436 385.02433957181546,162.23656098816227 381.45908379345286,161.7376108555315 377.8927494578262,161.24642921241895 374.32543450686546,160.76242090603182 370.7572516734257,160.28485283010372 367.188310674041,159.81298405288803 363.6186982199743,159.34622187814395 360.04845607683006,158.88430084667166 356.47759692484146,158.427174040786 352.9062307306578,157.97402560258703 349.33455076536825,157.52335695984675 345.76278603629254,157.0733606041606 342.19116483100026,156.62222651555007 338.61988694169827,156.16838266863516 335.04910260249744,155.71067183970692 331.47889700981915,155.24846839315006 327.9092809668781,154.78173366551772 324.34018747533753,154.31101968798743 320.77147547411573,153.83742212429487 317.2029404718016,153.3624927219003 313.6343313379978,152.88812066313974 310.0653717473187,152.41639252098645 306.49578394036973,151.94944189353106 302.9253119659978,151.4893007410299 299.35374247845726,151.0377573924253 295.78092071765906,150.59623200746208 292.20676068151147,150.16567418787733 288.6312495758602,149.74648409571824 285.05444618477054,149.33846755011055 281.4764669675506,148.94089400830694 277.89746445311164,148.5526402232132 274.3176086188802,148.17233481157862 270.73707230283065,147.79849033930353 267.1560199379496,147.42962185328184 263.5745993394598,147.06434593467657 259.99293554720134,146.7014623731521 256.4111264365442,146.34001598042803 252.82923984044265,145.97933826740945 249.24731208207396,145.61906957070127 245.6653482328861,145.25915988326386 242.08332375862176,144.89985407232942 238.50118831546314,144.54165626822268 234.91887135083135,144.18527842812688 231.336289344937,143.83157492087554 227.75335517553805,143.48145674403594 224.16998735335844,143.13580511165486 220.58612206049474,142.79535017688812 217.00172417912918,142.4605489999756 213.41679804279497,142.1314523621507 209.8313768093205,141.80779424229203 206.24551218892893,141.48908603056208 202.6592694200912,141.17466147210794 199.07272396087774,140.86370863163967 195.48595894829214,140.55529860506488 191.899062955178,140.24841567204012 188.31212848342562,139.94198281584738 184.7252504668153,139.63488984302367 181.13852574797374,139.32601156400293 177.5520526544429,139.0142251797918 173.96593043210248,138.69842871616996 170.3802593216355,138.37755072134541 166.79514024091603,138.0505626832444 163.21067507662138,137.71648262403977 159.6269663698068,137.37438336256517 156.04411750076642,137.02339336040555 152.46223163070746,136.66270843713855 148.88141031460668,136.29160373202367 145.3017511142113,135.90945191791738 141.7233592285073,135.5156099288817 138.14654666046837,135.10767383937886 134.57189589019012,134.68120945569723 131.00016454450974,134.23094820455043 127.4322032392773,133.7517278748858 123.86888094975916,133.23915177222074 120.31100804369734,132.69002484307663 116.75925872269661,132.10259249737985 113.21409699839859,131.4766305587828 109.67571544651663,130.81341415872816 106.14399000521014,130.11562091769716 102.61846492820445,129.38714790419294 99.09836035638718,128.63291730055022 95.5826124197977,127.85863282675083 92.06993919884324,127.07051681829175 88.55892997709542,126.27502059278105 85.04815393444647,125.47849590492618 81.53627312740625,124.68685634228261 78.02215409186361,123.90521230306979 74.50496239111298,123.13751279143075 70.98422644266635,122.38623495912395 67.45955721150013,121.65363219440754 63.93032318743096,120.9433454893704 60.39593190463026,120.25918303785582 56.8560528087288,119.60400673608669 53.310718600268736,118.97902245602606 49.7603303592232,118.3834191166755 46.205597861105005,117.81431730959488 42.64744845871465,117.26698484183038 39.08693566032393,116.73524372766302 36.0,116.281793541051 36.0,358.4446579953353 39.52597328064508,358.0516524118222 43.09876519715854,357.60988559403694 46.666556273616514,357.1293995539204 50.229601256470914,356.61489935940523 53.78829650707285,356.0711272441371 57.34310065616162,355.50247316508614 60.89445905574028,354.9126820853451 64.44273958272953,354.3046481210069 67.98819433972874,353.6803480600813 71.53095896113162,353.04095863466347 75.07109845746633,352.3871908268823 78.60875781812449,351.7201329223885 82.1444766949738,351.0428648632779 85.67903357074657,350.35955842255925 89.21317619571325,349.6741126505293 92.74743260423955,348.98925380464146 96.2820028342784,348.3060164455025 99.81673081423556,347.62359567522367 103.3511252917863,346.93944972803206 106.8844184652829,346.24963863061305 110.41564287398722,345.54931429477233 113.9437196084061,344.8333013367525 117.46755734828074,344.0967094666948 120.98616497975874,343.3355259568204 124.49876915786737,342.5471022839555 128.004929292784,341.7304988867537 131.5046297843756,340.88664080084493 134.99832157514308,340.0182413126347 138.48689225292583,339.1294924020225 141.9715457949875,338.22550695313674 145.45359332188428,337.3115348417284 148.93417669573012,336.39200269019267 152.41385082710826,335.4690357680239 155.89255416318167,334.542416590804 159.36995898135876,333.610936193523 162.84573200479,332.6733851871305 166.3197080023719,331.72919729893 169.79198379786726,330.77877591869003 173.26295319094484,329.8235945367952 176.73329145471695,328.8661226912565 180.2039046956773,327.90964805402314 183.67585696372237,326.9580454855016 187.1502909565399,326.01554432924024 190.62835517920558,325.08652911784014 194.11114212657577,324.17537870258053 197.59964316711793,323.2863564924327 201.0947186415752,322.4235428231811 204.597078185389,321.5907897830446 208.10725934737945,320.7916476117089 211.62560329344797,320.0292462232244 215.1522181079188,319.3060671649305 218.68693239812305,318.6235754897974 222.2292973139593,317.98197530038624 218.78946821554436,318.6050039983102 219.4586495274185,323.116257962903 223.75073956820236,340.2512419058031 229.70168414796834,356.8830178257161 237.25417241729605,372.8514126286795 246.33546978554182,388.0026419435284 256.85811839470733,402.1907911494561 268.7207793864214,415.27922061357856 281.80920885054377,427.1418816052926 295.99735805647146,437.66453021445807 311.1485873713202,446.74582758270384 327.11698217428363,454.29831585203146 343.74875809419643,460.2492604317975 360.8837420370965,464.5413504725814 378.35691474067863,467.13325080099537 395.9999999999995,468.0 413.64308525932034,467.1332508009955 431.11625796290247,464.5413504725816 448.25124190580254,460.2492604317978 464.88301782571546,454.29831585203186 480.8514126286789,446.7458275827043 496.00264194352764,437.66453021445864 510.1907911494555,427.1418816052933 523.2792206135779,415.27922061357924 535.141881605292,402.190791149457 545.6645302144575,388.00264194352934 554.7458275827033,372.85141262868063 562.2983158520311,356.8830178257173 568.2492604317972,340.2512419058045 572.5413504725813,323.11625796290446 575.1332508009954,305.64308525932233 575.4903661066,298.37383621769993 572.7342921804341,298.8317790379449 576.2856029962354,298.2417015095032 579.8429431488003,297.6891338313404 583.406241523006,297.17639150191695 586.9752848134414,296.7052970411156 590.5497123200573,296.2769653939697 594.1290072326645,295.89141652730797 597.7125343498019,295.5474203053208 601.2996001021551,295.2425280484574 604.8895157067187,294.9732587555362 608.481648808045,294.73539370481006 612.0754568656414,294.52434005012924 615.6705022523669,294.33553150322473 619.2664529422636,294.1648310760705 622.8630742294322,294.0088973828333 626.4602168893696,293.86549346357685 630.0578037166919,293.7337018861633 633.6558137589126,293.6140200743479 637.2542609953739,293.5082964421559 640.8531653651498,293.4194857603229 644.4525172179342,293.3511758792124 648.0522444696588,293.30686207559125 651.6521998033005,293.2889289836985 655.2521872423564,293.2984389069227 658.8519712334349,293.33787515388104 662.4512328179733,293.4107863743297 666.0495538651636,293.5207210883538 669.6464393347189,293.67043721608076 673.2413721734297,293.86137669643574 676.8338895587146,294.0933655677752 680.4236637907785,294.3645130604993 684.010569868842,294.6712780962356 687.5947251261223,295.0086667322481 691.1764921015091,295.3705304276209 694.7564449986206,295.7499210633283 698.3353054784359,296.1394819263739 701.9138610838181,296.5318335278598 705.4928801437726,296.9199347626968 709.0730379744871,297.2973866234334 712.654864889651,297.6586565361123 716.2387230196523,297.99918686372484 719.8248115373892,298.3153658367051 723.4131959501935,298.6043248406194 727.0038224020388,298.8639431822459 730.5964575286141,299.09410149145475 734.1907655493046,299.2964621902064 737.7863960442012,299.47377926262016 741.3830349582929,299.62930585726065 744.9804275355797,299.7662972616716 748.5783831761032,299.8876035221228 752.1767703452822,299.99535221440203 755.7755069998957,300.0907172538102 756.0,300.09589800084177 756.0,221.35093493074834" stroke="rgb(255, 0, 0)" stroke-width="1pt" /></svg>