<?xml version="1.0" encoding="utf-8" ?>
<svg baseProfile="full" height="8.5in" version="1.1" width="11in" xmlns="http://www.w3.org/2000/svg" xmlns:ev="http://www.w3.org/2001/xml-events" xmlns:xlink="http://www.w3.org/1999/xlink"><defs /><polygon fill="none" points="756.0,245.80461093003595 753.1964057782981,245.55910633219537 749.6121844768575,245.22242003562337 746.0307024638414,244.85774677029892 742.4527200455146,244.46020203804304 738.8790181879234,244.02585766654857 735.3103205327827,243.55215201301087 731.7472032804651,243.03815255169155 728.1900199053623,242.4845765082319 724.6388752544032,241.89349980596367 721.09369496064,241.26764304542445 717.5543754390135,240.6094505782593 714.0204702685966,239.92278162854578 710.490960677643,239.21386552112057 706.964370223453,238.4905676790002 703.438937165465,237.76164947121185 699.9128142058671,237.03607599195763 696.3842674432144,236.32238296006497 692.8518435668474,235.62813404384545 689.3144885471916,234.95946412159975 685.7716041702813,234.32073860007606 682.223047083852,233.7143207537427 678.669078505065,233.14046768805827 675.1102842140934,232.5973441343915 671.5474807182093,232.08117434670942 667.9816269188418,231.58651620057523 664.4137497564868,231.10666981437882 660.8448865007301,230.63421340188162 657.2760351396721,230.1616671473477 653.7080962666614,229.68227983164184 650.1417850610748,229.19093027693964 646.5775005173244,228.6850887096651 643.0153875089507,228.1641751702233 639.455506225161,227.62822251809357 635.8977616400501,227.07826482234444 632.3418437200504,226.51661747193216 628.7872046551822,225.94693236723555 625.2330765410693,225.37406820491415 621.6785285624959,224.8038150435724 618.1225563451643,224.24251156989203 614.5641886858575,223.696599854319 611.0025944212372,223.17215129228123 607.4371696691503,222.67441005709267 603.8675919730737,222.20738214393154 600.2938314413038,221.7735208048333 596.7161215004601,221.37353133098753 593.1348961563061,221.00634604480436 589.550709119038,220.6692951853199 585.9641495289226,220.358505374432 582.3757639714116,220.06956058619966 578.7859867851882,219.79845220700346 575.1950729680087,219.5428393012474 571.6031805404101,219.30136717333167 568.0105866622374,219.07056590271944 564.4176208477235,218.8456288987968 560.8246052970516,218.62148775435807 557.2318246549216,218.3936122235599 553.639506274252,218.1585619057491 550.0478012733045,217.91431779390925 546.4567652437014,217.6604275930496 542.8663435715712,217.397992427156 539.2763674417268,217.1295312807164 535.6865656947506,216.85874830967452 532.0965938509062,216.59022985518033 528.50607713998,216.32909818616994 524.9146611046157,216.08064122625944 521.3220603590177,215.84994687711077 517.7280966393758,215.64156074057982 514.132718262182,215.45920305687332 510.53599749821865,215.30558096837356 506.93810814527103,215.18232430954322 503.3392894281651,215.09010803436107 499.73979369818346,215.0298544880455 496.1398852845182,215.00417544557527 492.5399048076267,215.01603149888763 488.9402722937416,215.06746849900648 485.3414312821331,215.158810565791 481.74375933314997,215.28825764957418 478.1474766069023,215.4518136121451 474.55258367758285,215.64350301385764 470.95884860823446,215.85579585720305 467.36584827252824,216.08018076671055 463.77305301648255,216.30782577134664 460.17993183413734,216.5302671545965 456.58605014502393,216.74006325717158 452.9911361908486,216.93135795672038 449.3951017178147,217.10028417952873 445.79801734968675,217.24514289887074 442.2000561467054,217.36628406380305 438.601426720253,217.46561306797975 435.00231685485016,217.54566415641537 431.40285930758694,217.6081570796165 427.80314150603647,217.65323200835104 424.2032509832185,217.68130733070174 420.6032723193589,217.69370167439502 417.00327244711224,217.69274259997022 413.40328932458175,217.68171910251704 409.80332956864726,217.66469689197322 406.20337690528953,217.64623553818763 402.60340898769374,217.6310371079729 399.00341676397835,217.62355451560032 395.40341902380675,217.6275882185568 391.8034655957409,217.6458998475557 388.20362591292474,217.67987422057723 384.60396466949464,217.72925977056542 381.00451192607625,217.7920287748376 377.40523914552216,217.86438519240272 373.80605383920994,217.9409693345351 370.20682112267303,218.01529195700203 366.6074106013258,218.08043717029645 363.0077528615685,218.13007744230688 359.4078757821476,218.15982661136832 355.80788441598395,218.16771099766473 352.2079176505814,218.15224206113666 348.6081418175238,218.11206804298604 345.0087483810195,218.04598560016177 341.40995076250107,217.95294958054635 337.8119804588357,217.8320790136477 334.21508259007715,217.68266107054842 330.6195110248113,217.50415303417068 327.0255232860354,217.29618156129845 323.43337531919025,217.0585411095857 319.84331625044854,216.7911913705823 316.2555833749299,216.49425229615287 312.6703975044652,216.1679973740142 309.0879588324344,215.81284506705495 305.5084435222374,215.4293478127427 301.93200114717484,215.0181788233274 298.358752214945,214.58012395425445 294.7887863224878,214.11607274297293 291.22216054920096,213.6270118128974 287.65889803848836,213.11402031223707 284.0989785081645,212.57832176116676 280.54230471615466,212.02148108626034 276.9886825625144,211.44548665125484 273.43781344281524,210.85275695335963 269.8892968178487,210.24610238745248 266.3426433113409,209.62864882257824 262.7972994482874,209.00371931238607 259.25268013555467,208.37469313820705 255.708206362882,207.74484738341025 252.16334364351061,207.1171943735307 248.61763653617146,206.49432913211427 245.0707352019664,205.878300784216 241.52241156075297,205.27051847351095 237.97256391146766,204.67170158425048 234.42120963278506,204.08188569154936 230.86846795009643,203.500485196119 227.31453342768685,202.9264212533171 223.75964154611123,202.35831588429863 220.20402647343107,201.79475448131768 216.64786957401444,201.23462225877427 213.09123719369046,200.67751714191473 209.53407051579276,200.12383381576683 205.9763066753204,199.57400069978775 202.41798653164724,199.02777935717106 198.85931563309498,198.48384789476304 195.30068977853043,197.93962181377768 191.742697389514,197.39126959147765 188.1861101196365,196.83387655981554 184.63186712298028,196.2617256000855 181.08105370160595,195.66866232640558 177.53487263453928,195.048501186396 173.99460040050965,194.39545255960093 170.46152574899202,193.70452310820684 166.9368695507155,192.9718576429699 163.42169400346285,192.19497871289337 159.916816160873,191.3728891140523 156.4227479904633,190.50600525762758 152.93968418746795,189.59591375439086 149.46755886439007,188.64494280802003 146.00617971600596,187.65557210341456 142.55542512807807,186.6297588777761 139.11501887032594,185.5697566222974 135.68403471012556,184.4796430078268 132.26089886186065,183.36512922849354 128.8435088439524,182.23311974730484 125.42941718959551,181.09120110937545 122.01604938705019,179.9471205857466 118.6009227133861,178.8083011080294 115.1818363436575,177.68142560632742 111.75701214738903,176.57211085178108 108.32517749024359,175.48467768785085 104.88559120058753,174.42201774412004 101.43802118165073,173.38555213227946 97.98268580797188,172.37527620194967 94.52017101677468,171.38988728343034 91.05133257814349,170.42699586344852 87.57719004248078,169.4834209369593 84.0988137339266,168.5555749065809 80.61720175793711,167.63994504214517 77.13314386428095,166.7336666116106 73.6470655145952,165.8351913810938 70.15885955123734,164.94501209735674 66.66793372323124,164.06555950434225 63.17350862852679,163.20011553879633 59.674847397743605,162.35195895406997 56.17143527305021,161.52364531507126 52.663095251848176,160.7164586603054 49.15003545088712,159.93006764123703 45.63283589773465,159.16240410601856 42.112391631557536,158.40976065209054 38.58983179077576,157.6670816042432 36.0,157.12412677676505 36.0,358.4446579953353 39.52597328064508,358.0516524118222 43.09876519715854,357.60988559403694 46.666556273616514,357.1293995539204 50.229601256470914,356.61489935940523 53.78829650707285,356.0711272441371 57.34310065616162,355.50247316508614 60.89445905574028,354.9126820853451 64.44273958272953,354.3046481210069 67.98819433972874,353.6803480600813 71.53095896113162,353.04095863466347 75.07109845746633,352.3871908268823 78.60875781812449,351.7201329223885 82.1444766949738,351.0428648632779 85.67903357074657,350.35955842255925 89.21317619571325,349.6741126505293 92.74743260423955,348.98925380464146 96.2820028342784,348.3060164455025 99.81673081423556,347.62359567522367 103.3511252917863,346.93944972803206 106.8844184652829,346.24963863061305 110.41564287398722,345.54931429477233 113.9437196084061,344.8333013367525 117.46755734828074,344.0967094666948 120.98616497975874,343.3355259568204 124.49876915786737,342.5471022839555 128.004929292784,341.7304988867537 131.5046297843756,340.88664080084493 134.99832157514308,340.0182413126347 138.48689225292583,339.1294924020225 141.9715457949875,338.22550695313674 145.45359332188428,337.3115348417284 148.93417669573012,336.39200269019267 152.41385082710826,335.4690357680239 155.89255416318167,334.542416590804 159.36995898135876,333.610936193523 162.84573200479,332.6733851871305 166.3197080023719,331.72919729893 169.79198379786726,330.77877591869003 173.26295319094484,329.8235945367952 176.73329145471695,328.8661226912565 180.2039046956773,327.90964805402314 183.67585696372237,326.9580454855016 187.1502909565399,326.01554432924024 190.62835517920558,325.08652911784014 194.11114212657577,324.17537870258053 197.59964316711793,323.2863564924327 201.0947186415752,322.4235428231811 204.597078185389,321.5907897830446 208.10725934737945,320.7916476117089 211.62560329344797,320.0292462232244 215.1522181079188,319.3060671649305 218.68693239812305,318.6235754897974 222.2292973139593,317.98197530038624 218.78946821554436,318.6050039983102 219.4586495274185,323.116257962903 223.75073956820236,340.2512419058031 229.70168414796834,356.8830178257161 237.25417241729605,372.8514126286795 246.33546978554182,388.0026419435284 256.85811839470733,402.1907911494561 268.7207793864214,415.27922061357856 281.80920885054377,427.1418816052926 295.99735805647146,437.66453021445807 311.1485873713202,446.74582758270384 327.11698217428363,454.29831585203146 343.74875809419643,460.2492604317975 360.8837420370965,464.5413504725814 378.35691474067863,467.13325080099537 395.9999999999995,468.0 413.64308525932034,467.1332508009955 431.11625796290247,464.5413504725816 448.25124190580254,460.2492604317978 464.88301782571546,454.29831585203186 480.8514126286789,446.7458275827043 496.00264194352764,437.66453021445864 510.1907911494555,427.1418816052933 523.2792206135779,415.27922061357924 535.141881605292,402.190791149457 545.6645302144575,388.00264194352934 554.7458275827033,372.85141262868063 562.2983158520311,356.8830178257173 568.2492604317972,340.2512419058045 572.5413504725813,323.11625796290446 575.1332508009954,305.64308525932233 575.4903661066,298.37383621769993 572.7342921804341,298.8317790379449 576.2856029962354,298.2417015095032 579.8429431488003,297.6891338313404 583.406241523006,297.17639150191695 586.9752848134414,296.7052970411156 590.5497123200573,296.2769653939697 594.1290072326645,295.89141652730797 597.7125343498019,295.5474203053208 601.2996001021551,295.2425280484574 604.8895157067187,294.9732587555362 608.481648808045,294.73539370481006 612.0754568656414,294.52434005012924 615.6705022523669,294.33553150322473 619.2664529422636,294.1648310760705 622.8630742294322,294.0088973828333 626.4602168893696,293.86549346357685 630.0578037166919,293.7337018861633 633.6558137589126,293.6140200743479 637.2542609953739,293.5082964421559 640.8531653651498,293.4194857603229 644.4525172179342,293.3511758792124 648.0522444696588,293.30686207559125 651.6521998033005,293.2889289836985 655.2521872423564,293.2984389069227 658.8519712334349,293.33787515388104 662.4512328179733,293.4107863743297 666.0495538651636,293.5207210883538 669.6464393347189,293.67043721608076 673.2413721734297,293.86137669643574 676.8338895587146,294.0933655677752 680.4236637907785,294.3645130604993 684.010569868842,294.6712780962356 687.5947251261223,295.0086667322481 691.1764921015091,295.3705304276209 694.7564449986206,295.7499210633283 698.3353054784359,296.1394819263739 701.9138610838181,296.5318335278598 705.4928801437726,296.9199347626968 709.0730379744871,297.2973866234334 712.654864889651,297.6586565361123 716.2387230196523,297.99918686372484 719.8248115373892,298.3153658367051 723.4131959501935,298.6043248406194 727.0038224020388,298.8639431822459 730.5964575286141,299.09410149145475 734.1907655493046,299.2964621902064 737.7863960442012,299.47377926262016 741.3830349582929,299.62930585726065 744.9804275355797,299.7662972616716 748.5783831761032,299.8876035221228 752.1767703452822,299.99535221440203 755.7755069998957,300.0907172538102 756.0,300.09589800084177 756.0,245.80461093003595" stroke="rgb(255, 0, 0)" stroke-width="1pt" /></svg>