<?xml version="1.0" encoding="utf-8" ?>
<svg baseProfile="full" height="8.5in" version="1.1" width="11in" xmlns="http://www.w3.org/2000/svg" xmlns:ev="http://www.w3.org/2001/xml-events" xmlns:xlink="http://www.w3.org/1999/xlink"><defs /><polygon fill="none" points="756.0,156.15966931043832 754.1925046625113,155.79352265484468 750.6646061403671,155.07663213499293 747.1371317114264,154.35765775911509 743.6100966493946,153.63653109118619 740.083515862554,152.91318611547467 736.5573777206822,152.1876864225481 733.0316210289346,151.46033523460872 729.5061167898659,150.7317613808994 725.9806574934801,150.00297008736877 722.4549563812409,149.27534953573752 718.9286627016023,148.55060621224948 715.4016184407001,147.82952453751568 711.8741065892657,147.1107337905032 708.3466281887797,146.39177890032977 704.8197024431049,145.67011777175475 701.2937262400912,144.94383145370836 697.7688801806639,144.21207995399 694.2450757888362,143.47532856570774 690.7219365836069,142.7354027987718 687.1988180935361,141.99537840395635 683.674863141066,141.25934749906065 680.1490860378717,140.53209526043102 676.6204731044252,139.81872945951667 673.0880854055058,139.12429649333282 669.5511481824896,138.45342014075936 666.0091151656763,137.80999018512648 662.4616981525367,137.19693836440726 658.908859163299,136.61613278888942 655.3507691234896,136.06841455055047 651.7877388342383,135.55381260935923 648.22013269589,135.07195532590316 644.648300743458,134.62249286519528 641.0726565490215,134.2044395255443 637.4937174692368,133.81560143174423 633.9120859042164,133.45239992782416 630.3284161466286,133.10989289351681 626.7433842788508,132.781950052433 623.157670158747,132.46155303483113 619.5719544581813,132.14117370541666 615.986924749372,131.81320726360423 612.4032823370065,131.4704142352392 608.8217382354085,131.10635126224062 605.2429913210498,130.71574849347422 601.6676853316101,130.29481253412004 598.0963503985755,129.8414177876941 594.5293423682332,129.35515272471594 590.9667977551977,128.83719917454792 587.4086286962531,128.28999450719772 583.8545766215095,127.71665878529427 580.3043434559701,127.12013177810745 576.757810970848,126.50198346906319 573.2152950222988,125.86121771289734 569.6773336595814,125.19576343504004 566.1444932006136,124.50363751334643 562.6173421061014,123.78307859383935 559.0964211831408,123.03266813665059 555.5822097788675,122.25143948505361 552.0750910973603,121.43896268303234 548.5753201431087,120.5953968777882 545.0829973571015,119.72150812151878 541.5980555699015,118.81863452027227 538.1202633107318,117.88860172404455 534.649249072067,116.93358331847003 531.1845464567256,115.95591477174966 527.725658438986,114.95786984253189 524.2721311443203,113.94143035835269 520.8236261603932,112.90807980029848 517.3799744483922,111.85866906734798 513.9411930496021,110.79340736648012 510.5074415540084,109.71204218001097 507.0788908658533,108.61429895923882 503.65547263059085,107.50065288149564 500.236626126345,106.37304985719749 496.82148948347015,105.23426027589048 493.40910764074334,104.08724233382135 489.9986030124119,102.93465473188849 486.589327504068,101.77843653958777 483.18098011565473,100.61948525506531 479.7736791886966,99.45746098976375 476.3679860138683,98.29073308706835 472.9648823585494,97.11647352838668 469.56570854178335,95.930886178837 466.17206817788036,94.72955147090227 462.78570787429175,93.50784614870736 459.4083762808011,92.26139867383729 456.0416707329974,90.98652858069556 452.68688276126534,89.68061983016119 449.34486408220255,88.3423705451639 446.0159371038175,86.97187969419838 442.6998869572567,85.5705191319254 439.39606874612576,84.14055926262857 436.1036633386819,82.68451440307437 432.82210500640616,81.20418507759577 429.551499550142,79.6998114705901 426.2915411512909,78.17250297596304 423.04093112876535,76.62539778191311 419.7975900050864,75.06311152278735 416.5588767226664,73.49125393563895 413.32179860546955,71.91603164555876 410.0831964429271,70.34394512352029 406.83994118569063,68.78148061627282 403.589168658905,67.23471690481071 400.3284857042948,65.70895589157362 397.0561051497563,64.20844747564306 393.7708995699144,62.73622999912157 390.47238163206674,61.29408596550446 387.1606127060591,59.882637567322476 383.836071005767,58.501542898945615 380.49949281294454,57.14978627766305 377.1517088435394,55.8260255386343 373.79348430776986,54.52897967693336 370.4253774019748,53.25781648082686 367.0476207472123,52.01252134263369 363.6600275659419,50.79423876531004 360.2619307640928,49.6055680265168 356.8521841515891,48.45073988409942 353.4293404917869,47.33532907164 349.9918129657068,46.26602812829351 346.53807393045486,45.2503083458845 343.0668877801336,44.2959149732032 339.5775256384835,43.41027856675925 336.06991254730895,42.599938883280196 332.54468014725774,41.8700508606155 329.00311578713405,41.22404630714757 325.44702844846216,40.66347263693306 321.8785634022013,40.18801789290994 318.3000049867135,39.795691922648665 314.7135999253246,39.48312395300937 311.1214229011079,39.24592313789823 307.5252923918653,39.079053846250844 303.926733774669,38.97719178951857 300.3269805579276,38.93503993831529 296.727002480499,38.94760345825162 293.1275507895436,39.01043278642562 289.5292143497989,39.11986251915642 285.932486502821,39.27331868479799 282.33785864907827,39.46991622572071 278.74588430051995,39.71016667691421 275.15718049072575,39.99513152662185 271.5723939138891,40.32574489376159 267.99214216885,40.70230490510756 264.4169401802827,41.12412327946382 260.8471237367647,41.589322763113316 257.2827824304666,42.094764206030064 253.72371484843967,42.63609400066975 250.1694155215078,43.20789492281984 246.6190976101755,43.803917345613606 243.07175111247193,44.41737706330514 239.5262283320403,45.04129068989161 235.98134544337347,45.6688297768313 232.43598546927308,46.29366787910026 228.88918788088037,46.91029326535312 225.34021264899863,47.514259161319096 221.78857060158106,48.10233973999472 218.2340175376607,48.67256120203754 214.67651187619538,49.224062306879844 211.1161093849557,49.75654150870311 207.5529142005591,50.27000044366575 203.98712061743146,50.76509247806537 200.41902973555997,51.243347074180726 196.84904289413174,51.70723709566143 193.27764218018962,52.160113392737856 189.70536467344346,52.60602079881582 186.13277614525745,53.049429423307814 182.56044481895864,53.4949054553727 178.98891402226946,53.94675473146003 175.4186711439108,54.40867008033844 171.85011153995833,54.883414593775306 168.28349847437525,55.37256818970612 164.7189250657334,55.876370149213386 161.15628677759275,56.39367898141553 157.59527650672038,56.922078310277115 154.03541349033932,57.458152283346635 150.47611468250707,57.997959653214636 146.91681153463182,58.53773840559887 143.35710772351416,59.0748685361206 139.79672157993096,59.60745703447637 136.23510720435192,60.131769002362574 132.67156991831385,60.64284826335482 129.10543559652015,61.13547997054075 125.53617688131335,61.60493947243666 121.96348854853616,62.04754321941325 118.38731091914987,62.46100853002229 114.80780956962752,62.84463606913752 111.22532533064714,63.199328439308 107.64031093098004,63.5274621836556 104.05326962022828,63.83264186017469 100.4647062234418,64.1193695136095 96.87509424208025,64.39265658477419 93.28485846289742,64.65762271445016 89.69436772834358,64.91911130900644 86.10393233977905,65.18135875044962 82.51380138683699,65.44774144644805 78.92415930021502,65.72063279836732 75.33512377205176,66.00138888037057 71.74675073666755,66.2904891379415 68.15910540688274,66.58848408365918 64.57239947050485,66.89758038896164 60.986908936770035,67.2204698940528 57.40286862246908,67.55907737398417 53.82038549599765,67.91378098060169 50.23937246200871,68.28303109962854 46.659512947095806,68.66330186301631 43.08026664136652,69.04930171136253 39.50092104698009,69.43437977610586 36.0,69.80272560560972 36.0,358.4446579953353 39.52597328064508,358.0516524118222 43.09876519715854,357.60988559403694 46.666556273616514,357.1293995539204 50.229601256470914,356.61489935940523 53.78829650707285,356.0711272441371 57.34310065616162,355.50247316508614 60.89445905574028,354.9126820853451 64.44273958272953,354.3046481210069 67.98819433972874,353.6803480600813 71.53095896113162,353.04095863466347 75.07109845746633,352.3871908268823 78.60875781812449,351.7201329223885 82.1444766949738,351.0428648632779 85.67903357074657,350.35955842255925 89.21317619571325,349.6741126505293 92.74743260423955,348.98925380464146 96.2820028342784,348.3060164455025 99.81673081423556,347.62359567522367 103.3511252917863,346.93944972803206 106.8844184652829,346.24963863061305 110.41564287398722,345.54931429477233 113.9437196084061,344.8333013367525 117.46755734828074,344.0967094666948 120.98616497975874,343.3355259568204 124.49876915786737,342.5471022839555 128.004929292784,341.7304988867537 131.5046297843756,340.88664080084493 134.99832157514308,340.0182413126347 138.48689225292583,339.1294924020225 141.9715457949875,338.22550695313674 145.45359332188428,337.3115348417284 148.93417669573012,336.39200269019267 152.41385082710826,335.4690357680239 155.89255416318167,334.542416590804 159.36995898135876,333.610936193523 162.84573200479,332.6733851871305 166.3197080023719,331.72919729893 169.79198379786726,330.77877591869003 173.26295319094484,329.8235945367952 176.73329145471695,328.8661226912565 180.2039046956773,327.90964805402314 183.67585696372237,326.9580454855016 187.1502909565399,326.01554432924024 190.62835517920558,325.08652911784014 194.11114212657577,324.17537870258053 197.59964316711793,323.2863564924327 201.0947186415752,322.4235428231811 204.597078185389,321.5907897830446 208.10725934737945,320.7916476117089 211.62560329344797,320.0292462232244 215.1522181079188,319.3060671649305 218.68693239812305,318.6235754897974 222.2292973139593,317.98197530038624 218.78946821554436,318.6050039983102 219.4586495274185,323.116257962903 223.75073956820236,340.2512419058031 229.70168414796834,356.8830178257161 237.25417241729605,372.8514126286795 246.33546978554182,388.0026419435284 256.85811839470733,402.1907911494561 268.7207793864214,415.27922061357856 281.80920885054377,427.1418816052926 295.99735805647146,437.66453021445807 311.1485873713202,446.74582758270384 327.11698217428363,454.29831585203146 343.74875809419643,460.2492604317975 360.8837420370965,464.5413504725814 378.35691474067863,467.13325080099537 395.9999999999995,468.0 413.64308525932034,467.1332508009955 431.11625796290247,464.5413504725816 448.25124190580254,460.2492604317978 464.88301782571546,454.29831585203186 480.8514126286789,446.7458275827043 496.00264194352764,437.66453021445864 510.1907911494555,427.1418816052933 523.2792206135779,415.27922061357924 535.141881605292,402.190791149457 545.6645302144575,388.00264194352934 554.7458275827033,372.85141262868063 562.2983158520311,356.8830178257173 568.2492604317972,340.2512419058045 572.5413504725813,323.11625796290446 575.1332508009954,305.64308525932233 575.4903661066,298.37383621769993 572.7342921804341,298.8317790379449 576.2856029962354,298.2417015095032 579.8429431488003,297.6891338313404 583.406241523006,297.17639150191695 586.9752848134414,296.7052970411156 590.5497123200573,296.2769653939697 594.1290072326645,295.89141652730797 597.7125343498019,295.5474203053208 601.2996001021551,295.2425280484574 604.8895157067187,294.9732587555362 608.481648808045,294.73539370481006 612.0754568656414,294.52434005012924 615.6705022523669,294.33553150322473 619.2664529422636,294.1648310760705 622.8630742294322,294.0088973828333 626.4602168893696,293.86549346357685 630.0578037166919,293.7337018861633 633.6558137589126,293.6140200743479 637.2542609953739,293.5082964421559 640.8531653651498,293.4194857603229 644.4525172179342,293.3511758792124 648.0522444696588,293.30686207559125 651.6521998033005,293.2889289836985 655.2521872423564,293.2984389069227 658.8519712334349,293.33787515388104 662.4512328179733,293.4107863743297 666.0495538651636,293.5207210883538 669.6464393347189,293.67043721608076 673.2413721734297,293.86137669643574 676.8338895587146,294.0933655677752 680.4236637907785,294.3645130604993 684.010569868842,294.6712780962356 687.5947251261223,295.0086667322481 691.1764921015091,295.3705304276209 694.7564449986206,295.7499210633283 698.3353054784359,296.1394819263739 701.9138610838181,296.5318335278598 705.4928801437726,296.9199347626968 709.0730379744871,297.2973866234334 712.654864889651,297.6586565361123 716.2387230196523,297.99918686372484 719.8248115373892,298.3153658367051 723.4131959501935,298.6043248406194 727.0038224020388,298.8639431822459 730.5964575286141,299.09410149145475 734.1907655493046,299.2964621902064 737.7863960442012,299.47377926262016 741.3830349582929,299.62930585726065 744.9804275355797,299.7662972616716 748.5783831761032,299.8876035221228 752.1767703452822,299.99535221440203 755.7755069998957,300.0907172538102 756.0,300.09589800084177 756.0,156.15966931043832" stroke="rgb(255, 0, 0)" stroke-width="1pt" /></svg>