<?xml version="1.0" encoding="utf-8" ?>
<svg baseProfile="full" height="8.5in" version="1.1" width="11in" xmlns="http://www.w3.org/2000/svg" xmlns:ev="http://www.w3.org/2001/xml-events" xmlns:xlink="http://www.w3.org/1999/xlink"><defs /><polygon fill="none" points="756.0,266.72258248433286 755.0320633966242,266.675453329294 751.4362115373211,266.50268352305784 747.8403604696629,266.3298972411357 744.2446872650357,266.1534483660298 740.6494308266464,265.9687022098583 737.0548938483985,265.7704500673512 733.4614432584474,265.5533951029305 729.8694991193829,265.31269341652126 726.2795007807958,265.0445294201638 722.6918424650858,264.7466908569857 719.1067803056285,264.4190793296743 715.524366639481,264.0636748775372 711.9444519457005,263.68392392591835 708.366654561167,263.28471736882557 704.7903576224518,262.872285306377 701.2147463272872,262.45395067251087 697.6388841557213,262.0377659419361 694.0618170676474,261.63206771983107 690.4826873675788,261.2449881542557 686.9008363857583,260.8839569311851 683.3158754612618,260.55523946917083 679.7277129048134,260.26353847756883 676.1365317730465,260.01170901376065 672.54272710727,259.8005976113116 668.9468171553216,259.6290411556535 665.3493493662402,259.4940392796603 661.7508211172867,259.39110997632906 658.1516290946265,259.31484213238986 654.5520519701593,259.25966491778456 650.952261262936,259.22084656916763 647.3523486979802,259.1957562388646 643.7523704775183,259.1832337710862 640.1523718296631,259.18011360420655 636.5523722766287,259.1819075248723 632.9523728356905,259.18391382621326 629.3523733240694,259.182038638941 625.7523837629237,259.17336917285814 622.1524231992685,259.15651864979674 618.5525082175168,259.1317775067497 614.9526389981032,259.1010919544756 611.3527920022417,259.06790149822314 607.7529258256257,259.0368610334152 604.1530017220998,259.0134847879022 600.5530149082346,259.00374107218704 596.9530285062289,259.0136357865993 593.3532003515603,259.0488104487279 589.7537941865809,259.1141959173577 586.1551709328638,259.2137483046089 582.5577614782186,259.35029578949707 578.9620285662702,259.5255237151564 575.368430388592,259.7401213325418 571.7773405837988,259.9932497859231 568.1888793524234,260.2812532423529 564.6028773012694,260.598411387635 561.0189147549106,260.937841006699 557.4364016984644,261.2922421923519 553.8546756350187,261.65451061001147 550.2730969692941,262.01823339074747 546.691127223581,262.3780843887962 543.108381473741,262.730125426182 539.5246525744786,263.07201309280805 535.9399098487493,263.40310158601034 532.3542804528757,263.72444538235277 528.7680220621157,264.0386917104183 525.1814953403111,264.34986059347295 521.5951418665154,264.6630199155337 518.0094672393825,264.9838586107301 514.425022796385,265.31816092161705 510.8423739806741,265.67118707261056 507.2620397475399,266.04696197737024 503.68438675243414,266.4474604750091 500.109677899449,266.8734377236852 496.5385173538802,267.3282039908737 492.9717825765864,267.81646931673987 489.4104386723316,268.34261529993023 485.8553509446167,268.90949381270957 482.3071002522998,269.5177018564514 478.7658211280763,270.1652681961717 475.23109408255533,270.84769380652233 471.70191869187846,271.5582717838344 468.17677934426524,272.28860908940555 464.65379934943365,273.0292925278707 461.13095483237583,273.77062005915195 457.606311102131,274.5033455021699 454.0782367308198,275.21937010404974 450.5455577641532,275.9123198269528 447.0076252828223,276.5779276375615 443.4642919777583,277.2141580118948 439.9158066680216,277.8209957221462 436.36264474989804,278.39982245234813 432.8052946712312,278.9523262241078 429.24407171747384,279.47929023960813 425.67936586868666,279.9821542486829 422.1117340482055,280.46382134688486 418.54180478233457,280.92815424113013 414.970208080477,281.37948228067575 411.3975268135989,281.8221430597134 407.82426246244825,282.26007213707214 404.2508101762423,282.6964650313878 400.6774354234343,283.1334923486055 397.1042531386882,283.57209052458927 393.5312101500251,284.0118220349064 389.9580752797345,284.4508063156191 386.3844436485816,284.8857281072365 382.8097616787793,285.31193089320834 379.23337733414803,285.7236043311136 375.654617333998,286.1140871877485 372.0728846613748,286.4762902549137 368.48776443453465,286.80326572662636 364.89911559447347,287.08892199336515 361.30712225123995,287.3288882871775 357.7122638668752,287.52122444176837 354.1150934216308,287.66392968995456 350.51622179775734,287.75405757064857 346.91639317378144,287.78918417030974 343.3164527566783,287.76847201669983 339.7172374483364,287.69331109469067 336.11943400336145,287.5675717956374 332.52345298939275,287.3975113735014 328.9293576534574,287.19140771946434 325.3368683762099,286.95898398388204 321.7454404986426,286.7106982609091 318.15439237669034,286.4569791527929 314.5630486229973,286.20747956800403 310.97086277206466,285.97041246282197 307.3774916678418,285.752045552929 303.78281080501233,285.55641964869454 300.1868773071093,285.38535744170923 296.5898610876488,285.2388162634064 292.99196847947894,285.115654661937 289.3933798223585,285.014859439608 285.7942192051016,284.9371236615699 282.19460965753495,284.88410380617097 278.5947137125239,284.8567325604385 274.99471417155434,284.85491458929283 271.39478474393394,284.8774560211984 267.7950622586771,284.9221553403923 264.1956286437005,284.98601183087226 260.59650662569834,285.0655146580694 256.9976687756949,285.156981205957 253.39905613657191,285.25691655277836 249.80060095247998,285.36236932932803 246.20224820387665,285.4712614622804 242.60397235898506,285.58266587902256 239.00578866936235,285.6970080660458 235.40776079810234,285.8161526741318 231.81000859345951,285.9433496630422 228.21271806826311,286.082995204798 224.6161509587309,286.2401735322829 221.0206425175892,286.41994852965087 217.42656544812408,286.6263704731188 213.83423364492108,286.8612155618396 210.243785753563,287.1232917710659 206.65517552599397,287.40943270589844 203.06822530262116,287.7156811263772 199.48269925017252,288.03817597472687 195.8983770695615,288.3737866205355 192.31511304042203,288.7205125893857 188.73287622911133,289.0776952145095 185.1517707333196,289.4460475295698 181.57204191159212,289.8275466290361 177.99407293668057,290.2252123360946 174.41837394138165,290.6427966928636 170.84556425278691,291.0844197550826 167.27634553765265,291.55418327381864 163.71146198503504,292.05578596148735 160.15164842179684,292.5921882312302 156.5975677402708,293.16534659434046 153.04974652203833,293.77605487450353 149.50852084722976,294.42391343937425 145.97400892207804,295.10745235630606 142.44612904374415,295.8244346183229 138.92481881918434,296.5730161452194 135.4100636576384,297.3517947751177 131.9016043430049,298.1584627598309 128.39870041711626,298.988922925037 124.89999293512355,299.83688869996433 121.40349052564267,300.69390147728706 117.90668198581353,301.549664315799 114.40676238571955,302.3926131830964 110.90092928500151,303.2106194605232 107.38669369006664,303.9917392869857 103.86214711506813,304.72493192242763 100.32613709177811,305.4006782618128 96.77832695963818,306.01145094152696 93.21913994761726,306.5519949392383 89.64961219097871,307.0194043899204 86.07118969211237,307.4129681326701 82.48551193920721,307.73377189249993 78.89422152484019,307.98403807014995 75.2988310866487,308.16615780263726 71.70067499407008,308.2813651523996 68.10099528286048,308.32938573867244 64.50103984186563,308.3114742102175 60.90194177648242,308.23089433832143 57.30459966622322,308.0925840286698 53.70960877690224,307.9027406571786 50.11724448957959,307.66839299414613 46.52749194602206,307.3969585158236 42.940109366199124,307.0958169777008 39.354712121755185,306.77189322195915 36.0,306.4530527107444 36.0,358.4446579953353 39.52597328064508,358.0516524118222 43.09876519715854,357.60988559403694 46.666556273616514,357.1293995539204 50.229601256470914,356.61489935940523 53.78829650707285,356.0711272441371 57.34310065616162,355.50247316508614 60.89445905574028,354.9126820853451 64.44273958272953,354.3046481210069 67.98819433972874,353.6803480600813 71.53095896113162,353.04095863466347 75.07109845746633,352.3871908268823 78.60875781812449,351.7201329223885 82.1444766949738,351.0428648632779 85.67903357074657,350.35955842255925 89.21317619571325,349.6741126505293 92.74743260423955,348.98925380464146 96.2820028342784,348.3060164455025 99.81673081423556,347.62359567522367 103.3511252917863,346.93944972803206 106.8844184652829,346.24963863061305 110.41564287398722,345.54931429477233 113.9437196084061,344.8333013367525 117.46755734828074,344.0967094666948 120.98616497975874,343.3355259568204 124.49876915786737,342.5471022839555 128.004929292784,341.7304988867537 131.5046297843756,340.88664080084493 134.99832157514308,340.0182413126347 138.48689225292583,339.1294924020225 141.9715457949875,338.22550695313674 145.45359332188428,337.3115348417284 148.93417669573012,336.39200269019267 152.41385082710826,335.4690357680239 155.89255416318167,334.542416590804 159.36995898135876,333.610936193523 162.84573200479,332.6733851871305 166.3197080023719,331.72919729893 169.79198379786726,330.77877591869003 173.26295319094484,329.8235945367952 176.73329145471695,328.8661226912565 180.2039046956773,327.90964805402314 183.67585696372237,326.9580454855016 187.1502909565399,326.01554432924024 190.62835517920558,325.08652911784014 194.11114212657577,324.17537870258053 197.59964316711793,323.2863564924327 201.0947186415752,322.4235428231811 204.597078185389,321.5907897830446 208.10725934737945,320.7916476117089 211.62560329344797,320.0292462232244 215.1522181079188,319.3060671649305 218.68693239812305,318.6235754897974 222.2292973139593,317.98197530038624 225.7789704988699,317.38212508547707 229.33575319834293,316.8259804741308 232.89943893407755,316.31593736132413 236.46973542624625,315.85443659425226 240.04623229522736,315.44374188261315 243.6283962711053,315.08582953311634 247.21557967365672,314.78232461312405 250.80703611876882,314.5344524628875 254.40194022535488,314.3429727917714 257.99941243761447,314.2080888341625 261.59855111185726,314.1293436529148 265.1984722121217,314.1055093945676 268.7983554280506,314.1345064922404 272.3974914942036,314.2133707890834 275.99532265982293,314.3383143911547 279.5914663873918,314.50489857607994 283.1857134636017,314.70833887483195 286.77799497973535,314.943951923801 290.3683181996172,315.2077305749026 293.95667814756433,315.49699323057916 297.5430251335203,315.810226843598 301.12733047521243,316.1460172805029 304.7096598458406,316.50227039323994 308.2902298628566,316.8757919498409 311.86943642282915,317.26216016935405 315.4478479626057,317.65582354330957 319.0261634192971,318.05035933687367 322.6051431173427,318.4388233905226 326.1855255299508,318.81413896372294 329.7679457091497,319.169477759337 333.3528690972914,319.4986043324896 336.9405505403007,319.79616418106923 340.53102317994535,320.0579011176351 344.12411630655356,320.28079522594936 347.7194971036077,320.463105193242 351.31672734595315,320.6042950779898 354.9153238606105,320.7048093789429 358.5148096744638,320.7656524218402 362.11474205081913,320.7877179077499 365.7147033824821,320.77103226927426 369.3143012253582,320.7172236309179 372.91327443009266,320.6312476365758 376.51156666379575,320.5203738305079 380.10932012950366,320.3932125156868 383.7068121481136,320.2588578505755 387.30436494974504,320.1261407097316 390.902258183077,320.00299737233865 394.5006661574586,319.8959457497149 398.0996325383725,319.80968458202216 401.6990835323972,319.7468153398236 405.2988711299973,319.70770968594996 408.89883006755804,319.69051527185087 412.4988299781496,319.6913176062841 416.09880604110003,319.70444567485475 419.69875857707933,319.72293185066866 423.2987222483913,319.73910482917915 426.8987168759342,319.74532428749137 430.4987016440653,319.73485198000344 434.0985594573151,319.7028562867848 437.69813019812506,319.64726418388517 441.29719641257805,319.5652740382405 444.8953941076573,319.4513734362836 448.49216853632726,319.2990129779424 452.08677062312586,319.10194487402015 455.678302152943,318.8551630466315 459.26580837196144,318.5554980194692 462.84840287281247,318.20192109364996 466.42539846187304,317.7955929555137 469.99641651463435,317.3397091250779 473.56145285554413,316.83919350295156 477.12088485519325,316.300265084816 480.6754181901256,315.7299206530429 484.22598403603376,315.1353769844447 487.7736064709855,314.52351502368305 491.31926552927195,313.9003763213129 494.8637829904922,313.27077647450204 498.4077532297725,312.63810361820435 501.95153687267026,312.00438641603114 505.49532710874325,311.3707060843861 509.0392910096891,310.73799772440293 512.583532493229,310.106846152785 516.1279323220758,309.4765844188442 519.6722136270216,308.8456565058366 523.2160099071195,308.21200997569207 526.7589211393805,307.57343343343655 530.3005618198321,306.9278474278799 533.8406039221566,306.27355245329227 537.3788175728905,305.60944089507336 540.9151086737683,304.9351670264916 544.4495547690747,304.25128779784563 547.9824345082641,303.5593624056066 551.5142475810724,302.86201283850244 555.0457181962202,302.1629310876693 558.5777771211697,301.4668278261597 562.1115149106603,300.77929801944134 565.6481052305113,300.10659532914207 569.1886979452039,299.4552864710221 572.7342921804341,298.8317790379449 576.2856029962354,298.2417015095032 579.8429431488003,297.6891338313404 583.406241523006,297.17639150191695 586.9752848134414,296.7052970411156 590.5497123200573,296.2769653939697 594.1290072326645,295.89141652730797 597.7125343498019,295.5474203053208 601.2996001021551,295.2425280484574 604.8895157067187,294.9732587555362 608.481648808045,294.73539370481006 612.0754568656414,294.52434005012924 615.6705022523669,294.33553150322473 619.2664529422636,294.1648310760705 622.8630742294322,294.0088973828333 626.4602168893696,293.86549346357685 630.0578037166919,293.7337018861633 633.6558137589126,293.6140200743479 637.2542609953739,293.5082964421559 640.8531653651498,293.4194857603229 644.4525172179342,293.3511758792124 648.0522444696588,293.30686207559125 651.6521998033005,293.2889289836985 655.2521872423564,293.2984389069227 658.8519712334349,293.33787515388104 662.4512328179733,293.4107863743297 666.0495538651636,293.5207210883538 669.6464393347189,293.67043721608076 673.2413721734297,293.86137669643574 676.8338895587146,294.0933655677752 680.4236637907785,294.3645130604993 684.010569868842,294.6712780962356 687.5947251261223,295.0086667322481 691.1764921015091,295.3705304276209 694.7564449986206,295.7499210633283 698.3353054784359,296.1394819263739 701.9138610838181,296.5318335278598 705.4928801437726,296.9199347626968 709.0730379744871,297.2973866234334 712.654864889651,297.6586565361123 716.2387230196523,297.99918686372484 719.8248115373892,298.3153658367051 723.4131959501935,298.6043248406194 727.0038224020388,298.8639431822459 730.5964575286141,299.09410149145475 734.1907655493046,299.2964621902064 737.7863960442012,299.47377926262016 741.3830349582929,299.62930585726065 744.9804275355797,299.7662972616716 748.5783831761032,299.8876035221228 752.1767703452822,299.99535221440203 755.7755069998957,300.0907172538102 756.0,300.09589800084177 756.0,266.72258248433286" stroke="rgb(255, 0, 0)" stroke-width="1pt" /></svg>