<?xml version="1.0" encoding="utf-8" ?>
<svg baseProfile="full" height="8.5in" version="1.1" width="11in" xmlns="http://www.w3.org/2000/svg" xmlns:ev="http://www.w3.org/2001/xml-events" xmlns:xlink="http://www.w3.org/1999/xlink"><defs /><polygon fill="none" points="756.0,262.10183294891186 754.3902604911,262.01227911928214 750.7959153075112,261.81057958727547 747.2018503293809,261.6039472253918 743.608322365155,261.38817704597415 740.0156600446527,261.15844361165813 736.4242609306968,260.90974217564076 732.8345800764059,260.63736125792286 729.2471015523449,260.33736485894195 725.6622884051264,260.0070397168007 722.0805143071376,259.6452465286729 718.5019901580729,259.2526081268831 714.9267001966688,258.83153605243086 711.3543490623765,258.3862188920602 707.7843408559369,257.92249332024664 704.2158056035014,257.4475657972229 700.6476732096136,256.9696210099432 697.0787856516883,256.49734820860175 693.5080290026903,256.03942140917206 689.9344624367344,255.60396532793877 686.3574198122429,255.19805146691553 682.7765662399548,254.82725813656683 679.1919020008218,254.49532095473708 675.6037156445346,254.2039128687901 672.0125002357228,253.9525726859472 668.41885328977,253.73879329534708 664.8233817646167,253.55828149016187 661.2266292667596,253.40540418917055 657.6290347886386,253.27382162576103 654.0309201728495,253.15732608230337 650.4324934553804,253.05090635196717 646.8338517722149,252.95202239885407 643.2350451691613,252.85933456892164 639.6361594442487,252.76977152397095 636.0372939078887,252.6794008915772 632.4385477718084,252.58439432313082 628.8400121003501,252.48172484742662 625.2417576493561,252.36963155635874 621.6438176249426,252.24786300244432 618.0461701303614,252.11773804429453 614.4487284267002,251.98204283892727 610.8513455075434,251.84479804682752 607.2538354632125,251.71092691125915 603.6560085182584,251.58586183155057 600.0577119381118,251.47512917464536 596.4588668806387,251.38394665274006 592.859491761106,251.31687393929596 589.2597064869644,251.27755498618794 585.6597176941441,251.26857213766192 582.0597904134353,251.29145386855424 578.4602165983075,251.3468465526024 574.8612926513937,251.43486032612748 571.2632750233415,251.55431386616024 567.6662872032713,251.70155048615004 564.0702927840446,251.8713272127376 560.4751202695703,252.05769939727276 556.8805157509931,252.25472313955973 553.2862028467372,252.45699707831233 549.6919345878478,252.66006278969778 546.0975292831887,252.8606880768348 542.5028876286198,253.05703311812277 538.9079944155133,253.2487171976929 535.3129101374462,253.4367837646191 531.7177591970435,253.62357165427179 528.122720488043,253.81250730677883 524.5280227685657,254.0078232190462 520.933944438106,254.21422320576903 517.3408133732465,254.4365048980931 513.7490004249938,254.67915638637243 510.1588983867955,254.9459284900942 506.57087921047696,255.23938784055053 502.9852257405289,255.56046289945328 499.402261405957,255.91027224350455 495.82264217308233,256.29279825259886 492.247276172636,256.71322418287957 488.67718760051673,257.1763306363259 485.11336199717766,257.68539553295943 481.55657854269265,258.2415353156597 478.00725095526946,258.8434270643626 474.4653060759674,259.4873420214692 470.93012675007697,260.1674207917576 467.4005744375833,260.87612416649955 463.8750917045161,261.60480207809354 460.35186895655505,262.34432994656765 456.82904712024003,263.08576525027394 453.30492070660745,263.82097475833075 449.7781063360833,264.5431799894559 446.24764834460416,265.2473577868913 442.71304533436904,265.93042554344026 439.17419433523787,266.5911324421088 435.631260445612,267.22958326538367 432.0844822715755,267.84632031160226 428.5340146187413,268.44145008415455 424.9801122900993,269.01571329773617 421.42315554538357,269.570743671879 417.86358732809157,270.1087716511186 414.30186259825797,270.63233344201996 410.7384040688761,271.14396153876186 407.17356808275224,271.6459021647687 403.6076169846718,272.13985840382105 400.0406977523587,272.6267744028961 396.47282685193306,273.1066673470987 392.90388330675415,273.57851686900756 389.33361128119407,274.04020687702524 385.7616373763678,274.4885398149632 382.1875039174966,274.9193182013494 378.6107201038963,275.32750633293443 375.03082939455385,275.7074833179786 371.44748618282176,276.0533899917126 367.86053137753925,276.35958474160327 364.2700504170019,276.62120750823317 360.6763951823433,276.8348475194922 357.08013449709324,276.99888740404737 353.4818983879967,277.1115679400481 349.8823913123205,277.17113984749733 346.282396123241,277.17702530452925 342.6826959876155,277.13056097867303 339.08395523414293,277.0353507413249 335.4866044951674,276.8972650404283 331.8907694808879,276.72414499513695 328.2962663499301,276.5252801125291 324.7026650156728,276.31073536096426 321.1094013725692,276.09060723656853 317.5159068855657,275.87428023438156 313.92172110204484,275.6697599333435 310.32656137335977,275.48314127071603 306.7303383961495,275.3182767864119 303.13312354941627,275.1766951970636 299.53508635514834,275.0578324667224 295.93642633652104,274.95961805671357 292.33731861255643,274.87947074672365 288.7378822384261,274.81576997288914 285.1381821849861,274.7692992803587 281.53829404469604,274.74092010843816 277.9383106282333,274.72999302312894 274.33831336590475,274.73443275590085 270.73835108592186,274.7509125222937 267.1384327840689,274.77516576917355 263.53853544754065,274.80235338504576 259.9386230472849,274.82746733504985 256.3386694692311,274.84574945356866 252.7386769750869,274.8531007871386 249.13868308011914,274.8464708402995 245.5387519968582,274.82419538808034 241.93895185610037,274.78626193846145 238.33932442719342,274.73447030727857 234.73985876870682,274.6724463330774 231.14048188354218,274.6054684371526 227.5410761378864,274.54005988924 223.94152357326195,274.4833030878365 220.34176244190982,274.44183265009514 216.74182581293047,274.4204722350103 213.1418258203376,274.4207031712582 209.54188343256658,274.4410699267539 205.94207923549178,274.4786164675068 202.34244366906066,274.5298394006907 198.74296997800673,274.59139545165743 195.14363528760063,274.6606037346833 191.54441977673605,274.73575495790436 187.94532006447196,274.8162612382841 184.34635691321077,274.902657047582 180.74757979200837,274.9964825873363 177.1490704790093,275.100071796518 173.55094639855963,275.2162746436791 169.95336231132086,275.34814099741027 166.35650787088278,275.49860074053436 162.76059794905112,275.67015782745506 159.1658544858781,275.8646300207757 155.5724813475351,276.0829634553087 151.9806358771705,276.3251330591427 148.39040591475916,276.5901779930761 144.8017999606667,276.87637251827186 141.2147868399491,277.18188335572285 137.62948892446195,277.5069046737982 134.04617166611462,277.8530801004679 130.4651114105862,278.2218719743951 126.8864647036204,278.6133917653673 123.31014753511855,279.0256483726872 119.7357439757582,279.4541798124113 116.16246817605408,279.89201546565226 112.58920210797724,280.3299305335943 109.01461566815657,280.75693379382784 105.43735581214293,281.1609287474514 101.85627273994399,281.5294989985708 98.2706328439592,281.85072561067216 94.68027112159518,282.11397967537647 91.08564327360457,282.31057732147207 87.48776762761302,282.43423344134067 83.88807413244906,282.48120940193985 80.28820867192233,282.45008600066797 76.6898581035861,282.34112184438567 73.09466471167104,282.1551528288742 69.50428141929645,281.89219310983464 65.92041178166943,281.55178391416683 62.34472793394941,281.1340698718434 58.77877977264954,280.640092432154 55.22390549197574,280.07187693728974 51.68116231134447,279.43236872304175 48.15128824988503,278.7252696421232 44.634695418225846,277.9548315483588 41.13149450471735,277.1256250845675 37.64153952792375,276.2423277054513 36.0,275.80194560819734 36.0,358.4446579953353 39.52597328064508,358.0516524118222 43.09876519715854,357.60988559403694 46.666556273616514,357.1293995539204 50.229601256470914,356.61489935940523 53.78829650707285,356.0711272441371 57.34310065616162,355.50247316508614 60.89445905574028,354.9126820853451 64.44273958272953,354.3046481210069 67.98819433972874,353.6803480600813 71.53095896113162,353.04095863466347 75.07109845746633,352.3871908268823 78.60875781812449,351.7201329223885 82.1444766949738,351.0428648632779 85.67903357074657,350.35955842255925 89.21317619571325,349.6741126505293 92.74743260423955,348.98925380464146 96.2820028342784,348.3060164455025 99.81673081423556,347.62359567522367 103.3511252917863,346.93944972803206 106.8844184652829,346.24963863061305 110.41564287398722,345.54931429477233 113.9437196084061,344.8333013367525 117.46755734828074,344.0967094666948 120.98616497975874,343.3355259568204 124.49876915786737,342.5471022839555 128.004929292784,341.7304988867537 131.5046297843756,340.88664080084493 134.99832157514308,340.0182413126347 138.48689225292583,339.1294924020225 141.9715457949875,338.22550695313674 145.45359332188428,337.3115348417284 148.93417669573012,336.39200269019267 152.41385082710826,335.4690357680239 155.89255416318167,334.542416590804 159.36995898135876,333.610936193523 162.84573200479,332.6733851871305 166.3197080023719,331.72919729893 169.79198379786726,330.77877591869003 173.26295319094484,329.8235945367952 176.73329145471695,328.8661226912565 180.2039046956773,327.90964805402314 183.67585696372237,326.9580454855016 187.1502909565399,326.01554432924024 190.62835517920558,325.08652911784014 194.11114212657577,324.17537870258053 197.59964316711793,323.2863564924327 201.0947186415752,322.4235428231811 204.597078185389,321.5907897830446 208.10725934737945,320.7916476117089 211.62560329344797,320.0292462232244 215.1522181079188,319.3060671649305 218.68693239812305,318.6235754897974 222.2292973139593,317.98197530038624 225.7789704988699,317.38212508547707 229.33575319834293,316.8259804741308 232.89943893407755,316.31593736132413 236.46973542624625,315.85443659425226 240.04623229522736,315.44374188261315 243.6283962711053,315.08582953311634 247.21557967365672,314.78232461312405 250.80703611876882,314.5344524628875 254.40194022535488,314.3429727917714 257.99941243761447,314.2080888341625 261.59855111185726,314.1293436529148 265.1984722121217,314.1055093945676 268.7983554280506,314.1345064922404 272.3974914942036,314.2133707890834 275.99532265982293,314.3383143911547 279.5914663873918,314.50489857607994 283.1857134636017,314.70833887483195 286.77799497973535,314.943951923801 290.3683181996172,315.2077305749026 293.95667814756433,315.49699323057916 297.5430251335203,315.810226843598 301.12733047521243,316.1460172805029 304.7096598458406,316.50227039323994 308.2902298628566,316.8757919498409 311.86943642282915,317.26216016935405 315.4478479626057,317.65582354330957 319.0261634192971,318.05035933687367 322.6051431173427,318.4388233905226 326.1855255299508,318.81413896372294 329.7679457091497,319.169477759337 333.3528690972914,319.4986043324896 336.9405505403007,319.79616418106923 340.53102317994535,320.0579011176351 344.12411630655356,320.28079522594936 347.7194971036077,320.463105193242 351.31672734595315,320.6042950779898 354.9153238606105,320.7048093789429 358.5148096744638,320.7656524218402 362.11474205081913,320.7877179077499 365.7147033824821,320.77103226927426 369.3143012253582,320.7172236309179 372.91327443009266,320.6312476365758 376.51156666379575,320.5203738305079 380.10932012950366,320.3932125156868 383.7068121481136,320.2588578505755 387.30436494974504,320.1261407097316 390.902258183077,320.00299737233865 394.5006661574586,319.8959457497149 398.0996325383725,319.80968458202216 401.6990835323972,319.7468153398236 405.2988711299973,319.70770968594996 408.89883006755804,319.69051527185087 412.4988299781496,319.6913176062841 416.09880604110003,319.70444567485475 419.69875857707933,319.72293185066866 423.2987222483913,319.73910482917915 426.8987168759342,319.74532428749137 430.4987016440653,319.73485198000344 434.0985594573151,319.7028562867848 437.69813019812506,319.64726418388517 441.29719641257805,319.5652740382405 444.8953941076573,319.4513734362836 448.49216853632726,319.2990129779424 452.08677062312586,319.10194487402015 455.678302152943,318.8551630466315 459.26580837196144,318.5554980194692 462.84840287281247,318.20192109364996 466.42539846187304,317.7955929555137 469.99641651463435,317.3397091250779 473.56145285554413,316.83919350295156 477.12088485519325,316.300265084816 480.6754181901256,315.7299206530429 484.22598403603376,315.1353769844447 487.7736064709855,314.52351502368305 491.31926552927195,313.9003763213129 494.8637829904922,313.27077647450204 498.4077532297725,312.63810361820435 501.95153687267026,312.00438641603114 505.49532710874325,311.3707060843861 509.0392910096891,310.73799772440293 512.583532493229,310.106846152785 516.1279323220758,309.4765844188442 519.6722136270216,308.8456565058366 523.2160099071195,308.21200997569207 526.7589211393805,307.57343343343655 530.3005618198321,306.9278474278799 533.8406039221566,306.27355245329227 537.3788175728905,305.60944089507336 540.9151086737683,304.9351670264916 544.4495547690747,304.25128779784563 547.9824345082641,303.5593624056066 551.5142475810724,302.86201283850244 555.0457181962202,302.1629310876693 558.5777771211697,301.4668278261597 562.1115149106603,300.77929801944134 565.6481052305113,300.10659532914207 569.1886979452039,299.4552864710221 572.7342921804341,298.8317790379449 576.2856029962354,298.2417015095032 579.8429431488003,297.6891338313404 583.406241523006,297.17639150191695 586.9752848134414,296.7052970411156 590.5497123200573,296.2769653939697 594.1290072326645,295.89141652730797 597.7125343498019,295.5474203053208 601.2996001021551,295.2425280484574 604.8895157067187,294.9732587555362 608.481648808045,294.73539370481006 612.0754568656414,294.52434005012924 615.6705022523669,294.33553150322473 619.2664529422636,294.1648310760705 622.8630742294322,294.0088973828333 626.4602168893696,293.86549346357685 630.0578037166919,293.7337018861633 633.6558137589126,293.6140200743479 637.2542609953739,293.5082964421559 640.8531653651498,293.4194857603229 644.4525172179342,293.3511758792124 648.0522444696588,293.30686207559125 651.6521998033005,293.2889289836985 655.2521872423564,293.2984389069227 658.8519712334349,293.33787515388104 662.4512328179733,293.4107863743297 666.0495538651636,293.5207210883538 669.6464393347189,293.67043721608076 673.2413721734297,293.86137669643574 676.8338895587146,294.0933655677752 680.4236637907785,294.3645130604993 684.010569868842,294.6712780962356 687.5947251261223,295.0086667322481 691.1764921015091,295.3705304276209 694.7564449986206,295.7499210633283 698.3353054784359,296.1394819263739 701.9138610838181,296.5318335278598 705.4928801437726,296.9199347626968 709.0730379744871,297.2973866234334 712.654864889651,297.6586565361123 716.2387230196523,297.99918686372484 719.8248115373892,298.3153658367051 723.4131959501935,298.6043248406194 727.0038224020388,298.8639431822459 730.5964575286141,299.09410149145475 734.1907655493046,299.2964621902064 737.7863960442012,299.47377926262016 741.3830349582929,299.62930585726065 744.9804275355797,299.7662972616716 748.5783831761032,299.8876035221228 752.1767703452822,299.99535221440203 755.7755069998957,300.0907172538102 756.0,300.09589800084177 756.0,262.10183294891186" stroke="rgb(255, 0, 0)" stroke-width="1pt" /></svg>