<?xml version="1.0" encoding="utf-8" ?>
<svg baseProfile="full" height="8.5in" version="1.1" width="11in" xmlns="http://www.w3.org/2000/svg" xmlns:ev="http://www.w3.org/2001/xml-events" xmlns:xlink="http://www.w3.org/1999/xlink"><defs /><polygon fill="none" points="756.0,252.77065100306976 752.5393871709856,252.51517752324423 748.950272386991,252.23543645133915 745.3627281660546,251.93622672083893 741.7772937537226,251.61271462699153 738.1945680331578,251.2604698098492 734.6151675295063,250.87590247574533 731.0396678559921,250.4566148838699 727.4685382092118,250.00160604232147 723.9020916647289,249.5112398063857 720.3404846836294,248.98687761077707 716.7837363441353,248.43051329712478 713.2314848838088,247.84612510199352 709.6829007112243,247.2398657762238 706.1367543064517,246.61950646427718 702.5915414229491,245.99383433716372 699.0456485157695,245.37202770257937 695.497530339226,244.7630470745765 691.9458730482428,244.17505856498983 688.3897152966257,243.61493175290786 684.8285136967814,243.08782344784413 681.2621473670026,242.59687416144152 677.6908691324546,242.14303303125993 674.1152190721161,241.72502986619867 670.5359233247583,241.3394887491364 666.9537972983215,240.98119678617263 663.3696683118989,240.64352918529116 659.7843227311155,240.31903409078782 656.1984715230753,240.00017500937895 652.6127155062162,239.68024722446822 649.0274867646245,239.3544637527181 645.4429774522764,239.02085771307006 641.8593308137257,238.67810886915552 638.2767242195016,238.3246545000755 634.6952954353821,237.95945884802012 631.1150826542519,237.5825285602582 627.5359814991696,237.19518514455592 623.9577239090872,236.800124871916 620.3798849533647,236.40129106327632 616.8019185475462,236.00360224166548 613.2232190141933,235.61256560657796 609.6431962545696,235.23383477792038 606.0613520126833,234.87273669309246 602.4773395058176,234.53383501025579 598.8909961126608,234.22056026444787 595.3023432177399,233.9349549427603 591.711555937812,233.67757057977866 588.1189117540225,233.44755369195465 584.5247309873118,233.24294524587683 580.9293203516584,233.061224688344 577.3329267237135,232.90012573466078 573.7357132752311,232.7585086239126 570.1378526660031,232.63441576929927 566.5395434270403,232.5240952327067 562.9409608273739,232.423083978983 559.3422411459549,232.3270805698397 555.743481967249,232.2325693341072 552.1447446511597,232.13722925970438 548.5460538120466,232.04015071169727 544.9473951319856,231.94188726772725 541.3487162224465,231.8443674951722 537.7499351338361,231.75069425320967 534.1509585858124,231.6648583238065 530.5517082181107,231.59139547198254 526.9521497287399,231.53501567419204 523.352317740842,231.50023552313655 519.7523294708899,231.49104551729292 516.1523828346745,231.51064695606308 512.5527390290362,231.56128757740112 508.95369463415057,231.64422998900574 505.3555526766063,231.75987796070967 501.75861098150796,231.90823712646278 498.16324784860444,232.09089511987793 494.5699804730526,232.31096230915117 490.97942194866584,232.5715184124257 487.39219656538614,232.87452674490845 483.80883054542755,233.22019706039143 480.2296406199529,233.6067193461406 476.6546469444305,234.03029958644336 473.0835327798562,234.48542992335447 469.51565935212136,234.96530407734025 465.95013542634297,235.46233439301685 462.38592656276955,235.96870893505584 458.8219839836488,236.47695424268792 455.25736817650125,236.9804561269287 451.69134737270224,237.47390888745608 448.1234541286784,237.95363568392392 444.5534942540153,238.417733188006 440.9815075532237,238.86596416570376 437.4076874742563,239.29933472673582 433.8322659145035,239.71928790276263 430.25537046363485,240.12649661283055 426.6770578929069,240.52105858029591 423.0974600425027,240.9037846303391 419.51678627643275,241.27631030861986 415.9353077974035,241.64101827981074 412.3533355164803,242.00084404139267 408.77119656888715,242.359006797883 405.18920967817553,242.71868709310365 401.6076591220975,243.0826865632369 398.02676507041025,243.45308876435172 394.44665077978095,243.83095337771493 390.8673096067044,244.21607253683194 387.28857789939633,244.60681460918644 383.7101216194114,245.00007108050787 380.1314463846888,245.39133002849888 376.55193697689936,245.7748823711419 372.97092794047205,246.14417125673955 369.38779866828907,246.49228706911433 365.8020790235109,246.81262225146486 362.21354307913134,247.09969328082207 358.6222637221297,247.35011807986078 355.0285313313974,247.5624562624895 351.4327244982895,247.73616066362547 347.83527785409194,247.87172482611626 344.2366413204538,247.97079600641283 340.6372343246312,248.03613572192305 337.0374076459392,248.07146111473384 333.43742077957256,248.08118541357405 329.837437861697,248.0700952826379 326.23753978233987,248.04300620290923 322.6377466091046,248.00441721576507 319.0380432436255,247.95820379175558 315.43840223810446,247.90736452178024 311.8388001069278,247.85384352376673 308.2392263320753,247.79844822257542 304.639686667232,247.74087912305382 301.0402032057954,247.67989706959185 297.4408127573601,247.61365207194999 293.8415622037465,247.54019832928287 290.24249562349746,247.45822424231312 286.64362751932305,247.3679559269625 283.04496684128736,247.26976568121648 279.4465923487289,247.16159446829488 275.8486666281921,247.0394040042662 272.2514502874792,246.8978603781004 268.65531945698655,246.7309980097245 265.06077653944686,246.53285358268937 261.4684417832936,246.29805366843547 257.87901500513516,246.02234475628515 254.2932049168126,245.70302358491668 250.71163070394098,245.33925695960176 247.13471244526127,244.93224864184432 243.5625721687898,244.48524322217884 239.99497037851933,244.00335374723784 236.4312968747213,243.49322517684806 232.87062517193445,242.96254916931332 229.31182545916326,242.41946114294973 225.75371985057288,241.8718440521667 222.19525426060386,241.3265710517288 218.63566292501778,240.78869604429633 215.07460324687884,240.26062979018334 211.51193612185935,239.74351959273463 207.94725132752325,239.24050635530526 204.37998535889295,238.75613716857669 200.809589741767,238.29540390821037 197.23566248672984,237.8629180983823 193.65802827705605,237.4622518260664 190.07676255999115,237.09546051785983 186.49216642827358,236.76278864878273 182.90470758208457,236.46255702669694 179.3149485733906,236.19120806410365 175.72348164751838,235.94348781792655 172.13088509410116,235.71272819326316 168.53770732972964,235.4912026786471 164.94447735227894,235.27052569944541 161.35173324615135,235.0420748559677 157.76005675574464,234.79741184638166 154.17010061042402,234.52868359205291 150.58259772686384,234.22897863639275 146.9983475400569,233.89259998312448 143.41818254488481,233.51521608396553 139.8429889740786,233.09332636938848 136.27382117306524,232.62317617188802 132.71187934928767,232.10109337766477 129.15844340730735,231.52395127536886 125.6147841424027,230.88953893764563 122.08205845493134,230.19682744136452 118.56119884425762,229.44612936495395 115.05281420181166,228.63913667561317 111.55711974532427,227.77883424804287 108.07391357956821,226.86928776388774 104.60261113487073,225.91531746170992 101.14233617136071,224.92209181921683 97.69205710512514,223.89468033149802 94.2507465705584,222.83761751185108 90.81753404672924,221.75454236846417 87.39182422676335,220.64796556164538 83.9733528304975,219.51922586051307 80.56215970606996,218.36867752695287 77.15846027334636,217.1961460042734 73.76239893970606,216.00167230504297 70.37368628701813,214.78650706627383 66.9919656888928,213.5520169706413 63.61737716565085,212.29816199545328 60.25031044442889,211.0242461054356 56.89115731337256,209.72960706612213 53.540109202256694,208.41413127501582 50.197004058165014,207.07859842422263 46.861233061576414,205.7248510850495 43.53170749261483,204.35581511560565 40.2068888180752,202.97538736254052 36.884873307564305,201.58822733286652 36.0,201.21823826554353 36.0,358.4446579953353 39.52597328064508,358.0516524118222 43.09876519715854,357.60988559403694 46.666556273616514,357.1293995539204 50.229601256470914,356.61489935940523 53.78829650707285,356.0711272441371 57.34310065616162,355.50247316508614 60.89445905574028,354.9126820853451 64.44273958272953,354.3046481210069 67.98819433972874,353.6803480600813 71.53095896113162,353.04095863466347 75.07109845746633,352.3871908268823 78.60875781812449,351.7201329223885 82.1444766949738,351.0428648632779 85.67903357074657,350.35955842255925 89.21317619571325,349.6741126505293 92.74743260423955,348.98925380464146 96.2820028342784,348.3060164455025 99.81673081423556,347.62359567522367 103.3511252917863,346.93944972803206 106.8844184652829,346.24963863061305 110.41564287398722,345.54931429477233 113.9437196084061,344.8333013367525 117.46755734828074,344.0967094666948 120.98616497975874,343.3355259568204 124.49876915786737,342.5471022839555 128.004929292784,341.7304988867537 131.5046297843756,340.88664080084493 134.99832157514308,340.0182413126347 138.48689225292583,339.1294924020225 141.9715457949875,338.22550695313674 145.45359332188428,337.3115348417284 148.93417669573012,336.39200269019267 152.41385082710826,335.4690357680239 155.89255416318167,334.542416590804 159.36995898135876,333.610936193523 162.84573200479,332.6733851871305 166.3197080023719,331.72919729893 169.79198379786726,330.77877591869003 173.26295319094484,329.8235945367952 176.73329145471695,328.8661226912565 180.2039046956773,327.90964805402314 183.67585696372237,326.9580454855016 187.1502909565399,326.01554432924024 190.62835517920558,325.08652911784014 194.11114212657577,324.17537870258053 197.59964316711793,323.2863564924327 201.0947186415752,322.4235428231811 204.597078185389,321.5907897830446 208.10725934737945,320.7916476117089 211.62560329344797,320.0292462232244 215.1522181079188,319.3060671649305 218.68693239812305,318.6235754897974 222.2292973139593,317.98197530038624 218.78946821554436,318.6050039983102 219.4586495274185,323.116257962903 223.75073956820236,340.2512419058031 229.70168414796834,356.8830178257161 237.25417241729605,372.8514126286795 246.33546978554182,388.0026419435284 256.85811839470733,402.1907911494561 268.7207793864214,415.27922061357856 281.80920885054377,427.1418816052926 295.99735805647146,437.66453021445807 311.1485873713202,446.74582758270384 327.11698217428363,454.29831585203146 343.74875809419643,460.2492604317975 360.8837420370965,464.5413504725814 378.35691474067863,467.13325080099537 395.9999999999995,468.0 413.64308525932034,467.1332508009955 431.11625796290247,464.5413504725816 448.25124190580254,460.2492604317978 464.88301782571546,454.29831585203186 480.8514126286789,446.7458275827043 496.00264194352764,437.66453021445864 510.1907911494555,427.1418816052933 523.2792206135779,415.27922061357924 535.141881605292,402.190791149457 545.6645302144575,388.00264194352934 554.7458275827033,372.85141262868063 562.2983158520311,356.8830178257173 568.2492604317972,340.2512419058045 572.5413504725813,323.11625796290446 575.1332508009954,305.64308525932233 575.4903661066,298.37383621769993 572.7342921804341,298.8317790379449 576.2856029962354,298.2417015095032 579.8429431488003,297.6891338313404 583.406241523006,297.17639150191695 586.9752848134414,296.7052970411156 590.5497123200573,296.2769653939697 594.1290072326645,295.89141652730797 597.7125343498019,295.5474203053208 601.2996001021551,295.2425280484574 604.8895157067187,294.9732587555362 608.481648808045,294.73539370481006 612.0754568656414,294.52434005012924 615.6705022523669,294.33553150322473 619.2664529422636,294.1648310760705 622.8630742294322,294.0088973828333 626.4602168893696,293.86549346357685 630.0578037166919,293.7337018861633 633.6558137589126,293.6140200743479 637.2542609953739,293.5082964421559 640.8531653651498,293.4194857603229 644.4525172179342,293.3511758792124 648.0522444696588,293.30686207559125 651.6521998033005,293.2889289836985 655.2521872423564,293.2984389069227 658.8519712334349,293.33787515388104 662.4512328179733,293.4107863743297 666.0495538651636,293.5207210883538 669.6464393347189,293.67043721608076 673.2413721734297,293.86137669643574 676.8338895587146,294.0933655677752 680.4236637907785,294.3645130604993 684.010569868842,294.6712780962356 687.5947251261223,295.0086667322481 691.1764921015091,295.3705304276209 694.7564449986206,295.7499210633283 698.3353054784359,296.1394819263739 701.9138610838181,296.5318335278598 705.4928801437726,296.9199347626968 709.0730379744871,297.2973866234334 712.654864889651,297.6586565361123 716.2387230196523,297.99918686372484 719.8248115373892,298.3153658367051 723.4131959501935,298.6043248406194 727.0038224020388,298.8639431822459 730.5964575286141,299.09410149145475 734.1907655493046,299.2964621902064 737.7863960442012,299.47377926262016 741.3830349582929,299.62930585726065 744.9804275355797,299.7662972616716 748.5783831761032,299.8876035221228 752.1767703452822,299.99535221440203 755.7755069998957,300.0907172538102 756.0,300.09589800084177 756.0,252.77065100306976" stroke="rgb(255, 0, 0)" stroke-width="1pt" /></svg>