<?xml version="1.0" encoding="utf-8" ?>
<svg baseProfile="full" height="8.5in" version="1.1" width="11in" xmlns="http://www.w3.org/2000/svg" xmlns:ev="http://www.w3.org/2001/xml-events" xmlns:xlink="http://www.w3.org/1999/xlink"><defs /><polygon fill="none" points="756.0,277.6827961847915 753.2365416793679,277.5894384442797 749.6384622753671,277.47186037444624 746.0403225578102,277.3561427312803 742.4422390378229,277.23869068491433 738.8443732578982,277.1147478366058 735.2469396829564,276.97883730029093 731.6502148583622,276.82531031195225 728.0545344626336,276.6490080380796 724.460261597731,276.44602386967165 720.8677105850634,276.21455633116716 717.2770371803974,275.95558818443095 713.6882598610096,275.6715505956371 710.1012740929157,275.3657187799415 706.5158194429341,275.04243105526666 702.9314684300411,274.7071284809055 699.3476451207706,274.36623188671706 695.7636738004414,274.02689492283304 692.1788523793697,273.6966595839825 688.592538277776,273.3830496914246 685.004230978705,273.0931346565729 681.4136346463656,272.8331000854257 677.8206876286927,272.6078630365308 674.225552850025,272.42076433740584 670.6285711088826,272.2733792842666 667.0301887152478,272.1654712253478 663.4308761771127,272.09512029910206 659.8310569165023,272.05904688869185 656.2310617358503,272.0531562790499 652.6311182289148,272.0733242455619 649.0313765532077,272.11645043455036 645.4319615969625,272.18135014763266 641.8329525092216,272.2658107085935 638.2343360128837,272.3656070626585 634.6360223695565,272.47578384898713 631.0378874367077,272.5916501728871 627.439816532702,272.70948806894677 623.8417352639092,272.8270090592525 620.2436236358028,272.94359684457294 616.6455175972714,273.0603570068006 613.0475068957363,273.1800189959195 609.4497367836866,273.3067084621017 605.8524180877528,273.4456264230899 602.2558446040521,273.60265882847455 598.6604123034073,273.78395022782854 595.0666313915016,273.9954656107723 591.475122590932,274.24257800510304 587.8865913237188,274.52970749546125 584.3017806991106,274.860060012776 580.7214106268224,275.2354932897536 577.1461198966638,275.6565588367205 573.5764108297742,276.12258155909103 570.0124000869672,276.630348656446 566.4536774822378,277.1739417235357 562.8993753313324,277.7457250916646 559.348298426735,278.33720866509253 555.799086266493,278.9397806870039 552.2503779445587,279.5453128874976 548.7009564455523,280.14665058163456 545.1498560424268,280.7379930601718 541.5964251461885,281.3151662279985 538.040345457492,281.8757884248837 534.4816150852986,282.4193306385412 530.9205060125181,282.94706368825524 527.3575092343409,283.4618976019588 523.793276539235,283.9681043730886 520.22856561171,284.47093237865704 516.6641870010632,284.9761106837763 513.1009458726787,285.48925068513074 509.53956648373014,286.0151564257076 505.98058592592713,286.5570580673185 502.4242233414127,287.1158828765977 498.87065255530155,287.6921941363325 495.3202797761346,288.28788963652573 491.77351712167626,288.9047159272587 488.23057533440686,289.54312292285033 484.6913079196159,290.2015955241018 481.1551168951537,290.8763940410779 477.62093747030866,291.56165004652524 474.0873073124755,292.24973282326937 470.5525153274437,292.93182198353765 467.0148054590724,293.5986119708863 463.4725981860691,294.24108191966394 459.9246852576071,294.85125718305346 456.37035995606453,295.4228966243221 452.8094567420626,295.9520169324851 449.2423001121153,296.4371906925167 445.66957987498927,296.87953683212913 442.09218626874946,297.282345702482 438.51103812716144,297.650283180867 434.9269261026051,297.9881307728819 431.34037534707346,298.2990225193074 427.7517221864224,298.5846245020551 424.16144113724334,298.84897651718944 420.5700771015719,299.0981839875544 416.9781702167873,299.33944096887797 413.3862289175237,299.58018502933265 409.7947254029815,299.8273742383027 406.20409220709365,300.08689929024933 402.61470529212977,300.3631266869472 399.0268490790141,300.6585717647658 395.4406673005783,300.97369118976985 391.8561118092997,301.3068006761919 388.27290461178615,301.65411347423856 384.69052881668415,302.00989945297727 381.1082609305616,302.3667702868304 377.52524959924256,302.7160979262162 373.94063509627097,303.0485717824603 370.353692328953,303.3549075198227 366.76396786269964,303.62671306866633 363.1713737184664,303.85751019781003 359.5762028083816,304.04391332890003 355.97896462702124,304.18490079842627 352.3801621645466,304.27774925607076 348.7803975628585,304.3189173557716 345.1804226316231,304.3054825324836 341.58109099140074,304.2361157991421 337.98324323904404,304.1116507403436 334.38756489140934,303.93530670060716 330.79445852594523,303.7126261076907 327.20396471604715,303.45117974400677 323.61575248690315,303.160090413008 320.02918127454905,302.84943475361587 316.44341918894617,302.5295749945763 312.8575894370658,302.2104747117032 309.27091078125244,301.9010620100692 305.6828013819887,301.6087078773545 302.09292727283963,301.33888593521345 298.50119183708097,301.0950897918563 294.9076787132996,300.8790725952928 291.31256988069396,300.6914760022522 287.71606389036106,300.53290531927587 284.11833304594927,300.40510558857164 280.5195743501019,300.3105759685434 276.9200548474551,300.251759728731 273.32011736407935,300.2305437963703 269.7201596095741,300.24798414551157 266.1205989310435,300.30422400305144 262.5218350865108,300.39855740797435 258.9242208893923,300.52959972438896 255.32804675083477,300.6955261091806 251.73354068427352,300.894337923352 248.1408824147801,301.1241347001803 244.550227358449,301.3833571267642 240.9617362962813,301.670988656229 237.375605731755,301.9866903733139 233.79209474835082,302.3308546245394 230.21154456965775,302.70456630198765 226.63438687891568,303.10946487640456 223.061136429202,303.54750736706166 219.4923632389443,304.0206436228039 215.92864238882572,304.53044133016436 212.37043474107256,305.0773950169339 208.8178774367127,305.6599210672008 205.27082611129515,306.27508518745947 201.72896328964296,306.9194513509084 198.19189905359758,307.5896577296371 194.65925234354913,308.2827718775116 191.13070685049638,308.9964711863646 187.6060399171534,309.7290850061897 184.0851295157489,310.47954482875275 180.56794581152928,311.247280975337 177.0545319442474,312.0320885932865 173.5449818665151,312.83399772273253 170.03941796817628,313.65315689814577 166.53797177167172,314.48974194043603 163.04076856144303,315.3438904675473 159.54791302508744,316.2156474303242 156.0594674891232,317.1048874106508 152.5754135411139,318.0111810095252 149.0955773931764,318.9335368971887 145.6194976117973,319.86994992224106 142.14622860193543,320.81673521212105 138.67440065167386,321.7687912418707 135.20241780340424,322.7202822304363 131.72853000121944,323.66479455848264 128.25097239171905,324.5957043675437 124.76813464881327,325.50666059952795 121.2787168752225,326.3920777900934 117.78183719887717,327.24754989902686 114.27707164910203,328.0701180974818 110.76443047381382,328.85837692151733 107.24427940794178,329.61239049794676 103.71723190647333,330.33345632183887 100.18402981214206,331.02373377374715 96.64543544980653,331.68581378314724 93.10213699744662,332.322238230748 89.55468116163921,332.935065362161 86.00343203474677,333.525514037954 82.4485645573,334.09377209358655 78.89009822069676,334.63904022144794 75.32797679971314,335.15989623050393 71.76219241264785,335.65505449304385 68.19293095037901,336.1244931087993 64.62055810838973,336.56963609461104 61.04549072732038,336.9925938003145 57.468107418086106,337.3954941090909 53.88870105940758,337.78000694301426 50.307459732706675,338.1470363150399 46.72447042809902,338.4965898060354 43.13973659448888,338.8277745613771 39.55321035703694,339.138949027021 36.0,339.4251144171745 36.0,358.4446579953353 39.52597328064508,358.0516524118222 43.09876519715854,357.60988559403694 46.666556273616514,357.1293995539204 50.229601256470914,356.61489935940523 53.78829650707285,356.0711272441371 57.34310065616162,355.50247316508614 60.89445905574028,354.9126820853451 64.44273958272953,354.3046481210069 67.98819433972874,353.6803480600813 71.53095896113162,353.04095863466347 75.07109845746633,352.3871908268823 78.60875781812449,351.7201329223885 82.1444766949738,351.0428648632779 85.67903357074657,350.35955842255925 89.21317619571325,349.6741126505293 92.74743260423955,348.98925380464146 96.2820028342784,348.3060164455025 99.81673081423556,347.62359567522367 103.3511252917863,346.93944972803206 106.8844184652829,346.24963863061305 110.41564287398722,345.54931429477233 113.9437196084061,344.8333013367525 117.46755734828074,344.0967094666948 120.98616497975874,343.3355259568204 124.49876915786737,342.5471022839555 128.004929292784,341.7304988867537 131.5046297843756,340.88664080084493 134.99832157514308,340.0182413126347 138.48689225292583,339.1294924020225 141.9715457949875,338.22550695313674 145.45359332188428,337.3115348417284 148.93417669573012,336.39200269019267 152.41385082710826,335.4690357680239 155.89255416318167,334.542416590804 159.36995898135876,333.610936193523 162.84573200479,332.6733851871305 166.3197080023719,331.72919729893 169.79198379786726,330.77877591869003 173.26295319094484,329.8235945367952 176.73329145471695,328.8661226912565 180.2039046956773,327.90964805402314 183.67585696372237,326.9580454855016 187.1502909565399,326.01554432924024 190.62835517920558,325.08652911784014 194.11114212657577,324.17537870258053 197.59964316711793,323.2863564924327 201.0947186415752,322.4235428231811 204.597078185389,321.5907897830446 208.10725934737945,320.7916476117089 211.62560329344797,320.0292462232244 215.1522181079188,319.3060671649305 218.68693239812305,318.6235754897974 222.2292973139593,317.98197530038624 225.7789704988699,317.38212508547707 229.33575319834293,316.8259804741308 232.89943893407755,316.31593736132413 236.46973542624625,315.85443659425226 240.04623229522736,315.44374188261315 243.6283962711053,315.08582953311634 247.21557967365672,314.78232461312405 250.80703611876882,314.5344524628875 254.40194022535488,314.3429727917714 257.99941243761447,314.2080888341625 261.59855111185726,314.1293436529148 265.1984722121217,314.1055093945676 268.7983554280506,314.1345064922404 272.3974914942036,314.2133707890834 275.99532265982293,314.3383143911547 279.5914663873918,314.50489857607994 283.1857134636017,314.70833887483195 286.77799497973535,314.943951923801 290.3683181996172,315.2077305749026 293.95667814756433,315.49699323057916 297.5430251335203,315.810226843598 301.12733047521243,316.1460172805029 304.7096598458406,316.50227039323994 308.2902298628566,316.8757919498409 311.86943642282915,317.26216016935405 315.4478479626057,317.65582354330957 319.0261634192971,318.05035933687367 322.6051431173427,318.4388233905226 326.1855255299508,318.81413896372294 329.7679457091497,319.169477759337 333.3528690972914,319.4986043324896 336.9405505403007,319.79616418106923 340.53102317994535,320.0579011176351 344.12411630655356,320.28079522594936 347.7194971036077,320.463105193242 351.31672734595315,320.6042950779898 354.9153238606105,320.7048093789429 358.5148096744638,320.7656524218402 362.11474205081913,320.7877179077499 365.7147033824821,320.77103226927426 369.3143012253582,320.7172236309179 372.91327443009266,320.6312476365758 376.51156666379575,320.5203738305079 380.10932012950366,320.3932125156868 383.7068121481136,320.2588578505755 387.30436494974504,320.1261407097316 390.902258183077,320.00299737233865 394.5006661574586,319.8959457497149 398.0996325383725,319.80968458202216 401.6990835323972,319.7468153398236 405.2988711299973,319.70770968594996 408.89883006755804,319.69051527185087 412.4988299781496,319.6913176062841 416.09880604110003,319.70444567485475 419.69875857707933,319.72293185066866 423.2987222483913,319.73910482917915 426.8987168759342,319.74532428749137 430.4987016440653,319.73485198000344 434.0985594573151,319.7028562867848 437.69813019812506,319.64726418388517 441.29719641257805,319.5652740382405 444.8953941076573,319.4513734362836 448.49216853632726,319.2990129779424 452.08677062312586,319.10194487402015 455.678302152943,318.8551630466315 459.26580837196144,318.5554980194692 462.84840287281247,318.20192109364996 466.42539846187304,317.7955929555137 469.99641651463435,317.3397091250779 473.56145285554413,316.83919350295156 477.12088485519325,316.300265084816 480.6754181901256,315.7299206530429 484.22598403603376,315.1353769844447 487.7736064709855,314.52351502368305 491.31926552927195,313.9003763213129 494.8637829904922,313.27077647450204 498.4077532297725,312.63810361820435 501.95153687267026,312.00438641603114 505.49532710874325,311.3707060843861 509.0392910096891,310.73799772440293 512.583532493229,310.106846152785 516.1279323220758,309.4765844188442 519.6722136270216,308.8456565058366 523.2160099071195,308.21200997569207 526.7589211393805,307.57343343343655 530.3005618198321,306.9278474278799 533.8406039221566,306.27355245329227 537.3788175728905,305.60944089507336 540.9151086737683,304.9351670264916 544.4495547690747,304.25128779784563 547.9824345082641,303.5593624056066 551.5142475810724,302.86201283850244 555.0457181962202,302.1629310876693 558.5777771211697,301.4668278261597 562.1115149106603,300.77929801944134 565.6481052305113,300.10659532914207 569.1886979452039,299.4552864710221 572.7342921804341,298.8317790379449 576.2856029962354,298.2417015095032 579.8429431488003,297.6891338313404 583.406241523006,297.17639150191695 586.9752848134414,296.7052970411156 590.5497123200573,296.2769653939697 594.1290072326645,295.89141652730797 597.7125343498019,295.5474203053208 601.2996001021551,295.2425280484574 604.8895157067187,294.9732587555362 608.481648808045,294.73539370481006 612.0754568656414,294.52434005012924 615.6705022523669,294.33553150322473 619.2664529422636,294.1648310760705 622.8630742294322,294.0088973828333 626.4602168893696,293.86549346357685 630.0578037166919,293.7337018861633 633.6558137589126,293.6140200743479 637.2542609953739,293.5082964421559 640.8531653651498,293.4194857603229 644.4525172179342,293.3511758792124 648.0522444696588,293.30686207559125 651.6521998033005,293.2889289836985 655.2521872423564,293.2984389069227 658.8519712334349,293.33787515388104 662.4512328179733,293.4107863743297 666.0495538651636,293.5207210883538 669.6464393347189,293.67043721608076 673.2413721734297,293.86137669643574 676.8338895587146,294.0933655677752 680.4236637907785,294.3645130604993 684.010569868842,294.6712780962356 687.5947251261223,295.0086667322481 691.1764921015091,295.3705304276209 694.7564449986206,295.7499210633283 698.3353054784359,296.1394819263739 701.9138610838181,296.5318335278598 705.4928801437726,296.9199347626968 709.0730379744871,297.2973866234334 712.654864889651,297.6586565361123 716.2387230196523,297.99918686372484 719.8248115373892,298.3153658367051 723.4131959501935,298.6043248406194 727.0038224020388,298.8639431822459 730.5964575286141,299.09410149145475 734.1907655493046,299.2964621902064 737.7863960442012,299.47377926262016 741.3830349582929,299.62930585726065 744.9804275355797,299.7662972616716 748.5783831761032,299.8876035221228 752.1767703452822,299.99535221440203 755.7755069998957,300.0907172538102 756.0,300.09589800084177 756.0,277.6827961847915" stroke="rgb(255, 0, 0)" stroke-width="1pt" /></svg>