<?xml version="1.0" encoding="utf-8" ?>
<svg baseProfile="full" height="8.5in" version="1.1" width="11in" xmlns="http://www.w3.org/2000/svg" xmlns:ev="http://www.w3.org/2001/xml-events" xmlns:xlink="http://www.w3.org/1999/xlink"><defs /><polygon fill="none" points="756.0,258.12252108190415 754.8804197795007,258.0529610206097 751.2876924936049,257.82424580646835 747.6955581980667,257.58639879089304 744.1043481539356,257.33498196780357 740.514471861272,257.06518907803 736.9264066628041,256.7722929675354 733.3406746209178,256.4520965843738 729.7578019454035,256.10134967982117 726.1782626752059,255.7180761311466 722.602418275407,255.30173873380232 719.0304753101165,254.8531593621061 715.4624205962145,254.37463500681946 711.8978936704345,253.8705042743813 708.3361679357099,253.34694931967204 704.7761959909035,252.8115991985445 701.2167073968835,252.2730446989422 697.6563454786799,251.74029427763358 694.0938200293969,251.2222089340742 690.528049522776,250.72695072453826 686.9582694695866,250.2614720764226 683.3840885763128,249.83108743199764 679.8054877147654,249.4391488223504 676.2227666879194,249.086856268078 672.6364559631954,248.77320776141795 669.0472130326448,248.49511571641938 665.4557258276324,248.24768965426705 661.8626394889795,248.02468614984073 658.2685120013625,247.8191439333592 654.6737940269102,247.62420116188662 651.0788155028706,247.4341237784505 647.4837578158019,247.24554958443412 643.8886889491383,247.05718864382743 640.2937334810468,246.86667569823277 636.6990544030145,246.67101700060587 633.1048127506539,246.46748089954403 629.5111349396111,246.25422098671768 625.9180830276223,246.03066348236212 622.3256300466751,245.79767940633204 618.7336461059396,245.55757241039316 615.1419018631773,245.31390605123838 611.5500918160717,245.07121162297273 607.9578755517972,244.83460581010695 604.3649285749827,244.6093681094448 600.7709921178339,244.40051231714662 597.1759100531292,244.21240344431337 593.5796452366178,244.04845415482902 589.9822725051854,243.91094258750923 586.3839522345504,243.8009824586597 582.7848932944706,243.71867361447127 579.185316776022,243.66345687939148 575.5854316186525,243.63470181460627 571.9854330518957,243.63148944014543 568.38548466005,243.65076574806446 564.7856771686648,243.6879951043232 561.186026091483,243.73811618315392 557.586495966008,243.7962786779279 553.9870316090133,243.85837813626011 550.387583618955,243.921419129787 546.7881228625106,243.98372693681705 543.1886446979706,244.04502084352836 539.5891674720482,244.1063698456877 535.9897306423156,244.17004487034274 532.390396628405,244.23928832711772 528.7912577446303,244.31802393088438 525.1924464378295,244.41052894719735 521.5941447816988,244.52109653506267 517.9965882898091,244.6537136065986 514.4000598377223,244.81177401698028 510.8048719995577,244.99785036774227 507.2113382790803,245.2135246587277 503.6197373231119,245.45929400809217 500.0303658325052,245.73572176071485 496.4437620348559,246.0460009876821 492.86068397640247,246.39464353676308 489.2820115075084,246.78592778175596 485.7086235451114,247.22284707658724 482.1412585445806,247.7064863564108 478.5803784938549,248.23576252661277 475.0260617426492,248.80745512941468 471.4779456329882,249.4164477996205 467.93523250607393,250.05612248286923 464.39675973937244,250.7188520501225 460.8611214346038,251.39654060532513 457.32682340998736,252.0811846538586 453.7924442983691,252.7654099788478 450.25677732539464,253.44294894910516 446.7189297664898,254.10900799299753 443.1783640842028,254.76046378536702 439.6348742222315,255.39582163579945 436.0884964979252,256.0148572054917 432.5393598089529,256.61787359249183 428.98752294091054,257.20477636366843 425.43308140566444,257.77569262067766 421.8762289083336,258.3313906611918 418.3172273736578,258.87315451765994 414.75637264311536,259.40260100973813 411.193957809443,259.92144641333266 407.6302405809817,260.43126943710445 404.06541360673754,260.9332740622837 400.49958024033856,261.42807948169184 396.9327357008949,261.91554233303646 393.36475559317387,262.3946226508403 389.79539645351656,262.8633180019428 386.2243078939769,263.3186492000008 382.65106171998633,263.75672656766756 379.07519673807724,264.17288715104405 375.4962778955773,264.56191146750626 371.9139645680807,264.918325866262 368.3280784433596,265.2367920348461 364.7386584762811,265.51258960542657 361.1459876795692,265.7421904470039 357.5505692739765,265.92375720807524 353.9530034518546,266.05612093233736 350.353949776023,266.1386596413331 346.7541050609685,266.1720965594702 343.1541290152436,266.1589637681926 339.5545525089116,266.10374624323 335.95570309654875,266.0127357650697 332.35767303496107,265.8936573207076 328.76033897771896,265.75513771701964 325.1634261146146,265.60608116656215 321.5665966691499,265.45502508347374 317.96953783409816,265.30953371886324 314.3720270154662,265.17568339265534 310.77396139805427,265.05768418588576 307.17535072071377,264.95767822140937 303.57628290340614,264.87575846542416 299.97687914003296,264.8102409241474 296.3772546194096,264.75824755411674 292.7774950639779,264.71664054655804 289.17764881816277,264.6833688394937 285.5777320221304,264.6588931036692 281.97776456825534,264.64358522856145 278.3777733954856,264.6356130281139 274.77777599580236,264.6312861037973 271.1777806322606,264.6255083466531 267.5778049725142,264.61227017331555 263.9779070661718,264.58515811120986 260.3782177308172,264.53786446539186 256.7789616223458,264.46468341845224 253.18045561146616,264.36097956286784 249.58307761769748,264.22360573002834 245.98720582539642,264.0512512890253 242.3931370704981,263.8446846289277 238.80100173810092,263.6068532732493 235.2106978128811,263.3428121314719 231.62186833113012,263.0594343784373 228.0339395251353,262.76487218956566 224.4462225780514,262.46774072437404 220.8580642005569,262.1759883327543 217.2690129325552,261.89543353301724 213.67894659360996,261.62818143859613 210.08792541954313,261.37408120757743 206.4960212201425,261.1327842487735 202.90328909150398,260.90414511859524 199.30975946199402,260.6884026753114 195.71544155913716,260.48621757891993 192.12033382764045,260.2985998853716 188.52443713125987,260.1267658114539 184.9277676274648,259.9719482398725 181.3303660972669,259.8351921411784 177.73230138554214,259.71716532117193 174.1336675945448,259.6179945679627 170.53457561738298,259.537143223325 166.93514100468747,259.4733429966064 163.3354712903853,259.4245787890792 159.7356558337887,259.3881277472816 156.1357605956523,259.3606636899886 152.53582929486473,259.3384234199842 148.93589036224827,259.31745483795555 145.3359670282955,259.2939603777078 141.73608501004307,259.264814972188 138.1362674510027,259.2285721573877 134.53652975461029,259.1851150846459 130.9368839586288,259.1346161393806 127.3373487974023,259.07676613424513 123.73796311288575,259.0102627952514 120.13880265712059,258.93251954051993 116.54000280970669,258.83956977853137 112.94179059243419,258.7261288711354 109.3445265446458,258.585802927386 105.7487527641033,258.41141565960805 102.1552384824929,258.1954177247518 98.56500997338138,257.93035310553057 94.97935240224864,257.6093238505109 91.39977526430911,257.22640412845334 87.82794236504647,256.7769491921749 84.26557814210268,256.2577564118995 80.71437277358851,255.6670446119191 77.17590743750351,255.00427537204374 73.65161573626284,254.2698585935276 70.1427960239372,253.46475970121995 66.65081643224485,252.58950057890007 63.1771939513157,251.64401294810648 59.7234194939546,250.62841361880382 56.29076464391638,249.54357230298424 52.88009726278115,248.3914663984511 49.491727682228245,247.17534486439962 46.125300118877945,245.89974090520408 42.77974222830329,244.5703642088484 39.45328001502165,243.19390166173372 36.143514825045,241.77776099526767 36.0,241.71471206677063 36.0,358.4446579953353 39.52597328064508,358.0516524118222 43.09876519715854,357.60988559403694 46.666556273616514,357.1293995539204 50.229601256470914,356.61489935940523 53.78829650707285,356.0711272441371 57.34310065616162,355.50247316508614 60.89445905574028,354.9126820853451 64.44273958272953,354.3046481210069 67.98819433972874,353.6803480600813 71.53095896113162,353.04095863466347 75.07109845746633,352.3871908268823 78.60875781812449,351.7201329223885 82.1444766949738,351.0428648632779 85.67903357074657,350.35955842255925 89.21317619571325,349.6741126505293 92.74743260423955,348.98925380464146 96.2820028342784,348.3060164455025 99.81673081423556,347.62359567522367 103.3511252917863,346.93944972803206 106.8844184652829,346.24963863061305 110.41564287398722,345.54931429477233 113.9437196084061,344.8333013367525 117.46755734828074,344.0967094666948 120.98616497975874,343.3355259568204 124.49876915786737,342.5471022839555 128.004929292784,341.7304988867537 131.5046297843756,340.88664080084493 134.99832157514308,340.0182413126347 138.48689225292583,339.1294924020225 141.9715457949875,338.22550695313674 145.45359332188428,337.3115348417284 148.93417669573012,336.39200269019267 152.41385082710826,335.4690357680239 155.89255416318167,334.542416590804 159.36995898135876,333.610936193523 162.84573200479,332.6733851871305 166.3197080023719,331.72919729893 169.79198379786726,330.77877591869003 173.26295319094484,329.8235945367952 176.73329145471695,328.8661226912565 180.2039046956773,327.90964805402314 183.67585696372237,326.9580454855016 187.1502909565399,326.01554432924024 190.62835517920558,325.08652911784014 194.11114212657577,324.17537870258053 197.59964316711793,323.2863564924327 201.0947186415752,322.4235428231811 204.597078185389,321.5907897830446 208.10725934737945,320.7916476117089 211.62560329344797,320.0292462232244 215.1522181079188,319.3060671649305 218.68693239812305,318.6235754897974 222.2292973139593,317.98197530038624 225.7789704988699,317.38212508547707 229.33575319834293,316.8259804741308 232.89943893407755,316.31593736132413 236.46973542624625,315.85443659425226 240.04623229522736,315.44374188261315 243.6283962711053,315.08582953311634 247.21557967365672,314.78232461312405 250.80703611876882,314.5344524628875 254.40194022535488,314.3429727917714 257.99941243761447,314.2080888341625 261.59855111185726,314.1293436529148 265.1984722121217,314.1055093945676 268.7983554280506,314.1345064922404 272.3974914942036,314.2133707890834 275.99532265982293,314.3383143911547 279.5914663873918,314.50489857607994 283.1857134636017,314.70833887483195 286.77799497973535,314.943951923801 290.3683181996172,315.2077305749026 293.95667814756433,315.49699323057916 297.5430251335203,315.810226843598 301.12733047521243,316.1460172805029 304.7096598458406,316.50227039323994 308.2902298628566,316.8757919498409 311.86943642282915,317.26216016935405 315.4478479626057,317.65582354330957 319.0261634192971,318.05035933687367 322.6051431173427,318.4388233905226 326.1855255299508,318.81413896372294 329.7679457091497,319.169477759337 333.3528690972914,319.4986043324896 336.9405505403007,319.79616418106923 340.53102317994535,320.0579011176351 344.12411630655356,320.28079522594936 347.7194971036077,320.463105193242 351.31672734595315,320.6042950779898 354.9153238606105,320.7048093789429 358.5148096744638,320.7656524218402 362.11474205081913,320.7877179077499 365.7147033824821,320.77103226927426 369.3143012253582,320.7172236309179 372.91327443009266,320.6312476365758 376.51156666379575,320.5203738305079 380.10932012950366,320.3932125156868 383.7068121481136,320.2588578505755 387.30436494974504,320.1261407097316 390.902258183077,320.00299737233865 394.5006661574586,319.8959457497149 398.0996325383725,319.80968458202216 401.6990835323972,319.7468153398236 405.2988711299973,319.70770968594996 408.89883006755804,319.69051527185087 412.4988299781496,319.6913176062841 416.09880604110003,319.70444567485475 419.69875857707933,319.72293185066866 423.2987222483913,319.73910482917915 426.8987168759342,319.74532428749137 430.4987016440653,319.73485198000344 434.0985594573151,319.7028562867848 437.69813019812506,319.64726418388517 441.29719641257805,319.5652740382405 444.8953941076573,319.4513734362836 448.49216853632726,319.2990129779424 452.08677062312586,319.10194487402015 455.678302152943,318.8551630466315 459.26580837196144,318.5554980194692 462.84840287281247,318.20192109364996 466.42539846187304,317.7955929555137 469.99641651463435,317.3397091250779 473.56145285554413,316.83919350295156 477.12088485519325,316.300265084816 480.6754181901256,315.7299206530429 484.22598403603376,315.1353769844447 487.7736064709855,314.52351502368305 491.31926552927195,313.9003763213129 494.8637829904922,313.27077647450204 498.4077532297725,312.63810361820435 501.95153687267026,312.00438641603114 505.49532710874325,311.3707060843861 509.0392910096891,310.73799772440293 512.583532493229,310.106846152785 516.1279323220758,309.4765844188442 519.6722136270216,308.8456565058366 523.2160099071195,308.21200997569207 526.7589211393805,307.57343343343655 530.3005618198321,306.9278474278799 533.8406039221566,306.27355245329227 537.3788175728905,305.60944089507336 540.9151086737683,304.9351670264916 544.4495547690747,304.25128779784563 547.9824345082641,303.5593624056066 551.5142475810724,302.86201283850244 555.0457181962202,302.1629310876693 558.5777771211697,301.4668278261597 562.1115149106603,300.77929801944134 565.6481052305113,300.10659532914207 569.1886979452039,299.4552864710221 572.7342921804341,298.8317790379449 576.2856029962354,298.2417015095032 579.8429431488003,297.6891338313404 583.406241523006,297.17639150191695 586.9752848134414,296.7052970411156 590.5497123200573,296.2769653939697 594.1290072326645,295.89141652730797 597.7125343498019,295.5474203053208 601.2996001021551,295.2425280484574 604.8895157067187,294.9732587555362 608.481648808045,294.73539370481006 612.0754568656414,294.52434005012924 615.6705022523669,294.33553150322473 619.2664529422636,294.1648310760705 622.8630742294322,294.0088973828333 626.4602168893696,293.86549346357685 630.0578037166919,293.7337018861633 633.6558137589126,293.6140200743479 637.2542609953739,293.5082964421559 640.8531653651498,293.4194857603229 644.4525172179342,293.3511758792124 648.0522444696588,293.30686207559125 651.6521998033005,293.2889289836985 655.2521872423564,293.2984389069227 658.8519712334349,293.33787515388104 662.4512328179733,293.4107863743297 666.0495538651636,293.5207210883538 669.6464393347189,293.67043721608076 673.2413721734297,293.86137669643574 676.8338895587146,294.0933655677752 680.4236637907785,294.3645130604993 684.010569868842,294.6712780962356 687.5947251261223,295.0086667322481 691.1764921015091,295.3705304276209 694.7564449986206,295.7499210633283 698.3353054784359,296.1394819263739 701.9138610838181,296.5318335278598 705.4928801437726,296.9199347626968 709.0730379744871,297.2973866234334 712.654864889651,297.6586565361123 716.2387230196523,297.99918686372484 719.8248115373892,298.3153658367051 723.4131959501935,298.6043248406194 727.0038224020388,298.8639431822459 730.5964575286141,299.09410149145475 734.1907655493046,299.2964621902064 737.7863960442012,299.47377926262016 741.3830349582929,299.62930585726065 744.9804275355797,299.7662972616716 748.5783831761032,299.8876035221228 752.1767703452822,299.99535221440203 755.7755069998957,300.0907172538102 756.0,300.09589800084177 756.0,258.12252108190415" stroke="rgb(255, 0, 0)" stroke-width="1pt" /></svg>