<?xml version="1.0" encoding="utf-8" ?>
<svg baseProfile="full" height="7in" version="1.1" width="5in" xmlns="http://www.w3.org/2000/svg" xmlns:ev="http://www.w3.org/2001/xml-events" xmlns:xlink="http://www.w3.org/1999/xlink"><defs /><polygon fill="none" points="39.6,36.0 39.6,468.0 36.0,468.0 36.0,36.0 39.6,36.0" stroke="rgb(255, 0, 0)" stroke-width="0.001pt" /><polygon fill="none" points="47.52,36.0 47.52,468.0 43.92,468.0 43.92,36.0 47.52,36.0" stroke="rgb(255, 0, 0)" stroke-width="0.001pt" /><polygon fill="none" points="55.44,36.0 55.44,468.0 51.839999999999996,468.0 51.839999999999996,36.0 55.44,36.0" stroke="rgb(255, 0, 0)" stroke-width="0.001pt" /><polygon fill="none" points="63.36,36.0 63.36,468.0 59.76,468.0 59.76,36.0 63.36,36.0" stroke="rgb(255, 0, 0)" stroke-width="0.001pt" /><polygon fill="none" points="71.28,36.0 71.28,468.0 67.67999999999999,468.0 67.67999999999999,36.0 71.28,36.0" stroke="rgb(255, 0, 0)" stroke-width="0.001pt" /><polygon fill="none" points="79.19999999999999,36.0 79.19999999999999,468.0 75.6,468.0 75.6,36.0 79.19999999999999,36.0" stroke="rgb(255, 0, 0)" stroke-width="0.001pt" /><polygon fill="none" points="87.12,36.0 87.12,468.0 83.52,468.0 83.52,36.0 87.12,36.0" stroke="rgb(255, 0, 0)" stroke-width="0.001pt" /><polygon fill="none" points="95.04,36.0 95.04,468.0 91.44,468.0 91.44,36.0 95.04,36.0" stroke="rgb(255, 0, 0)" stroke-width="0.001pt" /><polygon fill="none" points="102.96,36.0 102.96,468.0 99.35999999999999,468.0 99.35999999999999,36.0 102.96,36.0" stroke="rgb(255, 0, 0)" stroke-width="0.001pt" /><polygon fill="none" points="110.87999999999998,36.0 110.87999999999998,468.0 107.27999999999999,468.0 107.27999999999999,36.0 110.87999999999998,36.0" stroke="rgb(255, 0, 0)" stroke-width="0.001pt" /><polygon fill="none" points="118.8,36.0 118.8,468.0 115.19999999999999,468.0 115.19999999999999,36.0 118.8,36.0" stroke="rgb(255, 0, 0)" stroke-width="0.001pt" /><polygon fill="none" points="126.72,36.0 126.72,468.0 123.12,468.0 123.12,36.0 126.72,36.0" stroke="rgb(255, 0, 0)" stroke-width="0.001pt" /><polygon fill="none" points="134.64,36.0 134.64,468.0 131.04,468.0 131.04,36.0 134.64,36.0" stroke="rgb(255, 0, 0)" stroke-width="0.001pt" /><polygon fill="none" points="142.55999999999997,36.0 142.55999999999997,468.0 138.95999999999998,468.0 138.95999999999998,36.0 142.55999999999997,36.0" stroke="rgb(255, 0, 0)" stroke-width="0.001pt" /><polygon fill="none" points="150.48,36.0 150.48,468.0 146.88,468.0 146.88,36.0 150.48,36.0" stroke="rgb(255, 0, 0)" stroke-width="0.001pt" /><polygon fill="none" points="158.39999999999998,36.0 158.39999999999998,468.0 154.79999999999998,468.0 154.79999999999998,36.0 158.39999999999998,36.0" stroke="rgb(255, 0, 0)" stroke-width="0.001pt" /><polygon fill="none" points="166.31999999999996,36.0 166.31999999999996,468.0 162.71999999999997,468.0 162.71999999999997,36.0 166.31999999999996,36.0" stroke="rgb(255, 0, 0)" stroke-width="0.001pt" /><polygon fill="none" points="174.23999999999995,36.0 174.23999999999995,468.0 170.64,468.0 170.64,36.0 174.23999999999995,36.0" stroke="rgb(255, 0, 0)" stroke-width="0.001pt" /><polygon fill="none" points="182.15999999999997,36.0 182.15999999999997,468.0 178.55999999999997,468.0 178.55999999999997,36.0 182.15999999999997,36.0" stroke="rgb(255, 0, 0)" stroke-width="0.001pt" /><polygon fill="none" points="190.07999999999998,36.0 190.07999999999998,468.0 186.48,468.0 186.48,36.0 190.07999999999998,36.0" stroke="rgb(255, 0, 0)" stroke-width="0.001pt" /><polygon fill="none" points="197.99999999999997,36.0 197.99999999999997,468.0 194.39999999999998,468.0 194.39999999999998,36.0 197.99999999999997,36.0" stroke="rgb(255, 0, 0)" stroke-width="0.001pt" /><polygon fill="none" points="205.91999999999996,36.0 205.91999999999996,468.0 202.31999999999996,468.0 202.31999999999996,36.0 205.91999999999996,36.0" stroke="rgb(255, 0, 0)" stroke-width="0.001pt" /><polygon fill="none" points="213.83999999999997,36.0 213.83999999999997,468.0 210.24,468.0 210.24,36.0 213.83999999999997,36.0" stroke="rgb(255, 0, 0)" stroke-width="0.001pt" /><polygon fill="none" points="221.75999999999996,36.0 221.75999999999996,468.0 218.16,468.0 218.16,36.0 221.75999999999996,36.0" stroke="rgb(255, 0, 0)" stroke-width="0.001pt" /><polygon fill="none" points="229.67999999999995,36.0 229.67999999999995,468.0 226.07999999999998,468.0 226.07999999999998,36.0 229.67999999999995,36.0" stroke="rgb(255, 0, 0)" stroke-width="0.001pt" /><polygon fill="none" points="237.59999999999997,36.0 237.59999999999997,468.0 233.99999999999997,468.0 233.99999999999997,36.0 237.59999999999997,36.0" stroke="rgb(255, 0, 0)" stroke-width="0.001pt" /><polygon fill="none" points="245.51999999999995,36.0 245.51999999999995,468.0 241.91999999999996,468.0 241.91999999999996,36.0 245.51999999999995,36.0" stroke="rgb(255, 0, 0)" stroke-width="0.001pt" /><polygon fill="none" points="253.43999999999997,36.0 253.43999999999997,468.0 249.83999999999997,468.0 249.83999999999997,36.0 253.43999999999997,36.0" stroke="rgb(255, 0, 0)" stroke-width="0.001pt" /><polygon fill="none" points="261.35999999999996,36.0 261.35999999999996,468.0 257.76,468.0 257.76,36.0 261.35999999999996,36.0" stroke="rgb(255, 0, 0)" stroke-width="0.001pt" /><polygon fill="none" points="269.28,36.0 269.28,468.0 265.67999999999995,468.0 265.67999999999995,36.0 269.28,36.0" stroke="rgb(255, 0, 0)" stroke-width="0.001pt" /><polygon fill="none" points="277.2,36.0 277.2,468.0 273.59999999999997,468.0 273.59999999999997,36.0 277.2,36.0" stroke="rgb(255, 0, 0)" stroke-width="0.001pt" /><polygon fill="none" points="285.11999999999995,36.0 285.11999999999995,468.0 281.52,468.0 281.52,36.0 285.11999999999995,36.0" stroke="rgb(255, 0, 0)" stroke-width="0.001pt" /><polygon fill="none" points="293.03999999999996,36.0 293.03999999999996,468.0 289.43999999999994,468.0 289.43999999999994,36.0 293.03999999999996,36.0" stroke="rgb(255, 0, 0)" stroke-width="0.001pt" /><polygon fill="none" points="300.9599999999999,36.0 300.9599999999999,468.0 297.3599999999999,468.0 297.3599999999999,36.0 300.9599999999999,36.0" stroke="rgb(255, 0, 0)" stroke-width="0.001pt" /><polygon fill="none" points="308.87999999999994,36.0 308.87999999999994,468.0 305.28,468.0 305.28,36.0 308.87999999999994,36.0" stroke="rgb(255, 0, 0)" stroke-width="0.001pt" /><polygon fill="none" points="316.79999999999995,36.0 316.79999999999995,468.0 313.2,468.0 313.2,36.0 316.79999999999995,36.0" stroke="rgb(255, 0, 0)" stroke-width="0.001pt" /><polygon fill="none" points="324.7199999999999,36.0 324.7199999999999,468.0 321.11999999999995,468.0 321.11999999999995,36.0 324.7199999999999,36.0" stroke="rgb(255, 0, 0)" stroke-width="0.001pt" /></svg>