<?xml version="1.0" encoding="utf-8" ?>
<svg baseProfile="full" height="7in" version="1.1" width="5in" xmlns="http://www.w3.org/2000/svg" xmlns:ev="http://www.w3.org/2001/xml-events" xmlns:xlink="http://www.w3.org/1999/xlink"><defs /><polygon fill="none" points="324.0,36.0 324.0,39.6 36.0,39.6 36.0,36.0 324.0,36.0" stroke="rgb(255, 0, 0)" stroke-width="0.001pt" /><polygon fill="none" points="324.0,43.92 324.0,47.52 36.0,47.52 36.0,43.92 324.0,43.92" stroke="rgb(255, 0, 0)" stroke-width="0.001pt" /><polygon fill="none" points="324.0,51.839999999999996 324.0,55.44 36.0,55.44 36.0,51.839999999999996 324.0,51.839999999999996" stroke="rgb(255, 0, 0)" stroke-width="0.001pt" /><polygon fill="none" points="324.0,59.76 324.0,63.36 36.0,63.36 36.0,59.76 324.0,59.76" stroke="rgb(255, 0, 0)" stroke-width="0.001pt" /><polygon fill="none" points="324.0,67.67999999999999 324.0,71.28 36.0,71.28 36.0,67.67999999999999 324.0,67.67999999999999" stroke="rgb(255, 0, 0)" stroke-width="0.001pt" /><polygon fill="none" points="324.0,75.6 324.0,79.19999999999999 36.0,79.19999999999999 36.0,75.6 324.0,75.6" stroke="rgb(255, 0, 0)" stroke-width="0.001pt" /><polygon fill="none" points="324.0,83.52 324.0,87.12 36.0,87.12 36.0,83.52 324.0,83.52" stroke="rgb(255, 0, 0)" stroke-width="0.001pt" /><polygon fill="none" points="324.0,91.44 324.0,95.04 36.0,95.04 36.0,91.44 324.0,91.44" stroke="rgb(255, 0, 0)" stroke-width="0.001pt" /><polygon fill="none" points="324.0,99.35999999999999 324.0,102.96 36.0,102.96 36.0,99.35999999999999 324.0,99.35999999999999" stroke="rgb(255, 0, 0)" stroke-width="0.001pt" /><polygon fill="none" points="324.0,107.27999999999999 324.0,110.87999999999998 36.0,110.87999999999998 36.0,107.27999999999999 324.0,107.27999999999999" stroke="rgb(255, 0, 0)" stroke-width="0.001pt" /><polygon fill="none" points="324.0,115.19999999999999 324.0,118.8 36.0,118.8 36.0,115.19999999999999 324.0,115.19999999999999" stroke="rgb(255, 0, 0)" stroke-width="0.001pt" /><polygon fill="none" points="324.0,123.12 324.0,126.72 36.0,126.72 36.0,123.12 324.0,123.12" stroke="rgb(255, 0, 0)" stroke-width="0.001pt" /><polygon fill="none" points="324.0,131.04 324.0,134.64 36.0,134.64 36.0,131.04 324.0,131.04" stroke="rgb(255, 0, 0)" stroke-width="0.001pt" /><polygon fill="none" points="324.0,138.95999999999998 324.0,142.55999999999997 36.0,142.55999999999997 36.0,138.95999999999998 324.0,138.95999999999998" stroke="rgb(255, 0, 0)" stroke-width="0.001pt" /><polygon fill="none" points="324.0,146.88 324.0,150.48 36.0,150.48 36.0,146.88 324.0,146.88" stroke="rgb(255, 0, 0)" stroke-width="0.001pt" /><polygon fill="none" points="324.0,154.79999999999998 324.0,158.39999999999998 36.0,158.39999999999998 36.0,154.79999999999998 324.0,154.79999999999998" stroke="rgb(255, 0, 0)" stroke-width="0.001pt" /><polygon fill="none" points="324.0,162.71999999999997 324.0,166.31999999999996 36.0,166.31999999999996 36.0,162.71999999999997 324.0,162.71999999999997" stroke="rgb(255, 0, 0)" stroke-width="0.001pt" /><polygon fill="none" points="324.0,170.64 324.0,174.23999999999995 36.0,174.23999999999995 36.0,170.64 324.0,170.64" stroke="rgb(255, 0, 0)" stroke-width="0.001pt" /><polygon fill="none" points="324.0,178.55999999999997 324.0,182.15999999999997 36.0,182.15999999999997 36.0,178.55999999999997 324.0,178.55999999999997" stroke="rgb(255, 0, 0)" stroke-width="0.001pt" /><polygon fill="none" points="324.0,186.48 324.0,190.07999999999998 36.0,190.07999999999998 36.0,186.48 324.0,186.48" stroke="rgb(255, 0, 0)" stroke-width="0.001pt" /><polygon fill="none" points="324.0,194.39999999999998 324.0,197.99999999999997 36.0,197.99999999999997 36.0,194.39999999999998 324.0,194.39999999999998" stroke="rgb(255, 0, 0)" stroke-width="0.001pt" /><polygon fill="none" points="324.0,202.31999999999996 324.0,205.91999999999996 36.0,205.91999999999996 36.0,202.31999999999996 324.0,202.31999999999996" stroke="rgb(255, 0, 0)" stroke-width="0.001pt" /><polygon fill="none" points="324.0,210.24 324.0,213.83999999999997 36.0,213.83999999999997 36.0,210.24 324.0,210.24" stroke="rgb(255, 0, 0)" stroke-width="0.001pt" /><polygon fill="none" points="324.0,218.16 324.0,221.75999999999996 36.0,221.75999999999996 36.0,218.16 324.0,218.16" stroke="rgb(255, 0, 0)" stroke-width="0.001pt" /><polygon fill="none" points="324.0,226.07999999999998 324.0,229.67999999999995 36.0,229.67999999999995 36.0,226.07999999999998 324.0,226.07999999999998" stroke="rgb(255, 0, 0)" stroke-width="0.001pt" /><polygon fill="none" points="324.0,233.99999999999997 324.0,237.59999999999997 36.0,237.59999999999997 36.0,233.99999999999997 324.0,233.99999999999997" stroke="rgb(255, 0, 0)" stroke-width="0.001pt" /><polygon fill="none" points="324.0,241.91999999999996 324.0,245.51999999999995 36.0,245.51999999999995 36.0,241.91999999999996 324.0,241.91999999999996" stroke="rgb(255, 0, 0)" stroke-width="0.001pt" /><polygon fill="none" points="324.0,249.83999999999997 324.0,253.43999999999997 36.0,253.43999999999997 36.0,249.83999999999997 324.0,249.83999999999997" stroke="rgb(255, 0, 0)" stroke-width="0.001pt" /><polygon fill="none" points="324.0,257.76 324.0,261.35999999999996 36.0,261.35999999999996 36.0,257.76 324.0,257.76" stroke="rgb(255, 0, 0)" stroke-width="0.001pt" /><polygon fill="none" points="324.0,265.67999999999995 324.0,269.28 36.0,269.28 36.0,265.67999999999995 324.0,265.67999999999995" stroke="rgb(255, 0, 0)" stroke-width="0.001pt" /><polygon fill="none" points="324.0,273.59999999999997 324.0,277.2 36.0,277.2 36.0,273.59999999999997 324.0,273.59999999999997" stroke="rgb(255, 0, 0)" stroke-width="0.001pt" /><polygon fill="none" points="324.0,281.52 324.0,285.11999999999995 36.0,285.11999999999995 36.0,281.52 324.0,281.52" stroke="rgb(255, 0, 0)" stroke-width="0.001pt" /><polygon fill="none" points="324.0,289.43999999999994 324.0,293.03999999999996 36.0,293.03999999999996 36.0,289.43999999999994 324.0,289.43999999999994" stroke="rgb(255, 0, 0)" stroke-width="0.001pt" /><polygon fill="none" points="324.0,297.3599999999999 324.0,300.9599999999999 36.0,300.9599999999999 36.0,297.3599999999999 324.0,297.3599999999999" stroke="rgb(255, 0, 0)" stroke-width="0.001pt" /><polygon fill="none" points="324.0,305.28 324.0,308.87999999999994 36.0,308.87999999999994 36.0,305.28 324.0,305.28" stroke="rgb(255, 0, 0)" stroke-width="0.001pt" /><polygon fill="none" points="324.0,313.2 324.0,316.79999999999995 36.0,316.79999999999995 36.0,313.2 324.0,313.2" stroke="rgb(255, 0, 0)" stroke-width="0.001pt" /><polygon fill="none" points="324.0,321.11999999999995 324.0,324.7199999999999 36.0,324.7199999999999 36.0,321.11999999999995 324.0,321.11999999999995" stroke="rgb(255, 0, 0)" stroke-width="0.001pt" /><polygon fill="none" points="324.0,329.03999999999996 324.0,332.63999999999993 36.0,332.63999999999993 36.0,329.03999999999996 324.0,329.03999999999996" stroke="rgb(255, 0, 0)" stroke-width="0.001pt" /><polygon fill="none" points="324.0,336.96 324.0,340.55999999999995 36.0,340.55999999999995 36.0,336.96 324.0,336.96" stroke="rgb(255, 0, 0)" stroke-width="0.001pt" /><polygon fill="none" points="324.0,344.87999999999994 324.0,348.4799999999999 36.0,348.4799999999999 36.0,344.87999999999994 324.0,344.87999999999994" stroke="rgb(255, 0, 0)" stroke-width="0.001pt" /><polygon fill="none" points="324.0,352.79999999999995 324.0,356.4 36.0,356.4 36.0,352.79999999999995 324.0,352.79999999999995" stroke="rgb(255, 0, 0)" stroke-width="0.001pt" /><polygon fill="none" points="324.0,360.71999999999997 324.0,364.32 36.0,364.32 36.0,360.71999999999997 324.0,360.71999999999997" stroke="rgb(255, 0, 0)" stroke-width="0.001pt" /><polygon fill="none" points="324.0,368.63999999999993 324.0,372.23999999999995 36.0,372.23999999999995 36.0,368.63999999999993 324.0,368.63999999999993" stroke="rgb(255, 0, 0)" stroke-width="0.001pt" /><polygon fill="none" points="324.0,376.55999999999995 324.0,380.15999999999997 36.0,380.15999999999997 36.0,376.55999999999995 324.0,376.55999999999995" stroke="rgb(255, 0, 0)" stroke-width="0.001pt" /><polygon fill="none" points="324.0,384.48 324.0,388.08 36.0,388.08 36.0,384.48 324.0,384.48" stroke="rgb(255, 0, 0)" stroke-width="0.001pt" /><polygon fill="none" points="324.0,392.4 324.0,395.99999999999994 36.0,395.99999999999994 36.0,392.4 324.0,392.4" stroke="rgb(255, 0, 0)" stroke-width="0.001pt" /><polygon fill="none" points="324.0,400.32 324.0,403.91999999999996 36.0,403.91999999999996 36.0,400.32 324.0,400.32" stroke="rgb(255, 0, 0)" stroke-width="0.001pt" /><polygon fill="none" points="324.0,408.23999999999995 324.0,411.8399999999999 36.0,411.8399999999999 36.0,408.23999999999995 324.0,408.23999999999995" stroke="rgb(255, 0, 0)" stroke-width="0.001pt" /><polygon fill="none" points="324.0,416.15999999999997 324.0,419.75999999999993 36.0,419.75999999999993 36.0,416.15999999999997 324.0,416.15999999999997" stroke="rgb(255, 0, 0)" stroke-width="0.001pt" /><polygon fill="none" points="324.0,424.08 324.0,427.67999999999995 36.0,427.67999999999995 36.0,424.08 324.0,424.08" stroke="rgb(255, 0, 0)" stroke-width="0.001pt" /><polygon fill="none" points="324.0,431.99999999999994 324.0,435.5999999999999 36.0,435.5999999999999 36.0,431.99999999999994 324.0,431.99999999999994" stroke="rgb(255, 0, 0)" stroke-width="0.001pt" /><polygon fill="none" points="324.0,439.91999999999996 324.0,443.5199999999999 36.0,443.5199999999999 36.0,439.91999999999996 324.0,439.91999999999996" stroke="rgb(255, 0, 0)" stroke-width="0.001pt" /><polygon fill="none" points="324.0,447.8399999999999 324.0,451.4399999999999 36.0,451.4399999999999 36.0,447.8399999999999 324.0,447.8399999999999" stroke="rgb(255, 0, 0)" stroke-width="0.001pt" /><polygon fill="none" points="324.0,455.75999999999993 324.0,459.3599999999999 36.0,459.3599999999999 36.0,455.75999999999993 324.0,455.75999999999993" stroke="rgb(255, 0, 0)" stroke-width="0.001pt" /><polygon fill="none" points="324.0,463.67999999999995 324.0,467.28 36.0,467.28 36.0,463.67999999999995 324.0,463.67999999999995" stroke="rgb(255, 0, 0)" stroke-width="0.001pt" /></svg>