<?xml version="1.0" encoding="utf-8" standalone="no"?>
<!DOCTYPE svg PUBLIC "-//W3C//DTD SVG 1.1//EN"
  "http://www.w3.org/Graphics/SVG/1.1/DTD/svg11.dtd">
<!-- Created with matplotlib (https://matplotlib.org/) -->
<svg height="1008pt" version="1.1" viewBox="0 0 792 1008" width="792pt" xmlns="http://www.w3.org/2000/svg" xmlns:xlink="http://www.w3.org/1999/xlink">
 <metadata>
  <rdf:RDF xmlns:cc="http://creativecommons.org/ns#" xmlns:dc="http://purl.org/dc/elements/1.1/" xmlns:rdf="http://www.w3.org/1999/02/22-rdf-syntax-ns#">
   <cc:Work>
    <dc:type rdf:resource="http://purl.org/dc/dcmitype/StillImage"/>
    <dc:date>2021-04-13T16:15:18.557099</dc:date>
    <dc:format>image/svg+xml</dc:format>
    <dc:creator>
     <cc:Agent>
      <dc:title>Matplotlib v3.3.2, https://matplotlib.org/</dc:title>
     </cc:Agent>
    </dc:creator>
   </cc:Work>
  </rdf:RDF>
 </metadata>
 <defs>
  <style type="text/css">*{stroke-linecap:butt;stroke-linejoin:round;}</style>
 </defs>
 <g id="figure_1">
  <g id="axes_1">
   <g id="LineCollection_1">
    <path clip-path="url(#p6257157859)" d="M 148.67128 878.909082 
L 183.237512 907.013756 
L 163.625799 928.082351 
L 148.67128 928.082351 
L 148.67128 878.909082 
" style="fill:none;stroke:#ff0000;stroke-opacity:0.7;stroke-width:2.834647;"/>
    <path clip-path="url(#p6257157859)" d="M 155.471441 870.661053 
L 161.601032 868.501314 
L 199.83503 868.501314 
L 207.655577 879.625626 
L 207.655577 887.381444 
L 190.037672 899.616855 
L 155.471441 871.512181 
L 155.471441 870.661053 
" style="fill:none;stroke:#ff0000;stroke-opacity:0.7;stroke-width:2.834647;"/>
    <path clip-path="url(#p6257157859)" d="M 209.394712 805.210576 
L 209.394712 857.394712 
L 157.210576 857.394712 
L 209.394712 805.210576 
" style="fill:none;stroke:#ff0000;stroke-opacity:0.7;stroke-width:2.834647;"/>
    <path clip-path="url(#p6257157859)" d="M 139.32872 849.090918 
L 104.762488 820.986244 
L 124.374201 799.917649 
L 139.32872 799.917649 
L 139.32872 849.090918 
" style="fill:none;stroke:#ff0000;stroke-opacity:0.7;stroke-width:2.834647;"/>
    <path clip-path="url(#p6257157859)" d="M 132.528559 857.338947 
L 126.398968 859.498686 
L 88.16497 859.498686 
L 80.344423 848.374374 
L 80.344423 840.618556 
L 97.962328 828.383145 
L 132.528559 856.487819 
L 132.528559 857.338947 
" style="fill:none;stroke:#ff0000;stroke-opacity:0.7;stroke-width:2.834647;"/>
    <path clip-path="url(#p6257157859)" d="M 78.605288 922.789424 
L 78.605288 870.605288 
L 130.789424 870.605288 
L 78.605288 922.789424 
" style="fill:none;stroke:#ff0000;stroke-opacity:0.7;stroke-width:2.834647;"/>
    <path clip-path="url(#p6257157859)" d="M 302.909082 859.32872 
L 331.013756 824.762488 
L 352.082351 844.374201 
L 352.082351 859.32872 
L 302.909082 859.32872 
" style="fill:none;stroke:#ff0000;stroke-opacity:0.7;stroke-width:2.834647;"/>
    <path clip-path="url(#p6257157859)" d="M 294.661053 852.528559 
L 292.501314 846.398968 
L 292.501314 808.16497 
L 303.625626 800.344423 
L 311.381444 800.344423 
L 323.616855 817.962328 
L 295.512181 852.528559 
L 294.661053 852.528559 
" style="fill:none;stroke:#ff0000;stroke-opacity:0.7;stroke-width:2.834647;"/>
    <path clip-path="url(#p6257157859)" d="M 229.210576 798.605288 
L 281.394712 798.605288 
L 281.394712 850.789424 
L 229.210576 798.605288 
" style="fill:none;stroke:#ff0000;stroke-opacity:0.7;stroke-width:2.834647;"/>
    <path clip-path="url(#p6257157859)" d="M 273.090918 868.67128 
L 244.986244 903.237512 
L 223.917649 883.625799 
L 223.917649 868.67128 
L 273.090918 868.67128 
" style="fill:none;stroke:#ff0000;stroke-opacity:0.7;stroke-width:2.834647;"/>
    <path clip-path="url(#p6257157859)" d="M 281.338947 875.471441 
L 283.498686 881.601032 
L 283.498686 919.83503 
L 272.374374 927.655577 
L 264.618556 927.655577 
L 252.383145 910.037672 
L 280.487819 875.471441 
L 281.338947 875.471441 
" style="fill:none;stroke:#ff0000;stroke-opacity:0.7;stroke-width:2.834647;"/>
    <path clip-path="url(#p6257157859)" d="M 346.789424 929.394712 
L 294.605288 929.394712 
L 294.605288 877.210576 
L 346.789424 929.394712 
" style="fill:none;stroke:#ff0000;stroke-opacity:0.7;stroke-width:2.834647;"/>
    <path clip-path="url(#p6257157859)" d="M 283.32872 705.090918 
L 248.762488 676.986244 
L 268.374201 655.917649 
L 283.32872 655.917649 
L 283.32872 705.090918 
" style="fill:none;stroke:#ff0000;stroke-opacity:0.7;stroke-width:2.834647;"/>
    <path clip-path="url(#p6257157859)" d="M 276.528559 713.338947 
L 270.398968 715.498686 
L 232.16497 715.498686 
L 224.344423 704.374374 
L 224.344423 696.618556 
L 241.962328 684.383145 
L 276.528559 712.487819 
L 276.528559 713.338947 
" style="fill:none;stroke:#ff0000;stroke-opacity:0.7;stroke-width:2.834647;"/>
    <path clip-path="url(#p6257157859)" d="M 222.605288 778.789424 
L 222.605288 726.605288 
L 274.789424 726.605288 
L 222.605288 778.789424 
" style="fill:none;stroke:#ff0000;stroke-opacity:0.7;stroke-width:2.834647;"/>
    <path clip-path="url(#p6257157859)" d="M 292.67128 734.909082 
L 327.237512 763.013756 
L 307.625799 784.082351 
L 292.67128 784.082351 
L 292.67128 734.909082 
" style="fill:none;stroke:#ff0000;stroke-opacity:0.7;stroke-width:2.834647;"/>
    <path clip-path="url(#p6257157859)" d="M 299.471441 726.661053 
L 305.601032 724.501314 
L 343.83503 724.501314 
L 351.655577 735.625626 
L 351.655577 743.381444 
L 334.037672 755.616855 
L 299.471441 727.512181 
L 299.471441 726.661053 
" style="fill:none;stroke:#ff0000;stroke-opacity:0.7;stroke-width:2.834647;"/>
    <path clip-path="url(#p6257157859)" d="M 353.394712 661.210576 
L 353.394712 713.394712 
L 301.210576 713.394712 
L 353.394712 661.210576 
" style="fill:none;stroke:#ff0000;stroke-opacity:0.7;stroke-width:2.834647;"/>
    <path clip-path="url(#p6257157859)" d="M 129.090918 724.67128 
L 100.986244 759.237512 
L 79.917649 739.625799 
L 79.917649 724.67128 
L 129.090918 724.67128 
" style="fill:none;stroke:#ff0000;stroke-opacity:0.7;stroke-width:2.834647;"/>
    <path clip-path="url(#p6257157859)" d="M 137.338947 731.471441 
L 139.498686 737.601032 
L 139.498686 775.83503 
L 128.374374 783.655577 
L 120.618556 783.655577 
L 108.383145 766.037672 
L 136.487819 731.471441 
L 137.338947 731.471441 
" style="fill:none;stroke:#ff0000;stroke-opacity:0.7;stroke-width:2.834647;"/>
    <path clip-path="url(#p6257157859)" d="M 202.789424 785.394712 
L 150.605288 785.394712 
L 150.605288 733.210576 
L 202.789424 785.394712 
" style="fill:none;stroke:#ff0000;stroke-opacity:0.7;stroke-width:2.834647;"/>
    <path clip-path="url(#p6257157859)" d="M 158.909082 715.32872 
L 187.013756 680.762488 
L 208.082351 700.374201 
L 208.082351 715.32872 
L 158.909082 715.32872 
" style="fill:none;stroke:#ff0000;stroke-opacity:0.7;stroke-width:2.834647;"/>
    <path clip-path="url(#p6257157859)" d="M 150.661053 708.528559 
L 148.501314 702.398968 
L 148.501314 664.16497 
L 159.625626 656.344423 
L 167.381444 656.344423 
L 179.616855 673.962328 
L 151.512181 708.528559 
L 150.661053 708.528559 
" style="fill:none;stroke:#ff0000;stroke-opacity:0.7;stroke-width:2.834647;"/>
    <path clip-path="url(#p6257157859)" d="M 85.210576 654.605288 
L 137.394712 654.605288 
L 137.394712 706.789424 
L 85.210576 654.605288 
" style="fill:none;stroke:#ff0000;stroke-opacity:0.7;stroke-width:2.834647;"/>
    <path clip-path="url(#p6257157859)" d="M 148.67128 590.909082 
L 183.237512 619.013756 
L 163.625799 640.082351 
L 148.67128 640.082351 
L 148.67128 590.909082 
" style="fill:none;stroke:#ff0000;stroke-opacity:0.7;stroke-width:2.834647;"/>
    <path clip-path="url(#p6257157859)" d="M 155.471441 582.661053 
L 161.601032 580.501314 
L 199.83503 580.501314 
L 207.655577 591.625626 
L 207.655577 599.381444 
L 190.037672 611.616855 
L 155.471441 583.512181 
L 155.471441 582.661053 
" style="fill:none;stroke:#ff0000;stroke-opacity:0.7;stroke-width:2.834647;"/>
    <path clip-path="url(#p6257157859)" d="M 209.394712 517.210576 
L 209.394712 569.394712 
L 157.210576 569.394712 
L 209.394712 517.210576 
" style="fill:none;stroke:#ff0000;stroke-opacity:0.7;stroke-width:2.834647;"/>
    <path clip-path="url(#p6257157859)" d="M 139.32872 561.090918 
L 104.762488 532.986244 
L 124.374201 511.917649 
L 139.32872 511.917649 
L 139.32872 561.090918 
" style="fill:none;stroke:#ff0000;stroke-opacity:0.7;stroke-width:2.834647;"/>
    <path clip-path="url(#p6257157859)" d="M 132.528559 569.338947 
L 126.398968 571.498686 
L 88.16497 571.498686 
L 80.344423 560.374374 
L 80.344423 552.618556 
L 97.962328 540.383145 
L 132.528559 568.487819 
L 132.528559 569.338947 
" style="fill:none;stroke:#ff0000;stroke-opacity:0.7;stroke-width:2.834647;"/>
    <path clip-path="url(#p6257157859)" d="M 78.605288 634.789424 
L 78.605288 582.605288 
L 130.789424 582.605288 
L 78.605288 634.789424 
" style="fill:none;stroke:#ff0000;stroke-opacity:0.7;stroke-width:2.834647;"/>
    <path clip-path="url(#p6257157859)" d="M 302.909082 571.32872 
L 331.013756 536.762488 
L 352.082351 556.374201 
L 352.082351 571.32872 
L 302.909082 571.32872 
" style="fill:none;stroke:#ff0000;stroke-opacity:0.7;stroke-width:2.834647;"/>
    <path clip-path="url(#p6257157859)" d="M 294.661053 564.528559 
L 292.501314 558.398968 
L 292.501314 520.16497 
L 303.625626 512.344423 
L 311.381444 512.344423 
L 323.616855 529.962328 
L 295.512181 564.528559 
L 294.661053 564.528559 
" style="fill:none;stroke:#ff0000;stroke-opacity:0.7;stroke-width:2.834647;"/>
    <path clip-path="url(#p6257157859)" d="M 229.210576 510.605288 
L 281.394712 510.605288 
L 281.394712 562.789424 
L 229.210576 510.605288 
" style="fill:none;stroke:#ff0000;stroke-opacity:0.7;stroke-width:2.834647;"/>
    <path clip-path="url(#p6257157859)" d="M 273.090918 580.67128 
L 244.986244 615.237512 
L 223.917649 595.625799 
L 223.917649 580.67128 
L 273.090918 580.67128 
" style="fill:none;stroke:#ff0000;stroke-opacity:0.7;stroke-width:2.834647;"/>
    <path clip-path="url(#p6257157859)" d="M 281.338947 587.471441 
L 283.498686 593.601032 
L 283.498686 631.83503 
L 272.374374 639.655577 
L 264.618556 639.655577 
L 252.383145 622.037672 
L 280.487819 587.471441 
L 281.338947 587.471441 
" style="fill:none;stroke:#ff0000;stroke-opacity:0.7;stroke-width:2.834647;"/>
    <path clip-path="url(#p6257157859)" d="M 346.789424 641.394712 
L 294.605288 641.394712 
L 294.605288 589.210576 
L 346.789424 641.394712 
" style="fill:none;stroke:#ff0000;stroke-opacity:0.7;stroke-width:2.834647;"/>
    <path clip-path="url(#p6257157859)" d="M 283.32872 417.090918 
L 248.762488 388.986244 
L 268.374201 367.917649 
L 283.32872 367.917649 
L 283.32872 417.090918 
" style="fill:none;stroke:#ff0000;stroke-opacity:0.7;stroke-width:2.834647;"/>
    <path clip-path="url(#p6257157859)" d="M 276.528559 425.338947 
L 270.398968 427.498686 
L 232.16497 427.498686 
L 224.344423 416.374374 
L 224.344423 408.618556 
L 241.962328 396.383145 
L 276.528559 424.487819 
L 276.528559 425.338947 
" style="fill:none;stroke:#ff0000;stroke-opacity:0.7;stroke-width:2.834647;"/>
    <path clip-path="url(#p6257157859)" d="M 222.605288 490.789424 
L 222.605288 438.605288 
L 274.789424 438.605288 
L 222.605288 490.789424 
" style="fill:none;stroke:#ff0000;stroke-opacity:0.7;stroke-width:2.834647;"/>
    <path clip-path="url(#p6257157859)" d="M 292.67128 446.909082 
L 327.237512 475.013756 
L 307.625799 496.082351 
L 292.67128 496.082351 
L 292.67128 446.909082 
" style="fill:none;stroke:#ff0000;stroke-opacity:0.7;stroke-width:2.834647;"/>
    <path clip-path="url(#p6257157859)" d="M 299.471441 438.661053 
L 305.601032 436.501314 
L 343.83503 436.501314 
L 351.655577 447.625626 
L 351.655577 455.381444 
L 334.037672 467.616855 
L 299.471441 439.512181 
L 299.471441 438.661053 
" style="fill:none;stroke:#ff0000;stroke-opacity:0.7;stroke-width:2.834647;"/>
    <path clip-path="url(#p6257157859)" d="M 353.394712 373.210576 
L 353.394712 425.394712 
L 301.210576 425.394712 
L 353.394712 373.210576 
" style="fill:none;stroke:#ff0000;stroke-opacity:0.7;stroke-width:2.834647;"/>
    <path clip-path="url(#p6257157859)" d="M 129.090918 436.67128 
L 100.986244 471.237512 
L 79.917649 451.625799 
L 79.917649 436.67128 
L 129.090918 436.67128 
" style="fill:none;stroke:#ff0000;stroke-opacity:0.7;stroke-width:2.834647;"/>
    <path clip-path="url(#p6257157859)" d="M 137.338947 443.471441 
L 139.498686 449.601032 
L 139.498686 487.83503 
L 128.374374 495.655577 
L 120.618556 495.655577 
L 108.383145 478.037672 
L 136.487819 443.471441 
L 137.338947 443.471441 
" style="fill:none;stroke:#ff0000;stroke-opacity:0.7;stroke-width:2.834647;"/>
    <path clip-path="url(#p6257157859)" d="M 202.789424 497.394712 
L 150.605288 497.394712 
L 150.605288 445.210576 
L 202.789424 497.394712 
" style="fill:none;stroke:#ff0000;stroke-opacity:0.7;stroke-width:2.834647;"/>
    <path clip-path="url(#p6257157859)" d="M 158.909082 427.32872 
L 187.013756 392.762488 
L 208.082351 412.374201 
L 208.082351 427.32872 
L 158.909082 427.32872 
" style="fill:none;stroke:#ff0000;stroke-opacity:0.7;stroke-width:2.834647;"/>
    <path clip-path="url(#p6257157859)" d="M 150.661053 420.528559 
L 148.501314 414.398968 
L 148.501314 376.16497 
L 159.625626 368.344423 
L 167.381444 368.344423 
L 179.616855 385.962328 
L 151.512181 420.528559 
L 150.661053 420.528559 
" style="fill:none;stroke:#ff0000;stroke-opacity:0.7;stroke-width:2.834647;"/>
    <path clip-path="url(#p6257157859)" d="M 85.210576 366.605288 
L 137.394712 366.605288 
L 137.394712 418.789424 
L 85.210576 366.605288 
" style="fill:none;stroke:#ff0000;stroke-opacity:0.7;stroke-width:2.834647;"/>
    <path clip-path="url(#p6257157859)" d="M 148.67128 302.909082 
L 183.237512 331.013756 
L 163.625799 352.082351 
L 148.67128 352.082351 
L 148.67128 302.909082 
" style="fill:none;stroke:#ff0000;stroke-opacity:0.7;stroke-width:2.834647;"/>
    <path clip-path="url(#p6257157859)" d="M 155.471441 294.661053 
L 161.601032 292.501314 
L 199.83503 292.501314 
L 207.655577 303.625626 
L 207.655577 311.381444 
L 190.037672 323.616855 
L 155.471441 295.512181 
L 155.471441 294.661053 
" style="fill:none;stroke:#ff0000;stroke-opacity:0.7;stroke-width:2.834647;"/>
    <path clip-path="url(#p6257157859)" d="M 209.394712 229.210576 
L 209.394712 281.394712 
L 157.210576 281.394712 
L 209.394712 229.210576 
" style="fill:none;stroke:#ff0000;stroke-opacity:0.7;stroke-width:2.834647;"/>
    <path clip-path="url(#p6257157859)" d="M 139.32872 273.090918 
L 104.762488 244.986244 
L 124.374201 223.917649 
L 139.32872 223.917649 
L 139.32872 273.090918 
" style="fill:none;stroke:#ff0000;stroke-opacity:0.7;stroke-width:2.834647;"/>
    <path clip-path="url(#p6257157859)" d="M 132.528559 281.338947 
L 126.398968 283.498686 
L 88.16497 283.498686 
L 80.344423 272.374374 
L 80.344423 264.618556 
L 97.962328 252.383145 
L 132.528559 280.487819 
L 132.528559 281.338947 
" style="fill:none;stroke:#ff0000;stroke-opacity:0.7;stroke-width:2.834647;"/>
    <path clip-path="url(#p6257157859)" d="M 78.605288 346.789424 
L 78.605288 294.605288 
L 130.789424 294.605288 
L 78.605288 346.789424 
" style="fill:none;stroke:#ff0000;stroke-opacity:0.7;stroke-width:2.834647;"/>
    <path clip-path="url(#p6257157859)" d="M 302.909082 283.32872 
L 331.013756 248.762488 
L 352.082351 268.374201 
L 352.082351 283.32872 
L 302.909082 283.32872 
" style="fill:none;stroke:#ff0000;stroke-opacity:0.7;stroke-width:2.834647;"/>
    <path clip-path="url(#p6257157859)" d="M 294.661053 276.528559 
L 292.501314 270.398968 
L 292.501314 232.16497 
L 303.625626 224.344423 
L 311.381444 224.344423 
L 323.616855 241.962328 
L 295.512181 276.528559 
L 294.661053 276.528559 
" style="fill:none;stroke:#ff0000;stroke-opacity:0.7;stroke-width:2.834647;"/>
    <path clip-path="url(#p6257157859)" d="M 229.210576 222.605288 
L 281.394712 222.605288 
L 281.394712 274.789424 
L 229.210576 222.605288 
" style="fill:none;stroke:#ff0000;stroke-opacity:0.7;stroke-width:2.834647;"/>
    <path clip-path="url(#p6257157859)" d="M 273.090918 292.67128 
L 244.986244 327.237512 
L 223.917649 307.625799 
L 223.917649 292.67128 
L 273.090918 292.67128 
" style="fill:none;stroke:#ff0000;stroke-opacity:0.7;stroke-width:2.834647;"/>
    <path clip-path="url(#p6257157859)" d="M 281.338947 299.471441 
L 283.498686 305.601032 
L 283.498686 343.83503 
L 272.374374 351.655577 
L 264.618556 351.655577 
L 252.383145 334.037672 
L 280.487819 299.471441 
L 281.338947 299.471441 
" style="fill:none;stroke:#ff0000;stroke-opacity:0.7;stroke-width:2.834647;"/>
    <path clip-path="url(#p6257157859)" d="M 346.789424 353.394712 
L 294.605288 353.394712 
L 294.605288 301.210576 
L 346.789424 353.394712 
" style="fill:none;stroke:#ff0000;stroke-opacity:0.7;stroke-width:2.834647;"/>
    <path clip-path="url(#p6257157859)" d="M 283.32872 129.090918 
L 248.762488 100.986244 
L 268.374201 79.917649 
L 283.32872 79.917649 
L 283.32872 129.090918 
" style="fill:none;stroke:#ff0000;stroke-opacity:0.7;stroke-width:2.834647;"/>
    <path clip-path="url(#p6257157859)" d="M 276.528559 137.338947 
L 270.398968 139.498686 
L 232.16497 139.498686 
L 224.344423 128.374374 
L 224.344423 120.618556 
L 241.962328 108.383145 
L 276.528559 136.487819 
L 276.528559 137.338947 
" style="fill:none;stroke:#ff0000;stroke-opacity:0.7;stroke-width:2.834647;"/>
    <path clip-path="url(#p6257157859)" d="M 222.605288 202.789424 
L 222.605288 150.605288 
L 274.789424 150.605288 
L 222.605288 202.789424 
" style="fill:none;stroke:#ff0000;stroke-opacity:0.7;stroke-width:2.834647;"/>
    <path clip-path="url(#p6257157859)" d="M 292.67128 158.909082 
L 327.237512 187.013756 
L 307.625799 208.082351 
L 292.67128 208.082351 
L 292.67128 158.909082 
" style="fill:none;stroke:#ff0000;stroke-opacity:0.7;stroke-width:2.834647;"/>
    <path clip-path="url(#p6257157859)" d="M 299.471441 150.661053 
L 305.601032 148.501314 
L 343.83503 148.501314 
L 351.655577 159.625626 
L 351.655577 167.381444 
L 334.037672 179.616855 
L 299.471441 151.512181 
L 299.471441 150.661053 
" style="fill:none;stroke:#ff0000;stroke-opacity:0.7;stroke-width:2.834647;"/>
    <path clip-path="url(#p6257157859)" d="M 353.394712 85.210576 
L 353.394712 137.394712 
L 301.210576 137.394712 
L 353.394712 85.210576 
" style="fill:none;stroke:#ff0000;stroke-opacity:0.7;stroke-width:2.834647;"/>
    <path clip-path="url(#p6257157859)" d="M 129.090918 148.67128 
L 100.986244 183.237512 
L 79.917649 163.625799 
L 79.917649 148.67128 
L 129.090918 148.67128 
" style="fill:none;stroke:#ff0000;stroke-opacity:0.7;stroke-width:2.834647;"/>
    <path clip-path="url(#p6257157859)" d="M 137.338947 155.471441 
L 139.498686 161.601032 
L 139.498686 199.83503 
L 128.374374 207.655577 
L 120.618556 207.655577 
L 108.383145 190.037672 
L 136.487819 155.471441 
L 137.338947 155.471441 
" style="fill:none;stroke:#ff0000;stroke-opacity:0.7;stroke-width:2.834647;"/>
    <path clip-path="url(#p6257157859)" d="M 202.789424 209.394712 
L 150.605288 209.394712 
L 150.605288 157.210576 
L 202.789424 209.394712 
" style="fill:none;stroke:#ff0000;stroke-opacity:0.7;stroke-width:2.834647;"/>
    <path clip-path="url(#p6257157859)" d="M 158.909082 139.32872 
L 187.013756 104.762488 
L 208.082351 124.374201 
L 208.082351 139.32872 
L 158.909082 139.32872 
" style="fill:none;stroke:#ff0000;stroke-opacity:0.7;stroke-width:2.834647;"/>
    <path clip-path="url(#p6257157859)" d="M 150.661053 132.528559 
L 148.501314 126.398968 
L 148.501314 88.16497 
L 159.625626 80.344423 
L 167.381444 80.344423 
L 179.616855 97.962328 
L 151.512181 132.528559 
L 150.661053 132.528559 
" style="fill:none;stroke:#ff0000;stroke-opacity:0.7;stroke-width:2.834647;"/>
    <path clip-path="url(#p6257157859)" d="M 85.210576 78.605288 
L 137.394712 78.605288 
L 137.394712 130.789424 
L 85.210576 78.605288 
" style="fill:none;stroke:#ff0000;stroke-opacity:0.7;stroke-width:2.834647;"/>
    <path clip-path="url(#p6257157859)" d="M 643.32872 878.909082 
L 608.762488 907.013756 
L 628.374201 928.082351 
L 643.32872 928.082351 
L 643.32872 878.909082 
" style="fill:none;stroke:#ff0000;stroke-opacity:0.7;stroke-width:2.834647;"/>
    <path clip-path="url(#p6257157859)" d="M 636.528559 870.661053 
L 630.398968 868.501314 
L 592.16497 868.501314 
L 584.344423 879.625626 
L 584.344423 887.381444 
L 601.962328 899.616855 
L 636.528559 871.512181 
L 636.528559 870.661053 
" style="fill:none;stroke:#ff0000;stroke-opacity:0.7;stroke-width:2.834647;"/>
    <path clip-path="url(#p6257157859)" d="M 582.605288 805.210576 
L 582.605288 857.394712 
L 634.789424 857.394712 
L 582.605288 805.210576 
" style="fill:none;stroke:#ff0000;stroke-opacity:0.7;stroke-width:2.834647;"/>
    <path clip-path="url(#p6257157859)" d="M 652.67128 849.090918 
L 687.237512 820.986244 
L 667.625799 799.917649 
L 652.67128 799.917649 
L 652.67128 849.090918 
" style="fill:none;stroke:#ff0000;stroke-opacity:0.7;stroke-width:2.834647;"/>
    <path clip-path="url(#p6257157859)" d="M 659.471441 857.338947 
L 665.601032 859.498686 
L 703.83503 859.498686 
L 711.655577 848.374374 
L 711.655577 840.618556 
L 694.037672 828.383145 
L 659.471441 856.487819 
L 659.471441 857.338947 
" style="fill:none;stroke:#ff0000;stroke-opacity:0.7;stroke-width:2.834647;"/>
    <path clip-path="url(#p6257157859)" d="M 713.394712 922.789424 
L 713.394712 870.605288 
L 661.210576 870.605288 
L 713.394712 922.789424 
" style="fill:none;stroke:#ff0000;stroke-opacity:0.7;stroke-width:2.834647;"/>
    <path clip-path="url(#p6257157859)" d="M 489.090918 859.32872 
L 460.986244 824.762488 
L 439.917649 844.374201 
L 439.917649 859.32872 
L 489.090918 859.32872 
" style="fill:none;stroke:#ff0000;stroke-opacity:0.7;stroke-width:2.834647;"/>
    <path clip-path="url(#p6257157859)" d="M 497.338947 852.528559 
L 499.498686 846.398968 
L 499.498686 808.16497 
L 488.374374 800.344423 
L 480.618556 800.344423 
L 468.383145 817.962328 
L 496.487819 852.528559 
L 497.338947 852.528559 
" style="fill:none;stroke:#ff0000;stroke-opacity:0.7;stroke-width:2.834647;"/>
    <path clip-path="url(#p6257157859)" d="M 562.789424 798.605288 
L 510.605288 798.605288 
L 510.605288 850.789424 
L 562.789424 798.605288 
" style="fill:none;stroke:#ff0000;stroke-opacity:0.7;stroke-width:2.834647;"/>
    <path clip-path="url(#p6257157859)" d="M 518.909082 868.67128 
L 547.013756 903.237512 
L 568.082351 883.625799 
L 568.082351 868.67128 
L 518.909082 868.67128 
" style="fill:none;stroke:#ff0000;stroke-opacity:0.7;stroke-width:2.834647;"/>
    <path clip-path="url(#p6257157859)" d="M 510.661053 875.471441 
L 508.501314 881.601032 
L 508.501314 919.83503 
L 519.625626 927.655577 
L 527.381444 927.655577 
L 539.616855 910.037672 
L 511.512181 875.471441 
L 510.661053 875.471441 
" style="fill:none;stroke:#ff0000;stroke-opacity:0.7;stroke-width:2.834647;"/>
    <path clip-path="url(#p6257157859)" d="M 445.210576 929.394712 
L 497.394712 929.394712 
L 497.394712 877.210576 
L 445.210576 929.394712 
" style="fill:none;stroke:#ff0000;stroke-opacity:0.7;stroke-width:2.834647;"/>
    <path clip-path="url(#p6257157859)" d="M 508.67128 705.090918 
L 543.237512 676.986244 
L 523.625799 655.917649 
L 508.67128 655.917649 
L 508.67128 705.090918 
" style="fill:none;stroke:#ff0000;stroke-opacity:0.7;stroke-width:2.834647;"/>
    <path clip-path="url(#p6257157859)" d="M 515.471441 713.338947 
L 521.601032 715.498686 
L 559.83503 715.498686 
L 567.655577 704.374374 
L 567.655577 696.618556 
L 550.037672 684.383145 
L 515.471441 712.487819 
L 515.471441 713.338947 
" style="fill:none;stroke:#ff0000;stroke-opacity:0.7;stroke-width:2.834647;"/>
    <path clip-path="url(#p6257157859)" d="M 569.394712 778.789424 
L 569.394712 726.605288 
L 517.210576 726.605288 
L 569.394712 778.789424 
" style="fill:none;stroke:#ff0000;stroke-opacity:0.7;stroke-width:2.834647;"/>
    <path clip-path="url(#p6257157859)" d="M 499.32872 734.909082 
L 464.762488 763.013756 
L 484.374201 784.082351 
L 499.32872 784.082351 
L 499.32872 734.909082 
" style="fill:none;stroke:#ff0000;stroke-opacity:0.7;stroke-width:2.834647;"/>
    <path clip-path="url(#p6257157859)" d="M 492.528559 726.661053 
L 486.398968 724.501314 
L 448.16497 724.501314 
L 440.344423 735.625626 
L 440.344423 743.381444 
L 457.962328 755.616855 
L 492.528559 727.512181 
L 492.528559 726.661053 
" style="fill:none;stroke:#ff0000;stroke-opacity:0.7;stroke-width:2.834647;"/>
    <path clip-path="url(#p6257157859)" d="M 438.605288 661.210576 
L 438.605288 713.394712 
L 490.789424 713.394712 
L 438.605288 661.210576 
" style="fill:none;stroke:#ff0000;stroke-opacity:0.7;stroke-width:2.834647;"/>
    <path clip-path="url(#p6257157859)" d="M 662.909082 724.67128 
L 691.013756 759.237512 
L 712.082351 739.625799 
L 712.082351 724.67128 
L 662.909082 724.67128 
" style="fill:none;stroke:#ff0000;stroke-opacity:0.7;stroke-width:2.834647;"/>
    <path clip-path="url(#p6257157859)" d="M 654.661053 731.471441 
L 652.501314 737.601032 
L 652.501314 775.83503 
L 663.625626 783.655577 
L 671.381444 783.655577 
L 683.616855 766.037672 
L 655.512181 731.471441 
L 654.661053 731.471441 
" style="fill:none;stroke:#ff0000;stroke-opacity:0.7;stroke-width:2.834647;"/>
    <path clip-path="url(#p6257157859)" d="M 589.210576 785.394712 
L 641.394712 785.394712 
L 641.394712 733.210576 
L 589.210576 785.394712 
" style="fill:none;stroke:#ff0000;stroke-opacity:0.7;stroke-width:2.834647;"/>
    <path clip-path="url(#p6257157859)" d="M 633.090918 715.32872 
L 604.986244 680.762488 
L 583.917649 700.374201 
L 583.917649 715.32872 
L 633.090918 715.32872 
" style="fill:none;stroke:#ff0000;stroke-opacity:0.7;stroke-width:2.834647;"/>
    <path clip-path="url(#p6257157859)" d="M 641.338947 708.528559 
L 643.498686 702.398968 
L 643.498686 664.16497 
L 632.374374 656.344423 
L 624.618556 656.344423 
L 612.383145 673.962328 
L 640.487819 708.528559 
L 641.338947 708.528559 
" style="fill:none;stroke:#ff0000;stroke-opacity:0.7;stroke-width:2.834647;"/>
    <path clip-path="url(#p6257157859)" d="M 706.789424 654.605288 
L 654.605288 654.605288 
L 654.605288 706.789424 
L 706.789424 654.605288 
" style="fill:none;stroke:#ff0000;stroke-opacity:0.7;stroke-width:2.834647;"/>
    <path clip-path="url(#p6257157859)" d="M 643.32872 590.909082 
L 608.762488 619.013756 
L 628.374201 640.082351 
L 643.32872 640.082351 
L 643.32872 590.909082 
" style="fill:none;stroke:#ff0000;stroke-opacity:0.7;stroke-width:2.834647;"/>
    <path clip-path="url(#p6257157859)" d="M 636.528559 582.661053 
L 630.398968 580.501314 
L 592.16497 580.501314 
L 584.344423 591.625626 
L 584.344423 599.381444 
L 601.962328 611.616855 
L 636.528559 583.512181 
L 636.528559 582.661053 
" style="fill:none;stroke:#ff0000;stroke-opacity:0.7;stroke-width:2.834647;"/>
    <path clip-path="url(#p6257157859)" d="M 582.605288 517.210576 
L 582.605288 569.394712 
L 634.789424 569.394712 
L 582.605288 517.210576 
" style="fill:none;stroke:#ff0000;stroke-opacity:0.7;stroke-width:2.834647;"/>
    <path clip-path="url(#p6257157859)" d="M 652.67128 561.090918 
L 687.237512 532.986244 
L 667.625799 511.917649 
L 652.67128 511.917649 
L 652.67128 561.090918 
" style="fill:none;stroke:#ff0000;stroke-opacity:0.7;stroke-width:2.834647;"/>
    <path clip-path="url(#p6257157859)" d="M 659.471441 569.338947 
L 665.601032 571.498686 
L 703.83503 571.498686 
L 711.655577 560.374374 
L 711.655577 552.618556 
L 694.037672 540.383145 
L 659.471441 568.487819 
L 659.471441 569.338947 
" style="fill:none;stroke:#ff0000;stroke-opacity:0.7;stroke-width:2.834647;"/>
    <path clip-path="url(#p6257157859)" d="M 713.394712 634.789424 
L 713.394712 582.605288 
L 661.210576 582.605288 
L 713.394712 634.789424 
" style="fill:none;stroke:#ff0000;stroke-opacity:0.7;stroke-width:2.834647;"/>
    <path clip-path="url(#p6257157859)" d="M 489.090918 571.32872 
L 460.986244 536.762488 
L 439.917649 556.374201 
L 439.917649 571.32872 
L 489.090918 571.32872 
" style="fill:none;stroke:#ff0000;stroke-opacity:0.7;stroke-width:2.834647;"/>
    <path clip-path="url(#p6257157859)" d="M 497.338947 564.528559 
L 499.498686 558.398968 
L 499.498686 520.16497 
L 488.374374 512.344423 
L 480.618556 512.344423 
L 468.383145 529.962328 
L 496.487819 564.528559 
L 497.338947 564.528559 
" style="fill:none;stroke:#ff0000;stroke-opacity:0.7;stroke-width:2.834647;"/>
    <path clip-path="url(#p6257157859)" d="M 562.789424 510.605288 
L 510.605288 510.605288 
L 510.605288 562.789424 
L 562.789424 510.605288 
" style="fill:none;stroke:#ff0000;stroke-opacity:0.7;stroke-width:2.834647;"/>
    <path clip-path="url(#p6257157859)" d="M 518.909082 580.67128 
L 547.013756 615.237512 
L 568.082351 595.625799 
L 568.082351 580.67128 
L 518.909082 580.67128 
" style="fill:none;stroke:#ff0000;stroke-opacity:0.7;stroke-width:2.834647;"/>
    <path clip-path="url(#p6257157859)" d="M 510.661053 587.471441 
L 508.501314 593.601032 
L 508.501314 631.83503 
L 519.625626 639.655577 
L 527.381444 639.655577 
L 539.616855 622.037672 
L 511.512181 587.471441 
L 510.661053 587.471441 
" style="fill:none;stroke:#ff0000;stroke-opacity:0.7;stroke-width:2.834647;"/>
    <path clip-path="url(#p6257157859)" d="M 445.210576 641.394712 
L 497.394712 641.394712 
L 497.394712 589.210576 
L 445.210576 641.394712 
" style="fill:none;stroke:#ff0000;stroke-opacity:0.7;stroke-width:2.834647;"/>
    <path clip-path="url(#p6257157859)" d="M 508.67128 417.090918 
L 543.237512 388.986244 
L 523.625799 367.917649 
L 508.67128 367.917649 
L 508.67128 417.090918 
" style="fill:none;stroke:#ff0000;stroke-opacity:0.7;stroke-width:2.834647;"/>
    <path clip-path="url(#p6257157859)" d="M 515.471441 425.338947 
L 521.601032 427.498686 
L 559.83503 427.498686 
L 567.655577 416.374374 
L 567.655577 408.618556 
L 550.037672 396.383145 
L 515.471441 424.487819 
L 515.471441 425.338947 
" style="fill:none;stroke:#ff0000;stroke-opacity:0.7;stroke-width:2.834647;"/>
    <path clip-path="url(#p6257157859)" d="M 569.394712 490.789424 
L 569.394712 438.605288 
L 517.210576 438.605288 
L 569.394712 490.789424 
" style="fill:none;stroke:#ff0000;stroke-opacity:0.7;stroke-width:2.834647;"/>
    <path clip-path="url(#p6257157859)" d="M 499.32872 446.909082 
L 464.762488 475.013756 
L 484.374201 496.082351 
L 499.32872 496.082351 
L 499.32872 446.909082 
" style="fill:none;stroke:#ff0000;stroke-opacity:0.7;stroke-width:2.834647;"/>
    <path clip-path="url(#p6257157859)" d="M 492.528559 438.661053 
L 486.398968 436.501314 
L 448.16497 436.501314 
L 440.344423 447.625626 
L 440.344423 455.381444 
L 457.962328 467.616855 
L 492.528559 439.512181 
L 492.528559 438.661053 
" style="fill:none;stroke:#ff0000;stroke-opacity:0.7;stroke-width:2.834647;"/>
    <path clip-path="url(#p6257157859)" d="M 438.605288 373.210576 
L 438.605288 425.394712 
L 490.789424 425.394712 
L 438.605288 373.210576 
" style="fill:none;stroke:#ff0000;stroke-opacity:0.7;stroke-width:2.834647;"/>
    <path clip-path="url(#p6257157859)" d="M 662.909082 436.67128 
L 691.013756 471.237512 
L 712.082351 451.625799 
L 712.082351 436.67128 
L 662.909082 436.67128 
" style="fill:none;stroke:#ff0000;stroke-opacity:0.7;stroke-width:2.834647;"/>
    <path clip-path="url(#p6257157859)" d="M 654.661053 443.471441 
L 652.501314 449.601032 
L 652.501314 487.83503 
L 663.625626 495.655577 
L 671.381444 495.655577 
L 683.616855 478.037672 
L 655.512181 443.471441 
L 654.661053 443.471441 
" style="fill:none;stroke:#ff0000;stroke-opacity:0.7;stroke-width:2.834647;"/>
    <path clip-path="url(#p6257157859)" d="M 589.210576 497.394712 
L 641.394712 497.394712 
L 641.394712 445.210576 
L 589.210576 497.394712 
" style="fill:none;stroke:#ff0000;stroke-opacity:0.7;stroke-width:2.834647;"/>
    <path clip-path="url(#p6257157859)" d="M 633.090918 427.32872 
L 604.986244 392.762488 
L 583.917649 412.374201 
L 583.917649 427.32872 
L 633.090918 427.32872 
" style="fill:none;stroke:#ff0000;stroke-opacity:0.7;stroke-width:2.834647;"/>
    <path clip-path="url(#p6257157859)" d="M 641.338947 420.528559 
L 643.498686 414.398968 
L 643.498686 376.16497 
L 632.374374 368.344423 
L 624.618556 368.344423 
L 612.383145 385.962328 
L 640.487819 420.528559 
L 641.338947 420.528559 
" style="fill:none;stroke:#ff0000;stroke-opacity:0.7;stroke-width:2.834647;"/>
    <path clip-path="url(#p6257157859)" d="M 706.789424 366.605288 
L 654.605288 366.605288 
L 654.605288 418.789424 
L 706.789424 366.605288 
" style="fill:none;stroke:#ff0000;stroke-opacity:0.7;stroke-width:2.834647;"/>
    <path clip-path="url(#p6257157859)" d="M 643.32872 302.909082 
L 608.762488 331.013756 
L 628.374201 352.082351 
L 643.32872 352.082351 
L 643.32872 302.909082 
" style="fill:none;stroke:#ff0000;stroke-opacity:0.7;stroke-width:2.834647;"/>
    <path clip-path="url(#p6257157859)" d="M 636.528559 294.661053 
L 630.398968 292.501314 
L 592.16497 292.501314 
L 584.344423 303.625626 
L 584.344423 311.381444 
L 601.962328 323.616855 
L 636.528559 295.512181 
L 636.528559 294.661053 
" style="fill:none;stroke:#ff0000;stroke-opacity:0.7;stroke-width:2.834647;"/>
    <path clip-path="url(#p6257157859)" d="M 582.605288 229.210576 
L 582.605288 281.394712 
L 634.789424 281.394712 
L 582.605288 229.210576 
" style="fill:none;stroke:#ff0000;stroke-opacity:0.7;stroke-width:2.834647;"/>
    <path clip-path="url(#p6257157859)" d="M 652.67128 273.090918 
L 687.237512 244.986244 
L 667.625799 223.917649 
L 652.67128 223.917649 
L 652.67128 273.090918 
" style="fill:none;stroke:#ff0000;stroke-opacity:0.7;stroke-width:2.834647;"/>
    <path clip-path="url(#p6257157859)" d="M 659.471441 281.338947 
L 665.601032 283.498686 
L 703.83503 283.498686 
L 711.655577 272.374374 
L 711.655577 264.618556 
L 694.037672 252.383145 
L 659.471441 280.487819 
L 659.471441 281.338947 
" style="fill:none;stroke:#ff0000;stroke-opacity:0.7;stroke-width:2.834647;"/>
    <path clip-path="url(#p6257157859)" d="M 713.394712 346.789424 
L 713.394712 294.605288 
L 661.210576 294.605288 
L 713.394712 346.789424 
" style="fill:none;stroke:#ff0000;stroke-opacity:0.7;stroke-width:2.834647;"/>
    <path clip-path="url(#p6257157859)" d="M 489.090918 283.32872 
L 460.986244 248.762488 
L 439.917649 268.374201 
L 439.917649 283.32872 
L 489.090918 283.32872 
" style="fill:none;stroke:#ff0000;stroke-opacity:0.7;stroke-width:2.834647;"/>
    <path clip-path="url(#p6257157859)" d="M 497.338947 276.528559 
L 499.498686 270.398968 
L 499.498686 232.16497 
L 488.374374 224.344423 
L 480.618556 224.344423 
L 468.383145 241.962328 
L 496.487819 276.528559 
L 497.338947 276.528559 
" style="fill:none;stroke:#ff0000;stroke-opacity:0.7;stroke-width:2.834647;"/>
    <path clip-path="url(#p6257157859)" d="M 562.789424 222.605288 
L 510.605288 222.605288 
L 510.605288 274.789424 
L 562.789424 222.605288 
" style="fill:none;stroke:#ff0000;stroke-opacity:0.7;stroke-width:2.834647;"/>
    <path clip-path="url(#p6257157859)" d="M 518.909082 292.67128 
L 547.013756 327.237512 
L 568.082351 307.625799 
L 568.082351 292.67128 
L 518.909082 292.67128 
" style="fill:none;stroke:#ff0000;stroke-opacity:0.7;stroke-width:2.834647;"/>
    <path clip-path="url(#p6257157859)" d="M 510.661053 299.471441 
L 508.501314 305.601032 
L 508.501314 343.83503 
L 519.625626 351.655577 
L 527.381444 351.655577 
L 539.616855 334.037672 
L 511.512181 299.471441 
L 510.661053 299.471441 
" style="fill:none;stroke:#ff0000;stroke-opacity:0.7;stroke-width:2.834647;"/>
    <path clip-path="url(#p6257157859)" d="M 445.210576 353.394712 
L 497.394712 353.394712 
L 497.394712 301.210576 
L 445.210576 353.394712 
" style="fill:none;stroke:#ff0000;stroke-opacity:0.7;stroke-width:2.834647;"/>
    <path clip-path="url(#p6257157859)" d="M 508.67128 129.090918 
L 543.237512 100.986244 
L 523.625799 79.917649 
L 508.67128 79.917649 
L 508.67128 129.090918 
" style="fill:none;stroke:#ff0000;stroke-opacity:0.7;stroke-width:2.834647;"/>
    <path clip-path="url(#p6257157859)" d="M 515.471441 137.338947 
L 521.601032 139.498686 
L 559.83503 139.498686 
L 567.655577 128.374374 
L 567.655577 120.618556 
L 550.037672 108.383145 
L 515.471441 136.487819 
L 515.471441 137.338947 
" style="fill:none;stroke:#ff0000;stroke-opacity:0.7;stroke-width:2.834647;"/>
    <path clip-path="url(#p6257157859)" d="M 569.394712 202.789424 
L 569.394712 150.605288 
L 517.210576 150.605288 
L 569.394712 202.789424 
" style="fill:none;stroke:#ff0000;stroke-opacity:0.7;stroke-width:2.834647;"/>
    <path clip-path="url(#p6257157859)" d="M 499.32872 158.909082 
L 464.762488 187.013756 
L 484.374201 208.082351 
L 499.32872 208.082351 
L 499.32872 158.909082 
" style="fill:none;stroke:#ff0000;stroke-opacity:0.7;stroke-width:2.834647;"/>
    <path clip-path="url(#p6257157859)" d="M 492.528559 150.661053 
L 486.398968 148.501314 
L 448.16497 148.501314 
L 440.344423 159.625626 
L 440.344423 167.381444 
L 457.962328 179.616855 
L 492.528559 151.512181 
L 492.528559 150.661053 
" style="fill:none;stroke:#ff0000;stroke-opacity:0.7;stroke-width:2.834647;"/>
    <path clip-path="url(#p6257157859)" d="M 438.605288 85.210576 
L 438.605288 137.394712 
L 490.789424 137.394712 
L 438.605288 85.210576 
" style="fill:none;stroke:#ff0000;stroke-opacity:0.7;stroke-width:2.834647;"/>
    <path clip-path="url(#p6257157859)" d="M 662.909082 148.67128 
L 691.013756 183.237512 
L 712.082351 163.625799 
L 712.082351 148.67128 
L 662.909082 148.67128 
" style="fill:none;stroke:#ff0000;stroke-opacity:0.7;stroke-width:2.834647;"/>
    <path clip-path="url(#p6257157859)" d="M 654.661053 155.471441 
L 652.501314 161.601032 
L 652.501314 199.83503 
L 663.625626 207.655577 
L 671.381444 207.655577 
L 683.616855 190.037672 
L 655.512181 155.471441 
L 654.661053 155.471441 
" style="fill:none;stroke:#ff0000;stroke-opacity:0.7;stroke-width:2.834647;"/>
    <path clip-path="url(#p6257157859)" d="M 589.210576 209.394712 
L 641.394712 209.394712 
L 641.394712 157.210576 
L 589.210576 209.394712 
" style="fill:none;stroke:#ff0000;stroke-opacity:0.7;stroke-width:2.834647;"/>
    <path clip-path="url(#p6257157859)" d="M 633.090918 139.32872 
L 604.986244 104.762488 
L 583.917649 124.374201 
L 583.917649 139.32872 
L 633.090918 139.32872 
" style="fill:none;stroke:#ff0000;stroke-opacity:0.7;stroke-width:2.834647;"/>
    <path clip-path="url(#p6257157859)" d="M 641.338947 132.528559 
L 643.498686 126.398968 
L 643.498686 88.16497 
L 632.374374 80.344423 
L 624.618556 80.344423 
L 612.383145 97.962328 
L 640.487819 132.528559 
L 641.338947 132.528559 
" style="fill:none;stroke:#ff0000;stroke-opacity:0.7;stroke-width:2.834647;"/>
    <path clip-path="url(#p6257157859)" d="M 706.789424 78.605288 
L 654.605288 78.605288 
L 654.605288 130.789424 
L 706.789424 78.605288 
" style="fill:none;stroke:#ff0000;stroke-opacity:0.7;stroke-width:2.834647;"/>
   </g>
  </g>
 </g>
 <defs>
  <clipPath id="p6257157859">
   <rect height="1008" width="792" x="0" y="0"/>
  </clipPath>
 </defs>
</svg>
