<?xml version="1.0" encoding="utf-8" standalone="no"?>
<!DOCTYPE svg PUBLIC "-//W3C//DTD SVG 1.1//EN"
  "http://www.w3.org/Graphics/SVG/1.1/DTD/svg11.dtd">
<!-- Created with matplotlib (https://matplotlib.org/) -->
<svg height="792pt" version="1.1" viewBox="0 0 1008 792" width="1008pt" xmlns="http://www.w3.org/2000/svg" xmlns:xlink="http://www.w3.org/1999/xlink">
 <defs>
  <style type="text/css">
*{stroke-linecap:butt;stroke-linejoin:round;}
  </style>
 </defs>
 <g id="figure_1">
  <g id="axes_1">
   <g id="LineCollection_1">
    <path clip-path="url(#p82052bfe68)" d="M 270 666 
L 270 558 
L 162 558 
L 162 666 
L 270 666 
" style="fill:none;stroke:#000000;stroke-opacity:0.7;stroke-width:1.275591;"/>
    <path clip-path="url(#p82052bfe68)" d="M 270 450 
L 270 342 
L 162 342 
L 162 450 
L 270 450 
" style="fill:none;stroke:#000000;stroke-opacity:0.7;stroke-width:1.275591;"/>
    <path clip-path="url(#p82052bfe68)" d="M 270 234 
L 270 126 
L 162 126 
L 162 234 
L 270 234 
" style="fill:none;stroke:#000000;stroke-opacity:0.7;stroke-width:1.275591;"/>
    <path clip-path="url(#p82052bfe68)" d="M 462 666 
L 462 558 
L 354 558 
L 354 666 
L 462 666 
" style="fill:none;stroke:#000000;stroke-opacity:0.7;stroke-width:1.275591;"/>
    <path clip-path="url(#p82052bfe68)" d="M 462 450 
L 462 342 
L 354 342 
L 354 450 
L 462 450 
" style="fill:none;stroke:#000000;stroke-opacity:0.7;stroke-width:1.275591;"/>
    <path clip-path="url(#p82052bfe68)" d="M 462 234 
L 462 126 
L 354 126 
L 354 234 
L 462 234 
" style="fill:none;stroke:#000000;stroke-opacity:0.7;stroke-width:1.275591;"/>
    <path clip-path="url(#p82052bfe68)" d="M 654 666 
L 654 558 
L 546 558 
L 546 666 
L 654 666 
" style="fill:none;stroke:#000000;stroke-opacity:0.7;stroke-width:1.275591;"/>
    <path clip-path="url(#p82052bfe68)" d="M 654 450 
L 654 342 
L 546 342 
L 546 450 
L 654 450 
" style="fill:none;stroke:#000000;stroke-opacity:0.7;stroke-width:1.275591;"/>
    <path clip-path="url(#p82052bfe68)" d="M 654 234 
L 654 126 
L 546 126 
L 546 234 
L 654 234 
" style="fill:none;stroke:#000000;stroke-opacity:0.7;stroke-width:1.275591;"/>
    <path clip-path="url(#p82052bfe68)" d="M 846 666 
L 846 558 
L 738 558 
L 738 666 
L 846 666 
" style="fill:none;stroke:#000000;stroke-opacity:0.7;stroke-width:1.275591;"/>
    <path clip-path="url(#p82052bfe68)" d="M 846 450 
L 846 342 
L 738 342 
L 738 450 
L 846 450 
" style="fill:none;stroke:#000000;stroke-opacity:0.7;stroke-width:1.275591;"/>
    <path clip-path="url(#p82052bfe68)" d="M 846 234 
L 846 126 
L 738 126 
L 738 234 
L 846 234 
" style="fill:none;stroke:#000000;stroke-opacity:0.7;stroke-width:1.275591;"/>
   </g>
  </g>
 </g>
 <defs>
  <clipPath id="p82052bfe68">
   <rect height="752.4" width="957.6" x="25.2" y="19.8"/>
  </clipPath>
 </defs>
</svg>
