<?xml version="1.0" encoding="utf-8" standalone="no"?>
<!DOCTYPE svg PUBLIC "-//W3C//DTD SVG 1.1//EN"
  "http://www.w3.org/Graphics/SVG/1.1/DTD/svg11.dtd">
<!-- Created with matplotlib (https://matplotlib.org/) -->
<svg height="1008pt" version="1.1" viewBox="0 0 792 1008" width="792pt" xmlns="http://www.w3.org/2000/svg" xmlns:xlink="http://www.w3.org/1999/xlink">
 <metadata>
  <rdf:RDF xmlns:cc="http://creativecommons.org/ns#" xmlns:dc="http://purl.org/dc/elements/1.1/" xmlns:rdf="http://www.w3.org/1999/02/22-rdf-syntax-ns#">
   <cc:Work>
    <dc:type rdf:resource="http://purl.org/dc/dcmitype/StillImage"/>
    <dc:date>2021-04-15T15:28:19.716089</dc:date>
    <dc:format>image/svg+xml</dc:format>
    <dc:creator>
     <cc:Agent>
      <dc:title>Matplotlib v3.3.2, https://matplotlib.org/</dc:title>
     </cc:Agent>
    </dc:creator>
   </cc:Work>
  </rdf:RDF>
 </metadata>
 <defs>
  <style type="text/css">*{stroke-linecap:butt;stroke-linejoin:round;}</style>
 </defs>
 <g id="figure_1">
  <g id="axes_1">
   <g id="LineCollection_1">
    <path clip-path="url(#p044670a062)" d="M 72 936 
L 72 72 
L 82.8 72 
L 82.8 936 
L 93.6 936 
L 93.6 72 
L 104.4 72 
L 104.4 936 
L 115.2 936 
L 115.2 72 
L 126 72 
L 126 936 
L 136.8 936 
L 136.8 72 
L 147.6 72 
L 147.6 936 
L 158.4 936 
L 158.4 72 
L 169.2 72 
L 169.2 936 
L 180 936 
L 180 72 
L 190.8 72 
L 190.8 936 
L 201.6 936 
L 201.6 72 
L 212.4 72 
L 212.4 936 
L 223.2 936 
L 223.2 72 
" style="fill:none;stroke:#1e90ff;stroke-width:0.566929;"/>
    <path clip-path="url(#p044670a062)" d="M 234 936 
L 234 72 
L 239.4 72 
L 239.4 936 
L 244.8 936 
L 244.8 72 
L 250.2 72 
L 250.2 936 
L 255.6 936 
L 255.6 72 
L 261 72 
L 261 936 
L 266.4 936 
L 266.4 72 
L 271.8 72 
L 271.8 936 
L 277.2 936 
L 277.2 72 
L 282.6 72 
L 282.6 936 
L 288 936 
L 288 72 
L 293.4 72 
L 293.4 936 
L 298.8 936 
L 298.8 72 
L 304.2 72 
L 304.2 936 
L 309.6 936 
L 309.6 72 
L 315 72 
L 315 936 
L 320.4 936 
L 320.4 72 
L 325.8 72 
L 325.8 936 
L 331.2 936 
L 331.2 72 
L 336.6 72 
L 336.6 936 
L 342 936 
L 342 72 
L 347.4 72 
L 347.4 936 
L 352.8 936 
L 352.8 72 
L 358.2 72 
L 358.2 936 
L 363.6 936 
L 363.6 72 
L 369 72 
L 369 936 
L 374.4 936 
L 374.4 72 
L 379.8 72 
L 379.8 936 
L 385.2 936 
L 385.2 72 
L 390.6 72 
L 390.6 936 
" style="fill:none;stroke:#1e90ff;stroke-width:0.566929;"/>
    <path clip-path="url(#p044670a062)" d="M 396 936 
L 396 72 
L 399.6 72 
L 399.6 936 
L 403.2 936 
L 403.2 72 
L 406.8 72 
L 406.8 936 
L 410.4 936 
L 410.4 72 
L 414 72 
L 414 936 
L 417.6 936 
L 417.6 72 
L 421.2 72 
L 421.2 936 
L 424.8 936 
L 424.8 72 
L 428.4 72 
L 428.4 936 
L 432 936 
L 432 72 
L 435.6 72 
L 435.6 936 
L 439.2 936 
L 439.2 72 
L 442.8 72 
L 442.8 936 
L 446.4 936 
L 446.4 72 
L 450 72 
L 450 936 
L 453.6 936 
L 453.6 72 
L 457.2 72 
L 457.2 936 
L 460.8 936 
L 460.8 72 
L 464.4 72 
L 464.4 936 
L 468 936 
L 468 72 
L 471.6 72 
L 471.6 936 
L 475.2 936 
L 475.2 72 
L 478.8 72 
L 478.8 936 
L 482.4 936 
L 482.4 72 
L 486 72 
L 486 936 
L 489.6 936 
L 489.6 72 
L 493.2 72 
L 493.2 936 
L 496.8 936 
L 496.8 72 
L 500.4 72 
L 500.4 936 
L 504 936 
L 504 72 
L 507.6 72 
L 507.6 936 
L 511.2 936 
L 511.2 72 
L 514.8 72 
L 514.8 936 
L 518.4 936 
L 518.4 72 
L 522 72 
L 522 936 
L 525.6 936 
L 525.6 72 
L 529.2 72 
L 529.2 936 
L 532.8 936 
L 532.8 72 
L 536.4 72 
L 536.4 936 
L 540 936 
L 540 72 
L 543.6 72 
L 543.6 936 
L 547.2 936 
L 547.2 72 
L 550.8 72 
L 550.8 936 
L 554.4 936 
L 554.4 72 
" style="fill:none;stroke:#1e90ff;stroke-width:0.566929;"/>
    <path clip-path="url(#p044670a062)" d="M 558 936 
L 558 72 
L 560.745763 72 
L 560.745763 936 
L 563.491525 936 
L 563.491525 72 
L 566.237288 72 
L 566.237288 936 
L 568.983051 936 
L 568.983051 72 
L 571.728814 72 
L 571.728814 936 
L 574.474576 936 
L 574.474576 72 
L 577.220339 72 
L 577.220339 936 
L 579.966102 936 
L 579.966102 72 
L 582.711864 72 
L 582.711864 936 
L 585.457627 936 
L 585.457627 72 
L 588.20339 72 
L 588.20339 936 
L 590.949153 936 
L 590.949153 72 
L 593.694915 72 
L 593.694915 936 
L 596.440678 936 
L 596.440678 72 
L 599.186441 72 
L 599.186441 936 
L 601.932203 936 
L 601.932203 72 
L 604.677966 72 
L 604.677966 936 
L 607.423729 936 
L 607.423729 72 
L 610.169492 72 
L 610.169492 936 
L 612.915254 936 
L 612.915254 72 
L 615.661017 72 
L 615.661017 936 
L 618.40678 936 
L 618.40678 72 
L 621.152542 72 
L 621.152542 936 
L 623.898305 936 
L 623.898305 72 
L 626.644068 72 
L 626.644068 936 
L 629.389831 936 
L 629.389831 72 
L 632.135593 72 
L 632.135593 936 
L 634.881356 936 
L 634.881356 72 
L 637.627119 72 
L 637.627119 936 
L 640.372881 936 
L 640.372881 72 
L 643.118644 72 
L 643.118644 936 
L 645.864407 936 
L 645.864407 72 
L 648.610169 72 
L 648.610169 936 
L 651.355932 936 
L 651.355932 72 
L 654.101695 72 
L 654.101695 936 
L 656.847458 936 
L 656.847458 72 
L 659.59322 72 
L 659.59322 936 
L 662.338983 936 
L 662.338983 72 
L 665.084746 72 
L 665.084746 936 
L 667.830508 936 
L 667.830508 72 
L 670.576271 72 
L 670.576271 936 
L 673.322034 936 
L 673.322034 72 
L 676.067797 72 
L 676.067797 936 
L 678.813559 936 
L 678.813559 72 
L 681.559322 72 
L 681.559322 936 
L 684.305085 936 
L 684.305085 72 
L 687.050847 72 
L 687.050847 936 
L 689.79661 936 
L 689.79661 72 
L 692.542373 72 
L 692.542373 936 
L 695.288136 936 
L 695.288136 72 
L 698.033898 72 
L 698.033898 936 
L 700.779661 936 
L 700.779661 72 
L 703.525424 72 
L 703.525424 936 
L 706.271186 936 
L 706.271186 72 
L 709.016949 72 
L 709.016949 936 
L 711.762712 936 
L 711.762712 72 
L 714.508475 72 
L 714.508475 936 
L 717.254237 936 
L 717.254237 72 
L 720 72 
L 720 936 
" style="fill:none;stroke:#1e90ff;stroke-width:0.566929;"/>
    <path clip-path="url(#p044670a062)" d="M 720 936 
L 720 72 
L 72 72 
L 72 936 
L 720 936 
" style="fill:none;stroke:#1e90ff;stroke-width:0.566929;"/>
    <path clip-path="url(#p044670a062)" d="M 720 936 
L 720 72 
L 72 72 
L 72 936 
L 720 936 
" style="fill:none;stroke:#1e90ff;stroke-width:0.566929;"/>
   </g>
   <g id="LineCollection_2">
    <path clip-path="url(#p044670a062)" d="M 72 936 
L 720 936 
L 720 924.48 
L 72 924.48 
L 72 912.96 
L 720 912.96 
L 720 901.44 
L 72 901.44 
L 72 889.92 
L 720 889.92 
L 720 878.4 
L 72 878.4 
L 72 866.88 
L 720 866.88 
L 720 855.36 
L 72 855.36 
L 72 843.84 
L 720 843.84 
L 720 832.32 
L 72 832.32 
L 72 820.8 
L 720 820.8 
L 720 809.28 
L 72 809.28 
L 72 797.76 
L 720 797.76 
L 720 786.24 
L 72 786.24 
L 72 774.72 
L 720 774.72 
" style="fill:none;stroke:#ff69b4;stroke-width:0.566929;"/>
    <path clip-path="url(#p044670a062)" d="M 72 763.2 
L 720 763.2 
L 720 757.44 
L 72 757.44 
L 72 751.68 
L 720 751.68 
L 720 745.92 
L 72 745.92 
L 72 740.16 
L 720 740.16 
L 720 734.4 
L 72 734.4 
L 72 728.64 
L 720 728.64 
L 720 722.88 
L 72 722.88 
L 72 717.12 
L 720 717.12 
L 720 711.36 
L 72 711.36 
L 72 705.6 
L 720 705.6 
L 720 699.84 
L 72 699.84 
L 72 694.08 
L 720 694.08 
L 720 688.32 
L 72 688.32 
L 72 682.56 
L 720 682.56 
L 720 676.8 
L 72 676.8 
L 72 671.04 
L 720 671.04 
L 720 665.28 
L 72 665.28 
L 72 659.52 
L 720 659.52 
L 720 653.76 
L 72 653.76 
L 72 648 
L 720 648 
L 720 642.24 
L 72 642.24 
L 72 636.48 
L 720 636.48 
L 720 630.72 
L 72 630.72 
L 72 624.96 
L 720 624.96 
L 720 619.2 
L 72 619.2 
L 72 613.44 
L 720 613.44 
L 720 607.68 
L 72 607.68 
L 72 601.92 
L 720 601.92 
L 720 596.16 
L 72 596.16 
" style="fill:none;stroke:#ff69b4;stroke-width:0.566929;"/>
    <path clip-path="url(#p044670a062)" d="M 72 590.4 
L 720 590.4 
L 720 586.56 
L 72 586.56 
L 72 582.72 
L 720 582.72 
L 720 578.88 
L 72 578.88 
L 72 575.04 
L 720 575.04 
L 720 571.2 
L 72 571.2 
L 72 567.36 
L 720 567.36 
L 720 563.52 
L 72 563.52 
L 72 559.68 
L 720 559.68 
L 720 555.84 
L 72 555.84 
L 72 552 
L 720 552 
L 720 548.16 
L 72 548.16 
L 72 544.32 
L 720 544.32 
L 720 540.48 
L 72 540.48 
L 72 536.64 
L 720 536.64 
L 720 532.8 
L 72 532.8 
L 72 528.96 
L 720 528.96 
L 720 525.12 
L 72 525.12 
L 72 521.28 
L 720 521.28 
L 720 517.44 
L 72 517.44 
L 72 513.6 
L 720 513.6 
L 720 509.76 
L 72 509.76 
L 72 505.92 
L 720 505.92 
L 720 502.08 
L 72 502.08 
L 72 498.24 
L 720 498.24 
L 720 494.4 
L 72 494.4 
L 72 490.56 
L 720 490.56 
L 720 486.72 
L 72 486.72 
L 72 482.88 
L 720 482.88 
L 720 479.04 
L 72 479.04 
L 72 475.2 
L 720 475.2 
L 720 471.36 
L 72 471.36 
L 72 467.52 
L 720 467.52 
L 720 463.68 
L 72 463.68 
L 72 459.84 
L 720 459.84 
L 720 456 
L 72 456 
L 72 452.16 
L 720 452.16 
L 720 448.32 
L 72 448.32 
L 72 444.48 
L 720 444.48 
L 720 440.64 
L 72 440.64 
L 72 436.8 
L 720 436.8 
L 720 432.96 
L 72 432.96 
L 72 429.12 
L 720 429.12 
L 720 425.28 
L 72 425.28 
L 72 421.44 
L 720 421.44 
" style="fill:none;stroke:#ff69b4;stroke-width:0.566929;"/>
    <path clip-path="url(#p044670a062)" d="M 72 417.6 
L 720 417.6 
L 720 414.72 
L 72 414.72 
L 72 411.84 
L 720 411.84 
L 720 408.96 
L 72 408.96 
L 72 406.08 
L 720 406.08 
L 720 403.2 
L 72 403.2 
L 72 400.32 
L 720 400.32 
L 720 397.44 
L 72 397.44 
L 72 394.56 
L 720 394.56 
L 720 391.68 
L 72 391.68 
L 72 388.8 
L 720 388.8 
L 720 385.92 
L 72 385.92 
L 72 383.04 
L 720 383.04 
L 720 380.16 
L 72 380.16 
L 72 377.28 
L 720 377.28 
L 720 374.4 
L 72 374.4 
L 72 371.52 
L 720 371.52 
L 720 368.64 
L 72 368.64 
L 72 365.76 
L 720 365.76 
L 720 362.88 
L 72 362.88 
L 72 360 
L 720 360 
L 720 357.12 
L 72 357.12 
L 72 354.24 
L 720 354.24 
L 720 351.36 
L 72 351.36 
L 72 348.48 
L 720 348.48 
L 720 345.6 
L 72 345.6 
L 72 342.72 
L 720 342.72 
L 720 339.84 
L 72 339.84 
L 72 336.96 
L 720 336.96 
L 720 334.08 
L 72 334.08 
L 72 331.2 
L 720 331.2 
L 720 328.32 
L 72 328.32 
L 72 325.44 
L 720 325.44 
L 720 322.56 
L 72 322.56 
L 72 319.68 
L 720 319.68 
L 720 316.8 
L 72 316.8 
L 72 313.92 
L 720 313.92 
L 720 311.04 
L 72 311.04 
L 72 308.16 
L 720 308.16 
L 720 305.28 
L 72 305.28 
L 72 302.4 
L 720 302.4 
L 720 299.52 
L 72 299.52 
L 72 296.64 
L 720 296.64 
L 720 293.76 
L 72 293.76 
L 72 290.88 
L 720 290.88 
L 720 288 
L 72 288 
L 72 285.12 
L 720 285.12 
L 720 282.24 
L 72 282.24 
L 72 279.36 
L 720 279.36 
L 720 276.48 
L 72 276.48 
L 72 273.6 
L 720 273.6 
L 720 270.72 
L 72 270.72 
L 72 267.84 
L 720 267.84 
L 720 264.96 
L 72 264.96 
L 72 262.08 
L 720 262.08 
L 720 259.2 
L 72 259.2 
L 72 256.32 
L 720 256.32 
L 720 253.44 
L 72 253.44 
L 72 250.56 
L 720 250.56 
L 720 247.68 
L 72 247.68 
" style="fill:none;stroke:#ff69b4;stroke-width:0.566929;"/>
    <path clip-path="url(#p044670a062)" d="M 72 244.8 
L 720 244.8 
L 720 242.464865 
L 72 242.464865 
L 72 240.12973 
L 720 240.12973 
L 720 237.794595 
L 72 237.794595 
L 72 235.459459 
L 720 235.459459 
L 720 233.124324 
L 72 233.124324 
L 72 230.789189 
L 720 230.789189 
L 720 228.454054 
L 72 228.454054 
L 72 226.118919 
L 720 226.118919 
L 720 223.783784 
L 72 223.783784 
L 72 221.448649 
L 720 221.448649 
L 720 219.113514 
L 72 219.113514 
L 72 216.778378 
L 720 216.778378 
L 720 214.443243 
L 72 214.443243 
L 72 212.108108 
L 720 212.108108 
L 720 209.772973 
L 72 209.772973 
L 72 207.437838 
L 720 207.437838 
L 720 205.102703 
L 72 205.102703 
L 72 202.767568 
L 720 202.767568 
L 720 200.432432 
L 72 200.432432 
L 72 198.097297 
L 720 198.097297 
L 720 195.762162 
L 72 195.762162 
L 72 193.427027 
L 720 193.427027 
L 720 191.091892 
L 72 191.091892 
L 72 188.756757 
L 720 188.756757 
L 720 186.421622 
L 72 186.421622 
L 72 184.086486 
L 720 184.086486 
L 720 181.751351 
L 72 181.751351 
L 72 179.416216 
L 720 179.416216 
L 720 177.081081 
L 72 177.081081 
L 72 174.745946 
L 720 174.745946 
L 720 172.410811 
L 72 172.410811 
L 72 170.075676 
L 720 170.075676 
L 720 167.740541 
L 72 167.740541 
L 72 165.405405 
L 720 165.405405 
L 720 163.07027 
L 72 163.07027 
L 72 160.735135 
L 720 160.735135 
L 720 158.4 
L 72 158.4 
L 72 156.064865 
L 720 156.064865 
L 720 153.72973 
L 72 153.72973 
L 72 151.394595 
L 720 151.394595 
L 720 149.059459 
L 72 149.059459 
L 72 146.724324 
L 720 146.724324 
L 720 144.389189 
L 72 144.389189 
L 72 142.054054 
L 720 142.054054 
L 720 139.718919 
L 72 139.718919 
L 72 137.383784 
L 720 137.383784 
L 720 135.048649 
L 72 135.048649 
L 72 132.713514 
L 720 132.713514 
L 720 130.378378 
L 72 130.378378 
L 72 128.043243 
L 720 128.043243 
L 720 125.708108 
L 72 125.708108 
L 72 123.372973 
L 720 123.372973 
L 720 121.037838 
L 72 121.037838 
L 72 118.702703 
L 720 118.702703 
L 720 116.367568 
L 72 116.367568 
L 72 114.032432 
L 720 114.032432 
L 720 111.697297 
L 72 111.697297 
L 72 109.362162 
L 720 109.362162 
L 720 107.027027 
L 72 107.027027 
L 72 104.691892 
L 720 104.691892 
L 720 102.356757 
L 72 102.356757 
L 72 100.021622 
L 720 100.021622 
L 720 97.686486 
L 72 97.686486 
L 72 95.351351 
L 720 95.351351 
L 720 93.016216 
L 72 93.016216 
L 72 90.681081 
L 720 90.681081 
L 720 88.345946 
L 72 88.345946 
L 72 86.010811 
L 720 86.010811 
L 720 83.675676 
L 72 83.675676 
L 72 81.340541 
L 720 81.340541 
L 720 79.005405 
L 72 79.005405 
L 72 76.67027 
L 720 76.67027 
L 720 74.335135 
L 72 74.335135 
L 72 72 
L 720 72 
L 720 72 
" style="fill:none;stroke:#ff69b4;stroke-width:0.566929;"/>
    <path clip-path="url(#p044670a062)" d="M 720 936 
L 720 72 
L 72 72 
L 72 936 
L 720 936 
" style="fill:none;stroke:#ff69b4;stroke-width:0.566929;"/>
    <path clip-path="url(#p044670a062)" d="M 720 936 
L 720 72 
L 72 72 
L 72 936 
L 720 936 
" style="fill:none;stroke:#ff69b4;stroke-width:0.566929;"/>
   </g>
  </g>
 </g>
 <defs>
  <clipPath id="p044670a062">
   <rect height="1008" width="792" x="0" y="0"/>
  </clipPath>
 </defs>
</svg>
