<?xml version="1.0" encoding="utf-8" standalone="no"?>
<!DOCTYPE svg PUBLIC "-//W3C//DTD SVG 1.1//EN"
  "http://www.w3.org/Graphics/SVG/1.1/DTD/svg11.dtd">
<!-- Created with matplotlib (https://matplotlib.org/) -->
<svg height="1008pt" version="1.1" viewBox="0 0 792 1008" width="792pt" xmlns="http://www.w3.org/2000/svg" xmlns:xlink="http://www.w3.org/1999/xlink">
 <metadata>
  <rdf:RDF xmlns:cc="http://creativecommons.org/ns#" xmlns:dc="http://purl.org/dc/elements/1.1/" xmlns:rdf="http://www.w3.org/1999/02/22-rdf-syntax-ns#">
   <cc:Work>
    <dc:type rdf:resource="http://purl.org/dc/dcmitype/StillImage"/>
    <dc:date>2021-04-15T15:28:22.980153</dc:date>
    <dc:format>image/svg+xml</dc:format>
    <dc:creator>
     <cc:Agent>
      <dc:title>Matplotlib v3.3.2, https://matplotlib.org/</dc:title>
     </cc:Agent>
    </dc:creator>
   </cc:Work>
  </rdf:RDF>
 </metadata>
 <defs>
  <style type="text/css">*{stroke-linecap:butt;stroke-linejoin:round;}</style>
 </defs>
 <g id="figure_1">
  <g id="axes_1">
   <g id="LineCollection_1">
    <path clip-path="url(#p14110ac578)" d="M 72 936 
L 72 72 
L 82.8 72 
L 82.8 936 
L 93.6 936 
L 93.6 72 
L 104.4 72 
L 104.4 936 
L 115.2 936 
L 115.2 72 
L 126 72 
L 126 936 
L 136.8 936 
L 136.8 72 
L 147.6 72 
L 147.6 936 
L 158.4 936 
L 158.4 72 
L 169.2 72 
L 169.2 936 
L 180 936 
L 180 72 
L 190.8 72 
L 190.8 936 
L 201.6 936 
L 201.6 72 
L 212.4 72 
L 212.4 936 
L 223.2 936 
L 223.2 72 
" style="fill:none;stroke:#1e90ff;stroke-width:0.566929;"/>
    <path clip-path="url(#p14110ac578)" d="M 234 936 
L 234 72 
L 239.4 72 
L 239.4 936 
L 244.8 936 
L 244.8 72 
L 250.2 72 
L 250.2 936 
L 255.6 936 
L 255.6 72 
L 261 72 
L 261 936 
L 266.4 936 
L 266.4 72 
L 271.8 72 
L 271.8 936 
L 277.2 936 
L 277.2 72 
L 282.6 72 
L 282.6 936 
L 288 936 
L 288 72 
L 293.4 72 
L 293.4 936 
L 298.8 936 
L 298.8 72 
L 304.2 72 
L 304.2 936 
L 309.6 936 
L 309.6 72 
L 315 72 
L 315 936 
L 320.4 936 
L 320.4 72 
L 325.8 72 
L 325.8 936 
L 331.2 936 
L 331.2 72 
L 336.6 72 
L 336.6 936 
L 342 936 
L 342 72 
L 347.4 72 
L 347.4 936 
L 352.8 936 
L 352.8 72 
L 358.2 72 
L 358.2 936 
L 363.6 936 
L 363.6 72 
L 369 72 
L 369 936 
L 374.4 936 
L 374.4 72 
L 379.8 72 
L 379.8 936 
L 385.2 936 
L 385.2 72 
L 390.6 72 
L 390.6 936 
" style="fill:none;stroke:#1e90ff;stroke-width:0.566929;"/>
    <path clip-path="url(#p14110ac578)" d="M 396 936 
L 396 72 
L 399.6 72 
L 399.6 936 
L 403.2 936 
L 403.2 72 
L 406.8 72 
L 406.8 936 
L 410.4 936 
L 410.4 72 
L 414 72 
L 414 936 
L 417.6 936 
L 417.6 72 
L 421.2 72 
L 421.2 936 
L 424.8 936 
L 424.8 72 
L 428.4 72 
L 428.4 936 
L 432 936 
L 432 72 
L 435.6 72 
L 435.6 936 
L 439.2 936 
L 439.2 72 
L 442.8 72 
L 442.8 936 
L 446.4 936 
L 446.4 72 
L 450 72 
L 450 936 
L 453.6 936 
L 453.6 72 
L 457.2 72 
L 457.2 936 
L 460.8 936 
L 460.8 72 
L 464.4 72 
L 464.4 936 
L 468 936 
L 468 72 
L 471.6 72 
L 471.6 936 
L 475.2 936 
L 475.2 72 
L 478.8 72 
L 478.8 936 
L 482.4 936 
L 482.4 72 
L 486 72 
L 486 936 
L 489.6 936 
L 489.6 72 
L 493.2 72 
L 493.2 936 
L 496.8 936 
L 496.8 72 
L 500.4 72 
L 500.4 936 
L 504 936 
L 504 72 
L 507.6 72 
L 507.6 936 
L 511.2 936 
L 511.2 72 
L 514.8 72 
L 514.8 936 
L 518.4 936 
L 518.4 72 
L 522 72 
L 522 936 
L 525.6 936 
L 525.6 72 
L 529.2 72 
L 529.2 936 
L 532.8 936 
L 532.8 72 
L 536.4 72 
L 536.4 936 
L 540 936 
L 540 72 
L 543.6 72 
L 543.6 936 
L 547.2 936 
L 547.2 72 
L 550.8 72 
L 550.8 936 
L 554.4 936 
L 554.4 72 
" style="fill:none;stroke:#1e90ff;stroke-width:0.566929;"/>
    <path clip-path="url(#p14110ac578)" d="M 558 936 
L 558 72 
L 560.745763 72 
L 560.745763 936 
L 563.491525 936 
L 563.491525 72 
L 566.237288 72 
L 566.237288 936 
L 568.983051 936 
L 568.983051 72 
L 571.728814 72 
L 571.728814 936 
L 574.474576 936 
L 574.474576 72 
L 577.220339 72 
L 577.220339 936 
L 579.966102 936 
L 579.966102 72 
L 582.711864 72 
L 582.711864 936 
L 585.457627 936 
L 585.457627 72 
L 588.20339 72 
L 588.20339 936 
L 590.949153 936 
L 590.949153 72 
L 593.694915 72 
L 593.694915 936 
L 596.440678 936 
L 596.440678 72 
L 599.186441 72 
L 599.186441 936 
L 601.932203 936 
L 601.932203 72 
L 604.677966 72 
L 604.677966 936 
L 607.423729 936 
L 607.423729 72 
L 610.169492 72 
L 610.169492 936 
L 612.915254 936 
L 612.915254 72 
L 615.661017 72 
L 615.661017 936 
L 618.40678 936 
L 618.40678 72 
L 621.152542 72 
L 621.152542 936 
L 623.898305 936 
L 623.898305 72 
L 626.644068 72 
L 626.644068 936 
L 629.389831 936 
L 629.389831 72 
L 632.135593 72 
L 632.135593 936 
L 634.881356 936 
L 634.881356 72 
L 637.627119 72 
L 637.627119 936 
L 640.372881 936 
L 640.372881 72 
L 643.118644 72 
L 643.118644 936 
L 645.864407 936 
L 645.864407 72 
L 648.610169 72 
L 648.610169 936 
L 651.355932 936 
L 651.355932 72 
L 654.101695 72 
L 654.101695 936 
L 656.847458 936 
L 656.847458 72 
L 659.59322 72 
L 659.59322 936 
L 662.338983 936 
L 662.338983 72 
L 665.084746 72 
L 665.084746 936 
L 667.830508 936 
L 667.830508 72 
L 670.576271 72 
L 670.576271 936 
L 673.322034 936 
L 673.322034 72 
L 676.067797 72 
L 676.067797 936 
L 678.813559 936 
L 678.813559 72 
L 681.559322 72 
L 681.559322 936 
L 684.305085 936 
L 684.305085 72 
L 687.050847 72 
L 687.050847 936 
L 689.79661 936 
L 689.79661 72 
L 692.542373 72 
L 692.542373 936 
L 695.288136 936 
L 695.288136 72 
L 698.033898 72 
L 698.033898 936 
L 700.779661 936 
L 700.779661 72 
L 703.525424 72 
L 703.525424 936 
L 706.271186 936 
L 706.271186 72 
L 709.016949 72 
L 709.016949 936 
L 711.762712 936 
L 711.762712 72 
L 714.508475 72 
L 714.508475 936 
L 717.254237 936 
L 717.254237 72 
L 720 72 
L 720 936 
" style="fill:none;stroke:#1e90ff;stroke-width:0.566929;"/>
    <path clip-path="url(#p14110ac578)" d="M 720 936 
L 720 72 
L 72 72 
L 72 936 
L 720 936 
" style="fill:none;stroke:#1e90ff;stroke-width:0.566929;"/>
    <path clip-path="url(#p14110ac578)" d="M 720 936 
L 720 72 
L 72 72 
L 72 936 
L 720 936 
" style="fill:none;stroke:#1e90ff;stroke-width:0.566929;"/>
   </g>
  </g>
 </g>
 <defs>
  <clipPath id="p14110ac578">
   <rect height="1008" width="792" x="0" y="0"/>
  </clipPath>
 </defs>
</svg>
