<?xml version="1.0" encoding="utf-8" standalone="no"?>
<!DOCTYPE svg PUBLIC "-//W3C//DTD SVG 1.1//EN"
  "http://www.w3.org/Graphics/SVG/1.1/DTD/svg11.dtd">
<!-- Created with matplotlib (https://matplotlib.org/) -->
<svg height="1008pt" version="1.1" viewBox="0 0 792 1008" width="792pt" xmlns="http://www.w3.org/2000/svg" xmlns:xlink="http://www.w3.org/1999/xlink">
 <metadata>
  <rdf:RDF xmlns:cc="http://creativecommons.org/ns#" xmlns:dc="http://purl.org/dc/elements/1.1/" xmlns:rdf="http://www.w3.org/1999/02/22-rdf-syntax-ns#">
   <cc:Work>
    <dc:type rdf:resource="http://purl.org/dc/dcmitype/StillImage"/>
    <dc:date>2021-04-28T12:46:54.108451</dc:date>
    <dc:format>image/svg+xml</dc:format>
    <dc:creator>
     <cc:Agent>
      <dc:title>Matplotlib v3.3.2, https://matplotlib.org/</dc:title>
     </cc:Agent>
    </dc:creator>
   </cc:Work>
  </rdf:RDF>
 </metadata>
 <defs>
  <style type="text/css">*{stroke-linecap:butt;stroke-linejoin:round;}</style>
 </defs>
 <g id="figure_1">
  <g id="axes_1">
   <g id="LineCollection_1">
    <path clip-path="url(#p68fa7bc009)" d="M 72 936 
L 115.2 936 
L 115.2 929.828571 
L 72 929.828571 
L 72 923.657143 
L 115.2 923.657143 
L 115.2 917.485714 
L 72 917.485714 
L 72 911.314286 
L 115.2 911.314286 
L 115.2 905.142857 
L 72 905.142857 
L 72 898.971429 
L 115.2 898.971429 
L 115.2 892.8 
L 72 892.8 
" style="fill:none;stroke:#000000;stroke-width:0.566929;"/>
    <path clip-path="url(#p68fa7bc009)" d="M 72 936 
L 72 892.8 
L 77.4 892.8 
L 77.4 936 
L 82.8 936 
L 82.8 892.8 
L 88.2 892.8 
L 88.2 936 
L 93.6 936 
L 93.6 892.8 
L 99 892.8 
L 99 936 
L 104.4 936 
L 104.4 892.8 
L 109.8 892.8 
L 109.8 936 
L 115.2 936 
L 115.2 892.8 
" style="fill:none;stroke:#000000;stroke-width:0.566929;"/>
    <path clip-path="url(#p68fa7bc009)" d="M 72 892.8 
L 115.2 892.8 
L 115.2 886.628571 
L 72 886.628571 
L 72 880.457143 
L 115.2 880.457143 
L 115.2 874.285714 
L 72 874.285714 
L 72 868.114286 
L 115.2 868.114286 
L 115.2 861.942857 
L 72 861.942857 
L 72 855.771429 
L 115.2 855.771429 
L 115.2 849.6 
L 72 849.6 
" style="fill:none;stroke:#000000;stroke-width:0.566929;"/>
    <path clip-path="url(#p68fa7bc009)" d="M 72 892.8 
L 72 849.6 
L 74.88 849.6 
L 74.88 892.8 
L 77.76 892.8 
L 77.76 849.6 
L 80.64 849.6 
L 80.64 892.8 
L 83.52 892.8 
L 83.52 849.6 
L 86.4 849.6 
L 86.4 892.8 
L 89.28 892.8 
L 89.28 849.6 
L 92.16 849.6 
L 92.16 892.8 
L 95.04 892.8 
L 95.04 849.6 
L 97.92 849.6 
L 97.92 892.8 
L 100.8 892.8 
L 100.8 849.6 
L 103.68 849.6 
L 103.68 892.8 
L 106.56 892.8 
L 106.56 849.6 
L 109.44 849.6 
L 109.44 892.8 
L 112.32 892.8 
L 112.32 849.6 
L 115.2 849.6 
L 115.2 892.8 
" style="fill:none;stroke:#000000;stroke-width:0.566929;"/>
    <path clip-path="url(#p68fa7bc009)" d="M 72 849.6 
L 115.2 849.6 
L 115.2 846 
L 72 846 
L 72 842.4 
L 115.2 842.4 
L 115.2 838.8 
L 72 838.8 
L 72 835.2 
L 115.2 835.2 
L 115.2 831.6 
L 72 831.6 
L 72 828 
L 115.2 828 
L 115.2 824.4 
L 72 824.4 
L 72 820.8 
L 115.2 820.8 
L 115.2 817.2 
L 72 817.2 
L 72 813.6 
L 115.2 813.6 
L 115.2 810 
L 72 810 
L 72 806.4 
L 115.2 806.4 
" style="fill:none;stroke:#000000;stroke-width:0.566929;"/>
    <path clip-path="url(#p68fa7bc009)" d="M 72 806.4 
L 72 763.2 
L 74.4 763.2 
L 74.4 806.4 
L 76.8 806.4 
L 76.8 763.2 
L 79.2 763.2 
L 79.2 806.4 
L 81.6 806.4 
L 81.6 763.2 
L 84 763.2 
L 84 806.4 
L 86.4 806.4 
L 86.4 763.2 
L 88.8 763.2 
L 88.8 806.4 
L 91.2 806.4 
L 91.2 763.2 
L 93.6 763.2 
L 93.6 806.4 
L 96 806.4 
L 96 763.2 
L 98.4 763.2 
L 98.4 806.4 
L 100.8 806.4 
L 100.8 763.2 
L 103.2 763.2 
L 103.2 806.4 
L 105.6 806.4 
L 105.6 763.2 
L 108 763.2 
L 108 806.4 
L 110.4 806.4 
L 110.4 763.2 
L 112.8 763.2 
L 112.8 806.4 
L 115.2 806.4 
L 115.2 763.2 
" style="fill:none;stroke:#000000;stroke-width:0.566929;"/>
    <path clip-path="url(#p68fa7bc009)" d="M 72 763.2 
L 72 720 
L 74.88 720 
L 74.88 763.2 
L 77.76 763.2 
L 77.76 720 
L 80.64 720 
L 80.64 763.2 
L 83.52 763.2 
L 83.52 720 
L 86.4 720 
L 86.4 763.2 
L 89.28 763.2 
L 89.28 720 
L 92.16 720 
L 92.16 763.2 
L 95.04 763.2 
L 95.04 720 
L 97.92 720 
L 97.92 763.2 
L 100.8 763.2 
L 100.8 720 
L 103.68 720 
L 103.68 763.2 
L 106.56 763.2 
L 106.56 720 
L 109.44 720 
L 109.44 763.2 
L 112.32 763.2 
L 112.32 720 
L 115.2 720 
L 115.2 763.2 
" style="fill:none;stroke:#000000;stroke-width:0.566929;"/>
    <path clip-path="url(#p68fa7bc009)" d="M 72 720 
L 72 676.8 
L 75.6 676.8 
L 75.6 720 
L 79.2 720 
L 79.2 676.8 
L 82.8 676.8 
L 82.8 720 
L 86.4 720 
L 86.4 676.8 
L 90 676.8 
L 90 720 
L 93.6 720 
L 93.6 676.8 
L 97.2 676.8 
L 97.2 720 
L 100.8 720 
L 100.8 676.8 
L 104.4 676.8 
L 104.4 720 
L 108 720 
L 108 676.8 
L 111.6 676.8 
L 111.6 720 
L 115.2 720 
L 115.2 676.8 
" style="fill:none;stroke:#000000;stroke-width:0.566929;"/>
    <path clip-path="url(#p68fa7bc009)" d="M 115.2 936 
L 158.4 936 
L 158.4 932.4 
L 115.2 932.4 
L 115.2 928.8 
L 158.4 928.8 
L 158.4 925.2 
L 115.2 925.2 
L 115.2 921.6 
L 158.4 921.6 
L 158.4 918 
L 115.2 918 
L 115.2 914.4 
L 158.4 914.4 
L 158.4 910.8 
L 115.2 910.8 
L 115.2 907.2 
L 158.4 907.2 
L 158.4 903.6 
L 115.2 903.6 
L 115.2 900 
L 158.4 900 
L 158.4 896.4 
L 115.2 896.4 
L 115.2 892.8 
L 158.4 892.8 
" style="fill:none;stroke:#000000;stroke-width:0.566929;"/>
    <path clip-path="url(#p68fa7bc009)" d="M 115.2 936 
L 115.2 892.8 
L 122.4 892.8 
L 122.4 936 
L 129.6 936 
L 129.6 892.8 
L 136.8 892.8 
L 136.8 936 
L 144 936 
L 144 892.8 
L 151.2 892.8 
L 151.2 936 
L 158.4 936 
L 158.4 892.8 
" style="fill:none;stroke:#000000;stroke-width:0.566929;"/>
    <path clip-path="url(#p68fa7bc009)" d="M 115.2 892.8 
L 158.4 892.8 
L 158.4 890.64 
L 115.2 890.64 
L 115.2 888.48 
L 158.4 888.48 
L 158.4 886.32 
L 115.2 886.32 
L 115.2 884.16 
L 158.4 884.16 
L 158.4 882 
L 115.2 882 
L 115.2 879.84 
L 158.4 879.84 
L 158.4 877.68 
L 115.2 877.68 
L 115.2 875.52 
L 158.4 875.52 
L 158.4 873.36 
L 115.2 873.36 
L 115.2 871.2 
L 158.4 871.2 
L 158.4 869.04 
L 115.2 869.04 
L 115.2 866.88 
L 158.4 866.88 
L 158.4 864.72 
L 115.2 864.72 
L 115.2 862.56 
L 158.4 862.56 
L 158.4 860.4 
L 115.2 860.4 
L 115.2 858.24 
L 158.4 858.24 
L 158.4 856.08 
L 115.2 856.08 
L 115.2 853.92 
L 158.4 853.92 
L 158.4 851.76 
L 115.2 851.76 
L 115.2 849.6 
L 158.4 849.6 
" style="fill:none;stroke:#000000;stroke-width:0.566929;"/>
    <path clip-path="url(#p68fa7bc009)" d="M 115.2 892.8 
L 115.2 849.6 
L 118.8 849.6 
L 118.8 892.8 
L 122.4 892.8 
L 122.4 849.6 
L 126 849.6 
L 126 892.8 
L 129.6 892.8 
L 129.6 849.6 
L 133.2 849.6 
L 133.2 892.8 
L 136.8 892.8 
L 136.8 849.6 
L 140.4 849.6 
L 140.4 892.8 
L 144 892.8 
L 144 849.6 
L 147.6 849.6 
L 147.6 892.8 
L 151.2 892.8 
L 151.2 849.6 
L 154.8 849.6 
L 154.8 892.8 
L 158.4 892.8 
L 158.4 849.6 
" style="fill:none;stroke:#000000;stroke-width:0.566929;"/>
    <path clip-path="url(#p68fa7bc009)" d="M 115.2 849.6 
L 158.4 849.6 
L 158.4 842.4 
L 115.2 842.4 
L 115.2 835.2 
L 158.4 835.2 
L 158.4 828 
L 115.2 828 
L 115.2 820.8 
L 158.4 820.8 
L 158.4 813.6 
L 115.2 813.6 
L 115.2 806.4 
L 158.4 806.4 
" style="fill:none;stroke:#000000;stroke-width:0.566929;"/>
    <path clip-path="url(#p68fa7bc009)" d="M 115.2 806.4 
L 115.2 763.2 
L 119.127273 763.2 
L 119.127273 806.4 
L 123.054545 806.4 
L 123.054545 763.2 
L 126.981818 763.2 
L 126.981818 806.4 
L 130.909091 806.4 
L 130.909091 763.2 
L 134.836364 763.2 
L 134.836364 806.4 
L 138.763636 806.4 
L 138.763636 763.2 
L 142.690909 763.2 
L 142.690909 806.4 
L 146.618182 806.4 
L 146.618182 763.2 
L 150.545455 763.2 
L 150.545455 806.4 
L 154.472727 806.4 
L 154.472727 763.2 
L 158.4 763.2 
L 158.4 806.4 
" style="fill:none;stroke:#000000;stroke-width:0.566929;"/>
    <path clip-path="url(#p68fa7bc009)" d="M 115.2 763.2 
L 115.2 720 
L 118.523077 720 
L 118.523077 763.2 
L 121.846154 763.2 
L 121.846154 720 
L 125.169231 720 
L 125.169231 763.2 
L 128.492308 763.2 
L 128.492308 720 
L 131.815385 720 
L 131.815385 763.2 
L 135.138462 763.2 
L 135.138462 720 
L 138.461538 720 
L 138.461538 763.2 
L 141.784615 763.2 
L 141.784615 720 
L 145.107692 720 
L 145.107692 763.2 
L 148.430769 763.2 
L 148.430769 720 
L 151.753846 720 
L 151.753846 763.2 
L 155.076923 763.2 
L 155.076923 720 
L 158.4 720 
L 158.4 763.2 
" style="fill:none;stroke:#000000;stroke-width:0.566929;"/>
    <path clip-path="url(#p68fa7bc009)" d="M 115.2 676.8 
L 115.2 633.6 
L 117.9 633.6 
L 117.9 676.8 
L 120.6 676.8 
L 120.6 633.6 
L 123.3 633.6 
L 123.3 676.8 
L 126 676.8 
L 126 633.6 
L 128.7 633.6 
L 128.7 676.8 
L 131.4 676.8 
L 131.4 633.6 
L 134.1 633.6 
L 134.1 676.8 
L 136.8 676.8 
L 136.8 633.6 
L 139.5 633.6 
L 139.5 676.8 
L 142.2 676.8 
L 142.2 633.6 
L 144.9 633.6 
L 144.9 676.8 
L 147.6 676.8 
L 147.6 633.6 
L 150.3 633.6 
L 150.3 676.8 
L 153 676.8 
L 153 633.6 
L 155.7 633.6 
L 155.7 676.8 
L 158.4 676.8 
L 158.4 633.6 
" style="fill:none;stroke:#000000;stroke-width:0.566929;"/>
    <path clip-path="url(#p68fa7bc009)" d="M 158.4 936 
L 201.6 936 
L 201.6 933.942857 
L 158.4 933.942857 
L 158.4 931.885714 
L 201.6 931.885714 
L 201.6 929.828571 
L 158.4 929.828571 
L 158.4 927.771429 
L 201.6 927.771429 
L 201.6 925.714286 
L 158.4 925.714286 
L 158.4 923.657143 
L 201.6 923.657143 
L 201.6 921.6 
L 158.4 921.6 
L 158.4 919.542857 
L 201.6 919.542857 
L 201.6 917.485714 
L 158.4 917.485714 
L 158.4 915.428571 
L 201.6 915.428571 
L 201.6 913.371429 
L 158.4 913.371429 
L 158.4 911.314286 
L 201.6 911.314286 
L 201.6 909.257143 
L 158.4 909.257143 
L 158.4 907.2 
L 201.6 907.2 
L 201.6 905.142857 
L 158.4 905.142857 
L 158.4 903.085714 
L 201.6 903.085714 
L 201.6 901.028571 
L 158.4 901.028571 
L 158.4 898.971429 
L 201.6 898.971429 
L 201.6 896.914286 
L 158.4 896.914286 
L 158.4 894.857143 
L 201.6 894.857143 
L 201.6 892.8 
L 158.4 892.8 
" style="fill:none;stroke:#000000;stroke-width:0.566929;"/>
    <path clip-path="url(#p68fa7bc009)" d="M 158.4 936 
L 158.4 892.8 
L 165.6 892.8 
L 165.6 936 
L 172.8 936 
L 172.8 892.8 
L 180 892.8 
L 180 936 
L 187.2 936 
L 187.2 892.8 
L 194.4 892.8 
L 194.4 936 
L 201.6 936 
L 201.6 892.8 
" style="fill:none;stroke:#000000;stroke-width:0.566929;"/>
    <path clip-path="url(#p68fa7bc009)" d="M 158.4 892.8 
L 201.6 892.8 
L 201.6 890.921739 
L 158.4 890.921739 
L 158.4 889.043478 
L 201.6 889.043478 
L 201.6 887.165217 
L 158.4 887.165217 
L 158.4 885.286957 
L 201.6 885.286957 
L 201.6 883.408696 
L 158.4 883.408696 
L 158.4 881.530435 
L 201.6 881.530435 
L 201.6 879.652174 
L 158.4 879.652174 
L 158.4 877.773913 
L 201.6 877.773913 
L 201.6 875.895652 
L 158.4 875.895652 
L 158.4 874.017391 
L 201.6 874.017391 
L 201.6 872.13913 
L 158.4 872.13913 
L 158.4 870.26087 
L 201.6 870.26087 
L 201.6 868.382609 
L 158.4 868.382609 
L 158.4 866.504348 
L 201.6 866.504348 
L 201.6 864.626087 
L 158.4 864.626087 
L 158.4 862.747826 
L 201.6 862.747826 
L 201.6 860.869565 
L 158.4 860.869565 
L 158.4 858.991304 
L 201.6 858.991304 
L 201.6 857.113043 
L 158.4 857.113043 
L 158.4 855.234783 
L 201.6 855.234783 
L 201.6 853.356522 
L 158.4 853.356522 
L 158.4 851.478261 
L 201.6 851.478261 
L 201.6 849.6 
L 158.4 849.6 
" style="fill:none;stroke:#000000;stroke-width:0.566929;"/>
    <path clip-path="url(#p68fa7bc009)" d="M 158.4 892.8 
L 158.4 849.6 
L 161.1 849.6 
L 161.1 892.8 
L 163.8 892.8 
L 163.8 849.6 
L 166.5 849.6 
L 166.5 892.8 
L 169.2 892.8 
L 169.2 849.6 
L 171.9 849.6 
L 171.9 892.8 
L 174.6 892.8 
L 174.6 849.6 
L 177.3 849.6 
L 177.3 892.8 
L 180 892.8 
L 180 849.6 
L 182.7 849.6 
L 182.7 892.8 
L 185.4 892.8 
L 185.4 849.6 
L 188.1 849.6 
L 188.1 892.8 
L 190.8 892.8 
L 190.8 849.6 
L 193.5 849.6 
L 193.5 892.8 
L 196.2 892.8 
L 196.2 849.6 
L 198.9 849.6 
L 198.9 892.8 
L 201.6 892.8 
L 201.6 849.6 
" style="fill:none;stroke:#000000;stroke-width:0.566929;"/>
    <path clip-path="url(#p68fa7bc009)" d="M 158.4 849.6 
L 158.4 806.4 
L 160.673684 806.4 
L 160.673684 849.6 
L 162.947368 849.6 
L 162.947368 806.4 
L 165.221053 806.4 
L 165.221053 849.6 
L 167.494737 849.6 
L 167.494737 806.4 
L 169.768421 806.4 
L 169.768421 849.6 
L 172.042105 849.6 
L 172.042105 806.4 
L 174.315789 806.4 
L 174.315789 849.6 
L 176.589474 849.6 
L 176.589474 806.4 
L 178.863158 806.4 
L 178.863158 849.6 
L 181.136842 849.6 
L 181.136842 806.4 
L 183.410526 806.4 
L 183.410526 849.6 
L 185.684211 849.6 
L 185.684211 806.4 
L 187.957895 806.4 
L 187.957895 849.6 
L 190.231579 849.6 
L 190.231579 806.4 
L 192.505263 806.4 
L 192.505263 849.6 
L 194.778947 849.6 
L 194.778947 806.4 
L 197.052632 806.4 
L 197.052632 849.6 
L 199.326316 849.6 
L 199.326316 806.4 
L 201.6 806.4 
L 201.6 849.6 
" style="fill:none;stroke:#000000;stroke-width:0.566929;"/>
    <path clip-path="url(#p68fa7bc009)" d="M 158.4 806.4 
L 201.6 806.4 
L 201.6 801 
L 158.4 801 
L 158.4 795.6 
L 201.6 795.6 
L 201.6 790.2 
L 158.4 790.2 
L 158.4 784.8 
L 201.6 784.8 
L 201.6 779.4 
L 158.4 779.4 
L 158.4 774 
L 201.6 774 
L 201.6 768.6 
L 158.4 768.6 
L 158.4 763.2 
L 201.6 763.2 
" style="fill:none;stroke:#000000;stroke-width:0.566929;"/>
    <path clip-path="url(#p68fa7bc009)" d="M 158.4 763.2 
L 201.6 763.2 
L 201.6 760.114286 
L 158.4 760.114286 
L 158.4 757.028571 
L 201.6 757.028571 
L 201.6 753.942857 
L 158.4 753.942857 
L 158.4 750.857143 
L 201.6 750.857143 
L 201.6 747.771429 
L 158.4 747.771429 
L 158.4 744.685714 
L 201.6 744.685714 
L 201.6 741.6 
L 158.4 741.6 
L 158.4 738.514286 
L 201.6 738.514286 
L 201.6 735.428571 
L 158.4 735.428571 
L 158.4 732.342857 
L 201.6 732.342857 
L 201.6 729.257143 
L 158.4 729.257143 
L 158.4 726.171429 
L 201.6 726.171429 
L 201.6 723.085714 
L 158.4 723.085714 
L 158.4 720 
L 201.6 720 
" style="fill:none;stroke:#000000;stroke-width:0.566929;"/>
    <path clip-path="url(#p68fa7bc009)" d="M 158.4 720 
L 201.6 720 
L 201.6 715.68 
L 158.4 715.68 
L 158.4 711.36 
L 201.6 711.36 
L 201.6 707.04 
L 158.4 707.04 
L 158.4 702.72 
L 201.6 702.72 
L 201.6 698.4 
L 158.4 698.4 
L 158.4 694.08 
L 201.6 694.08 
L 201.6 689.76 
L 158.4 689.76 
L 158.4 685.44 
L 201.6 685.44 
L 201.6 681.12 
L 158.4 681.12 
L 158.4 676.8 
L 201.6 676.8 
" style="fill:none;stroke:#000000;stroke-width:0.566929;"/>
    <path clip-path="url(#p68fa7bc009)" d="M 201.6 936 
L 244.8 936 
L 244.8 929.828571 
L 201.6 929.828571 
L 201.6 923.657143 
L 244.8 923.657143 
L 244.8 917.485714 
L 201.6 917.485714 
L 201.6 911.314286 
L 244.8 911.314286 
L 244.8 905.142857 
L 201.6 905.142857 
L 201.6 898.971429 
L 244.8 898.971429 
L 244.8 892.8 
L 201.6 892.8 
" style="fill:none;stroke:#000000;stroke-width:0.566929;"/>
    <path clip-path="url(#p68fa7bc009)" d="M 201.6 936 
L 201.6 892.8 
L 205.92 892.8 
L 205.92 936 
L 210.24 936 
L 210.24 892.8 
L 214.56 892.8 
L 214.56 936 
L 218.88 936 
L 218.88 892.8 
L 223.2 892.8 
L 223.2 936 
L 227.52 936 
L 227.52 892.8 
L 231.84 892.8 
L 231.84 936 
L 236.16 936 
L 236.16 892.8 
L 240.48 892.8 
L 240.48 936 
L 244.8 936 
L 244.8 892.8 
" style="fill:none;stroke:#000000;stroke-width:0.566929;"/>
    <path clip-path="url(#p68fa7bc009)" d="M 201.6 892.8 
L 244.8 892.8 
L 244.8 888.872727 
L 201.6 888.872727 
L 201.6 884.945455 
L 244.8 884.945455 
L 244.8 881.018182 
L 201.6 881.018182 
L 201.6 877.090909 
L 244.8 877.090909 
L 244.8 873.163636 
L 201.6 873.163636 
L 201.6 869.236364 
L 244.8 869.236364 
L 244.8 865.309091 
L 201.6 865.309091 
L 201.6 861.381818 
L 244.8 861.381818 
L 244.8 857.454545 
L 201.6 857.454545 
L 201.6 853.527273 
L 244.8 853.527273 
L 244.8 849.6 
L 201.6 849.6 
" style="fill:none;stroke:#000000;stroke-width:0.566929;"/>
    <path clip-path="url(#p68fa7bc009)" d="M 201.6 892.8 
L 201.6 849.6 
L 204 849.6 
L 204 892.8 
L 206.4 892.8 
L 206.4 849.6 
L 208.8 849.6 
L 208.8 892.8 
L 211.2 892.8 
L 211.2 849.6 
L 213.6 849.6 
L 213.6 892.8 
L 216 892.8 
L 216 849.6 
L 218.4 849.6 
L 218.4 892.8 
L 220.8 892.8 
L 220.8 849.6 
L 223.2 849.6 
L 223.2 892.8 
L 225.6 892.8 
L 225.6 849.6 
L 228 849.6 
L 228 892.8 
L 230.4 892.8 
L 230.4 849.6 
L 232.8 849.6 
L 232.8 892.8 
L 235.2 892.8 
L 235.2 849.6 
L 237.6 849.6 
L 237.6 892.8 
L 240 892.8 
L 240 849.6 
L 242.4 849.6 
L 242.4 892.8 
L 244.8 892.8 
L 244.8 849.6 
" style="fill:none;stroke:#000000;stroke-width:0.566929;"/>
    <path clip-path="url(#p68fa7bc009)" d="M 201.6 849.6 
L 244.8 849.6 
L 244.8 846.276923 
L 201.6 846.276923 
L 201.6 842.953846 
L 244.8 842.953846 
L 244.8 839.630769 
L 201.6 839.630769 
L 201.6 836.307692 
L 244.8 836.307692 
L 244.8 832.984615 
L 201.6 832.984615 
L 201.6 829.661538 
L 244.8 829.661538 
L 244.8 826.338462 
L 201.6 826.338462 
L 201.6 823.015385 
L 244.8 823.015385 
L 244.8 819.692308 
L 201.6 819.692308 
L 201.6 816.369231 
L 244.8 816.369231 
L 244.8 813.046154 
L 201.6 813.046154 
L 201.6 809.723077 
L 244.8 809.723077 
L 244.8 806.4 
L 201.6 806.4 
" style="fill:none;stroke:#000000;stroke-width:0.566929;"/>
    <path clip-path="url(#p68fa7bc009)" d="M 201.6 806.4 
L 244.8 806.4 
L 244.8 804 
L 201.6 804 
L 201.6 801.6 
L 244.8 801.6 
L 244.8 799.2 
L 201.6 799.2 
L 201.6 796.8 
L 244.8 796.8 
L 244.8 794.4 
L 201.6 794.4 
L 201.6 792 
L 244.8 792 
L 244.8 789.6 
L 201.6 789.6 
L 201.6 787.2 
L 244.8 787.2 
L 244.8 784.8 
L 201.6 784.8 
L 201.6 782.4 
L 244.8 782.4 
L 244.8 780 
L 201.6 780 
L 201.6 777.6 
L 244.8 777.6 
L 244.8 775.2 
L 201.6 775.2 
L 201.6 772.8 
L 244.8 772.8 
L 244.8 770.4 
L 201.6 770.4 
L 201.6 768 
L 244.8 768 
L 244.8 765.6 
L 201.6 765.6 
L 201.6 763.2 
L 244.8 763.2 
" style="fill:none;stroke:#000000;stroke-width:0.566929;"/>
    <path clip-path="url(#p68fa7bc009)" d="M 201.6 806.4 
L 201.6 763.2 
L 204.48 763.2 
L 204.48 806.4 
L 207.36 806.4 
L 207.36 763.2 
L 210.24 763.2 
L 210.24 806.4 
L 213.12 806.4 
L 213.12 763.2 
L 216 763.2 
L 216 806.4 
L 218.88 806.4 
L 218.88 763.2 
L 221.76 763.2 
L 221.76 806.4 
L 224.64 806.4 
L 224.64 763.2 
L 227.52 763.2 
L 227.52 806.4 
L 230.4 806.4 
L 230.4 763.2 
L 233.28 763.2 
L 233.28 806.4 
L 236.16 806.4 
L 236.16 763.2 
L 239.04 763.2 
L 239.04 806.4 
L 241.92 806.4 
L 241.92 763.2 
L 244.8 763.2 
L 244.8 806.4 
" style="fill:none;stroke:#000000;stroke-width:0.566929;"/>
    <path clip-path="url(#p68fa7bc009)" d="M 201.6 763.2 
L 244.8 763.2 
L 244.8 758.88 
L 201.6 758.88 
L 201.6 754.56 
L 244.8 754.56 
L 244.8 750.24 
L 201.6 750.24 
L 201.6 745.92 
L 244.8 745.92 
L 244.8 741.6 
L 201.6 741.6 
L 201.6 737.28 
L 244.8 737.28 
L 244.8 732.96 
L 201.6 732.96 
L 201.6 728.64 
L 244.8 728.64 
L 244.8 724.32 
L 201.6 724.32 
L 201.6 720 
L 244.8 720 
" style="fill:none;stroke:#000000;stroke-width:0.566929;"/>
    <path clip-path="url(#p68fa7bc009)" d="M 244.8 936 
L 288 936 
L 288 930.6 
L 244.8 930.6 
L 244.8 925.2 
L 288 925.2 
L 288 919.8 
L 244.8 919.8 
L 244.8 914.4 
L 288 914.4 
L 288 909 
L 244.8 909 
L 244.8 903.6 
L 288 903.6 
L 288 898.2 
L 244.8 898.2 
L 244.8 892.8 
L 288 892.8 
" style="fill:none;stroke:#000000;stroke-width:0.566929;"/>
    <path clip-path="url(#p68fa7bc009)" d="M 244.8 936 
L 244.8 892.8 
L 247.885714 892.8 
L 247.885714 936 
L 250.971429 936 
L 250.971429 892.8 
L 254.057143 892.8 
L 254.057143 936 
L 257.142857 936 
L 257.142857 892.8 
L 260.228571 892.8 
L 260.228571 936 
L 263.314286 936 
L 263.314286 892.8 
L 266.4 892.8 
L 266.4 936 
L 269.485714 936 
L 269.485714 892.8 
L 272.571429 892.8 
L 272.571429 936 
L 275.657143 936 
L 275.657143 892.8 
L 278.742857 892.8 
L 278.742857 936 
L 281.828571 936 
L 281.828571 892.8 
L 284.914286 892.8 
L 284.914286 936 
L 288 936 
L 288 892.8 
" style="fill:none;stroke:#000000;stroke-width:0.566929;"/>
    <path clip-path="url(#p68fa7bc009)" d="M 244.8 892.8 
L 288 892.8 
L 288 890.258824 
L 244.8 890.258824 
L 244.8 887.717647 
L 288 887.717647 
L 288 885.176471 
L 244.8 885.176471 
L 244.8 882.635294 
L 288 882.635294 
L 288 880.094118 
L 244.8 880.094118 
L 244.8 877.552941 
L 288 877.552941 
L 288 875.011765 
L 244.8 875.011765 
L 244.8 872.470588 
L 288 872.470588 
L 288 869.929412 
L 244.8 869.929412 
L 244.8 867.388235 
L 288 867.388235 
L 288 864.847059 
L 244.8 864.847059 
L 244.8 862.305882 
L 288 862.305882 
L 288 859.764706 
L 244.8 859.764706 
L 244.8 857.223529 
L 288 857.223529 
L 288 854.682353 
L 244.8 854.682353 
L 244.8 852.141176 
L 288 852.141176 
L 288 849.6 
L 244.8 849.6 
" style="fill:none;stroke:#000000;stroke-width:0.566929;"/>
    <path clip-path="url(#p68fa7bc009)" d="M 244.8 892.8 
L 244.8 849.6 
L 247.68 849.6 
L 247.68 892.8 
L 250.56 892.8 
L 250.56 849.6 
L 253.44 849.6 
L 253.44 892.8 
L 256.32 892.8 
L 256.32 849.6 
L 259.2 849.6 
L 259.2 892.8 
L 262.08 892.8 
L 262.08 849.6 
L 264.96 849.6 
L 264.96 892.8 
L 267.84 892.8 
L 267.84 849.6 
L 270.72 849.6 
L 270.72 892.8 
L 273.6 892.8 
L 273.6 849.6 
L 276.48 849.6 
L 276.48 892.8 
L 279.36 892.8 
L 279.36 849.6 
L 282.24 849.6 
L 282.24 892.8 
L 285.12 892.8 
L 285.12 849.6 
L 288 849.6 
L 288 892.8 
" style="fill:none;stroke:#000000;stroke-width:0.566929;"/>
    <path clip-path="url(#p68fa7bc009)" d="M 244.8 849.6 
L 288 849.6 
L 288 843.428571 
L 244.8 843.428571 
L 244.8 837.257143 
L 288 837.257143 
L 288 831.085714 
L 244.8 831.085714 
L 244.8 824.914286 
L 288 824.914286 
L 288 818.742857 
L 244.8 818.742857 
L 244.8 812.571429 
L 288 812.571429 
L 288 806.4 
L 244.8 806.4 
" style="fill:none;stroke:#000000;stroke-width:0.566929;"/>
    <path clip-path="url(#p68fa7bc009)" d="M 244.8 849.6 
L 244.8 806.4 
L 252 806.4 
L 252 849.6 
L 259.2 849.6 
L 259.2 806.4 
L 266.4 806.4 
L 266.4 849.6 
L 273.6 849.6 
L 273.6 806.4 
L 280.8 806.4 
L 280.8 849.6 
L 288 849.6 
L 288 806.4 
" style="fill:none;stroke:#000000;stroke-width:0.566929;"/>
    <path clip-path="url(#p68fa7bc009)" d="M 244.8 763.2 
L 288 763.2 
L 288 760.8 
L 244.8 760.8 
L 244.8 758.4 
L 288 758.4 
L 288 756 
L 244.8 756 
L 244.8 753.6 
L 288 753.6 
L 288 751.2 
L 244.8 751.2 
L 244.8 748.8 
L 288 748.8 
L 288 746.4 
L 244.8 746.4 
L 244.8 744 
L 288 744 
L 288 741.6 
L 244.8 741.6 
L 244.8 739.2 
L 288 739.2 
L 288 736.8 
L 244.8 736.8 
L 244.8 734.4 
L 288 734.4 
L 288 732 
L 244.8 732 
L 244.8 729.6 
L 288 729.6 
L 288 727.2 
L 244.8 727.2 
L 244.8 724.8 
L 288 724.8 
L 288 722.4 
L 244.8 722.4 
L 244.8 720 
L 288 720 
" style="fill:none;stroke:#000000;stroke-width:0.566929;"/>
    <path clip-path="url(#p68fa7bc009)" d="M 244.8 676.8 
L 244.8 633.6 
L 248.123077 633.6 
L 248.123077 676.8 
L 251.446154 676.8 
L 251.446154 633.6 
L 254.769231 633.6 
L 254.769231 676.8 
L 258.092308 676.8 
L 258.092308 633.6 
L 261.415385 633.6 
L 261.415385 676.8 
L 264.738462 676.8 
L 264.738462 633.6 
L 268.061538 633.6 
L 268.061538 676.8 
L 271.384615 676.8 
L 271.384615 633.6 
L 274.707692 633.6 
L 274.707692 676.8 
L 278.030769 676.8 
L 278.030769 633.6 
L 281.353846 633.6 
L 281.353846 676.8 
L 284.676923 676.8 
L 284.676923 633.6 
L 288 633.6 
L 288 676.8 
" style="fill:none;stroke:#000000;stroke-width:0.566929;"/>
    <path clip-path="url(#p68fa7bc009)" d="M 288 936 
L 331.2 936 
L 331.2 934.121739 
L 288 934.121739 
L 288 932.243478 
L 331.2 932.243478 
L 331.2 930.365217 
L 288 930.365217 
L 288 928.486957 
L 331.2 928.486957 
L 331.2 926.608696 
L 288 926.608696 
L 288 924.730435 
L 331.2 924.730435 
L 331.2 922.852174 
L 288 922.852174 
L 288 920.973913 
L 331.2 920.973913 
L 331.2 919.095652 
L 288 919.095652 
L 288 917.217391 
L 331.2 917.217391 
L 331.2 915.33913 
L 288 915.33913 
L 288 913.46087 
L 331.2 913.46087 
L 331.2 911.582609 
L 288 911.582609 
L 288 909.704348 
L 331.2 909.704348 
L 331.2 907.826087 
L 288 907.826087 
L 288 905.947826 
L 331.2 905.947826 
L 331.2 904.069565 
L 288 904.069565 
L 288 902.191304 
L 331.2 902.191304 
L 331.2 900.313043 
L 288 900.313043 
L 288 898.434783 
L 331.2 898.434783 
L 331.2 896.556522 
L 288 896.556522 
L 288 894.678261 
L 331.2 894.678261 
L 331.2 892.8 
L 288 892.8 
" style="fill:none;stroke:#000000;stroke-width:0.566929;"/>
    <path clip-path="url(#p68fa7bc009)" d="M 288 936 
L 288 892.8 
L 291.085714 892.8 
L 291.085714 936 
L 294.171429 936 
L 294.171429 892.8 
L 297.257143 892.8 
L 297.257143 936 
L 300.342857 936 
L 300.342857 892.8 
L 303.428571 892.8 
L 303.428571 936 
L 306.514286 936 
L 306.514286 892.8 
L 309.6 892.8 
L 309.6 936 
L 312.685714 936 
L 312.685714 892.8 
L 315.771429 892.8 
L 315.771429 936 
L 318.857143 936 
L 318.857143 892.8 
L 321.942857 892.8 
L 321.942857 936 
L 325.028571 936 
L 325.028571 892.8 
L 328.114286 892.8 
L 328.114286 936 
L 331.2 936 
L 331.2 892.8 
" style="fill:none;stroke:#000000;stroke-width:0.566929;"/>
    <path clip-path="url(#p68fa7bc009)" d="M 288 892.8 
L 288 849.6 
L 293.4 849.6 
L 293.4 892.8 
L 298.8 892.8 
L 298.8 849.6 
L 304.2 849.6 
L 304.2 892.8 
L 309.6 892.8 
L 309.6 849.6 
L 315 849.6 
L 315 892.8 
L 320.4 892.8 
L 320.4 849.6 
L 325.8 849.6 
L 325.8 892.8 
L 331.2 892.8 
L 331.2 849.6 
" style="fill:none;stroke:#000000;stroke-width:0.566929;"/>
    <path clip-path="url(#p68fa7bc009)" d="M 288 849.6 
L 331.2 849.6 
L 331.2 846.514286 
L 288 846.514286 
L 288 843.428571 
L 331.2 843.428571 
L 331.2 840.342857 
L 288 840.342857 
L 288 837.257143 
L 331.2 837.257143 
L 331.2 834.171429 
L 288 834.171429 
L 288 831.085714 
L 331.2 831.085714 
L 331.2 828 
L 288 828 
L 288 824.914286 
L 331.2 824.914286 
L 331.2 821.828571 
L 288 821.828571 
L 288 818.742857 
L 331.2 818.742857 
L 331.2 815.657143 
L 288 815.657143 
L 288 812.571429 
L 331.2 812.571429 
L 331.2 809.485714 
L 288 809.485714 
L 288 806.4 
L 331.2 806.4 
" style="fill:none;stroke:#000000;stroke-width:0.566929;"/>
    <path clip-path="url(#p68fa7bc009)" d="M 288 849.6 
L 288 806.4 
L 290.16 806.4 
L 290.16 849.6 
L 292.32 849.6 
L 292.32 806.4 
L 294.48 806.4 
L 294.48 849.6 
L 296.64 849.6 
L 296.64 806.4 
L 298.8 806.4 
L 298.8 849.6 
L 300.96 849.6 
L 300.96 806.4 
L 303.12 806.4 
L 303.12 849.6 
L 305.28 849.6 
L 305.28 806.4 
L 307.44 806.4 
L 307.44 849.6 
L 309.6 849.6 
L 309.6 806.4 
L 311.76 806.4 
L 311.76 849.6 
L 313.92 849.6 
L 313.92 806.4 
L 316.08 806.4 
L 316.08 849.6 
L 318.24 849.6 
L 318.24 806.4 
L 320.4 806.4 
L 320.4 849.6 
L 322.56 849.6 
L 322.56 806.4 
L 324.72 806.4 
L 324.72 849.6 
L 326.88 849.6 
L 326.88 806.4 
L 329.04 806.4 
L 329.04 849.6 
L 331.2 849.6 
L 331.2 806.4 
" style="fill:none;stroke:#000000;stroke-width:0.566929;"/>
    <path clip-path="url(#p68fa7bc009)" d="M 288 806.4 
L 288 763.2 
L 291.927273 763.2 
L 291.927273 806.4 
L 295.854545 806.4 
L 295.854545 763.2 
L 299.781818 763.2 
L 299.781818 806.4 
L 303.709091 806.4 
L 303.709091 763.2 
L 307.636364 763.2 
L 307.636364 806.4 
L 311.563636 806.4 
L 311.563636 763.2 
L 315.490909 763.2 
L 315.490909 806.4 
L 319.418182 806.4 
L 319.418182 763.2 
L 323.345455 763.2 
L 323.345455 806.4 
L 327.272727 806.4 
L 327.272727 763.2 
L 331.2 763.2 
L 331.2 806.4 
" style="fill:none;stroke:#000000;stroke-width:0.566929;"/>
    <path clip-path="url(#p68fa7bc009)" d="M 288 763.2 
L 331.2 763.2 
L 331.2 760.114286 
L 288 760.114286 
L 288 757.028571 
L 331.2 757.028571 
L 331.2 753.942857 
L 288 753.942857 
L 288 750.857143 
L 331.2 750.857143 
L 331.2 747.771429 
L 288 747.771429 
L 288 744.685714 
L 331.2 744.685714 
L 331.2 741.6 
L 288 741.6 
L 288 738.514286 
L 331.2 738.514286 
L 331.2 735.428571 
L 288 735.428571 
L 288 732.342857 
L 331.2 732.342857 
L 331.2 729.257143 
L 288 729.257143 
L 288 726.171429 
L 331.2 726.171429 
L 331.2 723.085714 
L 288 723.085714 
L 288 720 
L 331.2 720 
" style="fill:none;stroke:#000000;stroke-width:0.566929;"/>
    <path clip-path="url(#p68fa7bc009)" d="M 288 763.2 
L 288 720 
L 291.6 720 
L 291.6 763.2 
L 295.2 763.2 
L 295.2 720 
L 298.8 720 
L 298.8 763.2 
L 302.4 763.2 
L 302.4 720 
L 306 720 
L 306 763.2 
L 309.6 763.2 
L 309.6 720 
L 313.2 720 
L 313.2 763.2 
L 316.8 763.2 
L 316.8 720 
L 320.4 720 
L 320.4 763.2 
L 324 763.2 
L 324 720 
L 327.6 720 
L 327.6 763.2 
L 331.2 763.2 
L 331.2 720 
" style="fill:none;stroke:#000000;stroke-width:0.566929;"/>
    <path clip-path="url(#p68fa7bc009)" d="M 331.2 936 
L 374.4 936 
L 374.4 929.828571 
L 331.2 929.828571 
L 331.2 923.657143 
L 374.4 923.657143 
L 374.4 917.485714 
L 331.2 917.485714 
L 331.2 911.314286 
L 374.4 911.314286 
L 374.4 905.142857 
L 331.2 905.142857 
L 331.2 898.971429 
L 374.4 898.971429 
L 374.4 892.8 
L 331.2 892.8 
" style="fill:none;stroke:#000000;stroke-width:0.566929;"/>
    <path clip-path="url(#p68fa7bc009)" d="M 331.2 936 
L 331.2 892.8 
L 335.127273 892.8 
L 335.127273 936 
L 339.054545 936 
L 339.054545 892.8 
L 342.981818 892.8 
L 342.981818 936 
L 346.909091 936 
L 346.909091 892.8 
L 350.836364 892.8 
L 350.836364 936 
L 354.763636 936 
L 354.763636 892.8 
L 358.690909 892.8 
L 358.690909 936 
L 362.618182 936 
L 362.618182 892.8 
L 366.545455 892.8 
L 366.545455 936 
L 370.472727 936 
L 370.472727 892.8 
L 374.4 892.8 
L 374.4 936 
" style="fill:none;stroke:#000000;stroke-width:0.566929;"/>
    <path clip-path="url(#p68fa7bc009)" d="M 331.2 892.8 
L 374.4 892.8 
L 374.4 890.258824 
L 331.2 890.258824 
L 331.2 887.717647 
L 374.4 887.717647 
L 374.4 885.176471 
L 331.2 885.176471 
L 331.2 882.635294 
L 374.4 882.635294 
L 374.4 880.094118 
L 331.2 880.094118 
L 331.2 877.552941 
L 374.4 877.552941 
L 374.4 875.011765 
L 331.2 875.011765 
L 331.2 872.470588 
L 374.4 872.470588 
L 374.4 869.929412 
L 331.2 869.929412 
L 331.2 867.388235 
L 374.4 867.388235 
L 374.4 864.847059 
L 331.2 864.847059 
L 331.2 862.305882 
L 374.4 862.305882 
L 374.4 859.764706 
L 331.2 859.764706 
L 331.2 857.223529 
L 374.4 857.223529 
L 374.4 854.682353 
L 331.2 854.682353 
L 331.2 852.141176 
L 374.4 852.141176 
L 374.4 849.6 
L 331.2 849.6 
" style="fill:none;stroke:#000000;stroke-width:0.566929;"/>
    <path clip-path="url(#p68fa7bc009)" d="M 331.2 892.8 
L 331.2 849.6 
L 334.08 849.6 
L 334.08 892.8 
L 336.96 892.8 
L 336.96 849.6 
L 339.84 849.6 
L 339.84 892.8 
L 342.72 892.8 
L 342.72 849.6 
L 345.6 849.6 
L 345.6 892.8 
L 348.48 892.8 
L 348.48 849.6 
L 351.36 849.6 
L 351.36 892.8 
L 354.24 892.8 
L 354.24 849.6 
L 357.12 849.6 
L 357.12 892.8 
L 360 892.8 
L 360 849.6 
L 362.88 849.6 
L 362.88 892.8 
L 365.76 892.8 
L 365.76 849.6 
L 368.64 849.6 
L 368.64 892.8 
L 371.52 892.8 
L 371.52 849.6 
L 374.4 849.6 
L 374.4 892.8 
" style="fill:none;stroke:#000000;stroke-width:0.566929;"/>
    <path clip-path="url(#p68fa7bc009)" d="M 331.2 849.6 
L 331.2 806.4 
L 333.6 806.4 
L 333.6 849.6 
L 336 849.6 
L 336 806.4 
L 338.4 806.4 
L 338.4 849.6 
L 340.8 849.6 
L 340.8 806.4 
L 343.2 806.4 
L 343.2 849.6 
L 345.6 849.6 
L 345.6 806.4 
L 348 806.4 
L 348 849.6 
L 350.4 849.6 
L 350.4 806.4 
L 352.8 806.4 
L 352.8 849.6 
L 355.2 849.6 
L 355.2 806.4 
L 357.6 806.4 
L 357.6 849.6 
L 360 849.6 
L 360 806.4 
L 362.4 806.4 
L 362.4 849.6 
L 364.8 849.6 
L 364.8 806.4 
L 367.2 806.4 
L 367.2 849.6 
L 369.6 849.6 
L 369.6 806.4 
L 372 806.4 
L 372 849.6 
L 374.4 849.6 
L 374.4 806.4 
" style="fill:none;stroke:#000000;stroke-width:0.566929;"/>
    <path clip-path="url(#p68fa7bc009)" d="M 331.2 720 
L 331.2 676.8 
L 333.741176 676.8 
L 333.741176 720 
L 336.282353 720 
L 336.282353 676.8 
L 338.823529 676.8 
L 338.823529 720 
L 341.364706 720 
L 341.364706 676.8 
L 343.905882 676.8 
L 343.905882 720 
L 346.447059 720 
L 346.447059 676.8 
L 348.988235 676.8 
L 348.988235 720 
L 351.529412 720 
L 351.529412 676.8 
L 354.070588 676.8 
L 354.070588 720 
L 356.611765 720 
L 356.611765 676.8 
L 359.152941 676.8 
L 359.152941 720 
L 361.694118 720 
L 361.694118 676.8 
L 364.235294 676.8 
L 364.235294 720 
L 366.776471 720 
L 366.776471 676.8 
L 369.317647 676.8 
L 369.317647 720 
L 371.858824 720 
L 371.858824 676.8 
L 374.4 676.8 
L 374.4 720 
" style="fill:none;stroke:#000000;stroke-width:0.566929;"/>
    <path clip-path="url(#p68fa7bc009)" d="M 374.4 936 
L 417.6 936 
L 417.6 934.036364 
L 374.4 934.036364 
L 374.4 932.072727 
L 417.6 932.072727 
L 417.6 930.109091 
L 374.4 930.109091 
L 374.4 928.145455 
L 417.6 928.145455 
L 417.6 926.181818 
L 374.4 926.181818 
L 374.4 924.218182 
L 417.6 924.218182 
L 417.6 922.254545 
L 374.4 922.254545 
L 374.4 920.290909 
L 417.6 920.290909 
L 417.6 918.327273 
L 374.4 918.327273 
L 374.4 916.363636 
L 417.6 916.363636 
L 417.6 914.4 
L 374.4 914.4 
L 374.4 912.436364 
L 417.6 912.436364 
L 417.6 910.472727 
L 374.4 910.472727 
L 374.4 908.509091 
L 417.6 908.509091 
L 417.6 906.545455 
L 374.4 906.545455 
L 374.4 904.581818 
L 417.6 904.581818 
L 417.6 902.618182 
L 374.4 902.618182 
L 374.4 900.654545 
L 417.6 900.654545 
L 417.6 898.690909 
L 374.4 898.690909 
L 374.4 896.727273 
L 417.6 896.727273 
L 417.6 894.763636 
L 374.4 894.763636 
L 374.4 892.8 
L 417.6 892.8 
" style="fill:none;stroke:#000000;stroke-width:0.566929;"/>
    <path clip-path="url(#p68fa7bc009)" d="M 374.4 936 
L 374.4 892.8 
L 376.278261 892.8 
L 376.278261 936 
L 378.156522 936 
L 378.156522 892.8 
L 380.034783 892.8 
L 380.034783 936 
L 381.913043 936 
L 381.913043 892.8 
L 383.791304 892.8 
L 383.791304 936 
L 385.669565 936 
L 385.669565 892.8 
L 387.547826 892.8 
L 387.547826 936 
L 389.426087 936 
L 389.426087 892.8 
L 391.304348 892.8 
L 391.304348 936 
L 393.182609 936 
L 393.182609 892.8 
L 395.06087 892.8 
L 395.06087 936 
L 396.93913 936 
L 396.93913 892.8 
L 398.817391 892.8 
L 398.817391 936 
L 400.695652 936 
L 400.695652 892.8 
L 402.573913 892.8 
L 402.573913 936 
L 404.452174 936 
L 404.452174 892.8 
L 406.330435 892.8 
L 406.330435 936 
L 408.208696 936 
L 408.208696 892.8 
L 410.086957 892.8 
L 410.086957 936 
L 411.965217 936 
L 411.965217 892.8 
L 413.843478 892.8 
L 413.843478 936 
L 415.721739 936 
L 415.721739 892.8 
L 417.6 892.8 
L 417.6 936 
" style="fill:none;stroke:#000000;stroke-width:0.566929;"/>
    <path clip-path="url(#p68fa7bc009)" d="M 374.4 892.8 
L 417.6 892.8 
L 417.6 888 
L 374.4 888 
L 374.4 883.2 
L 417.6 883.2 
L 417.6 878.4 
L 374.4 878.4 
L 374.4 873.6 
L 417.6 873.6 
L 417.6 868.8 
L 374.4 868.8 
L 374.4 864 
L 417.6 864 
L 417.6 859.2 
L 374.4 859.2 
L 374.4 854.4 
L 417.6 854.4 
L 417.6 849.6 
L 374.4 849.6 
" style="fill:none;stroke:#000000;stroke-width:0.566929;"/>
    <path clip-path="url(#p68fa7bc009)" d="M 374.4 892.8 
L 374.4 849.6 
L 377.28 849.6 
L 377.28 892.8 
L 380.16 892.8 
L 380.16 849.6 
L 383.04 849.6 
L 383.04 892.8 
L 385.92 892.8 
L 385.92 849.6 
L 388.8 849.6 
L 388.8 892.8 
L 391.68 892.8 
L 391.68 849.6 
L 394.56 849.6 
L 394.56 892.8 
L 397.44 892.8 
L 397.44 849.6 
L 400.32 849.6 
L 400.32 892.8 
L 403.2 892.8 
L 403.2 849.6 
L 406.08 849.6 
L 406.08 892.8 
L 408.96 892.8 
L 408.96 849.6 
L 411.84 849.6 
L 411.84 892.8 
L 414.72 892.8 
L 414.72 849.6 
L 417.6 849.6 
L 417.6 892.8 
" style="fill:none;stroke:#000000;stroke-width:0.566929;"/>
    <path clip-path="url(#p68fa7bc009)" d="M 374.4 849.6 
L 417.6 849.6 
L 417.6 845.28 
L 374.4 845.28 
L 374.4 840.96 
L 417.6 840.96 
L 417.6 836.64 
L 374.4 836.64 
L 374.4 832.32 
L 417.6 832.32 
L 417.6 828 
L 374.4 828 
L 374.4 823.68 
L 417.6 823.68 
L 417.6 819.36 
L 374.4 819.36 
L 374.4 815.04 
L 417.6 815.04 
L 417.6 810.72 
L 374.4 810.72 
L 374.4 806.4 
L 417.6 806.4 
" style="fill:none;stroke:#000000;stroke-width:0.566929;"/>
    <path clip-path="url(#p68fa7bc009)" d="M 374.4 849.6 
L 374.4 806.4 
L 377.723077 806.4 
L 377.723077 849.6 
L 381.046154 849.6 
L 381.046154 806.4 
L 384.369231 806.4 
L 384.369231 849.6 
L 387.692308 849.6 
L 387.692308 806.4 
L 391.015385 806.4 
L 391.015385 849.6 
L 394.338462 849.6 
L 394.338462 806.4 
L 397.661538 806.4 
L 397.661538 849.6 
L 400.984615 849.6 
L 400.984615 806.4 
L 404.307692 806.4 
L 404.307692 849.6 
L 407.630769 849.6 
L 407.630769 806.4 
L 410.953846 806.4 
L 410.953846 849.6 
L 414.276923 849.6 
L 414.276923 806.4 
L 417.6 806.4 
L 417.6 849.6 
" style="fill:none;stroke:#000000;stroke-width:0.566929;"/>
    <path clip-path="url(#p68fa7bc009)" d="M 374.4 806.4 
L 417.6 806.4 
L 417.6 803.52 
L 374.4 803.52 
L 374.4 800.64 
L 417.6 800.64 
L 417.6 797.76 
L 374.4 797.76 
L 374.4 794.88 
L 417.6 794.88 
L 417.6 792 
L 374.4 792 
L 374.4 789.12 
L 417.6 789.12 
L 417.6 786.24 
L 374.4 786.24 
L 374.4 783.36 
L 417.6 783.36 
L 417.6 780.48 
L 374.4 780.48 
L 374.4 777.6 
L 417.6 777.6 
L 417.6 774.72 
L 374.4 774.72 
L 374.4 771.84 
L 417.6 771.84 
L 417.6 768.96 
L 374.4 768.96 
L 374.4 766.08 
L 417.6 766.08 
L 417.6 763.2 
L 374.4 763.2 
" style="fill:none;stroke:#000000;stroke-width:0.566929;"/>
    <path clip-path="url(#p68fa7bc009)" d="M 374.4 806.4 
L 374.4 763.2 
L 378 763.2 
L 378 806.4 
L 381.6 806.4 
L 381.6 763.2 
L 385.2 763.2 
L 385.2 806.4 
L 388.8 806.4 
L 388.8 763.2 
L 392.4 763.2 
L 392.4 806.4 
L 396 806.4 
L 396 763.2 
L 399.6 763.2 
L 399.6 806.4 
L 403.2 806.4 
L 403.2 763.2 
L 406.8 763.2 
L 406.8 806.4 
L 410.4 806.4 
L 410.4 763.2 
L 414 763.2 
L 414 806.4 
L 417.6 806.4 
L 417.6 763.2 
" style="fill:none;stroke:#000000;stroke-width:0.566929;"/>
    <path clip-path="url(#p68fa7bc009)" d="M 374.4 763.2 
L 374.4 720 
L 378 720 
L 378 763.2 
L 381.6 763.2 
L 381.6 720 
L 385.2 720 
L 385.2 763.2 
L 388.8 763.2 
L 388.8 720 
L 392.4 720 
L 392.4 763.2 
L 396 763.2 
L 396 720 
L 399.6 720 
L 399.6 763.2 
L 403.2 763.2 
L 403.2 720 
L 406.8 720 
L 406.8 763.2 
L 410.4 763.2 
L 410.4 720 
L 414 720 
L 414 763.2 
L 417.6 763.2 
L 417.6 720 
" style="fill:none;stroke:#000000;stroke-width:0.566929;"/>
    <path clip-path="url(#p68fa7bc009)" d="M 417.6 936 
L 460.8 936 
L 460.8 934.121739 
L 417.6 934.121739 
L 417.6 932.243478 
L 460.8 932.243478 
L 460.8 930.365217 
L 417.6 930.365217 
L 417.6 928.486957 
L 460.8 928.486957 
L 460.8 926.608696 
L 417.6 926.608696 
L 417.6 924.730435 
L 460.8 924.730435 
L 460.8 922.852174 
L 417.6 922.852174 
L 417.6 920.973913 
L 460.8 920.973913 
L 460.8 919.095652 
L 417.6 919.095652 
L 417.6 917.217391 
L 460.8 917.217391 
L 460.8 915.33913 
L 417.6 915.33913 
L 417.6 913.46087 
L 460.8 913.46087 
L 460.8 911.582609 
L 417.6 911.582609 
L 417.6 909.704348 
L 460.8 909.704348 
L 460.8 907.826087 
L 417.6 907.826087 
L 417.6 905.947826 
L 460.8 905.947826 
L 460.8 904.069565 
L 417.6 904.069565 
L 417.6 902.191304 
L 460.8 902.191304 
L 460.8 900.313043 
L 417.6 900.313043 
L 417.6 898.434783 
L 460.8 898.434783 
L 460.8 896.556522 
L 417.6 896.556522 
L 417.6 894.678261 
L 460.8 894.678261 
L 460.8 892.8 
L 417.6 892.8 
" style="fill:none;stroke:#000000;stroke-width:0.566929;"/>
    <path clip-path="url(#p68fa7bc009)" d="M 417.6 936 
L 417.6 892.8 
L 420.48 892.8 
L 420.48 936 
L 423.36 936 
L 423.36 892.8 
L 426.24 892.8 
L 426.24 936 
L 429.12 936 
L 429.12 892.8 
L 432 892.8 
L 432 936 
L 434.88 936 
L 434.88 892.8 
L 437.76 892.8 
L 437.76 936 
L 440.64 936 
L 440.64 892.8 
L 443.52 892.8 
L 443.52 936 
L 446.4 936 
L 446.4 892.8 
L 449.28 892.8 
L 449.28 936 
L 452.16 936 
L 452.16 892.8 
L 455.04 892.8 
L 455.04 936 
L 457.92 936 
L 457.92 892.8 
L 460.8 892.8 
L 460.8 936 
" style="fill:none;stroke:#000000;stroke-width:0.566929;"/>
    <path clip-path="url(#p68fa7bc009)" d="M 417.6 892.8 
L 460.8 892.8 
L 460.8 887.4 
L 417.6 887.4 
L 417.6 882 
L 460.8 882 
L 460.8 876.6 
L 417.6 876.6 
L 417.6 871.2 
L 460.8 871.2 
L 460.8 865.8 
L 417.6 865.8 
L 417.6 860.4 
L 460.8 860.4 
L 460.8 855 
L 417.6 855 
L 417.6 849.6 
L 460.8 849.6 
" style="fill:none;stroke:#000000;stroke-width:0.566929;"/>
    <path clip-path="url(#p68fa7bc009)" d="M 417.6 892.8 
L 417.6 849.6 
L 423.771429 849.6 
L 423.771429 892.8 
L 429.942857 892.8 
L 429.942857 849.6 
L 436.114286 849.6 
L 436.114286 892.8 
L 442.285714 892.8 
L 442.285714 849.6 
L 448.457143 849.6 
L 448.457143 892.8 
L 454.628571 892.8 
L 454.628571 849.6 
L 460.8 849.6 
L 460.8 892.8 
" style="fill:none;stroke:#000000;stroke-width:0.566929;"/>
    <path clip-path="url(#p68fa7bc009)" d="M 417.6 849.6 
L 460.8 849.6 
L 460.8 845.28 
L 417.6 845.28 
L 417.6 840.96 
L 460.8 840.96 
L 460.8 836.64 
L 417.6 836.64 
L 417.6 832.32 
L 460.8 832.32 
L 460.8 828 
L 417.6 828 
L 417.6 823.68 
L 460.8 823.68 
L 460.8 819.36 
L 417.6 819.36 
L 417.6 815.04 
L 460.8 815.04 
L 460.8 810.72 
L 417.6 810.72 
L 417.6 806.4 
L 460.8 806.4 
" style="fill:none;stroke:#000000;stroke-width:0.566929;"/>
    <path clip-path="url(#p68fa7bc009)" d="M 417.6 849.6 
L 417.6 806.4 
L 419.76 806.4 
L 419.76 849.6 
L 421.92 849.6 
L 421.92 806.4 
L 424.08 806.4 
L 424.08 849.6 
L 426.24 849.6 
L 426.24 806.4 
L 428.4 806.4 
L 428.4 849.6 
L 430.56 849.6 
L 430.56 806.4 
L 432.72 806.4 
L 432.72 849.6 
L 434.88 849.6 
L 434.88 806.4 
L 437.04 806.4 
L 437.04 849.6 
L 439.2 849.6 
L 439.2 806.4 
L 441.36 806.4 
L 441.36 849.6 
L 443.52 849.6 
L 443.52 806.4 
L 445.68 806.4 
L 445.68 849.6 
L 447.84 849.6 
L 447.84 806.4 
L 450 806.4 
L 450 849.6 
L 452.16 849.6 
L 452.16 806.4 
L 454.32 806.4 
L 454.32 849.6 
L 456.48 849.6 
L 456.48 806.4 
L 458.64 806.4 
L 458.64 849.6 
L 460.8 849.6 
L 460.8 806.4 
" style="fill:none;stroke:#000000;stroke-width:0.566929;"/>
    <path clip-path="url(#p68fa7bc009)" d="M 417.6 806.4 
L 460.8 806.4 
L 460.8 802.08 
L 417.6 802.08 
L 417.6 797.76 
L 460.8 797.76 
L 460.8 793.44 
L 417.6 793.44 
L 417.6 789.12 
L 460.8 789.12 
L 460.8 784.8 
L 417.6 784.8 
L 417.6 780.48 
L 460.8 780.48 
L 460.8 776.16 
L 417.6 776.16 
L 417.6 771.84 
L 460.8 771.84 
L 460.8 767.52 
L 417.6 767.52 
L 417.6 763.2 
L 460.8 763.2 
" style="fill:none;stroke:#000000;stroke-width:0.566929;"/>
    <path clip-path="url(#p68fa7bc009)" d="M 417.6 763.2 
L 460.8 763.2 
L 460.8 757.8 
L 417.6 757.8 
L 417.6 752.4 
L 460.8 752.4 
L 460.8 747 
L 417.6 747 
L 417.6 741.6 
L 460.8 741.6 
L 460.8 736.2 
L 417.6 736.2 
L 417.6 730.8 
L 460.8 730.8 
L 460.8 725.4 
L 417.6 725.4 
L 417.6 720 
L 460.8 720 
" style="fill:none;stroke:#000000;stroke-width:0.566929;"/>
    <path clip-path="url(#p68fa7bc009)" d="M 417.6 763.2 
L 417.6 720 
L 420.923077 720 
L 420.923077 763.2 
L 424.246154 763.2 
L 424.246154 720 
L 427.569231 720 
L 427.569231 763.2 
L 430.892308 763.2 
L 430.892308 720 
L 434.215385 720 
L 434.215385 763.2 
L 437.538462 763.2 
L 437.538462 720 
L 440.861538 720 
L 440.861538 763.2 
L 444.184615 763.2 
L 444.184615 720 
L 447.507692 720 
L 447.507692 763.2 
L 450.830769 763.2 
L 450.830769 720 
L 454.153846 720 
L 454.153846 763.2 
L 457.476923 763.2 
L 457.476923 720 
L 460.8 720 
L 460.8 763.2 
" style="fill:none;stroke:#000000;stroke-width:0.566929;"/>
    <path clip-path="url(#p68fa7bc009)" d="M 460.8 936 
L 504 936 
L 504 929.828571 
L 460.8 929.828571 
L 460.8 923.657143 
L 504 923.657143 
L 504 917.485714 
L 460.8 917.485714 
L 460.8 911.314286 
L 504 911.314286 
L 504 905.142857 
L 460.8 905.142857 
L 460.8 898.971429 
L 504 898.971429 
L 504 892.8 
L 460.8 892.8 
" style="fill:none;stroke:#000000;stroke-width:0.566929;"/>
    <path clip-path="url(#p68fa7bc009)" d="M 460.8 936 
L 460.8 892.8 
L 466.2 892.8 
L 466.2 936 
L 471.6 936 
L 471.6 892.8 
L 477 892.8 
L 477 936 
L 482.4 936 
L 482.4 892.8 
L 487.8 892.8 
L 487.8 936 
L 493.2 936 
L 493.2 892.8 
L 498.6 892.8 
L 498.6 936 
L 504 936 
L 504 892.8 
" style="fill:none;stroke:#000000;stroke-width:0.566929;"/>
    <path clip-path="url(#p68fa7bc009)" d="M 460.8 892.8 
L 504 892.8 
L 504 885.6 
L 460.8 885.6 
L 460.8 878.4 
L 504 878.4 
L 504 871.2 
L 460.8 871.2 
L 460.8 864 
L 504 864 
L 504 856.8 
L 460.8 856.8 
L 460.8 849.6 
L 504 849.6 
" style="fill:none;stroke:#000000;stroke-width:0.566929;"/>
    <path clip-path="url(#p68fa7bc009)" d="M 460.8 892.8 
L 460.8 849.6 
L 466.2 849.6 
L 466.2 892.8 
L 471.6 892.8 
L 471.6 849.6 
L 477 849.6 
L 477 892.8 
L 482.4 892.8 
L 482.4 849.6 
L 487.8 849.6 
L 487.8 892.8 
L 493.2 892.8 
L 493.2 849.6 
L 498.6 849.6 
L 498.6 892.8 
L 504 892.8 
L 504 849.6 
" style="fill:none;stroke:#000000;stroke-width:0.566929;"/>
    <path clip-path="url(#p68fa7bc009)" d="M 460.8 849.6 
L 504 849.6 
L 504 845.28 
L 460.8 845.28 
L 460.8 840.96 
L 504 840.96 
L 504 836.64 
L 460.8 836.64 
L 460.8 832.32 
L 504 832.32 
L 504 828 
L 460.8 828 
L 460.8 823.68 
L 504 823.68 
L 504 819.36 
L 460.8 819.36 
L 460.8 815.04 
L 504 815.04 
L 504 810.72 
L 460.8 810.72 
L 460.8 806.4 
L 504 806.4 
" style="fill:none;stroke:#000000;stroke-width:0.566929;"/>
    <path clip-path="url(#p68fa7bc009)" d="M 460.8 849.6 
L 460.8 806.4 
L 462.96 806.4 
L 462.96 849.6 
L 465.12 849.6 
L 465.12 806.4 
L 467.28 806.4 
L 467.28 849.6 
L 469.44 849.6 
L 469.44 806.4 
L 471.6 806.4 
L 471.6 849.6 
L 473.76 849.6 
L 473.76 806.4 
L 475.92 806.4 
L 475.92 849.6 
L 478.08 849.6 
L 478.08 806.4 
L 480.24 806.4 
L 480.24 849.6 
L 482.4 849.6 
L 482.4 806.4 
L 484.56 806.4 
L 484.56 849.6 
L 486.72 849.6 
L 486.72 806.4 
L 488.88 806.4 
L 488.88 849.6 
L 491.04 849.6 
L 491.04 806.4 
L 493.2 806.4 
L 493.2 849.6 
L 495.36 849.6 
L 495.36 806.4 
L 497.52 806.4 
L 497.52 849.6 
L 499.68 849.6 
L 499.68 806.4 
L 501.84 806.4 
L 501.84 849.6 
L 504 849.6 
L 504 806.4 
" style="fill:none;stroke:#000000;stroke-width:0.566929;"/>
    <path clip-path="url(#p68fa7bc009)" d="M 460.8 806.4 
L 504 806.4 
L 504 804.24 
L 460.8 804.24 
L 460.8 802.08 
L 504 802.08 
L 504 799.92 
L 460.8 799.92 
L 460.8 797.76 
L 504 797.76 
L 504 795.6 
L 460.8 795.6 
L 460.8 793.44 
L 504 793.44 
L 504 791.28 
L 460.8 791.28 
L 460.8 789.12 
L 504 789.12 
L 504 786.96 
L 460.8 786.96 
L 460.8 784.8 
L 504 784.8 
L 504 782.64 
L 460.8 782.64 
L 460.8 780.48 
L 504 780.48 
L 504 778.32 
L 460.8 778.32 
L 460.8 776.16 
L 504 776.16 
L 504 774 
L 460.8 774 
L 460.8 771.84 
L 504 771.84 
L 504 769.68 
L 460.8 769.68 
L 460.8 767.52 
L 504 767.52 
L 504 765.36 
L 460.8 765.36 
L 460.8 763.2 
L 504 763.2 
" style="fill:none;stroke:#000000;stroke-width:0.566929;"/>
    <path clip-path="url(#p68fa7bc009)" d="M 460.8 763.2 
L 504 763.2 
L 504 759.876923 
L 460.8 759.876923 
L 460.8 756.553846 
L 504 756.553846 
L 504 753.230769 
L 460.8 753.230769 
L 460.8 749.907692 
L 504 749.907692 
L 504 746.584615 
L 460.8 746.584615 
L 460.8 743.261538 
L 504 743.261538 
L 504 739.938462 
L 460.8 739.938462 
L 460.8 736.615385 
L 504 736.615385 
L 504 733.292308 
L 460.8 733.292308 
L 460.8 729.969231 
L 504 729.969231 
L 504 726.646154 
L 460.8 726.646154 
L 460.8 723.323077 
L 504 723.323077 
L 504 720 
L 460.8 720 
" style="fill:none;stroke:#000000;stroke-width:0.566929;"/>
    <path clip-path="url(#p68fa7bc009)" d="M 460.8 763.2 
L 460.8 720 
L 468 720 
L 468 763.2 
L 475.2 763.2 
L 475.2 720 
L 482.4 720 
L 482.4 763.2 
L 489.6 763.2 
L 489.6 720 
L 496.8 720 
L 496.8 763.2 
L 504 763.2 
L 504 720 
" style="fill:none;stroke:#000000;stroke-width:0.566929;"/>
    <path clip-path="url(#p68fa7bc009)" d="M 504 936 
L 547.2 936 
L 547.2 931.68 
L 504 931.68 
L 504 927.36 
L 547.2 927.36 
L 547.2 923.04 
L 504 923.04 
L 504 918.72 
L 547.2 918.72 
L 547.2 914.4 
L 504 914.4 
L 504 910.08 
L 547.2 910.08 
L 547.2 905.76 
L 504 905.76 
L 504 901.44 
L 547.2 901.44 
L 547.2 897.12 
L 504 897.12 
L 504 892.8 
L 547.2 892.8 
" style="fill:none;stroke:#000000;stroke-width:0.566929;"/>
    <path clip-path="url(#p68fa7bc009)" d="M 504 936 
L 504 892.8 
L 505.878261 892.8 
L 505.878261 936 
L 507.756522 936 
L 507.756522 892.8 
L 509.634783 892.8 
L 509.634783 936 
L 511.513043 936 
L 511.513043 892.8 
L 513.391304 892.8 
L 513.391304 936 
L 515.269565 936 
L 515.269565 892.8 
L 517.147826 892.8 
L 517.147826 936 
L 519.026087 936 
L 519.026087 892.8 
L 520.904348 892.8 
L 520.904348 936 
L 522.782609 936 
L 522.782609 892.8 
L 524.66087 892.8 
L 524.66087 936 
L 526.53913 936 
L 526.53913 892.8 
L 528.417391 892.8 
L 528.417391 936 
L 530.295652 936 
L 530.295652 892.8 
L 532.173913 892.8 
L 532.173913 936 
L 534.052174 936 
L 534.052174 892.8 
L 535.930435 892.8 
L 535.930435 936 
L 537.808696 936 
L 537.808696 892.8 
L 539.686957 892.8 
L 539.686957 936 
L 541.565217 936 
L 541.565217 892.8 
L 543.443478 892.8 
L 543.443478 936 
L 545.321739 936 
L 545.321739 892.8 
L 547.2 892.8 
L 547.2 936 
" style="fill:none;stroke:#000000;stroke-width:0.566929;"/>
    <path clip-path="url(#p68fa7bc009)" d="M 504 892.8 
L 547.2 892.8 
L 547.2 886.628571 
L 504 886.628571 
L 504 880.457143 
L 547.2 880.457143 
L 547.2 874.285714 
L 504 874.285714 
L 504 868.114286 
L 547.2 868.114286 
L 547.2 861.942857 
L 504 861.942857 
L 504 855.771429 
L 547.2 855.771429 
L 547.2 849.6 
L 504 849.6 
" style="fill:none;stroke:#000000;stroke-width:0.566929;"/>
    <path clip-path="url(#p68fa7bc009)" d="M 504 892.8 
L 504 849.6 
L 506.4 849.6 
L 506.4 892.8 
L 508.8 892.8 
L 508.8 849.6 
L 511.2 849.6 
L 511.2 892.8 
L 513.6 892.8 
L 513.6 849.6 
L 516 849.6 
L 516 892.8 
L 518.4 892.8 
L 518.4 849.6 
L 520.8 849.6 
L 520.8 892.8 
L 523.2 892.8 
L 523.2 849.6 
L 525.6 849.6 
L 525.6 892.8 
L 528 892.8 
L 528 849.6 
L 530.4 849.6 
L 530.4 892.8 
L 532.8 892.8 
L 532.8 849.6 
L 535.2 849.6 
L 535.2 892.8 
L 537.6 892.8 
L 537.6 849.6 
L 540 849.6 
L 540 892.8 
L 542.4 892.8 
L 542.4 849.6 
L 544.8 849.6 
L 544.8 892.8 
L 547.2 892.8 
L 547.2 849.6 
" style="fill:none;stroke:#000000;stroke-width:0.566929;"/>
    <path clip-path="url(#p68fa7bc009)" d="M 504 849.6 
L 547.2 849.6 
L 547.2 847.636364 
L 504 847.636364 
L 504 845.672727 
L 547.2 845.672727 
L 547.2 843.709091 
L 504 843.709091 
L 504 841.745455 
L 547.2 841.745455 
L 547.2 839.781818 
L 504 839.781818 
L 504 837.818182 
L 547.2 837.818182 
L 547.2 835.854545 
L 504 835.854545 
L 504 833.890909 
L 547.2 833.890909 
L 547.2 831.927273 
L 504 831.927273 
L 504 829.963636 
L 547.2 829.963636 
L 547.2 828 
L 504 828 
L 504 826.036364 
L 547.2 826.036364 
L 547.2 824.072727 
L 504 824.072727 
L 504 822.109091 
L 547.2 822.109091 
L 547.2 820.145455 
L 504 820.145455 
L 504 818.181818 
L 547.2 818.181818 
L 547.2 816.218182 
L 504 816.218182 
L 504 814.254545 
L 547.2 814.254545 
L 547.2 812.290909 
L 504 812.290909 
L 504 810.327273 
L 547.2 810.327273 
L 547.2 808.363636 
L 504 808.363636 
L 504 806.4 
L 547.2 806.4 
" style="fill:none;stroke:#000000;stroke-width:0.566929;"/>
    <path clip-path="url(#p68fa7bc009)" d="M 504 849.6 
L 504 806.4 
L 510.171429 806.4 
L 510.171429 849.6 
L 516.342857 849.6 
L 516.342857 806.4 
L 522.514286 806.4 
L 522.514286 849.6 
L 528.685714 849.6 
L 528.685714 806.4 
L 534.857143 806.4 
L 534.857143 849.6 
L 541.028571 849.6 
L 541.028571 806.4 
L 547.2 806.4 
L 547.2 849.6 
" style="fill:none;stroke:#000000;stroke-width:0.566929;"/>
    <path clip-path="url(#p68fa7bc009)" d="M 504 806.4 
L 547.2 806.4 
L 547.2 803.314286 
L 504 803.314286 
L 504 800.228571 
L 547.2 800.228571 
L 547.2 797.142857 
L 504 797.142857 
L 504 794.057143 
L 547.2 794.057143 
L 547.2 790.971429 
L 504 790.971429 
L 504 787.885714 
L 547.2 787.885714 
L 547.2 784.8 
L 504 784.8 
L 504 781.714286 
L 547.2 781.714286 
L 547.2 778.628571 
L 504 778.628571 
L 504 775.542857 
L 547.2 775.542857 
L 547.2 772.457143 
L 504 772.457143 
L 504 769.371429 
L 547.2 769.371429 
L 547.2 766.285714 
L 504 766.285714 
L 504 763.2 
L 547.2 763.2 
" style="fill:none;stroke:#000000;stroke-width:0.566929;"/>
    <path clip-path="url(#p68fa7bc009)" d="M 504 806.4 
L 504 763.2 
L 507.085714 763.2 
L 507.085714 806.4 
L 510.171429 806.4 
L 510.171429 763.2 
L 513.257143 763.2 
L 513.257143 806.4 
L 516.342857 806.4 
L 516.342857 763.2 
L 519.428571 763.2 
L 519.428571 806.4 
L 522.514286 806.4 
L 522.514286 763.2 
L 525.6 763.2 
L 525.6 806.4 
L 528.685714 806.4 
L 528.685714 763.2 
L 531.771429 763.2 
L 531.771429 806.4 
L 534.857143 806.4 
L 534.857143 763.2 
L 537.942857 763.2 
L 537.942857 806.4 
L 541.028571 806.4 
L 541.028571 763.2 
L 544.114286 763.2 
L 544.114286 806.4 
L 547.2 806.4 
L 547.2 763.2 
" style="fill:none;stroke:#000000;stroke-width:0.566929;"/>
    <path clip-path="url(#p68fa7bc009)" d="M 504 763.2 
L 504 720 
L 511.2 720 
L 511.2 763.2 
L 518.4 763.2 
L 518.4 720 
L 525.6 720 
L 525.6 763.2 
L 532.8 763.2 
L 532.8 720 
L 540 720 
L 540 763.2 
L 547.2 763.2 
L 547.2 720 
" style="fill:none;stroke:#000000;stroke-width:0.566929;"/>
    <path clip-path="url(#p68fa7bc009)" d="M 504 720 
L 504 676.8 
L 506.541176 676.8 
L 506.541176 720 
L 509.082353 720 
L 509.082353 676.8 
L 511.623529 676.8 
L 511.623529 720 
L 514.164706 720 
L 514.164706 676.8 
L 516.705882 676.8 
L 516.705882 720 
L 519.247059 720 
L 519.247059 676.8 
L 521.788235 676.8 
L 521.788235 720 
L 524.329412 720 
L 524.329412 676.8 
L 526.870588 676.8 
L 526.870588 720 
L 529.411765 720 
L 529.411765 676.8 
L 531.952941 676.8 
L 531.952941 720 
L 534.494118 720 
L 534.494118 676.8 
L 537.035294 676.8 
L 537.035294 720 
L 539.576471 720 
L 539.576471 676.8 
L 542.117647 676.8 
L 542.117647 720 
L 544.658824 720 
L 544.658824 676.8 
L 547.2 676.8 
L 547.2 720 
" style="fill:none;stroke:#000000;stroke-width:0.566929;"/>
    <path clip-path="url(#p68fa7bc009)" d="M 547.2 936 
L 590.4 936 
L 590.4 928.8 
L 547.2 928.8 
L 547.2 921.6 
L 590.4 921.6 
L 590.4 914.4 
L 547.2 914.4 
L 547.2 907.2 
L 590.4 907.2 
L 590.4 900 
L 547.2 900 
L 547.2 892.8 
L 590.4 892.8 
" style="fill:none;stroke:#000000;stroke-width:0.566929;"/>
    <path clip-path="url(#p68fa7bc009)" d="M 547.2 936 
L 547.2 892.8 
L 549.078261 892.8 
L 549.078261 936 
L 550.956522 936 
L 550.956522 892.8 
L 552.834783 892.8 
L 552.834783 936 
L 554.713043 936 
L 554.713043 892.8 
L 556.591304 892.8 
L 556.591304 936 
L 558.469565 936 
L 558.469565 892.8 
L 560.347826 892.8 
L 560.347826 936 
L 562.226087 936 
L 562.226087 892.8 
L 564.104348 892.8 
L 564.104348 936 
L 565.982609 936 
L 565.982609 892.8 
L 567.86087 892.8 
L 567.86087 936 
L 569.73913 936 
L 569.73913 892.8 
L 571.617391 892.8 
L 571.617391 936 
L 573.495652 936 
L 573.495652 892.8 
L 575.373913 892.8 
L 575.373913 936 
L 577.252174 936 
L 577.252174 892.8 
L 579.130435 892.8 
L 579.130435 936 
L 581.008696 936 
L 581.008696 892.8 
L 582.886957 892.8 
L 582.886957 936 
L 584.765217 936 
L 584.765217 892.8 
L 586.643478 892.8 
L 586.643478 936 
L 588.521739 936 
L 588.521739 892.8 
L 590.4 892.8 
L 590.4 936 
" style="fill:none;stroke:#000000;stroke-width:0.566929;"/>
    <path clip-path="url(#p68fa7bc009)" d="M 547.2 892.8 
L 590.4 892.8 
L 590.4 888 
L 547.2 888 
L 547.2 883.2 
L 590.4 883.2 
L 590.4 878.4 
L 547.2 878.4 
L 547.2 873.6 
L 590.4 873.6 
L 590.4 868.8 
L 547.2 868.8 
L 547.2 864 
L 590.4 864 
L 590.4 859.2 
L 547.2 859.2 
L 547.2 854.4 
L 590.4 854.4 
L 590.4 849.6 
L 547.2 849.6 
" style="fill:none;stroke:#000000;stroke-width:0.566929;"/>
    <path clip-path="url(#p68fa7bc009)" d="M 547.2 892.8 
L 547.2 849.6 
L 550.285714 849.6 
L 550.285714 892.8 
L 553.371429 892.8 
L 553.371429 849.6 
L 556.457143 849.6 
L 556.457143 892.8 
L 559.542857 892.8 
L 559.542857 849.6 
L 562.628571 849.6 
L 562.628571 892.8 
L 565.714286 892.8 
L 565.714286 849.6 
L 568.8 849.6 
L 568.8 892.8 
L 571.885714 892.8 
L 571.885714 849.6 
L 574.971429 849.6 
L 574.971429 892.8 
L 578.057143 892.8 
L 578.057143 849.6 
L 581.142857 849.6 
L 581.142857 892.8 
L 584.228571 892.8 
L 584.228571 849.6 
L 587.314286 849.6 
L 587.314286 892.8 
L 590.4 892.8 
L 590.4 849.6 
" style="fill:none;stroke:#000000;stroke-width:0.566929;"/>
    <path clip-path="url(#p68fa7bc009)" d="M 547.2 849.6 
L 590.4 849.6 
L 590.4 842.4 
L 547.2 842.4 
L 547.2 835.2 
L 590.4 835.2 
L 590.4 828 
L 547.2 828 
L 547.2 820.8 
L 590.4 820.8 
L 590.4 813.6 
L 547.2 813.6 
L 547.2 806.4 
L 590.4 806.4 
" style="fill:none;stroke:#000000;stroke-width:0.566929;"/>
    <path clip-path="url(#p68fa7bc009)" d="M 547.2 806.4 
L 590.4 806.4 
L 590.4 803.076923 
L 547.2 803.076923 
L 547.2 799.753846 
L 590.4 799.753846 
L 590.4 796.430769 
L 547.2 796.430769 
L 547.2 793.107692 
L 590.4 793.107692 
L 590.4 789.784615 
L 547.2 789.784615 
L 547.2 786.461538 
L 590.4 786.461538 
L 590.4 783.138462 
L 547.2 783.138462 
L 547.2 779.815385 
L 590.4 779.815385 
L 590.4 776.492308 
L 547.2 776.492308 
L 547.2 773.169231 
L 590.4 773.169231 
L 590.4 769.846154 
L 547.2 769.846154 
L 547.2 766.523077 
L 590.4 766.523077 
L 590.4 763.2 
L 547.2 763.2 
" style="fill:none;stroke:#000000;stroke-width:0.566929;"/>
    <path clip-path="url(#p68fa7bc009)" d="M 547.2 806.4 
L 547.2 763.2 
L 551.127273 763.2 
L 551.127273 806.4 
L 555.054545 806.4 
L 555.054545 763.2 
L 558.981818 763.2 
L 558.981818 806.4 
L 562.909091 806.4 
L 562.909091 763.2 
L 566.836364 763.2 
L 566.836364 806.4 
L 570.763636 806.4 
L 570.763636 763.2 
L 574.690909 763.2 
L 574.690909 806.4 
L 578.618182 806.4 
L 578.618182 763.2 
L 582.545455 763.2 
L 582.545455 806.4 
L 586.472727 806.4 
L 586.472727 763.2 
L 590.4 763.2 
L 590.4 806.4 
" style="fill:none;stroke:#000000;stroke-width:0.566929;"/>
    <path clip-path="url(#p68fa7bc009)" d="M 590.4 936 
L 633.6 936 
L 633.6 930.6 
L 590.4 930.6 
L 590.4 925.2 
L 633.6 925.2 
L 633.6 919.8 
L 590.4 919.8 
L 590.4 914.4 
L 633.6 914.4 
L 633.6 909 
L 590.4 909 
L 590.4 903.6 
L 633.6 903.6 
L 633.6 898.2 
L 590.4 898.2 
L 590.4 892.8 
L 633.6 892.8 
" style="fill:none;stroke:#000000;stroke-width:0.566929;"/>
    <path clip-path="url(#p68fa7bc009)" d="M 590.4 936 
L 590.4 892.8 
L 592.278261 892.8 
L 592.278261 936 
L 594.156522 936 
L 594.156522 892.8 
L 596.034783 892.8 
L 596.034783 936 
L 597.913043 936 
L 597.913043 892.8 
L 599.791304 892.8 
L 599.791304 936 
L 601.669565 936 
L 601.669565 892.8 
L 603.547826 892.8 
L 603.547826 936 
L 605.426087 936 
L 605.426087 892.8 
L 607.304348 892.8 
L 607.304348 936 
L 609.182609 936 
L 609.182609 892.8 
L 611.06087 892.8 
L 611.06087 936 
L 612.93913 936 
L 612.93913 892.8 
L 614.817391 892.8 
L 614.817391 936 
L 616.695652 936 
L 616.695652 892.8 
L 618.573913 892.8 
L 618.573913 936 
L 620.452174 936 
L 620.452174 892.8 
L 622.330435 892.8 
L 622.330435 936 
L 624.208696 936 
L 624.208696 892.8 
L 626.086957 892.8 
L 626.086957 936 
L 627.965217 936 
L 627.965217 892.8 
L 629.843478 892.8 
L 629.843478 936 
L 631.721739 936 
L 631.721739 892.8 
L 633.6 892.8 
L 633.6 936 
" style="fill:none;stroke:#000000;stroke-width:0.566929;"/>
    <path clip-path="url(#p68fa7bc009)" d="M 590.4 892.8 
L 633.6 892.8 
L 633.6 889.476923 
L 590.4 889.476923 
L 590.4 886.153846 
L 633.6 886.153846 
L 633.6 882.830769 
L 590.4 882.830769 
L 590.4 879.507692 
L 633.6 879.507692 
L 633.6 876.184615 
L 590.4 876.184615 
L 590.4 872.861538 
L 633.6 872.861538 
L 633.6 869.538462 
L 590.4 869.538462 
L 590.4 866.215385 
L 633.6 866.215385 
L 633.6 862.892308 
L 590.4 862.892308 
L 590.4 859.569231 
L 633.6 859.569231 
L 633.6 856.246154 
L 590.4 856.246154 
L 590.4 852.923077 
L 633.6 852.923077 
L 633.6 849.6 
L 590.4 849.6 
" style="fill:none;stroke:#000000;stroke-width:0.566929;"/>
    <path clip-path="url(#p68fa7bc009)" d="M 590.4 892.8 
L 590.4 849.6 
L 592.8 849.6 
L 592.8 892.8 
L 595.2 892.8 
L 595.2 849.6 
L 597.6 849.6 
L 597.6 892.8 
L 600 892.8 
L 600 849.6 
L 602.4 849.6 
L 602.4 892.8 
L 604.8 892.8 
L 604.8 849.6 
L 607.2 849.6 
L 607.2 892.8 
L 609.6 892.8 
L 609.6 849.6 
L 612 849.6 
L 612 892.8 
L 614.4 892.8 
L 614.4 849.6 
L 616.8 849.6 
L 616.8 892.8 
L 619.2 892.8 
L 619.2 849.6 
L 621.6 849.6 
L 621.6 892.8 
L 624 892.8 
L 624 849.6 
L 626.4 849.6 
L 626.4 892.8 
L 628.8 892.8 
L 628.8 849.6 
L 631.2 849.6 
L 631.2 892.8 
L 633.6 892.8 
L 633.6 849.6 
" style="fill:none;stroke:#000000;stroke-width:0.566929;"/>
    <path clip-path="url(#p68fa7bc009)" d="M 590.4 849.6 
L 633.6 849.6 
L 633.6 847.542857 
L 590.4 847.542857 
L 590.4 845.485714 
L 633.6 845.485714 
L 633.6 843.428571 
L 590.4 843.428571 
L 590.4 841.371429 
L 633.6 841.371429 
L 633.6 839.314286 
L 590.4 839.314286 
L 590.4 837.257143 
L 633.6 837.257143 
L 633.6 835.2 
L 590.4 835.2 
L 590.4 833.142857 
L 633.6 833.142857 
L 633.6 831.085714 
L 590.4 831.085714 
L 590.4 829.028571 
L 633.6 829.028571 
L 633.6 826.971429 
L 590.4 826.971429 
L 590.4 824.914286 
L 633.6 824.914286 
L 633.6 822.857143 
L 590.4 822.857143 
L 590.4 820.8 
L 633.6 820.8 
L 633.6 818.742857 
L 590.4 818.742857 
L 590.4 816.685714 
L 633.6 816.685714 
L 633.6 814.628571 
L 590.4 814.628571 
L 590.4 812.571429 
L 633.6 812.571429 
L 633.6 810.514286 
L 590.4 810.514286 
L 590.4 808.457143 
L 633.6 808.457143 
L 633.6 806.4 
L 590.4 806.4 
" style="fill:none;stroke:#000000;stroke-width:0.566929;"/>
    <path clip-path="url(#p68fa7bc009)" d="M 590.4 849.6 
L 590.4 806.4 
L 592.8 806.4 
L 592.8 849.6 
L 595.2 849.6 
L 595.2 806.4 
L 597.6 806.4 
L 597.6 849.6 
L 600 849.6 
L 600 806.4 
L 602.4 806.4 
L 602.4 849.6 
L 604.8 849.6 
L 604.8 806.4 
L 607.2 806.4 
L 607.2 849.6 
L 609.6 849.6 
L 609.6 806.4 
L 612 806.4 
L 612 849.6 
L 614.4 849.6 
L 614.4 806.4 
L 616.8 806.4 
L 616.8 849.6 
L 619.2 849.6 
L 619.2 806.4 
L 621.6 806.4 
L 621.6 849.6 
L 624 849.6 
L 624 806.4 
L 626.4 806.4 
L 626.4 849.6 
L 628.8 849.6 
L 628.8 806.4 
L 631.2 806.4 
L 631.2 849.6 
L 633.6 849.6 
L 633.6 806.4 
" style="fill:none;stroke:#000000;stroke-width:0.566929;"/>
    <path clip-path="url(#p68fa7bc009)" d="M 590.4 806.4 
L 633.6 806.4 
L 633.6 804.126316 
L 590.4 804.126316 
L 590.4 801.852632 
L 633.6 801.852632 
L 633.6 799.578947 
L 590.4 799.578947 
L 590.4 797.305263 
L 633.6 797.305263 
L 633.6 795.031579 
L 590.4 795.031579 
L 590.4 792.757895 
L 633.6 792.757895 
L 633.6 790.484211 
L 590.4 790.484211 
L 590.4 788.210526 
L 633.6 788.210526 
L 633.6 785.936842 
L 590.4 785.936842 
L 590.4 783.663158 
L 633.6 783.663158 
L 633.6 781.389474 
L 590.4 781.389474 
L 590.4 779.115789 
L 633.6 779.115789 
L 633.6 776.842105 
L 590.4 776.842105 
L 590.4 774.568421 
L 633.6 774.568421 
L 633.6 772.294737 
L 590.4 772.294737 
L 590.4 770.021053 
L 633.6 770.021053 
L 633.6 767.747368 
L 590.4 767.747368 
L 590.4 765.473684 
L 633.6 765.473684 
L 633.6 763.2 
L 590.4 763.2 
" style="fill:none;stroke:#000000;stroke-width:0.566929;"/>
    <path clip-path="url(#p68fa7bc009)" d="M 590.4 763.2 
L 633.6 763.2 
L 633.6 759.6 
L 590.4 759.6 
L 590.4 756 
L 633.6 756 
L 633.6 752.4 
L 590.4 752.4 
L 590.4 748.8 
L 633.6 748.8 
L 633.6 745.2 
L 590.4 745.2 
L 590.4 741.6 
L 633.6 741.6 
L 633.6 738 
L 590.4 738 
L 590.4 734.4 
L 633.6 734.4 
L 633.6 730.8 
L 590.4 730.8 
L 590.4 727.2 
L 633.6 727.2 
L 633.6 723.6 
L 590.4 723.6 
L 590.4 720 
L 633.6 720 
" style="fill:none;stroke:#000000;stroke-width:0.566929;"/>
    <path clip-path="url(#p68fa7bc009)" d="M 590.4 763.2 
L 590.4 720 
L 595.2 720 
L 595.2 763.2 
L 600 763.2 
L 600 720 
L 604.8 720 
L 604.8 763.2 
L 609.6 763.2 
L 609.6 720 
L 614.4 720 
L 614.4 763.2 
L 619.2 763.2 
L 619.2 720 
L 624 720 
L 624 763.2 
L 628.8 763.2 
L 628.8 720 
L 633.6 720 
L 633.6 763.2 
" style="fill:none;stroke:#000000;stroke-width:0.566929;"/>
    <path clip-path="url(#p68fa7bc009)" d="M 590.4 720 
L 633.6 720 
L 633.6 712.8 
L 590.4 712.8 
L 590.4 705.6 
L 633.6 705.6 
L 633.6 698.4 
L 590.4 698.4 
L 590.4 691.2 
L 633.6 691.2 
L 633.6 684 
L 590.4 684 
L 590.4 676.8 
L 633.6 676.8 
" style="fill:none;stroke:#000000;stroke-width:0.566929;"/>
    <path clip-path="url(#p68fa7bc009)" d="M 590.4 720 
L 590.4 676.8 
L 595.8 676.8 
L 595.8 720 
L 601.2 720 
L 601.2 676.8 
L 606.6 676.8 
L 606.6 720 
L 612 720 
L 612 676.8 
L 617.4 676.8 
L 617.4 720 
L 622.8 720 
L 622.8 676.8 
L 628.2 676.8 
L 628.2 720 
L 633.6 720 
L 633.6 676.8 
" style="fill:none;stroke:#000000;stroke-width:0.566929;"/>
    <path clip-path="url(#p68fa7bc009)" d="M 590.4 676.8 
L 590.4 633.6 
L 595.2 633.6 
L 595.2 676.8 
L 600 676.8 
L 600 633.6 
L 604.8 633.6 
L 604.8 676.8 
L 609.6 676.8 
L 609.6 633.6 
L 614.4 633.6 
L 614.4 676.8 
L 619.2 676.8 
L 619.2 633.6 
L 624 633.6 
L 624 676.8 
L 628.8 676.8 
L 628.8 633.6 
L 633.6 633.6 
L 633.6 676.8 
" style="fill:none;stroke:#000000;stroke-width:0.566929;"/>
    <path clip-path="url(#p68fa7bc009)" d="M 633.6 936 
L 676.8 936 
L 676.8 932.072727 
L 633.6 932.072727 
L 633.6 928.145455 
L 676.8 928.145455 
L 676.8 924.218182 
L 633.6 924.218182 
L 633.6 920.290909 
L 676.8 920.290909 
L 676.8 916.363636 
L 633.6 916.363636 
L 633.6 912.436364 
L 676.8 912.436364 
L 676.8 908.509091 
L 633.6 908.509091 
L 633.6 904.581818 
L 676.8 904.581818 
L 676.8 900.654545 
L 633.6 900.654545 
L 633.6 896.727273 
L 676.8 896.727273 
L 676.8 892.8 
L 633.6 892.8 
" style="fill:none;stroke:#000000;stroke-width:0.566929;"/>
    <path clip-path="url(#p68fa7bc009)" d="M 633.6 936 
L 633.6 892.8 
L 635.873684 892.8 
L 635.873684 936 
L 638.147368 936 
L 638.147368 892.8 
L 640.421053 892.8 
L 640.421053 936 
L 642.694737 936 
L 642.694737 892.8 
L 644.968421 892.8 
L 644.968421 936 
L 647.242105 936 
L 647.242105 892.8 
L 649.515789 892.8 
L 649.515789 936 
L 651.789474 936 
L 651.789474 892.8 
L 654.063158 892.8 
L 654.063158 936 
L 656.336842 936 
L 656.336842 892.8 
L 658.610526 892.8 
L 658.610526 936 
L 660.884211 936 
L 660.884211 892.8 
L 663.157895 892.8 
L 663.157895 936 
L 665.431579 936 
L 665.431579 892.8 
L 667.705263 892.8 
L 667.705263 936 
L 669.978947 936 
L 669.978947 892.8 
L 672.252632 892.8 
L 672.252632 936 
L 674.526316 936 
L 674.526316 892.8 
L 676.8 892.8 
L 676.8 936 
" style="fill:none;stroke:#000000;stroke-width:0.566929;"/>
    <path clip-path="url(#p68fa7bc009)" d="M 633.6 892.8 
L 676.8 892.8 
L 676.8 888.48 
L 633.6 888.48 
L 633.6 884.16 
L 676.8 884.16 
L 676.8 879.84 
L 633.6 879.84 
L 633.6 875.52 
L 676.8 875.52 
L 676.8 871.2 
L 633.6 871.2 
L 633.6 866.88 
L 676.8 866.88 
L 676.8 862.56 
L 633.6 862.56 
L 633.6 858.24 
L 676.8 858.24 
L 676.8 853.92 
L 633.6 853.92 
L 633.6 849.6 
L 676.8 849.6 
" style="fill:none;stroke:#000000;stroke-width:0.566929;"/>
    <path clip-path="url(#p68fa7bc009)" d="M 633.6 892.8 
L 633.6 849.6 
L 639 849.6 
L 639 892.8 
L 644.4 892.8 
L 644.4 849.6 
L 649.8 849.6 
L 649.8 892.8 
L 655.2 892.8 
L 655.2 849.6 
L 660.6 849.6 
L 660.6 892.8 
L 666 892.8 
L 666 849.6 
L 671.4 849.6 
L 671.4 892.8 
L 676.8 892.8 
L 676.8 849.6 
" style="fill:none;stroke:#000000;stroke-width:0.566929;"/>
    <path clip-path="url(#p68fa7bc009)" d="M 633.6 849.6 
L 633.6 806.4 
L 637.92 806.4 
L 637.92 849.6 
L 642.24 849.6 
L 642.24 806.4 
L 646.56 806.4 
L 646.56 849.6 
L 650.88 849.6 
L 650.88 806.4 
L 655.2 806.4 
L 655.2 849.6 
L 659.52 849.6 
L 659.52 806.4 
L 663.84 806.4 
L 663.84 849.6 
L 668.16 849.6 
L 668.16 806.4 
L 672.48 806.4 
L 672.48 849.6 
L 676.8 849.6 
L 676.8 806.4 
" style="fill:none;stroke:#000000;stroke-width:0.566929;"/>
    <path clip-path="url(#p68fa7bc009)" d="M 633.6 806.4 
L 676.8 806.4 
L 676.8 802.8 
L 633.6 802.8 
L 633.6 799.2 
L 676.8 799.2 
L 676.8 795.6 
L 633.6 795.6 
L 633.6 792 
L 676.8 792 
L 676.8 788.4 
L 633.6 788.4 
L 633.6 784.8 
L 676.8 784.8 
L 676.8 781.2 
L 633.6 781.2 
L 633.6 777.6 
L 676.8 777.6 
L 676.8 774 
L 633.6 774 
L 633.6 770.4 
L 676.8 770.4 
L 676.8 766.8 
L 633.6 766.8 
L 633.6 763.2 
L 676.8 763.2 
" style="fill:none;stroke:#000000;stroke-width:0.566929;"/>
    <path clip-path="url(#p68fa7bc009)" d="M 633.6 806.4 
L 633.6 763.2 
L 636.3 763.2 
L 636.3 806.4 
L 639 806.4 
L 639 763.2 
L 641.7 763.2 
L 641.7 806.4 
L 644.4 806.4 
L 644.4 763.2 
L 647.1 763.2 
L 647.1 806.4 
L 649.8 806.4 
L 649.8 763.2 
L 652.5 763.2 
L 652.5 806.4 
L 655.2 806.4 
L 655.2 763.2 
L 657.9 763.2 
L 657.9 806.4 
L 660.6 806.4 
L 660.6 763.2 
L 663.3 763.2 
L 663.3 806.4 
L 666 806.4 
L 666 763.2 
L 668.7 763.2 
L 668.7 806.4 
L 671.4 806.4 
L 671.4 763.2 
L 674.1 763.2 
L 674.1 806.4 
L 676.8 806.4 
L 676.8 763.2 
" style="fill:none;stroke:#000000;stroke-width:0.566929;"/>
    <path clip-path="url(#p68fa7bc009)" d="M 633.6 763.2 
L 676.8 763.2 
L 676.8 760.5 
L 633.6 760.5 
L 633.6 757.8 
L 676.8 757.8 
L 676.8 755.1 
L 633.6 755.1 
L 633.6 752.4 
L 676.8 752.4 
L 676.8 749.7 
L 633.6 749.7 
L 633.6 747 
L 676.8 747 
L 676.8 744.3 
L 633.6 744.3 
L 633.6 741.6 
L 676.8 741.6 
L 676.8 738.9 
L 633.6 738.9 
L 633.6 736.2 
L 676.8 736.2 
L 676.8 733.5 
L 633.6 733.5 
L 633.6 730.8 
L 676.8 730.8 
L 676.8 728.1 
L 633.6 728.1 
L 633.6 725.4 
L 676.8 725.4 
L 676.8 722.7 
L 633.6 722.7 
L 633.6 720 
L 676.8 720 
" style="fill:none;stroke:#000000;stroke-width:0.566929;"/>
    <path clip-path="url(#p68fa7bc009)" d="M 633.6 720 
L 676.8 720 
L 676.8 717.6 
L 633.6 717.6 
L 633.6 715.2 
L 676.8 715.2 
L 676.8 712.8 
L 633.6 712.8 
L 633.6 710.4 
L 676.8 710.4 
L 676.8 708 
L 633.6 708 
L 633.6 705.6 
L 676.8 705.6 
L 676.8 703.2 
L 633.6 703.2 
L 633.6 700.8 
L 676.8 700.8 
L 676.8 698.4 
L 633.6 698.4 
L 633.6 696 
L 676.8 696 
L 676.8 693.6 
L 633.6 693.6 
L 633.6 691.2 
L 676.8 691.2 
L 676.8 688.8 
L 633.6 688.8 
L 633.6 686.4 
L 676.8 686.4 
L 676.8 684 
L 633.6 684 
L 633.6 681.6 
L 676.8 681.6 
L 676.8 679.2 
L 633.6 679.2 
L 633.6 676.8 
L 676.8 676.8 
" style="fill:none;stroke:#000000;stroke-width:0.566929;"/>
    <path clip-path="url(#p68fa7bc009)" d="M 676.8 936 
L 720 936 
L 720 933.3 
L 676.8 933.3 
L 676.8 930.6 
L 720 930.6 
L 720 927.9 
L 676.8 927.9 
L 676.8 925.2 
L 720 925.2 
L 720 922.5 
L 676.8 922.5 
L 676.8 919.8 
L 720 919.8 
L 720 917.1 
L 676.8 917.1 
L 676.8 914.4 
L 720 914.4 
L 720 911.7 
L 676.8 911.7 
L 676.8 909 
L 720 909 
L 720 906.3 
L 676.8 906.3 
L 676.8 903.6 
L 720 903.6 
L 720 900.9 
L 676.8 900.9 
L 676.8 898.2 
L 720 898.2 
L 720 895.5 
L 676.8 895.5 
L 676.8 892.8 
L 720 892.8 
" style="fill:none;stroke:#000000;stroke-width:0.566929;"/>
    <path clip-path="url(#p68fa7bc009)" d="M 676.8 936 
L 676.8 892.8 
L 684 892.8 
L 684 936 
L 691.2 936 
L 691.2 892.8 
L 698.4 892.8 
L 698.4 936 
L 705.6 936 
L 705.6 892.8 
L 712.8 892.8 
L 712.8 936 
L 720 936 
L 720 892.8 
" style="fill:none;stroke:#000000;stroke-width:0.566929;"/>
    <path clip-path="url(#p68fa7bc009)" d="M 676.8 892.8 
L 720 892.8 
L 720 888.872727 
L 676.8 888.872727 
L 676.8 884.945455 
L 720 884.945455 
L 720 881.018182 
L 676.8 881.018182 
L 676.8 877.090909 
L 720 877.090909 
L 720 873.163636 
L 676.8 873.163636 
L 676.8 869.236364 
L 720 869.236364 
L 720 865.309091 
L 676.8 865.309091 
L 676.8 861.381818 
L 720 861.381818 
L 720 857.454545 
L 676.8 857.454545 
L 676.8 853.527273 
L 720 853.527273 
L 720 849.6 
L 676.8 849.6 
" style="fill:none;stroke:#000000;stroke-width:0.566929;"/>
    <path clip-path="url(#p68fa7bc009)" d="M 676.8 892.8 
L 676.8 849.6 
L 678.96 849.6 
L 678.96 892.8 
L 681.12 892.8 
L 681.12 849.6 
L 683.28 849.6 
L 683.28 892.8 
L 685.44 892.8 
L 685.44 849.6 
L 687.6 849.6 
L 687.6 892.8 
L 689.76 892.8 
L 689.76 849.6 
L 691.92 849.6 
L 691.92 892.8 
L 694.08 892.8 
L 694.08 849.6 
L 696.24 849.6 
L 696.24 892.8 
L 698.4 892.8 
L 698.4 849.6 
L 700.56 849.6 
L 700.56 892.8 
L 702.72 892.8 
L 702.72 849.6 
L 704.88 849.6 
L 704.88 892.8 
L 707.04 892.8 
L 707.04 849.6 
L 709.2 849.6 
L 709.2 892.8 
L 711.36 892.8 
L 711.36 849.6 
L 713.52 849.6 
L 713.52 892.8 
L 715.68 892.8 
L 715.68 849.6 
L 717.84 849.6 
L 717.84 892.8 
L 720 892.8 
L 720 849.6 
" style="fill:none;stroke:#000000;stroke-width:0.566929;"/>
    <path clip-path="url(#p68fa7bc009)" d="M 676.8 849.6 
L 720 849.6 
L 720 847.2 
L 676.8 847.2 
L 676.8 844.8 
L 720 844.8 
L 720 842.4 
L 676.8 842.4 
L 676.8 840 
L 720 840 
L 720 837.6 
L 676.8 837.6 
L 676.8 835.2 
L 720 835.2 
L 720 832.8 
L 676.8 832.8 
L 676.8 830.4 
L 720 830.4 
L 720 828 
L 676.8 828 
L 676.8 825.6 
L 720 825.6 
L 720 823.2 
L 676.8 823.2 
L 676.8 820.8 
L 720 820.8 
L 720 818.4 
L 676.8 818.4 
L 676.8 816 
L 720 816 
L 720 813.6 
L 676.8 813.6 
L 676.8 811.2 
L 720 811.2 
L 720 808.8 
L 676.8 808.8 
L 676.8 806.4 
L 720 806.4 
" style="fill:none;stroke:#000000;stroke-width:0.566929;"/>
    <path clip-path="url(#p68fa7bc009)" d="M 676.8 806.4 
L 720 806.4 
L 720 800.228571 
L 676.8 800.228571 
L 676.8 794.057143 
L 720 794.057143 
L 720 787.885714 
L 676.8 787.885714 
L 676.8 781.714286 
L 720 781.714286 
L 720 775.542857 
L 676.8 775.542857 
L 676.8 769.371429 
L 720 769.371429 
L 720 763.2 
L 676.8 763.2 
" style="fill:none;stroke:#000000;stroke-width:0.566929;"/>
    <path clip-path="url(#p68fa7bc009)" d="M 676.8 763.2 
L 720 763.2 
L 720 758.88 
L 676.8 758.88 
L 676.8 754.56 
L 720 754.56 
L 720 750.24 
L 676.8 750.24 
L 676.8 745.92 
L 720 745.92 
L 720 741.6 
L 676.8 741.6 
L 676.8 737.28 
L 720 737.28 
L 720 732.96 
L 676.8 732.96 
L 676.8 728.64 
L 720 728.64 
L 720 724.32 
L 676.8 724.32 
L 676.8 720 
L 720 720 
" style="fill:none;stroke:#000000;stroke-width:0.566929;"/>
   </g>
  </g>
 </g>
 <defs>
  <clipPath id="p68fa7bc009">
   <rect height="1008" width="792" x="0" y="0"/>
  </clipPath>
 </defs>
</svg>
