<?xml version="1.0" encoding="utf-8" ?>
<svg baseProfile="full" height="8.5in" version="1.1" width="11in" xmlns="http://www.w3.org/2000/svg" xmlns:ev="http://www.w3.org/2001/xml-events" xmlns:xlink="http://www.w3.org/1999/xlink"><defs /><polygon fill="none" points="756.0,359.2293489969303 752.5393871709856,359.48482247675577 748.950272386991,359.7645635486608 745.3627281660546,360.06377327916107 741.7772937537226,360.38728537300847 738.1945680331578,360.7395301901508 734.6151675295063,361.1240975242547 731.0396678559921,361.54338511613014 727.4685382092118,361.9983939576785 723.9020916647289,362.48876019361427 720.3404846836294,363.01312238922293 716.7837363441353,363.5694867028752 713.2314848838088,364.15387489800645 709.6829007112243,364.7601342237762 706.1367543064517,365.38049353572285 702.5915414229491,366.0061656628363 699.0456485157695,366.6279722974206 695.497530339226,367.2369529254235 691.9458730482428,367.82494143501015 688.3897152966257,368.38506824709214 684.8285136967814,368.91217655215587 681.2621473670026,369.4031258385585 677.6908691324546,369.85696696874004 674.1152190721161,370.27497013380133 670.5359233247583,370.6605112508636 666.9537972983215,371.01880321382737 663.3696683118989,371.3564708147088 659.7843227311155,371.68096590921215 656.1984715230753,371.99982499062105 652.6127155062162,372.3197527755318 649.0274867646245,372.64553624728194 645.4429774522764,372.9791422869299 641.8593308137257,373.32189113084445 638.2767242195016,373.6753454999245 634.6952954353821,374.0405411519799 631.1150826542519,374.4174714397418 627.5359814991696,374.8048148554441 623.9577239090872,375.199875128084 620.3798849533647,375.5987089367237 616.8019185475462,375.9963977583345 613.2232190141933,376.38743439342204 609.6431962545696,376.7661652220796 606.0613520126833,377.12726330690754 602.4773395058176,377.46616498974424 598.8909961126608,377.77943973555216 595.3023432177399,378.0650450572397 591.711555937812,378.32242942022134 588.1189117540225,378.5524463080453 584.5247309873118,378.75705475412315 580.9293203516584,378.938775311656 577.3329267237135,379.0998742653392 573.7357132752311,379.2414913760874 570.1378526660031,379.36558423070073 566.5395434270403,379.4759047672933 562.9409608273739,379.57691602101704 559.3422411459549,379.67291943016033 555.743481967249,379.7674306658928 552.1447446511597,379.8627707402956 548.5460538120466,379.95984928830273 544.9473951319856,380.0581127322728 541.3487162224465,380.1556325048278 537.7499351338361,380.24930574679036 534.1509585858124,380.3351416761935 530.5517082181107,380.40860452801746 526.9521497287399,380.46498432580796 523.352317740842,380.49976447686345 519.7523294708899,380.50895448270705 516.1523828346745,380.48935304393694 512.5527390290362,380.4387124225989 508.95369463415057,380.35577001099426 505.3555526766063,380.2401220392903 501.75861098150796,380.0917628735372 498.16324784860444,379.9091048801221 494.5699804730526,379.6890376908488 490.97942194866584,379.4284815875743 487.39219656538614,379.12547325509155 483.80883054542755,378.77980293960854 480.2296406199529,378.3932806538594 476.6546469444305,377.9697004135566 473.0835327798562,377.5145700766455 469.51565935212136,377.03469592265975 465.95013542634297,376.5376656069832 462.38592656276955,376.0312910649441 458.8219839836488,375.5230457573121 455.25736817650125,375.0195438730713 451.69134737270224,374.5260911125439 448.1234541286784,374.0463643160761 444.5534942540153,373.582266811994 440.9815075532237,373.13403583429624 437.4076874742563,372.7006652732642 433.8322659145035,372.28071209723737 430.25537046363485,371.8735033871695 426.6770578929069,371.4789414197041 423.0974600425027,371.0962153696609 419.51678627643275,370.7236896913802 415.9353077974035,370.35898172018926 412.3533355164803,369.99915595860733 408.77119656888715,369.640993202117 405.18920967817553,369.28131290689635 401.6076591220975,368.9173134367631 398.02676507041025,368.5469112356483 394.44665077978095,368.16904662228507 390.8673096067044,367.7839274631681 387.28857789939633,367.3931853908135 383.7101216194114,366.9999289194921 380.1314463846888,366.6086699715011 376.55193697689936,366.22511762885813 372.97092794047205,365.8558287432605 369.38779866828907,365.5077129308857 365.8020790235109,365.18737774853514 362.21354307913134,364.90030671917793 358.6222637221297,364.64988192013925 355.0285313313974,364.4375437375105 351.4327244982895,364.26383933637453 347.83527785409194,364.1282751738837 344.2366413204538,364.0292039935872 340.6372343246312,363.963864278077 337.0374076459392,363.92853888526616 333.43742077957256,363.9188145864259 329.837437861697,363.9299047173621 326.23753978233987,363.9569937970908 322.6377466091046,363.9955827842349 319.0380432436255,364.0417962082444 315.43840223810446,364.09263547821973 311.8388001069278,364.1461564762333 308.2392263320753,364.2015517774246 304.639686667232,364.2591208769462 301.0402032057954,364.32010293040815 297.4408127573601,364.38634792805 293.8415622037465,364.4598016707171 290.24249562349746,364.5417757576869 286.64362751932305,364.6320440730375 283.04496684128736,364.7302343187835 279.4465923487289,364.8384055317051 275.8486666281921,364.9605959957338 272.2514502874792,365.1021396218996 268.65531945698655,365.2690019902755 265.06077653944686,365.46714641731063 261.4684417832936,365.7019463315645 257.87901500513516,365.9776552437148 254.2932049168126,366.2969764150833 250.71163070394098,366.66074304039824 247.13471244526127,367.06775135815565 243.5625721687898,367.51475677782116 239.99497037851933,367.99664625276216 236.4312968747213,368.50677482315194 232.87062517193445,369.0374508306867 229.31182545916326,369.58053885705027 225.75371985057288,370.1281559478333 222.19525426060386,370.67342894827124 218.63566292501778,371.21130395570367 215.07460324687884,371.7393702098166 211.51193612185935,372.25648040726537 207.94725132752325,372.75949364469477 204.37998535889295,373.2438628314233 200.809589741767,373.7045960917896 197.23566248672984,374.1370819016177 193.65802827705605,374.5377481739336 190.07676255999115,374.9045394821402 186.49216642827358,375.2372113512173 182.90470758208457,375.5374429733031 179.3149485733906,375.80879193589635 175.72348164751838,376.05651218207345 172.13088509410116,376.28727180673684 168.53770732972964,376.50879732135286 164.94447735227894,376.72947430055456 161.35173324615135,376.9579251440323 157.76005675574464,377.2025881536183 154.17010061042402,377.4713164079471 150.58259772686384,377.77102136360725 146.9983475400569,378.1074000168755 143.41818254488481,378.4847839160345 139.8429889740786,378.9066736306115 136.27382117306524,379.376823828112 132.71187934928767,379.89890662233523 129.15844340730735,380.47604872463114 125.6147841424027,381.1104610623544 122.08205845493134,381.8031725586355 118.56119884425762,382.55387063504605 115.05281420181166,383.36086332438686 111.55711974532427,384.22116575195713 108.07391357956821,385.13071223611223 104.60261113487073,386.0846825382901 101.14233617136071,387.07790818078314 97.69205710512514,388.105319668502 94.2507465705584,389.1623824881489 90.81753404672924,390.2454576315358 87.39182422676335,391.3520344383546 83.9733528304975,392.4807741394869 80.56215970606996,393.63132247304713 77.15846027334636,394.80385399572657 73.76239893970606,395.998327694957 70.37368628701813,397.2134929337262 66.9919656888928,398.44798302935874 63.61737716565085,399.7018380045467 60.25031044442889,400.97575389456443 56.89115731337256,402.2703929338779 53.540109202256694,403.5858687249842 50.197004058165014,404.9214015757774 46.861233061576414,406.2751489149505 43.53170749261483,407.64418488439435 40.2068888180752,409.0246126374595 36.884873307564305,410.41177266713345 36.0,410.78176173445644 36.0,253.55534200466468 39.52597328064508,253.9483475881778 43.09876519715854,254.39011440596306 46.666556273616514,254.87060044607958 50.229601256470914,255.38510064059477 53.78829650707285,255.92887275586293 57.34310065616162,256.49752683491386 60.89445905574028,257.0873179146549 64.44273958272953,257.6953518789931 67.98819433972874,258.3196519399187 71.53095896113162,258.95904136533653 75.07109845746633,259.6128091731177 78.60875781812449,260.2798670776115 82.1444766949738,260.9571351367221 85.67903357074657,261.64044157744075 89.21317619571325,262.3258873494707 92.74743260423955,263.01074619535854 96.2820028342784,263.6939835544975 99.81673081423556,264.37640432477633 103.3511252917863,265.06055027196794 106.8844184652829,265.75036136938695 110.41564287398722,266.45068570522767 113.9437196084061,267.1666986632475 117.46755734828074,267.9032905333052 120.98616497975874,268.6644740431796 124.49876915786737,269.4528977160445 128.004929292784,270.2695011132463 131.5046297843756,271.11335919915507 134.99832157514308,271.9817586873653 138.48689225292583,272.8705075979775 141.9715457949875,273.77449304686326 145.45359332188428,274.6884651582716 148.93417669573012,275.60799730980733 152.41385082710826,276.5309642319761 155.89255416318167,277.457583409196 159.36995898135876,278.389063806477 162.84573200479,279.3266148128695 166.3197080023719,280.27080270107 169.79198379786726,281.22122408130997 173.26295319094484,282.1764054632048 176.73329145471695,283.1338773087435 180.2039046956773,284.09035194597686 183.67585696372237,285.0419545144984 187.1502909565399,285.98445567075976 190.62835517920558,286.91347088215986 194.11114212657577,287.82462129741947 197.59964316711793,288.7136435075673 201.0947186415752,289.5764571768189 204.597078185389,290.4092102169554 208.10725934737945,291.2083523882911 211.62560329344797,291.9707537767756 215.1522181079188,292.6939328350695 218.68693239812305,293.3764245102026 222.2292973139593,294.01802469961376 218.78946821554436,293.3949960016898 219.4586495274185,288.883742037097 223.75073956820236,271.7487580941969 229.70168414796834,255.11698217428392 237.25417241729605,239.1485873713205 246.33546978554182,223.99735805647163 256.85811839470733,209.80920885054388 268.7207793864214,196.72077938642144 281.80920885054377,184.85811839470736 295.99735805647146,174.33546978554193 311.1485873713202,165.25417241729616 327.11698217428363,157.7016841479685 343.74875809419643,151.75073956820248 360.8837420370965,147.45864952741857 378.35691474067863,144.8667491990046 395.9999999999995,144.0 413.64308525932034,144.86674919900454 431.11625796290247,147.4586495274184 448.25124190580254,151.75073956820222 464.88301782571546,157.70168414796814 480.8514126286789,165.25417241729573 496.00264194352764,174.33546978554133 510.1907911494555,184.8581183947067 523.2792206135779,196.72077938642073 535.141881605292,209.80920885054297 545.6645302144575,223.9973580564707 554.7458275827033,239.14858737131937 562.2983158520311,255.11698217428273 568.2492604317972,271.7487580941955 572.5413504725813,288.88374203709554 575.1332508009954,306.35691474067767 575.4903661066,313.62616378230007 572.7342921804341,313.1682209620551 576.2856029962354,313.7582984904968 579.8429431488003,314.3108661686596 583.406241523006,314.82360849808305 586.9752848134414,315.2947029588844 590.5497123200573,315.7230346060303 594.1290072326645,316.10858347269203 597.7125343498019,316.4525796946792 601.2996001021551,316.7574719515426 604.8895157067187,317.0267412444638 608.481648808045,317.26460629518994 612.0754568656414,317.47565994987076 615.6705022523669,317.66446849677527 619.2664529422636,317.8351689239295 622.8630742294322,317.9911026171667 626.4602168893696,318.13450653642315 630.0578037166919,318.2662981138367 633.6558137589126,318.3859799256521 637.2542609953739,318.4917035578441 640.8531653651498,318.5805142396771 644.4525172179342,318.6488241207876 648.0522444696588,318.69313792440875 651.6521998033005,318.7110710163015 655.2521872423564,318.7015610930773 658.8519712334349,318.66212484611896 662.4512328179733,318.5892136256703 666.0495538651636,318.4792789116462 669.6464393347189,318.32956278391924 673.2413721734297,318.13862330356426 676.8338895587146,317.9066344322248 680.4236637907785,317.6354869395007 684.010569868842,317.3287219037644 687.5947251261223,316.9913332677519 691.1764921015091,316.6294695723791 694.7564449986206,316.2500789366717 698.3353054784359,315.8605180736261 701.9138610838181,315.4681664721402 705.4928801437726,315.0800652373032 709.0730379744871,314.7026133765666 712.654864889651,314.3413434638877 716.2387230196523,314.00081313627516 719.8248115373892,313.6846341632949 723.4131959501935,313.3956751593806 727.0038224020388,313.1360568177541 730.5964575286141,312.90589850854525 734.1907655493046,312.7035378097936 737.7863960442012,312.52622073737984 741.3830349582929,312.37069414273935 744.9804275355797,312.2337027383284 748.5783831761032,312.1123964778772 752.1767703452822,312.00464778559797 755.7755069998957,311.9092827461898 756.0,311.90410199915823 756.0,359.2293489969303" stroke="rgb(255, 0, 0)" stroke-width="0.001pt" /></svg>