<?xml version="1.0" encoding="utf-8" ?>
<svg baseProfile="full" height="8.5in" version="1.1" width="11in" xmlns="http://www.w3.org/2000/svg" xmlns:ev="http://www.w3.org/2001/xml-events" xmlns:xlink="http://www.w3.org/1999/xlink"><defs /><polygon fill="none" points="756.0,390.64906506925166 754.4023921204479,390.85340365838766 750.835258297914,391.33874507649955 747.2729223167676,391.8581315967617 743.7163640937287,392.4157099375662 740.1664130639599,393.01391365390697 736.6236329986893,393.6532175011671 733.0882329835968,394.332148081774 729.5600335879861,395.0475563741585 726.0385210801464,395.7951857322821 722.5230121232953,396.5705545311768 719.0129270195184,397.37011851501046 715.5077274051228,398.19083506976034 712.0064147219514,399.02797872210675 708.5076351247242,399.87564689422754 705.0098657094937,400.72747382376144 701.5115920670663,401.57722762498724 698.0114585812132,402.41928794421005 694.5083790113035,403.2490068887216 691.00160247782,404.06295918720656 687.4907368729275,404.85908901605546 683.9757349994488,405.6367533584557 680.4568559573025,406.3966811752538 676.9346107284741,407.14085087901503 673.4097021651492,407.8723012328992 669.8829641378364,408.5948791779727 666.3553033138925,409.3129384451727 662.8276418344619,410.0309944921088 659.3008572694569,410.75334526011676 655.775715767917,411.48367216919263 652.2527944176788,412.2246344894467 648.7323927900268,412.97747735487417 645.2144445900307,413.74170275496476 641.6984951494147,414.51507170380626 638.1837066509265,415.29369986338884 634.6689018052916,416.07225422700236 631.1526635393489,416.84430892527206 627.633477489888,417.60281373691146 624.1098930930524,418.3406165549975 620.5806768759601,419.0509917326412 617.0449317419316,419.72812270017556 613.5021660205338,420.36750603064974 609.9523057993911,420.966248387886 606.3956539590578,421.52322925528955 602.8328134173944,422.03914327397865 599.2645896454169,422.5164053750242 595.69189167879,422.9589313508267 592.1156450671151,423.3717995773643 588.5367230923458,423.7607950767132 584.9558954053479,424.13183830334475 581.3737863780386,424.4903001792384 577.7908313236405,424.84020456355506 574.2072349853087,425.1834789201477 570.6232020050837,425.52216401970145 567.0391215724006,425.8603465917807 563.4554754894208,426.203101244475 559.8727713524416,426.55556552191604 556.291495681959,426.9222596342347 552.7120736749458,427.3066267708504 549.1348304033645,427.71076854786224 545.5599553472923,428.1353487328369 541.9874766108012,428.57964106601264 538.4172504716214,429.0416857771794 534.8489710693568,429.5185317768211 531.2821987536989,430.0065228097891 527.7164047417995,430.5016117560419 524.1510243339086,430.99967053472915 520.585511536786,431.49678067700745 517.0193879972167,431.98949042983253 513.4522806720666,432.47502655707854 509.88394566015876,432.9514562400247 506.31427732118544,433.4177908299185 502.7433026611108,433.874014434201 499.1710792558488,434.32035504729623 495.5976173943973,434.7566695264876 492.0229515733099,435.1830077344279 488.4471845282359,435.6000089806641 484.870500884631,436.00907390652435 481.29316213780254,436.4123696918237 477.71549177071734,436.8127129751201 474.13785585423074,437.21336400664825 470.56064229078817,437.6177686573671 466.9842390298204,438.02927772766657 463.4090101435879,438.45086806324036 459.83527006847777,438.8848978727597 456.2632571028469,439.3329194942973 452.69310985653306,439.79557340343206 449.124851737004,440.2725786365429 445.5583900664118,440.76283484731084 441.99353413956766,441.26463383181 438.43003488674935,441.77597821201135 434.86764514160836,442.2949958453476 431.3061968242683,442.82043459812047 427.745621644655,443.35175784278584 424.18583822627676,443.8883601296233 420.62671985659813,444.4293559065168 417.0680906009154,444.9735597475531 413.5097309410098,445.51952360236095 409.95139100813145,446.06561601403047 406.3928082081926,446.61012354931336 402.83372639815605,447.1513597911405 399.2739144420252,447.68777272628245 395.7131814697463,448.21803747159936 392.15138754341103,448.7411283110538 388.5884491670661,449.25636624285636 385.02433957181546,449.76343901183776 381.45908379345286,450.26238914446856 377.8927494578262,450.7535707875811 374.32543450686546,451.2375790939681 370.7572516734257,451.7151471698963 367.188310674041,452.187015947112 363.6186982199743,452.653778121856 360.04845607683006,453.11569915332836 356.47759692484146,453.57282595921396 352.9062307306578,454.02597439741294 349.33455076536825,454.47664304015325 345.76278603629254,454.9266393958394 342.19116483100026,455.3777734844499 338.61988694169827,455.8316173313649 335.04910260249744,456.28932816029305 331.47889700981915,456.75153160684994 327.9092809668781,457.2182663344823 324.34018747533753,457.6889803120125 320.77147547411573,458.16257787570515 317.2029404718016,458.6375072780997 313.6343313379978,459.1118793368603 310.0653717473187,459.5836074790135 306.49578394036973,460.05055810646894 302.9253119659978,460.5106992589701 299.35374247845726,460.9622426075747 295.78092071765906,461.4037679925379 292.20676068151147,461.8343258121227 288.6312495758602,462.2535159042817 285.05444618477054,462.6615324498895 281.4764669675506,463.05910599169306 277.89746445311164,463.4473597767868 274.3176086188802,463.8276651884214 270.73707230283065,464.20150966069644 267.1560199379496,464.57037814671816 263.5745993394598,464.9356540653234 259.99293554720134,465.2985376268479 256.4111264365442,465.659984019572 252.82923984044265,466.0206617325905 249.24731208207396,466.3809304292987 245.6653482328861,466.7408401167361 242.08332375862176,467.10014592767055 238.50118831546314,467.4583437317773 234.91887135083135,467.8147215718731 231.336289344937,468.1684250791245 227.75335517553805,468.5185432559641 224.16998735335844,468.8641948883451 220.58612206049474,469.2046498231119 217.00172417912918,469.53945100002437 213.41679804279497,469.86854763784936 209.8313768093205,470.192205757708 206.24551218892893,470.510913969438 202.6592694200912,470.8253385278921 199.07272396087774,471.1362913683603 195.48595894829214,471.44470139493507 191.899062955178,471.7515843279599 188.31212848342562,472.0580171841526 184.7252504668153,472.36511015697636 181.13852574797374,472.6739884359971 177.5520526544429,472.98577482020823 173.96593043210248,473.30157128383007 170.3802593216355,473.62244927865464 166.79514024091603,473.9494373167556 163.21067507662138,474.28351737596023 159.6269663698068,474.62561663743486 156.04411750076642,474.9766066395944 152.46223163070746,475.3372915628615 148.88141031460668,475.7083962679763 145.3017511142113,476.09054808208265 141.7233592285073,476.48439007111836 138.14654666046837,476.8923261606211 134.57189589019012,477.3187905443027 131.00016454450974,477.76905179544957 127.4322032392773,478.2482721251142 123.86888094975916,478.7608482277792 120.31100804369734,479.3099751569234 116.75925872269661,479.8974075026202 113.21409699839859,480.5233694412172 109.67571544651663,481.18658584127184 106.14399000521014,481.88437908230287 102.61846492820445,482.61285209580706 99.09836035638718,483.3670826994497 95.5826124197977,484.14136717324914 92.06993919884324,484.9294831817083 88.55892997709542,485.72497940721894 85.04815393444647,486.52150409507385 81.53627312740625,487.31314365771743 78.02215409186361,488.0947876969302 74.50496239111298,488.8624872085693 70.98422644266635,489.61376504087605 67.45955721150013,490.3463678055925 63.93032318743096,491.05665451062964 60.39593190463026,491.7408169621442 56.8560528087288,492.39599326391334 53.310718600268736,493.02097754397397 49.7603303592232,493.6165808833245 46.205597861105005,494.1856826904051 42.64744845871465,494.73301515816956 39.08693566032393,495.26475627233697 36.0,495.718206458949 36.0,253.55534200466468 39.52597328064508,253.9483475881778 43.09876519715854,254.39011440596306 46.666556273616514,254.87060044607958 50.229601256470914,255.38510064059477 53.78829650707285,255.92887275586293 57.34310065616162,256.49752683491386 60.89445905574028,257.0873179146549 64.44273958272953,257.6953518789931 67.98819433972874,258.3196519399187 71.53095896113162,258.95904136533653 75.07109845746633,259.6128091731177 78.60875781812449,260.2798670776115 82.1444766949738,260.9571351367221 85.67903357074657,261.64044157744075 89.21317619571325,262.3258873494707 92.74743260423955,263.01074619535854 96.2820028342784,263.6939835544975 99.81673081423556,264.37640432477633 103.3511252917863,265.06055027196794 106.8844184652829,265.75036136938695 110.41564287398722,266.45068570522767 113.9437196084061,267.1666986632475 117.46755734828074,267.9032905333052 120.98616497975874,268.6644740431796 124.49876915786737,269.4528977160445 128.004929292784,270.2695011132463 131.5046297843756,271.11335919915507 134.99832157514308,271.9817586873653 138.48689225292583,272.8705075979775 141.9715457949875,273.77449304686326 145.45359332188428,274.6884651582716 148.93417669573012,275.60799730980733 152.41385082710826,276.5309642319761 155.89255416318167,277.457583409196 159.36995898135876,278.389063806477 162.84573200479,279.3266148128695 166.3197080023719,280.27080270107 169.79198379786726,281.22122408130997 173.26295319094484,282.1764054632048 176.73329145471695,283.1338773087435 180.2039046956773,284.09035194597686 183.67585696372237,285.0419545144984 187.1502909565399,285.98445567075976 190.62835517920558,286.91347088215986 194.11114212657577,287.82462129741947 197.59964316711793,288.7136435075673 201.0947186415752,289.5764571768189 204.597078185389,290.4092102169554 208.10725934737945,291.2083523882911 211.62560329344797,291.9707537767756 215.1522181079188,292.6939328350695 218.68693239812305,293.3764245102026 222.2292973139593,294.01802469961376 218.78946821554436,293.3949960016898 219.4586495274185,288.883742037097 223.75073956820236,271.7487580941969 229.70168414796834,255.11698217428392 237.25417241729605,239.1485873713205 246.33546978554182,223.99735805647163 256.85811839470733,209.80920885054388 268.7207793864214,196.72077938642144 281.80920885054377,184.85811839470736 295.99735805647146,174.33546978554193 311.1485873713202,165.25417241729616 327.11698217428363,157.7016841479685 343.74875809419643,151.75073956820248 360.8837420370965,147.45864952741857 378.35691474067863,144.8667491990046 395.9999999999995,144.0 413.64308525932034,144.86674919900454 431.11625796290247,147.4586495274184 448.25124190580254,151.75073956820222 464.88301782571546,157.70168414796814 480.8514126286789,165.25417241729573 496.00264194352764,174.33546978554133 510.1907911494555,184.8581183947067 523.2792206135779,196.72077938642073 535.141881605292,209.80920885054297 545.6645302144575,223.9973580564707 554.7458275827033,239.14858737131937 562.2983158520311,255.11698217428273 568.2492604317972,271.7487580941955 572.5413504725813,288.88374203709554 575.1332508009954,306.35691474067767 575.4903661066,313.62616378230007 572.7342921804341,313.1682209620551 576.2856029962354,313.7582984904968 579.8429431488003,314.3108661686596 583.406241523006,314.82360849808305 586.9752848134414,315.2947029588844 590.5497123200573,315.7230346060303 594.1290072326645,316.10858347269203 597.7125343498019,316.4525796946792 601.2996001021551,316.7574719515426 604.8895157067187,317.0267412444638 608.481648808045,317.26460629518994 612.0754568656414,317.47565994987076 615.6705022523669,317.66446849677527 619.2664529422636,317.8351689239295 622.8630742294322,317.9911026171667 626.4602168893696,318.13450653642315 630.0578037166919,318.2662981138367 633.6558137589126,318.3859799256521 637.2542609953739,318.4917035578441 640.8531653651498,318.5805142396771 644.4525172179342,318.6488241207876 648.0522444696588,318.69313792440875 651.6521998033005,318.7110710163015 655.2521872423564,318.7015610930773 658.8519712334349,318.66212484611896 662.4512328179733,318.5892136256703 666.0495538651636,318.4792789116462 669.6464393347189,318.32956278391924 673.2413721734297,318.13862330356426 676.8338895587146,317.9066344322248 680.4236637907785,317.6354869395007 684.010569868842,317.3287219037644 687.5947251261223,316.9913332677519 691.1764921015091,316.6294695723791 694.7564449986206,316.2500789366717 698.3353054784359,315.8605180736261 701.9138610838181,315.4681664721402 705.4928801437726,315.0800652373032 709.0730379744871,314.7026133765666 712.654864889651,314.3413434638877 716.2387230196523,314.00081313627516 719.8248115373892,313.6846341632949 723.4131959501935,313.3956751593806 727.0038224020388,313.1360568177541 730.5964575286141,312.90589850854525 734.1907655493046,312.7035378097936 737.7863960442012,312.52622073737984 741.3830349582929,312.37069414273935 744.9804275355797,312.2337027383284 748.5783831761032,312.1123964778772 752.1767703452822,312.00464778559797 755.7755069998957,311.9092827461898 756.0,311.90410199915823 756.0,390.64906506925166" stroke="rgb(255, 0, 0)" stroke-width="0.001pt" /></svg>