<?xml version="1.0" encoding="utf-8" ?>
<svg baseProfile="full" height="8.5in" version="1.1" width="11in" xmlns="http://www.w3.org/2000/svg" xmlns:ev="http://www.w3.org/2001/xml-events" xmlns:xlink="http://www.w3.org/1999/xlink"><defs /><polygon fill="none" points="756.0,455.84033068956165 754.1925046625113,456.2064773451553 750.6646061403671,456.9233678650071 747.1371317114264,457.6423422408849 743.6100966493946,458.36346890881384 740.083515862554,459.0868138845253 736.5573777206822,459.8123135774519 733.0316210289346,460.53966476539125 729.5061167898659,461.26823861910066 725.9806574934801,461.9970299126312 722.4549563812409,462.7246504642625 718.9286627016023,463.4493937877505 715.4016184407001,464.1704754624843 711.8741065892657,464.88926620949684 708.3466281887797,465.60822109967023 704.8197024431049,466.32988222824525 701.2937262400912,467.05616854629164 697.7688801806639,467.78792004601 694.2450757888362,468.52467143429226 690.7219365836069,469.2645972012282 687.1988180935361,470.00462159604365 683.674863141066,470.74065250093935 680.1490860378717,471.467904739569 676.6204731044252,472.18127054048335 673.0880854055058,472.87570350666715 669.5511481824896,473.54657985924064 666.0091151656763,474.1900098148736 662.4616981525367,474.80306163559277 658.908859163299,475.38386721111056 655.3507691234896,475.9315854494495 651.7877388342383,476.4461873906408 648.22013269589,476.92804467409684 644.648300743458,477.3775071348047 641.0726565490215,477.79556047445567 637.4937174692368,478.18439856825574 633.9120859042164,478.5476000721759 630.3284161466286,478.8901071064832 626.7433842788508,479.218049947567 623.157670158747,479.5384469651689 619.5719544581813,479.85882629458337 615.986924749372,480.18679273639583 612.4032823370065,480.5295857647608 608.8217382354085,480.8936487377594 605.2429913210498,481.28425150652583 601.6676853316101,481.70518746588 598.0963503985755,482.15858221230593 594.5293423682332,482.64484727528406 590.9667977551977,483.1628008254521 587.4086286962531,483.7100054928022 583.8545766215095,484.28334121470573 580.3043434559701,484.87986822189254 576.757810970848,485.4980165309368 573.2152950222988,486.1387822871027 569.6773336595814,486.80423656496 566.1444932006136,487.4963624866536 562.6173421061014,488.2169214061606 559.0964211831408,488.96733186334944 555.5822097788675,489.7485605149464 552.0750910973603,490.5610373169676 548.5753201431087,491.4046031222118 545.0829973571015,492.2784918784812 541.5980555699015,493.18136547972773 538.1202633107318,494.1113982759555 534.649249072067,495.06641668153 531.1845464567256,496.0440852282503 527.725658438986,497.0421301574681 524.2721311443203,498.0585696416473 520.8236261603932,499.0919201997016 517.3799744483922,500.141330932652 513.9411930496021,501.2065926335199 510.5074415540084,502.287957819989 507.0788908658533,503.38570104076115 503.65547263059085,504.4993471185043 500.236626126345,505.6269501428025 496.82148948347015,506.76573972410955 493.40910764074334,507.91275766617866 489.9986030124119,509.0653452681115 486.589327504068,510.2215634604122 483.18098011565473,511.38051474493466 479.7736791886966,512.5425390102362 476.3679860138683,513.7092669129316 472.9648823585494,514.8835264716133 469.56570854178335,516.069113821163 466.17206817788036,517.2704485290977 462.78570787429175,518.4921538512926 459.4083762808011,519.7386013261628 456.0416707329974,521.0134714193044 452.68688276126534,522.3193801698388 449.34486408220255,523.6576294548361 446.0159371038175,525.0281203058016 442.6998869572567,526.4294808680746 439.39606874612576,527.8594407373714 436.1036633386819,529.3154855969257 432.82210500640616,530.7958149224042 429.551499550142,532.3001885294099 426.2915411512909,533.8274970240369 423.04093112876535,535.3746022180869 419.7975900050864,536.9368884772126 416.5588767226664,538.508746064361 413.32179860546955,540.0839683544413 410.0831964429271,541.6560548764797 406.83994118569063,543.2185193837272 403.589168658905,544.7652830951893 400.3284857042948,546.2910441084264 397.0561051497563,547.7915525243569 393.7708995699144,549.2637700008785 390.47238163206674,550.7059140344955 387.1606127060591,552.1173624326775 383.836071005767,553.4984571010543 380.49949281294454,554.850213722337 377.1517088435394,556.1739744613657 373.79348430776986,557.4710203230666 370.4253774019748,558.7421835191732 367.0476207472123,559.9874786573663 363.6600275659419,561.2057612346899 360.2619307640928,562.3944319734832 356.8521841515891,563.5492601159006 353.4293404917869,564.66467092836 349.9918129657068,565.7339718717064 346.53807393045486,566.7496916541155 343.0668877801336,567.7040850267969 339.5775256384835,568.5897214332407 336.06991254730895,569.4000611167198 332.54468014725774,570.1299491393845 329.00311578713405,570.7759536928525 325.44702844846216,571.3365273630669 321.8785634022013,571.8119821070901 318.3000049867135,572.2043080773514 314.7135999253246,572.5168760469905 311.1214229011079,572.7540768621018 307.5252923918653,572.9209461537491 303.926733774669,573.0228082104815 300.3269805579276,573.0649600616847 296.727002480499,573.0523965417484 293.1275507895436,572.9895672135743 289.5292143497989,572.8801374808436 285.932486502821,572.726681315202 282.33785864907827,572.5300837742793 278.74588430051995,572.2898333230858 275.15718049072575,572.0048684733782 271.5723939138891,571.6742551062384 267.99214216885,571.2976950948924 264.4169401802827,570.8758767205362 260.8471237367647,570.4106772368866 257.2827824304666,569.90523579397 253.72371484843967,569.3639059993302 250.1694155215078,568.7921050771802 246.6190976101755,568.1960826543864 243.07175111247193,567.5826229366949 239.5262283320403,566.9587093101084 235.98134544337347,566.3311702231688 232.43598546927308,565.7063321208998 228.88918788088037,565.0897067346468 225.34021264899863,564.485740838681 221.78857060158106,563.8976602600053 218.2340175376607,563.3274387979625 214.67651187619538,562.7759376931201 211.1161093849557,562.2434584912969 207.5529142005591,561.7299995563343 203.98712061743146,561.2349075219347 200.41902973555997,560.7566529258193 196.84904289413174,560.2927629043386 193.27764218018962,559.8398866072621 189.70536467344346,559.3939792011842 186.13277614525745,558.9505705766921 182.56044481895864,558.5050945446274 178.98891402226946,558.05324526854 175.4186711439108,557.5913299196616 171.85011153995833,557.1165854062247 168.28349847437525,556.6274318102938 164.7189250657334,556.1236298507866 161.15628677759275,555.6063210185845 157.59527650672038,555.0779216897229 154.03541349033932,554.5418477166534 150.47611468250707,554.0020403467854 146.91681153463182,553.4622615944012 143.35710772351416,552.9251314638794 139.79672157993096,552.3925429655236 136.23510720435192,551.8682309976375 132.67156991831385,551.3571517366452 129.10543559652015,550.8645200294592 125.53617688131335,550.3950605275634 121.96348854853616,549.9524567805868 118.38731091914987,549.5389914699778 114.80780956962752,549.1553639308624 111.22532533064714,548.800671560692 107.64031093098004,548.4725378163444 104.05326962022828,548.1673581398253 100.4647062234418,547.8806304863905 96.87509424208025,547.6073434152258 93.28485846289742,547.3423772855499 89.69436772834358,547.0808886909936 86.10393233977905,546.8186412495504 82.51380138683699,546.552258553552 78.92415930021502,546.2793672016327 75.33512377205176,545.9986111196295 71.74675073666755,545.7095108620584 68.15910540688274,545.4115159163408 64.57239947050485,545.1024196110384 60.986908936770035,544.7795301059472 57.40286862246908,544.4409226260159 53.82038549599765,544.0862190193983 50.23937246200871,543.7169689003714 46.659512947095806,543.3366981369836 43.08026664136652,542.9506982886375 39.50092104698009,542.5656202238941 36.0,542.1972743943903 36.0,253.55534200466468 39.52597328064508,253.9483475881778 43.09876519715854,254.39011440596306 46.666556273616514,254.87060044607958 50.229601256470914,255.38510064059477 53.78829650707285,255.92887275586293 57.34310065616162,256.49752683491386 60.89445905574028,257.0873179146549 64.44273958272953,257.6953518789931 67.98819433972874,258.3196519399187 71.53095896113162,258.95904136533653 75.07109845746633,259.6128091731177 78.60875781812449,260.2798670776115 82.1444766949738,260.9571351367221 85.67903357074657,261.64044157744075 89.21317619571325,262.3258873494707 92.74743260423955,263.01074619535854 96.2820028342784,263.6939835544975 99.81673081423556,264.37640432477633 103.3511252917863,265.06055027196794 106.8844184652829,265.75036136938695 110.41564287398722,266.45068570522767 113.9437196084061,267.1666986632475 117.46755734828074,267.9032905333052 120.98616497975874,268.6644740431796 124.49876915786737,269.4528977160445 128.004929292784,270.2695011132463 131.5046297843756,271.11335919915507 134.99832157514308,271.9817586873653 138.48689225292583,272.8705075979775 141.9715457949875,273.77449304686326 145.45359332188428,274.6884651582716 148.93417669573012,275.60799730980733 152.41385082710826,276.5309642319761 155.89255416318167,277.457583409196 159.36995898135876,278.389063806477 162.84573200479,279.3266148128695 166.3197080023719,280.27080270107 169.79198379786726,281.22122408130997 173.26295319094484,282.1764054632048 176.73329145471695,283.1338773087435 180.2039046956773,284.09035194597686 183.67585696372237,285.0419545144984 187.1502909565399,285.98445567075976 190.62835517920558,286.91347088215986 194.11114212657577,287.82462129741947 197.59964316711793,288.7136435075673 201.0947186415752,289.5764571768189 204.597078185389,290.4092102169554 208.10725934737945,291.2083523882911 211.62560329344797,291.9707537767756 215.1522181079188,292.6939328350695 218.68693239812305,293.3764245102026 222.2292973139593,294.01802469961376 218.78946821554436,293.3949960016898 219.4586495274185,288.883742037097 223.75073956820236,271.7487580941969 229.70168414796834,255.11698217428392 237.25417241729605,239.1485873713205 246.33546978554182,223.99735805647163 256.85811839470733,209.80920885054388 268.7207793864214,196.72077938642144 281.80920885054377,184.85811839470736 295.99735805647146,174.33546978554193 311.1485873713202,165.25417241729616 327.11698217428363,157.7016841479685 343.74875809419643,151.75073956820248 360.8837420370965,147.45864952741857 378.35691474067863,144.8667491990046 395.9999999999995,144.0 413.64308525932034,144.86674919900454 431.11625796290247,147.4586495274184 448.25124190580254,151.75073956820222 464.88301782571546,157.70168414796814 480.8514126286789,165.25417241729573 496.00264194352764,174.33546978554133 510.1907911494555,184.8581183947067 523.2792206135779,196.72077938642073 535.141881605292,209.80920885054297 545.6645302144575,223.9973580564707 554.7458275827033,239.14858737131937 562.2983158520311,255.11698217428273 568.2492604317972,271.7487580941955 572.5413504725813,288.88374203709554 575.1332508009954,306.35691474067767 575.4903661066,313.62616378230007 572.7342921804341,313.1682209620551 576.2856029962354,313.7582984904968 579.8429431488003,314.3108661686596 583.406241523006,314.82360849808305 586.9752848134414,315.2947029588844 590.5497123200573,315.7230346060303 594.1290072326645,316.10858347269203 597.7125343498019,316.4525796946792 601.2996001021551,316.7574719515426 604.8895157067187,317.0267412444638 608.481648808045,317.26460629518994 612.0754568656414,317.47565994987076 615.6705022523669,317.66446849677527 619.2664529422636,317.8351689239295 622.8630742294322,317.9911026171667 626.4602168893696,318.13450653642315 630.0578037166919,318.2662981138367 633.6558137589126,318.3859799256521 637.2542609953739,318.4917035578441 640.8531653651498,318.5805142396771 644.4525172179342,318.6488241207876 648.0522444696588,318.69313792440875 651.6521998033005,318.7110710163015 655.2521872423564,318.7015610930773 658.8519712334349,318.66212484611896 662.4512328179733,318.5892136256703 666.0495538651636,318.4792789116462 669.6464393347189,318.32956278391924 673.2413721734297,318.13862330356426 676.8338895587146,317.9066344322248 680.4236637907785,317.6354869395007 684.010569868842,317.3287219037644 687.5947251261223,316.9913332677519 691.1764921015091,316.6294695723791 694.7564449986206,316.2500789366717 698.3353054784359,315.8605180736261 701.9138610838181,315.4681664721402 705.4928801437726,315.0800652373032 709.0730379744871,314.7026133765666 712.654864889651,314.3413434638877 716.2387230196523,314.00081313627516 719.8248115373892,313.6846341632949 723.4131959501935,313.3956751593806 727.0038224020388,313.1360568177541 730.5964575286141,312.90589850854525 734.1907655493046,312.7035378097936 737.7863960442012,312.52622073737984 741.3830349582929,312.37069414273935 744.9804275355797,312.2337027383284 748.5783831761032,312.1123964778772 752.1767703452822,312.00464778559797 755.7755069998957,311.9092827461898 756.0,311.90410199915823 756.0,455.84033068956165" stroke="rgb(255, 0, 0)" stroke-width="0.001pt" /></svg>