<?xml version="1.0" encoding="utf-8" ?>
<svg baseProfile="full" height="8.5in" version="1.1" width="11in" xmlns="http://www.w3.org/2000/svg" xmlns:ev="http://www.w3.org/2001/xml-events" xmlns:xlink="http://www.w3.org/1999/xlink"><defs /><polygon fill="none" points="756.0,353.87747891809585 754.8804197795007,353.9470389793903 751.2876924936049,354.17575419353165 747.6955581980667,354.41360120910696 744.1043481539356,354.66501803219643 740.514471861272,354.93481092197 736.9264066628041,355.2277070324646 733.3406746209178,355.5479034156262 729.7578019454035,355.89865032017883 726.1782626752059,356.2819238688534 722.602418275407,356.6982612661977 719.0304753101165,357.1468406378939 715.4624205962145,357.62536499318054 711.8978936704345,358.1294957256187 708.3361679357099,358.65305068032796 704.7761959909035,359.1884008014555 701.2167073968835,359.7269553010578 697.6563454786799,360.25970572236645 694.0938200293969,360.77779106592584 690.528049522776,361.27304927546174 686.9582694695866,361.7385279235774 683.3840885763128,362.1689125680024 679.8054877147654,362.5608511776496 676.2227666879194,362.913143731922 672.6364559631954,363.22679223858205 669.0472130326448,363.5048842835806 665.4557258276324,363.75231034573295 661.8626394889795,363.9753138501593 658.2685120013625,364.18085606664084 654.6737940269102,364.3757988381134 651.0788155028706,364.5658762215495 647.4837578158019,364.7544504155659 643.8886889491383,364.94281135617257 640.2937334810468,365.13332430176723 636.6990544030145,365.32898299939416 633.1048127506539,365.532519100456 629.5111349396111,365.74577901328234 625.9180830276223,365.9693365176379 622.3256300466751,366.20232059366793 618.7336461059396,366.44242758960684 615.1419018631773,366.68609394876165 611.5500918160717,366.9287883770273 607.9578755517972,367.16539418989305 604.3649285749827,367.3906318905552 600.7709921178339,367.59948768285335 597.1759100531292,367.78759655568666 593.5796452366178,367.951545845171 589.9822725051854,368.0890574124908 586.3839522345504,368.1990175413403 582.7848932944706,368.2813263855287 579.185316776022,368.3365431206085 575.5854316186525,368.3652981853937 571.9854330518957,368.3685105598546 568.38548466005,368.34923425193557 564.7856771686648,368.3120048956768 561.186026091483,368.2618838168461 557.586495966008,368.2037213220721 553.9870316090133,368.1416218637399 550.387583618955,368.078580870213 546.7881228625106,368.01627306318295 543.1886446979706,367.9549791564716 539.5891674720482,367.8936301543123 535.9897306423156,367.82995512965726 532.390396628405,367.7607116728823 528.7912577446303,367.68197606911565 525.1924464378295,367.58947105280265 521.5941447816988,367.47890346493733 517.9965882898091,367.34628639340144 514.4000598377223,367.1882259830197 510.8048719995577,367.0021496322577 507.2113382790803,366.7864753412723 503.6197373231119,366.5407059919078 500.0303658325052,366.26427823928515 496.4437620348559,365.9539990123179 492.86068397640247,365.6053564632369 489.2820115075084,365.21407221824404 485.7086235451114,364.77715292341276 482.1412585445806,364.2935136435892 478.5803784938549,363.76423747338725 475.0260617426492,363.1925448705853 471.4779456329882,362.5835522003795 467.93523250607393,361.9438775171308 464.39675973937244,361.2811479498775 460.8611214346038,360.60345939467487 457.32682340998736,359.9188153461414 453.7924442983691,359.2345900211522 450.25677732539464,358.5570510508948 446.7189297664898,357.89099200700247 443.1783640842028,357.23953621463295 439.6348742222315,356.60417836420055 436.0884964979252,355.9851427945083 432.5393598089529,355.38212640750817 428.98752294091054,354.79522363633157 425.43308140566444,354.22430737932234 421.8762289083336,353.6686093388082 418.3172273736578,353.12684548234006 414.75637264311536,352.59739899026187 411.193957809443,352.07855358666734 407.6302405809817,351.56873056289555 404.06541360673754,351.0667259377163 400.49958024033856,350.57192051830816 396.9327357008949,350.08445766696354 393.36475559317387,349.6053773491597 389.79539645351656,349.1366819980572 386.2243078939769,348.6813507999992 382.65106171998633,348.24327343233244 379.07519673807724,347.82711284895595 375.4962778955773,347.43808853249374 371.9139645680807,347.081674133738 368.3280784433596,346.7632079651539 364.7386584762811,346.48741039457343 361.1459876795692,346.2578095529961 357.5505692739765,346.07624279192476 353.9530034518546,345.94387906766264 350.353949776023,345.8613403586669 346.7541050609685,345.8279034405298 343.1541290152436,345.8410362318074 339.5545525089116,345.89625375677 335.95570309654875,345.9872642349303 332.35767303496107,346.1063426792924 328.76033897771896,346.24486228298036 325.1634261146146,346.39391883343785 321.5665966691499,346.54497491652626 317.96953783409816,346.69046628113676 314.3720270154662,346.82431660734466 310.77396139805427,346.94231581411424 307.17535072071377,347.04232177859063 303.57628290340614,347.12424153457584 299.97687914003296,347.1897590758526 296.3772546194096,347.24175244588326 292.7774950639779,347.28335945344196 289.17764881816277,347.3166311605063 285.5777320221304,347.3411068963308 281.97776456825534,347.35641477143855 278.3777733954856,347.3643869718861 274.77777599580236,347.3687138962027 271.1777806322606,347.3744916533469 267.5778049725142,347.38772982668445 263.9779070661718,347.41484188879014 260.3782177308172,347.46213553460814 256.7789616223458,347.53531658154776 253.18045561146616,347.63902043713216 249.58307761769748,347.77639426997166 245.98720582539642,347.9487487109747 242.3931370704981,348.1553153710723 238.80100173810092,348.3931467267507 235.2106978128811,348.6571878685281 231.62186833113012,348.9405656215627 228.0339395251353,349.23512781043434 224.4462225780514,349.53225927562596 220.8580642005569,349.8240116672457 217.2690129325552,350.10456646698276 213.67894659360996,350.37181856140387 210.08792541954313,350.62591879242257 206.4960212201425,350.8672157512265 202.90328909150398,351.09585488140476 199.30975946199402,351.3115973246886 195.71544155913716,351.51378242108007 192.12033382764045,351.7014001146284 188.52443713125987,351.8732341885461 184.9277676274648,352.0280517601275 181.3303660972669,352.1648078588216 177.73230138554214,352.28283467882807 174.1336675945448,352.3820054320373 170.53457561738298,352.462856776675 166.93514100468747,352.5266570033936 163.3354712903853,352.5754212109208 159.7356558337887,352.6118722527184 156.1357605956523,352.6393363100114 152.53582929486473,352.6615765800158 148.93589036224827,352.68254516204445 145.3359670282955,352.7060396222922 141.73608501004307,352.735185027812 138.1362674510027,352.7714278426123 134.53652975461029,352.8148849153541 130.9368839586288,352.8653838606194 127.3373487974023,352.92323386575487 123.73796311288575,352.9897372047486 120.13880265712059,353.06748045948007 116.54000280970669,353.16043022146863 112.94179059243419,353.2738711288646 109.3445265446458,353.414197072614 105.7487527641033,353.58858434039195 102.1552384824929,353.8045822752482 98.56500997338138,354.06964689446943 94.97935240224864,354.3906761494891 91.39977526430911,354.77359587154666 87.82794236504647,355.2230508078251 84.26557814210268,355.7422435881005 80.71437277358851,356.3329553880809 77.17590743750351,356.99572462795624 73.65161573626284,357.7301414064724 70.1427960239372,358.5352402987801 66.65081643224485,359.4104994210999 63.1771939513157,360.3559870518935 59.7234194939546,361.3715863811962 56.29076464391638,362.4564276970158 52.88009726278115,363.6085336015489 49.491727682228245,364.8246551356004 46.125300118877945,366.1002590947959 42.77974222830329,367.4296357911516 39.45328001502165,368.8060983382663 36.143514825045,370.22223900473233 36.0,370.2852879332294 36.0,253.55534200466468 39.52597328064508,253.9483475881778 43.09876519715854,254.39011440596306 46.666556273616514,254.87060044607958 50.229601256470914,255.38510064059477 53.78829650707285,255.92887275586293 57.34310065616162,256.49752683491386 60.89445905574028,257.0873179146549 64.44273958272953,257.6953518789931 67.98819433972874,258.3196519399187 71.53095896113162,258.95904136533653 75.07109845746633,259.6128091731177 78.60875781812449,260.2798670776115 82.1444766949738,260.9571351367221 85.67903357074657,261.64044157744075 89.21317619571325,262.3258873494707 92.74743260423955,263.01074619535854 96.2820028342784,263.6939835544975 99.81673081423556,264.37640432477633 103.3511252917863,265.06055027196794 106.8844184652829,265.75036136938695 110.41564287398722,266.45068570522767 113.9437196084061,267.1666986632475 117.46755734828074,267.9032905333052 120.98616497975874,268.6644740431796 124.49876915786737,269.4528977160445 128.004929292784,270.2695011132463 131.5046297843756,271.11335919915507 134.99832157514308,271.9817586873653 138.48689225292583,272.8705075979775 141.9715457949875,273.77449304686326 145.45359332188428,274.6884651582716 148.93417669573012,275.60799730980733 152.41385082710826,276.5309642319761 155.89255416318167,277.457583409196 159.36995898135876,278.389063806477 162.84573200479,279.3266148128695 166.3197080023719,280.27080270107 169.79198379786726,281.22122408130997 173.26295319094484,282.1764054632048 176.73329145471695,283.1338773087435 180.2039046956773,284.09035194597686 183.67585696372237,285.0419545144984 187.1502909565399,285.98445567075976 190.62835517920558,286.91347088215986 194.11114212657577,287.82462129741947 197.59964316711793,288.7136435075673 201.0947186415752,289.5764571768189 204.597078185389,290.4092102169554 208.10725934737945,291.2083523882911 211.62560329344797,291.9707537767756 215.1522181079188,292.6939328350695 218.68693239812305,293.3764245102026 222.2292973139593,294.01802469961376 225.7789704988699,294.61787491452293 229.33575319834293,295.1740195258692 232.89943893407755,295.68406263867587 236.46973542624625,296.14556340574774 240.04623229522736,296.55625811738685 243.6283962711053,296.91417046688366 247.21557967365672,297.21767538687595 250.80703611876882,297.4655475371125 254.40194022535488,297.6570272082286 257.99941243761447,297.7919111658375 261.59855111185726,297.8706563470852 265.1984722121217,297.8944906054324 268.7983554280506,297.8654935077596 272.3974914942036,297.7866292109166 275.99532265982293,297.6616856088453 279.5914663873918,297.49510142392006 283.1857134636017,297.29166112516805 286.77799497973535,297.056048076199 290.3683181996172,296.7922694250974 293.95667814756433,296.50300676942084 297.5430251335203,296.189773156402 301.12733047521243,295.8539827194971 304.7096598458406,295.49772960676006 308.2902298628566,295.1242080501591 311.86943642282915,294.73783983064595 315.4478479626057,294.34417645669043 319.0261634192971,293.94964066312633 322.6051431173427,293.5611766094774 326.1855255299508,293.18586103627706 329.7679457091497,292.830522240663 333.3528690972914,292.5013956675104 336.9405505403007,292.20383581893077 340.53102317994535,291.9420988823649 344.12411630655356,291.71920477405064 347.7194971036077,291.536894806758 351.31672734595315,291.3957049220102 354.9153238606105,291.2951906210571 358.5148096744638,291.2343475781598 362.11474205081913,291.2122820922501 365.7147033824821,291.22896773072574 369.3143012253582,291.2827763690821 372.91327443009266,291.3687523634242 376.51156666379575,291.4796261694921 380.10932012950366,291.6067874843132 383.7068121481136,291.7411421494245 387.30436494974504,291.8738592902684 390.902258183077,291.99700262766135 394.5006661574586,292.1040542502851 398.0996325383725,292.19031541797784 401.6990835323972,292.2531846601764 405.2988711299973,292.29229031405004 408.89883006755804,292.30948472814913 412.4988299781496,292.3086823937159 416.09880604110003,292.29555432514525 419.69875857707933,292.27706814933134 423.2987222483913,292.26089517082085 426.8987168759342,292.25467571250863 430.4987016440653,292.26514801999656 434.0985594573151,292.2971437132152 437.69813019812506,292.35273581611483 441.29719641257805,292.4347259617595 444.8953941076573,292.5486265637164 448.49216853632726,292.7009870220576 452.08677062312586,292.89805512597985 455.678302152943,293.1448369533685 459.26580837196144,293.4445019805308 462.84840287281247,293.79807890635004 466.42539846187304,294.2044070444863 469.99641651463435,294.6602908749221 473.56145285554413,295.16080649704844 477.12088485519325,295.699734915184 480.6754181901256,296.2700793469571 484.22598403603376,296.8646230155553 487.7736064709855,297.47648497631695 491.31926552927195,298.0996236786871 494.8637829904922,298.72922352549796 498.4077532297725,299.36189638179565 501.95153687267026,299.99561358396886 505.49532710874325,300.6292939156139 509.0392910096891,301.26200227559707 512.583532493229,301.893153847215 516.1279323220758,302.5234155811558 519.6722136270216,303.1543434941634 523.2160099071195,303.78799002430793 526.7589211393805,304.42656656656345 530.3005618198321,305.0721525721201 533.8406039221566,305.72644754670773 537.3788175728905,306.39055910492664 540.9151086737683,307.0648329735084 544.4495547690747,307.74871220215437 547.9824345082641,308.4406375943934 551.5142475810724,309.13798716149756 555.0457181962202,309.8370689123307 558.5777771211697,310.5331721738403 562.1115149106603,311.22070198055866 565.6481052305113,311.89340467085793 569.1886979452039,312.5447135289779 572.7342921804341,313.1682209620551 576.2856029962354,313.7582984904968 579.8429431488003,314.3108661686596 583.406241523006,314.82360849808305 586.9752848134414,315.2947029588844 590.5497123200573,315.7230346060303 594.1290072326645,316.10858347269203 597.7125343498019,316.4525796946792 601.2996001021551,316.7574719515426 604.8895157067187,317.0267412444638 608.481648808045,317.26460629518994 612.0754568656414,317.47565994987076 615.6705022523669,317.66446849677527 619.2664529422636,317.8351689239295 622.8630742294322,317.9911026171667 626.4602168893696,318.13450653642315 630.0578037166919,318.2662981138367 633.6558137589126,318.3859799256521 637.2542609953739,318.4917035578441 640.8531653651498,318.5805142396771 644.4525172179342,318.6488241207876 648.0522444696588,318.69313792440875 651.6521998033005,318.7110710163015 655.2521872423564,318.7015610930773 658.8519712334349,318.66212484611896 662.4512328179733,318.5892136256703 666.0495538651636,318.4792789116462 669.6464393347189,318.32956278391924 673.2413721734297,318.13862330356426 676.8338895587146,317.9066344322248 680.4236637907785,317.6354869395007 684.010569868842,317.3287219037644 687.5947251261223,316.9913332677519 691.1764921015091,316.6294695723791 694.7564449986206,316.2500789366717 698.3353054784359,315.8605180736261 701.9138610838181,315.4681664721402 705.4928801437726,315.0800652373032 709.0730379744871,314.7026133765666 712.654864889651,314.3413434638877 716.2387230196523,314.00081313627516 719.8248115373892,313.6846341632949 723.4131959501935,313.3956751593806 727.0038224020388,313.1360568177541 730.5964575286141,312.90589850854525 734.1907655493046,312.7035378097936 737.7863960442012,312.52622073737984 741.3830349582929,312.37069414273935 744.9804275355797,312.2337027383284 748.5783831761032,312.1123964778772 752.1767703452822,312.00464778559797 755.7755069998957,311.9092827461898 756.0,311.90410199915823 756.0,353.87747891809585" stroke="rgb(255, 0, 0)" stroke-width="0.001pt" /></svg>