<?xml version="1.0" encoding="utf-8" ?>
<svg baseProfile="full" height="8.5in" version="1.1" width="11in" xmlns="http://www.w3.org/2000/svg" xmlns:ev="http://www.w3.org/2001/xml-events" xmlns:xlink="http://www.w3.org/1999/xlink"><defs /><polygon fill="none" points="756.0,334.31720381520853 753.2365416793679,334.4105615557203 749.6384622753671,334.52813962555376 746.0403225578102,334.6438572687197 742.4422390378229,334.76130931508567 738.8443732578982,334.8852521633942 735.2469396829564,335.02116269970907 731.6502148583622,335.17468968804775 728.0545344626336,335.3509919619204 724.460261597731,335.55397613032835 720.8677105850634,335.78544366883284 717.2770371803974,336.04441181556905 713.6882598610096,336.3284494043629 710.1012740929157,336.6342812200585 706.5158194429341,336.95756894473334 702.9314684300411,337.2928715190945 699.3476451207706,337.63376811328294 695.7636738004414,337.97310507716696 692.1788523793697,338.3033404160175 688.592538277776,338.6169503085754 685.004230978705,338.9068653434271 681.4136346463656,339.1668999145743 677.8206876286927,339.3921369634692 674.225552850025,339.57923566259416 670.6285711088826,339.7266207157334 667.0301887152478,339.8345287746522 663.4308761771127,339.90487970089794 659.8310569165023,339.94095311130815 656.2310617358503,339.9468437209501 652.6311182289148,339.9266757544381 649.0313765532077,339.88354956544964 645.4319615969625,339.81864985236734 641.8329525092216,339.7341892914065 638.2343360128837,339.6343929373415 634.6360223695565,339.52421615101287 631.0378874367077,339.4083498271129 627.439816532702,339.29051193105323 623.8417352639092,339.1729909407475 620.2436236358028,339.05640315542706 616.6455175972714,338.9396429931994 613.0475068957363,338.8199810040805 609.4497367836866,338.6932915378983 605.8524180877528,338.5543735769101 602.2558446040521,338.39734117152545 598.6604123034073,338.21604977217146 595.0666313915016,338.0045343892277 591.475122590932,337.75742199489696 587.8865913237188,337.47029250453875 584.3017806991106,337.139939987224 580.7214106268224,336.7645067102464 577.1461198966638,336.3434411632795 573.5764108297742,335.87741844090897 570.0124000869672,335.369651343554 566.4536774822378,334.8260582764643 562.8993753313324,334.2542749083354 559.348298426735,333.66279133490747 555.799086266493,333.0602193129961 552.2503779445587,332.4546871125024 548.7009564455523,331.85334941836544 545.1498560424268,331.2620069398282 541.5964251461885,330.6848337720015 538.040345457492,330.1242115751163 534.4816150852986,329.5806693614588 530.9205060125181,329.05293631174476 527.3575092343409,328.5381023980412 523.793276539235,328.0318956269114 520.22856561171,327.52906762134296 516.6641870010632,327.0238893162237 513.1009458726787,326.51074931486926 509.53956648373014,325.9848435742924 505.98058592592713,325.4429419326815 502.4242233414127,324.8841171234023 498.87065255530155,324.3078058636675 495.3202797761346,323.71211036347427 491.77351712167626,323.0952840727413 488.23057533440686,322.45687707714967 484.6913079196159,321.7984044758982 481.1551168951537,321.1236059589221 477.62093747030866,320.43834995347476 474.0873073124755,319.75026717673063 470.5525153274437,319.06817801646235 467.0148054590724,318.4013880291137 463.4725981860691,317.75891808033606 459.9246852576071,317.14874281694654 456.37035995606453,316.5771033756779 452.8094567420626,316.0479830675149 449.2423001121153,315.5628093074833 445.66957987498927,315.12046316787087 442.09218626874946,314.717654297518 438.51103812716144,314.349716819133 434.9269261026051,314.0118692271181 431.34037534707346,313.7009774806926 427.7517221864224,313.4153754979449 424.16144113724334,313.15102348281056 420.5700771015719,312.9018160124456 416.9781702167873,312.66055903112203 413.3862289175237,312.41981497066735 409.7947254029815,312.1726257616973 406.20409220709365,311.91310070975067 402.61470529212977,311.6368733130528 399.0268490790141,311.3414282352342 395.4406673005783,311.02630881023015 391.8561118092997,310.6931993238081 388.27290461178615,310.34588652576144 384.69052881668415,309.99010054702273 381.1082609305616,309.6332297131696 377.52524959924256,309.2839020737838 373.94063509627097,308.9514282175397 370.353692328953,308.6450924801773 366.76396786269964,308.37328693133367 363.1713737184664,308.14248980218997 359.5762028083816,307.95608667109997 355.97896462702124,307.81509920157373 352.3801621645466,307.72225074392924 348.7803975628585,307.6810826442284 345.1804226316231,307.6945174675164 341.58109099140074,307.7638842008579 337.98324323904404,307.8883492596564 334.38756489140934,308.06469329939284 330.79445852594523,308.2873738923093 327.20396471604715,308.54882025599323 323.61575248690315,308.839909586992 320.02918127454905,309.15056524638413 316.44341918894617,309.4704250054237 312.8575894370658,309.7895252882968 309.27091078125244,310.0989379899308 305.6828013819887,310.3912921226455 302.09292727283963,310.66111406478655 298.50119183708097,310.9049102081437 294.9076787132996,311.1209274047072 291.31256988069396,311.3085239977478 287.71606389036106,311.46709468072413 284.11833304594927,311.59489441142836 280.5195743501019,311.6894240314566 276.9200548474551,311.748240271269 273.32011736407935,311.7694562036297 269.7201596095741,311.75201585448843 266.1205989310435,311.69577599694856 262.5218350865108,311.60144259202565 258.9242208893923,311.47040027561104 255.32804675083477,311.3044738908194 251.73354068427352,311.105662076648 248.1408824147801,310.8758652998197 244.550227358449,310.6166428732358 240.9617362962813,310.329011343771 237.375605731755,310.0133096266861 233.79209474835082,309.6691453754606 230.21154456965775,309.29543369801235 226.63438687891568,308.89053512359544 223.061136429202,308.45249263293834 219.4923632389443,307.9793563771961 215.92864238882572,307.46955866983564 212.37043474107256,306.9226049830661 208.8178774367127,306.3400789327992 205.27082611129515,305.72491481254053 201.72896328964296,305.0805486490916 198.19189905359758,304.4103422703629 194.65925234354913,303.7172281224884 191.13070685049638,303.0035288136354 187.6060399171534,302.2709149938103 184.0851295157489,301.52045517124725 180.56794581152928,300.752719024663 177.0545319442474,299.9679114067135 173.5449818665151,299.16600227726747 170.03941796817628,298.34684310185423 166.53797177167172,297.51025805956397 163.04076856144303,296.6561095324527 159.54791302508744,295.7843525696758 156.0594674891232,294.8951125893492 152.5754135411139,293.9888189904748 149.0955773931764,293.0664631028113 145.6194976117973,292.13005007775894 142.14622860193543,291.18326478787895 138.67440065167386,290.2312087581293 135.20241780340424,289.2797177695637 131.72853000121944,288.33520544151736 128.25097239171905,287.4042956324563 124.76813464881327,286.49333940047205 121.2787168752225,285.6079222099066 117.78183719887717,284.75245010097314 114.27707164910203,283.9298819025182 110.76443047381382,283.14162307848267 107.24427940794178,282.38760950205324 103.71723190647333,281.66654367816113 100.18402981214206,280.97626622625285 96.64543544980653,280.31418621685276 93.10213699744662,279.677761769252 89.55468116163921,279.064934637839 86.00343203474677,278.474485962046 82.4485645573,277.90622790641345 78.89009822069676,277.36095977855206 75.32797679971314,276.84010376949607 71.76219241264785,276.34494550695615 68.19293095037901,275.8755068912007 64.62055810838973,275.43036390538896 61.04549072732038,275.0074061996855 57.468107418086106,274.6045058909091 53.88870105940758,274.21999305698574 50.307459732706675,273.8529636849601 46.72447042809902,273.5034101939646 43.13973659448888,273.1722254386229 39.55321035703694,272.861050972979 36.0,272.5748855828255 36.0,253.55534200466468 39.52597328064508,253.9483475881778 43.09876519715854,254.39011440596306 46.666556273616514,254.87060044607958 50.229601256470914,255.38510064059477 53.78829650707285,255.92887275586293 57.34310065616162,256.49752683491386 60.89445905574028,257.0873179146549 64.44273958272953,257.6953518789931 67.98819433972874,258.3196519399187 71.53095896113162,258.95904136533653 75.07109845746633,259.6128091731177 78.60875781812449,260.2798670776115 82.1444766949738,260.9571351367221 85.67903357074657,261.64044157744075 89.21317619571325,262.3258873494707 92.74743260423955,263.01074619535854 96.2820028342784,263.6939835544975 99.81673081423556,264.37640432477633 103.3511252917863,265.06055027196794 106.8844184652829,265.75036136938695 110.41564287398722,266.45068570522767 113.9437196084061,267.1666986632475 117.46755734828074,267.9032905333052 120.98616497975874,268.6644740431796 124.49876915786737,269.4528977160445 128.004929292784,270.2695011132463 131.5046297843756,271.11335919915507 134.99832157514308,271.9817586873653 138.48689225292583,272.8705075979775 141.9715457949875,273.77449304686326 145.45359332188428,274.6884651582716 148.93417669573012,275.60799730980733 152.41385082710826,276.5309642319761 155.89255416318167,277.457583409196 159.36995898135876,278.389063806477 162.84573200479,279.3266148128695 166.3197080023719,280.27080270107 169.79198379786726,281.22122408130997 173.26295319094484,282.1764054632048 176.73329145471695,283.1338773087435 180.2039046956773,284.09035194597686 183.67585696372237,285.0419545144984 187.1502909565399,285.98445567075976 190.62835517920558,286.91347088215986 194.11114212657577,287.82462129741947 197.59964316711793,288.7136435075673 201.0947186415752,289.5764571768189 204.597078185389,290.4092102169554 208.10725934737945,291.2083523882911 211.62560329344797,291.9707537767756 215.1522181079188,292.6939328350695 218.68693239812305,293.3764245102026 222.2292973139593,294.01802469961376 225.7789704988699,294.61787491452293 229.33575319834293,295.1740195258692 232.89943893407755,295.68406263867587 236.46973542624625,296.14556340574774 240.04623229522736,296.55625811738685 243.6283962711053,296.91417046688366 247.21557967365672,297.21767538687595 250.80703611876882,297.4655475371125 254.40194022535488,297.6570272082286 257.99941243761447,297.7919111658375 261.59855111185726,297.8706563470852 265.1984722121217,297.8944906054324 268.7983554280506,297.8654935077596 272.3974914942036,297.7866292109166 275.99532265982293,297.6616856088453 279.5914663873918,297.49510142392006 283.1857134636017,297.29166112516805 286.77799497973535,297.056048076199 290.3683181996172,296.7922694250974 293.95667814756433,296.50300676942084 297.5430251335203,296.189773156402 301.12733047521243,295.8539827194971 304.7096598458406,295.49772960676006 308.2902298628566,295.1242080501591 311.86943642282915,294.73783983064595 315.4478479626057,294.34417645669043 319.0261634192971,293.94964066312633 322.6051431173427,293.5611766094774 326.1855255299508,293.18586103627706 329.7679457091497,292.830522240663 333.3528690972914,292.5013956675104 336.9405505403007,292.20383581893077 340.53102317994535,291.9420988823649 344.12411630655356,291.71920477405064 347.7194971036077,291.536894806758 351.31672734595315,291.3957049220102 354.9153238606105,291.2951906210571 358.5148096744638,291.2343475781598 362.11474205081913,291.2122820922501 365.7147033824821,291.22896773072574 369.3143012253582,291.2827763690821 372.91327443009266,291.3687523634242 376.51156666379575,291.4796261694921 380.10932012950366,291.6067874843132 383.7068121481136,291.7411421494245 387.30436494974504,291.8738592902684 390.902258183077,291.99700262766135 394.5006661574586,292.1040542502851 398.0996325383725,292.19031541797784 401.6990835323972,292.2531846601764 405.2988711299973,292.29229031405004 408.89883006755804,292.30948472814913 412.4988299781496,292.3086823937159 416.09880604110003,292.29555432514525 419.69875857707933,292.27706814933134 423.2987222483913,292.26089517082085 426.8987168759342,292.25467571250863 430.4987016440653,292.26514801999656 434.0985594573151,292.2971437132152 437.69813019812506,292.35273581611483 441.29719641257805,292.4347259617595 444.8953941076573,292.5486265637164 448.49216853632726,292.7009870220576 452.08677062312586,292.89805512597985 455.678302152943,293.1448369533685 459.26580837196144,293.4445019805308 462.84840287281247,293.79807890635004 466.42539846187304,294.2044070444863 469.99641651463435,294.6602908749221 473.56145285554413,295.16080649704844 477.12088485519325,295.699734915184 480.6754181901256,296.2700793469571 484.22598403603376,296.8646230155553 487.7736064709855,297.47648497631695 491.31926552927195,298.0996236786871 494.8637829904922,298.72922352549796 498.4077532297725,299.36189638179565 501.95153687267026,299.99561358396886 505.49532710874325,300.6292939156139 509.0392910096891,301.26200227559707 512.583532493229,301.893153847215 516.1279323220758,302.5234155811558 519.6722136270216,303.1543434941634 523.2160099071195,303.78799002430793 526.7589211393805,304.42656656656345 530.3005618198321,305.0721525721201 533.8406039221566,305.72644754670773 537.3788175728905,306.39055910492664 540.9151086737683,307.0648329735084 544.4495547690747,307.74871220215437 547.9824345082641,308.4406375943934 551.5142475810724,309.13798716149756 555.0457181962202,309.8370689123307 558.5777771211697,310.5331721738403 562.1115149106603,311.22070198055866 565.6481052305113,311.89340467085793 569.1886979452039,312.5447135289779 572.7342921804341,313.1682209620551 576.2856029962354,313.7582984904968 579.8429431488003,314.3108661686596 583.406241523006,314.82360849808305 586.9752848134414,315.2947029588844 590.5497123200573,315.7230346060303 594.1290072326645,316.10858347269203 597.7125343498019,316.4525796946792 601.2996001021551,316.7574719515426 604.8895157067187,317.0267412444638 608.481648808045,317.26460629518994 612.0754568656414,317.47565994987076 615.6705022523669,317.66446849677527 619.2664529422636,317.8351689239295 622.8630742294322,317.9911026171667 626.4602168893696,318.13450653642315 630.0578037166919,318.2662981138367 633.6558137589126,318.3859799256521 637.2542609953739,318.4917035578441 640.8531653651498,318.5805142396771 644.4525172179342,318.6488241207876 648.0522444696588,318.69313792440875 651.6521998033005,318.7110710163015 655.2521872423564,318.7015610930773 658.8519712334349,318.66212484611896 662.4512328179733,318.5892136256703 666.0495538651636,318.4792789116462 669.6464393347189,318.32956278391924 673.2413721734297,318.13862330356426 676.8338895587146,317.9066344322248 680.4236637907785,317.6354869395007 684.010569868842,317.3287219037644 687.5947251261223,316.9913332677519 691.1764921015091,316.6294695723791 694.7564449986206,316.2500789366717 698.3353054784359,315.8605180736261 701.9138610838181,315.4681664721402 705.4928801437726,315.0800652373032 709.0730379744871,314.7026133765666 712.654864889651,314.3413434638877 716.2387230196523,314.00081313627516 719.8248115373892,313.6846341632949 723.4131959501935,313.3956751593806 727.0038224020388,313.1360568177541 730.5964575286141,312.90589850854525 734.1907655493046,312.7035378097936 737.7863960442012,312.52622073737984 741.3830349582929,312.37069414273935 744.9804275355797,312.2337027383284 748.5783831761032,312.1123964778772 752.1767703452822,312.00464778559797 755.7755069998957,311.9092827461898 756.0,311.90410199915823 756.0,334.31720381520853" stroke="rgb(255, 0, 0)" stroke-width="0.001pt" /></svg>