<?xml version="1.0" encoding="utf-8" ?>
<svg baseProfile="full" height="8.5in" version="1.1" width="11in" xmlns="http://www.w3.org/2000/svg" xmlns:ev="http://www.w3.org/2001/xml-events" xmlns:xlink="http://www.w3.org/1999/xlink"><defs /><polygon fill="none" points="756.0,366.1953890699641 753.1964057782981,366.44089366780463 749.6121844768575,366.7775799643766 746.0307024638414,367.1422532297011 742.4527200455146,367.539797961957 738.8790181879234,367.9741423334514 735.3103205327827,368.44784798698913 731.7472032804651,368.96184744830845 728.1900199053623,369.5154234917681 724.6388752544032,370.1065001940363 721.09369496064,370.73235695457555 717.5543754390135,371.39054942174073 714.0204702685966,372.07721837145425 710.490960677643,372.78613447887943 706.964370223453,373.5094323209998 703.438937165465,374.23835052878815 699.9128142058671,374.9639240080424 696.3842674432144,375.67761703993506 692.8518435668474,376.3718659561546 689.3144885471916,377.04053587840025 685.7716041702813,377.6792613999239 682.223047083852,378.2856792462573 678.669078505065,378.85953231194173 675.1102842140934,379.4026558656085 671.5474807182093,379.9188256532906 667.9816269188418,380.4134837994248 664.4137497564868,380.8933301856212 660.8448865007301,381.3657865981184 657.2760351396721,381.8383328526523 653.7080962666614,382.31772016835816 650.1417850610748,382.80906972306036 646.5775005173244,383.3149112903349 643.0153875089507,383.8358248297767 639.455506225161,384.3717774819064 635.8977616400501,384.9217351776556 632.3418437200504,385.48338252806786 628.7872046551822,386.05306763276445 625.2330765410693,386.6259317950859 621.6785285624959,387.1961849564276 618.1225563451643,387.75748843010797 614.5641886858575,388.303400145681 611.0025944212372,388.8278487077188 607.4371696691503,389.3255899429073 603.8675919730737,389.79261785606843 600.2938314413038,390.2264791951667 596.7161215004601,390.62646866901247 593.1348961563061,390.99365395519567 589.550709119038,391.3307048146801 585.9641495289226,391.641494625568 582.3757639714116,391.93043941380034 578.7859867851882,392.2015477929965 575.1950729680087,392.4571606987526 571.6031805404101,392.69863282666836 568.0105866622374,392.9294340972806 564.4176208477235,393.1543711012032 560.8246052970516,393.3785122456419 557.2318246549216,393.6063877764401 553.639506274252,393.8414380942509 550.0478012733045,394.0856822060908 546.4567652437014,394.33957240695037 542.8663435715712,394.602007572844 539.2763674417268,394.8704687192836 535.6865656947506,395.1412516903255 532.0965938509062,395.4097701448197 528.50607713998,395.67090181383 524.9146611046157,395.91935877374056 521.3220603590177,396.15005312288923 517.7280966393758,396.3584392594202 514.132718262182,396.5407969431267 510.53599749821865,396.6944190316264 506.93810814527103,396.8176756904568 503.3392894281651,396.90989196563896 499.73979369818346,396.97014551195457 496.1398852845182,396.9958245544247 492.5399048076267,396.9839685011123 488.9402722937416,396.9325315009935 485.3414312821331,396.841189434209 481.74375933314997,396.7117423504258 478.1474766069023,396.5481863878549 474.55258367758285,396.3564969861423 470.95884860823446,396.1442041427969 467.36584827252824,395.91981923328945 463.77305301648255,395.69217422865336 460.17993183413734,395.46973284540354 456.58605014502393,395.2599367428284 452.9911361908486,395.0686420432796 449.3951017178147,394.8997158204713 445.79801734968675,394.75485710112923 442.2000561467054,394.63371593619695 438.601426720253,394.53438693202025 435.00231685485016,394.45433584358466 431.40285930758694,394.3918429203835 427.80314150603647,394.34676799164896 424.2032509832185,394.31869266929823 420.6032723193589,394.306298325605 417.00327244711224,394.3072574000298 413.40328932458175,394.31828089748296 409.80332956864726,394.3353031080268 406.20337690528953,394.3537644618124 402.60340898769374,394.36896289202707 399.00341676397835,394.3764454843997 395.40341902380675,394.3724117814432 391.8034655957409,394.3541001524443 388.20362591292474,394.32012577942277 384.60396466949464,394.2707402294346 381.00451192607625,394.2079712251624 377.40523914552216,394.1356148075973 373.80605383920994,394.0590306654649 370.20682112267303,393.98470804299797 366.6074106013258,393.9195628297035 363.0077528615685,393.86992255769314 359.4078757821476,393.8401733886317 355.80788441598395,393.8322890023353 352.2079176505814,393.8477579388633 348.6081418175238,393.88793195701396 345.0087483810195,393.95401439983823 341.40995076250107,394.0470504194536 337.8119804588357,394.1679209863523 334.21508259007715,394.3173389294516 330.6195110248113,394.4958469658293 327.0255232860354,394.70381843870155 323.43337531919025,394.9414588904143 319.84331625044854,395.2088086294177 316.2555833749299,395.50574770384713 312.6703975044652,395.8320026259858 309.0879588324344,396.1871549329451 305.5084435222374,396.5706521872573 301.93200114717484,396.9818211766726 298.358752214945,397.4198760457456 294.7887863224878,397.8839272570271 291.22216054920096,398.3729881871026 287.65889803848836,398.8859796877629 284.0989785081645,399.42167823883324 280.54230471615466,399.97851891373966 276.9886825625144,400.55451334874516 273.43781344281524,401.14724304664037 269.8892968178487,401.7538976125476 266.3426433113409,402.37135117742173 262.7972994482874,402.99628068761393 259.25268013555467,403.625306861793 255.708206362882,404.2551526165898 252.16334364351061,404.8828056264693 248.61763653617146,405.5056708678858 245.0707352019664,406.121699215784 241.52241156075297,406.729481526489 237.97256391146766,407.3282984157495 234.42120963278506,407.91811430845064 230.86846795009643,408.499514803881 227.31453342768685,409.07357874668287 223.75964154611123,409.64168411570137 220.20402647343107,410.2052455186823 216.64786957401444,410.7653777412258 213.09123719369046,411.3224828580852 209.53407051579276,411.87616618423317 205.9763066753204,412.42599930021225 202.41798653164724,412.9722206428289 198.85931563309498,413.5161521052369 195.30068977853043,414.0603781862223 191.742697389514,414.6087304085224 188.1861101196365,415.1661234401845 184.63186712298028,415.7382743999145 181.08105370160595,416.3313376735944 177.53487263453928,416.95149881360396 173.99460040050965,417.6045474403991 170.46152574899202,418.29547689179316 166.9368695507155,419.0281423570301 163.42169400346285,419.8050212871066 159.916816160873,420.62711088594773 156.4227479904633,421.4939947423725 152.93968418746795,422.40408624560916 149.46755886439007,423.35505719197994 146.00617971600596,424.34442789658544 142.55542512807807,425.3702411222239 139.11501887032594,426.4302433777026 135.68403471012556,427.5203569921732 132.26089886186065,428.6348707715065 128.8435088439524,429.76688025269516 125.42941718959551,430.9087988906245 122.01604938705019,432.0528794142534 118.6009227133861,433.19169889197065 115.1818363436575,434.3185743936726 111.75701214738903,435.42788914821887 108.32517749024359,436.5153223121492 104.88559120058753,437.57798225588 101.43802118165073,438.6144478677205 97.98268580797188,439.6247237980503 94.52017101677468,440.61011271656963 91.05133257814349,441.5730041365515 87.57719004248078,442.51657906304075 84.0988137339266,443.4444250934191 80.61720175793711,444.36005495785486 77.13314386428095,445.26633338838946 73.6470655145952,446.16480861890625 70.15885955123734,447.05498790264323 66.66793372323124,447.9344404956578 63.17350862852679,448.7998844612037 59.674847397743605,449.64804104593003 56.17143527305021,450.4763546849287 52.663095251848176,451.28354133969464 49.15003545088712,452.06993235876297 45.63283589773465,452.8375958939814 42.112391631557536,453.59023934790946 38.58983179077576,454.3329183957568 36.0,454.875873223235 36.0,253.55534200466468 39.52597328064508,253.9483475881778 43.09876519715854,254.39011440596306 46.666556273616514,254.87060044607958 50.229601256470914,255.38510064059477 53.78829650707285,255.92887275586293 57.34310065616162,256.49752683491386 60.89445905574028,257.0873179146549 64.44273958272953,257.6953518789931 67.98819433972874,258.3196519399187 71.53095896113162,258.95904136533653 75.07109845746633,259.6128091731177 78.60875781812449,260.2798670776115 82.1444766949738,260.9571351367221 85.67903357074657,261.64044157744075 89.21317619571325,262.3258873494707 92.74743260423955,263.01074619535854 96.2820028342784,263.6939835544975 99.81673081423556,264.37640432477633 103.3511252917863,265.06055027196794 106.8844184652829,265.75036136938695 110.41564287398722,266.45068570522767 113.9437196084061,267.1666986632475 117.46755734828074,267.9032905333052 120.98616497975874,268.6644740431796 124.49876915786737,269.4528977160445 128.004929292784,270.2695011132463 131.5046297843756,271.11335919915507 134.99832157514308,271.9817586873653 138.48689225292583,272.8705075979775 141.9715457949875,273.77449304686326 145.45359332188428,274.6884651582716 148.93417669573012,275.60799730980733 152.41385082710826,276.5309642319761 155.89255416318167,277.457583409196 159.36995898135876,278.389063806477 162.84573200479,279.3266148128695 166.3197080023719,280.27080270107 169.79198379786726,281.22122408130997 173.26295319094484,282.1764054632048 176.73329145471695,283.1338773087435 180.2039046956773,284.09035194597686 183.67585696372237,285.0419545144984 187.1502909565399,285.98445567075976 190.62835517920558,286.91347088215986 194.11114212657577,287.82462129741947 197.59964316711793,288.7136435075673 201.0947186415752,289.5764571768189 204.597078185389,290.4092102169554 208.10725934737945,291.2083523882911 211.62560329344797,291.9707537767756 215.1522181079188,292.6939328350695 218.68693239812305,293.3764245102026 222.2292973139593,294.01802469961376 218.78946821554436,293.3949960016898 219.4586495274185,288.883742037097 223.75073956820236,271.7487580941969 229.70168414796834,255.11698217428392 237.25417241729605,239.1485873713205 246.33546978554182,223.99735805647163 256.85811839470733,209.80920885054388 268.7207793864214,196.72077938642144 281.80920885054377,184.85811839470736 295.99735805647146,174.33546978554193 311.1485873713202,165.25417241729616 327.11698217428363,157.7016841479685 343.74875809419643,151.75073956820248 360.8837420370965,147.45864952741857 378.35691474067863,144.8667491990046 395.9999999999995,144.0 413.64308525932034,144.86674919900454 431.11625796290247,147.4586495274184 448.25124190580254,151.75073956820222 464.88301782571546,157.70168414796814 480.8514126286789,165.25417241729573 496.00264194352764,174.33546978554133 510.1907911494555,184.8581183947067 523.2792206135779,196.72077938642073 535.141881605292,209.80920885054297 545.6645302144575,223.9973580564707 554.7458275827033,239.14858737131937 562.2983158520311,255.11698217428273 568.2492604317972,271.7487580941955 572.5413504725813,288.88374203709554 575.1332508009954,306.35691474067767 575.4903661066,313.62616378230007 572.7342921804341,313.1682209620551 576.2856029962354,313.7582984904968 579.8429431488003,314.3108661686596 583.406241523006,314.82360849808305 586.9752848134414,315.2947029588844 590.5497123200573,315.7230346060303 594.1290072326645,316.10858347269203 597.7125343498019,316.4525796946792 601.2996001021551,316.7574719515426 604.8895157067187,317.0267412444638 608.481648808045,317.26460629518994 612.0754568656414,317.47565994987076 615.6705022523669,317.66446849677527 619.2664529422636,317.8351689239295 622.8630742294322,317.9911026171667 626.4602168893696,318.13450653642315 630.0578037166919,318.2662981138367 633.6558137589126,318.3859799256521 637.2542609953739,318.4917035578441 640.8531653651498,318.5805142396771 644.4525172179342,318.6488241207876 648.0522444696588,318.69313792440875 651.6521998033005,318.7110710163015 655.2521872423564,318.7015610930773 658.8519712334349,318.66212484611896 662.4512328179733,318.5892136256703 666.0495538651636,318.4792789116462 669.6464393347189,318.32956278391924 673.2413721734297,318.13862330356426 676.8338895587146,317.9066344322248 680.4236637907785,317.6354869395007 684.010569868842,317.3287219037644 687.5947251261223,316.9913332677519 691.1764921015091,316.6294695723791 694.7564449986206,316.2500789366717 698.3353054784359,315.8605180736261 701.9138610838181,315.4681664721402 705.4928801437726,315.0800652373032 709.0730379744871,314.7026133765666 712.654864889651,314.3413434638877 716.2387230196523,314.00081313627516 719.8248115373892,313.6846341632949 723.4131959501935,313.3956751593806 727.0038224020388,313.1360568177541 730.5964575286141,312.90589850854525 734.1907655493046,312.7035378097936 737.7863960442012,312.52622073737984 741.3830349582929,312.37069414273935 744.9804275355797,312.2337027383284 748.5783831761032,312.1123964778772 752.1767703452822,312.00464778559797 755.7755069998957,311.9092827461898 756.0,311.90410199915823 756.0,366.1953890699641" stroke="rgb(255, 0, 0)" stroke-width="0.001pt" /></svg>