<?xml version="1.0" encoding="utf-8" ?>
<svg baseProfile="full" height="8.5in" version="1.1" width="11in" xmlns="http://www.w3.org/2000/svg" xmlns:ev="http://www.w3.org/2001/xml-events" xmlns:xlink="http://www.w3.org/1999/xlink"><defs /><polygon fill="none" points="756.0,345.27741751566714 755.0320633966242,345.324546670706 751.4362115373211,345.49731647694216 747.8403604696629,345.6701027588643 744.2446872650357,345.8465516339702 740.6494308266464,346.0312977901417 737.0548938483985,346.2295499326488 733.4614432584474,346.4466048970695 729.8694991193829,346.68730658347874 726.2795007807958,346.9554705798362 722.6918424650858,347.2533091430143 719.1067803056285,347.5809206703257 715.524366639481,347.9363251224628 711.9444519457005,348.31607607408165 708.366654561167,348.71528263117443 704.7903576224518,349.127714693623 701.2147463272872,349.54604932748913 697.6388841557213,349.9622340580639 694.0618170676474,350.36793228016893 690.4826873675788,350.7550118457443 686.9008363857583,351.1160430688149 683.3158754612618,351.44476053082917 679.7277129048134,351.73646152243117 676.1365317730465,351.98829098623935 672.54272710727,352.1994023886884 668.9468171553216,352.3709588443465 665.3493493662402,352.5059607203397 661.7508211172867,352.60889002367094 658.1516290946265,352.68515786761014 654.5520519701593,352.74033508221544 650.952261262936,352.77915343083237 647.3523486979802,352.8042437611354 643.7523704775183,352.8167662289138 640.1523718296631,352.81988639579345 636.5523722766287,352.8180924751277 632.9523728356905,352.81608617378674 629.3523733240694,352.817961361059 625.7523837629237,352.82663082714186 622.1524231992685,352.84348135020326 618.5525082175168,352.8682224932503 614.9526389981032,352.8989080455244 611.3527920022417,352.93209850177686 607.7529258256257,352.9631389665848 604.1530017220998,352.9865152120978 600.5530149082346,352.99625892781296 596.9530285062289,352.9863642134007 593.3532003515603,352.9511895512721 589.7537941865809,352.8858040826423 586.1551709328638,352.7862516953911 582.5577614782186,352.64970421050293 578.9620285662702,352.4744762848436 575.368430388592,352.2598786674582 571.7773405837988,352.0067502140769 568.1888793524234,351.7187467576471 564.6028773012694,351.401588612365 561.0189147549106,351.062158993301 557.4364016984644,350.7077578076481 553.8546756350187,350.34548938998853 550.2730969692941,349.98176660925253 546.691127223581,349.6219156112038 543.108381473741,349.269874573818 539.5246525744786,348.92798690719195 535.9399098487493,348.59689841398966 532.3542804528757,348.27555461764723 528.7680220621157,347.9613082895817 525.1814953403111,347.65013940652705 521.5951418665154,347.3369800844663 518.0094672393825,347.0161413892699 514.425022796385,346.68183907838295 510.8423739806741,346.32881292738944 507.2620397475399,345.95303802262976 503.68438675243414,345.5525395249909 500.109677899449,345.1265622763148 496.5385173538802,344.6717960091263 492.9717825765864,344.18353068326013 489.4104386723316,343.65738470006977 485.8553509446167,343.09050618729043 482.3071002522998,342.4822981435486 478.7658211280763,341.8347318038283 475.23109408255533,341.15230619347767 471.70191869187846,340.4417282161656 468.17677934426524,339.71139091059445 464.65379934943365,338.9707074721293 461.13095483237583,338.22937994084805 457.606311102131,337.4966544978301 454.0782367308198,336.78062989595026 450.5455577641532,336.0876801730472 447.0076252828223,335.4220723624385 443.4642919777583,334.7858419881052 439.9158066680216,334.1790042778538 436.36264474989804,333.60017754765187 432.8052946712312,333.0476737758922 429.24407171747384,332.52070976039187 425.67936586868666,332.0178457513171 422.1117340482055,331.53617865311514 418.54180478233457,331.07184575886987 414.970208080477,330.62051771932425 411.3975268135989,330.1778569402866 407.82426246244825,329.73992786292786 404.2508101762423,329.3035349686122 400.6774354234343,328.8665076513945 397.1042531386882,328.42790947541073 393.5312101500251,327.9881779650936 389.9580752797345,327.5491936843809 386.3844436485816,327.1142718927635 382.8097616787793,326.68806910679166 379.23337733414803,326.2763956688864 375.654617333998,325.8859128122515 372.0728846613748,325.5237097450863 368.48776443453465,325.19673427337364 364.89911559447347,324.91107800663485 361.30712225123995,324.6711117128225 357.7122638668752,324.47877555823163 354.1150934216308,324.33607031004544 350.51622179775734,324.24594242935143 346.91639317378144,324.21081582969026 343.3164527566783,324.23152798330017 339.7172374483364,324.30668890530933 336.11943400336145,324.4324282043626 332.52345298939275,324.6024886264986 328.9293576534574,324.80859228053566 325.3368683762099,325.04101601611796 321.7454404986426,325.2893017390909 318.15439237669034,325.5430208472071 314.5630486229973,325.79252043199597 310.97086277206466,326.02958753717803 307.3774916678418,326.247954447071 303.78281080501233,326.44358035130546 300.1868773071093,326.61464255829077 296.5898610876488,326.7611837365936 292.99196847947894,326.884345338063 289.3933798223585,326.985140560392 285.7942192051016,327.0628763384301 282.19460965753495,327.11589619382903 278.5947137125239,327.1432674395615 274.99471417155434,327.14508541070717 271.39478474393394,327.1225439788016 267.7950622586771,327.0778446596077 264.1956286437005,327.01398816912774 260.59650662569834,326.9344853419306 256.9976687756949,326.843018794043 253.39905613657191,326.74308344722164 249.80060095247998,326.63763067067197 246.20224820387665,326.5287385377196 242.60397235898506,326.41733412097744 239.00578866936235,326.3029919339542 235.40776079810234,326.1838473258682 231.81000859345951,326.0566503369578 228.21271806826311,325.917004795202 224.6161509587309,325.7598264677171 221.0206425175892,325.58005147034913 217.42656544812408,325.3736295268812 213.83423364492108,325.1387844381604 210.243785753563,324.8767082289341 206.65517552599397,324.59056729410156 203.06822530262116,324.2843188736228 199.48269925017252,323.96182402527313 195.8983770695615,323.6262133794645 192.31511304042203,323.2794874106143 188.73287622911133,322.9223047854905 185.1517707333196,322.5539524704302 181.57204191159212,322.1724533709639 177.99407293668057,321.7747876639054 174.41837394138165,321.3572033071364 170.84556425278691,320.9155802449174 167.27634553765265,320.44581672618136 163.71146198503504,319.94421403851265 160.15164842179684,319.4078117687698 156.5975677402708,318.83465340565954 153.04974652203833,318.22394512549647 149.50852084722976,317.57608656062575 145.97400892207804,316.89254764369394 142.44612904374415,316.1755653816771 138.92481881918434,315.4269838547806 135.4100636576384,314.6482052248823 131.9016043430049,313.8415372401691 128.39870041711626,313.011077074963 124.89999293512355,312.16311130003567 121.40349052564267,311.30609852271294 117.90668198581353,310.450335684201 114.40676238571955,309.6073868169036 110.90092928500151,308.7893805394768 107.38669369006664,308.0082607130143 103.86214711506813,307.27506807757237 100.32613709177811,306.5993217381872 96.77832695963818,305.98854905847304 93.21913994761726,305.4480050607617 89.64961219097871,304.9805956100796 86.07118969211237,304.5870318673299 82.48551193920721,304.26622810750007 78.89422152484019,304.01596192985005 75.2988310866487,303.83384219736274 71.70067499407008,303.7186348476004 68.10099528286048,303.67061426132756 64.50103984186563,303.6885257897825 60.90194177648242,303.76910566167857 57.30459966622322,303.9074159713302 53.70960877690224,304.0972593428214 50.11724448957959,304.33160700585387 46.52749194602206,304.6030414841764 42.940109366199124,304.9041830222992 39.354712121755185,305.22810677804085 36.0,305.5469472892556 36.0,253.55534200466468 39.52597328064508,253.9483475881778 43.09876519715854,254.39011440596306 46.666556273616514,254.87060044607958 50.229601256470914,255.38510064059477 53.78829650707285,255.92887275586293 57.34310065616162,256.49752683491386 60.89445905574028,257.0873179146549 64.44273958272953,257.6953518789931 67.98819433972874,258.3196519399187 71.53095896113162,258.95904136533653 75.07109845746633,259.6128091731177 78.60875781812449,260.2798670776115 82.1444766949738,260.9571351367221 85.67903357074657,261.64044157744075 89.21317619571325,262.3258873494707 92.74743260423955,263.01074619535854 96.2820028342784,263.6939835544975 99.81673081423556,264.37640432477633 103.3511252917863,265.06055027196794 106.8844184652829,265.75036136938695 110.41564287398722,266.45068570522767 113.9437196084061,267.1666986632475 117.46755734828074,267.9032905333052 120.98616497975874,268.6644740431796 124.49876915786737,269.4528977160445 128.004929292784,270.2695011132463 131.5046297843756,271.11335919915507 134.99832157514308,271.9817586873653 138.48689225292583,272.8705075979775 141.9715457949875,273.77449304686326 145.45359332188428,274.6884651582716 148.93417669573012,275.60799730980733 152.41385082710826,276.5309642319761 155.89255416318167,277.457583409196 159.36995898135876,278.389063806477 162.84573200479,279.3266148128695 166.3197080023719,280.27080270107 169.79198379786726,281.22122408130997 173.26295319094484,282.1764054632048 176.73329145471695,283.1338773087435 180.2039046956773,284.09035194597686 183.67585696372237,285.0419545144984 187.1502909565399,285.98445567075976 190.62835517920558,286.91347088215986 194.11114212657577,287.82462129741947 197.59964316711793,288.7136435075673 201.0947186415752,289.5764571768189 204.597078185389,290.4092102169554 208.10725934737945,291.2083523882911 211.62560329344797,291.9707537767756 215.1522181079188,292.6939328350695 218.68693239812305,293.3764245102026 222.2292973139593,294.01802469961376 225.7789704988699,294.61787491452293 229.33575319834293,295.1740195258692 232.89943893407755,295.68406263867587 236.46973542624625,296.14556340574774 240.04623229522736,296.55625811738685 243.6283962711053,296.91417046688366 247.21557967365672,297.21767538687595 250.80703611876882,297.4655475371125 254.40194022535488,297.6570272082286 257.99941243761447,297.7919111658375 261.59855111185726,297.8706563470852 265.1984722121217,297.8944906054324 268.7983554280506,297.8654935077596 272.3974914942036,297.7866292109166 275.99532265982293,297.6616856088453 279.5914663873918,297.49510142392006 283.1857134636017,297.29166112516805 286.77799497973535,297.056048076199 290.3683181996172,296.7922694250974 293.95667814756433,296.50300676942084 297.5430251335203,296.189773156402 301.12733047521243,295.8539827194971 304.7096598458406,295.49772960676006 308.2902298628566,295.1242080501591 311.86943642282915,294.73783983064595 315.4478479626057,294.34417645669043 319.0261634192971,293.94964066312633 322.6051431173427,293.5611766094774 326.1855255299508,293.18586103627706 329.7679457091497,292.830522240663 333.3528690972914,292.5013956675104 336.9405505403007,292.20383581893077 340.53102317994535,291.9420988823649 344.12411630655356,291.71920477405064 347.7194971036077,291.536894806758 351.31672734595315,291.3957049220102 354.9153238606105,291.2951906210571 358.5148096744638,291.2343475781598 362.11474205081913,291.2122820922501 365.7147033824821,291.22896773072574 369.3143012253582,291.2827763690821 372.91327443009266,291.3687523634242 376.51156666379575,291.4796261694921 380.10932012950366,291.6067874843132 383.7068121481136,291.7411421494245 387.30436494974504,291.8738592902684 390.902258183077,291.99700262766135 394.5006661574586,292.1040542502851 398.0996325383725,292.19031541797784 401.6990835323972,292.2531846601764 405.2988711299973,292.29229031405004 408.89883006755804,292.30948472814913 412.4988299781496,292.3086823937159 416.09880604110003,292.29555432514525 419.69875857707933,292.27706814933134 423.2987222483913,292.26089517082085 426.8987168759342,292.25467571250863 430.4987016440653,292.26514801999656 434.0985594573151,292.2971437132152 437.69813019812506,292.35273581611483 441.29719641257805,292.4347259617595 444.8953941076573,292.5486265637164 448.49216853632726,292.7009870220576 452.08677062312586,292.89805512597985 455.678302152943,293.1448369533685 459.26580837196144,293.4445019805308 462.84840287281247,293.79807890635004 466.42539846187304,294.2044070444863 469.99641651463435,294.6602908749221 473.56145285554413,295.16080649704844 477.12088485519325,295.699734915184 480.6754181901256,296.2700793469571 484.22598403603376,296.8646230155553 487.7736064709855,297.47648497631695 491.31926552927195,298.0996236786871 494.8637829904922,298.72922352549796 498.4077532297725,299.36189638179565 501.95153687267026,299.99561358396886 505.49532710874325,300.6292939156139 509.0392910096891,301.26200227559707 512.583532493229,301.893153847215 516.1279323220758,302.5234155811558 519.6722136270216,303.1543434941634 523.2160099071195,303.78799002430793 526.7589211393805,304.42656656656345 530.3005618198321,305.0721525721201 533.8406039221566,305.72644754670773 537.3788175728905,306.39055910492664 540.9151086737683,307.0648329735084 544.4495547690747,307.74871220215437 547.9824345082641,308.4406375943934 551.5142475810724,309.13798716149756 555.0457181962202,309.8370689123307 558.5777771211697,310.5331721738403 562.1115149106603,311.22070198055866 565.6481052305113,311.89340467085793 569.1886979452039,312.5447135289779 572.7342921804341,313.1682209620551 576.2856029962354,313.7582984904968 579.8429431488003,314.3108661686596 583.406241523006,314.82360849808305 586.9752848134414,315.2947029588844 590.5497123200573,315.7230346060303 594.1290072326645,316.10858347269203 597.7125343498019,316.4525796946792 601.2996001021551,316.7574719515426 604.8895157067187,317.0267412444638 608.481648808045,317.26460629518994 612.0754568656414,317.47565994987076 615.6705022523669,317.66446849677527 619.2664529422636,317.8351689239295 622.8630742294322,317.9911026171667 626.4602168893696,318.13450653642315 630.0578037166919,318.2662981138367 633.6558137589126,318.3859799256521 637.2542609953739,318.4917035578441 640.8531653651498,318.5805142396771 644.4525172179342,318.6488241207876 648.0522444696588,318.69313792440875 651.6521998033005,318.7110710163015 655.2521872423564,318.7015610930773 658.8519712334349,318.66212484611896 662.4512328179733,318.5892136256703 666.0495538651636,318.4792789116462 669.6464393347189,318.32956278391924 673.2413721734297,318.13862330356426 676.8338895587146,317.9066344322248 680.4236637907785,317.6354869395007 684.010569868842,317.3287219037644 687.5947251261223,316.9913332677519 691.1764921015091,316.6294695723791 694.7564449986206,316.2500789366717 698.3353054784359,315.8605180736261 701.9138610838181,315.4681664721402 705.4928801437726,315.0800652373032 709.0730379744871,314.7026133765666 712.654864889651,314.3413434638877 716.2387230196523,314.00081313627516 719.8248115373892,313.6846341632949 723.4131959501935,313.3956751593806 727.0038224020388,313.1360568177541 730.5964575286141,312.90589850854525 734.1907655493046,312.7035378097936 737.7863960442012,312.52622073737984 741.3830349582929,312.37069414273935 744.9804275355797,312.2337027383284 748.5783831761032,312.1123964778772 752.1767703452822,312.00464778559797 755.7755069998957,311.9092827461898 756.0,311.90410199915823 756.0,345.27741751566714" stroke="rgb(255, 0, 0)" stroke-width="0.001pt" /></svg>