<?xml version="1.0" encoding="utf-8" ?>
<svg baseProfile="full" height="8.5in" version="1.1" width="11in" xmlns="http://www.w3.org/2000/svg" xmlns:ev="http://www.w3.org/2001/xml-events" xmlns:xlink="http://www.w3.org/1999/xlink"><defs /><polygon fill="none" points="756.0,349.89816705108814 754.3902604911,349.98772088071786 750.7959153075112,350.18942041272453 747.2018503293809,350.3960527746082 743.608322365155,350.61182295402585 740.0156600446527,350.84155638834187 736.4242609306968,351.09025782435924 732.8345800764059,351.36263874207714 729.2471015523449,351.66263514105805 725.6622884051264,351.9929602831993 722.0805143071376,352.3547534713271 718.5019901580729,352.7473918731169 714.9267001966688,353.16846394756914 711.3543490623765,353.6137811079398 707.7843408559369,354.07750667975336 704.2158056035014,354.5524342027771 700.6476732096136,355.0303789900568 697.0787856516883,355.50265179139825 693.5080290026903,355.96057859082794 689.9344624367344,356.39603467206126 686.3574198122429,356.80194853308444 682.7765662399548,357.17274186343315 679.1919020008218,357.50467904526295 675.6037156445346,357.7960871312099 672.0125002357228,358.0474273140528 668.41885328977,358.2612067046529 664.8233817646167,358.4417185098381 661.2266292667596,358.59459581082945 657.6290347886386,358.72617837423894 654.0309201728495,358.84267391769663 650.4324934553804,358.94909364803283 646.8338517722149,359.04797760114593 643.2350451691613,359.14066543107833 639.6361594442487,359.230228476029 636.0372939078887,359.3205991084228 632.4385477718084,359.4156056768692 628.8400121003501,359.5182751525734 625.2417576493561,359.63036844364126 621.6438176249426,359.7521369975557 618.0461701303614,359.8822619557055 614.4487284267002,360.01795716107273 610.8513455075434,360.1552019531725 607.2538354632125,360.28907308874085 603.6560085182584,360.4141381684494 600.0577119381118,360.52487082535464 596.4588668806387,360.61605334725994 592.859491761106,360.683126060704 589.2597064869644,360.7224450138121 585.6597176941441,360.7314278623381 582.0597904134353,360.70854613144576 578.4602165983075,360.6531534473976 574.8612926513937,360.5651396738725 571.2632750233415,360.44568613383973 567.6662872032713,360.29844951384996 564.0702927840446,360.1286727872624 560.4751202695703,359.94230060272724 556.8805157509931,359.7452768604403 553.2862028467372,359.5430029216877 549.6919345878478,359.33993721030225 546.0975292831887,359.13931192316517 542.5028876286198,358.9429668818772 538.9079944155133,358.7512828023071 535.3129101374462,358.5632162353809 531.7177591970435,358.3764283457282 528.122720488043,358.18749269322115 524.5280227685657,357.9921767809538 520.933944438106,357.78577679423097 517.3408133732465,357.5634951019069 513.7490004249938,357.3208436136276 510.1588983867955,357.05407150990584 506.57087921047696,356.76061215944947 502.9852257405289,356.4395371005467 499.402261405957,356.08972775649545 495.82264217308233,355.70720174740114 492.247276172636,355.28677581712043 488.67718760051673,354.8236693636741 485.11336199717766,354.31460446704057 481.55657854269265,353.7584646843403 478.00725095526946,353.1565729356374 474.4653060759674,352.5126579785308 470.93012675007697,351.8325792082424 467.4005744375833,351.12387583350045 463.8750917045161,350.39519792190646 460.35186895655505,349.65567005343235 456.82904712024003,348.91423474972606 453.30492070660745,348.17902524166925 449.7781063360833,347.4568200105441 446.24764834460416,346.7526422131087 442.71304533436904,346.06957445655974 439.17419433523787,345.4088675578912 435.631260445612,344.77041673461633 432.0844822715755,344.15367968839774 428.5340146187413,343.55854991584545 424.9801122900993,342.98428670226383 421.42315554538357,342.429256328121 417.86358732809157,341.8912283488814 414.30186259825797,341.36766655798004 410.7384040688761,340.85603846123814 407.17356808275224,340.3540978352313 403.6076169846718,339.86014159617895 400.0406977523587,339.3732255971039 396.47282685193306,338.8933326529013 392.90388330675415,338.42148313099244 389.33361128119407,337.95979312297476 385.7616373763678,337.5114601850368 382.1875039174966,337.0806817986506 378.6107201038963,336.67249366706557 375.03082939455385,336.2925166820214 371.44748618282176,335.9466100082874 367.86053137753925,335.64041525839673 364.2700504170019,335.37879249176683 360.6763951823433,335.1651524805078 357.08013449709324,335.00111259595263 353.4818983879967,334.8884320599519 349.8823913123205,334.82886015250267 346.282396123241,334.82297469547075 342.6826959876155,334.86943902132697 339.08395523414293,334.9646492586751 335.4866044951674,335.1027349595717 331.8907694808879,335.27585500486305 328.2962663499301,335.4747198874709 324.7026650156728,335.68926463903574 321.1094013725692,335.90939276343147 317.5159068855657,336.12571976561844 313.92172110204484,336.3302400666565 310.32656137335977,336.51685872928397 306.7303383961495,336.6817232135881 303.13312354941627,336.8233048029364 299.53508635514834,336.9421675332776 295.93642633652104,337.04038194328643 292.33731861255643,337.12052925327635 288.7378822384261,337.18423002711086 285.1381821849861,337.2307007196413 281.53829404469604,337.25907989156184 277.9383106282333,337.27000697687106 274.33831336590475,337.26556724409915 270.73835108592186,337.2490874777063 267.1384327840689,337.22483423082645 263.53853544754065,337.19764661495424 259.9386230472849,337.17253266495015 256.3386694692311,337.15425054643134 252.7386769750869,337.1468992128614 249.13868308011914,337.1535291597005 245.5387519968582,337.17580461191966 241.93895185610037,337.21373806153855 238.33932442719342,337.26552969272143 234.73985876870682,337.3275536669226 231.14048188354218,337.3945315628474 227.5410761378864,337.45994011076 223.94152357326195,337.5166969121635 220.34176244190982,337.55816734990486 216.74182581293047,337.5795277649897 213.1418258203376,337.5792968287418 209.54188343256658,337.5589300732461 205.94207923549178,337.5213835324932 202.34244366906066,337.4701605993093 198.74296997800673,337.40860454834257 195.14363528760063,337.3393962653167 191.54441977673605,337.26424504209564 187.94532006447196,337.1837387617159 184.34635691321077,337.097342952418 180.74757979200837,337.0035174126637 177.1490704790093,336.899928203482 173.55094639855963,336.7837253563209 169.95336231132086,336.65185900258973 166.35650787088278,336.50139925946564 162.76059794905112,336.32984217254494 159.1658544858781,336.1353699792243 155.5724813475351,335.9170365446913 151.9806358771705,335.6748669408573 148.39040591475916,335.4098220069239 144.8017999606667,335.12362748172814 141.2147868399491,334.81811664427715 137.62948892446195,334.4930953262018 134.04617166611462,334.1469198995321 130.4651114105862,333.7781280256049 126.8864647036204,333.3866082346327 123.31014753511855,332.9743516273128 119.7357439757582,332.5458201875887 116.16246817605408,332.10798453434774 112.58920210797724,331.6700694664057 109.01461566815657,331.24306620617216 105.43735581214293,330.8390712525486 101.85627273994399,330.4705010014292 98.2706328439592,330.14927438932784 94.68027112159518,329.88602032462353 91.08564327360457,329.68942267852793 87.48776762761302,329.56576655865933 83.88807413244906,329.51879059806015 80.28820867192233,329.54991399933203 76.6898581035861,329.65887815561433 73.09466471167104,329.8448471711258 69.50428141929645,330.10780689016536 65.92041178166943,330.44821608583317 62.34472793394941,330.8659301281566 58.77877977264954,331.359907567846 55.22390549197574,331.92812306271026 51.68116231134447,332.56763127695825 48.15128824988503,333.2747303578768 44.634695418225846,334.0451684516412 41.13149450471735,334.8743749154325 37.64153952792375,335.7576722945487 36.0,336.19805439180266 36.0,253.55534200466468 39.52597328064508,253.9483475881778 43.09876519715854,254.39011440596306 46.666556273616514,254.87060044607958 50.229601256470914,255.38510064059477 53.78829650707285,255.92887275586293 57.34310065616162,256.49752683491386 60.89445905574028,257.0873179146549 64.44273958272953,257.6953518789931 67.98819433972874,258.3196519399187 71.53095896113162,258.95904136533653 75.07109845746633,259.6128091731177 78.60875781812449,260.2798670776115 82.1444766949738,260.9571351367221 85.67903357074657,261.64044157744075 89.21317619571325,262.3258873494707 92.74743260423955,263.01074619535854 96.2820028342784,263.6939835544975 99.81673081423556,264.37640432477633 103.3511252917863,265.06055027196794 106.8844184652829,265.75036136938695 110.41564287398722,266.45068570522767 113.9437196084061,267.1666986632475 117.46755734828074,267.9032905333052 120.98616497975874,268.6644740431796 124.49876915786737,269.4528977160445 128.004929292784,270.2695011132463 131.5046297843756,271.11335919915507 134.99832157514308,271.9817586873653 138.48689225292583,272.8705075979775 141.9715457949875,273.77449304686326 145.45359332188428,274.6884651582716 148.93417669573012,275.60799730980733 152.41385082710826,276.5309642319761 155.89255416318167,277.457583409196 159.36995898135876,278.389063806477 162.84573200479,279.3266148128695 166.3197080023719,280.27080270107 169.79198379786726,281.22122408130997 173.26295319094484,282.1764054632048 176.73329145471695,283.1338773087435 180.2039046956773,284.09035194597686 183.67585696372237,285.0419545144984 187.1502909565399,285.98445567075976 190.62835517920558,286.91347088215986 194.11114212657577,287.82462129741947 197.59964316711793,288.7136435075673 201.0947186415752,289.5764571768189 204.597078185389,290.4092102169554 208.10725934737945,291.2083523882911 211.62560329344797,291.9707537767756 215.1522181079188,292.6939328350695 218.68693239812305,293.3764245102026 222.2292973139593,294.01802469961376 225.7789704988699,294.61787491452293 229.33575319834293,295.1740195258692 232.89943893407755,295.68406263867587 236.46973542624625,296.14556340574774 240.04623229522736,296.55625811738685 243.6283962711053,296.91417046688366 247.21557967365672,297.21767538687595 250.80703611876882,297.4655475371125 254.40194022535488,297.6570272082286 257.99941243761447,297.7919111658375 261.59855111185726,297.8706563470852 265.1984722121217,297.8944906054324 268.7983554280506,297.8654935077596 272.3974914942036,297.7866292109166 275.99532265982293,297.6616856088453 279.5914663873918,297.49510142392006 283.1857134636017,297.29166112516805 286.77799497973535,297.056048076199 290.3683181996172,296.7922694250974 293.95667814756433,296.50300676942084 297.5430251335203,296.189773156402 301.12733047521243,295.8539827194971 304.7096598458406,295.49772960676006 308.2902298628566,295.1242080501591 311.86943642282915,294.73783983064595 315.4478479626057,294.34417645669043 319.0261634192971,293.94964066312633 322.6051431173427,293.5611766094774 326.1855255299508,293.18586103627706 329.7679457091497,292.830522240663 333.3528690972914,292.5013956675104 336.9405505403007,292.20383581893077 340.53102317994535,291.9420988823649 344.12411630655356,291.71920477405064 347.7194971036077,291.536894806758 351.31672734595315,291.3957049220102 354.9153238606105,291.2951906210571 358.5148096744638,291.2343475781598 362.11474205081913,291.2122820922501 365.7147033824821,291.22896773072574 369.3143012253582,291.2827763690821 372.91327443009266,291.3687523634242 376.51156666379575,291.4796261694921 380.10932012950366,291.6067874843132 383.7068121481136,291.7411421494245 387.30436494974504,291.8738592902684 390.902258183077,291.99700262766135 394.5006661574586,292.1040542502851 398.0996325383725,292.19031541797784 401.6990835323972,292.2531846601764 405.2988711299973,292.29229031405004 408.89883006755804,292.30948472814913 412.4988299781496,292.3086823937159 416.09880604110003,292.29555432514525 419.69875857707933,292.27706814933134 423.2987222483913,292.26089517082085 426.8987168759342,292.25467571250863 430.4987016440653,292.26514801999656 434.0985594573151,292.2971437132152 437.69813019812506,292.35273581611483 441.29719641257805,292.4347259617595 444.8953941076573,292.5486265637164 448.49216853632726,292.7009870220576 452.08677062312586,292.89805512597985 455.678302152943,293.1448369533685 459.26580837196144,293.4445019805308 462.84840287281247,293.79807890635004 466.42539846187304,294.2044070444863 469.99641651463435,294.6602908749221 473.56145285554413,295.16080649704844 477.12088485519325,295.699734915184 480.6754181901256,296.2700793469571 484.22598403603376,296.8646230155553 487.7736064709855,297.47648497631695 491.31926552927195,298.0996236786871 494.8637829904922,298.72922352549796 498.4077532297725,299.36189638179565 501.95153687267026,299.99561358396886 505.49532710874325,300.6292939156139 509.0392910096891,301.26200227559707 512.583532493229,301.893153847215 516.1279323220758,302.5234155811558 519.6722136270216,303.1543434941634 523.2160099071195,303.78799002430793 526.7589211393805,304.42656656656345 530.3005618198321,305.0721525721201 533.8406039221566,305.72644754670773 537.3788175728905,306.39055910492664 540.9151086737683,307.0648329735084 544.4495547690747,307.74871220215437 547.9824345082641,308.4406375943934 551.5142475810724,309.13798716149756 555.0457181962202,309.8370689123307 558.5777771211697,310.5331721738403 562.1115149106603,311.22070198055866 565.6481052305113,311.89340467085793 569.1886979452039,312.5447135289779 572.7342921804341,313.1682209620551 576.2856029962354,313.7582984904968 579.8429431488003,314.3108661686596 583.406241523006,314.82360849808305 586.9752848134414,315.2947029588844 590.5497123200573,315.7230346060303 594.1290072326645,316.10858347269203 597.7125343498019,316.4525796946792 601.2996001021551,316.7574719515426 604.8895157067187,317.0267412444638 608.481648808045,317.26460629518994 612.0754568656414,317.47565994987076 615.6705022523669,317.66446849677527 619.2664529422636,317.8351689239295 622.8630742294322,317.9911026171667 626.4602168893696,318.13450653642315 630.0578037166919,318.2662981138367 633.6558137589126,318.3859799256521 637.2542609953739,318.4917035578441 640.8531653651498,318.5805142396771 644.4525172179342,318.6488241207876 648.0522444696588,318.69313792440875 651.6521998033005,318.7110710163015 655.2521872423564,318.7015610930773 658.8519712334349,318.66212484611896 662.4512328179733,318.5892136256703 666.0495538651636,318.4792789116462 669.6464393347189,318.32956278391924 673.2413721734297,318.13862330356426 676.8338895587146,317.9066344322248 680.4236637907785,317.6354869395007 684.010569868842,317.3287219037644 687.5947251261223,316.9913332677519 691.1764921015091,316.6294695723791 694.7564449986206,316.2500789366717 698.3353054784359,315.8605180736261 701.9138610838181,315.4681664721402 705.4928801437726,315.0800652373032 709.0730379744871,314.7026133765666 712.654864889651,314.3413434638877 716.2387230196523,314.00081313627516 719.8248115373892,313.6846341632949 723.4131959501935,313.3956751593806 727.0038224020388,313.1360568177541 730.5964575286141,312.90589850854525 734.1907655493046,312.7035378097936 737.7863960442012,312.52622073737984 741.3830349582929,312.37069414273935 744.9804275355797,312.2337027383284 748.5783831761032,312.1123964778772 752.1767703452822,312.00464778559797 755.7755069998957,311.9092827461898 756.0,311.90410199915823 756.0,349.89816705108814" stroke="rgb(255, 0, 0)" stroke-width="0.001pt" /></svg>