<?xml version="1.0" encoding="utf-8" standalone="no"?>
<!DOCTYPE svg PUBLIC "-//W3C//DTD SVG 1.1//EN"
  "http://www.w3.org/Graphics/SVG/1.1/DTD/svg11.dtd">
<!-- Created with matplotlib (https://matplotlib.org/) -->
<svg height="918pt" version="1.1" viewBox="0 0 648 918" width="648pt" xmlns="http://www.w3.org/2000/svg" xmlns:xlink="http://www.w3.org/1999/xlink">
 <metadata>
  <rdf:RDF xmlns:cc="http://creativecommons.org/ns#" xmlns:dc="http://purl.org/dc/elements/1.1/" xmlns:rdf="http://www.w3.org/1999/02/22-rdf-syntax-ns#">
   <cc:Work>
    <dc:type rdf:resource="http://purl.org/dc/dcmitype/StillImage"/>
    <dc:date>2021-05-25T16:54:32.824291</dc:date>
    <dc:format>image/svg+xml</dc:format>
    <dc:creator>
     <cc:Agent>
      <dc:title>Matplotlib v3.3.2, https://matplotlib.org/</dc:title>
     </cc:Agent>
    </dc:creator>
   </cc:Work>
  </rdf:RDF>
 </metadata>
 <defs>
  <style type="text/css">*{stroke-linecap:butt;stroke-linejoin:round;}</style>
 </defs>
 <g id="figure_1">
  <g id="axes_1">
   <g id="LineCollection_1">
    <path clip-path="url(#p6ea8414697)" d="M 594 864 
L 594 54 
" style="fill:none;stroke:#000000;stroke-width:2.834647;"/>
    <path clip-path="url(#p6ea8414697)" d="M 534 54 
L 534 864 
" style="fill:none;stroke:#000000;stroke-width:2.834647;"/>
    <path clip-path="url(#p6ea8414697)" d="M 474 864 
L 474 54 
" style="fill:none;stroke:#000000;stroke-width:2.834647;"/>
    <path clip-path="url(#p6ea8414697)" d="M 414 54 
L 414 864 
" style="fill:none;stroke:#000000;stroke-width:2.834647;"/>
    <path clip-path="url(#p6ea8414697)" d="M 354 864 
L 354 54 
" style="fill:none;stroke:#000000;stroke-width:2.834647;"/>
    <path clip-path="url(#p6ea8414697)" d="M 294 54 
L 294 864 
" style="fill:none;stroke:#000000;stroke-width:2.834647;"/>
    <path clip-path="url(#p6ea8414697)" d="M 234 864 
L 234 54 
" style="fill:none;stroke:#000000;stroke-width:2.834647;"/>
    <path clip-path="url(#p6ea8414697)" d="M 174 54 
L 174 864 
" style="fill:none;stroke:#000000;stroke-width:2.834647;"/>
    <path clip-path="url(#p6ea8414697)" d="M 114 864 
L 114 54 
" style="fill:none;stroke:#000000;stroke-width:2.834647;"/>
    <path clip-path="url(#p6ea8414697)" d="M 54 54 
L 54 864 
" style="fill:none;stroke:#000000;stroke-width:2.834647;"/>
    <path clip-path="url(#p6ea8414697)" d="M 54 54 
L 594 54 
" style="fill:none;stroke:#000000;stroke-width:2.834647;"/>
    <path clip-path="url(#p6ea8414697)" d="M 594 67.728814 
L 54 67.728814 
" style="fill:none;stroke:#000000;stroke-width:2.834647;"/>
    <path clip-path="url(#p6ea8414697)" d="M 54 81.457627 
L 594 81.457627 
" style="fill:none;stroke:#000000;stroke-width:2.834647;"/>
    <path clip-path="url(#p6ea8414697)" d="M 594 95.186441 
L 54 95.186441 
" style="fill:none;stroke:#000000;stroke-width:2.834647;"/>
    <path clip-path="url(#p6ea8414697)" d="M 54 108.915254 
L 594 108.915254 
" style="fill:none;stroke:#000000;stroke-width:2.834647;"/>
    <path clip-path="url(#p6ea8414697)" d="M 594 122.644068 
L 54 122.644068 
" style="fill:none;stroke:#000000;stroke-width:2.834647;"/>
    <path clip-path="url(#p6ea8414697)" d="M 54 136.372881 
L 594 136.372881 
" style="fill:none;stroke:#000000;stroke-width:2.834647;"/>
    <path clip-path="url(#p6ea8414697)" d="M 594 150.101695 
L 54 150.101695 
" style="fill:none;stroke:#000000;stroke-width:2.834647;"/>
    <path clip-path="url(#p6ea8414697)" d="M 54 163.830508 
L 594 163.830508 
" style="fill:none;stroke:#000000;stroke-width:2.834647;"/>
    <path clip-path="url(#p6ea8414697)" d="M 594 177.559322 
L 54 177.559322 
" style="fill:none;stroke:#000000;stroke-width:2.834647;"/>
    <path clip-path="url(#p6ea8414697)" d="M 54 191.288136 
L 594 191.288136 
" style="fill:none;stroke:#000000;stroke-width:2.834647;"/>
    <path clip-path="url(#p6ea8414697)" d="M 594 205.016949 
L 54 205.016949 
" style="fill:none;stroke:#000000;stroke-width:2.834647;"/>
    <path clip-path="url(#p6ea8414697)" d="M 54 218.745763 
L 594 218.745763 
" style="fill:none;stroke:#000000;stroke-width:2.834647;"/>
    <path clip-path="url(#p6ea8414697)" d="M 594 232.474576 
L 54 232.474576 
" style="fill:none;stroke:#000000;stroke-width:2.834647;"/>
    <path clip-path="url(#p6ea8414697)" d="M 54 246.20339 
L 594 246.20339 
" style="fill:none;stroke:#000000;stroke-width:2.834647;"/>
    <path clip-path="url(#p6ea8414697)" d="M 594 259.932203 
L 54 259.932203 
" style="fill:none;stroke:#000000;stroke-width:2.834647;"/>
    <path clip-path="url(#p6ea8414697)" d="M 54 273.661017 
L 594 273.661017 
" style="fill:none;stroke:#000000;stroke-width:2.834647;"/>
    <path clip-path="url(#p6ea8414697)" d="M 594 287.389831 
L 54 287.389831 
" style="fill:none;stroke:#000000;stroke-width:2.834647;"/>
    <path clip-path="url(#p6ea8414697)" d="M 54 301.118644 
L 594 301.118644 
" style="fill:none;stroke:#000000;stroke-width:2.834647;"/>
    <path clip-path="url(#p6ea8414697)" d="M 594 314.847458 
L 54 314.847458 
" style="fill:none;stroke:#000000;stroke-width:2.834647;"/>
    <path clip-path="url(#p6ea8414697)" d="M 54 328.576271 
L 594 328.576271 
" style="fill:none;stroke:#000000;stroke-width:2.834647;"/>
    <path clip-path="url(#p6ea8414697)" d="M 594 342.305085 
L 54 342.305085 
" style="fill:none;stroke:#000000;stroke-width:2.834647;"/>
    <path clip-path="url(#p6ea8414697)" d="M 54 356.033898 
L 594 356.033898 
" style="fill:none;stroke:#000000;stroke-width:2.834647;"/>
    <path clip-path="url(#p6ea8414697)" d="M 594 369.762712 
L 54 369.762712 
" style="fill:none;stroke:#000000;stroke-width:2.834647;"/>
    <path clip-path="url(#p6ea8414697)" d="M 54 383.491525 
L 594 383.491525 
" style="fill:none;stroke:#000000;stroke-width:2.834647;"/>
    <path clip-path="url(#p6ea8414697)" d="M 594 397.220339 
L 54 397.220339 
" style="fill:none;stroke:#000000;stroke-width:2.834647;"/>
    <path clip-path="url(#p6ea8414697)" d="M 54 410.949153 
L 594 410.949153 
" style="fill:none;stroke:#000000;stroke-width:2.834647;"/>
    <path clip-path="url(#p6ea8414697)" d="M 594 424.677966 
L 54 424.677966 
" style="fill:none;stroke:#000000;stroke-width:2.834647;"/>
    <path clip-path="url(#p6ea8414697)" d="M 54 438.40678 
L 594 438.40678 
" style="fill:none;stroke:#000000;stroke-width:2.834647;"/>
    <path clip-path="url(#p6ea8414697)" d="M 594 452.135593 
L 54 452.135593 
" style="fill:none;stroke:#000000;stroke-width:2.834647;"/>
    <path clip-path="url(#p6ea8414697)" d="M 54 465.864407 
L 594 465.864407 
" style="fill:none;stroke:#000000;stroke-width:2.834647;"/>
    <path clip-path="url(#p6ea8414697)" d="M 594 479.59322 
L 54 479.59322 
" style="fill:none;stroke:#000000;stroke-width:2.834647;"/>
    <path clip-path="url(#p6ea8414697)" d="M 54 493.322034 
L 594 493.322034 
" style="fill:none;stroke:#000000;stroke-width:2.834647;"/>
    <path clip-path="url(#p6ea8414697)" d="M 594 507.050847 
L 54 507.050847 
" style="fill:none;stroke:#000000;stroke-width:2.834647;"/>
    <path clip-path="url(#p6ea8414697)" d="M 54 520.779661 
L 594 520.779661 
" style="fill:none;stroke:#000000;stroke-width:2.834647;"/>
    <path clip-path="url(#p6ea8414697)" d="M 594 534.508475 
L 54 534.508475 
" style="fill:none;stroke:#000000;stroke-width:2.834647;"/>
    <path clip-path="url(#p6ea8414697)" d="M 54 548.237288 
L 594 548.237288 
" style="fill:none;stroke:#000000;stroke-width:2.834647;"/>
    <path clip-path="url(#p6ea8414697)" d="M 594 561.966102 
L 54 561.966102 
" style="fill:none;stroke:#000000;stroke-width:2.834647;"/>
    <path clip-path="url(#p6ea8414697)" d="M 54 575.694915 
L 594 575.694915 
" style="fill:none;stroke:#000000;stroke-width:2.834647;"/>
    <path clip-path="url(#p6ea8414697)" d="M 594 589.423729 
L 54 589.423729 
" style="fill:none;stroke:#000000;stroke-width:2.834647;"/>
    <path clip-path="url(#p6ea8414697)" d="M 54 603.152542 
L 594 603.152542 
" style="fill:none;stroke:#000000;stroke-width:2.834647;"/>
    <path clip-path="url(#p6ea8414697)" d="M 594 616.881356 
L 54 616.881356 
" style="fill:none;stroke:#000000;stroke-width:2.834647;"/>
    <path clip-path="url(#p6ea8414697)" d="M 54 630.610169 
L 594 630.610169 
" style="fill:none;stroke:#000000;stroke-width:2.834647;"/>
    <path clip-path="url(#p6ea8414697)" d="M 594 644.338983 
L 54 644.338983 
" style="fill:none;stroke:#000000;stroke-width:2.834647;"/>
    <path clip-path="url(#p6ea8414697)" d="M 54 658.067797 
L 594 658.067797 
" style="fill:none;stroke:#000000;stroke-width:2.834647;"/>
    <path clip-path="url(#p6ea8414697)" d="M 594 671.79661 
L 54 671.79661 
" style="fill:none;stroke:#000000;stroke-width:2.834647;"/>
    <path clip-path="url(#p6ea8414697)" d="M 54 685.525424 
L 594 685.525424 
" style="fill:none;stroke:#000000;stroke-width:2.834647;"/>
    <path clip-path="url(#p6ea8414697)" d="M 594 699.254237 
L 54 699.254237 
" style="fill:none;stroke:#000000;stroke-width:2.834647;"/>
    <path clip-path="url(#p6ea8414697)" d="M 54 712.983051 
L 594 712.983051 
" style="fill:none;stroke:#000000;stroke-width:2.834647;"/>
    <path clip-path="url(#p6ea8414697)" d="M 594 726.711864 
L 54 726.711864 
" style="fill:none;stroke:#000000;stroke-width:2.834647;"/>
    <path clip-path="url(#p6ea8414697)" d="M 54 740.440678 
L 594 740.440678 
" style="fill:none;stroke:#000000;stroke-width:2.834647;"/>
    <path clip-path="url(#p6ea8414697)" d="M 594 754.169492 
L 54 754.169492 
" style="fill:none;stroke:#000000;stroke-width:2.834647;"/>
    <path clip-path="url(#p6ea8414697)" d="M 54 767.898305 
L 594 767.898305 
" style="fill:none;stroke:#000000;stroke-width:2.834647;"/>
    <path clip-path="url(#p6ea8414697)" d="M 594 781.627119 
L 54 781.627119 
" style="fill:none;stroke:#000000;stroke-width:2.834647;"/>
    <path clip-path="url(#p6ea8414697)" d="M 54 795.355932 
L 594 795.355932 
" style="fill:none;stroke:#000000;stroke-width:2.834647;"/>
    <path clip-path="url(#p6ea8414697)" d="M 594 809.084746 
L 54 809.084746 
" style="fill:none;stroke:#000000;stroke-width:2.834647;"/>
    <path clip-path="url(#p6ea8414697)" d="M 54 822.813559 
L 594 822.813559 
" style="fill:none;stroke:#000000;stroke-width:2.834647;"/>
    <path clip-path="url(#p6ea8414697)" d="M 594 836.542373 
L 54 836.542373 
" style="fill:none;stroke:#000000;stroke-width:2.834647;"/>
    <path clip-path="url(#p6ea8414697)" d="M 54 850.271186 
L 594 850.271186 
" style="fill:none;stroke:#000000;stroke-width:2.834647;"/>
    <path clip-path="url(#p6ea8414697)" d="M 594 864 
L 54 864 
" style="fill:none;stroke:#000000;stroke-width:2.834647;"/>
   </g>
  </g>
 </g>
 <defs>
  <clipPath id="p6ea8414697">
   <rect height="918" width="648" x="0" y="0"/>
  </clipPath>
 </defs>
</svg>
