<?xml version="1.0" encoding="utf-8" standalone="no"?>
<!DOCTYPE svg PUBLIC "-//W3C//DTD SVG 1.1//EN"
  "http://www.w3.org/Graphics/SVG/1.1/DTD/svg11.dtd">
<!-- Created with matplotlib (https://matplotlib.org/) -->
<svg height="864pt" version="1.1" viewBox="0 0 648 864" width="648pt" xmlns="http://www.w3.org/2000/svg" xmlns:xlink="http://www.w3.org/1999/xlink">
 <metadata>
  <rdf:RDF xmlns:cc="http://creativecommons.org/ns#" xmlns:dc="http://purl.org/dc/elements/1.1/" xmlns:rdf="http://www.w3.org/1999/02/22-rdf-syntax-ns#">
   <cc:Work>
    <dc:type rdf:resource="http://purl.org/dc/dcmitype/StillImage"/>
    <dc:date>2020-12-17T19:20:10.301680</dc:date>
    <dc:format>image/svg+xml</dc:format>
    <dc:creator>
     <cc:Agent>
      <dc:title>Matplotlib v3.3.2, https://matplotlib.org/</dc:title>
     </cc:Agent>
    </dc:creator>
   </cc:Work>
  </rdf:RDF>
 </metadata>
 <defs>
  <style type="text/css">*{stroke-linecap:butt;stroke-linejoin:round;}</style>
 </defs>
 <g id="figure_1">
  <g id="axes_1">
   <g id="LineCollection_1">
    <path clip-path="url(#p6c395b547a)" d="M 576 792 
L 576 72 
L 72 72 
L 72 792 
L 576 792 
" style="fill:none;stroke:#1e90ff;stroke-opacity:0.7;stroke-width:1.417324;"/>
    <path clip-path="url(#p6c395b547a)" d="M 72 792 
L 576 792 
" style="fill:none;stroke:#1e90ff;stroke-opacity:0.7;stroke-width:1.417324;"/>
    <path clip-path="url(#p6c395b547a)" d="M 576 786.6 
L 72 786.6 
" style="fill:none;stroke:#1e90ff;stroke-opacity:0.7;stroke-width:1.417324;"/>
    <path clip-path="url(#p6c395b547a)" d="M 72 781.2 
L 576 781.2 
" style="fill:none;stroke:#1e90ff;stroke-opacity:0.7;stroke-width:1.417324;"/>
    <path clip-path="url(#p6c395b547a)" d="M 576 775.8 
L 72 775.8 
" style="fill:none;stroke:#1e90ff;stroke-opacity:0.7;stroke-width:1.417324;"/>
    <path clip-path="url(#p6c395b547a)" d="M 72 770.4 
L 576 770.4 
" style="fill:none;stroke:#1e90ff;stroke-opacity:0.7;stroke-width:1.417324;"/>
    <path clip-path="url(#p6c395b547a)" d="M 576 765 
L 72 765 
" style="fill:none;stroke:#1e90ff;stroke-opacity:0.7;stroke-width:1.417324;"/>
    <path clip-path="url(#p6c395b547a)" d="M 72 759.6 
L 576 759.6 
" style="fill:none;stroke:#1e90ff;stroke-opacity:0.7;stroke-width:1.417324;"/>
    <path clip-path="url(#p6c395b547a)" d="M 576 754.2 
L 72 754.2 
" style="fill:none;stroke:#1e90ff;stroke-opacity:0.7;stroke-width:1.417324;"/>
    <path clip-path="url(#p6c395b547a)" d="M 72 748.8 
L 576 748.8 
" style="fill:none;stroke:#1e90ff;stroke-opacity:0.7;stroke-width:1.417324;"/>
    <path clip-path="url(#p6c395b547a)" d="M 576 743.4 
L 72 743.4 
" style="fill:none;stroke:#1e90ff;stroke-opacity:0.7;stroke-width:1.417324;"/>
    <path clip-path="url(#p6c395b547a)" d="M 72 738 
L 576 738 
" style="fill:none;stroke:#1e90ff;stroke-opacity:0.7;stroke-width:1.417324;"/>
    <path clip-path="url(#p6c395b547a)" d="M 576 732.6 
L 72 732.6 
" style="fill:none;stroke:#1e90ff;stroke-opacity:0.7;stroke-width:1.417324;"/>
    <path clip-path="url(#p6c395b547a)" d="M 72 727.2 
L 576 727.2 
" style="fill:none;stroke:#1e90ff;stroke-opacity:0.7;stroke-width:1.417324;"/>
    <path clip-path="url(#p6c395b547a)" d="M 576 721.8 
L 72 721.8 
" style="fill:none;stroke:#1e90ff;stroke-opacity:0.7;stroke-width:1.417324;"/>
    <path clip-path="url(#p6c395b547a)" d="M 72 716.4 
L 576 716.4 
" style="fill:none;stroke:#1e90ff;stroke-opacity:0.7;stroke-width:1.417324;"/>
    <path clip-path="url(#p6c395b547a)" d="M 576 711 
L 72 711 
" style="fill:none;stroke:#1e90ff;stroke-opacity:0.7;stroke-width:1.417324;"/>
    <path clip-path="url(#p6c395b547a)" d="M 72 705.6 
L 576 705.6 
" style="fill:none;stroke:#1e90ff;stroke-opacity:0.7;stroke-width:1.417324;"/>
    <path clip-path="url(#p6c395b547a)" d="M 576 700.2 
L 72 700.2 
" style="fill:none;stroke:#1e90ff;stroke-opacity:0.7;stroke-width:1.417324;"/>
    <path clip-path="url(#p6c395b547a)" d="M 72 694.8 
L 576 694.8 
" style="fill:none;stroke:#1e90ff;stroke-opacity:0.7;stroke-width:1.417324;"/>
    <path clip-path="url(#p6c395b547a)" d="M 576 689.4 
L 72 689.4 
" style="fill:none;stroke:#1e90ff;stroke-opacity:0.7;stroke-width:1.417324;"/>
    <path clip-path="url(#p6c395b547a)" d="M 72 684 
L 576 684 
" style="fill:none;stroke:#1e90ff;stroke-opacity:0.7;stroke-width:1.417324;"/>
    <path clip-path="url(#p6c395b547a)" d="M 576 678.6 
L 72 678.6 
" style="fill:none;stroke:#1e90ff;stroke-opacity:0.7;stroke-width:1.417324;"/>
    <path clip-path="url(#p6c395b547a)" d="M 72 673.2 
L 576 673.2 
" style="fill:none;stroke:#1e90ff;stroke-opacity:0.7;stroke-width:1.417324;"/>
    <path clip-path="url(#p6c395b547a)" d="M 576 667.8 
L 72 667.8 
" style="fill:none;stroke:#1e90ff;stroke-opacity:0.7;stroke-width:1.417324;"/>
    <path clip-path="url(#p6c395b547a)" d="M 72 594 
L 576 594 
" style="fill:none;stroke:#1e90ff;stroke-opacity:0.7;stroke-width:1.417324;"/>
    <path clip-path="url(#p6c395b547a)" d="M 576 588.6 
L 72 588.6 
" style="fill:none;stroke:#1e90ff;stroke-opacity:0.7;stroke-width:1.417324;"/>
    <path clip-path="url(#p6c395b547a)" d="M 72 583.2 
L 576 583.2 
" style="fill:none;stroke:#1e90ff;stroke-opacity:0.7;stroke-width:1.417324;"/>
    <path clip-path="url(#p6c395b547a)" d="M 576 577.8 
L 72 577.8 
" style="fill:none;stroke:#1e90ff;stroke-opacity:0.7;stroke-width:1.417324;"/>
    <path clip-path="url(#p6c395b547a)" d="M 72 572.4 
L 576 572.4 
" style="fill:none;stroke:#1e90ff;stroke-opacity:0.7;stroke-width:1.417324;"/>
    <path clip-path="url(#p6c395b547a)" d="M 576 567 
L 72 567 
" style="fill:none;stroke:#1e90ff;stroke-opacity:0.7;stroke-width:1.417324;"/>
    <path clip-path="url(#p6c395b547a)" d="M 72 561.6 
L 576 561.6 
" style="fill:none;stroke:#1e90ff;stroke-opacity:0.7;stroke-width:1.417324;"/>
    <path clip-path="url(#p6c395b547a)" d="M 576 556.2 
L 72 556.2 
" style="fill:none;stroke:#1e90ff;stroke-opacity:0.7;stroke-width:1.417324;"/>
    <path clip-path="url(#p6c395b547a)" d="M 72 550.8 
L 576 550.8 
" style="fill:none;stroke:#1e90ff;stroke-opacity:0.7;stroke-width:1.417324;"/>
    <path clip-path="url(#p6c395b547a)" d="M 576 545.4 
L 72 545.4 
" style="fill:none;stroke:#1e90ff;stroke-opacity:0.7;stroke-width:1.417324;"/>
    <path clip-path="url(#p6c395b547a)" d="M 72 540 
L 576 540 
" style="fill:none;stroke:#1e90ff;stroke-opacity:0.7;stroke-width:1.417324;"/>
    <path clip-path="url(#p6c395b547a)" d="M 576 534.6 
L 72 534.6 
" style="fill:none;stroke:#1e90ff;stroke-opacity:0.7;stroke-width:1.417324;"/>
    <path clip-path="url(#p6c395b547a)" d="M 72 529.2 
L 576 529.2 
" style="fill:none;stroke:#1e90ff;stroke-opacity:0.7;stroke-width:1.417324;"/>
    <path clip-path="url(#p6c395b547a)" d="M 576 523.8 
L 72 523.8 
" style="fill:none;stroke:#1e90ff;stroke-opacity:0.7;stroke-width:1.417324;"/>
    <path clip-path="url(#p6c395b547a)" d="M 72 518.4 
L 576 518.4 
" style="fill:none;stroke:#1e90ff;stroke-opacity:0.7;stroke-width:1.417324;"/>
    <path clip-path="url(#p6c395b547a)" d="M 576 513 
L 72 513 
" style="fill:none;stroke:#1e90ff;stroke-opacity:0.7;stroke-width:1.417324;"/>
    <path clip-path="url(#p6c395b547a)" d="M 72 507.6 
L 576 507.6 
" style="fill:none;stroke:#1e90ff;stroke-opacity:0.7;stroke-width:1.417324;"/>
    <path clip-path="url(#p6c395b547a)" d="M 576 502.2 
L 72 502.2 
" style="fill:none;stroke:#1e90ff;stroke-opacity:0.7;stroke-width:1.417324;"/>
    <path clip-path="url(#p6c395b547a)" d="M 72 496.8 
L 576 496.8 
" style="fill:none;stroke:#1e90ff;stroke-opacity:0.7;stroke-width:1.417324;"/>
    <path clip-path="url(#p6c395b547a)" d="M 576 491.4 
L 72 491.4 
" style="fill:none;stroke:#1e90ff;stroke-opacity:0.7;stroke-width:1.417324;"/>
    <path clip-path="url(#p6c395b547a)" d="M 72 486 
L 576 486 
" style="fill:none;stroke:#1e90ff;stroke-opacity:0.7;stroke-width:1.417324;"/>
    <path clip-path="url(#p6c395b547a)" d="M 576 480.6 
L 72 480.6 
" style="fill:none;stroke:#1e90ff;stroke-opacity:0.7;stroke-width:1.417324;"/>
    <path clip-path="url(#p6c395b547a)" d="M 72 475.2 
L 576 475.2 
" style="fill:none;stroke:#1e90ff;stroke-opacity:0.7;stroke-width:1.417324;"/>
    <path clip-path="url(#p6c395b547a)" d="M 576 469.8 
L 72 469.8 
" style="fill:none;stroke:#1e90ff;stroke-opacity:0.7;stroke-width:1.417324;"/>
    <path clip-path="url(#p6c395b547a)" d="M 72 396 
L 576 396 
" style="fill:none;stroke:#1e90ff;stroke-opacity:0.7;stroke-width:1.417324;"/>
    <path clip-path="url(#p6c395b547a)" d="M 576 390.6 
L 72 390.6 
" style="fill:none;stroke:#1e90ff;stroke-opacity:0.7;stroke-width:1.417324;"/>
    <path clip-path="url(#p6c395b547a)" d="M 72 385.2 
L 576 385.2 
" style="fill:none;stroke:#1e90ff;stroke-opacity:0.7;stroke-width:1.417324;"/>
    <path clip-path="url(#p6c395b547a)" d="M 576 379.8 
L 72 379.8 
" style="fill:none;stroke:#1e90ff;stroke-opacity:0.7;stroke-width:1.417324;"/>
    <path clip-path="url(#p6c395b547a)" d="M 72 374.4 
L 576 374.4 
" style="fill:none;stroke:#1e90ff;stroke-opacity:0.7;stroke-width:1.417324;"/>
    <path clip-path="url(#p6c395b547a)" d="M 576 369 
L 72 369 
" style="fill:none;stroke:#1e90ff;stroke-opacity:0.7;stroke-width:1.417324;"/>
    <path clip-path="url(#p6c395b547a)" d="M 72 363.6 
L 576 363.6 
" style="fill:none;stroke:#1e90ff;stroke-opacity:0.7;stroke-width:1.417324;"/>
    <path clip-path="url(#p6c395b547a)" d="M 576 358.2 
L 72 358.2 
" style="fill:none;stroke:#1e90ff;stroke-opacity:0.7;stroke-width:1.417324;"/>
    <path clip-path="url(#p6c395b547a)" d="M 72 352.8 
L 576 352.8 
" style="fill:none;stroke:#1e90ff;stroke-opacity:0.7;stroke-width:1.417324;"/>
    <path clip-path="url(#p6c395b547a)" d="M 576 347.4 
L 72 347.4 
" style="fill:none;stroke:#1e90ff;stroke-opacity:0.7;stroke-width:1.417324;"/>
    <path clip-path="url(#p6c395b547a)" d="M 72 342 
L 576 342 
" style="fill:none;stroke:#1e90ff;stroke-opacity:0.7;stroke-width:1.417324;"/>
    <path clip-path="url(#p6c395b547a)" d="M 576 336.6 
L 72 336.6 
" style="fill:none;stroke:#1e90ff;stroke-opacity:0.7;stroke-width:1.417324;"/>
    <path clip-path="url(#p6c395b547a)" d="M 72 331.2 
L 576 331.2 
" style="fill:none;stroke:#1e90ff;stroke-opacity:0.7;stroke-width:1.417324;"/>
    <path clip-path="url(#p6c395b547a)" d="M 576 325.8 
L 72 325.8 
" style="fill:none;stroke:#1e90ff;stroke-opacity:0.7;stroke-width:1.417324;"/>
    <path clip-path="url(#p6c395b547a)" d="M 72 320.4 
L 576 320.4 
" style="fill:none;stroke:#1e90ff;stroke-opacity:0.7;stroke-width:1.417324;"/>
    <path clip-path="url(#p6c395b547a)" d="M 576 315 
L 72 315 
" style="fill:none;stroke:#1e90ff;stroke-opacity:0.7;stroke-width:1.417324;"/>
    <path clip-path="url(#p6c395b547a)" d="M 72 309.6 
L 576 309.6 
" style="fill:none;stroke:#1e90ff;stroke-opacity:0.7;stroke-width:1.417324;"/>
    <path clip-path="url(#p6c395b547a)" d="M 576 304.2 
L 72 304.2 
" style="fill:none;stroke:#1e90ff;stroke-opacity:0.7;stroke-width:1.417324;"/>
    <path clip-path="url(#p6c395b547a)" d="M 72 298.8 
L 576 298.8 
" style="fill:none;stroke:#1e90ff;stroke-opacity:0.7;stroke-width:1.417324;"/>
    <path clip-path="url(#p6c395b547a)" d="M 576 293.4 
L 72 293.4 
" style="fill:none;stroke:#1e90ff;stroke-opacity:0.7;stroke-width:1.417324;"/>
    <path clip-path="url(#p6c395b547a)" d="M 72 288 
L 576 288 
" style="fill:none;stroke:#1e90ff;stroke-opacity:0.7;stroke-width:1.417324;"/>
    <path clip-path="url(#p6c395b547a)" d="M 576 282.6 
L 72 282.6 
" style="fill:none;stroke:#1e90ff;stroke-opacity:0.7;stroke-width:1.417324;"/>
    <path clip-path="url(#p6c395b547a)" d="M 72 277.2 
L 576 277.2 
" style="fill:none;stroke:#1e90ff;stroke-opacity:0.7;stroke-width:1.417324;"/>
    <path clip-path="url(#p6c395b547a)" d="M 576 271.8 
L 72 271.8 
" style="fill:none;stroke:#1e90ff;stroke-opacity:0.7;stroke-width:1.417324;"/>
    <path clip-path="url(#p6c395b547a)" d="M 72 198 
L 576 198 
" style="fill:none;stroke:#1e90ff;stroke-opacity:0.7;stroke-width:1.417324;"/>
    <path clip-path="url(#p6c395b547a)" d="M 576 192.6 
L 72 192.6 
" style="fill:none;stroke:#1e90ff;stroke-opacity:0.7;stroke-width:1.417324;"/>
    <path clip-path="url(#p6c395b547a)" d="M 72 187.2 
L 576 187.2 
" style="fill:none;stroke:#1e90ff;stroke-opacity:0.7;stroke-width:1.417324;"/>
    <path clip-path="url(#p6c395b547a)" d="M 576 181.8 
L 72 181.8 
" style="fill:none;stroke:#1e90ff;stroke-opacity:0.7;stroke-width:1.417324;"/>
    <path clip-path="url(#p6c395b547a)" d="M 72 176.4 
L 576 176.4 
" style="fill:none;stroke:#1e90ff;stroke-opacity:0.7;stroke-width:1.417324;"/>
    <path clip-path="url(#p6c395b547a)" d="M 576 171 
L 72 171 
" style="fill:none;stroke:#1e90ff;stroke-opacity:0.7;stroke-width:1.417324;"/>
    <path clip-path="url(#p6c395b547a)" d="M 72 165.6 
L 576 165.6 
" style="fill:none;stroke:#1e90ff;stroke-opacity:0.7;stroke-width:1.417324;"/>
    <path clip-path="url(#p6c395b547a)" d="M 576 160.2 
L 72 160.2 
" style="fill:none;stroke:#1e90ff;stroke-opacity:0.7;stroke-width:1.417324;"/>
    <path clip-path="url(#p6c395b547a)" d="M 72 154.8 
L 576 154.8 
" style="fill:none;stroke:#1e90ff;stroke-opacity:0.7;stroke-width:1.417324;"/>
    <path clip-path="url(#p6c395b547a)" d="M 576 149.4 
L 72 149.4 
" style="fill:none;stroke:#1e90ff;stroke-opacity:0.7;stroke-width:1.417324;"/>
    <path clip-path="url(#p6c395b547a)" d="M 72 144 
L 576 144 
" style="fill:none;stroke:#1e90ff;stroke-opacity:0.7;stroke-width:1.417324;"/>
    <path clip-path="url(#p6c395b547a)" d="M 576 138.6 
L 72 138.6 
" style="fill:none;stroke:#1e90ff;stroke-opacity:0.7;stroke-width:1.417324;"/>
    <path clip-path="url(#p6c395b547a)" d="M 72 133.2 
L 576 133.2 
" style="fill:none;stroke:#1e90ff;stroke-opacity:0.7;stroke-width:1.417324;"/>
    <path clip-path="url(#p6c395b547a)" d="M 576 127.8 
L 72 127.8 
" style="fill:none;stroke:#1e90ff;stroke-opacity:0.7;stroke-width:1.417324;"/>
    <path clip-path="url(#p6c395b547a)" d="M 72 122.4 
L 576 122.4 
" style="fill:none;stroke:#1e90ff;stroke-opacity:0.7;stroke-width:1.417324;"/>
    <path clip-path="url(#p6c395b547a)" d="M 576 117 
L 72 117 
" style="fill:none;stroke:#1e90ff;stroke-opacity:0.7;stroke-width:1.417324;"/>
    <path clip-path="url(#p6c395b547a)" d="M 72 111.6 
L 576 111.6 
" style="fill:none;stroke:#1e90ff;stroke-opacity:0.7;stroke-width:1.417324;"/>
    <path clip-path="url(#p6c395b547a)" d="M 576 106.2 
L 72 106.2 
" style="fill:none;stroke:#1e90ff;stroke-opacity:0.7;stroke-width:1.417324;"/>
    <path clip-path="url(#p6c395b547a)" d="M 72 100.8 
L 576 100.8 
" style="fill:none;stroke:#1e90ff;stroke-opacity:0.7;stroke-width:1.417324;"/>
    <path clip-path="url(#p6c395b547a)" d="M 576 95.4 
L 72 95.4 
" style="fill:none;stroke:#1e90ff;stroke-opacity:0.7;stroke-width:1.417324;"/>
    <path clip-path="url(#p6c395b547a)" d="M 72 90 
L 576 90 
" style="fill:none;stroke:#1e90ff;stroke-opacity:0.7;stroke-width:1.417324;"/>
    <path clip-path="url(#p6c395b547a)" d="M 576 84.6 
L 72 84.6 
" style="fill:none;stroke:#1e90ff;stroke-opacity:0.7;stroke-width:1.417324;"/>
    <path clip-path="url(#p6c395b547a)" d="M 72 79.2 
L 576 79.2 
" style="fill:none;stroke:#1e90ff;stroke-opacity:0.7;stroke-width:1.417324;"/>
    <path clip-path="url(#p6c395b547a)" d="M 576 73.8 
L 72 73.8 
" style="fill:none;stroke:#1e90ff;stroke-opacity:0.7;stroke-width:1.417324;"/>
   </g>
  </g>
 </g>
 <defs>
  <clipPath id="p6c395b547a">
   <rect height="864" width="648" x="0" y="0"/>
  </clipPath>
 </defs>
</svg>
