<?xml version="1.0" encoding="utf-8" standalone="no"?>
<!DOCTYPE svg PUBLIC "-//W3C//DTD SVG 1.1//EN"
  "http://www.w3.org/Graphics/SVG/1.1/DTD/svg11.dtd">
<!-- Created with matplotlib (https://matplotlib.org/) -->
<svg height="1008pt" version="1.1" viewBox="0 0 792 1008" width="792pt" xmlns="http://www.w3.org/2000/svg" xmlns:xlink="http://www.w3.org/1999/xlink">
 <metadata>
  <rdf:RDF xmlns:cc="http://creativecommons.org/ns#" xmlns:dc="http://purl.org/dc/elements/1.1/" xmlns:rdf="http://www.w3.org/1999/02/22-rdf-syntax-ns#">
   <cc:Work>
    <dc:type rdf:resource="http://purl.org/dc/dcmitype/StillImage"/>
    <dc:date>2021-04-15T16:02:05.156788</dc:date>
    <dc:format>image/svg+xml</dc:format>
    <dc:creator>
     <cc:Agent>
      <dc:title>Matplotlib v3.3.2, https://matplotlib.org/</dc:title>
     </cc:Agent>
    </dc:creator>
   </cc:Work>
  </rdf:RDF>
 </metadata>
 <defs>
  <style type="text/css">*{stroke-linecap:butt;stroke-linejoin:round;}</style>
 </defs>
 <g id="figure_1">
  <g id="axes_1">
   <g id="LineCollection_1">
    <path clip-path="url(#p8595c9a780)" d="M 72 936 
L 72 72 
L 78.48 72 
L 78.48 936 
L 84.96 936 
L 84.96 72 
L 91.44 72 
L 91.44 936 
L 97.92 936 
L 97.92 72 
L 104.4 72 
L 104.4 936 
L 110.88 936 
L 110.88 72 
L 117.36 72 
L 117.36 936 
L 123.84 936 
L 123.84 72 
L 130.32 72 
L 130.32 936 
L 136.8 936 
L 136.8 72 
L 143.28 72 
L 143.28 936 
L 149.76 936 
L 149.76 72 
L 156.24 72 
L 156.24 936 
L 162.72 936 
L 162.72 72 
L 169.2 72 
L 169.2 936 
L 175.68 936 
L 175.68 72 
L 182.16 72 
L 182.16 936 
L 188.64 936 
L 188.64 72 
L 195.12 72 
L 195.12 936 
L 201.6 936 
L 201.6 72 
L 208.08 72 
L 208.08 936 
L 214.56 936 
L 214.56 72 
L 221.04 72 
L 221.04 936 
L 227.52 936 
L 227.52 72 
" style="fill:none;stroke:#1e90ff;stroke-width:0.566929;"/>
    <path clip-path="url(#p8595c9a780)" d="M 234 936 
L 234 72 
L 237.24 72 
L 237.24 936 
L 240.48 936 
L 240.48 72 
L 243.72 72 
L 243.72 936 
L 246.96 936 
L 246.96 72 
L 250.2 72 
L 250.2 936 
L 253.44 936 
L 253.44 72 
L 256.68 72 
L 256.68 936 
L 259.92 936 
L 259.92 72 
L 263.16 72 
L 263.16 936 
L 266.4 936 
L 266.4 72 
L 269.64 72 
L 269.64 936 
L 272.88 936 
L 272.88 72 
L 276.12 72 
L 276.12 936 
L 279.36 936 
L 279.36 72 
L 282.6 72 
L 282.6 936 
L 285.84 936 
L 285.84 72 
L 289.08 72 
L 289.08 936 
L 292.32 936 
L 292.32 72 
L 295.56 72 
L 295.56 936 
L 298.8 936 
L 298.8 72 
L 302.04 72 
L 302.04 936 
L 305.28 936 
L 305.28 72 
L 308.52 72 
L 308.52 936 
L 311.76 936 
L 311.76 72 
L 315 72 
L 315 936 
L 318.24 936 
L 318.24 72 
L 321.48 72 
L 321.48 936 
L 324.72 936 
L 324.72 72 
L 327.96 72 
L 327.96 936 
L 331.2 936 
L 331.2 72 
L 334.44 72 
L 334.44 936 
L 337.68 936 
L 337.68 72 
L 340.92 72 
L 340.92 936 
L 344.16 936 
L 344.16 72 
L 347.4 72 
L 347.4 936 
L 350.64 936 
L 350.64 72 
L 353.88 72 
L 353.88 936 
L 357.12 936 
L 357.12 72 
L 360.36 72 
L 360.36 936 
L 363.6 936 
L 363.6 72 
L 366.84 72 
L 366.84 936 
L 370.08 936 
L 370.08 72 
L 373.32 72 
L 373.32 936 
L 376.56 936 
L 376.56 72 
L 379.8 72 
L 379.8 936 
L 383.04 936 
L 383.04 72 
L 386.28 72 
L 386.28 936 
L 389.52 936 
L 389.52 72 
L 392.76 72 
L 392.76 936 
" style="fill:none;stroke:#1e90ff;stroke-width:0.566929;"/>
    <path clip-path="url(#p8595c9a780)" d="M 396 936 
L 396 72 
L 398.16 72 
L 398.16 936 
L 400.32 936 
L 400.32 72 
L 402.48 72 
L 402.48 936 
L 404.64 936 
L 404.64 72 
L 406.8 72 
L 406.8 936 
L 408.96 936 
L 408.96 72 
L 411.12 72 
L 411.12 936 
L 413.28 936 
L 413.28 72 
L 415.44 72 
L 415.44 936 
L 417.6 936 
L 417.6 72 
L 419.76 72 
L 419.76 936 
L 421.92 936 
L 421.92 72 
L 424.08 72 
L 424.08 936 
L 426.24 936 
L 426.24 72 
L 428.4 72 
L 428.4 936 
L 430.56 936 
L 430.56 72 
L 432.72 72 
L 432.72 936 
L 434.88 936 
L 434.88 72 
L 437.04 72 
L 437.04 936 
L 439.2 936 
L 439.2 72 
L 441.36 72 
L 441.36 936 
L 443.52 936 
L 443.52 72 
L 445.68 72 
L 445.68 936 
L 447.84 936 
L 447.84 72 
L 450 72 
L 450 936 
L 452.16 936 
L 452.16 72 
L 454.32 72 
L 454.32 936 
L 456.48 936 
L 456.48 72 
L 458.64 72 
L 458.64 936 
L 460.8 936 
L 460.8 72 
L 462.96 72 
L 462.96 936 
L 465.12 936 
L 465.12 72 
L 467.28 72 
L 467.28 936 
L 469.44 936 
L 469.44 72 
L 471.6 72 
L 471.6 936 
L 473.76 936 
L 473.76 72 
L 475.92 72 
L 475.92 936 
L 478.08 936 
L 478.08 72 
L 480.24 72 
L 480.24 936 
L 482.4 936 
L 482.4 72 
L 484.56 72 
L 484.56 936 
L 486.72 936 
L 486.72 72 
L 488.88 72 
L 488.88 936 
L 491.04 936 
L 491.04 72 
L 493.2 72 
L 493.2 936 
L 495.36 936 
L 495.36 72 
L 497.52 72 
L 497.52 936 
L 499.68 936 
L 499.68 72 
L 501.84 72 
L 501.84 936 
L 504 936 
L 504 72 
L 506.16 72 
L 506.16 936 
L 508.32 936 
L 508.32 72 
L 510.48 72 
L 510.48 936 
L 512.64 936 
L 512.64 72 
L 514.8 72 
L 514.8 936 
L 516.96 936 
L 516.96 72 
L 519.12 72 
L 519.12 936 
L 521.28 936 
L 521.28 72 
L 523.44 72 
L 523.44 936 
L 525.6 936 
L 525.6 72 
L 527.76 72 
L 527.76 936 
L 529.92 936 
L 529.92 72 
L 532.08 72 
L 532.08 936 
L 534.24 936 
L 534.24 72 
L 536.4 72 
L 536.4 936 
L 538.56 936 
L 538.56 72 
L 540.72 72 
L 540.72 936 
L 542.88 936 
L 542.88 72 
L 545.04 72 
L 545.04 936 
L 547.2 936 
L 547.2 72 
L 549.36 72 
L 549.36 936 
L 551.52 936 
L 551.52 72 
L 553.68 72 
L 553.68 936 
L 555.84 936 
L 555.84 72 
L 555.84 72 
" style="fill:none;stroke:#1e90ff;stroke-width:0.566929;"/>
    <path clip-path="url(#p8595c9a780)" d="M 558 936 
L 558 72 
L 559.636364 72 
L 559.636364 936 
L 561.272727 936 
L 561.272727 72 
L 562.909091 72 
L 562.909091 936 
L 564.545455 936 
L 564.545455 72 
L 566.181818 72 
L 566.181818 936 
L 567.818182 936 
L 567.818182 72 
L 569.454545 72 
L 569.454545 936 
L 571.090909 936 
L 571.090909 72 
L 572.727273 72 
L 572.727273 936 
L 574.363636 936 
L 574.363636 72 
L 576 72 
L 576 936 
L 577.636364 936 
L 577.636364 72 
L 579.272727 72 
L 579.272727 936 
L 580.909091 936 
L 580.909091 72 
L 582.545455 72 
L 582.545455 936 
L 584.181818 936 
L 584.181818 72 
L 585.818182 72 
L 585.818182 936 
L 587.454545 936 
L 587.454545 72 
L 589.090909 72 
L 589.090909 936 
L 590.727273 936 
L 590.727273 72 
L 592.363636 72 
L 592.363636 936 
L 594 936 
L 594 72 
L 595.636364 72 
L 595.636364 936 
L 597.272727 936 
L 597.272727 72 
L 598.909091 72 
L 598.909091 936 
L 600.545455 936 
L 600.545455 72 
L 602.181818 72 
L 602.181818 936 
L 603.818182 936 
L 603.818182 72 
L 605.454545 72 
L 605.454545 936 
L 607.090909 936 
L 607.090909 72 
L 608.727273 72 
L 608.727273 936 
L 610.363636 936 
L 610.363636 72 
L 612 72 
L 612 936 
L 613.636364 936 
L 613.636364 72 
L 615.272727 72 
L 615.272727 936 
L 616.909091 936 
L 616.909091 72 
L 618.545455 72 
L 618.545455 936 
L 620.181818 936 
L 620.181818 72 
L 621.818182 72 
L 621.818182 936 
L 623.454545 936 
L 623.454545 72 
L 625.090909 72 
L 625.090909 936 
L 626.727273 936 
L 626.727273 72 
L 628.363636 72 
L 628.363636 936 
L 630 936 
L 630 72 
L 631.636364 72 
L 631.636364 936 
L 633.272727 936 
L 633.272727 72 
L 634.909091 72 
L 634.909091 936 
L 636.545455 936 
L 636.545455 72 
L 638.181818 72 
L 638.181818 936 
L 639.818182 936 
L 639.818182 72 
L 641.454545 72 
L 641.454545 936 
L 643.090909 936 
L 643.090909 72 
L 644.727273 72 
L 644.727273 936 
L 646.363636 936 
L 646.363636 72 
L 648 72 
L 648 936 
L 649.636364 936 
L 649.636364 72 
L 651.272727 72 
L 651.272727 936 
L 652.909091 936 
L 652.909091 72 
L 654.545455 72 
L 654.545455 936 
L 656.181818 936 
L 656.181818 72 
L 657.818182 72 
L 657.818182 936 
L 659.454545 936 
L 659.454545 72 
L 661.090909 72 
L 661.090909 936 
L 662.727273 936 
L 662.727273 72 
L 664.363636 72 
L 664.363636 936 
L 666 936 
L 666 72 
L 667.636364 72 
L 667.636364 936 
L 669.272727 936 
L 669.272727 72 
L 670.909091 72 
L 670.909091 936 
L 672.545455 936 
L 672.545455 72 
L 674.181818 72 
L 674.181818 936 
L 675.818182 936 
L 675.818182 72 
L 677.454545 72 
L 677.454545 936 
L 679.090909 936 
L 679.090909 72 
L 680.727273 72 
L 680.727273 936 
L 682.363636 936 
L 682.363636 72 
L 684 72 
L 684 936 
L 685.636364 936 
L 685.636364 72 
L 687.272727 72 
L 687.272727 936 
L 688.909091 936 
L 688.909091 72 
L 690.545455 72 
L 690.545455 936 
L 692.181818 936 
L 692.181818 72 
L 693.818182 72 
L 693.818182 936 
L 695.454545 936 
L 695.454545 72 
L 697.090909 72 
L 697.090909 936 
L 698.727273 936 
L 698.727273 72 
L 700.363636 72 
L 700.363636 936 
L 702 936 
L 702 72 
L 703.636364 72 
L 703.636364 936 
L 705.272727 936 
L 705.272727 72 
L 706.909091 72 
L 706.909091 936 
L 708.545455 936 
L 708.545455 72 
L 710.181818 72 
L 710.181818 936 
L 711.818182 936 
L 711.818182 72 
L 713.454545 72 
L 713.454545 936 
L 715.090909 936 
L 715.090909 72 
L 716.727273 72 
L 716.727273 936 
L 718.363636 936 
L 718.363636 72 
L 720 72 
L 720 936 
L 720 936 
" style="fill:none;stroke:#1e90ff;stroke-width:0.566929;"/>
    <path clip-path="url(#p8595c9a780)" d="M 72 936 
L 720 936 
L 720 929.088 
L 72 929.088 
L 72 922.176 
L 720 922.176 
L 720 915.264 
L 72 915.264 
L 72 908.352 
L 720 908.352 
L 720 901.44 
L 72 901.44 
L 72 894.528 
L 720 894.528 
L 720 887.616 
L 72 887.616 
L 72 880.704 
L 720 880.704 
L 720 873.792 
L 72 873.792 
L 72 866.88 
L 720 866.88 
L 720 859.968 
L 72 859.968 
L 72 853.056 
L 720 853.056 
L 720 846.144 
L 72 846.144 
L 72 839.232 
L 720 839.232 
L 720 832.32 
L 72 832.32 
L 72 825.408 
L 720 825.408 
L 720 818.496 
L 72 818.496 
L 72 811.584 
L 720 811.584 
L 720 804.672 
L 72 804.672 
L 72 797.76 
L 720 797.76 
L 720 790.848 
L 72 790.848 
L 72 783.936 
L 720 783.936 
L 720 777.024 
L 72 777.024 
L 72 770.112 
L 720 770.112 
" style="fill:none;stroke:#1e90ff;stroke-width:0.566929;"/>
    <path clip-path="url(#p8595c9a780)" d="M 72 763.2 
L 720 763.2 
L 720 759.744 
L 72 759.744 
L 72 756.288 
L 720 756.288 
L 720 752.832 
L 72 752.832 
L 72 749.376 
L 720 749.376 
L 720 745.92 
L 72 745.92 
L 72 742.464 
L 720 742.464 
L 720 739.008 
L 72 739.008 
L 72 735.552 
L 720 735.552 
L 720 732.096 
L 72 732.096 
L 72 728.64 
L 720 728.64 
L 720 725.184 
L 72 725.184 
L 72 721.728 
L 720 721.728 
L 720 718.272 
L 72 718.272 
L 72 714.816 
L 720 714.816 
L 720 711.36 
L 72 711.36 
L 72 707.904 
L 720 707.904 
L 720 704.448 
L 72 704.448 
L 72 700.992 
L 720 700.992 
L 720 697.536 
L 72 697.536 
L 72 694.08 
L 720 694.08 
L 720 690.624 
L 72 690.624 
L 72 687.168 
L 720 687.168 
L 720 683.712 
L 72 683.712 
L 72 680.256 
L 720 680.256 
L 720 676.8 
L 72 676.8 
L 72 673.344 
L 720 673.344 
L 720 669.888 
L 72 669.888 
L 72 666.432 
L 720 666.432 
L 720 662.976 
L 72 662.976 
L 72 659.52 
L 720 659.52 
L 720 656.064 
L 72 656.064 
L 72 652.608 
L 720 652.608 
L 720 649.152 
L 72 649.152 
L 72 645.696 
L 720 645.696 
L 720 642.24 
L 72 642.24 
L 72 638.784 
L 720 638.784 
L 720 635.328 
L 72 635.328 
L 72 631.872 
L 720 631.872 
L 720 628.416 
L 72 628.416 
L 72 624.96 
L 720 624.96 
L 720 621.504 
L 72 621.504 
L 72 618.048 
L 720 618.048 
L 720 614.592 
L 72 614.592 
L 72 611.136 
L 720 611.136 
L 720 607.68 
L 72 607.68 
L 72 604.224 
L 720 604.224 
L 720 600.768 
L 72 600.768 
L 72 597.312 
L 720 597.312 
L 720 593.856 
L 72 593.856 
" style="fill:none;stroke:#1e90ff;stroke-width:0.566929;"/>
    <path clip-path="url(#p8595c9a780)" d="M 72 590.4 
L 720 590.4 
L 720 588.096 
L 72 588.096 
L 72 585.792 
L 720 585.792 
L 720 583.488 
L 72 583.488 
L 72 581.184 
L 720 581.184 
L 720 578.88 
L 72 578.88 
L 72 576.576 
L 720 576.576 
L 720 574.272 
L 72 574.272 
L 72 571.968 
L 720 571.968 
L 720 569.664 
L 72 569.664 
L 72 567.36 
L 720 567.36 
L 720 565.056 
L 72 565.056 
L 72 562.752 
L 720 562.752 
L 720 560.448 
L 72 560.448 
L 72 558.144 
L 720 558.144 
L 720 555.84 
L 72 555.84 
L 72 553.536 
L 720 553.536 
L 720 551.232 
L 72 551.232 
L 72 548.928 
L 720 548.928 
L 720 546.624 
L 72 546.624 
L 72 544.32 
L 720 544.32 
L 720 542.016 
L 72 542.016 
L 72 539.712 
L 720 539.712 
L 720 537.408 
L 72 537.408 
L 72 535.104 
L 720 535.104 
L 720 532.8 
L 72 532.8 
L 72 530.496 
L 720 530.496 
L 720 528.192 
L 72 528.192 
L 72 525.888 
L 720 525.888 
L 720 523.584 
L 72 523.584 
L 72 521.28 
L 720 521.28 
L 720 518.976 
L 72 518.976 
L 72 516.672 
L 720 516.672 
L 720 514.368 
L 72 514.368 
L 72 512.064 
L 720 512.064 
L 720 509.76 
L 72 509.76 
L 72 507.456 
L 720 507.456 
L 720 505.152 
L 72 505.152 
L 72 502.848 
L 720 502.848 
L 720 500.544 
L 72 500.544 
L 72 498.24 
L 720 498.24 
L 720 495.936 
L 72 495.936 
L 72 493.632 
L 720 493.632 
L 720 491.328 
L 72 491.328 
L 72 489.024 
L 720 489.024 
L 720 486.72 
L 72 486.72 
L 72 484.416 
L 720 484.416 
L 720 482.112 
L 72 482.112 
L 72 479.808 
L 720 479.808 
L 720 477.504 
L 72 477.504 
L 72 475.2 
L 720 475.2 
L 720 472.896 
L 72 472.896 
L 72 470.592 
L 720 470.592 
L 720 468.288 
L 72 468.288 
L 72 465.984 
L 720 465.984 
L 720 463.68 
L 72 463.68 
L 72 461.376 
L 720 461.376 
L 720 459.072 
L 72 459.072 
L 72 456.768 
L 720 456.768 
L 720 454.464 
L 72 454.464 
L 72 452.16 
L 720 452.16 
L 720 449.856 
L 72 449.856 
L 72 447.552 
L 720 447.552 
L 720 445.248 
L 72 445.248 
L 72 442.944 
L 720 442.944 
L 720 440.64 
L 72 440.64 
L 72 438.336 
L 720 438.336 
L 720 436.032 
L 72 436.032 
L 72 433.728 
L 720 433.728 
L 720 431.424 
L 72 431.424 
L 72 429.12 
L 720 429.12 
L 720 426.816 
L 72 426.816 
L 72 424.512 
L 720 424.512 
L 720 422.208 
L 72 422.208 
L 72 419.904 
L 720 419.904 
L 720 419.904 
" style="fill:none;stroke:#1e90ff;stroke-width:0.566929;"/>
    <path clip-path="url(#p8595c9a780)" d="M 72 417.6 
L 720 417.6 
L 720 415.872 
L 72 415.872 
L 72 414.144 
L 720 414.144 
L 720 412.416 
L 72 412.416 
L 72 410.688 
L 720 410.688 
L 720 408.96 
L 72 408.96 
L 72 407.232 
L 720 407.232 
L 720 405.504 
L 72 405.504 
L 72 403.776 
L 720 403.776 
L 720 402.048 
L 72 402.048 
L 72 400.32 
L 720 400.32 
L 720 398.592 
L 72 398.592 
L 72 396.864 
L 720 396.864 
L 720 395.136 
L 72 395.136 
L 72 393.408 
L 720 393.408 
L 720 391.68 
L 72 391.68 
L 72 389.952 
L 720 389.952 
L 720 388.224 
L 72 388.224 
L 72 386.496 
L 720 386.496 
L 720 384.768 
L 72 384.768 
L 72 383.04 
L 720 383.04 
L 720 381.312 
L 72 381.312 
L 72 379.584 
L 720 379.584 
L 720 377.856 
L 72 377.856 
L 72 376.128 
L 720 376.128 
L 720 374.4 
L 72 374.4 
L 72 372.672 
L 720 372.672 
L 720 370.944 
L 72 370.944 
L 72 369.216 
L 720 369.216 
L 720 367.488 
L 72 367.488 
L 72 365.76 
L 720 365.76 
L 720 364.032 
L 72 364.032 
L 72 362.304 
L 720 362.304 
L 720 360.576 
L 72 360.576 
L 72 358.848 
L 720 358.848 
L 720 357.12 
L 72 357.12 
L 72 355.392 
L 720 355.392 
L 720 353.664 
L 72 353.664 
L 72 351.936 
L 720 351.936 
L 720 350.208 
L 72 350.208 
L 72 348.48 
L 720 348.48 
L 720 346.752 
L 72 346.752 
L 72 345.024 
L 720 345.024 
L 720 343.296 
L 72 343.296 
L 72 341.568 
L 720 341.568 
L 720 339.84 
L 72 339.84 
L 72 338.112 
L 720 338.112 
L 720 336.384 
L 72 336.384 
L 72 334.656 
L 720 334.656 
L 720 332.928 
L 72 332.928 
L 72 331.2 
L 720 331.2 
L 720 329.472 
L 72 329.472 
L 72 327.744 
L 720 327.744 
L 720 326.016 
L 72 326.016 
L 72 324.288 
L 720 324.288 
L 720 322.56 
L 72 322.56 
L 72 320.832 
L 720 320.832 
L 720 319.104 
L 72 319.104 
L 72 317.376 
L 720 317.376 
L 720 315.648 
L 72 315.648 
L 72 313.92 
L 720 313.92 
L 720 312.192 
L 72 312.192 
L 72 310.464 
L 720 310.464 
L 720 308.736 
L 72 308.736 
L 72 307.008 
L 720 307.008 
L 720 305.28 
L 72 305.28 
L 72 303.552 
L 720 303.552 
L 720 301.824 
L 72 301.824 
L 72 300.096 
L 720 300.096 
L 720 298.368 
L 72 298.368 
L 72 296.64 
L 720 296.64 
L 720 294.912 
L 72 294.912 
L 72 293.184 
L 720 293.184 
L 720 291.456 
L 72 291.456 
L 72 289.728 
L 720 289.728 
L 720 288 
L 72 288 
L 72 286.272 
L 720 286.272 
L 720 284.544 
L 72 284.544 
L 72 282.816 
L 720 282.816 
L 720 281.088 
L 72 281.088 
L 72 279.36 
L 720 279.36 
L 720 277.632 
L 72 277.632 
L 72 275.904 
L 720 275.904 
L 720 274.176 
L 72 274.176 
L 72 272.448 
L 720 272.448 
L 720 270.72 
L 72 270.72 
L 72 268.992 
L 720 268.992 
L 720 267.264 
L 72 267.264 
L 72 265.536 
L 720 265.536 
L 720 263.808 
L 72 263.808 
L 72 262.08 
L 720 262.08 
L 720 260.352 
L 72 260.352 
L 72 258.624 
L 720 258.624 
L 720 256.896 
L 72 256.896 
L 72 255.168 
L 720 255.168 
L 720 253.44 
L 72 253.44 
L 72 251.712 
L 720 251.712 
L 720 249.984 
L 72 249.984 
L 72 248.256 
L 720 248.256 
L 720 246.528 
L 72 246.528 
L 72 246.528 
" style="fill:none;stroke:#1e90ff;stroke-width:0.566929;"/>
    <path clip-path="url(#p8595c9a780)" d="M 72 244.8 
L 720 244.8 
L 720 243.406452 
L 72 243.406452 
L 72 242.012903 
L 720 242.012903 
L 720 240.619355 
L 72 240.619355 
L 72 239.225806 
L 720 239.225806 
L 720 237.832258 
L 72 237.832258 
L 72 236.43871 
L 720 236.43871 
L 720 235.045161 
L 72 235.045161 
L 72 233.651613 
L 720 233.651613 
L 720 232.258065 
L 72 232.258065 
L 72 230.864516 
L 720 230.864516 
L 720 229.470968 
L 72 229.470968 
L 72 228.077419 
L 720 228.077419 
L 720 226.683871 
L 72 226.683871 
L 72 225.290323 
L 720 225.290323 
L 720 223.896774 
L 72 223.896774 
L 72 222.503226 
L 720 222.503226 
L 720 221.109677 
L 72 221.109677 
L 72 219.716129 
L 720 219.716129 
L 720 218.322581 
L 72 218.322581 
L 72 216.929032 
L 720 216.929032 
L 720 215.535484 
L 72 215.535484 
L 72 214.141935 
L 720 214.141935 
L 720 212.748387 
L 72 212.748387 
L 72 211.354839 
L 720 211.354839 
L 720 209.96129 
L 72 209.96129 
L 72 208.567742 
L 720 208.567742 
L 720 207.174194 
L 72 207.174194 
L 72 205.780645 
L 720 205.780645 
L 720 204.387097 
L 72 204.387097 
L 72 202.993548 
L 720 202.993548 
L 720 201.6 
L 72 201.6 
L 72 200.206452 
L 720 200.206452 
L 720 198.812903 
L 72 198.812903 
L 72 197.419355 
L 720 197.419355 
L 720 196.025806 
L 72 196.025806 
L 72 194.632258 
L 720 194.632258 
L 720 193.23871 
L 72 193.23871 
L 72 191.845161 
L 720 191.845161 
L 720 190.451613 
L 72 190.451613 
L 72 189.058065 
L 720 189.058065 
L 720 187.664516 
L 72 187.664516 
L 72 186.270968 
L 720 186.270968 
L 720 184.877419 
L 72 184.877419 
L 72 183.483871 
L 720 183.483871 
L 720 182.090323 
L 72 182.090323 
L 72 180.696774 
L 720 180.696774 
L 720 179.303226 
L 72 179.303226 
L 72 177.909677 
L 720 177.909677 
L 720 176.516129 
L 72 176.516129 
L 72 175.122581 
L 720 175.122581 
L 720 173.729032 
L 72 173.729032 
L 72 172.335484 
L 720 172.335484 
L 720 170.941935 
L 72 170.941935 
L 72 169.548387 
L 720 169.548387 
L 720 168.154839 
L 72 168.154839 
L 72 166.76129 
L 720 166.76129 
L 720 165.367742 
L 72 165.367742 
L 72 163.974194 
L 720 163.974194 
L 720 162.580645 
L 72 162.580645 
L 72 161.187097 
L 720 161.187097 
L 720 159.793548 
L 72 159.793548 
L 72 158.4 
L 720 158.4 
L 720 157.006452 
L 72 157.006452 
L 72 155.612903 
L 720 155.612903 
L 720 154.219355 
L 72 154.219355 
L 72 152.825806 
L 720 152.825806 
L 720 151.432258 
L 72 151.432258 
L 72 150.03871 
L 720 150.03871 
L 720 148.645161 
L 72 148.645161 
L 72 147.251613 
L 720 147.251613 
L 720 145.858065 
L 72 145.858065 
L 72 144.464516 
L 720 144.464516 
L 720 143.070968 
L 72 143.070968 
L 72 141.677419 
L 720 141.677419 
L 720 140.283871 
L 72 140.283871 
L 72 138.890323 
L 720 138.890323 
L 720 137.496774 
L 72 137.496774 
L 72 136.103226 
L 720 136.103226 
L 720 134.709677 
L 72 134.709677 
L 72 133.316129 
L 720 133.316129 
L 720 131.922581 
L 72 131.922581 
L 72 130.529032 
L 720 130.529032 
L 720 129.135484 
L 72 129.135484 
L 72 127.741935 
L 720 127.741935 
L 720 126.348387 
L 72 126.348387 
L 72 124.954839 
L 720 124.954839 
L 720 123.56129 
L 72 123.56129 
L 72 122.167742 
L 720 122.167742 
L 720 120.774194 
L 72 120.774194 
L 72 119.380645 
L 720 119.380645 
L 720 117.987097 
L 72 117.987097 
L 72 116.593548 
L 720 116.593548 
L 720 115.2 
L 72 115.2 
L 72 113.806452 
L 720 113.806452 
L 720 112.412903 
L 72 112.412903 
L 72 111.019355 
L 720 111.019355 
L 720 109.625806 
L 72 109.625806 
L 72 108.232258 
L 720 108.232258 
L 720 106.83871 
L 72 106.83871 
L 72 105.445161 
L 720 105.445161 
L 720 104.051613 
L 72 104.051613 
L 72 102.658065 
L 720 102.658065 
L 720 101.264516 
L 72 101.264516 
L 72 99.870968 
L 720 99.870968 
L 720 98.477419 
L 72 98.477419 
L 72 97.083871 
L 720 97.083871 
L 720 95.690323 
L 72 95.690323 
L 72 94.296774 
L 720 94.296774 
L 720 92.903226 
L 72 92.903226 
L 72 91.509677 
L 720 91.509677 
L 720 90.116129 
L 72 90.116129 
L 72 88.722581 
L 720 88.722581 
L 720 87.329032 
L 72 87.329032 
L 72 85.935484 
L 720 85.935484 
L 720 84.541935 
L 72 84.541935 
L 72 83.148387 
L 720 83.148387 
L 720 81.754839 
L 72 81.754839 
L 72 80.36129 
L 720 80.36129 
L 720 78.967742 
L 72 78.967742 
L 72 77.574194 
L 720 77.574194 
L 720 76.180645 
L 72 76.180645 
L 72 74.787097 
L 720 74.787097 
L 720 73.393548 
L 72 73.393548 
L 72 72 
L 720 72 
L 720 72 
" style="fill:none;stroke:#1e90ff;stroke-width:0.566929;"/>
    <path clip-path="url(#p8595c9a780)" d="M 720 936 
L 720 72 
L 72 72 
L 72 936 
L 720 936 
" style="fill:none;stroke:#1e90ff;stroke-width:0.566929;"/>
    <path clip-path="url(#p8595c9a780)" d="M 720 936 
L 720 72 
L 72 72 
L 72 936 
L 720 936 
" style="fill:none;stroke:#1e90ff;stroke-width:0.566929;"/>
   </g>
  </g>
 </g>
 <defs>
  <clipPath id="p8595c9a780">
   <rect height="1008" width="792" x="0" y="0"/>
  </clipPath>
 </defs>
</svg>
