<?xml version="1.0" encoding="utf-8" standalone="no"?>
<!DOCTYPE svg PUBLIC "-//W3C//DTD SVG 1.1//EN"
  "http://www.w3.org/Graphics/SVG/1.1/DTD/svg11.dtd">
<!-- Created with matplotlib (https://matplotlib.org/) -->
<svg height="432pt" version="1.1" viewBox="0 0 432 432" width="432pt" xmlns="http://www.w3.org/2000/svg" xmlns:xlink="http://www.w3.org/1999/xlink">
 <defs>
  <style type="text/css">
*{stroke-linecap:butt;stroke-linejoin:round;}
  </style>
 </defs>
 <g id="figure_1">
  <g id="axes_1">
   <g id="LineCollection_1">
    <path clip-path="url(#p235cfaf310)" d="M -1 101.233651 
L 1.972258 100.321645 
L 4.725278 99.577594 
L 7.390899 99.027949 
L 9.948127 98.747611 
L 12.375965 98.811479 
L 14.653419 99.294455 
L 16.759494 100.27144 
L 18.673194 101.817334 
L 20.347376 103.96258 
L 21.77173 106.642951 
L 22.980509 109.791344 
L 24.007968 113.340652 
L 24.88836 117.223773 
L 25.655938 121.373601 
L 26.98967 130.204964 
L 28.283194 139.297905 
L 29.000512 143.774706 
L 29.810539 148.115589 
L 30.747529 152.253449 
L 31.845736 156.121182 
L 33.139412 159.651683 
L 34.662813 162.777848 
L 34.662813 162.777848 
L 36.385731 165.610781 
L 38.246433 168.3095 
L 40.231881 170.878775 
L 42.329039 173.323373 
L 44.52487 175.648062 
L 46.806338 177.857612 
L 49.160406 179.95679 
L 54.034196 183.843106 
L 59.041948 187.345156 
L 64.079367 190.501087 
L 69.042161 193.349048 
L 71.462982 194.66946 
L 71.462982 194.66946 
L 73.900135 195.684956 
L 76.413461 196.215888 
L 78.988096 196.353745 
L 81.609177 196.190012 
L 84.26184 195.816178 
L 92.260674 194.348935 
L 94.89102 194.049564 
L 97.478628 193.997527 
L 100.008632 194.284311 
L 102.46617 195.001403 
L 104.836375 196.24029 
L 107.104386 198.09246 
L 109.255337 200.649399 
L 111.274364 204.002595 
L 111.274364 204.002595 
L 113.059098 208.309647 
L 114.551642 213.58041 
L 115.803845 219.684755 
L 116.867556 226.492549 
L 117.794624 233.873663 
L 119.44622 249.835328 
L 121.173423 266.528706 
L 122.194998 274.824461 
L 123.39102 282.912752 
L 124.813338 290.66345 
L 126.513799 297.946422 
L 128.544252 304.63154 
L 130.956547 310.588673 
L 133.80253 315.687689 
L 133.80253 315.687689 
L 137.113235 320.151797 
L 140.851505 324.295055 
L 144.966905 328.123609 
L 149.408999 331.643605 
L 154.127353 334.86119 
L 159.071531 337.782509 
L 164.191098 340.413707 
L 169.435619 342.760933 
L 174.754659 344.83033 
L 180.097783 346.628046 
L 185.414555 348.160226 
L 190.654541 349.433016 
L 195.767305 350.452562 
L 200.702413 351.22501 
L 205.409429 351.756507 
L 209.837917 352.053198 
L 209.837917 352.053198 
L 214.160136 351.853787 
L 218.560688 350.959553 
L 223.007655 349.470508 
L 227.469121 347.486665 
L 231.913168 345.108034 
L 236.30788 342.434627 
L 240.621339 339.566456 
L 248.876829 333.64587 
L 256.424302 328.146367 
L 259.85274 325.804552 
L 263.008422 323.868043 
L 265.859431 322.436851 
L 268.37385 321.610989 
L 270.519762 321.490467 
L 270.519762 321.490467 
L 272.222818 322.023779 
L 273.465378 323.057583 
L 274.300586 324.539139 
L 274.781589 326.415709 
L 274.961531 328.634555 
L 274.893559 331.142937 
L 274.630817 333.888118 
L 273.73361 339.877918 
L 272.255668 349.320136 
L 271.940368 352.378592 
L 271.802318 355.304675 
L 271.894663 358.045646 
L 272.916197 365.199386 
L 273.015418 369.721338 
L 273.023851 374.169465 
L 273.136411 376.382983 
L 273.397138 378.59861 
L 273.86299 380.823201 
L 274.59092 383.063613 
L 275.637885 385.3267 
L 277.060838 387.619317 
L 278.916735 389.948321 
L 281.262532 392.320565 
L 284.155183 394.742906 
L 287.651643 397.222198 
L 287.651643 397.222198 
L 291.97092 399.735002 
L 297.207801 402.256208 
L 303.232919 404.790164 
L 309.916902 407.341219 
L 324.743991 412.51202 
L 356.612302 423.250144 
L 364.286001 426.042651 
L 371.583611 428.887045 
L 378.375761 431.787675 
L 380.896576 433 
L 380.896576 433 
" style="fill:none;stroke:#000000;stroke-width:5;"/>
    <path clip-path="url(#p235cfaf310)" d="M -1 102.679265 
L 5.084039 101.145956 
L 11.134612 99.498052 
L 14.07031 98.820687 
L 16.913207 98.340258 
L 19.638499 98.131171 
L 22.221378 98.267834 
L 24.63704 98.824655 
L 26.860678 99.876041 
L 28.867487 101.496399 
L 28.867487 101.496399 
L 30.616929 103.721341 
L 32.107937 106.490999 
L 33.37492 109.736563 
L 34.452283 113.389225 
L 35.374433 117.380172 
L 36.175777 121.640597 
L 37.553672 130.694636 
L 39.574629 144.576521 
L 40.373672 149.008796 
L 41.292753 153.228879 
L 42.366281 157.167959 
L 43.62866 160.757226 
L 45.114299 163.92787 
L 45.114299 163.92787 
L 46.784984 166.787732 
L 48.572935 169.495408 
L 50.468205 172.058223 
L 52.460848 174.483502 
L 54.540916 176.778568 
L 56.698465 178.950746 
L 58.923546 181.007361 
L 63.536519 184.803199 
L 68.300265 188.224676 
L 73.13521 191.33039 
L 77.961782 194.178935 
L 80.34706 195.525081 
L 80.34706 195.525081 
L 82.771401 196.592166 
L 85.291067 197.203488 
L 87.888933 197.445442 
L 90.547872 197.404424 
L 95.980473 196.819053 
L 101.451868 196.138541 
L 104.1593 195.978595 
L 106.825055 196.054051 
L 109.432007 196.451304 
L 111.963031 197.256749 
L 114.401001 198.556782 
L 116.728794 200.437799 
L 118.929282 202.986194 
L 120.985341 206.288365 
L 120.985341 206.288365 
L 122.797813 210.498202 
L 124.313769 215.628726 
L 125.585433 221.555022 
L 126.665026 228.152177 
L 127.604769 235.295277 
L 129.273599 250.71966 
L 131.009696 266.82886 
L 132.033526 274.827984 
L 133.230839 282.62357 
L 134.653857 290.090707 
L 136.354802 297.104481 
L 138.385897 303.539977 
L 140.799363 309.272283 
L 143.647422 314.176484 
L 143.647422 314.176484 
L 146.9629 318.460575 
L 150.709524 322.421427 
L 154.835867 326.067448 
L 159.290502 329.407042 
L 164.022004 332.448617 
L 168.978946 335.200578 
L 174.109902 337.67133 
L 179.363445 339.869281 
L 184.688149 341.802835 
L 190.032587 343.4804 
L 195.345334 344.91038 
L 200.574962 346.101182 
L 205.670046 347.061211 
L 210.579159 347.798875 
L 215.250874 348.322578 
L 219.633766 348.640727 
L 219.633766 348.640727 
L 223.8931 348.498613 
L 228.209496 347.699736 
L 232.554562 346.339816 
L 236.899903 344.514572 
L 241.217126 342.319722 
L 245.477838 339.850986 
L 249.653644 337.204082 
L 257.636968 331.758647 
L 264.939948 326.74917 
L 268.265325 324.647213 
L 271.335435 322.941403 
L 274.121886 321.727458 
L 276.596282 321.101097 
L 278.730232 321.15804 
L 278.730232 321.15804 
L 280.452501 321.860095 
L 281.743664 323.068648 
L 282.653036 324.72878 
L 283.22993 326.785575 
L 283.523663 329.184115 
L 283.583549 331.869482 
L 283.458904 334.786758 
L 282.853276 341.097367 
L 281.79372 350.929659 
L 281.597496 354.08512 
L 281.561945 357.088066 
L 281.736382 359.883581 
L 282.880191 367.024097 
L 283.000111 371.374995 
L 282.993422 375.564817 
L 283.087455 377.629129 
L 283.323664 379.688938 
L 283.75999 381.756166 
L 284.454378 383.842736 
L 285.464768 385.960568 
L 286.849104 388.121585 
L 288.665328 390.33771 
L 290.971383 392.620864 
L 293.825211 394.982969 
L 297.284755 397.435947 
L 297.284755 397.435947 
L 301.564313 399.955945 
L 306.754081 402.511696 
L 312.725849 405.103997 
L 319.351405 407.733646 
L 334.051044 413.108184 
L 357.79866 421.47006 
L 365.654533 424.340564 
L 373.266721 427.254004 
L 380.507015 430.211179 
L 386.769179 433 
L 386.769179 433 
" style="fill:none;stroke:#000000;stroke-width:5;"/>
    <path clip-path="url(#p235cfaf310)" d="M -1 102.3437 
L 1.126975 102.388069 
L 4.233623 102.132808 
L 7.413766 101.633524 
L 13.880073 100.198549 
L 20.296966 98.674458 
L 23.415342 98.06378 
L 26.435516 97.652567 
L 29.328871 97.514732 
L 32.066791 97.72419 
L 34.62066 98.354855 
L 36.961863 99.480641 
L 39.061781 101.175464 
L 39.061781 101.175464 
L 40.886481 103.480101 
L 42.444144 106.339046 
L 43.76933 109.681783 
L 44.896598 113.437797 
L 45.860507 117.536572 
L 46.695616 121.907592 
L 48.117674 131.184307 
L 50.148746 145.378335 
L 50.936804 149.902003 
L 51.837977 154.204308 
L 52.886826 158.214735 
L 54.117908 161.862768 
L 55.565784 165.077892 
L 57.184236 167.964683 
L 58.899437 170.681316 
L 60.704529 173.237672 
L 62.592657 175.643631 
L 64.556963 177.909074 
L 66.590591 180.04388 
L 68.686685 182.057932 
L 73.038843 185.763292 
L 77.558583 189.104197 
L 82.191054 192.159692 
L 89.231138 196.380702 
L 89.231138 196.380702 
L 91.642668 197.499376 
L 94.168673 198.191087 
L 96.789769 198.537139 
L 99.486567 198.618835 
L 105.029728 198.314378 
L 110.643063 197.928147 
L 113.42758 197.907627 
L 116.171482 198.110575 
L 118.855381 198.618297 
L 121.459892 199.512095 
L 123.965627 200.873273 
L 126.353201 202.783137 
L 128.603227 205.322989 
L 130.696318 208.574135 
L 130.696318 208.574135 
L 132.536528 212.686757 
L 134.075897 217.677041 
L 135.367021 223.425289 
L 136.462495 229.811805 
L 137.414915 236.716891 
L 139.100977 251.603991 
L 140.845969 267.129015 
L 141.872053 274.831506 
L 143.070657 282.334389 
L 144.494376 289.517965 
L 146.195806 296.262539 
L 148.227542 302.448414 
L 150.642179 307.955893 
L 153.492314 312.66528 
L 153.492314 312.66528 
L 156.812565 316.769353 
L 160.567543 320.5478 
L 164.704829 324.011287 
L 169.172006 327.17048 
L 173.916656 330.036044 
L 178.886362 332.618647 
L 184.028706 334.928953 
L 189.291271 336.977629 
L 194.621639 338.775341 
L 199.967392 340.332754 
L 205.276113 341.660534 
L 210.495383 342.769348 
L 215.572787 343.669861 
L 220.455905 344.372739 
L 225.09232 344.888649 
L 229.429615 345.228255 
L 229.429615 345.228255 
L 233.626063 345.143439 
L 237.858304 344.43992 
L 242.101468 343.209125 
L 246.330685 341.54248 
L 250.521084 339.531411 
L 254.647796 337.267344 
L 258.68595 334.841707 
L 276.67791 323.489874 
L 279.662449 322.014763 
L 282.384341 321.018064 
L 284.818715 320.591205 
L 286.940701 320.825612 
L 286.940701 320.825612 
L 288.682184 321.69641 
L 290.021951 323.079713 
L 291.005485 324.918422 
L 291.678272 327.155442 
L 292.085796 329.733675 
L 292.27354 332.596026 
L 292.28699 335.685397 
L 291.972943 342.316815 
L 291.331771 352.539182 
L 291.254624 355.791648 
L 291.321573 358.871458 
L 291.578101 361.721516 
L 292.844185 368.848808 
L 292.984804 373.028652 
L 292.962992 376.960168 
L 293.038499 378.875275 
L 293.250189 380.779267 
L 293.656991 382.689132 
L 294.317835 384.621858 
L 295.291651 386.594436 
L 296.63737 388.623853 
L 298.413921 390.727099 
L 300.680234 392.921162 
L 303.495239 395.223031 
L 306.917867 397.649696 
L 306.917867 397.649696 
L 311.157707 400.176889 
L 316.300361 402.767184 
L 322.218779 405.41783 
L 328.785908 408.126073 
L 343.358098 413.704347 
L 366.905439 422.434944 
L 374.696763 425.430984 
L 382.24744 428.465357 
L 392.587636 433 
L 392.587636 433 
" style="fill:none;stroke:#000000;stroke-width:5;"/>
    <path clip-path="url(#p235cfaf310)" d="M -1 99.044678 
L 0.43807 99.721989 
L 0.43807 99.721989 
L 3.212356 100.664011 
L 6.174878 101.147236 
L 9.293211 101.245085 
L 12.534927 101.030979 
L 15.8676 100.578339 
L 22.676108 99.251142 
L 29.45932 97.850865 
L 32.760374 97.306873 
L 35.957824 96.964876 
L 39.019243 96.898292 
L 41.912204 97.180545 
L 44.604281 97.885054 
L 47.063047 99.085242 
L 49.256075 100.854529 
L 49.256075 100.854529 
L 51.156034 103.238862 
L 52.780351 106.187094 
L 54.16374 109.627003 
L 55.340913 113.486369 
L 56.34658 117.692971 
L 57.215455 122.174587 
L 58.681676 131.673979 
L 60.722864 146.180149 
L 61.499937 150.79521 
L 62.383202 155.179738 
L 63.407371 159.261512 
L 64.607156 162.968311 
L 66.017269 166.227914 
L 66.017269 166.227914 
L 67.583488 169.141634 
L 69.225939 171.867224 
L 70.940853 174.417121 
L 72.724466 176.80376 
L 74.573009 179.039579 
L 76.482718 181.137015 
L 78.449824 183.108503 
L 82.541166 186.723385 
L 86.816901 189.983718 
L 91.246897 192.988995 
L 98.115216 197.236322 
L 98.115216 197.236322 
L 100.513934 198.406586 
L 103.04628 199.178687 
L 105.690605 199.628836 
L 108.425262 199.833247 
L 114.078982 199.809702 
L 119.834258 199.717754 
L 122.695861 199.836658 
L 125.517909 200.1671 
L 128.278756 200.785289 
L 130.956753 201.76744 
L 133.530253 203.189765 
L 135.977609 205.128475 
L 138.277172 207.659785 
L 140.407295 210.859905 
L 140.407295 210.859905 
L 142.275243 214.875312 
L 143.838024 219.725356 
L 145.148608 225.295556 
L 146.259964 231.471432 
L 147.225061 238.138505 
L 148.928355 252.488323 
L 150.682242 267.429169 
L 151.710581 274.835029 
L 152.910476 282.045207 
L 154.334895 288.945223 
L 156.036809 295.420598 
L 158.069186 301.356851 
L 160.484995 306.639503 
L 163.337206 311.154075 
L 163.337206 311.154075 
L 166.66223 315.078131 
L 170.425561 318.674172 
L 174.573791 321.955126 
L 179.053509 324.933917 
L 183.811308 327.623472 
L 188.793778 330.036716 
L 193.947511 332.186576 
L 199.219097 334.085978 
L 204.555129 335.747846 
L 209.902197 337.185108 
L 215.206892 338.410689 
L 220.415805 339.437514 
L 225.475527 340.278511 
L 230.332651 340.946604 
L 234.933766 341.45472 
L 239.225463 341.815784 
L 239.225463 341.815784 
L 243.359027 341.788265 
L 247.507113 341.180104 
L 251.648375 340.078433 
L 255.761467 338.570387 
L 259.825042 336.743099 
L 263.817754 334.683703 
L 271.505202 330.217121 
L 278.65304 325.867709 
L 281.971238 323.954775 
L 285.090495 322.332536 
L 287.989463 321.088123 
L 290.646796 320.308671 
L 293.041147 320.081314 
L 295.151171 320.493184 
L 295.151171 320.493184 
L 296.911867 321.532726 
L 298.300237 323.090778 
L 299.357935 325.108064 
L 300.126614 327.525308 
L 300.647928 330.283236 
L 300.963531 333.322571 
L 301.115077 336.584037 
L 301.09261 343.536264 
L 300.869823 354.148705 
L 300.911752 357.498176 
L 301.0812 360.65485 
L 301.41982 363.559451 
L 302.50338 368.488143 
L 302.808178 370.673519 
L 302.969497 374.682309 
L 302.989544 380.121422 
L 303.176714 381.869595 
L 303.553991 383.622097 
L 304.181292 385.400981 
L 305.118534 387.228304 
L 306.425636 389.126121 
L 308.162513 391.116488 
L 310.389085 393.221461 
L 313.165267 395.463094 
L 316.550979 397.863445 
L 316.550979 397.863445 
L 320.7511 400.397832 
L 325.846641 403.022672 
L 331.711709 405.731662 
L 338.220411 408.5185 
L 352.665151 414.300511 
L 376.012218 423.399827 
L 383.738994 426.521403 
L 391.22816 429.67671 
L 398.644957 433 
L 398.644957 433 
" style="fill:none;stroke:#000000;stroke-width:5;"/>
    <path clip-path="url(#p235cfaf310)" d="M -1 93.128111 
L -0.78628 93.296713 
L 1.230583 94.694733 
L 3.398313 96.01132 
L 5.75581 97.269774 
L 8.341974 98.493399 
L 8.341974 98.493399 
L 11.176081 99.457154 
L 14.227318 99.969078 
L 17.459447 100.102101 
L 20.836232 99.92915 
L 24.321434 99.523154 
L 31.472142 98.303736 
L 38.621674 97.027271 
L 42.105406 96.549967 
L 45.480132 96.277184 
L 48.709615 96.281853 
L 51.757617 96.6369 
L 54.587902 97.415254 
L 57.164231 98.689842 
L 59.450368 100.533593 
L 59.450368 100.533593 
L 61.425586 102.997622 
L 63.116559 106.035141 
L 64.558151 109.572223 
L 65.785228 113.534942 
L 66.832654 117.849371 
L 67.735294 122.441583 
L 69.245677 132.163651 
L 71.296981 146.981963 
L 72.063069 151.688417 
L 72.928426 156.155167 
L 73.927916 160.308288 
L 75.096404 164.073853 
L 76.468755 167.377935 
L 76.468755 167.377935 
L 77.982741 170.318585 
L 79.552441 173.053132 
L 81.177177 175.596569 
L 82.856275 177.963889 
L 84.589056 180.170085 
L 86.374844 182.230149 
L 88.212964 184.159074 
L 92.043489 187.683478 
L 96.075219 190.863238 
L 100.302741 193.818298 
L 106.999294 198.091943 
L 106.999294 198.091943 
L 109.385201 199.313797 
L 111.923886 200.166286 
L 114.591441 200.720533 
L 117.363957 201.047658 
L 123.128236 201.305027 
L 129.025453 201.50736 
L 131.964141 201.76569 
L 134.864336 202.223624 
L 137.70213 202.952282 
L 140.453614 204.022786 
L 143.094879 205.506256 
L 145.602017 207.473814 
L 147.951117 209.99658 
L 150.118272 213.145675 
L 150.118272 213.145675 
L 152.013958 217.063868 
L 153.600152 221.773671 
L 154.930196 227.165823 
L 156.057434 233.13106 
L 157.035207 239.56012 
L 158.755733 253.372654 
L 160.518515 267.729323 
L 161.549108 274.838552 
L 162.750294 281.756025 
L 164.175415 288.372481 
L 165.877813 294.578656 
L 167.910831 300.265288 
L 170.327812 305.323114 
L 173.182098 309.64287 
L 173.182098 309.64287 
L 176.511895 313.386909 
L 180.28358 316.800545 
L 184.442752 319.898965 
L 188.935012 322.697354 
L 193.705959 325.210899 
L 198.701194 327.454786 
L 203.866315 329.444199 
L 209.146924 331.194326 
L 214.488619 332.720351 
L 219.837001 334.037462 
L 225.13767 335.160843 
L 230.336226 336.10568 
L 235.378268 336.88716 
L 244.775211 338.02079 
L 249.021312 338.403312 
L 249.021312 338.403312 
L 253.09199 338.433091 
L 257.155921 337.920287 
L 261.195281 336.947741 
L 265.192249 335.598295 
L 269.129 333.954788 
L 272.987712 332.100062 
L 280.399727 328.088316 
L 287.285711 324.225786 
L 290.486884 322.557578 
L 293.50308 321.175197 
L 296.316477 320.161483 
L 298.909251 319.599278 
L 301.26358 319.571422 
L 303.36164 320.160756 
L 303.36164 320.160756 
L 305.14155 321.369042 
L 306.578523 323.101843 
L 307.710384 325.297705 
L 308.574956 327.895175 
L 309.21006 330.832796 
L 309.653522 334.049115 
L 309.943163 337.482677 
L 310.212277 344.755713 
L 310.407875 355.758228 
L 310.56888 359.204704 
L 310.840828 362.438242 
L 311.26154 365.397386 
L 312.441123 370.352994 
L 312.772172 372.49823 
L 312.95419 376.335966 
L 312.940588 381.367568 
L 313.103239 382.959924 
L 313.450991 384.555062 
L 314.044749 386.180104 
L 314.945417 387.862172 
L 316.213901 389.628389 
L 317.911106 391.505878 
L 320.097935 393.52176 
L 322.835295 395.703157 
L 326.18409 398.077193 
L 326.18409 398.077193 
L 330.344494 400.618775 
L 335.392921 403.27816 
L 341.204639 406.045495 
L 347.654914 408.910927 
L 361.972204 414.896675 
L 385.118997 424.364711 
L 392.781225 427.611823 
L 404.73864 433 
L 404.73864 433 
" style="fill:none;stroke:#000000;stroke-width:5;"/>
    <path clip-path="url(#p235cfaf310)" d="M -1 83.717556 
L 1.823679 87.031625 
L 3.539813 88.821127 
L 5.300267 90.465137 
L 7.147284 91.985426 
L 9.123109 93.403767 
L 11.269987 94.74193 
L 13.630161 96.021687 
L 16.245877 97.264809 
L 16.245877 97.264809 
L 19.139806 98.250296 
L 22.279757 98.79092 
L 25.625683 98.959117 
L 29.137536 98.827322 
L 32.775267 98.467968 
L 40.268177 97.356329 
L 47.784029 96.203677 
L 51.450438 95.79306 
L 55.00244 95.589493 
L 58.399987 95.665414 
L 61.60303 96.093255 
L 64.571522 96.945453 
L 67.265416 98.294443 
L 69.644662 100.212658 
L 69.644662 100.212658 
L 71.695139 102.756383 
L 73.452766 105.883188 
L 74.952561 109.517443 
L 76.229542 113.583514 
L 77.318727 118.00577 
L 78.255133 122.708578 
L 79.809679 132.653323 
L 81.871098 147.783777 
L 82.626202 152.581624 
L 83.47365 157.130597 
L 84.448461 161.355065 
L 85.585651 165.179396 
L 86.92024 168.527957 
L 88.381993 171.495536 
L 89.878943 174.23904 
L 91.413502 176.776018 
L 92.988084 179.124018 
L 94.605102 181.300591 
L 96.266971 183.323283 
L 97.976103 185.209645 
L 101.545812 188.643571 
L 105.333536 191.742759 
L 109.358584 194.6476 
L 115.883372 198.947564 
L 115.883372 198.947564 
L 118.256467 200.221007 
L 120.801492 201.153886 
L 123.492277 201.81223 
L 126.302652 202.26207 
L 132.177491 202.800352 
L 138.216648 203.296966 
L 141.232421 203.694722 
L 144.210763 204.280148 
L 147.125505 205.119275 
L 149.950475 206.278132 
L 152.659505 207.822748 
L 155.226424 209.819152 
L 157.625063 212.333375 
L 159.829249 215.431445 
L 159.829249 215.431445 
L 161.752673 219.252423 
L 163.362279 223.821987 
L 164.711784 229.03609 
L 165.854903 234.790688 
L 166.845353 240.981734 
L 168.583111 254.256985 
L 170.354788 268.029478 
L 171.387636 274.842074 
L 172.590113 281.466843 
L 174.015934 287.799739 
L 175.718816 293.736714 
L 177.752475 299.173725 
L 180.170628 304.006724 
L 183.02699 308.131666 
L 183.02699 308.131666 
L 186.36156 311.695687 
L 190.141599 314.926917 
L 194.311714 317.842804 
L 198.816515 320.460791 
L 203.600611 322.798327 
L 208.608609 324.872855 
L 213.785119 326.701822 
L 219.07475 328.302674 
L 224.422109 329.692857 
L 229.771806 330.889816 
L 235.068449 331.910997 
L 240.256647 332.773847 
L 250.086142 334.094333 
L 258.817161 334.990841 
L 258.817161 334.990841 
L 262.824954 335.077917 
L 266.804729 334.660471 
L 270.742188 333.81705 
L 274.62303 332.626202 
L 278.432957 331.166476 
L 282.15767 329.516421 
L 289.294252 325.959512 
L 295.918382 322.583863 
L 299.002529 321.160381 
L 301.915665 320.017858 
L 304.643491 319.234844 
L 307.171706 318.889885 
L 309.486012 319.06153 
L 311.57211 319.828328 
L 311.57211 319.828328 
L 313.371232 321.205357 
L 314.85681 323.112908 
L 316.062834 325.487347 
L 317.023297 328.265041 
L 317.772193 331.382356 
L 318.343513 334.77566 
L 318.771249 338.381317 
L 319.331944 345.975162 
L 319.945927 357.367751 
L 320.226008 360.911232 
L 320.600455 364.221633 
L 321.103259 367.235322 
L 322.378865 372.217846 
L 322.736166 374.322941 
L 322.902208 376.236137 
L 322.908084 379.615588 
L 322.891633 382.613714 
L 323.029765 384.050253 
L 323.347992 385.488027 
L 323.908206 386.959226 
L 324.772301 388.49604 
L 326.002167 390.130657 
L 327.659698 391.895267 
L 329.806786 393.822058 
L 332.505323 395.94322 
L 335.817202 398.290942 
L 335.817202 398.290942 
L 339.937888 400.839718 
L 344.939201 403.533648 
L 350.697569 406.359327 
L 357.089417 409.303354 
L 371.279258 415.492838 
L 394.225777 425.329594 
L 401.823456 428.702242 
L 411.042143 433 
L 411.042143 433 
" style="fill:none;stroke:#000000;stroke-width:5;"/>
    <path clip-path="url(#p235cfaf310)" d="M -1 71.171222 
L 8.34229 83.725495 
L 11.60263 87.479099 
L 13.29171 89.13632 
L 15.080849 90.67414 
L 17.015636 92.1128 
L 19.14166 93.47254 
L 21.504512 94.773599 
L 24.149781 96.036219 
L 24.149781 96.036219 
L 27.103531 97.043438 
L 30.332197 97.612762 
L 33.791919 97.816133 
L 37.43884 97.725493 
L 41.229101 97.412783 
L 49.064211 96.408922 
L 56.946383 95.380084 
L 60.79547 95.036153 
L 64.524749 94.901802 
L 68.090359 95.048974 
L 71.448443 95.549611 
L 74.555143 96.475653 
L 77.3666 97.899043 
L 79.838956 99.891723 
L 79.838956 99.891723 
L 81.964691 102.515143 
L 83.788973 105.731236 
L 85.346971 109.462663 
L 86.673857 113.632087 
L 87.804801 118.16217 
L 88.774972 122.975574 
L 90.373681 133.142995 
L 93.189334 153.47483 
L 94.018874 158.106026 
L 94.969006 162.401842 
L 96.074899 166.284938 
L 97.371725 169.677979 
L 97.371725 169.677979 
L 98.781245 172.672487 
L 100.205444 175.424948 
L 101.649826 177.955466 
L 103.119893 180.284148 
L 104.621149 182.431096 
L 106.159098 184.416417 
L 107.739243 186.260216 
L 111.048135 189.603664 
L 114.591854 192.62228 
L 118.414427 195.476903 
L 124.76745 199.803185 
L 124.76745 199.803185 
L 127.127734 201.128217 
L 129.679098 202.141485 
L 132.393113 202.903927 
L 135.241347 203.476481 
L 141.226745 204.295676 
L 147.407843 205.086573 
L 150.500701 205.623753 
L 153.55719 206.336672 
L 156.548879 207.286268 
L 159.447337 208.533478 
L 162.224131 210.139239 
L 164.850832 212.164491 
L 167.299008 214.67017 
L 169.540227 217.717215 
L 169.540227 217.717215 
L 171.491388 221.440978 
L 173.124407 225.870302 
L 174.493371 230.906358 
L 175.652372 236.450316 
L 176.655499 242.403348 
L 178.410489 255.141317 
L 180.19106 268.329632 
L 181.226163 274.845597 
L 182.429931 281.177661 
L 183.856453 287.226996 
L 185.55982 292.894773 
L 187.59412 298.082162 
L 190.013444 302.690334 
L 192.871882 306.620461 
L 192.871882 306.620461 
L 196.211225 310.004465 
L 199.999617 313.05329 
L 204.180676 315.786642 
L 208.698019 318.224229 
L 213.495263 320.385754 
L 218.516025 322.290924 
L 223.703924 323.959445 
L 229.002576 325.411022 
L 234.355599 326.665362 
L 239.706611 327.74217 
L 244.999228 328.661152 
L 255.183749 330.104459 
L 268.61301 331.578369 
L 268.61301 331.578369 
L 272.557917 331.722743 
L 276.453537 331.400655 
L 280.289094 330.686358 
L 284.053812 329.65411 
L 287.736915 328.378165 
L 291.327628 326.932779 
L 298.188777 323.830708 
L 304.551053 320.94194 
L 307.518175 319.763183 
L 310.32825 318.860519 
L 312.970504 318.308204 
L 315.434161 318.180492 
L 317.708445 318.551639 
L 319.782579 319.4959 
L 319.782579 319.4959 
L 321.600915 321.041673 
L 323.135096 323.123973 
L 324.415283 325.676989 
L 325.471639 328.634907 
L 326.334325 331.931917 
L 327.033503 335.502204 
L 327.599336 339.279957 
L 328.451611 347.194611 
L 329.883137 362.61776 
L 330.360082 366.005025 
L 330.944978 369.073257 
L 332.316607 374.082697 
L 332.70016 376.147651 
L 332.881523 377.98876 
L 332.8892 381.148465 
L 332.842677 383.85986 
L 332.95629 385.140581 
L 333.244992 386.420992 
L 333.771663 387.738349 
L 334.599184 389.129908 
L 335.790433 390.632925 
L 337.408291 392.284656 
L 339.515637 394.122357 
L 342.175351 396.183283 
L 345.450314 398.504691 
L 345.450314 398.504691 
L 349.531281 401.060662 
L 354.485481 403.789136 
L 360.190499 406.67316 
L 373.363329 412.840047 
L 410.865687 429.792662 
L 417.525069 433 
L 417.525069 433 
" style="fill:none;stroke:#000000;stroke-width:5;"/>
    <path clip-path="url(#p235cfaf310)" d="M -1 59.025815 
L 4.939649 66.385675 
L 9.603537 72.650103 
L 16.574962 82.376131 
L 19.665447 86.137071 
L 21.283153 87.807502 
L 23.014413 89.362854 
L 24.908162 90.821833 
L 27.013334 92.20315 
L 29.378863 93.525512 
L 32.053685 94.807629 
L 32.053685 94.807629 
L 35.067256 95.83658 
L 38.384636 96.434604 
L 41.958155 96.673149 
L 45.740144 96.623664 
L 49.682935 96.357598 
L 57.860246 95.461516 
L 66.108737 94.55649 
L 70.140502 94.279246 
L 74.047057 94.214111 
L 77.780731 94.432535 
L 81.293856 95.005966 
L 84.538764 96.005853 
L 87.467784 97.503644 
L 90.033249 99.570788 
L 90.033249 99.570788 
L 92.234244 102.273904 
L 94.12518 105.579283 
L 95.741382 109.407883 
L 97.118172 113.680659 
L 98.290874 118.318569 
L 99.294811 123.242569 
L 100.165306 128.373616 
L 101.647264 138.940677 
L 103.752467 154.368037 
L 104.564099 159.081456 
L 105.489551 163.448618 
L 106.564147 167.390481 
L 107.82321 170.828001 
L 107.82321 170.828001 
L 110.531946 176.610856 
L 111.88615 179.134915 
L 113.251702 181.444277 
L 114.637195 183.561602 
L 116.051224 185.509552 
L 117.502382 187.310787 
L 120.550458 190.563757 
L 123.850172 193.501801 
L 127.470271 196.306205 
L 133.651528 200.658806 
L 133.651528 200.658806 
L 135.999 202.035427 
L 138.556705 203.129085 
L 141.293949 203.995624 
L 144.180042 204.690893 
L 150.275999 205.791001 
L 156.599038 206.876179 
L 159.768981 207.552785 
L 162.903617 208.393196 
L 165.972254 209.453261 
L 168.944198 210.788823 
L 171.788757 212.455731 
L 174.47524 214.509829 
L 176.972953 217.006965 
L 179.251204 220.002985 
L 181.230103 223.629533 
L 182.886534 227.918617 
L 184.274959 232.776625 
L 185.449841 238.109944 
L 186.465645 243.824962 
L 188.237867 256.025648 
L 190.027333 268.629786 
L 191.064691 274.84912 
L 192.26975 280.88848 
L 193.696973 286.654254 
L 195.400823 292.052831 
L 197.435765 296.990599 
L 199.85626 301.373945 
L 202.716774 305.109257 
L 202.716774 305.109257 
L 206.06089 308.313242 
L 209.857636 311.179662 
L 214.049638 313.730481 
L 218.579522 315.987666 
L 223.389914 317.973181 
L 228.423441 319.708993 
L 233.622728 321.217068 
L 238.930402 322.519371 
L 244.289089 323.637868 
L 249.641415 324.594524 
L 260.097489 326.110179 
L 274.299548 327.719003 
L 278.408858 328.165898 
L 278.408858 328.165898 
L 282.29088 328.36757 
L 286.102345 328.140838 
L 289.836001 327.555666 
L 293.484594 326.682017 
L 297.040873 325.589853 
L 303.847479 323.029834 
L 313.183724 319.300017 
L 316.03382 318.365986 
L 318.740835 317.703181 
L 321.297518 317.381564 
L 323.696616 317.471098 
L 325.930877 318.041747 
L 327.993048 319.163473 
L 327.993048 319.163473 
L 329.830598 320.877988 
L 331.413382 323.135038 
L 332.767733 325.86663 
L 333.919981 329.004774 
L 334.896457 332.481477 
L 335.723494 336.228749 
L 336.427422 340.178597 
L 337.571278 348.41406 
L 339.540265 364.324288 
L 340.11971 367.788417 
L 340.786697 370.911192 
L 342.254349 375.947549 
L 342.664153 377.972362 
L 342.860838 379.741384 
L 342.870316 382.681343 
L 342.793721 385.106007 
L 342.882815 386.23091 
L 343.141992 387.353957 
L 343.635121 388.517472 
L 344.426067 389.763776 
L 345.578699 391.135193 
L 347.156883 392.674046 
L 349.224488 394.422656 
L 351.845379 396.423346 
L 355.083426 398.71844 
L 355.083426 398.71844 
L 359.124675 401.281605 
L 364.031761 404.044624 
L 369.683429 406.986993 
L 382.735486 413.327767 
L 419.907918 430.883082 
L 424.121416 433 
L 424.121416 433 
" style="fill:none;stroke:#000000;stroke-width:5;"/>
    <path clip-path="url(#p235cfaf310)" d="M -1 48.394118 
L 4.01576 53.8741 
L 7.75128 58.087787 
L 7.75128 58.087787 
L 10.902465 61.823786 
L 16.069891 68.465361 
L 20.072584 74.114219 
L 24.807633 81.026768 
L 27.728264 84.795043 
L 29.274596 86.478685 
L 30.947977 88.051567 
L 32.800688 89.530866 
L 34.885008 90.93376 
L 37.253215 92.277425 
L 39.957588 93.579039 
L 39.957588 93.579039 
L 43.030982 94.629722 
L 46.437076 95.256446 
L 50.124391 95.530165 
L 54.041449 95.521836 
L 58.136769 95.302413 
L 66.65628 94.514109 
L 75.271091 93.732897 
L 79.485535 93.522339 
L 83.569365 93.52642 
L 87.471103 93.816095 
L 91.139269 94.462321 
L 94.522384 95.536052 
L 97.568969 97.108244 
L 100.227543 99.249853 
L 100.227543 99.249853 
L 102.503796 102.032664 
L 104.461387 105.427331 
L 106.135792 109.353103 
L 107.562487 113.729232 
L 108.776948 118.474968 
L 109.81465 123.509564 
L 110.71107 128.752271 
L 112.221969 139.539018 
L 114.3156 155.261244 
L 115.109323 160.056885 
L 116.010096 164.495395 
L 117.053395 168.496023 
L 118.274696 171.978023 
L 118.274696 171.978023 
L 120.858448 177.796764 
L 123.383511 182.604406 
L 125.943351 186.602686 
L 128.631437 189.99334 
L 131.541238 192.978105 
L 134.76622 195.758717 
L 138.399854 198.536912 
L 142.535606 201.514427 
L 142.535606 201.514427 
L 144.870267 202.942637 
L 147.434311 204.116684 
L 150.194785 205.087321 
L 153.118737 205.905304 
L 159.325254 207.286326 
L 165.790233 208.665785 
L 169.037261 209.481816 
L 172.250044 210.449721 
L 175.395628 211.620253 
L 178.441059 213.044169 
L 181.353383 214.772222 
L 184.099648 216.855168 
L 186.646898 219.343761 
L 188.962181 222.288755 
L 188.962181 222.288755 
L 190.968819 225.818088 
L 192.648662 229.966932 
L 194.056547 234.646892 
L 195.247311 239.769572 
L 196.275791 245.246576 
L 198.065245 256.909979 
L 199.863606 268.929941 
L 200.903218 274.852642 
L 202.109568 280.599298 
L 203.537492 286.081512 
L 205.241827 291.21089 
L 207.277409 295.899036 
L 209.699077 300.057555 
L 212.561666 303.598052 
L 212.561666 303.598052 
L 215.910555 306.62202 
L 219.715655 309.306035 
L 223.9186 311.67432 
L 228.461025 313.751103 
L 233.284566 315.560609 
L 238.330857 317.127063 
L 243.541532 318.474691 
L 248.858228 319.627719 
L 254.222579 320.610373 
L 264.860785 322.16146 
L 274.98923 323.321758 
L 292.023844 325.012396 
L 295.751154 324.881022 
L 299.382907 324.424975 
L 302.915376 323.709925 
L 306.344831 322.801542 
L 312.879785 320.667459 
L 318.95794 318.548087 
L 321.816396 317.658094 
L 324.549465 316.968789 
L 327.15342 316.545842 
L 329.624532 316.454924 
L 331.959071 316.761705 
L 334.153309 317.531855 
L 336.203518 318.831045 
L 336.203518 318.831045 
L 338.060281 320.714304 
L 339.691669 323.146103 
L 341.120182 326.056272 
L 342.368323 329.37464 
L 343.45859 333.031037 
L 344.413485 336.955293 
L 345.255509 341.077237 
L 346.690945 349.633509 
L 349.197393 366.030816 
L 349.879337 369.571809 
L 350.628416 372.749127 
L 352.192091 377.8124 
L 352.628147 379.797073 
L 352.840153 381.494008 
L 352.851432 384.21422 
L 352.744766 386.352153 
L 352.80934 387.321238 
L 353.038993 388.286922 
L 353.498578 389.296595 
L 354.25295 390.397644 
L 355.366965 391.637461 
L 356.905476 393.063435 
L 358.933339 394.722954 
L 364.716537 398.932189 
L 364.716537 398.932189 
L 368.718069 401.502548 
L 373.578041 404.300112 
L 379.176359 407.300825 
L 392.107644 413.815488 
L 421.546114 428.224245 
L 430.910777 433 
L 430.910777 433 
" style="fill:none;stroke:#000000;stroke-width:5;"/>
    <path clip-path="url(#p235cfaf310)" d="M -1 39.036146 
L 8.387507 48.530751 
L 12.800521 53.13119 
L 16.534215 57.188165 
L 16.534215 57.188165 
L 19.66304 60.809947 
L 22.37617 64.168829 
L 26.777842 70.160478 
L 31.653239 77.567354 
L 34.401044 81.634075 
L 35.79108 83.453015 
L 37.266038 85.149868 
L 38.881542 86.740281 
L 40.693215 88.2399 
L 42.756682 89.66437 
L 45.127566 91.029338 
L 47.861492 92.350449 
L 47.861492 92.350449 
L 50.994707 93.422865 
L 54.489515 94.078288 
L 58.290627 94.387181 
L 62.342753 94.420007 
L 66.590603 94.247227 
L 88.830567 92.765432 
L 93.091673 92.838729 
L 97.161475 93.199656 
L 100.984682 93.918676 
L 104.506005 95.066252 
L 107.670153 96.712845 
L 110.421837 98.928917 
L 110.421837 98.928917 
L 112.773349 101.791425 
L 114.797594 105.275378 
L 116.530202 109.298323 
L 118.006802 113.777804 
L 119.263021 118.631368 
L 120.334489 123.77656 
L 121.256835 129.130925 
L 122.796673 140.137359 
L 124.878732 156.154451 
L 125.654547 161.032315 
L 126.530641 165.542171 
L 127.542643 169.601566 
L 128.726181 173.128044 
L 128.726181 173.128044 
L 131.18495 178.982671 
L 133.51532 183.764535 
L 135.835478 187.69582 
L 138.263612 190.998712 
L 140.917912 193.895395 
L 143.916565 196.608056 
L 147.377759 199.358878 
L 151.419684 202.370048 
L 151.419684 202.370048 
L 153.741533 203.849848 
L 156.311917 205.104283 
L 159.095622 206.179018 
L 162.057431 207.119716 
L 168.374508 208.78165 
L 174.981427 210.455392 
L 178.305541 211.410848 
L 181.596471 212.506245 
L 184.819002 213.787246 
L 187.93792 215.299515 
L 190.918009 217.088714 
L 193.724055 219.200506 
L 196.320843 221.680556 
L 198.673158 224.574525 
L 198.673158 224.574525 
L 200.707534 228.006644 
L 202.410789 232.015248 
L 203.838134 236.517159 
L 205.04478 241.429199 
L 206.085936 246.66819 
L 207.892623 257.794311 
L 209.699879 269.230095 
L 210.741746 274.856165 
L 211.949387 280.310116 
L 213.378011 285.50877 
L 215.08283 290.368948 
L 217.119054 294.807473 
L 219.541893 298.741165 
L 222.406558 302.086847 
L 222.406558 302.086847 
L 225.76022 304.930798 
L 229.573673 307.432407 
L 233.787562 309.618159 
L 238.342528 311.51454 
L 243.179217 313.148036 
L 248.238272 314.545132 
L 253.460337 315.732314 
L 258.786055 316.736067 
L 264.156069 317.582878 
L 274.791564 318.911614 
L 301.756807 321.657222 
L 305.399962 321.621205 
L 308.929814 321.294283 
L 312.346158 320.737832 
L 315.648789 320.013231 
L 321.912091 318.305084 
L 327.718079 316.660865 
L 330.449067 316.016171 
L 333.065111 315.571591 
L 335.566006 315.388503 
L 337.951546 315.528284 
L 340.221526 316.052312 
L 342.375742 317.021964 
L 344.413987 318.498617 
L 344.413987 318.498617 
L 346.289964 320.55062 
L 347.969955 323.157168 
L 349.472632 326.245914 
L 350.816664 329.744507 
L 352.020722 333.580598 
L 353.103476 337.681838 
L 354.97975 346.390367 
L 357.351133 359.633045 
L 358.854521 367.737344 
L 359.638964 371.3552 
L 360.470135 374.587062 
L 362.129833 379.677252 
L 362.592141 381.621784 
L 362.819468 383.246631 
L 362.832547 385.747097 
L 362.69581 387.598299 
L 362.735866 388.411567 
L 362.935993 389.219888 
L 363.362035 390.075717 
L 364.079833 391.031513 
L 365.15523 392.139729 
L 366.654068 393.452824 
L 371.185435 396.903472 
L 374.349649 399.145938 
L 374.349649 399.145938 
L 378.311462 401.723491 
L 383.124321 404.555599 
L 388.669289 407.614658 
L 401.479801 414.303209 
L 433 430.428255 
L 433 430.428255 
" style="fill:none;stroke:#000000;stroke-width:5;"/>
    <path clip-path="url(#p235cfaf310)" d="M -1 30.866828 
L 12.151443 43.199958 
L 21.585282 52.38828 
L 25.31715 56.288543 
L 25.31715 56.288543 
L 28.423615 59.796107 
L 31.094431 63.060406 
L 33.388568 66.095554 
L 37.08268 71.534856 
L 42.545385 80.284688 
L 43.853897 82.110987 
L 45.257481 83.821051 
L 46.815106 85.428995 
L 48.585741 86.948933 
L 50.628355 88.39498 
L 53.001917 89.781251 
L 55.765395 91.12186 
L 55.765395 91.12186 
L 58.958432 92.216007 
L 62.541954 92.90013 
L 66.456863 93.244197 
L 70.644057 93.318178 
L 75.044437 93.192042 
L 93.595799 92.08571 
L 98.175599 92.008525 
L 102.613982 92.151037 
L 106.851847 92.583217 
L 110.830095 93.375032 
L 114.489626 94.596451 
L 117.771337 96.317445 
L 120.61613 98.607982 
L 120.61613 98.607982 
L 123.042901 101.550185 
L 125.133801 105.123426 
L 126.924613 109.243543 
L 128.451117 113.826377 
L 129.749094 118.787767 
L 130.854328 124.043555 
L 131.802599 129.50958 
L 133.371378 140.7357 
L 135.441865 157.047658 
L 136.199771 162.007744 
L 137.051186 166.588948 
L 138.031891 170.707109 
L 139.177666 174.278066 
L 139.177666 174.278066 
L 141.511452 180.168579 
L 143.647129 184.924664 
L 145.727604 188.788954 
L 147.895787 192.004084 
L 150.294586 194.812686 
L 153.066909 197.457395 
L 156.355665 200.180845 
L 160.303762 203.225669 
L 160.303762 203.225669 
L 162.6128 204.757058 
L 165.189523 206.091883 
L 167.996458 207.270715 
L 170.996126 208.334127 
L 177.423762 210.276975 
L 184.172622 212.244998 
L 187.573821 213.339879 
L 190.942898 214.562769 
L 194.242377 215.954239 
L 197.434781 217.55486 
L 200.482635 219.405205 
L 203.348463 221.545845 
L 205.994788 224.017351 
L 208.384135 226.860295 
L 208.384135 226.860295 
L 210.446249 230.195199 
L 212.172917 234.063563 
L 213.619722 238.387426 
L 214.842249 243.088827 
L 215.896082 248.089804 
L 217.720002 258.678642 
L 219.536152 269.530249 
L 220.580273 274.859687 
L 221.789205 280.020934 
L 223.21853 284.936028 
L 224.923833 289.527006 
L 226.960698 293.715909 
L 229.384709 297.424775 
L 232.25145 300.575643 
L 232.25145 300.575643 
L 235.609885 303.239576 
L 239.431692 305.55878 
L 243.656523 307.561998 
L 248.224032 309.277978 
L 253.073869 310.735463 
L 258.145688 311.963201 
L 263.379141 312.989937 
L 268.713881 313.844416 
L 274.089559 314.555384 
L 284.722343 315.661769 
L 303.823885 317.417215 
L 311.489771 318.302048 
L 315.04877 318.361389 
L 318.47672 318.163591 
L 321.776939 317.76574 
L 328.007459 316.598214 
L 336.478218 314.773642 
L 339.081738 314.374248 
L 341.580756 314.174394 
L 343.978591 314.231165 
L 346.27856 314.601644 
L 348.483981 315.342919 
L 350.598174 316.512072 
L 352.624457 318.166189 
L 352.624457 318.166189 
L 354.519646 320.386935 
L 356.248242 323.168233 
L 357.825082 326.435555 
L 359.265006 330.114373 
L 360.582854 334.130158 
L 361.793466 338.408382 
L 363.952339 347.454035 
L 366.757362 361.1276 
L 368.511649 369.443872 
L 369.398592 373.138592 
L 370.311854 376.424997 
L 372.067575 381.542104 
L 372.556134 383.446495 
L 372.798782 384.999255 
L 372.813663 387.279974 
L 372.662391 389.501895 
L 372.832993 390.152853 
L 373.225492 390.85484 
L 373.906716 391.665381 
L 374.943496 392.641997 
L 378.35104 395.323552 
L 383.982761 399.359687 
L 383.982761 399.359687 
L 387.904856 401.944435 
L 392.670601 404.811087 
L 404.261931 411.26549 
L 433 426.516658 
L 433 426.516658 
" style="fill:none;stroke:#000000;stroke-width:5;"/>
    <path clip-path="url(#p235cfaf310)" d="M -1 23.796187 
L 25.926487 47.473335 
L 30.370042 51.645369 
L 34.100085 55.38892 
L 37.184189 58.782268 
L 39.812692 61.951983 
L 42.047907 64.910651 
L 43.952147 67.670854 
L 47.016963 72.646196 
L 50.689727 78.935301 
L 51.916714 80.768959 
L 53.248924 82.492234 
L 54.748671 84.117708 
L 56.478268 85.657966 
L 58.500029 87.12559 
L 60.876268 88.533164 
L 63.669299 89.89327 
L 63.669299 89.89327 
L 66.922157 91.009149 
L 70.594394 91.721971 
L 74.623099 92.101213 
L 78.945361 92.216349 
L 83.49827 92.136857 
L 102.758153 91.262116 
L 107.520631 91.251618 
L 112.13629 91.463346 
L 116.542219 91.966777 
L 120.675509 92.831387 
L 124.473246 94.126651 
L 127.872522 95.922046 
L 130.810424 98.287047 
L 130.810424 98.287047 
L 133.312454 101.308946 
L 135.470009 104.971473 
L 137.319023 109.188762 
L 138.895431 113.874949 
L 140.235168 118.944167 
L 141.374167 124.310551 
L 142.348363 129.888235 
L 143.946083 141.334041 
L 146.004997 157.940865 
L 146.744996 162.983174 
L 147.571731 167.635725 
L 148.521138 171.812651 
L 149.629152 175.428088 
L 149.629152 175.428088 
L 152.831447 183.852709 
L 154.701381 188.083625 
L 156.55494 191.51307 
L 158.559751 194.404129 
L 160.883443 197.019883 
L 163.693644 199.623415 
L 167.157984 202.477808 
L 169.18784 204.08129 
L 169.18784 204.08129 
L 171.484066 205.664268 
L 174.06713 207.079482 
L 176.897294 208.362413 
L 179.934821 209.548539 
L 186.473016 211.772299 
L 193.363817 214.034604 
L 196.842101 215.268911 
L 200.289325 216.619293 
L 203.665751 218.121232 
L 206.931643 219.810206 
L 210.047261 221.721697 
L 212.972871 223.891183 
L 215.668733 226.354146 
L 218.095112 229.146065 
L 218.095112 229.146065 
L 220.184964 232.383754 
L 221.935044 236.111878 
L 223.40131 240.257693 
L 224.639719 244.748455 
L 225.706228 249.511419 
L 227.54738 259.562974 
L 229.372425 269.830403 
L 230.418801 274.86321 
L 231.629023 279.731752 
L 233.05905 284.363285 
L 234.764837 288.685065 
L 236.802343 292.624346 
L 239.227525 296.108386 
L 242.096341 299.064438 
L 242.096341 299.064438 
L 245.45955 301.548354 
L 249.289711 303.685152 
L 253.525485 305.505837 
L 258.105535 307.041415 
L 262.968521 308.322891 
L 268.053104 309.38127 
L 273.297945 310.24756 
L 278.641707 310.952764 
L 289.380634 312.00394 
L 313.66533 313.983286 
L 321.222734 314.946874 
L 324.697578 315.101573 
L 328.023627 315.0329 
L 331.207721 314.793647 
L 337.177417 314.014573 
L 342.661401 313.186686 
L 345.238356 312.886419 
L 347.714409 312.732325 
L 350.096402 312.777197 
L 352.391176 313.073826 
L 354.605573 313.675005 
L 356.746436 314.633525 
L 358.820607 316.00218 
L 360.834926 317.833761 
L 360.834926 317.833761 
L 362.749329 320.223251 
L 364.526528 323.179299 
L 366.177531 326.625197 
L 367.713348 330.48424 
L 369.144987 334.679718 
L 370.483457 339.134927 
L 372.924928 348.517702 
L 379.158219 374.921984 
L 380.153573 378.262932 
L 382.005317 383.406955 
L 382.520128 385.271206 
L 382.778097 386.751879 
L 382.794779 388.812851 
L 382.588916 390.592224 
L 382.729994 391.085818 
L 383.088949 391.633963 
L 383.7336 392.299249 
L 386.151253 394.231603 
L 393.615872 399.573436 
L 393.615872 399.573436 
L 397.498249 402.165378 
L 402.216881 405.066575 
L 413.696434 411.657917 
L 433 422.298068 
L 433 422.298068 
" style="fill:none;stroke:#000000;stroke-width:5;"/>
    <path clip-path="url(#p235cfaf310)" d="M -1 17.697244 
L 5.800817 23.326192 
L 29.631059 42.665391 
L 34.695977 46.944627 
L 39.154803 50.902459 
L 42.88302 54.489298 
L 42.88302 54.489298 
L 45.944764 57.768428 
L 48.530952 60.843561 
L 50.707245 63.725748 
L 52.5393 66.426041 
L 55.433333 71.325154 
L 58.834068 77.585913 
L 59.979531 79.426931 
L 61.240367 81.163416 
L 62.682235 82.806422 
L 64.370794 84.366999 
L 66.371703 85.8562 
L 68.750619 87.285077 
L 71.573203 88.66468 
L 71.573203 88.66468 
L 74.885882 89.802291 
L 78.646833 90.543813 
L 82.789335 90.958229 
L 87.246666 91.114521 
L 91.952104 91.081672 
L 111.920507 90.438522 
L 116.865663 90.494711 
L 121.658598 90.775655 
L 126.232592 91.350338 
L 130.520922 92.287742 
L 134.456867 93.656851 
L 137.973706 95.526646 
L 141.004717 97.966112 
L 141.004717 97.966112 
L 143.582006 101.067706 
L 145.806216 104.81952 
L 147.713433 109.133982 
L 149.339746 113.923521 
L 150.721241 119.100566 
L 151.894006 124.577546 
L 152.894127 130.266889 
L 154.520787 141.932382 
L 156.56813 158.834072 
L 157.29022 163.958603 
L 158.092276 168.682501 
L 159.010386 172.918194 
L 160.080637 176.57811 
L 160.080637 176.57811 
L 163.067771 185.032158 
L 164.717428 189.21413 
L 166.318079 192.563641 
L 168.062074 195.364222 
L 170.14176 197.899404 
L 172.749488 200.452718 
L 176.077605 203.307695 
L 178.071918 204.936911 
L 178.071918 204.936911 
L 180.355333 206.571478 
L 182.944736 208.067082 
L 185.79813 209.45411 
L 188.873516 210.76295 
L 195.522271 213.267624 
L 206.110382 217.197942 
L 209.635752 218.675817 
L 213.089126 220.288224 
L 216.428504 222.065552 
L 219.611887 224.038188 
L 222.597278 226.236522 
L 225.342678 228.690941 
L 227.806089 231.431835 
L 227.806089 231.431835 
L 229.923679 234.572309 
L 231.697172 238.160194 
L 233.182897 242.127961 
L 234.437188 246.408083 
L 235.516374 250.933033 
L 237.374758 260.447305 
L 239.208697 270.130558 
L 240.257328 274.866733 
L 241.468842 279.44257 
L 242.899569 283.790543 
L 244.60584 287.843123 
L 246.643988 291.532783 
L 249.070342 294.791996 
L 251.941233 297.553233 
L 251.941233 297.553233 
L 255.309215 299.857132 
L 259.147729 301.811525 
L 263.394447 303.449676 
L 267.987038 304.804852 
L 272.863172 305.910318 
L 277.960519 306.79934 
L 283.21675 307.505183 
L 288.569533 308.061112 
L 299.315439 308.856294 
L 319.223363 310.111384 
L 323.506776 310.549357 
L 330.955698 311.5917 
L 334.346386 311.841756 
L 337.570533 311.902208 
L 343.560662 311.648296 
L 351.555926 311.057882 
L 353.998495 310.999196 
L 356.34708 311.090402 
L 358.612047 311.379999 
L 360.803761 311.916487 
L 362.932587 312.748365 
L 365.008891 313.924132 
L 367.043039 315.492289 
L 369.045396 317.501333 
L 369.045396 317.501333 
L 370.979012 320.059566 
L 372.804814 323.190364 
L 374.529981 326.814839 
L 376.161689 330.854106 
L 377.707119 335.229279 
L 379.173448 339.861471 
L 381.897516 349.58137 
L 388.917847 376.705376 
L 389.995292 380.100867 
L 391.94306 385.271807 
L 392.484122 387.095917 
L 392.757412 388.504502 
L 392.775895 390.345729 
L 392.515441 391.682553 
L 392.626994 392.018783 
L 392.952406 392.413086 
L 394.520028 393.646533 
L 403.248984 399.787185 
L 403.248984 399.787185 
L 407.091643 402.386321 
L 411.763161 405.322063 
L 423.130936 412.050344 
L 433 417.70907 
L 433 417.70907 
" style="fill:none;stroke:#000000;stroke-width:5;"/>
    <path clip-path="url(#p235cfaf310)" d="M -1 12.352099 
L 1.89608 14.735455 
L 8.042433 19.572595 
L 20.636081 29.092803 
L 38.370866 42.398107 
L 43.465466 46.415919 
L 47.939564 50.159549 
L 51.665956 53.589676 
L 51.665956 53.589676 
L 54.705338 56.754588 
L 57.249213 59.735138 
L 59.366583 62.540845 
L 61.126453 65.181229 
L 62.597825 67.665811 
L 64.95109 72.205651 
L 66.978409 76.236526 
L 68.042347 78.084903 
L 69.23181 79.834599 
L 70.6158 81.495136 
L 72.263321 83.076033 
L 74.243376 84.586811 
L 76.624971 86.036989 
L 79.477106 87.43609 
L 79.477106 87.43609 
L 82.849607 88.595433 
L 86.699273 89.365655 
L 90.955571 89.815245 
L 95.54797 90.012692 
L 100.405938 90.026487 
L 121.082861 89.614929 
L 126.210695 89.737804 
L 131.180906 90.087964 
L 135.922964 90.733898 
L 140.366335 91.744097 
L 144.440487 93.18705 
L 148.07489 95.131247 
L 151.199011 97.645177 
L 151.199011 97.645177 
L 153.851559 100.826467 
L 156.142423 104.667568 
L 158.107844 109.079202 
L 159.784061 113.972094 
L 161.207315 119.256966 
L 162.413845 124.844541 
L 163.439891 130.645544 
L 164.321693 136.570697 
L 165.797526 148.436347 
L 167.131262 159.727279 
L 167.835444 164.934033 
L 168.612821 169.729278 
L 169.499634 174.023736 
L 170.532122 177.728131 
L 170.532122 177.728131 
L 174.733474 190.344636 
L 176.081219 193.614212 
L 177.564397 196.324315 
L 179.400078 198.778925 
L 181.805331 201.282021 
L 184.997225 204.137582 
L 186.955996 205.792532 
L 186.955996 205.792532 
L 189.226599 207.478689 
L 191.822342 209.054681 
L 194.698966 210.545807 
L 197.812211 211.977362 
L 204.571525 214.762949 
L 215.378662 219.126974 
L 218.982179 220.732342 
L 222.5125 222.455217 
L 225.925365 224.320898 
L 229.176513 226.35468 
L 232.221686 228.58186 
L 235.016624 231.027736 
L 237.517066 233.717605 
L 237.517066 233.717605 
L 239.662394 236.760864 
L 241.459299 240.208509 
L 242.964485 243.998228 
L 244.234657 248.067711 
L 245.32652 252.354647 
L 247.202136 261.331636 
L 249.04497 270.430712 
L 250.095856 274.870255 
L 251.30866 279.153389 
L 252.740088 283.217801 
L 254.446844 287.001182 
L 256.485632 290.44122 
L 258.913158 293.475606 
L 261.786125 296.042029 
L 265.15888 298.16591 
L 269.005748 299.937897 
L 273.263409 301.393515 
L 277.868541 302.568289 
L 282.757824 303.497745 
L 287.867935 304.217409 
L 293.135554 304.762806 
L 303.890029 305.4729 
L 329.100109 306.685248 
L 333.348222 307.115427 
L 340.688661 308.236526 
L 343.995195 308.58194 
L 350.069285 308.849462 
L 360.450451 308.929078 
L 362.758634 309.111974 
L 364.979752 309.448479 
L 367.127692 309.982802 
L 369.216346 310.759148 
L 371.259601 311.821725 
L 373.271346 313.214739 
L 375.265472 314.982397 
L 377.255865 317.168906 
L 377.255865 317.168906 
L 379.208695 319.895882 
L 381.083101 323.201429 
L 382.88243 327.004481 
L 384.610031 331.223972 
L 386.269252 335.778839 
L 387.863439 340.588016 
L 390.870105 350.645038 
L 398.677474 378.488768 
L 399.837011 381.938802 
L 402.448116 388.920627 
L 402.736727 390.257126 
L 402.816428 391.218878 
L 402.628267 392.309033 
L 402.441966 392.772881 
L 402.523994 392.951748 
L 403.387366 393.566985 
L 407.477593 396.224448 
L 416.685037 402.607264 
L 421.309441 405.577551 
L 433 412.701439 
L 433 412.701439 
" style="fill:none;stroke:#000000;stroke-width:5;"/>
    <path clip-path="url(#p235cfaf310)" d="M -1 7.521717 
L 4.373768 11.92185 
L 10.305563 16.453421 
L 16.511665 20.961415 
L 29.227235 29.790455 
L 41.481368 38.176533 
L 47.110674 42.130824 
L 52.234956 45.887211 
L 56.724324 49.416639 
L 60.448891 52.690053 
L 60.448891 52.690053 
L 63.465913 55.740749 
L 65.967474 58.626715 
L 68.025922 61.355942 
L 69.713605 63.936417 
L 71.102873 66.37613 
L 73.275553 70.865225 
L 75.12275 74.887139 
L 76.105164 76.742875 
L 77.223253 78.505782 
L 78.549364 80.183849 
L 80.155847 81.785066 
L 82.11505 83.317421 
L 84.499322 84.788902 
L 87.38101 86.2075 
L 87.38101 86.2075 
L 90.813332 87.388575 
L 94.751712 88.187497 
L 99.121807 88.672261 
L 103.849274 88.910863 
L 108.859772 88.971301 
L 130.245215 88.791335 
L 135.555727 88.980897 
L 140.703215 89.400273 
L 145.613336 90.117459 
L 150.211748 91.200453 
L 154.424108 92.71725 
L 158.176075 94.735847 
L 161.393305 97.324241 
L 161.393305 97.324241 
L 164.121111 100.585228 
L 166.47863 104.515615 
L 168.502254 109.024422 
L 170.228376 114.020666 
L 171.693388 119.413365 
L 172.933684 125.111537 
L 173.985655 131.024199 
L 174.885695 137.060369 
L 176.375552 149.139304 
L 178.380668 165.909463 
L 179.133366 170.776054 
L 179.988882 175.129279 
L 180.983607 178.878153 
L 180.983607 178.878153 
L 184.174365 189.565181 
L 185.296111 193.161491 
L 186.424487 196.025571 
L 187.801282 198.481849 
L 188.658396 199.658445 
L 190.861175 202.111323 
L 193.916845 204.96747 
L 195.840074 206.648153 
L 195.840074 206.648153 
L 198.097865 208.385899 
L 200.699948 210.042281 
L 203.599802 211.637504 
L 210.106739 214.725295 
L 228.328606 222.788866 
L 231.935875 224.62221 
L 235.422226 226.576243 
L 238.741139 228.671171 
L 241.846094 230.927199 
L 244.690569 233.364532 
L 247.228043 236.003375 
L 247.228043 236.003375 
L 249.401109 238.949419 
L 251.221426 242.256824 
L 252.746073 245.868495 
L 254.032127 249.727339 
L 255.136666 253.776261 
L 257.029514 262.215968 
L 258.881243 270.730866 
L 259.934384 274.873778 
L 261.148479 278.864207 
L 262.580607 282.645059 
L 264.287847 286.15924 
L 266.327277 289.349657 
L 268.755974 292.159216 
L 271.631017 294.530824 
L 271.631017 294.530824 
L 275.008545 296.474688 
L 278.863767 298.06427 
L 283.132371 299.337354 
L 287.750045 300.331727 
L 292.652475 301.085173 
L 297.775351 301.635478 
L 303.054358 302.020428 
L 313.82352 302.445405 
L 334.405674 302.973656 
L 338.976855 303.259113 
L 343.189667 303.681498 
L 353.644003 305.322124 
L 359.500067 305.87737 
L 367.07362 306.493211 
L 369.344976 306.800274 
L 371.518773 307.224751 
L 373.612423 307.806556 
L 375.643338 308.585605 
L 377.628931 309.60181 
L 379.586615 310.895085 
L 381.533802 312.505346 
L 383.487904 314.472505 
L 385.466335 316.836478 
L 385.466335 316.836478 
L 387.438378 319.732198 
L 389.361387 323.212494 
L 391.23488 327.194122 
L 393.058373 331.593839 
L 394.831384 336.3284 
L 398.224027 346.469077 
L 401.408946 356.950202 
L 407.140161 376.269985 
L 409.678731 383.776737 
L 412.412109 390.745338 
L 412.716042 392.00975 
L 412.801121 392.872535 
L 412.597837 393.704385 
L 412.368492 393.86321 
L 412.420995 393.884713 
L 413.214249 394.200853 
L 415.397031 395.39977 
L 419.535576 398.103787 
L 426.27843 402.828208 
L 433 407.194296 
L 433 407.194296 
" style="fill:none;stroke:#000000;stroke-width:5;"/>
    <path clip-path="url(#p235cfaf310)" d="M -1 2.369869 
L 2.119961 5.420636 
L 7.152004 9.6878 
L 12.727891 13.944312 
L 18.715047 18.171387 
L 24.980898 22.350235 
L 37.818388 30.488107 
L 50.179769 38.207629 
L 55.850482 41.86354 
L 61.004446 45.358503 
L 65.509085 48.673729 
L 69.231826 51.790431 
L 69.231826 51.790431 
L 72.226488 54.726909 
L 74.685735 57.518292 
L 76.68526 60.171038 
L 78.300758 62.691605 
L 79.607921 65.086448 
L 81.600016 69.524799 
L 83.267092 73.537752 
L 84.167981 75.400847 
L 85.214695 77.176965 
L 86.482929 78.872563 
L 88.048374 80.494099 
L 89.986724 82.048031 
L 92.373673 83.540815 
L 95.284914 84.97891 
L 95.284914 84.97891 
L 98.777058 86.181718 
L 102.804152 87.009339 
L 107.288043 87.529277 
L 112.150579 87.809035 
L 122.698971 87.918024 
L 133.824106 87.876334 
L 139.407569 87.967742 
L 144.900759 88.22399 
L 150.225523 88.712581 
L 155.303708 89.50102 
L 160.057161 90.656808 
L 164.407729 92.247449 
L 168.277259 94.340448 
L 171.587598 97.003306 
L 171.587598 97.003306 
L 174.390664 100.343988 
L 176.814837 104.363663 
L 178.896664 108.969642 
L 180.672691 114.069239 
L 182.179462 119.569765 
L 183.453523 125.378532 
L 184.531419 131.402853 
L 185.449697 137.55004 
L 186.953577 149.842261 
L 188.925893 166.884892 
L 189.653911 171.822831 
L 190.47813 176.234821 
L 191.435093 180.028175 
L 191.435093 180.028175 
L 193.143962 186.098119 
L 196.056662 197.030943 
L 196.569043 198.244501 
L 197.177956 199.399139 
L 197.916714 200.537966 
L 198.81863 201.704092 
L 201.245192 204.290678 
L 204.724152 207.503774 
L 204.724152 207.503774 
L 206.969132 209.293109 
L 209.577555 211.02988 
L 212.500638 212.729201 
L 219.09566 216.075946 
L 237.675033 224.84539 
L 241.359249 226.789203 
L 244.919087 228.831589 
L 248.305765 230.987663 
L 251.470502 233.272537 
L 254.364514 235.701327 
L 256.93902 238.289145 
L 256.93902 238.289145 
L 259.139824 241.137975 
L 260.983554 244.305139 
L 262.527661 247.738762 
L 263.829596 251.386966 
L 264.946812 255.197875 
L 266.856892 263.100299 
L 268.717516 271.031021 
L 269.772911 274.877301 
L 270.988297 278.575025 
L 272.421127 282.072316 
L 274.128851 285.317298 
L 276.168921 288.258094 
L 278.59879 290.842827 
L 281.475909 293.019619 
L 281.475909 293.019619 
L 284.858209 294.783466 
L 288.721785 296.190642 
L 293.001333 297.281193 
L 297.631548 298.095164 
L 302.547127 298.6726 
L 307.682767 299.053548 
L 312.973163 299.278051 
L 323.75701 299.41791 
L 339.460859 299.455508 
L 344.308415 299.582305 
L 348.853601 299.832977 
L 353.031113 300.247569 
L 360.154588 301.526179 
L 366.211252 302.510133 
L 373.857249 303.680008 
L 378.239501 304.671469 
L 380.278912 305.337528 
L 382.245094 306.164633 
L 384.158983 307.188407 
L 386.041516 308.444471 
L 387.913629 309.968445 
L 389.796257 311.795953 
L 391.710336 313.962614 
L 393.676804 316.50405 
L 393.676804 316.50405 
L 395.668061 319.568513 
L 397.639673 323.223559 
L 399.587329 327.383764 
L 401.506715 331.963705 
L 403.393516 336.87796 
L 407.052113 347.367717 
L 410.528613 358.169651 
L 416.797289 377.976513 
L 419.52045 385.614672 
L 422.376103 392.570049 
L 422.785814 394.526191 
L 422.719242 394.94436 
L 422.567407 395.099736 
L 422.295017 394.953538 
L 422.317995 394.817678 
L 422.542778 394.750454 
L 423.041132 394.834721 
L 423.884825 395.153337 
L 425.145624 395.78916 
L 426.895294 396.825045 
L 429.205604 398.34385 
L 433 401.027871 
L 433 401.027871 
" style="fill:none;stroke:#000000;stroke-width:5;"/>
    <path clip-path="url(#p235cfaf310)" d="M 1.999374 -1 
L 2.447979 -0.281882 
L 6.005563 3.846994 
L 10.38727 7.937075 
L 15.45784 11.979842 
L 21.082013 15.966775 
L 27.12453 19.889352 
L 33.45013 23.739055 
L 46.409542 31.185759 
L 58.87817 38.238725 
L 64.59029 41.596257 
L 69.773936 44.829795 
L 74.293846 47.930819 
L 78.014761 50.890809 
L 78.014761 50.890809 
L 80.987062 53.71307 
L 83.403995 56.40987 
L 85.344599 58.986135 
L 86.887911 61.446792 
L 88.112969 63.796767 
L 89.924478 68.184374 
L 91.411433 72.188364 
L 92.230798 74.058819 
L 93.206138 75.848148 
L 94.416493 77.561277 
L 95.9409 79.203133 
L 97.858398 80.778641 
L 100.248024 82.292728 
L 103.188817 83.75032 
L 103.188817 83.75032 
L 106.740783 84.97486 
L 110.856591 85.831181 
L 115.454279 86.386293 
L 120.451883 86.707206 
L 131.318985 86.914477 
L 142.80219 86.989076 
L 148.569923 87.144148 
L 154.245791 87.467083 
L 159.747831 88.02489 
L 164.99408 88.88458 
L 169.902574 90.113163 
L 174.391349 91.777649 
L 178.378443 93.945048 
L 181.781892 96.682371 
L 181.781892 96.682371 
L 184.660216 100.102749 
L 187.151044 104.21171 
L 189.291075 108.914862 
L 191.117006 114.117811 
L 192.665535 119.726164 
L 193.973362 125.645528 
L 195.077184 131.781508 
L 196.013699 138.039712 
L 197.531603 150.545218 
L 199.471117 167.860322 
L 200.174456 172.869608 
L 200.967377 177.340364 
L 202.773769 184.441997 
L 204.013067 189.749952 
L 205.688836 198.036315 
L 206.071366 199.204595 
L 206.55463 200.31643 
L 207.175031 201.417487 
L 207.968974 202.553431 
L 210.223097 205.112644 
L 213.60823 208.359395 
L 213.60823 208.359395 
L 215.840398 210.200319 
L 218.455161 212.01748 
L 221.401474 213.820898 
L 228.084581 217.426597 
L 247.02146 226.901914 
L 250.782624 228.956196 
L 254.415948 231.086935 
L 257.870391 233.304154 
L 261.094909 235.617876 
L 264.038459 238.038122 
L 266.649997 240.574915 
L 268.878539 243.32653 
L 270.745681 246.353455 
L 272.309248 249.609029 
L 273.627065 253.046594 
L 274.756958 256.619489 
L 276.68427 263.984631 
L 278.553789 271.331175 
L 279.611439 274.880823 
L 280.828116 278.285843 
L 282.261646 281.499574 
L 283.969854 284.475357 
L 286.010566 287.166531 
L 288.441606 289.526437 
L 291.320801 291.508415 
L 291.320801 291.508415 
L 294.707874 293.092244 
L 298.579804 294.317015 
L 302.870294 295.225032 
L 307.513051 295.858601 
L 312.441779 296.260028 
L 317.590182 296.471617 
L 328.280838 296.494505 
L 349.38128 296.123675 
L 354.211156 296.190955 
L 358.730347 296.406842 
L 362.872559 296.81364 
L 366.571496 297.453655 
L 366.571496 297.453655 
L 383.027207 301.096366 
L 385.138231 301.768462 
L 387.134026 302.542665 
L 389.039051 303.450305 
L 390.877765 304.52271 
L 392.674629 305.79121 
L 394.454101 307.287132 
L 396.240642 309.041806 
L 398.058712 311.086559 
L 399.932769 313.452722 
L 401.887274 316.171622 
L 401.887274 316.171622 
L 403.897743 319.404829 
L 405.91796 323.234624 
L 407.939779 327.573406 
L 409.955056 332.333572 
L 411.955649 337.42752 
L 415.8802 348.266357 
L 421.453283 364.837931 
L 426.454417 379.683041 
L 429.362169 387.452607 
L 432.340097 394.39476 
L 432.770508 396.179848 
L 432.700358 396.477237 
L 432.536978 396.495088 
L 432.353121 396.321323 
L 432.221542 396.043867 
L 432.214995 395.750644 
L 432.406235 395.529576 
L 433 395.499249 
L 433 395.499249 
" style="fill:none;stroke:#000000;stroke-width:5;"/>
    <path clip-path="url(#p235cfaf310)" d="M 8.479002 -1 
L 10.678255 2.50673 
L 14.246791 6.532379 
L 18.654579 10.453515 
L 23.763676 14.271885 
L 29.436136 17.989237 
L 35.534013 21.607318 
L 41.919362 25.127876 
L 55.000695 31.883411 
L 67.57657 38.269821 
L 73.330098 41.328973 
L 78.543425 44.301087 
L 83.078606 47.187909 
L 86.797696 49.991187 
L 86.797696 49.991187 
L 89.747637 52.69923 
L 92.122256 55.301447 
L 94.003937 57.801232 
L 95.475063 60.20198 
L 96.618017 62.507085 
L 97.515182 64.719943 
L 100.293614 72.716791 
L 101.197581 74.51933 
L 102.350058 76.24999 
L 103.833427 77.912166 
L 105.730071 79.509251 
L 108.122375 81.044641 
L 111.092721 82.52173 
L 111.092721 82.52173 
L 114.704508 83.768002 
L 118.909031 84.653023 
L 123.620515 85.243309 
L 128.753187 85.605377 
L 139.938999 85.91093 
L 151.780275 86.101818 
L 157.732277 86.320555 
L 163.590823 86.710176 
L 169.270139 87.337199 
L 174.684452 88.268141 
L 179.747987 89.569518 
L 184.37497 91.307849 
L 188.479628 93.549649 
L 191.976186 96.361436 
L 191.976186 96.361436 
L 194.929769 99.861509 
L 197.487252 104.059757 
L 199.685485 108.860082 
L 201.56132 114.166384 
L 203.151609 119.882564 
L 204.493201 125.912523 
L 205.622948 132.160163 
L 206.577701 138.529384 
L 208.109629 151.248175 
L 210.016341 168.835751 
L 210.695001 173.916384 
L 211.456625 178.445906 
L 214.249392 190.929401 
L 214.97249 196.440894 
L 215.321011 199.041687 
L 215.573689 200.164688 
L 215.931304 201.233721 
L 216.433349 202.297008 
L 217.119318 203.40277 
L 218.028705 204.599231 
L 220.675706 207.457132 
L 222.492308 209.215016 
L 222.492308 209.215016 
L 224.711665 211.10753 
L 227.332767 213.005079 
L 230.302311 214.912595 
L 237.073503 218.777248 
L 260.205998 231.123188 
L 263.91281 233.342281 
L 267.435017 235.620646 
L 270.719317 237.963214 
L 273.712404 240.374917 
L 276.360974 242.860685 
L 276.360974 242.860685 
L 278.617255 245.515085 
L 280.507809 248.40177 
L 282.090836 251.479297 
L 283.424534 254.706222 
L 284.567103 258.041103 
L 286.511648 264.868962 
L 288.390062 271.631329 
L 289.449966 274.884346 
L 290.667934 277.996661 
L 292.102165 280.926832 
L 293.810858 283.633415 
L 295.852211 286.074968 
L 298.284423 288.210047 
L 301.165693 289.99721 
L 301.165693 289.99721 
L 304.557539 291.401022 
L 308.437822 292.443387 
L 312.739256 293.168871 
L 317.394554 293.622038 
L 322.33643 293.847455 
L 327.497598 293.889686 
L 338.208664 293.602854 
L 354.237795 292.912849 
L 359.301701 292.791841 
L 364.113896 292.799605 
L 368.607092 292.980706 
L 372.714004 293.37971 
L 376.367345 294.041183 
L 376.367345 294.041183 
L 385.305065 296.24875 
L 390.080451 297.706739 
L 392.197165 298.512725 
L 394.170537 299.406087 
L 396.028551 300.413861 
L 397.79919 301.563082 
L 399.510436 302.880788 
L 401.190274 304.394013 
L 402.866686 306.129793 
L 404.567656 308.115166 
L 406.321167 310.377166 
L 410.097743 315.839194 
L 410.097743 315.839194 
L 412.127426 319.241144 
L 414.196246 323.245689 
L 416.292228 327.763047 
L 418.403398 332.703438 
L 422.623402 343.494194 
L 426.76046 354.899709 
L 433 372.71744 
L 433 372.71744 
" style="fill:none;stroke:#000000;stroke-width:5;"/>
    <path clip-path="url(#p235cfaf310)" d="M 15.585761 -1 
L 16.324062 1.190676 
L 18.908532 5.295343 
L 22.488018 9.217765 
L 26.921888 12.969954 
L 32.069512 16.563928 
L 37.790259 20.011699 
L 43.943497 23.325284 
L 50.388595 26.516696 
L 63.591848 32.581063 
L 76.274971 38.300918 
L 82.069906 41.06169 
L 87.312915 43.772379 
L 91.863367 46.444999 
L 95.580631 49.091564 
L 95.580631 49.091564 
L 98.508211 51.68539 
L 100.840517 54.193024 
L 102.663276 56.616329 
L 104.062216 58.957168 
L 105.123065 61.217404 
L 105.931552 63.398901 
L 108.356431 71.374763 
L 109.189024 73.190513 
L 110.283622 74.938704 
L 111.725953 76.621199 
L 113.601745 78.239861 
L 115.996726 79.796554 
L 118.996625 81.29314 
L 118.996625 81.29314 
L 122.668233 82.561144 
L 126.96147 83.474865 
L 131.786751 84.100325 
L 137.054491 84.503549 
L 148.559013 84.907384 
L 160.75836 85.21456 
L 166.894631 85.496961 
L 172.935855 85.953269 
L 178.792448 86.649508 
L 184.374824 87.651701 
L 189.5934 89.025874 
L 194.358591 90.838048 
L 198.580812 93.154249 
L 202.170479 96.040501 
L 202.170479 96.040501 
L 205.199321 99.62027 
L 207.823459 103.907805 
L 210.079895 108.805302 
L 212.005635 114.214956 
L 213.637682 120.038963 
L 215.01304 126.179518 
L 216.168712 132.538817 
L 217.141702 139.019056 
L 218.687654 151.951133 
L 220.561565 169.811181 
L 221.215547 174.963161 
L 221.945873 179.551449 
L 224.123468 189.655842 
L 224.701601 194.205697 
L 224.896916 198.867067 
L 225.076012 201.124781 
L 225.307978 202.151011 
L 225.691667 203.176528 
L 226.269662 204.25211 
L 227.084548 205.428533 
L 228.178908 206.756577 
L 231.376386 210.070637 
L 231.376386 210.070637 
L 233.582931 212.01474 
L 236.210374 213.992679 
L 239.203147 216.004292 
L 246.062424 220.1279 
L 257.702181 226.561849 
L 265.714314 231.014962 
L 273.409671 235.597626 
L 276.999643 237.937137 
L 280.343725 240.308553 
L 283.386349 242.711712 
L 286.071951 245.146455 
L 286.071951 245.146455 
L 288.35597 247.70364 
L 290.269936 250.450085 
L 291.872424 253.349564 
L 293.222004 256.36585 
L 294.377249 259.462717 
L 296.339026 265.753293 
L 298.226334 271.931483 
L 299.288494 274.887869 
L 300.507753 277.70748 
L 301.942684 280.35409 
L 303.651861 282.791474 
L 305.693855 284.983405 
L 308.127239 286.893657 
L 311.010585 288.486006 
L 311.010585 288.486006 
L 314.407204 289.7098 
L 318.295841 290.56976 
L 322.608218 291.11271 
L 327.276057 291.385476 
L 332.231082 291.434882 
L 337.405014 291.307755 
L 348.13649 290.711202 
L 364.168573 289.663003 
L 369.222123 289.460007 
L 374.016637 289.408254 
L 378.483838 289.55457 
L 382.55545 289.945781 
L 386.163194 290.628712 
L 386.163194 290.628712 
L 392.239236 292.282858 
L 397.223194 293.989 
L 399.384409 294.918428 
L 401.367123 295.929084 
L 403.202843 297.043713 
L 404.923076 298.285057 
L 406.559329 299.67586 
L 408.143107 301.238865 
L 409.70592 302.996815 
L 411.279271 304.972455 
L 414.583622 309.667773 
L 418.308213 315.506766 
L 418.308213 315.506766 
L 420.357109 319.07746 
L 422.474533 323.256754 
L 424.644678 327.952689 
L 426.85174 333.073304 
L 431.313393 344.220738 
L 433 348.653831 
L 433 348.653831 
" style="fill:none;stroke:#000000;stroke-width:5;"/>
    <path clip-path="url(#p235cfaf310)" d="M 23.131034 -1 
L 23.139749 -0.351408 
L 23.139749 -0.351408 
L 24.561205 4.006531 
L 27.138809 8.083956 
L 30.729246 11.90315 
L 35.189198 15.486394 
L 40.375348 18.85597 
L 46.144381 22.034161 
L 52.35298 25.043249 
L 58.857827 27.905516 
L 72.183002 33.278715 
L 84.973372 38.332014 
L 90.809714 40.794407 
L 96.082405 43.243671 
L 100.648128 45.702088 
L 104.363567 48.191942 
L 104.363567 48.191942 
L 107.268786 50.671551 
L 109.558778 53.084601 
L 111.322614 55.431426 
L 112.649368 57.712355 
L 113.628113 59.927722 
L 114.347922 62.077859 
L 116.419248 70.032735 
L 117.180467 71.861696 
L 118.217186 73.627418 
L 119.618479 75.330232 
L 121.473419 76.970471 
L 123.871078 78.548466 
L 126.900528 80.06455 
L 126.900528 80.06455 
L 130.631958 81.354286 
L 135.013909 82.296706 
L 139.952987 82.957341 
L 145.355796 83.40172 
L 157.179027 83.903837 
L 169.736444 84.327302 
L 176.056985 84.673367 
L 182.280887 85.196362 
L 188.314756 85.961817 
L 194.065196 87.035262 
L 199.438813 88.482229 
L 204.342211 90.368248 
L 208.681996 92.75885 
L 212.364773 95.719565 
L 212.364773 95.719565 
L 215.468874 99.37903 
L 218.159666 103.755852 
L 220.474306 108.750522 
L 222.44995 114.263528 
L 224.123756 120.195362 
L 225.532879 126.446514 
L 226.714476 132.917472 
L 227.705704 139.508728 
L 229.26568 152.65409 
L 231.736092 176.009937 
L 232.435121 180.656991 
L 234.44997 190.84175 
L 234.72204 193.288298 
L 234.829753 197.12767 
L 234.578336 202.084874 
L 234.684652 203.068302 
L 234.949984 204.056049 
L 235.420006 205.101449 
L 236.140392 206.257836 
L 237.156814 207.578544 
L 240.260464 210.926258 
L 240.260464 210.926258 
L 242.454198 212.92195 
L 245.08798 214.980278 
L 248.103983 217.095989 
L 255.051345 221.478551 
L 262.83367 226.027615 
L 275.060741 233.071487 
L 282.906532 237.852972 
L 286.564269 240.253629 
L 289.968132 242.653891 
L 293.060294 245.048508 
L 295.782928 247.432225 
L 295.782928 247.432225 
L 298.094685 249.892195 
L 300.032064 252.4984 
L 301.654011 255.219831 
L 303.019473 258.025478 
L 304.187395 260.884332 
L 306.166404 266.637625 
L 308.062607 272.231638 
L 309.127021 274.891391 
L 310.347571 277.418298 
L 311.783204 279.781348 
L 313.492865 281.949532 
L 315.5355 283.891842 
L 317.970055 285.577268 
L 320.855477 286.974801 
L 320.855477 286.974801 
L 324.256869 288.018578 
L 328.15386 288.696132 
L 332.47718 289.056549 
L 337.157561 289.148913 
L 342.125734 289.02231 
L 347.31243 288.725825 
L 358.064316 287.81955 
L 374.099352 286.413158 
L 379.142544 286.128173 
L 383.919377 286.016904 
L 388.360584 286.128435 
L 392.396895 286.511852 
L 395.959042 287.21624 
L 395.959042 287.21624 
L 399.086442 288.105483 
L 401.888044 289.023042 
L 404.398878 289.987366 
L 406.653976 291.016907 
L 408.688366 292.130116 
L 410.537081 293.345443 
L 412.235149 294.681338 
L 413.817601 296.156252 
L 415.319467 297.788637 
L 416.775779 299.596942 
L 419.691857 303.815116 
L 422.846077 308.95838 
L 426.518682 315.174339 
L 426.518682 315.174339 
L 428.586792 318.913776 
L 430.752819 323.267819 
L 433 328.148942 
L 433 328.148942 
" style="fill:none;stroke:#000000;stroke-width:5;"/>
    <path clip-path="url(#p235cfaf310)" d="M 31.390514 -1 
L 31.404259 2.405437 
L 31.404259 2.405437 
L 32.798347 6.822386 
L 35.369086 10.872569 
L 38.970473 14.588535 
L 43.456507 18.002833 
L 48.681184 21.148013 
L 54.498504 24.056624 
L 60.762463 26.761215 
L 67.32706 29.294336 
L 80.774155 33.976366 
L 93.671773 38.36311 
L 99.549522 40.527123 
L 104.851894 42.714963 
L 109.432889 44.959178 
L 113.146502 47.29232 
L 113.146502 47.29232 
L 116.029361 49.657711 
L 118.277038 51.976179 
L 119.981953 54.246522 
L 121.236521 56.467543 
L 122.133161 58.638041 
L 122.764292 60.756816 
L 124.482065 68.690707 
L 125.17191 70.532879 
L 126.150751 72.316132 
L 127.511006 74.039266 
L 129.345093 75.701081 
L 131.745429 77.300379 
L 134.804432 78.83596 
L 134.804432 78.83596 
L 138.595683 80.147429 
L 143.066349 81.118548 
L 148.119223 81.814357 
L 153.6571 82.299891 
L 165.799041 82.90029 
L 178.714529 83.440044 
L 185.219339 83.849774 
L 191.625919 84.439455 
L 197.837064 85.274125 
L 203.755568 86.418823 
L 209.284226 87.938584 
L 214.325832 89.898447 
L 218.783181 92.36345 
L 222.559066 95.39863 
L 222.559066 95.39863 
L 225.738426 99.137791 
L 228.495873 103.6039 
L 230.868716 108.695742 
L 232.894265 114.312101 
L 234.609829 120.351762 
L 236.052718 126.713509 
L 237.26024 133.296127 
L 238.269706 139.998399 
L 239.118425 146.719111 
L 240.482857 159.81099 
L 241.652014 171.76204 
L 242.256637 177.056714 
L 242.924369 181.762534 
L 244.776472 192.027658 
L 244.958364 194.467747 
L 244.965219 196.525956 
L 244.64887 199.720297 
L 244.080659 203.044967 
L 244.061326 203.985593 
L 244.208302 204.93557 
L 244.570351 205.950788 
L 245.196235 207.087138 
L 246.134719 208.40051 
L 247.434567 209.946793 
L 249.144542 211.781879 
L 249.144542 211.781879 
L 251.325464 213.82916 
L 253.965586 215.967877 
L 257.004819 218.187686 
L 264.040267 222.829202 
L 271.951103 227.670955 
L 288.476121 237.624167 
L 296.128895 242.57012 
L 299.59254 244.99923 
L 302.734239 247.385303 
L 305.493905 249.717995 
L 305.493905 249.717995 
L 307.8334 252.080751 
L 309.794191 254.546716 
L 311.435599 257.090098 
L 312.816942 259.685105 
L 313.997541 262.305946 
L 315.993783 267.521956 
L 317.89888 272.531792 
L 318.965549 274.894914 
L 320.18739 277.129116 
L 321.623723 279.208605 
L 323.333868 281.10759 
L 325.377144 282.800279 
L 327.812871 284.260878 
L 330.700369 285.463596 
L 330.700369 285.463596 
L 334.106534 286.327356 
L 338.011878 286.822505 
L 342.346142 287.000388 
L 347.039064 286.91235 
L 352.020385 286.609737 
L 362.567184 285.566166 
L 378.793876 283.675126 
L 384.030131 283.163312 
L 389.062965 282.796339 
L 393.822118 282.625553 
L 398.23733 282.702299 
L 402.238341 283.077923 
L 405.754891 283.803769 
L 405.754891 283.803769 
L 408.819405 284.750309 
L 411.536852 285.763225 
L 413.945785 286.856675 
L 416.084758 288.044815 
L 417.992324 289.341805 
L 419.707039 290.761801 
L 421.267454 292.318963 
L 422.712126 294.027448 
L 424.079606 295.901414 
L 426.73721 300.20242 
L 431.108532 308.248986 
L 433 311.732358 
L 433 311.732358 
" style="fill:none;stroke:#000000;stroke-width:5;"/>
    <path clip-path="url(#p235cfaf310)" d="M 39.894688 -1 
L 39.693847 -0.097447 
L 39.66877 5.162281 
L 39.66877 5.162281 
L 41.03549 9.638241 
L 43.599363 13.661182 
L 47.211701 17.27392 
L 51.723816 20.519273 
L 56.98702 23.440055 
L 62.852627 26.079086 
L 69.171946 28.479181 
L 75.796292 30.683156 
L 89.365309 34.674018 
L 102.370174 38.394206 
L 108.28933 40.25984 
L 113.621384 42.186255 
L 118.217649 44.216268 
L 121.929437 46.392697 
L 124.789935 48.643872 
L 126.995299 50.867756 
L 128.641291 53.061619 
L 129.823674 55.222731 
L 130.63821 57.348359 
L 131.180662 59.435774 
L 131.832364 63.485039 
L 132.133139 65.441428 
L 132.544881 67.348679 
L 133.163353 69.204062 
L 134.084315 71.004845 
L 135.403532 72.748299 
L 137.216766 74.431691 
L 139.61978 76.052292 
L 142.708336 77.60737 
L 142.708336 77.60737 
L 146.559409 78.940571 
L 151.118788 79.94039 
L 156.285459 80.671373 
L 161.958404 81.198063 
L 174.419055 81.896743 
L 187.692614 82.552786 
L 194.381693 83.02618 
L 200.970951 83.682548 
L 207.359372 84.586434 
L 213.44594 85.802383 
L 219.129639 87.394939 
L 224.309453 89.428647 
L 228.884365 91.968051 
L 232.75336 95.077695 
L 232.75336 95.077695 
L 236.007979 98.896551 
L 238.83208 103.451947 
L 241.263126 108.640962 
L 243.33858 114.360673 
L 245.095903 120.508161 
L 246.572557 126.980504 
L 247.806004 133.674781 
L 248.833708 140.488071 
L 249.693129 147.317452 
L 251.056975 160.612805 
L 252.777182 178.10349 
L 253.413616 182.868076 
L 254.77003 190.326752 
L 255.102974 193.213566 
L 255.194688 195.647195 
L 255.097028 197.686085 
L 254.861846 199.388681 
L 254.186334 202.01878 
L 253.582982 204.00506 
L 253.438 204.902883 
L 253.46662 205.81509 
L 253.720695 206.800128 
L 254.252078 207.916441 
L 255.112625 209.222477 
L 256.354187 210.776681 
L 258.02862 212.637499 
L 258.02862 212.637499 
L 260.196731 214.73637 
L 262.843192 216.955477 
L 265.905655 219.279383 
L 273.029188 224.179853 
L 281.068535 229.314296 
L 301.900254 242.363664 
L 309.216948 247.344568 
L 312.408185 249.722098 
L 315.204882 252.003765 
L 315.204882 252.003765 
L 317.572115 254.269306 
L 319.556319 256.595031 
L 321.217187 258.960365 
L 322.614412 261.344733 
L 323.807687 263.72756 
L 325.821161 268.406288 
L 327.735153 272.831946 
L 328.804076 274.898437 
L 330.027208 276.839934 
L 331.464242 278.635863 
L 333.174871 280.265649 
L 335.218789 281.708716 
L 337.655688 282.944488 
L 340.545261 283.952392 
L 340.545261 283.952392 
L 343.956199 284.636134 
L 347.869897 284.948877 
L 352.215104 284.944227 
L 356.920567 284.675787 
L 361.915037 284.197164 
L 372.485989 282.823789 
L 388.728681 280.52748 
L 393.96091 279.913466 
L 398.983386 279.464505 
L 403.724859 279.234203 
L 408.114076 279.276164 
L 412.079787 279.643993 
L 415.55074 280.391297 
L 415.55074 280.391297 
L 418.552369 281.395135 
L 421.18566 282.503409 
L 423.492691 283.725983 
L 425.515539 285.072722 
L 427.296282 286.553493 
L 428.876996 288.17816 
L 430.29976 289.956589 
L 431.606651 291.898644 
L 433 294.320848 
L 433 294.320848 
" style="fill:none;stroke:#000000;stroke-width:5;"/>
    <path clip-path="url(#p235cfaf310)" d="M 48.779617 -1 
L 48.00399 2.492502 
L 47.93328 7.919125 
L 47.93328 7.919125 
L 49.272632 12.454096 
L 51.829639 16.449795 
L 55.452928 19.959306 
L 59.991125 23.035712 
L 65.292856 25.732098 
L 71.206749 28.101548 
L 77.58143 30.197146 
L 84.265524 32.071976 
L 91.10766 33.779123 
L 111.068575 38.425303 
L 117.029138 39.992556 
L 122.390874 41.657546 
L 127.00241 43.473358 
L 130.712372 45.493075 
L 133.55051 47.630032 
L 135.71356 49.759333 
L 137.300629 51.876716 
L 138.410826 53.977918 
L 139.143258 56.058678 
L 139.597031 58.114732 
L 140.065035 62.135676 
L 140.277481 64.09204 
L 140.607698 66.006651 
L 141.154795 67.875244 
L 142.01788 69.693559 
L 143.296059 71.457332 
L 145.08844 73.162301 
L 147.494131 74.804205 
L 150.612239 76.37878 
L 150.612239 76.37878 
L 154.523134 77.733713 
L 159.171228 78.762232 
L 164.451695 79.528389 
L 170.259709 80.096234 
L 183.039069 80.893196 
L 196.670698 81.665529 
L 203.544047 82.202587 
L 210.315983 82.925641 
L 216.881681 83.898743 
L 223.136312 85.185944 
L 228.975052 86.851295 
L 234.293073 88.958847 
L 238.985549 91.572651 
L 242.947654 94.75676 
L 242.947654 94.75676 
L 246.277531 98.655312 
L 249.168287 103.299995 
L 251.657537 108.586181 
L 253.782895 114.409246 
L 255.581976 120.664561 
L 257.092396 127.2475 
L 258.351768 134.053436 
L 259.39771 140.977743 
L 260.267834 147.915793 
L 261.631092 161.414619 
L 263.297727 179.150267 
L 263.902864 183.973619 
L 265.169283 191.503703 
L 265.429476 194.399474 
L 265.431013 196.826644 
L 265.228837 198.846214 
L 264.877893 200.519187 
L 263.949473 203.069351 
L 263.085305 204.965153 
L 262.814674 205.820174 
L 262.724938 206.694611 
L 262.871039 207.649467 
L 263.307922 208.745744 
L 264.09053 210.044443 
L 265.273807 211.606568 
L 266.912698 213.49312 
L 266.912698 213.49312 
L 269.067997 215.643581 
L 271.720799 217.943076 
L 274.806491 220.37108 
L 282.018109 225.530504 
L 290.185968 230.957636 
L 315.258147 247.203103 
L 322.08213 252.058893 
L 324.915859 254.289535 
L 324.915859 254.289535 
L 327.31083 256.457861 
L 329.318446 258.643346 
L 330.998774 260.830632 
L 332.411881 263.004361 
L 334.676697 267.249713 
L 337.571426 273.132101 
L 338.642604 274.901959 
L 339.867027 276.550752 
L 341.304762 278.063121 
L 343.015875 279.423707 
L 345.060434 280.617152 
L 347.498504 281.628099 
L 350.390153 282.441187 
L 350.390153 282.441187 
L 353.805864 282.944912 
L 357.727916 283.07525 
L 362.084065 282.888066 
L 366.80207 282.439224 
L 371.809688 281.784592 
L 382.404793 280.081412 
L 398.663485 277.379835 
L 403.891689 276.663621 
L 408.903807 276.132672 
L 413.627599 275.842852 
L 417.990822 275.850028 
L 421.921232 276.210064 
L 425.346588 276.978826 
L 425.346588 276.978826 
L 428.285332 278.039962 
L 430.834468 279.243593 
L 433 280.571019 
L 433 280.571019 
" style="fill:none;stroke:#000000;stroke-width:5;"/>
    <path clip-path="url(#p235cfaf310)" d="M 57.662476 -1 
L 56.314134 5.082451 
L 56.197791 10.675969 
L 56.197791 10.675969 
L 57.509775 15.269951 
L 60.059916 19.238408 
L 63.694156 22.644691 
L 68.258434 25.552151 
L 73.598693 28.024141 
L 79.560872 30.12401 
L 85.990913 31.915112 
L 92.734757 33.460797 
L 99.638344 34.824416 
L 119.766975 38.456399 
L 125.768946 39.725273 
L 131.160364 41.128838 
L 135.787171 42.730448 
L 139.495307 44.593453 
L 139.495307 44.593453 
L 142.311084 46.616192 
L 144.431821 48.65091 
L 145.959968 50.691813 
L 146.997979 52.733106 
L 147.648306 54.768996 
L 148.013401 56.79369 
L 148.297707 60.786312 
L 148.421822 62.742653 
L 148.670515 64.664623 
L 149.146238 66.546427 
L 149.951444 68.382273 
L 151.188585 70.166365 
L 152.960114 71.892912 
L 155.368482 73.556118 
L 158.516143 75.15019 
L 158.516143 75.15019 
L 162.486859 76.526855 
L 167.223667 77.584074 
L 172.617931 78.385405 
L 178.561013 78.994405 
L 191.659083 79.889649 
L 205.648783 80.778271 
L 212.706401 81.378993 
L 219.661015 82.168734 
L 226.403989 83.211052 
L 232.826684 84.569504 
L 238.820465 86.30765 
L 244.276694 88.489046 
L 249.086734 91.177252 
L 253.141947 94.435825 
L 256.547084 98.414072 
L 259.504494 103.148042 
L 262.051947 108.531401 
L 264.22721 114.457818 
L 266.068049 120.82096 
L 267.612235 127.514495 
L 268.897533 134.432091 
L 269.961711 141.467415 
L 270.842539 148.514134 
L 272.205209 162.216433 
L 273.818272 180.197044 
L 274.392112 185.079161 
L 275.568535 192.680654 
L 275.755978 195.585382 
L 275.667337 198.006092 
L 275.360646 200.006343 
L 274.893939 201.649693 
L 274.32525 202.9997 
L 273.114061 205.073918 
L 272.191348 206.737465 
L 271.983255 207.574132 
L 272.021383 208.498806 
L 272.363765 209.575046 
L 273.068435 210.86641 
L 274.193428 212.436455 
L 275.796776 214.348741 
L 275.796776 214.348741 
L 277.939264 216.550791 
L 280.598405 218.930676 
L 283.707327 221.462777 
L 287.19916 224.121477 
L 295.064068 229.716195 
L 303.658156 235.50988 
L 324.822773 249.519595 
L 331.756075 254.395688 
L 334.626836 256.575305 
L 334.626836 256.575305 
L 337.049545 258.646416 
L 339.080574 260.691662 
L 340.780362 262.7009 
L 342.20935 264.663989 
L 344.496687 268.411156 
L 347.407699 273.432255 
L 348.481131 274.905482 
L 349.706845 276.26157 
L 351.145281 277.490379 
L 352.856878 278.581766 
L 354.902078 279.525589 
L 357.34132 280.311709 
L 360.235045 280.929982 
L 360.235045 280.929982 
L 363.655529 281.25369 
L 367.585934 281.201622 
L 371.953027 280.831905 
L 376.683574 280.202662 
L 386.942092 278.398102 
L 408.59829 274.232189 
L 413.822467 273.413775 
L 418.824229 272.800838 
L 423.53034 272.451502 
L 427.867568 272.423893 
L 431.762678 272.776135 
L 433 273.065432 
L 433 273.065432 
" style="fill:none;stroke:#000000;stroke-width:5;"/>
    <path clip-path="url(#p235cfaf310)" d="M 66.733278 -1 
L 66.189535 0.599501 
L 64.624277 7.6724 
L 64.462301 13.432813 
L 64.462301 13.432813 
L 65.746917 18.085806 
L 68.290193 22.027021 
L 71.935383 25.330076 
L 76.525743 28.068591 
L 81.904529 30.316183 
L 87.914994 32.146473 
L 94.400396 33.633077 
L 101.203989 34.849617 
L 108.169028 35.869709 
L 128.465376 38.487495 
L 134.508754 39.457989 
L 139.929853 40.60013 
L 144.571931 41.987538 
L 148.278242 43.69383 
L 148.278242 43.69383 
L 151.071659 45.602353 
L 153.150081 47.542488 
L 154.619306 49.50691 
L 155.585131 51.488294 
L 156.153354 53.479315 
L 156.429771 55.472647 
L 156.530379 59.436948 
L 156.566163 61.393266 
L 156.733332 63.322595 
L 157.137681 65.21761 
L 157.885009 67.070986 
L 159.081112 68.875399 
L 160.831788 70.623522 
L 163.242833 72.308031 
L 166.420046 73.9216 
L 166.420046 73.9216 
L 170.450584 75.319997 
L 175.276107 76.405916 
L 180.784167 77.242421 
L 186.862317 77.892577 
L 200.279098 78.886103 
L 214.626868 79.891013 
L 221.868755 80.555399 
L 229.006048 81.411827 
L 235.926297 82.523361 
L 242.517056 83.953065 
L 248.665878 85.764005 
L 254.260314 88.019246 
L 259.187918 90.781852 
L 263.336241 94.11489 
L 263.336241 94.11489 
L 266.816636 98.172833 
L 269.840702 102.996089 
L 272.446357 108.476621 
L 274.671524 114.506391 
L 276.554123 120.97736 
L 278.132074 127.781491 
L 279.443297 134.810745 
L 280.525713 141.957086 
L 281.417243 149.112476 
L 282.779326 163.018247 
L 284.338817 181.24382 
L 284.88136 186.184704 
L 285.967787 193.857605 
L 286.08248 196.77129 
L 285.903661 199.185541 
L 285.492455 201.166472 
L 284.909986 202.780199 
L 284.217377 204.092834 
L 282.746236 206.07929 
L 281.568022 207.654755 
L 281.241573 208.453653 
L 281.171727 209.348146 
L 281.419609 210.404349 
L 282.046341 211.688376 
L 283.113048 213.266343 
L 284.680854 215.204362 
L 284.680854 215.204362 
L 286.81053 217.458001 
L 289.476011 219.918275 
L 292.608164 222.554474 
L 296.137855 225.335888 
L 304.113322 231.211519 
L 312.84935 237.299487 
L 341.43002 256.732483 
L 344.337813 258.861075 
L 344.337813 258.861075 
L 346.78826 260.834971 
L 348.842701 262.739977 
L 350.56195 264.571167 
L 352.006819 266.323617 
L 354.316678 269.572599 
L 356.258788 272.447527 
L 357.243971 273.732409 
L 358.319659 274.909005 
L 359.546664 275.972389 
L 360.9858 276.917637 
L 362.697882 277.739824 
L 364.743723 278.434026 
L 367.184136 278.995319 
L 370.079937 279.418778 
L 370.079937 279.418778 
L 373.505194 279.562468 
L 377.443953 279.327995 
L 381.821989 278.775743 
L 386.565077 277.966099 
L 396.849508 275.816171 
L 413.15842 272.170458 
L 418.533094 271.084543 
L 423.753246 270.163929 
L 428.74465 269.469004 
L 433 269.097918 
L 433 269.097918 
" style="fill:none;stroke:#000000;stroke-width:5;"/>
   </g>
  </g>
 </g>
 <defs>
  <clipPath id="p235cfaf310">
   <rect height="432" width="432" x="0" y="0"/>
  </clipPath>
 </defs>
</svg>
