<?xml version="1.0" encoding="utf-8" ?>
<svg baseProfile="full" height="14in" version="1.1" width="11in" xmlns="http://www.w3.org/2000/svg" xmlns:ev="http://www.w3.org/2001/xml-events" xmlns:xlink="http://www.w3.org/1999/xlink"><defs /><polygon fill="none" points="485.69845429207726,663.9848577827698 485.5514778093072,660.9930827461092 485.11196382487157,658.0301201385221 484.3841450987033,655.1245049096399 483.3750309230016,652.3042197224876 482.0943396189163,649.5964254651419 480.5544049438029,647.0271996765323 478.77005731039674,644.6212854054845 476.75848096183097,642.4018529216355 474.53904847798196,640.3902765730697 472.1331342069342,638.6059289396635 469.56390841832456,637.0659942645502 466.85611416097896,635.785302960465 464.0358289738266,634.7761887847631 461.13021374494434,634.0483700585949 458.16725113735737,633.6088560741592 455.1754761006967,633.4618795913892 452.183701064036,633.6088560741592 449.22073845644894,634.0483700585949 446.31512322756674,634.7761887847631 443.4948380404143,635.7853029604648 440.7870437830688,637.0659942645501 438.2178179944591,638.6059289396635 435.8119037234113,640.3902765730696 433.5924712395623,642.4018529216354 431.58089489099655,644.6212854054845 429.79654725759036,647.0271996765322 428.2566125824769,649.5964254651418 426.9759212783917,652.3042197224875 425.9668071026899,655.1245049096399 425.23898837652166,658.0301201385221 424.79947439208604,660.9930827461092 424.65249790931597,663.9848577827698 424.79947439208604,666.9766328194305 425.23898837652166,669.9395954270176 425.9668071026899,672.8452106558998 426.97592127839164,675.6654958430521 428.2566125824769,678.3732901003978 429.7965472575903,680.9425158890074 431.5808948909965,683.3484301600552 433.59247123956226,685.5678626439042 435.81190372341126,687.5794389924699 438.21781799445904,689.3637866258762 440.78704378306867,690.9037213009894 443.49483804041427,692.1844126050747 446.31512322756663,693.1935267807766 449.2207384564488,693.9213455069448 452.18370106403586,694.3608594913804 455.1754761006965,694.5078359741505 458.1672511373572,694.3608594913804 461.13021374494423,693.9213455069448 464.0358289738264,693.1935267807766 466.85611416097885,692.1844126050748 469.5639084183244,690.9037213009896 472.1331342069341,689.3637866258763 474.53904847798174,687.57943899247 476.75848096183086,685.5678626439043 478.7700573103966,683.3484301600553 480.5544049438028,680.9425158890076 482.0943396189162,678.373290100398 483.3750309230015,675.6654958430523 484.38414509870324,672.8452106559 485.1119638248715,669.9395954270178 485.55147780930713,666.9766328194307 485.69845429207726,663.9848577827701 485.69845429207726,663.9848577827698" stroke="rgb(255, 0, 0)" stroke-width="0.001pt" /><polygon fill="none" points="40.56082483465272,577.2373143041743 40.4978009865451,575.9544344044177 40.30933639633189,574.6839093393893 39.99724608104204,573.4379749600049 39.564535641017734,572.228630295435 39.01537231433997,571.0675219958944 38.35504484404789,569.9658321690341 37.58991254465211,568.9341706901317 36.72734405845967,567.9824730231925 35.7756463915205,567.1199045370001 34.7439849126181,566.3547722376043 33.64229508575782,565.6944447673122 32.48118678621725,565.1452814406344 31.271842121647335,564.7125710006102 30.025907742262905,564.4004806853203 28.755382677234465,564.2120160951071 27.47250277747787,564.1489922469995 26.18962287772128,564.2120160951071 24.919097812692833,564.4004806853203 23.673163433308407,564.7125710006102 22.463818768738484,565.1452814406344 21.302710469197915,565.6944447673122 20.201020642337635,566.3547722376043 19.169359163435225,567.1199045370001 18.217661496496056,567.9824730231925 17.35509301030361,568.9341706901317 16.589960710907825,569.9658321690341 15.929633240615738,571.0675219958944 15.380469913937977,572.228630295435 14.947759473913662,573.4379749600048 14.635669158623815,574.6839093393893 14.447204568410594,575.9544344044177 14.384180720302982,577.2373143041743 14.447204568410594,578.5201942039309 14.63566915862381,579.7907192689593 14.947759473913656,581.0366536483439 15.380469913937969,582.2459983129137 15.929633240615724,583.4071066124542 16.589960710907807,584.5087964393146 17.355093010303595,585.540457918217 18.217661496496035,586.4921555851562 19.169359163435203,587.3547240713485 20.201020642337596,588.1198563707444 21.302710469197876,588.7801838410364 22.463818768738438,589.3293471677142 23.67316343330836,589.7620576077386 24.919097812692783,590.0741479230284 26.189622877721224,590.2626125132416 27.472502777477814,590.3256363613492 28.7553826772344,590.2626125132416 30.02590774226284,590.0741479230284 31.27184212164727,589.7620576077386 32.48118678621719,589.3293471677142 33.64229508575776,588.7801838410364 34.74398491261804,588.1198563707444 35.77564639152044,587.3547240713485 36.72734405845961,586.4921555851562 37.58991254465205,585.540457918217 38.355044844047846,584.5087964393147 39.015372314339935,583.4071066124543 39.56453564101769,582.2459983129138 39.997246081042015,581.0366536483439 40.309336396331865,579.7907192689595 40.497800986545094,578.520194203931 40.56082483465272,577.2373143041744 40.56082483465272,577.2373143041743" stroke="rgb(255, 0, 0)" stroke-width="0.001pt" /><polygon fill="none" points="212.24534269520746,439.2886802167125 212.19125791596773,438.18775924389394 212.0295244442384,437.09744074186824 211.76169986176475,436.0282250738386 211.39036346568378,434.99040937118093 210.9190914284829,433.99398836643957 210.35242235750383,433.0485581385893 209.6958135856729,432.16322369754914 208.9555886144018,431.3465112979592 208.1388762148119,430.6062863266881 207.2535417737717,429.9496775548572 206.30811154592146,429.38300848387814 205.31169054118013,428.9117364466772 204.27387483852246,428.54040005059625 203.20465917049282,428.27257546812257 202.1143406684671,428.1108419963932 201.01341969564854,428.0567572171536 199.91249872282992,428.1108419963932 198.82218022080423,428.27257546812257 197.75296455277459,428.54040005059625 196.71514885011692,428.9117364466772 195.71872784537555,429.38300848387814 194.77329761752532,429.9496775548572 193.88796317648513,430.6062863266881 193.07125077689523,431.3465112979592 192.3310258056241,432.16322369754914 191.6744170337932,433.0485581385893 191.10774796281413,433.9939883664395 190.63647592561324,434.9904093711808 190.26513952953226,436.02822507383854 189.9973149470586,437.0974407418681 189.8355814753293,438.1877592438939 189.78149669608956,439.2886802167125 189.8355814753293,440.38960118953105 189.9973149470586,441.4799196915568 190.26513952953223,442.54913535958644 190.63647592561324,443.5869510622441 191.10774796281413,444.5833720669854 191.6744170337932,445.52880229483566 192.3310258056241,446.4141367358759 193.07125077689523,447.2308491354658 193.88796317648513,447.9710741067369 194.7732976175253,448.62768287856784 195.71872784537553,449.1943519495469 196.7151488501169,449.6656239867478 197.75296455277456,450.03696038282874 198.82218022080417,450.3047849653024 199.91249872282987,450.46651843703177 201.01341969564848,450.52060321627147 202.11434066846707,450.46651843703177 203.2046591704928,450.3047849653024 204.27387483852237,450.0369603828288 205.31169054118007,449.6656239867478 206.3081115459214,449.19435194954696 207.25354177377164,448.6276828785679 208.13887621481186,447.971074106737 208.95558861440173,447.2308491354658 209.69581358567288,446.41413673587596 210.35242235750377,445.5288022948357 210.91909142848286,444.5833720669855 211.39036346568375,443.58695106224417 211.76169986176473,442.54913535958656 212.0295244442384,441.4799196915569 212.19125791596773,440.38960118953116 212.24534269520746,439.2886802167126 212.24534269520746,439.2886802167125" stroke="rgb(255, 0, 0)" stroke-width="0.001pt" /><polygon fill="none" points="308.9651576826988,713.7253086731301 308.81559432317505,710.6808765504585 308.36834462151535,707.6657639733842 307.6277158368385,704.7090081242523 306.60084062920964,701.8390841782174 305.2976083682255,699.0836310717399 303.7305698929784,696.4691853245189 301.91481664061536,694.0209254783015 299.86783530754843,691.7624296137618 297.6093394430088,689.7154482806949 295.16107959679147,687.8996950283318 292.5466338495704,686.3326565530848 289.7911807430928,685.0294242921007 286.921256797058,684.0025490844716 283.9645009479262,683.2619202997948 280.94938837085175,682.8146705981353 277.9049562481801,682.6651072386114 274.86052412550845,682.8146705981352 271.845411548434,683.2619202997948 268.8886556993022,684.0025490844716 266.0187317532674,685.0294242921007 263.2632786467898,686.3326565530848 260.6488328995687,687.8996950283318 258.2005730533513,689.7154482806948 255.9420771888117,691.7624296137618 253.89509585574478,694.0209254783015 252.07934260338178,696.4691853245188 250.51230412813467,699.0836310717398 249.20907186715047,701.8390841782174 248.18219665952162,704.7090081242523 247.44156787484474,707.6657639733841 246.9943181731851,710.6808765504585 246.84475481366127,713.7253086731301 246.9943181731851,716.7697407958018 247.4415678748447,719.7848533728762 248.1821966595216,722.741609222008 249.20907186715044,725.611533168043 250.51230412813464,728.3669862745205 252.07934260338175,730.9814320217416 253.89509585574473,733.4296918679589 255.94207718881168,735.6881877324986 258.20057305335126,737.7351690655655 260.6488328995686,739.5509223179284 263.2632786467897,741.1179607931756 266.0187317532673,742.4211930541597 268.88865569930215,743.4480682617886 271.8454115484339,744.1886970464656 274.86052412550833,744.6359467481251 277.90495624817993,744.785510107649 280.9493883708516,744.6359467481252 283.964500947926,744.1886970464656 286.9212567970578,743.4480682617886 289.7911807430927,742.4211930541599 292.54663384957024,741.1179607931757 295.1610795967913,739.5509223179286 297.6093394430087,737.7351690655656 299.8678353075483,735.6881877324987 301.91481664061524,733.429691867959 303.7305698929782,730.9814320217417 305.2976083682253,728.3669862745207 306.6008406292096,725.6115331680431 307.62771583683843,722.7416092220083 308.36834462151535,719.7848533728765 308.815594323175,716.7697407958021 308.9651576826988,713.7253086731305 308.9651576826988,713.7253086731301" stroke="rgb(255, 0, 0)" stroke-width="0.001pt" /><polygon fill="none" points="609.1300968974206,288.97776179772353 609.0504201229415,287.3559037943521 608.8121571303984,285.74966517015105 608.4176025226573,284.17451488113056 607.870556076276,282.6456224856387 607.1762861475794,281.1777120532217 606.3414789355071,279.78492036378515 605.3741740898639,278.48066076267577 604.2836872850954,277.277493982833 603.0805205052527,276.1870071780646 601.7762609041433,275.21970233242126 600.3834692147068,274.38489512034914 598.9155587822897,273.6906251916525 597.386666386798,273.14357874527127 595.8115160977775,272.74902413753006 594.2052774735764,272.51076114498693 592.583419470205,272.4310843705079 590.9615614668336,272.51076114498693 589.3553228426324,272.74902413753006 587.7801725536119,273.14357874527127 586.2512801581202,273.6906251916525 584.7833697257031,274.38489512034914 583.3905780362667,275.21970233242126 582.0863184351572,276.18700717806456 580.8831516553145,277.27749398283294 579.7926648505461,278.4806607626757 578.8253600049028,279.78492036378515 577.9905527928305,281.1777120532216 577.2962828641339,282.6456224856387 576.7492364177526,284.1745148811305 576.3546818100115,285.749665170151 576.1164188174683,287.3559037943521 576.0367420429893,288.97776179772353 576.1164188174683,290.5996198010949 576.3546818100115,292.205858425296 576.7492364177526,293.7810087143165 577.2962828641339,295.3099011098083 577.9905527928305,296.7778115422253 578.8253600049028,298.1706032316619 579.792664850546,299.4748628327713 580.8831516553145,300.67802961261407 582.0863184351572,301.76851641738244 583.3905780362666,302.73582126302574 584.7833697257031,303.57062847509786 586.2512801581202,304.2648984037945 587.7801725536119,304.8119448501758 589.3553228426324,305.20649945791695 590.9615614668335,305.4447624504601 592.583419470205,305.5244392249391 594.2052774735763,305.4447624504601 595.8115160977775,305.206499457917 597.386666386798,304.8119448501758 598.9155587822897,304.2648984037946 600.3834692147067,303.5706284750979 601.7762609041432,302.73582126302585 603.0805205052526,301.7685164173825 604.2836872850954,300.6780296126141 605.3741740898638,299.47486283277135 606.3414789355071,298.17060323166197 607.1762861475793,296.77781154222544 607.870556076276,295.30990110980844 608.4176025226573,293.7810087143166 608.8121571303984,292.2058584252961 609.0504201229414,290.599619801095 609.1300968974206,288.97776179772364 609.1300968974206,288.97776179772353" stroke="rgb(255, 0, 0)" stroke-width="0.001pt" /><polygon fill="none" points="327.75448694402064,430.26097698818467 327.6389438584434,427.9090434504261 327.29342734478803,425.5797603183337 326.72126491595964,423.29555986178536 325.92796680892366,421.0784401798486 324.92117291811155,418.94975334706123 323.7105792190616,416.92999978128177 322.30784439087324,415.0386308134582 320.726477536755,413.2938613606782 318.9817080839749,411.71249450655984 317.0903391161513,410.3097596783715 315.0705855503719,409.09916597932147 312.94189871758454,408.0923720885094 310.72477903564777,407.2990739814734 308.44057857909945,406.72691155264505 306.1112954470071,406.3813950389897 303.75936190924847,406.26585195341244 301.4074283714898,406.3813950389897 299.0781452393975,406.726911552645 296.7939447828491,407.2990739814734 294.5768251009123,408.0923720885094 292.448138268125,409.0991659793214 290.42838470234557,410.30975967837145 288.53701573452196,411.7124945065598 286.7922462817419,413.2938613606781 285.2108794276236,415.03863081345816 283.80814459943525,416.92999978128177 282.5975509003852,418.9497533470612 281.59075700957317,421.0784401798485 280.79745890253713,423.2955598617853 280.22529647370874,425.5797603183337 279.8797799600534,427.909043450426 279.7642368744761,430.26097698818467 279.8797799600534,432.6129105259433 280.22529647370874,434.94219365803565 280.79745890253713,437.22639411458397 281.59075700957317,439.4435137965208 282.5975509003852,441.5722006293081 283.8081445994352,443.5919541950876 285.2108794276236,445.4833231629111 286.7922462817419,447.22809261569125 288.5370157345219,448.8094594698095 290.4283847023455,450.2121942979978 292.4481382681249,451.42278799704786 294.57682510091223,452.4295818878599 296.79394478284905,453.22287999489595 299.0781452393974,453.79504242372434 301.40742837148974,454.14055893737964 303.75936190924836,454.25610202295695 306.1112954470069,454.14055893737964 308.44057857909934,453.7950424237244 310.72477903564766,453.222879994896 312.9418987175844,452.42958188785997 315.07058555037173,451.4227879970479 317.0903391161512,450.2121942979979 318.9817080839748,448.80945946980955 320.7264775367548,447.2280926156913 322.3078443908732,445.48332316291123 323.7105792190615,443.59195419508774 324.9211729181115,441.57220062930827 325.9279668089236,439.44351379652096 326.72126491595964,437.22639411458414 327.29342734478803,434.9421936580358 327.6389438584434,432.61291052594345 327.75448694402064,430.2609769881849 327.75448694402064,430.26097698818467" stroke="rgb(255, 0, 0)" stroke-width="0.001pt" /><polygon fill="none" points="165.22843755397153,354.9424430269156 165.09411191464943,352.20818182448863 164.6924286260196,349.50025305214024 164.02725611773405,346.8447355442526 163.10500036466777,344.26720338608015 161.93454319387914,341.7924796213286 160.5271567477598,339.4443971926741 158.89639492714153,337.24556941749694 157.057962859822,335.21717220927366 155.02956565159872,333.37874014195415 152.83073787642158,331.7479783213359 150.482655447767,330.34059187521643 148.00793168301544,329.1701347044278 145.43039952484307,328.2478789513616 142.77488201695542,327.58270644307595 140.06695324460702,327.1810231544462 137.33269204218004,327.0466975151241 134.59843083975306,327.1810231544462 131.8905020674047,327.58270644307595 129.23498455951704,328.2478789513616 126.65745240134463,329.17013470442777 124.18272863659305,330.34059187521643 121.83464620793852,331.74797832133584 119.63581843276135,333.3787401419541 117.60742122453806,335.2171722092736 115.76898915721854,337.2455694174969 114.13822733660027,339.44439719267405 112.73084089048089,341.79247962132854 111.56038371969224,344.2672033860801 110.63812796662599,346.84473554425256 109.97295545834041,349.5002530521402 109.5712721697106,352.2081818244886 109.43694653038847,354.9424430269156 109.5712721697106,357.67670422934253 109.9729554583404,360.384633001691 110.63812796662597,363.0401505095786 111.56038371969223,365.617682667751 112.73084089048086,368.09240643250257 114.13822733660024,370.44048886115706 115.7689891572185,372.6393166363343 117.60742122453802,374.6677138445576 119.63581843276128,376.5061459118771 121.83464620793843,378.13690773249533 124.18272863659298,379.54429417861473 126.65745240134453,380.71475134940334 129.23498455951693,381.6370071024696 131.89050206740458,382.3021796107552 134.59843083975295,382.70386289938494 137.33269204217993,382.8381885387071 140.0669532446069,382.70386289938494 142.77488201695527,382.3021796107552 145.4303995248429,381.6370071024697 148.00793168301533,380.7147513494034 150.4826554477669,379.5442941786148 152.83073787642144,378.13690773249544 155.0295656515986,376.5061459118772 157.05796285982188,374.6677138445577 158.8963949271414,372.63931663633446 160.52715674775965,370.4404888611573 161.93454319387905,368.09240643250274 163.10500036466772,365.6176826677512 164.027256117734,363.0401505095788 164.69242862601956,360.38463300169116 165.09411191464937,357.6767042293428 165.22843755397153,354.94244302691584 165.22843755397153,354.9424430269156" stroke="rgb(255, 0, 0)" stroke-width="0.001pt" /><polygon fill="none" points="561.1153397919219,795.4846307718595 561.0195252960153,793.5342819024298 560.7330045542689,791.6027159587817 560.2585369180537,789.7085349768541 559.6006917700768,787.8699809549677 558.7658045187281,786.1047601734087 557.7619155846338,784.4298726732718 556.5986929670108,782.8614485367698 555.287339135549,781.414592545725 553.8404831445042,780.1032387142632 552.2720590080022,778.9400160966402 550.5971715078653,777.936127162546 548.8319507263064,777.1012399111972 546.9933967044199,776.4433947632203 545.0992157224923,775.9689271270051 543.1676497788443,775.6824063852588 541.2173009094146,775.5865918893521 539.2669520399847,775.6824063852588 537.3353860963367,775.9689271270051 535.4412051144091,776.4433947632203 533.6026510925226,777.1012399111972 531.8374303109638,777.936127162546 530.1625428108268,778.9400160966401 528.5941186743247,780.1032387142632 527.1472626832799,781.414592545725 525.8359088518181,782.8614485367698 524.6726862341951,784.4298726732718 523.6687973001008,786.1047601734087 522.8339100487522,787.8699809549677 522.1760649007754,789.7085349768541 521.7015972645601,791.6027159587817 521.4150765228136,793.5342819024298 521.319262026907,795.4846307718595 521.4150765228136,797.4349796412894 521.7015972645601,799.3665455849374 522.1760649007754,801.2607265668651 522.8339100487522,803.0992805887515 523.6687973001008,804.8645013703103 524.6726862341951,806.5393888704473 525.8359088518181,808.1078130069494 527.1472626832799,809.5546689979941 528.5941186743247,810.8660228294559 530.1625428108267,812.0292454470789 531.8374303109637,813.0331343811732 533.6026510925225,813.868021632522 535.4412051144091,814.5258667804987 537.3353860963366,815.0003344167139 539.2669520399846,815.2868551584604 541.2173009094145,815.382669654367 543.1676497788442,815.2868551584604 545.0992157224922,815.0003344167139 546.9933967044198,814.5258667804987 548.8319507263063,813.868021632522 550.5971715078653,813.0331343811732 552.2720590080021,812.029245447079 553.8404831445042,810.8660228294561 555.287339135549,809.5546689979942 556.5986929670108,808.1078130069494 557.7619155846338,806.5393888704474 558.765804518728,804.8645013703106 559.6006917700768,803.0992805887516 560.2585369180537,801.2607265668652 560.7330045542689,799.3665455849375 561.0195252960153,797.4349796412895 561.1153397919219,795.4846307718597 561.1153397919219,795.4846307718595" stroke="rgb(255, 0, 0)" stroke-width="0.001pt" /><polygon fill="none" points="407.3959010928053,486.41568460070283 407.30025564511806,484.46877678682745 407.01424042000264,482.5406187594877 406.5406099004287,480.64977973452545 405.8839254072126,478.8144695253886 405.0505111710042,477.05236317267384 404.0483934264888,475.3804307238232 402.88722311535935,473.81477380229035 401.57818294247227,472.3704705401047 400.13387968028667,471.0614303672176 398.56822275875373,469.90026005608814 396.89629030990307,468.8981423115727 395.1341839571883,468.0647280753643 393.29887374805156,467.4080435821482 391.4080347230892,466.9344130625743 389.47987669574945,466.6483978374589 387.5329688818741,466.5527523897716 385.5860610679987,466.6483978374589 383.65790304065905,466.9344130625743 381.7670640156967,467.4080435821482 379.93175380655987,468.0647280753643 378.1696474538452,468.89814231157266 376.4977150049945,469.90026005608814 374.9320580834616,471.06143036721755 373.4877548212759,472.37047054010463 372.17871464838885,473.8147738022903 371.0175443372594,475.3804307238232 370.015426592744,477.05236317267384 369.18201235653555,478.8144695253886 368.5253278633195,480.6497797345254 368.05169734374556,482.5406187594877 367.76568211863014,484.46877678682745 367.6700366709429,486.41568460070283 367.76568211863014,488.3625924145782 368.05169734374556,490.2907504419179 368.5253278633195,492.1815894668802 369.18201235653555,494.0168996760171 370.015426592744,495.7790060287318 371.0175443372594,497.45093847758244 372.17871464838885,499.0165953991153 373.4877548212759,500.460898661301 374.9320580834615,501.76993883418805 376.49771500499446,502.9311091453175 378.1696474538451,503.93322688983295 379.9317538065598,504.76664112604135 381.76706401569663,505.42332561925747 383.657903040659,505.89695613883134 385.5860610679986,506.18297136394676 387.532968881874,506.27861681163404 389.4798766957494,506.18297136394676 391.40803472308914,505.89695613883134 393.29887374805145,505.42332561925747 395.13418395718827,504.76664112604135 396.89629030990295,503.933226889833 398.56822275875356,502.9311091453176 400.1338796802865,501.7699388341881 401.57818294247215,500.46089866130103 402.88722311535923,499.01659539911543 404.0483934264887,497.45093847758255 405.05051117100413,495.7790060287319 405.88392540721253,494.0168996760172 406.54060990042865,492.18158946688044 407.0142404200026,490.2907504419181 407.30025564511806,488.36259241457833 407.3959010928053,486.415684600703 407.3959010928053,486.41568460070283" stroke="rgb(255, 0, 0)" stroke-width="0.001pt" /><polygon fill="none" points="95.20945382603338,284.0156448851092 95.07206304171598,281.21899122296475 94.66121383712219,278.4492708643931 93.98086291468526,275.7331577305305 93.03756242570594,273.0968094756346 91.84039686955356,270.56561557457445 90.40089560497114,268.1639528083087 88.73292181604806,265.9149505021589 86.85253900217887,263.8402677777629 84.77785627778293,261.9598849638937 82.52885397163313,260.2919111749706 80.12719120536737,258.85240991038825 77.59599730430723,257.65524435423583 74.95964904941128,256.7119438652565 72.2435359155487,256.03159294281954 69.47381555697704,255.62074373822577 66.67716189483255,255.48335295390837 63.880508232688044,255.62074373822577 61.11078787411639,256.03159294281954 58.3946747402538,256.71194386525644 55.75832648535784,257.6552443542358 53.22713258429771,258.85240991038813 50.825469818031955,260.2919111749706 48.57646751188213,261.95988496389367 46.50178478748618,263.84026777776285 44.62140197361698,265.9149505021588 42.95342818469388,268.16395280830864 41.513926920111466,270.56561557457434 40.31676136395909,273.0968094756345 39.37346087497974,275.7331577305305 38.69310995254281,278.44927086439304 38.28226074794902,281.2189912229647 38.14486996363161,284.0156448851092 38.28226074794902,286.8122985472537 38.693109952542805,289.58201890582535 39.37346087497973,292.29813203968797 40.31676136395906,294.9344802945839 41.51392692011144,297.4656741956441 42.95342818469385,299.8673369619098 44.62140197361693,302.1163392680597 46.50178478748613,304.1910219924556 48.57646751188208,306.07140480632484 50.825469818031884,307.73937859524784 53.22713258429762,309.1788798598303 55.75832648535775,310.3760454159827 58.39467474025369,311.319345904962 61.110787874116276,311.9996968273989 63.88050823268792,312.41054603199274 66.67716189483241,312.54793681631014 69.47381555697692,312.41054603199274 72.24353591554856,311.99969682739896 74.95964904941114,311.319345904962 77.5959973043071,310.37604541598273 80.12719120536723,309.1788798598304 82.52885397163297,307.73937859524796 84.77785627778279,306.0714048063249 86.85253900217874,304.1910219924557 88.73292181604795,302.1163392680598 90.40089560497103,299.8673369619099 91.84039686955346,297.4656741956442 93.03756242570584,294.93448029458415 93.9808629146852,292.2981320396882 94.66121383712213,289.58201890582563 95.07206304171595,286.812298547254 95.20945382603338,284.01564488510945 95.20945382603338,284.0156448851092" stroke="rgb(255, 0, 0)" stroke-width="0.001pt" /><polygon fill="none" points="225.97947565544635,248.27763056217222 225.920556025659,247.07829394555932 225.74436456454052,245.89050759618854 225.45259809217754,244.7257105459143 225.04806647919466,243.5951204270736 224.5346655861644,242.50962544055434 223.91733974434015,241.47967949646858 223.2020341390433,240.51520153728362 222.39563755427864,239.62548001298367 221.5059160299787,238.81908342821902 220.54143807079376,238.10377782292215 219.511492126708,237.4864519810979 218.42599714018874,236.97305108806765 217.29540702134804,236.5685194750848 216.1306099710738,236.2767530027218 214.94282362170298,236.1005615416033 213.74348700509012,236.04164191181596 212.54415038847722,236.1005615416033 211.35636403910638,236.2767530027218 210.19156698883216,236.56851947508477 209.0609768699915,236.97305108806765 207.9754818834722,237.48645198109787 206.94553593938645,238.10377782292215 205.98105798020148,238.819083428219 205.09133645590154,239.62548001298367 204.28493987113688,240.51520153728362 203.56963426584,241.47967949646855 202.95230842401577,242.50962544055432 202.43890753098552,243.59512042707357 202.03437591800267,244.72571054591427 201.74260944563963,245.8905075961885 201.56641798452117,247.07829394555932 201.5074983547338,248.27763056217222 201.56641798452117,249.4769671787851 201.74260944563963,250.66475352815593 202.03437591800264,251.82955057843014 202.43890753098552,252.96014069727084 202.95230842401577,254.0456356837901 203.56963426584,255.07558162787586 204.28493987113688,256.04005958706085 205.0913364559015,256.9297811113608 205.98105798020146,257.7361776961254 206.94553593938642,258.4514833014223 207.97548188347218,259.06880914324654 209.06097686999144,259.5822100362768 210.1915669888321,259.98674164925967 211.35636403910635,260.2785081216226 212.54415038847716,260.45469958274117 213.74348700509006,260.5136192125285 214.9428236217029,260.45469958274117 216.13060997107374,260.2785081216227 217.29540702134798,259.98674164925967 218.42599714018866,259.5822100362768 219.51149212670794,259.0688091432466 220.54143807079367,258.45148330142234 221.50591602997864,257.7361776961255 222.39563755427858,256.9297811113608 223.20203413904326,256.0400595870609 223.9173397443401,255.07558162787592 224.53466558616438,254.0456356837902 225.04806647919463,252.96014069727096 225.4525980921775,251.82955057843026 225.7443645645405,250.664753528156 225.920556025659,249.47696717878523 225.97947565544635,248.27763056217233 225.97947565544635,248.27763056217222" stroke="rgb(255, 0, 0)" stroke-width="0.001pt" /><polygon fill="none" points="165.64899530343826,802.3453259019589 165.48343392981968,798.9752467213182 164.98834425549705,795.6376232454597 164.1684942646776,792.3645986129866 163.0317795609485,789.1876938403267 161.58914732829817,786.1375042571138 159.85449090375,783.2434048564373 157.844515976932,780.5332673976014 155.57857970515363,778.0331919858464 153.0785042933987,775.767255714068 150.3683668345628,773.7572807872501 147.4742674338863,772.0226243627019 144.42407785067337,770.5799921300516 141.24717307801356,769.4432774263224 137.97414844554044,768.623427435503 134.63652496968197,768.1283377611803 131.26644578904126,767.9627763875618 127.89636660840053,768.1283377611803 124.55874313254206,768.623427435503 121.28571850006894,769.4432774263224 118.10881372740916,770.5799921300516 115.05862414419622,772.0226243627018 112.16452474351968,773.75728078725 109.45438728468376,775.767255714068 106.95431187292887,778.0331919858464 104.68837560115044,780.5332673976013 102.67840067433245,783.2434048564371 100.94374424978427,786.1375042571137 99.5011120171339,789.1876938403267 98.36439731340482,792.3645986129866 97.54454732258536,795.6376232454595 97.0494576482627,798.9752467213182 96.88389627464416,802.3453259019589 97.0494576482627,805.7154050825995 97.54454732258534,809.053028558458 98.3643973134048,812.3260531909311 99.50111201713388,815.5029579635909 100.94374424978423,818.5531475468039 102.67840067433242,821.4472469474804 104.68837560115038,824.1573844063163 106.95431187292881,826.6574598180713 109.45438728468369,828.9233960898497 112.1645247435196,830.9333710166676 115.0586241441961,832.6680274412157 118.10881372740904,834.1106596738662 121.28571850006881,835.2473743775952 124.55874313254193,836.0672243684146 127.89636660840038,836.5623140427373 131.26644578904111,836.7278754163559 134.63652496968183,836.5623140427373 137.97414844554027,836.0672243684148 141.2471730780134,835.2473743775952 144.42407785067317,834.1106596738662 147.47426743388613,832.6680274412158 150.3683668345626,830.9333710166677 153.07850429339857,828.9233960898498 155.57857970515346,826.6574598180714 157.8445159769319,824.1573844063165 159.85449090374985,821.4472469474806 161.58914732829805,818.5531475468041 163.03177956094842,815.5029579635913 164.16849426467752,812.3260531909314 164.988344255497,809.0530285584582 165.48343392981965,805.7154050825998 165.64899530343826,802.3453259019591 165.64899530343826,802.3453259019589" stroke="rgb(255, 0, 0)" stroke-width="0.001pt" /><polygon fill="none" points="256.87412203493614,933.8555447228083 256.7525774253994,931.381447358391 256.389114137822,928.9311769040726 255.78723252235255,926.5283308037815 254.95272902797007,924.1960497789934 253.8936403795114,921.9567949709311 252.6201661796179,919.8321316274978 251.14457068098645,917.8425214181497 249.4810646749114,916.0071253768344 247.64566863359613,914.3436193707594 245.65605842424804,912.8680238721279 243.5313950808147,911.5945496722345 241.29214027275253,910.5354610237758 238.95985924796435,909.7009575293932 236.55701314767336,909.0990759139238 234.1067426933547,908.7356126263464 231.63264532893749,908.6140680168096 229.1585479645203,908.7356126263464 226.7082775102016,909.0990759139238 224.30543140991065,909.7009575293931 221.97315038512247,910.5354610237757 219.7338955770603,911.5945496722343 217.60923223362695,912.8680238721279 215.6196220242788,914.3436193707594 213.78422598296353,916.0071253768343 212.12071997688847,917.8425214181495 210.64512447825703,919.8321316274978 209.37165027836355,921.9567949709311 208.31256162990488,924.1960497789933 207.47805813552236,926.5283308037814 206.87617652005292,928.9311769040723 206.5127132324755,931.381447358391 206.39116862293878,933.8555447228083 206.5127132324755,936.3296420872255 206.87617652005292,938.7799125415441 207.47805813552236,941.1827586418351 208.31256162990485,943.5150396666234 209.37165027836352,945.7542944746856 210.645124478257,947.8789578181189 212.12071997688844,949.868568027467 213.7842259829635,951.7039640687823 215.61962202427878,953.3674700748574 217.6092322336269,954.8430655734887 219.7338955770602,956.1165397733822 221.97315038512238,957.1756284218409 224.30543140991054,958.0101319162234 226.7082775102015,958.6120135316928 229.15854796452018,958.9754768192703 231.63264532893737,959.097021428807 234.1067426933546,958.9754768192703 236.55701314767325,958.6120135316928 238.95985924796423,958.0101319162235 241.2921402727524,957.175628421841 243.53139508081458,956.1165397733823 245.6560584242479,954.8430655734888 247.64566863359602,953.3674700748575 249.4810646749113,951.7039640687824 251.14457068098636,949.8685680274671 252.6201661796178,947.878957818119 253.89364037951128,945.7542944746857 254.95272902796998,943.5150396666235 255.7872325223525,941.1827586418353 256.38911413782193,938.7799125415444 256.75257742539935,936.3296420872257 256.87412203493614,933.8555447228086 256.87412203493614,933.8555447228083" stroke="rgb(255, 0, 0)" stroke-width="0.001pt" /><polygon fill="none" points="731.5104432192657,694.8994984906237 731.3735493644127,692.1129600601067 730.9641861625103,689.3532575179524 730.286296004973,686.6469683082487 729.3464073445907,684.0201554754932 728.153571822958,681.4981166632272 726.7192770982189,679.1051404838995 725.0573362126372,676.8642726062509 723.1837545654511,674.7970938129262 721.1165757721262,672.9235121657399 718.8757078944777,671.2615712801584 716.48273171515,669.8272765554191 713.9606929028839,668.6344410337865 711.3338800701284,667.6945523734041 708.6275908604247,667.0166622158667 705.8678883182704,666.6072990139644 703.0813498877534,666.4704051591115 700.2948114572364,666.6072990139644 697.5351089150821,667.0166622158667 694.8288197053785,667.694552373404 692.2020068726227,668.6344410337863 689.6799680603567,669.8272765554191 687.286991881029,671.2615712801583 685.0461240033804,672.9235121657399 682.9789452100558,674.797093812926 681.1053635628695,676.8642726062509 679.443422677288,679.1051404838994 678.0091279525486,681.4981166632272 676.8162924309161,684.0201554754931 675.8764037705337,686.6469683082487 675.1985136129964,689.3532575179524 674.7891504110939,692.1129600601067 674.652256556241,694.8994984906237 674.7891504110939,697.6860369211407 675.1985136129964,700.445739463295 675.8764037705336,703.1520286729988 676.816292430916,705.7788415057544 678.0091279525486,708.3008803180204 679.4434226772879,710.693856497348 681.1053635628695,712.9347243749967 682.9789452100557,715.0019031683213 685.0461240033804,716.8754848155077 687.2869918810289,718.5374257010891 689.6799680603567,719.9717204258285 692.2020068726226,721.164555947461 694.8288197053782,722.1044446078433 697.535108915082,722.7823347653807 700.2948114572363,723.1916979672832 703.0813498877533,723.3285918221361 705.8678883182703,723.1916979672832 708.6275908604246,722.7823347653807 711.3338800701283,722.1044446078436 713.9606929028838,721.1645559474612 716.4827317151498,719.9717204258286 718.8757078944775,718.5374257010892 721.1165757721261,716.8754848155078 723.183754565451,715.0019031683214 725.0573362126371,712.9347243749968 726.7192770982188,710.6938564973483 728.1535718229579,708.3008803180205 729.3464073445906,705.7788415057546 730.286296004973,703.152028672999 730.9641861625101,700.4457394632952 731.3735493644127,697.686036921141 731.5104432192657,694.899498490624 731.5104432192657,694.8994984906237" stroke="rgb(255, 0, 0)" stroke-width="0.001pt" /><polygon fill="none" points="551.2292571331269,674.0612255461052 551.1260875626166,671.9611606936975 550.8175724304476,669.8813206138308 550.3066829059946,667.8417353034304 549.5983391346585,665.8620470839859 548.6993628541774,663.9613214352587 547.6184116975626,662.1578633842881 546.3658958153605,660.4690412179755 544.9538776202115,658.9111192169864 543.3959556192225,657.4991010218374 541.7071334529098,656.2465851396354 539.9036754019393,655.1656339830206 538.0029497532121,654.2666577025394 536.0232615337677,653.5583139312033 533.9836762233672,653.0474244067502 531.9038361435005,652.7389092745815 529.8037712910927,652.635739704071 527.7037064386851,652.7389092745815 525.6238663588183,653.0474244067502 523.5842810484178,653.5583139312033 521.6045928289734,654.2666577025394 519.7038671802462,655.1656339830206 517.9004091292757,656.2465851396354 516.211586962963,657.4991010218374 514.653664961974,658.9111192169864 513.241646766825,660.4690412179755 511.9891308846229,662.157863384288 510.9081797280081,663.9613214352586 510.009203447527,665.8620470839859 509.30085967619084,667.8417353034301 508.7899701517378,669.8813206138308 508.4814550195689,671.9611606936975 508.3782854490585,674.0612255461052 508.4814550195689,676.1612903985128 508.7899701517378,678.2411304783797 509.30085967619084,680.2807157887801 510.00920344752694,682.2604040082246 510.9081797280081,684.1611296569517 511.9891308846229,685.9645877079224 513.2416467668249,687.653409874235 514.653664961974,689.211331875224 516.211586962963,690.623350070373 517.9004091292757,691.875865952575 519.7038671802462,692.9568171091898 521.6045928289734,693.855793389671 523.5842810484178,694.5641371610071 525.6238663588183,695.0750266854602 527.703706438685,695.383541817629 529.8037712910926,695.4867113881394 531.9038361435004,695.3835418176291 533.9836762233671,695.0750266854602 536.0232615337676,694.5641371610071 538.002949753212,693.855793389671 539.9036754019392,692.9568171091898 541.7071334529098,691.8758659525752 543.3959556192224,690.623350070373 544.9538776202114,689.2113318752241 546.3658958153604,687.6534098742351 547.6184116975625,685.9645877079224 548.6993628541773,684.161129656952 549.5983391346584,682.2604040082247 550.3066829059945,680.2807157887804 550.8175724304476,678.2411304783798 551.1260875626166,676.1612903985131 551.2292571331269,674.0612255461053 551.2292571331269,674.0612255461052" stroke="rgb(255, 0, 0)" stroke-width="0.001pt" /><polygon fill="none" points="344.98196183923017,125.23987459695493 344.91606730650415,123.89856056938686 344.7190183086979,122.5701641291411 344.39271253537817,121.26747846011259 343.9402924895189,120.00304913741445 343.36611522347977,118.78905330663171 342.6757103782098,117.63718241125241 341.87572692978284,116.55852959767573 340.97386915612253,115.56348288214801 339.9788224405948,114.66162510848767 338.9001696270181,113.86164166006066 337.7482987316388,113.17123681479073 336.53430290085606,112.59705954875159 335.2698735781579,112.14463950289236 333.96718790912945,111.81833372957261 332.63879146888365,111.62128473176634 331.29747744131555,111.5553901990403 329.9561634137475,111.62128473176634 328.62776697350176,111.81833372957261 327.3250813044732,112.14463950289235 326.0606519817751,112.59705954875157 324.8466561509924,113.17123681479072 323.69478525561306,113.86164166006061 322.61613244203636,114.66162510848764 321.6210857265086,115.56348288214798 320.7192279528483,116.5585295976757 319.9192445044213,117.63718241125238 319.2288396591514,118.78905330663169 318.6546623931122,120.00304913741444 318.20224234725293,121.26747846011254 317.8759365739332,122.57016412914106 317.67888757612695,123.89856056938685 317.61299304340093,125.23987459695492 317.67888757612695,126.58118862452301 317.8759365739332,127.90958506476878 318.20224234725293,129.2122707337973 318.6546623931122,130.47670005649542 319.2288396591514,131.69069588727817 319.9192445044213,132.84256678265749 320.7192279528483,133.92121959623418 321.62108572650857,134.9162663117619 322.6161324420363,135.81812408542223 323.694785255613,136.61810753384924 324.8466561509923,137.30851237911915 326.0606519817751,137.88268964515828 327.32508130447314,138.33510969101752 328.6277669735017,138.66141546433727 329.95616341374745,138.85846446214356 331.2974774413155,138.92435899486958 332.6387914688836,138.85846446214356 333.9671879091294,138.66141546433727 335.26987357815784,138.33510969101755 336.534302900856,137.88268964515834 337.7482987316387,137.30851237911918 338.90016962701804,136.61810753384927 339.97882244059474,135.81812408542228 340.9738691561225,134.91626631176194 341.8757269297828,133.92121959623424 342.67571037820977,132.84256678265754 343.36611522347977,131.69069588727825 343.94029248951887,130.4767000564955 344.3927125353781,129.21227073379742 344.71901830869785,127.90958506476889 344.91606730650415,126.58118862452312 344.98196183923017,125.23987459695505 344.98196183923017,125.23987459695493" stroke="rgb(255, 0, 0)" stroke-width="0.001pt" /><polygon fill="none" points="481.8074835335255,875.9319164389959 481.69908546797336,873.725423125037 481.3749352039444,871.5401795478833 480.83815448568,869.3972307977588 480.093912804931,867.3172146425818 479.14937761592705,865.3201627749793 478.0136453088737,863.4253078961359 476.6976536067423,861.650898494368 475.21407622901853,860.0140231022053 473.57720083685587,858.5304457244816 471.80279143508795,857.2144540223502 469.90793655624464,856.0787217152969 467.91088468864217,855.134186526293 465.8308685334652,854.3899448455439 463.6879197833406,853.8531641272793 461.50267620618695,853.5290138632506 459.296182892228,853.4206157976984 457.089689578269,853.5290138632506 454.9044460011153,853.8531641272793 452.7614972509907,854.3899448455439 450.6814810958137,855.134186526293 448.68442922821123,856.0787217152969 446.7895743493679,857.2144540223502 445.0151649476,858.5304457244815 443.3782895554373,860.0140231022053 441.8947121777136,861.650898494368 440.5787204755822,863.4253078961359 439.4429881685288,865.3201627749793 438.49845297952487,867.3172146425818 437.7542112987759,869.3972307977588 437.2174305805114,871.5401795478833 436.89328031648245,873.7254231250369 436.7848822509303,875.9319164389959 436.89328031648245,878.1384097529549 437.2174305805114,880.3236533301085 437.75421129877583,882.4666020802332 438.4984529795248,884.5466182354102 439.44298816852876,886.5436701030127 440.57872047558214,888.4385249818561 441.89471217771353,890.212934383624 443.3782895554373,891.8498097757865 445.01516494759994,893.3333871535102 446.78957434936785,894.6493788556418 448.6844292282112,895.7851111626951 450.68148109581364,896.729646351699 452.7614972509906,897.473888032448 454.9044460011152,898.0106687507125 457.08968957826886,898.3348190147414 459.2961828922279,898.4432170802936 461.50267620618683,898.3348190147414 463.6879197833405,898.0106687507125 465.83086853346504,897.473888032448 467.91088468864206,896.7296463516991 469.9079365562445,895.7851111626952 471.80279143508784,894.6493788556418 473.5772008368558,893.3333871535103 475.2140762290185,891.8498097757868 476.69765360674216,890.2129343836241 478.0136453088736,888.4385249818562 479.149377615927,886.5436701030128 480.09391280493094,884.5466182354103 480.8381544856799,882.4666020802333 481.3749352039444,880.3236533301088 481.69908546797336,878.1384097529551 481.8074835335255,875.931916438996 481.8074835335255,875.9319164389959" stroke="rgb(255, 0, 0)" stroke-width="0.001pt" /><polygon fill="none" points="314.69952601749316,537.3782691362835 314.5984803899241,535.3214381356554 314.2963166318476,533.2844155419416 313.79594474543353,531.2868189962693 313.10218358547905,529.3478864453707 312.22171445120296,527.4862908696393 311.16301674168176,525.7199604521211 309.93628629460125,524.0659059203113 308.55333719476573,522.5400567235491 307.02748799800355,521.1571076237135 305.37343346619366,519.930377176633 303.60710304867547,518.8716794671118 301.7455074729441,517.9912103328357 299.8065749220455,517.2974491728813 297.8089783763732,516.7970772864671 295.77195578265935,516.4949135283907 293.71512478203135,516.3938679008216 291.65829378140324,516.4949135283907 289.62127118768944,516.7970772864671 287.62367464201714,517.2974491728812 285.68474209111855,517.9912103328357 283.8231465153872,518.8716794671118 282.056816097869,519.9303771766329 280.40276156605904,521.1571076237135 278.87691236929686,522.540056723549 277.49396326946135,524.0659059203111 276.2672328223808,525.7199604521211 275.2085351128596,527.4862908696393 274.32806597858354,529.3478864453707 273.63430481862906,531.2868189962693 273.133932932215,533.2844155419416 272.83176917413846,535.3214381356554 272.73072354656944,537.3782691362835 272.83176917413846,539.4351001369115 273.1339329322149,541.4721227306254 273.63430481862906,543.4697192762976 274.32806597858354,545.4086518271963 275.2085351128596,547.2702474029276 276.2672328223808,549.0365778204459 277.49396326946135,550.6906323522558 278.87691236929686,552.2164815490179 280.402761566059,553.5994306488534 282.05681609786893,554.826161095934 283.8231465153871,555.8848588054552 285.6847420911185,556.7653279397313 287.6236746420171,557.4590890996857 289.62127118768933,557.9594609860999 291.6582937814032,558.2616247441763 293.71512478203124,558.3626703717454 295.7719557826593,558.2616247441763 297.80897837637315,557.9594609860999 299.8065749220454,557.4590890996858 301.745507472944,556.7653279397313 303.6071030486753,555.8848588054552 305.37343346619355,554.826161095934 307.0274879980035,553.5994306488535 308.5533371947656,552.216481549018 309.93628629460113,550.6906323522559 311.1630167416817,549.036577820446 312.2217144512029,547.2702474029278 313.102183585479,545.4086518271964 313.7959447454335,543.4697192762978 314.29631663184756,541.4721227306255 314.5984803899241,539.4351001369117 314.69952601749316,537.3782691362837 314.69952601749316,537.3782691362835" stroke="rgb(255, 0, 0)" stroke-width="0.001pt" /><polygon fill="none" points="103.35761874795531,513.4968612056376 103.2118274600497,510.52921136466995 102.77585764613306,507.5901416139533 102.05390793383872,504.70795680184585 101.05293109355397,501.91041394365084 99.78256707944031,499.2244549063851 98.25505019140529,496.6759469438721 96.48509125210636,494.28943358094693 94.48973593368693,492.0878982458956 92.28820059863556,490.0925429274762 89.90168723571043,488.3225839881772 87.35317927319741,486.7950671001422 84.66722023593168,485.5247030860285 81.86967737773665,484.5237262457437 78.98749256562925,483.8017765334494 76.04842281491256,483.36580671953277 73.0807729739449,483.2200154316272 70.11312313297726,483.36580671953277 67.17405338226057,483.8017765334494 64.29186857015316,484.5237262457437 61.49432571195814,485.5247030860285 58.80836667469241,486.79506710014215 56.25985871217937,488.32258398817714 53.87334534925424,490.09254292747613 51.67181001420286,492.08789824589553 49.67645469578342,494.2894335809469 47.90649575648447,496.675946943872 46.378978868449444,499.22445490638506 45.108614854335784,501.9104139436508 44.107638014051005,504.7079568018458 43.38568830175667,507.5901416139532 42.949718487840016,510.52921136466995 42.80392719993442,513.4968612056376 42.949718487840016,516.4645110466053 43.38568830175666,519.403580797322 44.10763801405099,522.2857656094294 45.108614854335755,525.0833084676244 46.37897886844941,527.7692675048901 47.90649575648444,530.3177754674031 49.67645469578338,532.7042888303283 51.67181001420281,534.9058241653796 53.873345349254166,536.9011794837991 56.259858712179295,538.671138423098 58.80836667469231,540.198655311133 61.49432571195804,541.4690193252467 64.29186857015304,542.4699961655315 67.17405338226044,543.1919458778258 70.11312313297714,543.6279156917425 73.08077297394478,543.7737069796481 76.04842281491241,543.6279156917425 78.9874925656291,543.1919458778258 81.8696773777365,542.4699961655315 84.66722023593152,541.4690193252468 87.35317927319726,540.198655311133 89.90168723571028,538.6711384230981 92.28820059863543,536.9011794837992 94.4897359336868,534.9058241653797 96.48509125210623,532.7042888303284 98.25505019140518,530.3177754674033 99.78256707944021,527.7692675048903 101.05293109355387,525.0833084676245 102.05390793383866,522.2857656094295 102.775857646133,519.4035807973222 103.21182746004968,516.4645110466055 103.35761874795531,513.4968612056379 103.35761874795531,513.4968612056376" stroke="rgb(255, 0, 0)" stroke-width="0.001pt" /><polygon fill="none" points="160.75143410237646,414.4129212110563 160.630306918453,411.94732074019606 160.2680918876786,409.50546534970454 159.66827733880652,407.1108714418461 158.83663981383435,404.7866002649716 157.78118843674696,402.55503582109014 156.51208778127403,400.43766929569364 155.04155998048884,398.45489208589186 153.38376702098515,396.62579942011155 151.55467435520478,394.96800646060785 149.57189714540306,393.49747865982266 147.45453062000655,392.22837800434974 145.22296617612514,391.1729266272623 142.8986949992506,390.34128910229015 140.50410109139216,389.74147455341813 138.06224570090063,389.3792595226437 135.5966452300404,389.2581323387202 133.13104475918016,389.3792595226437 130.6891893686886,389.741474553418 128.29459546083015,390.34128910229015 125.97032428395563,391.17292662726226 123.73875984007422,392.2283780043497 121.62139331467772,393.4974786598226 119.63861610487595,394.9680064606078 117.8095234390956,396.6257994201115 116.15173047959189,398.45489208589186 114.68120267880667,400.4376692956936 113.41210202333374,402.55503582109014 112.35665064624634,404.7866002649715 111.52501312127418,407.11087144184603 110.9251985724021,409.50546534970454 110.56298354162769,411.94732074019606 110.44185635770422,414.4129212110563 110.56298354162769,416.8785216819165 110.9251985724021,419.32037707240806 111.52501312127417,421.71497098026657 112.35665064624632,424.039242157141 113.41210202333373,426.2708066010225 114.68120267880664,428.388173126419 116.15173047959186,430.37095033622074 117.80952343909556,432.2000430020011 119.6386161048759,433.8578359615048 121.62139331467765,435.32836376229 123.73875984007415,436.5974644177629 125.97032428395556,437.65291579485034 128.29459546083007,438.4845533198225 130.68918936868852,439.0843678686945 133.13104475918004,439.4465828994689 135.59664523004028,439.56771008339246 138.0622457009005,439.446582899469 140.50410109139204,439.0843678686946 142.8986949992505,438.4845533198225 145.222966176125,437.6529157948504 147.4545306200064,436.597464417763 149.57189714540291,435.3283637622901 151.5546743552047,433.85783596150486 153.38376702098503,432.2000430020012 155.04155998048873,430.37095033622086 156.51208778127395,428.38817312641913 157.78118843674687,426.2708066010226 158.8366398138343,424.03924215714125 159.66827733880646,421.71497098026674 160.26809188767857,419.3203770724083 160.63030691845296,416.87852168191677 160.75143410237646,414.4129212110565 160.75143410237646,414.4129212110563" stroke="rgb(255, 0, 0)" stroke-width="0.001pt" /><polygon fill="none" points="221.4728504610854,723.3494984205863 221.32214378670466,720.2817935893596 220.87147515122138,717.2436324326358 220.12518473995578,714.2642741031815 219.09045973753217,711.3724114503927 217.77726511136217,708.5958946924688 216.19824764356093,705.9614632035868 214.3686141355222,703.4944879991115 212.30598495810773,701.2187273988476 210.0302243578439,699.1560982214331 207.56324915336853,697.3264647133944 204.92881766448647,695.7474472455932 202.15230090656246,694.4342526194231 199.2604382537738,693.3995276169995 196.28107992431964,692.653237205734 193.2429187675957,692.2025685702506 190.175213936369,692.0518618958699 187.1075091051423,692.2025685702506 184.06934794841834,692.653237205734 181.0899896189642,693.3995276169995 178.19812696617552,694.4342526194231 175.42161020825154,695.7474472455931 172.78717871936948,697.3264647133942 170.32020351489405,699.156098221433 168.04444291463022,701.2187273988476 165.98181373721576,703.4944879991112 164.15218022917702,705.9614632035868 162.57316276137578,708.5958946924687 161.25996813520575,711.3724114503927 160.22524313278217,714.2642741031815 159.47895272151652,717.2436324326356 159.02828408603324,720.2817935893596 158.8775774116525,723.3494984205863 159.02828408603324,726.417203251813 159.47895272151652,729.455364408537 160.2252431327821,732.4347227379911 161.25996813520572,735.3265853907799 162.57316276137573,738.1031021487038 164.15218022917696,740.7375336375858 165.98181373721573,743.2045088420613 168.04444291463017,745.4802694423252 170.320203514894,747.5428986197395 172.7871787193694,749.3725321277783 175.42161020825142,750.9515495955795 178.19812696617544,752.2647442217495 181.0899896189641,753.2994692241732 184.06934794841823,754.0457596354388 187.10750910514216,754.496428270922 190.17521393636886,754.6471349453028 193.24291876759557,754.496428270922 196.28107992431953,754.0457596354388 199.26043825377363,753.2994692241732 202.15230090656232,752.2647442217497 204.9288176644863,750.9515495955796 207.56324915336836,749.3725321277784 210.03022435784376,747.5428986197396 212.30598495810762,745.4802694423253 214.36861413552205,743.2045088420614 216.19824764356082,740.737533637586 217.77726511136203,738.103102148704 219.0904597375321,735.32658539078 220.1251847399557,732.4347227379914 220.8714751512213,729.4553644085372 221.32214378670463,726.4172032518132 221.4728504610854,723.3494984205865 221.4728504610854,723.3494984205863" stroke="rgb(255, 0, 0)" stroke-width="0.001pt" /><polygon fill="none" points="668.4911872259587,565.3646030095068 668.4181943476401,563.8787988380375 668.1999186740044,562.4073037729625 667.8384623191104,560.9642891161596 667.3373063052477,559.563651887606 666.7012770387897,558.2188809894786 665.9364998292615,556.9429273006533 665.0503398992604,555.7480789526603 664.0513314533364,554.6458429882616 662.9490954889378,553.6468345423378 661.7542471409449,552.7606746123367 660.4782934521195,551.9958974028083 659.1335225539922,551.3598681363504 657.7328853254386,550.8587121224878 656.2898706686358,550.4972557675937 654.8183756035608,550.2789800939581 653.3325714320913,550.2059872156394 651.8467672606221,550.278980093958 650.3752721955469,550.4972557675937 648.9322575387441,550.8587121224878 647.5316203101906,551.3598681363504 646.1868494120632,551.9958974028083 644.9108957232379,552.7606746123366 643.716047375245,553.6468345423378 642.6138114108463,554.6458429882616 641.6148029649223,555.7480789526603 640.7286430349212,556.9429273006532 639.963865825393,558.2188809894786 639.327836558935,559.5636518876059 638.8266805450723,560.9642891161596 638.4652241901783,562.4073037729625 638.2469485165426,563.8787988380374 638.173955638224,565.3646030095068 638.2469485165426,566.8504071809762 638.4652241901783,568.3219022460511 638.8266805450723,569.764916902854 639.327836558935,571.1655541314076 639.963865825393,572.5103250295349 640.7286430349212,573.7862787183603 641.6148029649223,574.9811270663532 642.6138114108463,576.0833630307519 643.716047375245,577.0823714766757 644.9108957232378,577.968531406677 646.1868494120632,578.7333086162052 647.5316203101905,579.3693378826632 648.9322575387441,579.8704938965258 650.3752721955469,580.2319502514198 651.846767260622,580.4502259250555 653.3325714320913,580.5232188033742 654.8183756035606,580.4502259250555 656.2898706686356,580.2319502514198 657.7328853254385,579.8704938965258 659.1335225539921,579.3693378826632 660.4782934521194,578.7333086162052 661.7542471409448,577.968531406677 662.9490954889377,577.0823714766759 664.0513314533364,576.0833630307519 665.0503398992603,574.9811270663533 665.9364998292615,573.7862787183603 666.7012770387897,572.510325029535 667.3373063052477,571.1655541314077 667.8384623191102,569.7649169028541 668.1999186740044,568.3219022460512 668.4181943476401,566.8504071809763 668.4911872259587,565.3646030095069 668.4911872259587,565.3646030095068" stroke="rgb(255, 0, 0)" stroke-width="0.001pt" /><polygon fill="none" points="574.6917056020213,389.9532527854091 574.5642561189142,387.35895895820113 574.1831350777861,384.7896495987344 573.5520128826053,382.27006856066794 572.6769675851175,379.82448078674145 571.5664263498861,377.4764386241122 570.2310842960901,375.2485550023765 568.6838014976796,373.1622856586971 566.9394791338342,371.2377225073241 565.0149159824612,369.49340014347865 562.9286466387816,367.94611734506816 560.7007630170461,366.61077529127203 558.3527208544168,365.50023405604077 555.9071330804903,364.625188758553 553.3875520424239,363.9940665633721 550.8182426829571,363.61294552224405 548.2239488557492,363.48549603913693 545.629655028541,363.61294552224405 543.0603456690743,363.9940665633721 540.5407646310078,364.62518875855295 538.0951768570815,365.5002340560407 535.7471346944521,366.61077529127203 533.5192510727165,367.9461173450681 531.432981729037,369.49340014347865 529.5084185776641,371.23772250732407 527.7640962138186,373.162285658697 526.2168134154081,375.24855500237646 524.8814713616121,377.4764386241121 523.7709301263807,379.82448078674145 522.8958848288929,382.2700685606679 522.264762633712,384.7896495987343 521.883641592584,387.3589589582011 521.7561921094768,389.9532527854091 521.883641592584,392.54754661261717 522.264762633712,395.1168559720839 522.8958848288929,397.63643701015036 523.7709301263807,400.08202478407685 524.8814713616121,402.4300669467061 526.2168134154081,404.6579505684417 527.7640962138186,406.74421991212125 529.508418577664,408.6687830634942 531.432981729037,410.41310542733964 533.5192510727165,411.9603882257501 535.747134694452,413.2957302795462 538.0951768570814,414.40627151477753 540.5407646310078,415.28131681226523 543.0603456690743,415.9124390074462 545.629655028541,416.2935600485742 548.223948855749,416.42100953168136 550.818242682957,416.2935600485742 553.3875520424237,415.9124390074462 555.9071330804902,415.28131681226535 558.3527208544167,414.4062715147776 560.700763017046,413.29573027954626 562.9286466387815,411.96038822575025 565.014915982461,410.4131054273397 566.9394791338341,408.6687830634943 568.6838014976795,406.7442199121213 570.23108429609,404.65795056844183 571.5664263498861,402.4300669467063 572.6769675851174,400.08202478407696 573.5520128826053,397.63643701015053 574.1831350777861,395.1168559720842 574.5642561189142,392.5475466126174 574.6917056020213,389.95325278540935 574.6917056020213,389.9532527854091" stroke="rgb(255, 0, 0)" stroke-width="0.001pt" /><polygon fill="none" points="587.7412645466485,454.9817205810977 587.6141726499058,452.39470559155245 587.2341209241187,449.8326049705628 586.6047694751638,447.3200931476955 585.7321793015335,444.8813669852834 584.6247539236058,442.539912749414 583.2931584531503,440.3182799243476 581.750216882472,438.2378640486578 580.010788582354,436.3187006644985 578.0916251981946,434.5792723643805 576.0112093225048,433.0363307937021 573.7895764974386,431.7047353232467 571.4481222615691,430.59730994531895 569.009396099157,429.7247197716885 566.4968842762897,429.09536832273375 563.9347836553001,428.71531659694665 561.3477686657548,428.5882247002039 558.7607536762096,428.71531659694665 556.1986530552199,429.09536832273375 553.6861412323526,429.7247197716885 551.2474150699405,430.59730994531895 548.905960834071,431.70473532324667 546.6843280090047,433.03633079370206 544.6039121333149,434.5792723643804 542.6847487491556,436.31870066449846 540.9453204490375,438.2378640486578 539.4023788783592,440.3182799243476 538.0707834079038,442.53991274941393 536.963358029976,444.8813669852833 536.0907678563456,447.3200931476954 535.4614164073907,449.8326049705627 535.0813646816036,452.3947055915524 534.9542727848609,454.9817205810977 535.0813646816036,457.56873557064296 535.4614164073907,460.1308361916326 536.0907678563456,462.6433480144999 536.963358029976,465.082074176912 538.0707834079038,467.4235284127814 539.4023788783591,469.6451612378478 540.9453204490375,471.7255771135376 542.6847487491556,473.6447404976969 544.6039121333149,475.38416879781494 546.6843280090046,476.9271103684933 548.9059608340709,478.2587058389487 551.2474150699404,479.36613121687645 553.6861412323524,480.2387213905069 556.1986530552198,480.86807283946166 558.7607536762094,481.24812456524876 561.3477686657546,481.3752164619915 563.9347836553,481.24812456524876 566.4968842762896,480.86807283946166 569.0093960991569,480.2387213905069 571.4481222615689,479.3661312168765 573.7895764974384,478.25870583894874 576.0112093225047,476.9271103684934 578.0916251981945,475.38416879781505 580.0107885823538,473.64474049769706 581.7502168824719,471.7255771135377 583.2931584531502,469.6451612378479 584.6247539236056,467.42352841278165 585.7321793015334,465.0820741769122 586.6047694751638,462.64334801450013 587.2341209241187,460.1308361916328 587.6141726499058,457.5687355706431 587.7412645466485,454.9817205810979 587.7412645466485,454.9817205810977" stroke="rgb(255, 0, 0)" stroke-width="0.001pt" /><polygon fill="none" points="310.91658106583037,214.41697849922758 310.7931416964567,211.90431241229243 310.42401237694145,209.41584467333743 309.8127480244183,206.97554058702363 308.96523544875305,204.6069016157081 307.8896366593469,202.33273904751437 306.5963102605239,200.17495431115788 305.0977116925088,198.15432805321493 303.4082732787291,196.29032000913605 301.5442652346502,194.60088159535624 299.5236389767072,193.1022830273412 297.3658542403508,191.80895662851822 295.091691672157,190.73335783911202 292.72305270084155,189.88584526344678 290.2827486145277,189.27458091092362 287.7942808755727,188.9054515914084 285.28161478863757,188.7820122220347 282.76894870170236,188.9054515914084 280.28048096274745,189.2745809109236 277.8401768764336,189.88584526344675 275.47153790511805,190.733357839112 273.1973753369243,191.80895662851816 271.03959060056786,193.10228302734117 269.0189643426248,194.6008815953562 267.15495629854604,196.290320009136 265.4655178847662,198.15432805321484 263.96691931675116,200.17495431115785 262.67359291792815,202.33273904751434 261.597994128522,204.60690161570807 260.75048155285674,206.97554058702357 260.1392172003336,209.4158446733374 259.7700878808183,211.90431241229237 259.64664851144465,214.41697849922755 259.7700878808183,216.9296445861627 260.1392172003335,219.4181123251177 260.75048155285674,221.8584164114315 261.597994128522,224.22705538274707 262.6735929179281,226.50121795094077 263.96691931675116,228.65900268729726 265.4655178847662,230.67962894524027 267.1549562985459,232.5436369893191 269.0189643426248,234.2330754030989 271.0395906005678,235.73167397111396 273.19737533692427,237.02500036993695 275.471537905118,238.10059915934312 277.84017687643353,238.94811173500838 280.2804809627473,239.55937608753152 282.7689487017023,239.92850540704677 285.28161478863746,240.05194477642047 287.7942808755726,239.92850540704677 290.2827486145276,239.55937608753158 292.7230527008414,238.9481117350084 295.0916916721569,238.1005991593432 297.36585424035064,237.025000369937 299.5236389767071,235.73167397111402 301.5442652346501,234.233075403099 303.408273278729,232.54363698931925 305.09771169250877,230.6796289452404 306.59631026052386,228.6590026872974 307.8896366593468,226.50121795094094 308.965235448753,224.2270553827472 309.8127480244182,221.8584164114317 310.42401237694145,219.41811232511793 310.79314169645664,216.92964458616294 310.91658106583037,214.4169784992278 310.91658106583037,214.41697849922758" stroke="rgb(255, 0, 0)" stroke-width="0.001pt" /><polygon fill="none" points="190.26667864272497,558.4771415636051 190.13081286992735,555.7115302240792 189.7245240131983,552.9725532335899 189.05172485632824,550.2865884378327 188.11889482298724,547.6795031460885 186.9350175763331,545.1764050148946 185.51149450142427,542.8014002475869 183.86203490364903,540.5773614383844 182.00252398062025,538.5257072968029 179.95086983903875,536.6661963737741 177.7268310298362,535.0167367759989 175.35182626252853,533.59321370109 172.8487281313346,532.4093364544359 170.2416428395904,531.4765064210949 167.55567804383327,530.8037072642248 164.816701053344,530.3974184074958 162.0510897138181,530.2615526346981 159.28547837429224,530.3974184074958 156.54650138380296,530.8037072642248 153.86053658804582,531.4765064210949 151.2534512963016,532.4093364544359 148.75035316510767,533.59321370109 146.3753483978,535.0167367759988 144.15130958859746,536.666196373774 142.09965544701595,538.5257072968029 140.24014452398717,540.5773614383844 138.5906849262119,542.8014002475869 137.16716185130306,545.1764050148945 135.98328460464893,547.6795031460885 135.0504545713079,550.2865884378327 134.37765541443784,552.9725532335899 133.9713665577088,555.7115302240792 133.83550078491118,558.4771415636051 133.9713665577088,561.2427529031308 134.3776554144378,563.9817298936202 135.0504545713079,566.6676946893773 135.98328460464893,569.2747799811215 137.16716185130304,571.7778781123154 138.59068492621185,574.1528828796231 140.2401445239871,576.3769216888256 142.09965544701592,578.4285758304072 144.15130958859743,580.288086753436 146.37534839779994,581.9375463512112 148.75035316510758,583.36106942612 151.2534512963015,584.5449466727741 153.86053658804568,585.4777767061153 156.54650138380285,586.1505758629852 159.28547837429213,586.5568647197143 162.051089713818,586.6927304925119 164.81670105334385,586.5568647197143 167.55567804383313,586.1505758629853 170.2416428395903,585.4777767061153 172.84872813133447,584.5449466727741 175.35182626252842,583.3610694261201 177.7268310298361,581.9375463512113 179.9508698390386,580.2880867534361 182.0025239806201,578.4285758304073 183.86203490364892,576.3769216888257 185.51149450142418,574.1528828796232 186.935017576333,571.7778781123156 188.11889482298713,569.2747799811218 189.05172485632818,566.6676946893776 189.72452401319825,563.9817298936204 190.13081286992733,561.2427529031311 190.26667864272497,558.4771415636053 190.26667864272497,558.4771415636051" stroke="rgb(255, 0, 0)" stroke-width="0.001pt" /><polygon fill="none" points="259.281007503736,240.0388184061723 259.2210570478756,238.81849884280265 259.0417830359566,237.60993162392276 258.74491197471485,236.4247559125205 258.33330289475646,235.27438559857967 257.81091981652975,234.16989937707982 257.18279357464166,233.12193405410764 256.4549733681704,232.14058210859946 255.6344685035712,231.23529449625204 254.72918089122382,230.41478963165287 253.7478289457156,229.6869694251816 252.6998636227434,229.05884318329353 251.5953774012436,228.5364601050668 250.44500708730274,228.12485102510837 249.2598313759005,227.82797996386665 248.05126415702063,227.64870595194765 246.83094459365097,227.58875549608723 245.61062503028128,227.64870595194765 244.4020578114014,227.82797996386665 243.21688209999917,228.12485102510837 242.06651178605833,228.5364601050668 240.96202556455847,229.0588431832935 239.9140602415863,229.6869694251816 238.9327082960781,230.41478963165284 238.0274206837307,231.23529449625204 237.2069158191315,232.14058210859943 236.47909561266022,233.1219340541076 235.85096937077216,234.1698993770798 235.32858629254542,235.2743855985796 234.916977212587,236.4247559125205 234.62010615134528,237.60993162392273 234.44083213942628,238.81849884280263 234.38088168356586,240.0388184061723 234.44083213942628,241.25913796954197 234.62010615134528,242.46770518842183 234.916977212587,243.6528808998241 235.32858629254542,244.80325121376495 235.85096937077213,245.90773743526478 236.47909561266022,246.95570275823698 237.20691581913147,247.93705470374516 238.02742068373067,248.84234231609258 238.93270829607806,249.66284718069178 239.91406024158627,250.39066738716303 240.96202556455845,251.0187936290511 242.06651178605824,251.54117670727783 243.21688209999914,251.95278578723625 244.40205781140136,252.24965684847797 245.61062503028126,252.42893086039697 246.8309445936509,252.4888813162574 248.05126415702057,252.42893086039697 249.25983137590043,252.24965684847797 250.44500708730268,251.95278578723625 251.59537740124355,251.54117670727786 252.69986362274335,251.01879362905112 253.74782894571558,250.39066738716306 254.72918089122373,249.6628471806918 255.63446850357116,248.8423423160926 256.45497336817033,247.93705470374522 257.18279357464166,246.95570275823704 257.8109198165297,245.90773743526486 258.3333028947564,244.80325121376507 258.74491197471485,243.65288089982417 259.04178303595654,242.46770518842195 259.2210570478756,241.25913796954205 259.281007503736,240.0388184061724 259.281007503736,240.0388184061723" stroke="rgb(255, 0, 0)" stroke-width="0.001pt" /><polygon fill="none" points="445.8743968634052,149.30627474026798 445.8138097199629,148.0729951034376 445.6326317769476,146.85159262368913 445.3326078769925,145.653830074589 444.916627414264,144.49124256424875 444.3886965080161,143.37502644592792 443.7538994214724,142.3159314910317 443.01834959759174,141.32415736293595 442.18913078327046,140.40925538865312 441.2742288089876,139.58003657433184 440.2824546808919,138.84448675045115 439.22335972599564,138.20968966390745 438.1071436076748,137.68175875765957 436.94455609733456,137.265778294931 435.74679354823445,136.96575439497593 434.525391068486,136.78457645196067 433.29211143165554,136.72398930851833 432.05883179482515,136.78457645196065 430.8374293150767,136.96575439497593 429.6396667659766,137.26577829493098 428.47707925563634,137.68175875765954 427.3608631373155,138.20968966390743 426.3017681824193,138.84448675045113 425.30999405432357,139.5800365743318 424.3950920800407,140.4092553886531 423.5658732657194,141.32415736293592 422.8303234418387,142.31593149103168 422.195526355295,143.3750264459279 421.6675954490471,144.49124256424875 421.2516149863186,145.653830074589 420.95159108636346,146.8515926236891 420.7704131433482,148.0729951034376 420.7098259999059,149.30627474026798 420.7704131433482,150.53955437709834 420.95159108636346,151.76095685684683 421.2516149863186,152.95871940594697 421.6675954490471,154.12130691628718 422.195526355295,155.23752303460805 422.8303234418387,156.29661798950428 423.56587326571935,157.2883921176 424.3950920800407,158.20329409188287 425.3099940543235,159.03251290620412 426.3017681824192,159.7680627300848 427.36086313731545,160.4028598166285 428.4770792556363,160.93079072287642 429.63966676597653,161.34677118560495 430.83742931507663,161.64679508556003 432.0588317948251,161.82797302857531 433.2921114316555,161.8885601720176 434.52539106848593,161.82797302857531 435.7467935482344,161.64679508556003 436.9445560973345,161.34677118560498 438.10714360767474,160.93079072287642 439.2233597259956,160.40285981662853 440.28245468089176,159.76806273008486 441.2742288089875,159.03251290620415 442.1891307832704,158.2032940918829 443.0183495975917,157.28839211760007 443.75389942147234,156.29661798950434 444.388696508016,155.23752303460813 444.9166274142639,154.12130691628727 445.3326078769925,152.95871940594705 445.6326317769476,151.76095685684695 445.8138097199629,150.53955437709848 445.8743968634052,149.30627474026807 445.8743968634052,149.30627474026798" stroke="rgb(255, 0, 0)" stroke-width="0.001pt" /><polygon fill="none" points="616.6710468472253,579.0878084322761 616.5011807550502,575.6301046924223 615.9932183818506,572.2057005297562 615.1520516829612,568.8475748283344 613.9857815535206,565.5880681743996 612.5056398124234,562.458571398857 610.7258810337643,559.4892232664116 608.6636452674967,556.7086202227902 606.3387929713826,554.1435409953347 603.773713743927,551.8186886992206 600.9931107003056,549.756452932953 598.0237625678604,547.9766941542938 594.8942657923176,546.4965524131966 591.6347591383828,545.330282283756 588.276633436961,544.4891155848666 584.852229274295,543.9811532116671 581.3945255344411,543.8112871194919 577.9368217945872,543.9811532116671 574.5124176319212,544.4891155848666 571.1542919304993,545.330282283756 567.8947852765646,546.4965524131966 564.7652885010219,547.9766941542937 561.7959403685766,549.7564529329529 559.015337324955,551.8186886992205 556.4502580974996,554.1435409953347 554.1254058013855,556.70862022279 552.0631700351179,559.4892232664116 550.2834112564587,562.4585713988569 548.8032695153615,565.5880681743996 547.636999385921,568.8475748283344 546.7958326870314,572.2057005297562 546.287870313832,575.6301046924222 546.1180042216569,579.0878084322761 546.287870313832,582.54551217213 546.7958326870314,585.969916334796 547.6369993859208,589.3280420362179 548.8032695153615,592.5875486901526 550.2834112564587,595.7170454656954 552.0631700351179,598.6863935981406 554.1254058013855,601.4669966417622 556.4502580974995,604.0320758692177 559.015337324955,606.3569281653317 561.7959403685766,608.4191639315993 564.7652885010218,610.1989227102586 567.8947852765644,611.6790644513557 571.1542919304992,612.8453345807964 574.512417631921,613.6865012796858 577.9368217945871,614.1944636528854 581.394525534441,614.3643297450603 584.8522292742949,614.1944636528854 588.2766334369608,613.6865012796859 591.6347591383827,612.8453345807965 594.8942657923175,611.6790644513558 598.0237625678601,610.1989227102587 600.9931107003054,608.4191639315994 603.7737137439269,606.356928165332 606.3387929713824,604.0320758692178 608.6636452674966,601.4669966417623 610.7258810337642,598.6863935981409 612.5056398124233,595.7170454656956 613.9857815535205,592.587548690153 615.1520516829612,589.3280420362182 615.9932183818506,585.9699163347963 616.5011807550501,582.5455121721304 616.6710468472253,579.0878084322765 616.6710468472253,579.0878084322761" stroke="rgb(255, 0, 0)" stroke-width="0.001pt" /><polygon fill="none" points="228.75474007948378,866.1691941472945 228.69681323586224,864.9900661573386 228.52359057216768,863.8222938145027 228.23674031734475,862.677123404818 227.83902499615553,861.5655835453432 227.3342748245565,860.4983789725547 226.7273508226246,859.4857874498821 226.02409800027687,858.5375607872272 225.23128906662964,857.6628309257048 224.35655920510732,856.8700219920576 223.40833254245243,856.1667691697099 222.39574101977968,855.559845167778 221.3285364469913,855.0550949961789 220.21699658751658,854.6573796749897 219.07182617783178,854.3705294201668 217.90405383499592,854.1973067564722 216.7249258450399,854.1393799128507 215.54579785508386,854.1973067564722 214.37802551224806,854.3705294201668 213.2328551025632,854.6573796749897 212.12131524308847,855.0550949961789 211.0541106703001,855.559845167778 210.04151914762735,856.1667691697098 209.09329248497247,856.8700219920576 208.21856262345014,857.6628309257048 207.42575368980292,858.5375607872271 206.72250086745518,859.4857874498821 206.11557686552328,860.4983789725547 205.61082669392422,861.5655835453432 205.21311137273506,862.6771234048178 204.92626111791208,863.8222938145027 204.75303845421752,864.9900661573386 204.69511161059597,866.1691941472945 204.75303845421752,867.3483221372506 204.92626111791202,868.5160944800864 205.213111372735,869.6612648897712 205.61082669392422,870.772804749246 206.11557686552325,871.8400093220345 206.72250086745515,872.8526008447071 207.42575368980292,873.800827507362 208.21856262345014,874.6755573688843 209.09329248497244,875.4683663025316 210.04151914762733,876.1716191248793 211.05411067030008,876.7785431268112 212.12131524308845,877.2832932984102 213.23285510256318,877.6810086195994 214.37802551224797,877.9678588744224 215.5457978550838,878.1410815381169 216.72492584503985,878.1990083817385 217.90405383499586,878.1410815381169 219.0718261778317,877.9678588744224 220.21699658751652,877.6810086195994 221.32853644699122,877.2832932984102 222.39574101977962,876.7785431268113 223.40833254245234,876.1716191248794 224.3565592051073,875.4683663025316 225.23128906662959,874.6755573688844 226.0240980002768,873.8008275073621 226.72735082262454,872.8526008447072 227.33427482455642,871.8400093220345 227.8390249961555,870.7728047492461 228.2367403173447,869.6612648897714 228.52359057216768,868.5160944800866 228.6968132358622,867.3483221372508 228.75474007948378,866.1691941472948 228.75474007948378,866.1691941472945" stroke="rgb(255, 0, 0)" stroke-width="0.001pt" /><polygon fill="none" points="89.48111448605204,220.29696901502598 89.40973699306785,218.84404676743367 89.19629191839164,217.40511695533374 88.8428348547735,215.99403725941585 88.35276978695532,214.62439714852619 87.73081630943703,213.30938700565414 86.9829641742015,212.06167109733323 86.11641560612858,210.8932656098315 85.13951594163248,209.81542292670895 84.06167325850994,208.83852326221285 82.8932677710082,207.97197469413993 81.64555186268728,207.2241225589044 80.33054171981526,206.60216908138614 78.96090160892561,206.11210401356794 77.54982191300769,205.7586469499498 76.11089210090778,205.54520187527356 74.65796985331545,205.47382438228937 73.20504760572314,205.54520187527356 71.76611779362322,205.75864694994976 70.35503809770529,206.11210401356792 68.98539798681566,206.60216908138608 67.67038784394362,207.22412255890436 66.42267193562272,207.9719746941399 65.25426644812096,208.83852326221282 64.17642376499842,209.81542292670892 63.1995241005023,210.89326560983147 62.33297553242939,212.06167109733323 61.58512339719384,213.30938700565412 60.96316991967555,214.62439714852616 60.47310485185738,215.9940372594158 60.11964778823922,217.40511695533374 59.90620271356301,218.84404676743367 59.83482522057882,220.29696901502598 59.90620271356301,221.7498912626183 60.11964778823922,223.1888210747182 60.473104851857364,224.59990077063614 60.96316991967554,225.96954088152577 61.585123397193826,227.2845510243978 62.33297553242937,228.53226693271873 63.19952410050229,229.70067242022046 64.1764237649984,230.778515103343 65.25426644812094,231.75541476783914 66.42267193562267,232.62196333591203 67.67038784394359,233.36981547114758 68.98539798681561,233.99176894866585 70.35503809770525,234.48183401648404 71.76611779362317,234.8352910801022 73.20504760572307,235.0487361547784 74.65796985331538,235.1201136477626 76.1108921009077,235.0487361547784 77.5498219130076,234.83529108010222 78.96090160892554,234.48183401648407 80.33054171981517,233.99176894866588 81.64555186268721,233.3698154711476 82.89326777100811,232.62196333591208 84.06167325850986,231.7554147678392 85.13951594163241,230.77851510334307 86.11641560612853,229.70067242022057 86.98296417420144,228.5322669327188 87.73081630943699,227.28455102439793 88.35276978695528,225.96954088152586 88.84283485477346,224.59990077063622 89.19629191839162,223.1888210747183 89.40973699306784,221.7498912626184 89.48111448605204,220.29696901502612 89.48111448605204,220.29696901502598" stroke="rgb(255, 0, 0)" stroke-width="0.001pt" /><polygon fill="none" points="541.4804105958369,288.8468249774064 541.3504525765806,286.20146872382594 540.9618300855792,283.58158869706625 540.3182857698638,281.0124157739572 539.4260173129918,278.518692494201 538.2936177479666,276.1244347761897 536.9319927016317,273.8527006305819 535.3542553675234,271.7253680990563 533.5756002186481,269.76292455680954 531.6131566764013,267.9842694079343 529.4858241448757,266.406532073826 527.214089999268,265.0449070274911 524.8198322812566,263.91250746246584 522.3261090015005,263.02023900559385 519.7569360783914,262.37669468987843 517.1370560516317,261.98807219887703 514.4916997980513,261.85811417962066 511.8463435444707,261.98807219887703 509.22646351771107,262.37669468987843 506.657290594602,263.0202390055938 504.16356731484586,263.9125074624658 501.76930959683443,265.0449070274911 499.4975754512268,266.40653207382593 497.37024291970107,267.9842694079342 495.40779937745435,269.7629245568095 493.62914422857904,271.72536809905625 492.05140689447074,273.85270063058186 490.6897818481359,276.1244347761896 489.5573822831106,278.518692494201 488.66511382623867,281.0124157739571 488.0215695105232,283.5815886970662 487.6329470195218,286.2014687238259 487.5029890002655,288.8468249774064 487.6329470195218,291.4921812309869 488.0215695105232,294.1120612577465 488.6651138262386,296.68123418085565 489.5573822831106,299.1749574606118 490.68978184813585,301.56921517862315 492.05140689447074,303.84094932423085 493.62914422857904,305.9682818557565 495.4077993774543,307.9307253980033 497.370242919701,309.70938054687855 499.4975754512267,311.28711788098684 501.7693095968344,312.6487429273217 504.16356731484575,313.781142492347 506.6572905946019,314.6734109492189 509.22646351771095,315.3169552649344 511.84634354447064,315.7055777559358 514.4916997980512,315.8355357751921 517.1370560516316,315.7055777559358 519.7569360783913,315.3169552649344 522.3261090015004,314.673410949219 524.8198322812565,313.78114249234704 527.2140899992678,312.6487429273218 529.4858241448756,311.2871178809869 531.6131566764012,309.7093805468786 533.575600218648,307.93072539800335 535.3542553675231,305.96828185575663 536.9319927016314,303.84094932423096 538.2936177479663,301.5692151786233 539.4260173129917,299.174957460612 540.3182857698637,296.6812341808558 540.9618300855791,294.1120612577468 541.3504525765806,291.4921812309871 541.4804105958369,288.8468249774066 541.4804105958369,288.8468249774064" stroke="rgb(255, 0, 0)" stroke-width="0.001pt" /><polygon fill="none" points="108.86280231836919,129.14871801721912 108.78091958278114,127.4819566439112 108.53605995152235,125.8312470937727 108.13058155669576,124.21248660214107 107.56838937690058,122.6412647174552 106.85489763015372,121.13271316538189 105.99697763201064,119.70136012202576 105.00289162104022,118.36099029965152 103.88221318895083,117.12451219236928 102.64573508166856,116.00383376027986 101.30536525929432,115.00974774930945 99.8740122159382,114.15182775116637 98.3654606638649,113.43833600441951 96.79423877917904,112.87614382462431 95.1754782875474,112.47066542979772 93.52476873740888,112.22580579853894 91.85800736410098,112.14392306295089 90.19124599079306,112.22580579853894 88.54053644065456,112.4706654297977 86.92177594902292,112.8761438246243 85.35055406433706,113.4383360044195 83.84200251226375,114.15182775116634 82.41064946890762,115.00974774930941 81.07027964653336,116.00383376027983 79.83380153925113,117.12451219236925 78.7131231071617,118.36099029965149 77.71903709619127,119.70136012202573 76.8611170980482,121.13271316538186 76.14762535130134,122.64126471745516 75.58543317150615,124.21248660214104 75.17995477667955,125.83124709377267 74.93509514542077,127.48195664391119 74.85321240983272,129.1487180172191 74.93509514542077,130.81547939052703 75.17995477667954,132.46618894066552 75.58543317150614,134.08494943229718 76.14762535130133,135.65617131698303 76.86111709804818,137.16472286905636 77.71903709619126,138.5960759124125 78.71312310716168,139.93644573478673 79.8338015392511,141.17292384206897 81.07027964653334,142.2936022741584 82.41064946890758,143.28768828512878 83.8420025122637,144.14560828327188 85.35055406433699,144.8591000300187 86.92177594902286,145.42129220981394 88.54053644065448,145.82677060464053 90.19124599079299,146.0716302358993 91.8580073641009,146.15351297148734 93.5247687374088,146.0716302358993 95.17547828754732,145.82677060464056 96.79423877917895,145.42129220981394 98.36546066386481,144.8591000300188 99.87401221593812,144.1456082832719 101.30536525929425,143.28768828512887 102.64573508166849,142.29360227415845 103.88221318895074,141.17292384206905 105.00289162104016,139.93644573478682 105.99697763201057,138.59607591241257 106.85489763015367,137.16472286905645 107.56838937690053,135.65617131698315 108.13058155669573,134.0849494322973 108.53605995152233,132.46618894066566 108.78091958278111,130.81547939052717 108.86280231836919,129.14871801721927 108.86280231836919,129.14871801721912" stroke="rgb(255, 0, 0)" stroke-width="0.001pt" /><polygon fill="none" points="134.21195618546858,583.4393061144985 134.0875091707932,580.9061289362475 133.71536661954804,578.3973476389984 133.09911246793538,575.9371231580834 132.2446815803141,573.549148800149 131.16030259321136,571.2564220636618 129.85641866905485,569.0810231604258 128.34558692280962,567.0439023710736 126.64235749009669,565.1646782824099 124.76313340143298,563.461448849697 122.72601261208072,561.9506171034518 120.55061370884488,560.6467331792952 118.25788697235761,559.5623541921925 115.86991261442321,558.7079233045712 113.40968813350815,558.0916691529585 110.90090683625918,557.7195266017134 108.36772965800813,557.595079587038 105.8345524797571,557.7195266017134 103.32577118250809,558.0916691529585 100.86554670159305,558.7079233045712 98.47757234365864,559.5623541921925 96.18484560717137,560.6467331792952 94.00944670393552,561.9506171034517 91.97232591458324,563.4614488496969 90.09310182591953,565.1646782824099 88.3898723932066,567.0439023710736 86.87904064696137,569.0810231604258 85.57515672280485,571.2564220636617 84.49077773570208,573.549148800149 83.63634684808079,575.9371231580834 83.02009269646813,578.3973476389984 82.64795014522296,580.9061289362475 82.52350313054758,583.4393061144985 82.64795014522296,585.9724832927495 83.02009269646813,588.4812645899985 83.63634684808076,590.9414890709136 84.49077773570207,593.329463428848 85.5751567228048,595.6221901653353 86.87904064696133,597.797589068571 88.38987239320656,599.8347098579234 90.09310182591949,601.7139339465871 91.9723259145832,603.4171633793001 94.00944670393544,604.9279951255452 96.1848456071713,606.2318790497018 98.47757234365855,607.3162580368046 100.86554670159295,608.1706889244258 103.325771182508,608.7869430760384 105.83455247975698,609.1590856272836 108.367729658008,609.283532641959 110.90090683625905,609.1590856272836 113.40968813350803,608.7869430760385 115.86991261442309,608.1706889244258 118.25788697235748,607.3162580368046 120.55061370884475,606.2318790497019 122.72601261208061,604.9279951255453 124.76313340143287,603.4171633793002 126.64235749009657,601.7139339465871 128.3455869228095,599.8347098579236 129.85641866905473,597.7975890685714 131.16030259321127,595.6221901653354 132.24468158031402,593.3294634288482 133.09911246793536,590.9414890709138 133.715366619548,588.4812645899987 134.0875091707932,585.9724832927498 134.21195618546858,583.4393061144988 134.21195618546858,583.4393061144985" stroke="rgb(255, 0, 0)" stroke-width="0.001pt" /><polygon fill="none" points="244.482315041811,193.90707236553325 244.3402782530203,191.01584710974709 243.91553577856948,188.15246593367866 243.2121781206753,185.34450476333683 242.2369789980778,182.61900579977973 240.99933011142556,180.00221708793575 239.5111506960648,177.51933973358211 237.78677273328702,175.19428520292004 235.84280292551466,173.049445042084 233.6979627646786,171.10547523431165 231.3729082340166,169.38109727153386 228.89003087966293,167.89291785617309 226.27324216781892,166.65526896952085 223.54774320426185,165.68006984692332 220.73978203392005,164.97671218902917 217.8764008578516,164.55196971457835 214.98517560206542,164.40993292578764 212.09395034627926,164.55196971457835 209.23056917021083,164.97671218902914 206.42260799986903,165.6800698469233 203.69710903631193,166.65526896952082 201.08032032446795,167.89291785617306 198.5974429701143,169.3810972715338 196.27238843945221,171.1054752343116 194.12754827861613,173.04944504208393 192.1835784708438,175.19428520292 190.459200508066,177.51933973358203 188.97102109270523,180.00221708793572 187.733372206053,182.6190057997797 186.75817308345546,185.3445047633368 186.05481542556132,188.1524659336786 185.6300729511105,191.01584710974706 185.4880361623198,193.90707236553322 185.6300729511105,196.7982976213194 186.0548154255613,199.66167879738782 186.75817308345546,202.46963996772968 187.733372206053,205.19513893128672 188.9710210927052,207.81192764313076 190.459200508066,210.29480499748442 192.18357847084377,212.61985952814643 194.1275482786161,214.76469968898252 196.27238843945216,216.70866949675485 198.59744297011423,218.43304745953262 201.08032032446783,219.9212268748934 203.69710903631184,221.15887576154563 206.4226079998689,222.13407488414316 209.2305691702107,222.8374325420373 212.09395034627914,223.26217501648816 214.98517560206528,223.40421180527886 217.87640085785148,223.26217501648816 220.73978203391988,222.83743254203733 223.5477432042617,222.1340748841432 226.27324216781878,221.15887576154572 228.8900308796628,219.92122687489348 231.37290823401642,218.43304745953273 233.69796276467846,216.70866949675496 235.84280292551455,214.7646996889826 237.78677273328688,212.61985952814658 239.51115069606468,210.29480499748456 240.99933011142548,207.81192764313093 242.23697899807772,205.19513893128695 243.21217812067525,202.46963996772985 243.91553577856942,199.66167879738805 244.34027825302024,196.79829762131965 244.482315041811,193.9070723655335 244.482315041811,193.90707236553325" stroke="rgb(255, 0, 0)" stroke-width="0.001pt" /></svg>