<?xml version="1.0" encoding="utf-8" standalone="no"?>
<!DOCTYPE svg PUBLIC "-//W3C//DTD SVG 1.1//EN"
  "http://www.w3.org/Graphics/SVG/1.1/DTD/svg11.dtd">
<!-- Created with matplotlib (https://matplotlib.org/) -->
<svg height="576pt" version="1.1" viewBox="0 0 432 576" width="432pt" xmlns="http://www.w3.org/2000/svg" xmlns:xlink="http://www.w3.org/1999/xlink">
 <defs>
  <style type="text/css">
*{stroke-linecap:butt;stroke-linejoin:round;}
  </style>
 </defs>
 <g id="figure_1">
  <g id="axes_1">
   <g id="LineCollection_1">
    <path clip-path="url(#p11d6899fe4)" d="M 273.6 288 
L 273.32264 293.645787 
L 272.493232 299.237203 
L 271.119763 304.720397 
L 269.215461 310.042566 
L 266.798665 315.152452 
L 263.89265 320.000845 
L 260.525402 324.541053 
L 256.729351 328.729351 
L 252.541053 332.525402 
L 248.000845 335.89265 
L 243.152452 338.798665 
L 238.042566 341.215461 
L 232.720397 343.119763 
L 227.237203 344.493232 
L 221.645787 345.32264 
L 216 345.6 
L 210.354213 345.32264 
L 204.762797 344.493232 
L 199.279603 343.119763 
L 193.957434 341.215461 
L 188.847548 338.798665 
L 183.999155 335.89265 
L 179.458947 332.525402 
L 175.270649 328.729351 
L 171.474598 324.541053 
L 168.10735 320.000845 
L 165.201335 315.152452 
L 162.784539 310.042566 
L 160.880237 304.720397 
L 159.506768 299.237203 
L 158.67736 293.645787 
L 158.4 288 
L 158.67736 282.354213 
L 159.506768 276.762797 
L 160.880237 271.279603 
L 162.784539 265.957434 
L 165.201335 260.847548 
L 168.10735 255.999155 
L 171.474598 251.458947 
L 175.270649 247.270649 
L 179.458947 243.474598 
L 183.999155 240.10735 
L 188.847548 237.201335 
L 193.957434 234.784539 
L 199.279603 232.880237 
L 204.762797 231.506768 
L 210.354213 230.67736 
L 216 230.4 
L 221.645787 230.67736 
L 227.237203 231.506768 
L 232.720397 232.880237 
L 238.042566 234.784539 
L 243.152452 237.201335 
L 248.000845 240.10735 
L 252.541053 243.474598 
L 256.729351 247.270649 
L 260.525402 251.458947 
L 263.89265 255.999155 
L 266.798665 260.847548 
L 269.215461 265.957434 
L 271.119763 271.279603 
L 272.493232 276.762797 
L 273.32264 282.354213 
L 273.6 288 
L 273.6 288 
" style="fill:none;stroke:#000000;stroke-opacity:0.8;stroke-width:1.5;"/>
    <path clip-path="url(#p11d6899fe4)" d="M 285.726316 288 
L 285.390565 294.834374 
L 284.386544 301.602929 
L 282.723924 308.240481 
L 280.418716 314.683106 
L 277.493121 320.868758 
L 273.975313 326.737866 
L 269.899171 332.233906 
L 265.303951 337.303951 
L 260.233906 341.899171 
L 254.737866 345.975313 
L 248.868758 349.493121 
L 242.683106 352.418716 
L 236.240481 354.723924 
L 229.602929 356.386544 
L 222.834374 357.390565 
L 216 357.726316 
L 209.165626 357.390565 
L 202.397071 356.386544 
L 195.759519 354.723924 
L 189.316894 352.418716 
L 183.131242 349.493121 
L 177.262134 345.975313 
L 171.766094 341.899171 
L 166.696049 337.303951 
L 162.100829 332.233906 
L 158.024687 326.737866 
L 154.506879 320.868758 
L 151.581284 314.683106 
L 149.276076 308.240481 
L 147.613456 301.602929 
L 146.609435 294.834374 
L 146.273684 288 
L 146.609435 281.165626 
L 147.613456 274.397071 
L 149.276076 267.759519 
L 151.581284 261.316894 
L 154.506879 255.131242 
L 158.024687 249.262134 
L 162.100829 243.766094 
L 166.696049 238.696049 
L 171.766094 234.100829 
L 177.262134 230.024687 
L 183.131242 226.506879 
L 189.316894 223.581284 
L 195.759519 221.276076 
L 202.397071 219.613456 
L 209.165626 218.609435 
L 216 218.273684 
L 222.834374 218.609435 
L 229.602929 219.613456 
L 236.240481 221.276076 
L 242.683106 223.581284 
L 248.868758 226.506879 
L 254.737866 230.024687 
L 260.233906 234.100829 
L 265.303951 238.696049 
L 269.899171 243.766094 
L 273.975313 249.262134 
L 277.493121 255.131242 
L 280.418716 261.316894 
L 282.723924 267.759519 
L 284.386544 274.397071 
L 285.390565 281.165626 
L 285.726316 288 
L 285.726316 288 
" style="fill:none;stroke:#000000;stroke-opacity:0.8;stroke-width:1.5;"/>
    <path clip-path="url(#p11d6899fe4)" d="M 288 326.898016 
L 284.057976 333.474886 
L 279.27294 339.92676 
L 273.878551 345.878551 
L 267.92676 351.27294 
L 261.474886 356.057976 
L 254.585063 360.187576 
L 247.323646 363.621971 
L 239.760565 366.328085 
L 231.968656 368.279856 
L 224.022961 369.458489 
L 216 369.852632 
L 207.977039 369.458489 
L 200.031344 368.279856 
L 192.239435 366.328085 
L 184.676354 363.621971 
L 177.414937 360.187576 
L 170.525114 356.057976 
L 164.07324 351.27294 
L 158.121449 345.878551 
L 152.72706 339.92676 
L 147.942024 333.474886 
L 144 326.898016 
" style="fill:none;stroke:#000000;stroke-opacity:0.8;stroke-width:1.5;"/>
    <path clip-path="url(#p11d6899fe4)" d="M 144 249.101984 
L 147.942024 242.525114 
L 152.72706 236.07324 
L 158.121449 230.121449 
L 164.07324 224.72706 
L 170.525114 219.942024 
L 177.414937 215.812424 
L 184.676354 212.378029 
L 192.239435 209.671915 
L 200.031344 207.720144 
L 207.977039 206.541511 
L 216 206.147368 
L 224.022961 206.541511 
L 231.968656 207.720144 
L 239.760565 209.671915 
L 247.323646 212.378029 
L 254.585063 215.812424 
L 261.474886 219.942024 
L 267.92676 224.72706 
L 273.878551 230.121449 
L 279.27294 236.07324 
L 284.057976 242.525114 
L 288 249.101984 
" style="fill:none;stroke:#000000;stroke-opacity:0.8;stroke-width:1.5;"/>
    <path clip-path="url(#p11d6899fe4)" d="M 288 348.333146 
L 282.453151 354.453151 
L 275.619613 360.646709 
L 268.211906 366.140639 
L 260.301369 370.882032 
L 251.964186 374.825226 
L 243.280648 377.932245 
L 234.334383 380.173168 
L 225.211548 381.526413 
L 216 381.978947 
L 206.788452 381.526413 
L 197.665617 380.173168 
L 188.719352 377.932245 
L 180.035814 374.825226 
L 171.698631 370.882032 
L 163.788094 366.140639 
L 156.380387 360.646709 
L 149.546849 354.453151 
L 144 348.333146 
" style="fill:none;stroke:#000000;stroke-opacity:0.8;stroke-width:1.5;"/>
    <path clip-path="url(#p11d6899fe4)" d="M 144 227.666854 
L 149.546849 221.546849 
L 156.380387 215.353291 
L 163.788094 209.859361 
L 171.698631 205.117968 
L 180.035814 201.174774 
L 188.719352 198.067755 
L 197.665617 195.826832 
L 206.788452 194.473587 
L 216 194.021053 
L 225.211548 194.473587 
L 234.334383 195.826832 
L 243.280648 198.067755 
L 251.964186 201.174774 
L 260.301369 205.117968 
L 268.211906 209.859361 
L 275.619613 215.353291 
L 282.453151 221.546849 
L 288 227.666854 
" style="fill:none;stroke:#000000;stroke-opacity:0.8;stroke-width:1.5;"/>
    <path clip-path="url(#p11d6899fe4)" d="M 288 365.771945 
L 283.312466 370.020478 
L 274.948926 376.223302 
L 266.017675 381.576488 
L 256.604726 386.028481 
L 246.800732 389.536406 
L 236.70011 392.06648 
L 226.400134 393.594337 
L 216 394.105263 
L 205.599866 393.594337 
L 195.29989 392.06648 
L 185.199268 389.536406 
L 175.395274 386.028481 
L 165.982325 381.576488 
L 157.051074 376.223302 
L 148.687534 370.020478 
L 144 365.771945 
" style="fill:none;stroke:#000000;stroke-opacity:0.8;stroke-width:1.5;"/>
    <path clip-path="url(#p11d6899fe4)" d="M 144 210.228055 
L 148.687534 205.979522 
L 157.051074 199.776698 
L 165.982325 194.423512 
L 175.395274 189.971519 
L 185.199268 186.463594 
L 195.29989 183.93352 
L 205.599866 182.405663 
L 216 181.894737 
L 226.400134 182.405663 
L 236.70011 183.93352 
L 246.800732 186.463594 
L 256.604726 189.971519 
L 266.017675 194.423512 
L 274.948926 199.776698 
L 283.312466 205.979522 
L 288 210.228055 
" style="fill:none;stroke:#000000;stroke-opacity:0.8;stroke-width:1.5;"/>
    <path clip-path="url(#p11d6899fe4)" d="M 288 381.623143 
L 281.685946 386.305965 
L 271.733981 392.270944 
L 261.245266 397.231736 
L 250.320816 401.140567 
L 239.065837 403.959792 
L 227.588721 405.662262 
L 216 406.231579 
L 204.411279 405.662262 
L 192.934163 403.959792 
L 181.679184 401.140567 
L 170.754734 397.231736 
L 160.266019 392.270944 
L 150.314054 386.305965 
L 144 381.623143 
" style="fill:none;stroke:#000000;stroke-opacity:0.8;stroke-width:1.5;"/>
    <path clip-path="url(#p11d6899fe4)" d="M 144 194.376857 
L 150.314054 189.694035 
L 160.266019 183.729056 
L 170.754734 178.768264 
L 181.679184 174.859433 
L 192.934163 172.040208 
L 204.411279 170.337738 
L 216 169.768421 
L 227.588721 170.337738 
L 239.065837 172.040208 
L 250.320816 174.859433 
L 261.245266 178.768264 
L 271.733981 183.729056 
L 281.685946 189.694035 
L 288 194.376857 
" style="fill:none;stroke:#000000;stroke-opacity:0.8;stroke-width:1.5;"/>
    <path clip-path="url(#p11d6899fe4)" d="M 288 396.642144 
L 277.450286 402.965399 
L 265.885807 408.434991 
L 253.840899 412.744728 
L 241.431564 415.853104 
L 228.777308 417.730186 
L 216 418.357895 
L 203.222692 417.730186 
L 190.568436 415.853104 
L 178.159101 412.744728 
L 166.114193 408.434991 
L 154.549714 402.965399 
L 144 396.642144 
" style="fill:none;stroke:#000000;stroke-opacity:0.8;stroke-width:1.5;"/>
    <path clip-path="url(#p11d6899fe4)" d="M 144 179.357856 
L 154.549714 173.034601 
L 166.114193 167.565009 
L 178.159101 163.255272 
L 190.568436 160.146896 
L 203.222692 158.269814 
L 216 157.642105 
L 228.777308 158.269814 
L 241.431564 160.146896 
L 253.840899 163.255272 
L 265.885807 167.565009 
L 277.450286 173.034601 
L 288 179.357856 
" style="fill:none;stroke:#000000;stroke-opacity:0.8;stroke-width:1.5;"/>
    <path clip-path="url(#p11d6899fe4)" d="M 288 410.762822 
L 283.166592 413.659855 
L 270.526347 419.638246 
L 257.360983 424.348888 
L 243.797291 427.746416 
L 229.965895 429.79811 
L 216 430.484211 
L 202.034105 429.79811 
L 188.202709 427.746416 
L 174.639017 424.348888 
L 161.473653 419.638246 
L 148.833408 413.659855 
L 144 410.762822 
" style="fill:none;stroke:#000000;stroke-opacity:0.8;stroke-width:1.5;"/>
    <path clip-path="url(#p11d6899fe4)" d="M 144 165.237178 
L 148.833408 162.340145 
L 161.473653 156.361754 
L 174.639017 151.651112 
L 188.202709 148.253584 
L 202.034105 146.20189 
L 216 145.515789 
L 229.965895 146.20189 
L 243.797291 148.253584 
L 257.360983 151.651112 
L 270.526347 156.361754 
L 283.166592 162.340145 
L 288 165.237178 
" style="fill:none;stroke:#000000;stroke-opacity:0.8;stroke-width:1.5;"/>
    <path clip-path="url(#p11d6899fe4)" d="M 288 424.77189 
L 275.166887 430.841501 
L 260.881067 435.953049 
L 246.163017 439.639728 
L 231.154482 441.866034 
L 216 442.610526 
L 200.845518 441.866034 
L 185.836983 439.639728 
L 171.118933 435.953049 
L 156.833113 430.841501 
L 144 424.77189 
" style="fill:none;stroke:#000000;stroke-opacity:0.8;stroke-width:1.5;"/>
    <path clip-path="url(#p11d6899fe4)" d="M 144 151.22811 
L 156.833113 145.158499 
L 171.118933 140.046951 
L 185.836983 136.360272 
L 200.845518 134.133966 
L 216 133.389474 
L 231.154482 134.133966 
L 246.163017 136.360272 
L 260.881067 140.046951 
L 275.166887 145.158499 
L 288 151.22811 
" style="fill:none;stroke:#000000;stroke-opacity:0.8;stroke-width:1.5;"/>
    <path clip-path="url(#p11d6899fe4)" d="M 288 438.169957 
L 279.807427 442.044756 
L 264.40115 447.55721 
L 248.528744 451.53304 
L 232.343068 453.933959 
L 216 454.736842 
L 199.656932 453.933959 
L 183.471256 451.53304 
L 167.59885 447.55721 
L 152.192573 442.044756 
L 144 438.169957 
" style="fill:none;stroke:#000000;stroke-opacity:0.8;stroke-width:1.5;"/>
    <path clip-path="url(#p11d6899fe4)" d="M 144 137.830043 
L 152.192573 133.955244 
L 167.59885 128.44279 
L 183.471256 124.46696 
L 199.656932 122.066041 
L 216 121.263158 
L 232.343068 122.066041 
L 248.528744 124.46696 
L 264.40115 128.44279 
L 279.807427 133.955244 
L 288 137.830043 
" style="fill:none;stroke:#000000;stroke-opacity:0.8;stroke-width:1.5;"/>
    <path clip-path="url(#p11d6899fe4)" d="M 288 451.568024 
L 284.447967 453.248011 
L 267.921234 459.16137 
L 250.894471 463.426352 
L 233.531655 466.001883 
L 216 466.863158 
L 198.468345 466.001883 
L 181.105529 463.426352 
L 164.078766 459.16137 
L 147.552033 453.248011 
L 144 451.568024 
" style="fill:none;stroke:#000000;stroke-opacity:0.8;stroke-width:1.5;"/>
    <path clip-path="url(#p11d6899fe4)" d="M 144 124.431976 
L 147.552033 122.751989 
L 164.078766 116.83863 
L 181.105529 112.573648 
L 198.468345 109.998117 
L 216 109.136842 
L 233.531655 109.998117 
L 250.894471 112.573648 
L 267.921234 116.83863 
L 284.447967 122.751989 
L 288 124.431976 
" style="fill:none;stroke:#000000;stroke-opacity:0.8;stroke-width:1.5;"/>
    <path clip-path="url(#p11d6899fe4)" d="M 288 464.84074 
L 271.441318 470.765531 
L 253.260198 475.319665 
L 234.720242 478.069807 
L 216 478.989474 
L 197.279758 478.069807 
L 178.739802 475.319665 
L 160.558682 470.765531 
L 144 464.84074 
" style="fill:none;stroke:#000000;stroke-opacity:0.8;stroke-width:1.5;"/>
    <path clip-path="url(#p11d6899fe4)" d="M 144 111.15926 
L 160.558682 105.234469 
L 178.739802 100.680335 
L 197.279758 97.930193 
L 216 97.010526 
L 234.720242 97.930193 
L 253.260198 100.680335 
L 271.441318 105.234469 
L 288 111.15926 
" style="fill:none;stroke:#000000;stroke-opacity:0.8;stroke-width:1.5;"/>
    <path clip-path="url(#p11d6899fe4)" d="M 288 477.704407 
L 274.961401 482.369692 
L 255.625925 487.212977 
L 235.908829 490.137731 
L 216 491.115789 
L 196.091171 490.137731 
L 176.374075 487.212977 
L 157.038599 482.369692 
L 144 477.704407 
" style="fill:none;stroke:#000000;stroke-opacity:0.8;stroke-width:1.5;"/>
    <path clip-path="url(#p11d6899fe4)" d="M 144 98.295593 
L 157.038599 93.630308 
L 176.374075 88.787023 
L 196.091171 85.862269 
L 216 84.884211 
L 235.908829 85.862269 
L 255.625925 88.787023 
L 274.961401 93.630308 
L 288 98.295593 
" style="fill:none;stroke:#000000;stroke-opacity:0.8;stroke-width:1.5;"/>
    <path clip-path="url(#p11d6899fe4)" d="M 288 490.568073 
L 278.481485 493.973852 
L 257.991652 499.106289 
L 237.097416 502.205656 
L 216 503.242105 
L 194.902584 502.205656 
L 174.008348 499.106289 
L 153.518515 493.973852 
L 144 490.568073 
" style="fill:none;stroke:#000000;stroke-opacity:0.8;stroke-width:1.5;"/>
    <path clip-path="url(#p11d6899fe4)" d="M 144 85.431927 
L 153.518515 82.026148 
L 174.008348 76.893711 
L 194.902584 73.794344 
L 216 72.757895 
L 237.097416 73.794344 
L 257.991652 76.893711 
L 278.481485 82.026148 
L 288 85.431927 
" style="fill:none;stroke:#000000;stroke-opacity:0.8;stroke-width:1.5;"/>
    <path clip-path="url(#p11d6899fe4)" d="M 288 503.43174 
L 282.001569 505.578013 
L 260.357378 510.999601 
L 238.286002 514.27358 
L 216 515.368421 
L 193.713998 514.27358 
L 171.642622 510.999601 
L 149.998431 505.578013 
L 144 503.43174 
" style="fill:none;stroke:#000000;stroke-opacity:0.8;stroke-width:1.5;"/>
    <path clip-path="url(#p11d6899fe4)" d="M 144 72.56826 
L 149.998431 70.421987 
L 171.642622 65.000399 
L 193.713998 61.72642 
L 216 60.631579 
L 238.286002 61.72642 
L 260.357378 65.000399 
L 282.001569 70.421987 
L 288 72.56826 
" style="fill:none;stroke:#000000;stroke-opacity:0.8;stroke-width:1.5;"/>
    <path clip-path="url(#p11d6899fe4)" d="M 288 516.295407 
L 285.521652 517.182174 
L 262.723105 522.892913 
L 239.474589 526.341504 
L 216 527.494737 
L 192.525411 526.341504 
L 169.276895 522.892913 
L 146.478348 517.182174 
L 144 516.295407 
" style="fill:none;stroke:#000000;stroke-opacity:0.8;stroke-width:1.5;"/>
    <path clip-path="url(#p11d6899fe4)" d="M 144 59.704593 
L 146.478348 58.817826 
L 169.276895 53.107087 
L 192.525411 49.658496 
L 216 48.505263 
L 239.474589 49.658496 
L 262.723105 53.107087 
L 285.521652 58.817826 
L 288 59.704593 
" style="fill:none;stroke:#000000;stroke-opacity:0.8;stroke-width:1.5;"/>
    <path clip-path="url(#p11d6899fe4)" d="M 288 529.047276 
L 265.088832 534.786225 
L 240.663176 538.409428 
L 216 539.621053 
L 191.336824 538.409428 
L 166.911168 534.786225 
L 144 529.047276 
" style="fill:none;stroke:#000000;stroke-opacity:0.8;stroke-width:1.5;"/>
    <path clip-path="url(#p11d6899fe4)" d="M 144 46.952724 
L 166.911168 41.213775 
L 191.336824 37.590572 
L 216 36.378947 
L 240.663176 37.590572 
L 265.088832 41.213775 
L 288 46.952724 
" style="fill:none;stroke:#000000;stroke-opacity:0.8;stroke-width:1.5;"/>
    <path clip-path="url(#p11d6899fe4)" d="M 288 541.533172 
L 267.454559 546.679537 
L 241.851763 550.477353 
L 216 551.747368 
L 190.148237 550.477353 
L 164.545441 546.679537 
L 144 541.533172 
" style="fill:none;stroke:#000000;stroke-opacity:0.8;stroke-width:1.5;"/>
    <path clip-path="url(#p11d6899fe4)" d="M 144 34.466828 
L 164.545441 29.320463 
L 190.148237 25.522647 
L 216 24.252632 
L 241.851763 25.522647 
L 267.454559 29.320463 
L 288 34.466828 
" style="fill:none;stroke:#000000;stroke-opacity:0.8;stroke-width:1.5;"/>
    <path clip-path="url(#p11d6899fe4)" d="M 288 554.019067 
L 269.820286 558.572849 
L 243.04035 562.545277 
L 216 563.873684 
L 188.95965 562.545277 
L 162.179714 558.572849 
L 144 554.019067 
" style="fill:none;stroke:#000000;stroke-opacity:0.8;stroke-width:1.5;"/>
    <path clip-path="url(#p11d6899fe4)" d="M 144 21.980933 
L 162.179714 17.427151 
L 188.95965 13.454723 
L 216 12.126316 
L 243.04035 13.454723 
L 269.820286 17.427151 
L 288 21.980933 
" style="fill:none;stroke:#000000;stroke-opacity:0.8;stroke-width:1.5;"/>
    <path clip-path="url(#p11d6899fe4)" d="M 288 566.504963 
L 272.186013 570.466161 
L 244.228936 574.613201 
L 216 576 
" style="fill:none;stroke:#000000;stroke-opacity:0.8;stroke-width:1.5;"/>
    <path clip-path="url(#p11d6899fe4)" d="M 216 576 
L 187.771064 574.613201 
L 159.813987 570.466161 
L 144 566.504963 
" style="fill:none;stroke:#000000;stroke-opacity:0.8;stroke-width:1.5;"/>
    <path clip-path="url(#p11d6899fe4)" d="M 144 9.495037 
L 159.813987 5.533839 
L 187.771064 1.386799 
L 216 0 
" style="fill:none;stroke:#000000;stroke-opacity:0.8;stroke-width:1.5;"/>
    <path clip-path="url(#p11d6899fe4)" d="M 216 0 
L 244.228936 1.386799 
L 272.186013 5.533839 
L 288 9.495037 
" style="fill:none;stroke:#000000;stroke-opacity:0.8;stroke-width:1.5;"/>
    <path clip-path="url(#p11d6899fe4)" d="M 144 576 
L 144 0 
" style="fill:none;stroke:#000000;stroke-opacity:0.8;stroke-width:1.5;"/>
    <path clip-path="url(#p11d6899fe4)" d="M 288 576 
L 288 0 
" style="fill:none;stroke:#000000;stroke-opacity:0.8;stroke-width:1.5;"/>
   </g>
  </g>
 </g>
 <defs>
  <clipPath id="p11d6899fe4">
   <rect height="576" width="432" x="0" y="0"/>
  </clipPath>
 </defs>
</svg>
