<?xml version="1.0" encoding="utf-8" standalone="no"?>
<!DOCTYPE svg PUBLIC "-//W3C//DTD SVG 1.1//EN"
  "http://www.w3.org/Graphics/SVG/1.1/DTD/svg11.dtd">
<!-- Created with matplotlib (https://matplotlib.org/) -->
<svg height="504pt" version="1.1" viewBox="0 0 360 504" width="360pt" xmlns="http://www.w3.org/2000/svg" xmlns:xlink="http://www.w3.org/1999/xlink">
 <metadata>
  <rdf:RDF xmlns:cc="http://creativecommons.org/ns#" xmlns:dc="http://purl.org/dc/elements/1.1/" xmlns:rdf="http://www.w3.org/1999/02/22-rdf-syntax-ns#">
   <cc:Work>
    <dc:type rdf:resource="http://purl.org/dc/dcmitype/StillImage"/>
    <dc:date>2020-11-12T15:26:20.445115</dc:date>
    <dc:format>image/svg+xml</dc:format>
    <dc:creator>
     <cc:Agent>
      <dc:title>Matplotlib v3.3.2, https://matplotlib.org/</dc:title>
     </cc:Agent>
    </dc:creator>
   </cc:Work>
  </rdf:RDF>
 </metadata>
 <defs>
  <style type="text/css">*{stroke-linecap:butt;stroke-linejoin:round;}</style>
 </defs>
 <g id="figure_1">
  <g id="axes_1">
   <g id="LineCollection_1">
    <path clip-path="url(#p4d6ab86a71)" d="M 180 360 
" style="fill:none;stroke:#000000;stroke-opacity:0.7;stroke-width:1.417324;"/>
    <path clip-path="url(#p4d6ab86a71)" d="M 244.730949 338.291183 
L 115.269051 338.291183 
" style="fill:none;stroke:#000000;stroke-opacity:0.7;stroke-width:1.417324;"/>
    <path clip-path="url(#p4d6ab86a71)" d="M 104.660291 329.299097 
L 255.339709 329.299097 
" style="fill:none;stroke:#000000;stroke-opacity:0.7;stroke-width:1.417324;"/>
    <path clip-path="url(#p4d6ab86a71)" d="M 261.77689 322.399226 
L 98.22311 322.399226 
" style="fill:none;stroke:#000000;stroke-opacity:0.7;stroke-width:1.417324;"/>
    <path clip-path="url(#p4d6ab86a71)" d="M 93.598621 316.582366 
L 266.401379 316.582366 
" style="fill:none;stroke:#000000;stroke-opacity:0.7;stroke-width:1.417324;"/>
    <path clip-path="url(#p4d6ab86a71)" d="M 270.124764 311.45761 
L 89.875236 311.45761 
" style="fill:none;stroke:#000000;stroke-opacity:0.7;stroke-width:1.417324;"/>
    <path clip-path="url(#p4d6ab86a71)" d="M 87.098242 306.824476 
L 272.901758 306.824476 
" style="fill:none;stroke:#000000;stroke-opacity:0.7;stroke-width:1.417324;"/>
    <path clip-path="url(#p4d6ab86a71)" d="M 275.411605 302.563869 
L 84.588395 302.563869 
" style="fill:none;stroke:#000000;stroke-opacity:0.7;stroke-width:1.417324;"/>
    <path clip-path="url(#p4d6ab86a71)" d="M 82.71277 298.598194 
L 277.28723 298.598194 
" style="fill:none;stroke:#000000;stroke-opacity:0.7;stroke-width:1.417324;"/>
    <path clip-path="url(#p4d6ab86a71)" d="M 279.048855 294.87355 
L 80.951145 294.87355 
" style="fill:none;stroke:#000000;stroke-opacity:0.7;stroke-width:1.417324;"/>
    <path clip-path="url(#p4d6ab86a71)" d="M 79.512871 291.350694 
L 280.487129 291.350694 
" style="fill:none;stroke:#000000;stroke-opacity:0.7;stroke-width:1.417324;"/>
    <path clip-path="url(#p4d6ab86a71)" d="M 281.686026 288 
L 78.313974 288 
" style="fill:none;stroke:#000000;stroke-opacity:0.7;stroke-width:1.417324;"/>
    <path clip-path="url(#p4d6ab86a71)" d="M 77.168442 284.798453 
L 282.831558 284.798453 
" style="fill:none;stroke:#000000;stroke-opacity:0.7;stroke-width:1.417324;"/>
    <path clip-path="url(#p4d6ab86a71)" d="M 283.756096 281.727748 
L 76.243904 281.727748 
" style="fill:none;stroke:#000000;stroke-opacity:0.7;stroke-width:1.417324;"/>
    <path clip-path="url(#p4d6ab86a71)" d="M 75.50379 278.773045 
L 284.49621 278.773045 
" style="fill:none;stroke:#000000;stroke-opacity:0.7;stroke-width:1.417324;"/>
    <path clip-path="url(#p4d6ab86a71)" d="M 285.210331 275.922114 
L 74.789669 275.922114 
" style="fill:none;stroke:#000000;stroke-opacity:0.7;stroke-width:1.417324;"/>
    <path clip-path="url(#p4d6ab86a71)" d="M 74.09898 273.164733 
L 285.90102 273.164733 
" style="fill:none;stroke:#000000;stroke-opacity:0.7;stroke-width:1.417324;"/>
    <path clip-path="url(#p4d6ab86a71)" d="M 286.307146 270.492255 
L 73.692854 270.492255 
" style="fill:none;stroke:#000000;stroke-opacity:0.7;stroke-width:1.417324;"/>
    <path clip-path="url(#p4d6ab86a71)" d="M 73.307927 267.897291 
L 286.692073 267.897291 
" style="fill:none;stroke:#000000;stroke-opacity:0.7;stroke-width:1.417324;"/>
    <path clip-path="url(#p4d6ab86a71)" d="M 287.066448 265.373461 
L 72.933552 265.373461 
" style="fill:none;stroke:#000000;stroke-opacity:0.7;stroke-width:1.417324;"/>
    <path clip-path="url(#p4d6ab86a71)" d="M 72.568907 262.91522 
L 287.431093 262.91522 
" style="fill:none;stroke:#000000;stroke-opacity:0.7;stroke-width:1.417324;"/>
    <path clip-path="url(#p4d6ab86a71)" d="M 287.581552 260.517704 
L 72.418448 260.517704 
" style="fill:none;stroke:#000000;stroke-opacity:0.7;stroke-width:1.417324;"/>
    <path clip-path="url(#p4d6ab86a71)" d="M 72.303438 258.176624 
L 287.696562 258.176624 
" style="fill:none;stroke:#000000;stroke-opacity:0.7;stroke-width:1.417324;"/>
    <path clip-path="url(#p4d6ab86a71)" d="M 287.808986 255.888172 
L 72.191014 255.888172 
" style="fill:none;stroke:#000000;stroke-opacity:0.7;stroke-width:1.417324;"/>
    <path clip-path="url(#p4d6ab86a71)" d="M 72.081008 253.648952 
L 287.918992 253.648952 
" style="fill:none;stroke:#000000;stroke-opacity:0.7;stroke-width:1.417324;"/>
    <path clip-path="url(#p4d6ab86a71)" d="M 287.973271 251.455916 
L 72.026729 251.455916 
" style="fill:none;stroke:#000000;stroke-opacity:0.7;stroke-width:1.417324;"/>
    <path clip-path="url(#p4d6ab86a71)" d="M 72.132332 249.306319 
L 287.867668 249.306319 
" style="fill:none;stroke:#000000;stroke-opacity:0.7;stroke-width:1.417324;"/>
    <path clip-path="url(#p4d6ab86a71)" d="M 287.764077 247.197679 
L 72.235923 247.197679 
" style="fill:none;stroke:#000000;stroke-opacity:0.7;stroke-width:1.417324;"/>
    <path clip-path="url(#p4d6ab86a71)" d="M 72.337613 245.127739 
L 287.662387 245.127739 
" style="fill:none;stroke:#000000;stroke-opacity:0.7;stroke-width:1.417324;"/>
    <path clip-path="url(#p4d6ab86a71)" d="M 287.562498 243.094444 
L 72.437502 243.094444 
" style="fill:none;stroke:#000000;stroke-opacity:0.7;stroke-width:1.417324;"/>
    <path clip-path="url(#p4d6ab86a71)" d="M 72.567255 241.095913 
L 287.432745 241.095913 
" style="fill:none;stroke:#000000;stroke-opacity:0.7;stroke-width:1.417324;"/>
    <path clip-path="url(#p4d6ab86a71)" d="M 287.141192 239.130423 
L 72.858808 239.130423 
" style="fill:none;stroke:#000000;stroke-opacity:0.7;stroke-width:1.417324;"/>
    <path clip-path="url(#p4d6ab86a71)" d="M 73.145695 237.196387 
L 286.854305 237.196387 
" style="fill:none;stroke:#000000;stroke-opacity:0.7;stroke-width:1.417324;"/>
    <path clip-path="url(#p4d6ab86a71)" d="M 286.571866 235.292342 
L 73.428134 235.292342 
" style="fill:none;stroke:#000000;stroke-opacity:0.7;stroke-width:1.417324;"/>
    <path clip-path="url(#p4d6ab86a71)" d="M 73.706324 233.416933 
L 286.293676 233.416933 
" style="fill:none;stroke:#000000;stroke-opacity:0.7;stroke-width:1.417324;"/>
    <path clip-path="url(#p4d6ab86a71)" d="M 286.019547 231.568908 
L 73.980453 231.568908 
" style="fill:none;stroke:#000000;stroke-opacity:0.7;stroke-width:1.417324;"/>
    <path clip-path="url(#p4d6ab86a71)" d="M 74.371552 229.747099 
L 285.628448 229.747099 
" style="fill:none;stroke:#000000;stroke-opacity:0.7;stroke-width:1.417324;"/>
    <path clip-path="url(#p4d6ab86a71)" d="M 285.178404 227.950423 
L 74.821596 227.950423 
" style="fill:none;stroke:#000000;stroke-opacity:0.7;stroke-width:1.417324;"/>
    <path clip-path="url(#p4d6ab86a71)" d="M 75.265599 226.177866 
L 284.734401 226.177866 
" style="fill:none;stroke:#000000;stroke-opacity:0.7;stroke-width:1.417324;"/>
    <path clip-path="url(#p4d6ab86a71)" d="M 284.296203 224.428482 
L 75.703797 224.428482 
" style="fill:none;stroke:#000000;stroke-opacity:0.7;stroke-width:1.417324;"/>
    <path clip-path="url(#p4d6ab86a71)" d="M 76.136411 222.701387 
L 283.863589 222.701387 
" style="fill:none;stroke:#000000;stroke-opacity:0.7;stroke-width:1.417324;"/>
    <path clip-path="url(#p4d6ab86a71)" d="M 283.436349 220.995749 
L 76.563651 220.995749 
" style="fill:none;stroke:#000000;stroke-opacity:0.7;stroke-width:1.417324;"/>
    <path clip-path="url(#p4d6ab86a71)" d="M 77.129355 219.310787 
L 282.870645 219.310787 
" style="fill:none;stroke:#000000;stroke-opacity:0.7;stroke-width:1.417324;"/>
    <path clip-path="url(#p4d6ab86a71)" d="M 282.274892 217.645768 
L 77.725108 217.645768 
" style="fill:none;stroke:#000000;stroke-opacity:0.7;stroke-width:1.417324;"/>
    <path clip-path="url(#p4d6ab86a71)" d="M 78.313974 216 
L 281.686026 216 
" style="fill:none;stroke:#000000;stroke-opacity:0.7;stroke-width:1.417324;"/>
    <path clip-path="url(#p4d6ab86a71)" d="M 281.103815 214.37283 
L 78.896185 214.37283 
" style="fill:none;stroke:#000000;stroke-opacity:0.7;stroke-width:1.417324;"/>
    <path clip-path="url(#p4d6ab86a71)" d="M 79.471962 212.763641 
L 280.528038 212.763641 
" style="fill:none;stroke:#000000;stroke-opacity:0.7;stroke-width:1.417324;"/>
    <path clip-path="url(#p4d6ab86a71)" d="M 279.958487 211.17185 
L 80.041513 211.17185 
" style="fill:none;stroke:#000000;stroke-opacity:0.7;stroke-width:1.417324;"/>
    <path clip-path="url(#p4d6ab86a71)" d="M 80.728636 209.596905 
L 279.271364 209.596905 
" style="fill:none;stroke:#000000;stroke-opacity:0.7;stroke-width:1.417324;"/>
    <path clip-path="url(#p4d6ab86a71)" d="M 278.53419 208.038282 
L 81.46581 208.038282 
" style="fill:none;stroke:#000000;stroke-opacity:0.7;stroke-width:1.417324;"/>
    <path clip-path="url(#p4d6ab86a71)" d="M 82.195499 206.495484 
L 277.804501 206.495484 
" style="fill:none;stroke:#000000;stroke-opacity:0.7;stroke-width:1.417324;"/>
    <path clip-path="url(#p4d6ab86a71)" d="M 277.082073 204.968038 
L 82.917927 204.968038 
" style="fill:none;stroke:#000000;stroke-opacity:0.7;stroke-width:1.417324;"/>
    <path clip-path="url(#p4d6ab86a71)" d="M 83.633306 203.455496 
L 276.366694 203.455496 
" style="fill:none;stroke:#000000;stroke-opacity:0.7;stroke-width:1.417324;"/>
    <path clip-path="url(#p4d6ab86a71)" d="M 275.65816 201.957428 
L 84.34184 201.957428 
" style="fill:none;stroke:#000000;stroke-opacity:0.7;stroke-width:1.417324;"/>
    <path clip-path="url(#p4d6ab86a71)" d="M 85.121555 200.473428 
L 274.878445 200.473428 
" style="fill:none;stroke:#000000;stroke-opacity:0.7;stroke-width:1.417324;"/>
    <path clip-path="url(#p4d6ab86a71)" d="M 273.997168 199.003106 
L 86.002832 199.003106 
" style="fill:none;stroke:#000000;stroke-opacity:0.7;stroke-width:1.417324;"/>
    <path clip-path="url(#p4d6ab86a71)" d="M 86.876133 197.54609 
L 273.123867 197.54609 
" style="fill:none;stroke:#000000;stroke-opacity:0.7;stroke-width:1.417324;"/>
    <path clip-path="url(#p4d6ab86a71)" d="M 272.258329 196.102027 
L 87.741671 196.102027 
" style="fill:none;stroke:#000000;stroke-opacity:0.7;stroke-width:1.417324;"/>
    <path clip-path="url(#p4d6ab86a71)" d="M 88.59965 194.670577 
L 271.40035 194.670577 
" style="fill:none;stroke:#000000;stroke-opacity:0.7;stroke-width:1.417324;"/>
    <path clip-path="url(#p4d6ab86a71)" d="M 270.549737 193.251414 
L 89.450263 193.251414 
" style="fill:none;stroke:#000000;stroke-opacity:0.7;stroke-width:1.417324;"/>
    <path clip-path="url(#p4d6ab86a71)" d="M 90.315635 191.844228 
L 269.684365 191.844228 
" style="fill:none;stroke:#000000;stroke-opacity:0.7;stroke-width:1.417324;"/>
    <path clip-path="url(#p4d6ab86a71)" d="M 268.649387 190.448721 
L 91.350613 190.448721 
" style="fill:none;stroke:#000000;stroke-opacity:0.7;stroke-width:1.417324;"/>
    <path clip-path="url(#p4d6ab86a71)" d="M 92.377143 189.064606 
L 267.622857 189.064606 
" style="fill:none;stroke:#000000;stroke-opacity:0.7;stroke-width:1.417324;"/>
    <path clip-path="url(#p4d6ab86a71)" d="M 266.604573 187.691608 
L 93.395427 187.691608 
" style="fill:none;stroke:#000000;stroke-opacity:0.7;stroke-width:1.417324;"/>
    <path clip-path="url(#p4d6ab86a71)" d="M 94.405661 186.329466 
L 265.594339 186.329466 
" style="fill:none;stroke:#000000;stroke-opacity:0.7;stroke-width:1.417324;"/>
    <path clip-path="url(#p4d6ab86a71)" d="M 264.591967 184.977923 
L 95.408033 184.977923 
" style="fill:none;stroke:#000000;stroke-opacity:0.7;stroke-width:1.417324;"/>
    <path clip-path="url(#p4d6ab86a71)" d="M 96.402724 183.636739 
L 263.597276 183.636739 
" style="fill:none;stroke:#000000;stroke-opacity:0.7;stroke-width:1.417324;"/>
    <path clip-path="url(#p4d6ab86a71)" d="M 262.415776 182.305676 
L 97.584224 182.305676 
" style="fill:none;stroke:#000000;stroke-opacity:0.7;stroke-width:1.417324;"/>
    <path clip-path="url(#p4d6ab86a71)" d="M 98.781659 180.984511 
L 261.218341 180.984511 
" style="fill:none;stroke:#000000;stroke-opacity:0.7;stroke-width:1.417324;"/>
    <path clip-path="url(#p4d6ab86a71)" d="M 260.029679 179.673024 
L 99.970321 179.673024 
" style="fill:none;stroke:#000000;stroke-opacity:0.7;stroke-width:1.417324;"/>
    <path clip-path="url(#p4d6ab86a71)" d="M 101.1504 178.371008 
L 258.8496 178.371008 
" style="fill:none;stroke:#000000;stroke-opacity:0.7;stroke-width:1.417324;"/>
    <path clip-path="url(#p4d6ab86a71)" d="M 257.677921 177.078258 
L 102.322079 177.078258 
" style="fill:none;stroke:#000000;stroke-opacity:0.7;stroke-width:1.417324;"/>
    <path clip-path="url(#p4d6ab86a71)" d="M 103.485537 175.794581 
L 256.514463 175.794581 
" style="fill:none;stroke:#000000;stroke-opacity:0.7;stroke-width:1.417324;"/>
    <path clip-path="url(#p4d6ab86a71)" d="M 255.139879 174.519788 
L 104.860121 174.519788 
" style="fill:none;stroke:#000000;stroke-opacity:0.7;stroke-width:1.417324;"/>
    <path clip-path="url(#p4d6ab86a71)" d="M 106.257037 173.253697 
L 253.742963 173.253697 
" style="fill:none;stroke:#000000;stroke-opacity:0.7;stroke-width:1.417324;"/>
    <path clip-path="url(#p4d6ab86a71)" d="M 252.355454 171.996132 
L 107.644546 171.996132 
" style="fill:none;stroke:#000000;stroke-opacity:0.7;stroke-width:1.417324;"/>
    <path clip-path="url(#p4d6ab86a71)" d="M 109.022836 170.746923 
L 250.977164 170.746923 
" style="fill:none;stroke:#000000;stroke-opacity:0.7;stroke-width:1.417324;"/>
    <path clip-path="url(#p4d6ab86a71)" d="M 249.607913 169.505906 
L 110.392087 169.505906 
" style="fill:none;stroke:#000000;stroke-opacity:0.7;stroke-width:1.417324;"/>
    <path clip-path="url(#p4d6ab86a71)" d="M 111.811757 168.272921 
L 248.188243 168.272921 
" style="fill:none;stroke:#000000;stroke-opacity:0.7;stroke-width:1.417324;"/>
    <path clip-path="url(#p4d6ab86a71)" d="M 246.536379 167.047816 
L 113.463621 167.047816 
" style="fill:none;stroke:#000000;stroke-opacity:0.7;stroke-width:1.417324;"/>
    <path clip-path="url(#p4d6ab86a71)" d="M 115.105062 165.83044 
L 244.894938 165.83044 
" style="fill:none;stroke:#000000;stroke-opacity:0.7;stroke-width:1.417324;"/>
    <path clip-path="url(#p4d6ab86a71)" d="M 243.263724 164.620649 
L 116.736276 164.620649 
" style="fill:none;stroke:#000000;stroke-opacity:0.7;stroke-width:1.417324;"/>
    <path clip-path="url(#p4d6ab86a71)" d="M 118.357452 163.418303 
L 241.642548 163.418303 
" style="fill:none;stroke:#000000;stroke-opacity:0.7;stroke-width:1.417324;"/>
    <path clip-path="url(#p4d6ab86a71)" d="M 240.031228 162.223266 
L 119.968772 162.223266 
" style="fill:none;stroke:#000000;stroke-opacity:0.7;stroke-width:1.417324;"/>
    <path clip-path="url(#p4d6ab86a71)" d="M 121.943559 161.035407 
L 238.056441 161.035407 
" style="fill:none;stroke:#000000;stroke-opacity:0.7;stroke-width:1.417324;"/>
    <path clip-path="url(#p4d6ab86a71)" d="M 236.08638 159.854598 
L 123.91362 159.854598 
" style="fill:none;stroke:#000000;stroke-opacity:0.7;stroke-width:1.417324;"/>
    <path clip-path="url(#p4d6ab86a71)" d="M 125.872126 158.680715 
L 234.127874 158.680715 
" style="fill:none;stroke:#000000;stroke-opacity:0.7;stroke-width:1.417324;"/>
    <path clip-path="url(#p4d6ab86a71)" d="M 232.180722 157.513637 
L 127.819278 157.513637 
" style="fill:none;stroke:#000000;stroke-opacity:0.7;stroke-width:1.417324;"/>
    <path clip-path="url(#p4d6ab86a71)" d="M 129.933309 156.353247 
L 230.066691 156.353247 
" style="fill:none;stroke:#000000;stroke-opacity:0.7;stroke-width:1.417324;"/>
    <path clip-path="url(#p4d6ab86a71)" d="M 227.627154 155.199432 
L 132.372846 155.199432 
" style="fill:none;stroke:#000000;stroke-opacity:0.7;stroke-width:1.417324;"/>
    <path clip-path="url(#p4d6ab86a71)" d="M 134.798717 154.052081 
L 225.201283 154.052081 
" style="fill:none;stroke:#000000;stroke-opacity:0.7;stroke-width:1.417324;"/>
    <path clip-path="url(#p4d6ab86a71)" d="M 222.788853 152.911086 
L 137.211147 152.911086 
" style="fill:none;stroke:#000000;stroke-opacity:0.7;stroke-width:1.417324;"/>
    <path clip-path="url(#p4d6ab86a71)" d="M 139.912949 151.776344 
L 220.087051 151.776344 
" style="fill:none;stroke:#000000;stroke-opacity:0.7;stroke-width:1.417324;"/>
    <path clip-path="url(#p4d6ab86a71)" d="M 216.932848 150.647752 
L 143.067152 150.647752 
" style="fill:none;stroke:#000000;stroke-opacity:0.7;stroke-width:1.417324;"/>
    <path clip-path="url(#p4d6ab86a71)" d="M 146.204441 149.525212 
L 213.795559 149.525212 
" style="fill:none;stroke:#000000;stroke-opacity:0.7;stroke-width:1.417324;"/>
    <path clip-path="url(#p4d6ab86a71)" d="M 210.385359 148.408627 
L 149.614641 148.408627 
" style="fill:none;stroke:#000000;stroke-opacity:0.7;stroke-width:1.417324;"/>
    <path clip-path="url(#p4d6ab86a71)" d="M 154.048898 147.297904 
L 205.951102 147.297904 
" style="fill:none;stroke:#000000;stroke-opacity:0.7;stroke-width:1.417324;"/>
    <path clip-path="url(#p4d6ab86a71)" d="M 201.539881 146.19295 
L 158.460119 146.19295 
" style="fill:none;stroke:#000000;stroke-opacity:0.7;stroke-width:1.417324;"/>
    <path clip-path="url(#p4d6ab86a71)" d="M 165.54706 145.093678 
L 194.45294 145.093678 
" style="fill:none;stroke:#000000;stroke-opacity:0.7;stroke-width:1.417324;"/>
    <path clip-path="url(#p4d6ab86a71)" d="M 180 144 
" style="fill:none;stroke:#000000;stroke-opacity:0.7;stroke-width:1.417324;"/>
   </g>
   <g id="LineCollection_2">
    <path clip-path="url(#p4d6ab86a71)" d="M 288 252 
L 287.47995 262.585851 
L 285.92481 273.069755 
L 283.349556 283.350745 
L 279.77899 293.329811 
L 275.247497 302.910848 
L 269.798718 312.001585 
L 263.485129 320.514475 
L 256.367532 328.367532 
L 248.514475 335.485129 
L 240.001585 341.798718 
L 230.910848 347.247497 
L 221.329811 351.77899 
L 211.350745 355.349556 
L 201.069755 357.92481 
L 190.585851 359.47995 
L 180 360 
L 169.414149 359.47995 
L 158.930245 357.92481 
L 148.649255 355.349556 
L 138.670189 351.77899 
L 129.089152 347.247497 
L 119.998415 341.798718 
L 111.485525 335.485129 
L 103.632468 328.367532 
L 96.514871 320.514475 
L 90.201282 312.001585 
L 84.752503 302.910848 
L 80.22101 293.329811 
L 76.650444 283.350745 
L 74.07519 273.069755 
L 72.52005 262.585851 
L 72 252 
L 72.52005 241.414149 
L 74.07519 230.930245 
L 76.650444 220.649255 
L 80.22101 210.670189 
L 84.752503 201.089152 
L 90.201282 191.998415 
L 96.514871 183.485525 
L 103.632468 175.632468 
L 111.485525 168.514871 
L 119.998415 162.201282 
L 129.089152 156.752503 
L 138.670189 152.22101 
L 148.649255 148.650444 
L 158.930245 146.07519 
L 169.414149 144.52005 
L 180 144 
L 190.585851 144.52005 
L 201.069755 146.07519 
L 211.350745 148.650444 
L 221.329811 152.22101 
L 230.910848 156.752503 
L 240.001585 162.201282 
L 248.514475 168.514871 
L 256.367532 175.632468 
L 263.485129 183.485525 
L 269.798718 191.998415 
L 275.247497 201.089152 
L 279.77899 210.670189 
L 283.349556 220.649255 
L 285.92481 230.930245 
L 287.47995 241.414149 
L 288 252 
L 288 252 
" style="fill:none;stroke:#000000;stroke-opacity:0.7;stroke-width:1.417324;"/>
   </g>
  </g>
 </g>
 <defs>
  <clipPath id="p4d6ab86a71">
   <rect height="504" width="360" x="0" y="0"/>
  </clipPath>
 </defs>
</svg>
