<?xml version="1.0" encoding="utf-8" standalone="no"?>
<!DOCTYPE svg PUBLIC "-//W3C//DTD SVG 1.1//EN"
  "http://www.w3.org/Graphics/SVG/1.1/DTD/svg11.dtd">
<!-- Created with matplotlib (https://matplotlib.org/) -->
<svg height="504pt" version="1.1" viewBox="0 0 360 504" width="360pt" xmlns="http://www.w3.org/2000/svg" xmlns:xlink="http://www.w3.org/1999/xlink">
 <metadata>
  <rdf:RDF xmlns:cc="http://creativecommons.org/ns#" xmlns:dc="http://purl.org/dc/elements/1.1/" xmlns:rdf="http://www.w3.org/1999/02/22-rdf-syntax-ns#">
   <cc:Work>
    <dc:type rdf:resource="http://purl.org/dc/dcmitype/StillImage"/>
    <dc:date>2020-11-03T17:11:32.894908</dc:date>
    <dc:format>image/svg+xml</dc:format>
    <dc:creator>
     <cc:Agent>
      <dc:title>Matplotlib v3.3.2, https://matplotlib.org/</dc:title>
     </cc:Agent>
    </dc:creator>
   </cc:Work>
  </rdf:RDF>
 </metadata>
 <defs>
  <style type="text/css">*{stroke-linecap:butt;stroke-linejoin:round;}</style>
 </defs>
 <g id="figure_1">
  <g id="axes_1">
   <g id="LineCollection_1">
    <path clip-path="url(#p06e458e63f)" d="M 324 453.6 
L 324 50.4 
L 36 50.4 
L 36 453.6 
L 324 453.6 
" style="fill:none;stroke:#000000;stroke-opacity:0.8;stroke-width:1.417324;"/>
    <path clip-path="url(#p06e458e63f)" d="M 36 453.6 
L 324 453.6 
" style="fill:none;stroke:#000000;stroke-opacity:0.8;stroke-width:1.417324;"/>
    <path clip-path="url(#p06e458e63f)" d="M 324 446.4 
L 36 446.4 
" style="fill:none;stroke:#000000;stroke-opacity:0.8;stroke-width:1.417324;"/>
    <path clip-path="url(#p06e458e63f)" d="M 36 439.2 
L 324 439.2 
" style="fill:none;stroke:#000000;stroke-opacity:0.8;stroke-width:1.417324;"/>
    <path clip-path="url(#p06e458e63f)" d="M 324 432 
L 36 432 
" style="fill:none;stroke:#000000;stroke-opacity:0.8;stroke-width:1.417324;"/>
    <path clip-path="url(#p06e458e63f)" d="M 36 424.8 
L 324 424.8 
" style="fill:none;stroke:#000000;stroke-opacity:0.8;stroke-width:1.417324;"/>
    <path clip-path="url(#p06e458e63f)" d="M 324 417.6 
L 36 417.6 
" style="fill:none;stroke:#000000;stroke-opacity:0.8;stroke-width:1.417324;"/>
    <path clip-path="url(#p06e458e63f)" d="M 36 410.4 
L 324 410.4 
" style="fill:none;stroke:#000000;stroke-opacity:0.8;stroke-width:1.417324;"/>
    <path clip-path="url(#p06e458e63f)" d="M 324 403.2 
L 36 403.2 
" style="fill:none;stroke:#000000;stroke-opacity:0.8;stroke-width:1.417324;"/>
    <path clip-path="url(#p06e458e63f)" d="M 36 396 
L 324 396 
" style="fill:none;stroke:#000000;stroke-opacity:0.8;stroke-width:1.417324;"/>
    <path clip-path="url(#p06e458e63f)" d="M 324 388.8 
L 36 388.8 
" style="fill:none;stroke:#000000;stroke-opacity:0.8;stroke-width:1.417324;"/>
    <path clip-path="url(#p06e458e63f)" d="M 36 381.6 
L 324 381.6 
" style="fill:none;stroke:#000000;stroke-opacity:0.8;stroke-width:1.417324;"/>
    <path clip-path="url(#p06e458e63f)" d="M 324 374.4 
L 36 374.4 
" style="fill:none;stroke:#000000;stroke-opacity:0.8;stroke-width:1.417324;"/>
    <path clip-path="url(#p06e458e63f)" d="M 36 367.2 
L 324 367.2 
" style="fill:none;stroke:#000000;stroke-opacity:0.8;stroke-width:1.417324;"/>
    <path clip-path="url(#p06e458e63f)" d="M 324 360 
L 36 360 
" style="fill:none;stroke:#000000;stroke-opacity:0.8;stroke-width:1.417324;"/>
    <path clip-path="url(#p06e458e63f)" d="M 36 352.8 
L 324 352.8 
" style="fill:none;stroke:#000000;stroke-opacity:0.8;stroke-width:1.417324;"/>
    <path clip-path="url(#p06e458e63f)" d="M 324 345.6 
L 36 345.6 
" style="fill:none;stroke:#000000;stroke-opacity:0.8;stroke-width:1.417324;"/>
    <path clip-path="url(#p06e458e63f)" d="M 36 338.4 
L 324 338.4 
" style="fill:none;stroke:#000000;stroke-opacity:0.8;stroke-width:1.417324;"/>
    <path clip-path="url(#p06e458e63f)" d="M 324 331.2 
L 36 331.2 
" style="fill:none;stroke:#000000;stroke-opacity:0.8;stroke-width:1.417324;"/>
    <path clip-path="url(#p06e458e63f)" d="M 36 324 
L 324 324 
" style="fill:none;stroke:#000000;stroke-opacity:0.8;stroke-width:1.417324;"/>
    <path clip-path="url(#p06e458e63f)" d="M 324 316.8 
L 36 316.8 
" style="fill:none;stroke:#000000;stroke-opacity:0.8;stroke-width:1.417324;"/>
    <path clip-path="url(#p06e458e63f)" d="M 36 309.6 
L 324 309.6 
" style="fill:none;stroke:#000000;stroke-opacity:0.8;stroke-width:1.417324;"/>
    <path clip-path="url(#p06e458e63f)" d="M 324 302.4 
L 36 302.4 
" style="fill:none;stroke:#000000;stroke-opacity:0.8;stroke-width:1.417324;"/>
    <path clip-path="url(#p06e458e63f)" d="M 36 295.2 
L 324 295.2 
" style="fill:none;stroke:#000000;stroke-opacity:0.8;stroke-width:1.417324;"/>
    <path clip-path="url(#p06e458e63f)" d="M 324 288 
L 36 288 
" style="fill:none;stroke:#000000;stroke-opacity:0.8;stroke-width:1.417324;"/>
    <path clip-path="url(#p06e458e63f)" d="M 36 280.8 
L 324 280.8 
" style="fill:none;stroke:#000000;stroke-opacity:0.8;stroke-width:1.417324;"/>
    <path clip-path="url(#p06e458e63f)" d="M 324 273.6 
L 36 273.6 
" style="fill:none;stroke:#000000;stroke-opacity:0.8;stroke-width:1.417324;"/>
    <path clip-path="url(#p06e458e63f)" d="M 36 266.4 
L 324 266.4 
" style="fill:none;stroke:#000000;stroke-opacity:0.8;stroke-width:1.417324;"/>
    <path clip-path="url(#p06e458e63f)" d="M 324 259.2 
L 36 259.2 
" style="fill:none;stroke:#000000;stroke-opacity:0.8;stroke-width:1.417324;"/>
    <path clip-path="url(#p06e458e63f)" d="M 36 252 
L 324 252 
" style="fill:none;stroke:#000000;stroke-opacity:0.8;stroke-width:1.417324;"/>
    <path clip-path="url(#p06e458e63f)" d="M 180 453.6 
L 180 50.4 
" style="fill:none;stroke:#000000;stroke-opacity:0.8;stroke-width:1.417324;"/>
    <path clip-path="url(#p06e458e63f)" d="M 187.2 50.4 
L 187.2 453.6 
" style="fill:none;stroke:#000000;stroke-opacity:0.8;stroke-width:1.417324;"/>
    <path clip-path="url(#p06e458e63f)" d="M 194.4 453.6 
L 194.4 50.4 
" style="fill:none;stroke:#000000;stroke-opacity:0.8;stroke-width:1.417324;"/>
    <path clip-path="url(#p06e458e63f)" d="M 201.6 50.4 
L 201.6 453.6 
" style="fill:none;stroke:#000000;stroke-opacity:0.8;stroke-width:1.417324;"/>
    <path clip-path="url(#p06e458e63f)" d="M 208.8 453.6 
L 208.8 50.4 
" style="fill:none;stroke:#000000;stroke-opacity:0.8;stroke-width:1.417324;"/>
    <path clip-path="url(#p06e458e63f)" d="M 216 50.4 
L 216 453.6 
" style="fill:none;stroke:#000000;stroke-opacity:0.8;stroke-width:1.417324;"/>
    <path clip-path="url(#p06e458e63f)" d="M 223.2 453.6 
L 223.2 50.4 
" style="fill:none;stroke:#000000;stroke-opacity:0.8;stroke-width:1.417324;"/>
    <path clip-path="url(#p06e458e63f)" d="M 230.4 50.4 
L 230.4 453.6 
" style="fill:none;stroke:#000000;stroke-opacity:0.8;stroke-width:1.417324;"/>
    <path clip-path="url(#p06e458e63f)" d="M 237.6 453.6 
L 237.6 50.4 
" style="fill:none;stroke:#000000;stroke-opacity:0.8;stroke-width:1.417324;"/>
    <path clip-path="url(#p06e458e63f)" d="M 244.8 50.4 
L 244.8 453.6 
" style="fill:none;stroke:#000000;stroke-opacity:0.8;stroke-width:1.417324;"/>
    <path clip-path="url(#p06e458e63f)" d="M 252 453.6 
L 252 50.4 
" style="fill:none;stroke:#000000;stroke-opacity:0.8;stroke-width:1.417324;"/>
    <path clip-path="url(#p06e458e63f)" d="M 259.2 50.4 
L 259.2 453.6 
" style="fill:none;stroke:#000000;stroke-opacity:0.8;stroke-width:1.417324;"/>
    <path clip-path="url(#p06e458e63f)" d="M 266.4 453.6 
L 266.4 50.4 
" style="fill:none;stroke:#000000;stroke-opacity:0.8;stroke-width:1.417324;"/>
    <path clip-path="url(#p06e458e63f)" d="M 273.6 50.4 
L 273.6 453.6 
" style="fill:none;stroke:#000000;stroke-opacity:0.8;stroke-width:1.417324;"/>
    <path clip-path="url(#p06e458e63f)" d="M 280.8 453.6 
L 280.8 50.4 
" style="fill:none;stroke:#000000;stroke-opacity:0.8;stroke-width:1.417324;"/>
    <path clip-path="url(#p06e458e63f)" d="M 288 50.4 
L 288 453.6 
" style="fill:none;stroke:#000000;stroke-opacity:0.8;stroke-width:1.417324;"/>
    <path clip-path="url(#p06e458e63f)" d="M 295.2 453.6 
L 295.2 50.4 
" style="fill:none;stroke:#000000;stroke-opacity:0.8;stroke-width:1.417324;"/>
    <path clip-path="url(#p06e458e63f)" d="M 302.4 50.4 
L 302.4 453.6 
" style="fill:none;stroke:#000000;stroke-opacity:0.8;stroke-width:1.417324;"/>
    <path clip-path="url(#p06e458e63f)" d="M 309.6 453.6 
L 309.6 50.4 
" style="fill:none;stroke:#000000;stroke-opacity:0.8;stroke-width:1.417324;"/>
    <path clip-path="url(#p06e458e63f)" d="M 316.8 50.4 
L 316.8 453.6 
" style="fill:none;stroke:#000000;stroke-opacity:0.8;stroke-width:1.417324;"/>
    <path clip-path="url(#p06e458e63f)" d="M 252 352.8 
L 252 151.2 
L 108 151.2 
L 108 352.8 
L 252 352.8 
" style="fill:none;stroke:#000000;stroke-opacity:0.8;stroke-width:1.417324;"/>
    <path clip-path="url(#p06e458e63f)" d="M 108 352.8 
L 252 352.8 
" style="fill:none;stroke:#000000;stroke-opacity:0.8;stroke-width:1.417324;"/>
    <path clip-path="url(#p06e458e63f)" d="M 252 349.2 
L 108 349.2 
" style="fill:none;stroke:#000000;stroke-opacity:0.8;stroke-width:1.417324;"/>
    <path clip-path="url(#p06e458e63f)" d="M 108 345.6 
L 252 345.6 
" style="fill:none;stroke:#000000;stroke-opacity:0.8;stroke-width:1.417324;"/>
    <path clip-path="url(#p06e458e63f)" d="M 252 342 
L 108 342 
" style="fill:none;stroke:#000000;stroke-opacity:0.8;stroke-width:1.417324;"/>
    <path clip-path="url(#p06e458e63f)" d="M 108 338.4 
L 252 338.4 
" style="fill:none;stroke:#000000;stroke-opacity:0.8;stroke-width:1.417324;"/>
    <path clip-path="url(#p06e458e63f)" d="M 252 334.8 
L 108 334.8 
" style="fill:none;stroke:#000000;stroke-opacity:0.8;stroke-width:1.417324;"/>
    <path clip-path="url(#p06e458e63f)" d="M 108 331.2 
L 252 331.2 
" style="fill:none;stroke:#000000;stroke-opacity:0.8;stroke-width:1.417324;"/>
    <path clip-path="url(#p06e458e63f)" d="M 252 327.6 
L 108 327.6 
" style="fill:none;stroke:#000000;stroke-opacity:0.8;stroke-width:1.417324;"/>
    <path clip-path="url(#p06e458e63f)" d="M 108 324 
L 252 324 
" style="fill:none;stroke:#000000;stroke-opacity:0.8;stroke-width:1.417324;"/>
    <path clip-path="url(#p06e458e63f)" d="M 252 320.4 
L 108 320.4 
" style="fill:none;stroke:#000000;stroke-opacity:0.8;stroke-width:1.417324;"/>
    <path clip-path="url(#p06e458e63f)" d="M 108 316.8 
L 252 316.8 
" style="fill:none;stroke:#000000;stroke-opacity:0.8;stroke-width:1.417324;"/>
    <path clip-path="url(#p06e458e63f)" d="M 252 313.2 
L 108 313.2 
" style="fill:none;stroke:#000000;stroke-opacity:0.8;stroke-width:1.417324;"/>
    <path clip-path="url(#p06e458e63f)" d="M 108 309.6 
L 252 309.6 
" style="fill:none;stroke:#000000;stroke-opacity:0.8;stroke-width:1.417324;"/>
    <path clip-path="url(#p06e458e63f)" d="M 252 306 
L 108 306 
" style="fill:none;stroke:#000000;stroke-opacity:0.8;stroke-width:1.417324;"/>
    <path clip-path="url(#p06e458e63f)" d="M 108 302.4 
L 252 302.4 
" style="fill:none;stroke:#000000;stroke-opacity:0.8;stroke-width:1.417324;"/>
    <path clip-path="url(#p06e458e63f)" d="M 252 298.8 
L 108 298.8 
" style="fill:none;stroke:#000000;stroke-opacity:0.8;stroke-width:1.417324;"/>
    <path clip-path="url(#p06e458e63f)" d="M 108 295.2 
L 252 295.2 
" style="fill:none;stroke:#000000;stroke-opacity:0.8;stroke-width:1.417324;"/>
    <path clip-path="url(#p06e458e63f)" d="M 252 291.6 
L 108 291.6 
" style="fill:none;stroke:#000000;stroke-opacity:0.8;stroke-width:1.417324;"/>
    <path clip-path="url(#p06e458e63f)" d="M 108 288 
L 252 288 
" style="fill:none;stroke:#000000;stroke-opacity:0.8;stroke-width:1.417324;"/>
    <path clip-path="url(#p06e458e63f)" d="M 252 284.4 
L 108 284.4 
" style="fill:none;stroke:#000000;stroke-opacity:0.8;stroke-width:1.417324;"/>
    <path clip-path="url(#p06e458e63f)" d="M 108 280.8 
L 252 280.8 
" style="fill:none;stroke:#000000;stroke-opacity:0.8;stroke-width:1.417324;"/>
    <path clip-path="url(#p06e458e63f)" d="M 252 277.2 
L 108 277.2 
" style="fill:none;stroke:#000000;stroke-opacity:0.8;stroke-width:1.417324;"/>
    <path clip-path="url(#p06e458e63f)" d="M 108 273.6 
L 252 273.6 
" style="fill:none;stroke:#000000;stroke-opacity:0.8;stroke-width:1.417324;"/>
    <path clip-path="url(#p06e458e63f)" d="M 252 270 
L 108 270 
" style="fill:none;stroke:#000000;stroke-opacity:0.8;stroke-width:1.417324;"/>
    <path clip-path="url(#p06e458e63f)" d="M 108 266.4 
L 252 266.4 
" style="fill:none;stroke:#000000;stroke-opacity:0.8;stroke-width:1.417324;"/>
    <path clip-path="url(#p06e458e63f)" d="M 252 262.8 
L 108 262.8 
" style="fill:none;stroke:#000000;stroke-opacity:0.8;stroke-width:1.417324;"/>
    <path clip-path="url(#p06e458e63f)" d="M 108 259.2 
L 252 259.2 
" style="fill:none;stroke:#000000;stroke-opacity:0.8;stroke-width:1.417324;"/>
    <path clip-path="url(#p06e458e63f)" d="M 252 255.6 
L 108 255.6 
" style="fill:none;stroke:#000000;stroke-opacity:0.8;stroke-width:1.417324;"/>
    <path clip-path="url(#p06e458e63f)" d="M 180 352.8 
L 180 151.2 
" style="fill:none;stroke:#000000;stroke-opacity:0.8;stroke-width:1.417324;"/>
    <path clip-path="url(#p06e458e63f)" d="M 183.6 151.2 
L 183.6 352.8 
" style="fill:none;stroke:#000000;stroke-opacity:0.8;stroke-width:1.417324;"/>
    <path clip-path="url(#p06e458e63f)" d="M 187.2 352.8 
L 187.2 151.2 
" style="fill:none;stroke:#000000;stroke-opacity:0.8;stroke-width:1.417324;"/>
    <path clip-path="url(#p06e458e63f)" d="M 190.8 151.2 
L 190.8 352.8 
" style="fill:none;stroke:#000000;stroke-opacity:0.8;stroke-width:1.417324;"/>
    <path clip-path="url(#p06e458e63f)" d="M 194.4 352.8 
L 194.4 151.2 
" style="fill:none;stroke:#000000;stroke-opacity:0.8;stroke-width:1.417324;"/>
    <path clip-path="url(#p06e458e63f)" d="M 198 151.2 
L 198 352.8 
" style="fill:none;stroke:#000000;stroke-opacity:0.8;stroke-width:1.417324;"/>
    <path clip-path="url(#p06e458e63f)" d="M 201.6 352.8 
L 201.6 151.2 
" style="fill:none;stroke:#000000;stroke-opacity:0.8;stroke-width:1.417324;"/>
    <path clip-path="url(#p06e458e63f)" d="M 205.2 151.2 
L 205.2 352.8 
" style="fill:none;stroke:#000000;stroke-opacity:0.8;stroke-width:1.417324;"/>
    <path clip-path="url(#p06e458e63f)" d="M 208.8 352.8 
L 208.8 151.2 
" style="fill:none;stroke:#000000;stroke-opacity:0.8;stroke-width:1.417324;"/>
    <path clip-path="url(#p06e458e63f)" d="M 212.4 151.2 
L 212.4 352.8 
" style="fill:none;stroke:#000000;stroke-opacity:0.8;stroke-width:1.417324;"/>
    <path clip-path="url(#p06e458e63f)" d="M 216 352.8 
L 216 151.2 
" style="fill:none;stroke:#000000;stroke-opacity:0.8;stroke-width:1.417324;"/>
    <path clip-path="url(#p06e458e63f)" d="M 219.6 151.2 
L 219.6 352.8 
" style="fill:none;stroke:#000000;stroke-opacity:0.8;stroke-width:1.417324;"/>
    <path clip-path="url(#p06e458e63f)" d="M 223.2 352.8 
L 223.2 151.2 
" style="fill:none;stroke:#000000;stroke-opacity:0.8;stroke-width:1.417324;"/>
    <path clip-path="url(#p06e458e63f)" d="M 226.8 151.2 
L 226.8 352.8 
" style="fill:none;stroke:#000000;stroke-opacity:0.8;stroke-width:1.417324;"/>
    <path clip-path="url(#p06e458e63f)" d="M 230.4 352.8 
L 230.4 151.2 
" style="fill:none;stroke:#000000;stroke-opacity:0.8;stroke-width:1.417324;"/>
    <path clip-path="url(#p06e458e63f)" d="M 234 151.2 
L 234 352.8 
" style="fill:none;stroke:#000000;stroke-opacity:0.8;stroke-width:1.417324;"/>
    <path clip-path="url(#p06e458e63f)" d="M 237.6 352.8 
L 237.6 151.2 
" style="fill:none;stroke:#000000;stroke-opacity:0.8;stroke-width:1.417324;"/>
    <path clip-path="url(#p06e458e63f)" d="M 241.2 151.2 
L 241.2 352.8 
" style="fill:none;stroke:#000000;stroke-opacity:0.8;stroke-width:1.417324;"/>
    <path clip-path="url(#p06e458e63f)" d="M 244.8 352.8 
L 244.8 151.2 
" style="fill:none;stroke:#000000;stroke-opacity:0.8;stroke-width:1.417324;"/>
    <path clip-path="url(#p06e458e63f)" d="M 248.4 151.2 
L 248.4 352.8 
" style="fill:none;stroke:#000000;stroke-opacity:0.8;stroke-width:1.417324;"/>
    <path clip-path="url(#p06e458e63f)" d="M 216 302.4 
L 216 201.6 
L 144 201.6 
L 144 302.4 
L 216 302.4 
" style="fill:none;stroke:#000000;stroke-opacity:0.8;stroke-width:1.417324;"/>
    <path clip-path="url(#p06e458e63f)" d="M 144 302.4 
L 216 302.4 
" style="fill:none;stroke:#000000;stroke-opacity:0.8;stroke-width:1.417324;"/>
    <path clip-path="url(#p06e458e63f)" d="M 216 300.6 
L 144 300.6 
" style="fill:none;stroke:#000000;stroke-opacity:0.8;stroke-width:1.417324;"/>
    <path clip-path="url(#p06e458e63f)" d="M 144 298.8 
L 216 298.8 
" style="fill:none;stroke:#000000;stroke-opacity:0.8;stroke-width:1.417324;"/>
    <path clip-path="url(#p06e458e63f)" d="M 216 297 
L 144 297 
" style="fill:none;stroke:#000000;stroke-opacity:0.8;stroke-width:1.417324;"/>
    <path clip-path="url(#p06e458e63f)" d="M 144 295.2 
L 216 295.2 
" style="fill:none;stroke:#000000;stroke-opacity:0.8;stroke-width:1.417324;"/>
    <path clip-path="url(#p06e458e63f)" d="M 216 293.4 
L 144 293.4 
" style="fill:none;stroke:#000000;stroke-opacity:0.8;stroke-width:1.417324;"/>
    <path clip-path="url(#p06e458e63f)" d="M 144 291.6 
L 216 291.6 
" style="fill:none;stroke:#000000;stroke-opacity:0.8;stroke-width:1.417324;"/>
    <path clip-path="url(#p06e458e63f)" d="M 216 289.8 
L 144 289.8 
" style="fill:none;stroke:#000000;stroke-opacity:0.8;stroke-width:1.417324;"/>
    <path clip-path="url(#p06e458e63f)" d="M 144 288 
L 216 288 
" style="fill:none;stroke:#000000;stroke-opacity:0.8;stroke-width:1.417324;"/>
    <path clip-path="url(#p06e458e63f)" d="M 216 286.2 
L 144 286.2 
" style="fill:none;stroke:#000000;stroke-opacity:0.8;stroke-width:1.417324;"/>
    <path clip-path="url(#p06e458e63f)" d="M 144 284.4 
L 216 284.4 
" style="fill:none;stroke:#000000;stroke-opacity:0.8;stroke-width:1.417324;"/>
    <path clip-path="url(#p06e458e63f)" d="M 216 282.6 
L 144 282.6 
" style="fill:none;stroke:#000000;stroke-opacity:0.8;stroke-width:1.417324;"/>
    <path clip-path="url(#p06e458e63f)" d="M 144 280.8 
L 216 280.8 
" style="fill:none;stroke:#000000;stroke-opacity:0.8;stroke-width:1.417324;"/>
    <path clip-path="url(#p06e458e63f)" d="M 216 279 
L 144 279 
" style="fill:none;stroke:#000000;stroke-opacity:0.8;stroke-width:1.417324;"/>
    <path clip-path="url(#p06e458e63f)" d="M 144 277.2 
L 216 277.2 
" style="fill:none;stroke:#000000;stroke-opacity:0.8;stroke-width:1.417324;"/>
    <path clip-path="url(#p06e458e63f)" d="M 216 275.4 
L 144 275.4 
" style="fill:none;stroke:#000000;stroke-opacity:0.8;stroke-width:1.417324;"/>
    <path clip-path="url(#p06e458e63f)" d="M 144 273.6 
L 216 273.6 
" style="fill:none;stroke:#000000;stroke-opacity:0.8;stroke-width:1.417324;"/>
    <path clip-path="url(#p06e458e63f)" d="M 216 271.8 
L 144 271.8 
" style="fill:none;stroke:#000000;stroke-opacity:0.8;stroke-width:1.417324;"/>
    <path clip-path="url(#p06e458e63f)" d="M 144 270 
L 216 270 
" style="fill:none;stroke:#000000;stroke-opacity:0.8;stroke-width:1.417324;"/>
    <path clip-path="url(#p06e458e63f)" d="M 216 268.2 
L 144 268.2 
" style="fill:none;stroke:#000000;stroke-opacity:0.8;stroke-width:1.417324;"/>
    <path clip-path="url(#p06e458e63f)" d="M 144 266.4 
L 216 266.4 
" style="fill:none;stroke:#000000;stroke-opacity:0.8;stroke-width:1.417324;"/>
    <path clip-path="url(#p06e458e63f)" d="M 216 264.6 
L 144 264.6 
" style="fill:none;stroke:#000000;stroke-opacity:0.8;stroke-width:1.417324;"/>
    <path clip-path="url(#p06e458e63f)" d="M 144 262.8 
L 216 262.8 
" style="fill:none;stroke:#000000;stroke-opacity:0.8;stroke-width:1.417324;"/>
    <path clip-path="url(#p06e458e63f)" d="M 216 261 
L 144 261 
" style="fill:none;stroke:#000000;stroke-opacity:0.8;stroke-width:1.417324;"/>
    <path clip-path="url(#p06e458e63f)" d="M 144 259.2 
L 216 259.2 
" style="fill:none;stroke:#000000;stroke-opacity:0.8;stroke-width:1.417324;"/>
    <path clip-path="url(#p06e458e63f)" d="M 216 257.4 
L 144 257.4 
" style="fill:none;stroke:#000000;stroke-opacity:0.8;stroke-width:1.417324;"/>
    <path clip-path="url(#p06e458e63f)" d="M 144 255.6 
L 216 255.6 
" style="fill:none;stroke:#000000;stroke-opacity:0.8;stroke-width:1.417324;"/>
    <path clip-path="url(#p06e458e63f)" d="M 216 253.8 
L 144 253.8 
" style="fill:none;stroke:#000000;stroke-opacity:0.8;stroke-width:1.417324;"/>
    <path clip-path="url(#p06e458e63f)" d="M 180 302.4 
L 180 201.6 
" style="fill:none;stroke:#000000;stroke-opacity:0.8;stroke-width:1.417324;"/>
    <path clip-path="url(#p06e458e63f)" d="M 181.8 201.6 
L 181.8 302.4 
" style="fill:none;stroke:#000000;stroke-opacity:0.8;stroke-width:1.417324;"/>
    <path clip-path="url(#p06e458e63f)" d="M 183.6 302.4 
L 183.6 201.6 
" style="fill:none;stroke:#000000;stroke-opacity:0.8;stroke-width:1.417324;"/>
    <path clip-path="url(#p06e458e63f)" d="M 185.4 201.6 
L 185.4 302.4 
" style="fill:none;stroke:#000000;stroke-opacity:0.8;stroke-width:1.417324;"/>
    <path clip-path="url(#p06e458e63f)" d="M 187.2 302.4 
L 187.2 201.6 
" style="fill:none;stroke:#000000;stroke-opacity:0.8;stroke-width:1.417324;"/>
    <path clip-path="url(#p06e458e63f)" d="M 189 201.6 
L 189 302.4 
" style="fill:none;stroke:#000000;stroke-opacity:0.8;stroke-width:1.417324;"/>
    <path clip-path="url(#p06e458e63f)" d="M 190.8 302.4 
L 190.8 201.6 
" style="fill:none;stroke:#000000;stroke-opacity:0.8;stroke-width:1.417324;"/>
    <path clip-path="url(#p06e458e63f)" d="M 192.6 201.6 
L 192.6 302.4 
" style="fill:none;stroke:#000000;stroke-opacity:0.8;stroke-width:1.417324;"/>
    <path clip-path="url(#p06e458e63f)" d="M 194.4 302.4 
L 194.4 201.6 
" style="fill:none;stroke:#000000;stroke-opacity:0.8;stroke-width:1.417324;"/>
    <path clip-path="url(#p06e458e63f)" d="M 196.2 201.6 
L 196.2 302.4 
" style="fill:none;stroke:#000000;stroke-opacity:0.8;stroke-width:1.417324;"/>
    <path clip-path="url(#p06e458e63f)" d="M 198 302.4 
L 198 201.6 
" style="fill:none;stroke:#000000;stroke-opacity:0.8;stroke-width:1.417324;"/>
    <path clip-path="url(#p06e458e63f)" d="M 199.8 201.6 
L 199.8 302.4 
" style="fill:none;stroke:#000000;stroke-opacity:0.8;stroke-width:1.417324;"/>
    <path clip-path="url(#p06e458e63f)" d="M 201.6 302.4 
L 201.6 201.6 
" style="fill:none;stroke:#000000;stroke-opacity:0.8;stroke-width:1.417324;"/>
    <path clip-path="url(#p06e458e63f)" d="M 203.4 201.6 
L 203.4 302.4 
" style="fill:none;stroke:#000000;stroke-opacity:0.8;stroke-width:1.417324;"/>
    <path clip-path="url(#p06e458e63f)" d="M 205.2 302.4 
L 205.2 201.6 
" style="fill:none;stroke:#000000;stroke-opacity:0.8;stroke-width:1.417324;"/>
    <path clip-path="url(#p06e458e63f)" d="M 207 201.6 
L 207 302.4 
" style="fill:none;stroke:#000000;stroke-opacity:0.8;stroke-width:1.417324;"/>
    <path clip-path="url(#p06e458e63f)" d="M 208.8 302.4 
L 208.8 201.6 
" style="fill:none;stroke:#000000;stroke-opacity:0.8;stroke-width:1.417324;"/>
    <path clip-path="url(#p06e458e63f)" d="M 210.6 201.6 
L 210.6 302.4 
" style="fill:none;stroke:#000000;stroke-opacity:0.8;stroke-width:1.417324;"/>
    <path clip-path="url(#p06e458e63f)" d="M 212.4 302.4 
L 212.4 201.6 
" style="fill:none;stroke:#000000;stroke-opacity:0.8;stroke-width:1.417324;"/>
    <path clip-path="url(#p06e458e63f)" d="M 214.2 201.6 
L 214.2 302.4 
" style="fill:none;stroke:#000000;stroke-opacity:0.8;stroke-width:1.417324;"/>
   </g>
  </g>
 </g>
 <defs>
  <clipPath id="p06e458e63f">
   <rect height="504" width="360" x="0" y="0"/>
  </clipPath>
 </defs>
</svg>
