<?xml version="1.0" encoding="utf-8" standalone="no"?>
<!DOCTYPE svg PUBLIC "-//W3C//DTD SVG 1.1//EN"
  "http://www.w3.org/Graphics/SVG/1.1/DTD/svg11.dtd">
<!-- Created with matplotlib (https://matplotlib.org/) -->
<svg height="504pt" version="1.1" viewBox="0 0 360 504" width="360pt" xmlns="http://www.w3.org/2000/svg" xmlns:xlink="http://www.w3.org/1999/xlink">
 <defs>
  <style type="text/css">
*{stroke-linecap:butt;stroke-linejoin:round;}
  </style>
 </defs>
 <g id="figure_1">
  <g id="axes_1">
   <g id="LineCollection_1">
    <path clip-path="url(#p9509d8b5bc)" d="M 126 496.8 
L 234 496.8 
" style="fill:none;stroke:#000000;stroke-opacity:0.8;stroke-width:1.5;"/>
    <path clip-path="url(#p9509d8b5bc)" d="M 126 482.4 
L 234 482.4 
" style="fill:none;stroke:#000000;stroke-opacity:0.8;stroke-width:1.5;"/>
    <path clip-path="url(#p9509d8b5bc)" d="M 126 468 
L 234 468 
" style="fill:none;stroke:#000000;stroke-opacity:0.8;stroke-width:1.5;"/>
    <path clip-path="url(#p9509d8b5bc)" d="M 126 453.6 
L 234 453.6 
" style="fill:none;stroke:#000000;stroke-opacity:0.8;stroke-width:1.5;"/>
    <path clip-path="url(#p9509d8b5bc)" d="M 126 439.2 
L 234 439.2 
" style="fill:none;stroke:#000000;stroke-opacity:0.8;stroke-width:1.5;"/>
    <path clip-path="url(#p9509d8b5bc)" d="M 126 424.8 
L 234 424.8 
" style="fill:none;stroke:#000000;stroke-opacity:0.8;stroke-width:1.5;"/>
    <path clip-path="url(#p9509d8b5bc)" d="M 126 410.4 
L 178.870649 410.4 
" style="fill:none;stroke:#000000;stroke-opacity:0.8;stroke-width:1.5;"/>
    <path clip-path="url(#p9509d8b5bc)" d="M 181.129351 410.4 
L 234 410.4 
" style="fill:none;stroke:#000000;stroke-opacity:0.8;stroke-width:1.5;"/>
    <path clip-path="url(#p9509d8b5bc)" d="M 126 396 
L 164.470649 396 
" style="fill:none;stroke:#000000;stroke-opacity:0.8;stroke-width:1.5;"/>
    <path clip-path="url(#p9509d8b5bc)" d="M 195.529351 396 
L 234 396 
" style="fill:none;stroke:#000000;stroke-opacity:0.8;stroke-width:1.5;"/>
    <path clip-path="url(#p9509d8b5bc)" d="M 126 381.6 
L 150.070649 381.6 
" style="fill:none;stroke:#000000;stroke-opacity:0.8;stroke-width:1.5;"/>
    <path clip-path="url(#p9509d8b5bc)" d="M 209.929351 381.6 
L 234 381.6 
" style="fill:none;stroke:#000000;stroke-opacity:0.8;stroke-width:1.5;"/>
    <path clip-path="url(#p9509d8b5bc)" d="M 126 367.2 
L 142.870649 367.2 
" style="fill:none;stroke:#000000;stroke-opacity:0.8;stroke-width:1.5;"/>
    <path clip-path="url(#p9509d8b5bc)" d="M 217.129351 367.2 
L 234 367.2 
" style="fill:none;stroke:#000000;stroke-opacity:0.8;stroke-width:1.5;"/>
    <path clip-path="url(#p9509d8b5bc)" d="M 126 352.8 
L 157.270649 352.8 
" style="fill:none;stroke:#000000;stroke-opacity:0.8;stroke-width:1.5;"/>
    <path clip-path="url(#p9509d8b5bc)" d="M 202.729351 352.8 
L 234 352.8 
" style="fill:none;stroke:#000000;stroke-opacity:0.8;stroke-width:1.5;"/>
    <path clip-path="url(#p9509d8b5bc)" d="M 126 338.4 
L 171.670649 338.4 
" style="fill:none;stroke:#000000;stroke-opacity:0.8;stroke-width:1.5;"/>
    <path clip-path="url(#p9509d8b5bc)" d="M 188.329351 338.4 
L 234 338.4 
" style="fill:none;stroke:#000000;stroke-opacity:0.8;stroke-width:1.5;"/>
    <path clip-path="url(#p9509d8b5bc)" d="M 126 324 
L 175.632468 324 
" style="fill:none;stroke:#000000;stroke-opacity:0.8;stroke-width:1.5;"/>
    <path clip-path="url(#p9509d8b5bc)" d="M 184.367532 324 
L 234 324 
" style="fill:none;stroke:#000000;stroke-opacity:0.8;stroke-width:1.5;"/>
    <path clip-path="url(#p9509d8b5bc)" d="M 126 309.6 
L 161.232468 309.6 
" style="fill:none;stroke:#000000;stroke-opacity:0.8;stroke-width:1.5;"/>
    <path clip-path="url(#p9509d8b5bc)" d="M 198.767532 309.6 
L 234 309.6 
" style="fill:none;stroke:#000000;stroke-opacity:0.8;stroke-width:1.5;"/>
    <path clip-path="url(#p9509d8b5bc)" d="M 126 295.2 
L 146.832468 295.2 
" style="fill:none;stroke:#000000;stroke-opacity:0.8;stroke-width:1.5;"/>
    <path clip-path="url(#p9509d8b5bc)" d="M 213.167532 295.2 
L 234 295.2 
" style="fill:none;stroke:#000000;stroke-opacity:0.8;stroke-width:1.5;"/>
    <path clip-path="url(#p9509d8b5bc)" d="M 126 280.8 
L 132.432468 280.8 
" style="fill:none;stroke:#000000;stroke-opacity:0.8;stroke-width:1.5;"/>
    <path clip-path="url(#p9509d8b5bc)" d="M 227.567532 280.8 
L 234 280.8 
" style="fill:none;stroke:#000000;stroke-opacity:0.8;stroke-width:1.5;"/>
    <path clip-path="url(#p9509d8b5bc)" d="M 126 223.2 
L 132.432468 223.2 
" style="fill:none;stroke:#000000;stroke-opacity:0.8;stroke-width:1.5;"/>
    <path clip-path="url(#p9509d8b5bc)" d="M 227.567532 223.2 
L 234 223.2 
" style="fill:none;stroke:#000000;stroke-opacity:0.8;stroke-width:1.5;"/>
    <path clip-path="url(#p9509d8b5bc)" d="M 126 208.8 
L 146.832468 208.8 
" style="fill:none;stroke:#000000;stroke-opacity:0.8;stroke-width:1.5;"/>
    <path clip-path="url(#p9509d8b5bc)" d="M 213.167532 208.8 
L 234 208.8 
" style="fill:none;stroke:#000000;stroke-opacity:0.8;stroke-width:1.5;"/>
    <path clip-path="url(#p9509d8b5bc)" d="M 126 194.4 
L 161.232468 194.4 
" style="fill:none;stroke:#000000;stroke-opacity:0.8;stroke-width:1.5;"/>
    <path clip-path="url(#p9509d8b5bc)" d="M 198.767532 194.4 
L 234 194.4 
" style="fill:none;stroke:#000000;stroke-opacity:0.8;stroke-width:1.5;"/>
    <path clip-path="url(#p9509d8b5bc)" d="M 126 180 
L 175.632468 180 
" style="fill:none;stroke:#000000;stroke-opacity:0.8;stroke-width:1.5;"/>
    <path clip-path="url(#p9509d8b5bc)" d="M 184.367532 180 
L 234 180 
" style="fill:none;stroke:#000000;stroke-opacity:0.8;stroke-width:1.5;"/>
    <path clip-path="url(#p9509d8b5bc)" d="M 126 165.6 
L 171.670649 165.6 
" style="fill:none;stroke:#000000;stroke-opacity:0.8;stroke-width:1.5;"/>
    <path clip-path="url(#p9509d8b5bc)" d="M 188.329351 165.6 
L 234 165.6 
" style="fill:none;stroke:#000000;stroke-opacity:0.8;stroke-width:1.5;"/>
    <path clip-path="url(#p9509d8b5bc)" d="M 126 151.2 
L 157.270649 151.2 
" style="fill:none;stroke:#000000;stroke-opacity:0.8;stroke-width:1.5;"/>
    <path clip-path="url(#p9509d8b5bc)" d="M 202.729351 151.2 
L 234 151.2 
" style="fill:none;stroke:#000000;stroke-opacity:0.8;stroke-width:1.5;"/>
    <path clip-path="url(#p9509d8b5bc)" d="M 126 136.8 
L 142.870649 136.8 
" style="fill:none;stroke:#000000;stroke-opacity:0.8;stroke-width:1.5;"/>
    <path clip-path="url(#p9509d8b5bc)" d="M 217.129351 136.8 
L 234 136.8 
" style="fill:none;stroke:#000000;stroke-opacity:0.8;stroke-width:1.5;"/>
    <path clip-path="url(#p9509d8b5bc)" d="M 126 122.4 
L 150.070649 122.4 
" style="fill:none;stroke:#000000;stroke-opacity:0.8;stroke-width:1.5;"/>
    <path clip-path="url(#p9509d8b5bc)" d="M 209.929351 122.4 
L 234 122.4 
" style="fill:none;stroke:#000000;stroke-opacity:0.8;stroke-width:1.5;"/>
    <path clip-path="url(#p9509d8b5bc)" d="M 126 108 
L 164.470649 108 
" style="fill:none;stroke:#000000;stroke-opacity:0.8;stroke-width:1.5;"/>
    <path clip-path="url(#p9509d8b5bc)" d="M 195.529351 108 
L 234 108 
" style="fill:none;stroke:#000000;stroke-opacity:0.8;stroke-width:1.5;"/>
    <path clip-path="url(#p9509d8b5bc)" d="M 126 93.6 
L 178.870649 93.6 
" style="fill:none;stroke:#000000;stroke-opacity:0.8;stroke-width:1.5;"/>
    <path clip-path="url(#p9509d8b5bc)" d="M 181.129351 93.6 
L 234 93.6 
" style="fill:none;stroke:#000000;stroke-opacity:0.8;stroke-width:1.5;"/>
    <path clip-path="url(#p9509d8b5bc)" d="M 126 79.2 
L 234 79.2 
" style="fill:none;stroke:#000000;stroke-opacity:0.8;stroke-width:1.5;"/>
    <path clip-path="url(#p9509d8b5bc)" d="M 126 64.8 
L 234 64.8 
" style="fill:none;stroke:#000000;stroke-opacity:0.8;stroke-width:1.5;"/>
    <path clip-path="url(#p9509d8b5bc)" d="M 126 50.4 
L 234 50.4 
" style="fill:none;stroke:#000000;stroke-opacity:0.8;stroke-width:1.5;"/>
    <path clip-path="url(#p9509d8b5bc)" d="M 126 36 
L 234 36 
" style="fill:none;stroke:#000000;stroke-opacity:0.8;stroke-width:1.5;"/>
    <path clip-path="url(#p9509d8b5bc)" d="M 126 21.6 
L 234 21.6 
" style="fill:none;stroke:#000000;stroke-opacity:0.8;stroke-width:1.5;"/>
    <path clip-path="url(#p9509d8b5bc)" d="M 126 7.2 
L 234 7.2 
" style="fill:none;stroke:#000000;stroke-opacity:0.8;stroke-width:1.5;"/>
    <path clip-path="url(#p9509d8b5bc)" d="M 126 504 
L 126 274.367532 
" style="fill:none;stroke:#000000;stroke-opacity:0.8;stroke-width:1.5;"/>
    <path clip-path="url(#p9509d8b5bc)" d="M 126 229.632468 
L 126 0 
" style="fill:none;stroke:#000000;stroke-opacity:0.8;stroke-width:1.5;"/>
    <path clip-path="url(#p9509d8b5bc)" d="M 234 0 
L 234 229.632468 
" style="fill:none;stroke:#000000;stroke-opacity:0.8;stroke-width:1.5;"/>
    <path clip-path="url(#p9509d8b5bc)" d="M 234 274.367532 
L 234 504 
" style="fill:none;stroke:#000000;stroke-opacity:0.8;stroke-width:1.5;"/>
    <path clip-path="url(#p9509d8b5bc)" d="M 256.367532 252 
L 180 175.632468 
L 103.632468 252 
L 180 328.367532 
L 256.367532 252 
" style="fill:none;stroke:#000000;stroke-opacity:0.8;stroke-width:1.5;"/>
    <path clip-path="url(#p9509d8b5bc)" d="M 220.729351 133.2 
L 180 92.470649 
L 139.270649 133.2 
L 180 173.929351 
L 220.729351 133.2 
" style="fill:none;stroke:#000000;stroke-opacity:0.8;stroke-width:1.5;"/>
    <path clip-path="url(#p9509d8b5bc)" d="M 220.729351 370.8 
L 180 330.070649 
L 139.270649 370.8 
L 180 411.529351 
L 220.729351 370.8 
" style="fill:none;stroke:#000000;stroke-opacity:0.8;stroke-width:1.5;"/>
   </g>
  </g>
 </g>
 <defs>
  <clipPath id="p9509d8b5bc">
   <rect height="504" width="360" x="0" y="0"/>
  </clipPath>
 </defs>
</svg>
