<?xml version="1.0" encoding="utf-8" standalone="no"?>
<!DOCTYPE svg PUBLIC "-//W3C//DTD SVG 1.1//EN"
  "http://www.w3.org/Graphics/SVG/1.1/DTD/svg11.dtd">
<!-- Created with matplotlib (https://matplotlib.org/) -->
<svg height="504pt" version="1.1" viewBox="0 0 360 504" width="360pt" xmlns="http://www.w3.org/2000/svg" xmlns:xlink="http://www.w3.org/1999/xlink">
 <defs>
  <style type="text/css">
*{stroke-linecap:butt;stroke-linejoin:round;}
  </style>
 </defs>
 <g id="figure_1">
  <g id="axes_1">
   <g id="LineCollection_1">
    <path clip-path="url(#pa7a53374e9)" d="M 144 496.8 
L 216 496.8 
" style="fill:none;stroke:#000000;stroke-opacity:0.8;stroke-width:1.5;"/>
    <path clip-path="url(#pa7a53374e9)" d="M 144 489.305555 
L 216 489.305555 
" style="fill:none;stroke:#000000;stroke-opacity:0.8;stroke-width:1.5;"/>
    <path clip-path="url(#pa7a53374e9)" d="M 144 481.031017 
L 216 481.031017 
" style="fill:none;stroke:#000000;stroke-opacity:0.8;stroke-width:1.5;"/>
    <path clip-path="url(#pa7a53374e9)" d="M 144 471.895186 
L 216 471.895186 
" style="fill:none;stroke:#000000;stroke-opacity:0.8;stroke-width:1.5;"/>
    <path clip-path="url(#pa7a53374e9)" d="M 144 461.808411 
L 216 461.808411 
" style="fill:none;stroke:#000000;stroke-opacity:0.8;stroke-width:1.5;"/>
    <path clip-path="url(#pa7a53374e9)" d="M 144 450.671709 
L 216 450.671709 
" style="fill:none;stroke:#000000;stroke-opacity:0.8;stroke-width:1.5;"/>
    <path clip-path="url(#pa7a53374e9)" d="M 144 438.375792 
L 216 438.375792 
" style="fill:none;stroke:#000000;stroke-opacity:0.8;stroke-width:1.5;"/>
    <path clip-path="url(#pa7a53374e9)" d="M 144 424.8 
L 216 424.8 
" style="fill:none;stroke:#000000;stroke-opacity:0.8;stroke-width:1.5;"/>
    <path clip-path="url(#pa7a53374e9)" d="M 144 409.81111 
L 216 409.81111 
" style="fill:none;stroke:#000000;stroke-opacity:0.8;stroke-width:1.5;"/>
    <path clip-path="url(#pa7a53374e9)" d="M 144 393.262034 
L 216 393.262034 
" style="fill:none;stroke:#000000;stroke-opacity:0.8;stroke-width:1.5;"/>
    <path clip-path="url(#pa7a53374e9)" d="M 144 374.990372 
L 216 374.990372 
" style="fill:none;stroke:#000000;stroke-opacity:0.8;stroke-width:1.5;"/>
    <path clip-path="url(#pa7a53374e9)" d="M 144 354.816822 
L 216 354.816822 
" style="fill:none;stroke:#000000;stroke-opacity:0.8;stroke-width:1.5;"/>
    <path clip-path="url(#pa7a53374e9)" d="M 144 332.543417 
L 216 332.543417 
" style="fill:none;stroke:#000000;stroke-opacity:0.8;stroke-width:1.5;"/>
    <path clip-path="url(#pa7a53374e9)" d="M 144 307.951585 
L 216 307.951585 
" style="fill:none;stroke:#000000;stroke-opacity:0.8;stroke-width:1.5;"/>
    <path clip-path="url(#pa7a53374e9)" d="M 144 280.8 
L 216 280.8 
" style="fill:none;stroke:#000000;stroke-opacity:0.8;stroke-width:1.5;"/>
    <path clip-path="url(#pa7a53374e9)" d="M 144 250.82222 
L 216 250.82222 
" style="fill:none;stroke:#000000;stroke-opacity:0.8;stroke-width:1.5;"/>
    <path clip-path="url(#pa7a53374e9)" d="M 144 217.724068 
L 216 217.724068 
" style="fill:none;stroke:#000000;stroke-opacity:0.8;stroke-width:1.5;"/>
    <path clip-path="url(#pa7a53374e9)" d="M 144 181.180745 
L 216 181.180745 
" style="fill:none;stroke:#000000;stroke-opacity:0.8;stroke-width:1.5;"/>
    <path clip-path="url(#pa7a53374e9)" d="M 144 140.833645 
L 144.155553 140.833645 
" style="fill:none;stroke:#000000;stroke-opacity:0.8;stroke-width:1.5;"/>
    <path clip-path="url(#pa7a53374e9)" d="M 215.844447 140.833645 
L 216 140.833645 
" style="fill:none;stroke:#000000;stroke-opacity:0.8;stroke-width:1.5;"/>
    <path clip-path="url(#pa7a53374e9)" d="M 144 96.286835 
L 216 96.286835 
" style="fill:none;stroke:#000000;stroke-opacity:0.8;stroke-width:1.5;"/>
    <path clip-path="url(#pa7a53374e9)" d="M 144 47.103169 
L 216 47.103169 
" style="fill:none;stroke:#000000;stroke-opacity:0.8;stroke-width:1.5;"/>
    <path clip-path="url(#pa7a53374e9)" d="M 216 144 
L 215.82665 147.528617 
L 215.30827 151.023252 
L 214.449852 154.450248 
L 213.259663 157.776604 
L 211.749166 160.970283 
L 209.932906 164.000528 
L 207.828376 166.838158 
L 205.455844 169.455844 
L 202.838158 171.828376 
L 200.000528 173.932906 
L 196.970283 175.749166 
L 193.776604 177.259663 
L 190.450248 178.449852 
L 187.023252 179.30827 
L 183.528617 179.82665 
L 180 180 
L 176.471383 179.82665 
L 172.976748 179.30827 
L 169.549752 178.449852 
L 166.223396 177.259663 
L 163.029717 175.749166 
L 159.999472 173.932906 
L 157.161842 171.828376 
L 154.544156 169.455844 
L 152.171624 166.838158 
L 150.067094 164.000528 
L 148.250834 160.970283 
L 146.740337 157.776604 
L 145.550148 154.450248 
L 144.69173 151.023252 
L 144.17335 147.528617 
L 144 144 
L 144.17335 140.471383 
L 144.69173 136.976748 
L 145.550148 133.549752 
L 146.740337 130.223396 
L 148.250834 127.029717 
L 150.067094 123.999472 
L 152.171624 121.161842 
L 154.544156 118.544156 
L 157.161842 116.171624 
L 159.999472 114.067094 
L 163.029717 112.250834 
L 166.223396 110.740337 
L 169.549752 109.550148 
L 172.976748 108.69173 
L 176.471383 108.17335 
L 180 108 
L 183.528617 108.17335 
L 187.023252 108.69173 
L 190.450248 109.550148 
L 193.776604 110.740337 
L 196.970283 112.250834 
L 200.000528 114.067094 
L 202.838158 116.171624 
L 205.455844 118.544156 
L 207.828376 121.161842 
L 209.932906 123.999472 
L 211.749166 127.029717 
L 213.259663 130.223396 
L 214.449852 133.549752 
L 215.30827 136.976748 
L 215.82665 140.471383 
L 216 144 
L 216 144 
" style="fill:none;stroke:#000000;stroke-opacity:0.8;stroke-width:1.5;"/>
    <path clip-path="url(#pa7a53374e9)" d="M 144 504 
L 144 0 
" style="fill:none;stroke:#000000;stroke-opacity:0.8;stroke-width:1.5;"/>
    <path clip-path="url(#pa7a53374e9)" d="M 216 0 
L 216 504 
" style="fill:none;stroke:#000000;stroke-opacity:0.8;stroke-width:1.5;"/>
   </g>
  </g>
 </g>
 <defs>
  <clipPath id="pa7a53374e9">
   <rect height="504" width="360" x="0" y="0"/>
  </clipPath>
 </defs>
</svg>
