<?xml version="1.0" encoding="UTF-8" standalone="no"?>
<svg
   xmlns:dc="http://purl.org/dc/elements/1.1/"
   xmlns:cc="http://creativecommons.org/ns#"
   xmlns:rdf="http://www.w3.org/1999/02/22-rdf-syntax-ns#"
   xmlns:svg="http://www.w3.org/2000/svg"
   xmlns="http://www.w3.org/2000/svg"
   xmlns:sodipodi="http://sodipodi.sourceforge.net/DTD/sodipodi-0.dtd"
   xmlns:inkscape="http://www.inkscape.org/namespaces/inkscape"
   height="648pt"
   version="1.1"
   viewBox="0 0 504 648"
   width="504pt"
   id="svg975"
   sodipodi:docname="litho_stainglass_1.svg"
   inkscape:version="1.0.1 (c497b03c, 2020-09-10)">
  <defs
     id="defs973">
    <clipPath
       id="p0bbebbdeb5">
      <rect
         height="648"
         width="504"
         x="0"
         y="0"
         id="rect970" />
    </clipPath>
  </defs>
  <path
     clip-path="url(#p0bbebbdeb5)"
     d="M 324,210.5557 314.90444,206.19233 317.83616,216 H 324 v -5.4443"
     style="fill:none;stroke:#000000;stroke-width:2.83465;stroke-opacity:0.7"
     id="path955"
     transform="matrix(1.504873,0.000000,0.000000,1.504873,-127.228050,-163.578920)" />
  <path
     clip-path="url(#p0bbebbdeb5)"
     d="M 324,219.99807 V 216 h -21.32317 l 2.61906,6.10246 L 324,219.99807"
     style="fill:none;stroke:#000000;stroke-width:2.83465;stroke-opacity:0.7"
     id="path959"
     transform="matrix(1.504873,0.000000,0.000000,1.504873,-127.228050,-163.578920)" />
  <path
     clip-path="url(#p0bbebbdeb5)"
     d="m 304.00136,216 h 13.8348 l -2.93172,-9.80767 -5.03305,-6.60501 L 304.00136,216"
     style="fill:none;stroke:#000000;stroke-width:2.83465;stroke-opacity:0.7"
     id="path957"
     transform="matrix(1.504873,0.000000,0.000000,1.504873,-127.228050,-163.578920)" />
  <path
     clip-path="url(#p0bbebbdeb5)"
     d="m 271.99864,216 h -13.8348 l 2.93172,9.80767 5.03305,6.60501 L 271.99864,216"
     style="fill:none;stroke:#000000;stroke-width:2.83465;stroke-opacity:0.7"
     id="path965"
     transform="matrix(1.504873,0.000000,0.000000,1.504873,-127.228050,-163.578920)" />
  <path
     clip-path="url(#p0bbebbdeb5)"
     d="M 258.16384,216 H 252 v 5.4443 l 9.09556,4.36337 L 258.16384,216"
     style="fill:none;stroke:#000000;stroke-width:2.83465;stroke-opacity:0.7"
     id="path963"
     transform="matrix(1.504873,0.000000,0.000000,1.504873,-127.228050,-163.578920)" />
  <path
     clip-path="url(#p0bbebbdeb5)"
     d="m 252,216 h 21.32317 L 270.70411,209.89754 252,212.00193 V 216"
     style="fill:none;stroke:#000000;stroke-width:2.83465;stroke-opacity:0.7"
     id="path951"
     transform="matrix(1.504873,0.000000,0.000000,1.504873,-127.228050,-163.578920)" />
  <path
     clip-path="url(#p0bbebbdeb5)"
     d="m 252,216 v -3.99807 L 233.29589,209.89754 230.67683,216 H 252"
     style="fill:none;stroke:#000000;stroke-width:2.83465;stroke-opacity:0.7"
     id="path935"
     transform="matrix(1.504873,0.000000,0.000000,1.504873,-127.228050,-163.578920)" />
  <path
     clip-path="url(#p0bbebbdeb5)"
     d="m 245.83616,216 -2.93172,9.80767 L 252,221.4443 V 216 h -6.16384"
     style="fill:none;stroke:#000000;stroke-width:2.83465;stroke-opacity:0.7"
     id="path947"
     transform="matrix(1.504873,0.000000,0.000000,1.504873,-127.228050,-163.578920)" />
  <path
     clip-path="url(#p0bbebbdeb5)"
     d="m 232.00136,216 5.87003,16.41268 5.03305,-6.60501 L 245.83616,216 h -13.8348"
     style="fill:none;stroke:#000000;stroke-width:2.83465;stroke-opacity:0.7"
     id="path949"
     transform="matrix(1.504873,0.000000,0.000000,1.504873,-127.228050,-163.578920)" />
  <path
     clip-path="url(#p0bbebbdeb5)"
     d="m 199.99864,216 -5.87003,-16.41268 -5.03305,6.60501 L 186.16384,216 h 13.8348"
     style="fill:none;stroke:#000000;stroke-width:2.83465;stroke-opacity:0.7"
     id="path941"
     transform="matrix(1.504873,0.000000,0.000000,1.504873,-127.228050,-163.578920)" />
  <path
     clip-path="url(#p0bbebbdeb5)"
     d="m 186.16384,216 2.93172,-9.80767 L 180,210.5557 V 216 h 6.16384"
     style="fill:none;stroke:#000000;stroke-width:2.83465;stroke-opacity:0.7"
     id="path939"
     transform="matrix(1.504873,0.000000,0.000000,1.504873,-127.228050,-163.578920)" />
  <path
     clip-path="url(#p0bbebbdeb5)"
     d="m 180,216 v 3.99807 l 18.70411,2.10439 L 201.32317,216 H 180"
     style="fill:none;stroke:#000000;stroke-width:2.83465;stroke-opacity:0.7"
     id="path943"
     transform="matrix(1.504873,0.000000,0.000000,1.504873,-127.228050,-163.578920)" />
  <path
     clip-path="url(#p0bbebbdeb5)"
     d="M 199.4401,180 194.12861,199.58732 199.99864,216 h 30.67819 l 2.61906,-6.10246 L 205.38241,180 h -5.94231"
     style="fill:none;stroke:#000000;stroke-width:2.83465;stroke-opacity:0.7"
     id="path937"
     transform="matrix(1.504873,0.000000,0.000000,1.504873,-127.228050,-163.578920)" />
  <path
     clip-path="url(#p0bbebbdeb5)"
     d="M 232.5599,252 237.87139,232.41268 232.00136,216 h -30.67819 l -2.61906,6.10246 L 226.61759,252 h 5.94231"
     style="fill:none;stroke:#000000;stroke-width:2.83465;stroke-opacity:0.7"
     id="path945"
     transform="matrix(1.504873,0.000000,0.000000,1.504873,-127.228050,-163.578920)" />
  <path
     clip-path="url(#p0bbebbdeb5)"
     d="m 232.5599,252 5.31149,19.58732 L 232.00136,288 H 201.32317 L 198.70411,281.89754 226.61759,252 h 5.94231"
     style="fill:none;stroke:#000000;stroke-width:2.83465;stroke-opacity:0.7"
     id="path913"
     transform="matrix(1.504873,0.000000,0.000000,1.504873,-127.228050,-163.578920)" />
  <path
     clip-path="url(#p0bbebbdeb5)"
     d="m 232.00136,288 5.87003,-16.41268 5.03305,6.60501 2.93172,9.80767 h -13.8348"
     style="fill:none;stroke:#000000;stroke-width:2.83465;stroke-opacity:0.7"
     id="path917"
     transform="matrix(1.504873,0.000000,0.000000,1.504873,-127.228050,-163.578920)" />
  <path
     clip-path="url(#p0bbebbdeb5)"
     d="M 245.83616,288 242.90444,278.19233 252,282.5557 V 288 h -6.16384"
     style="fill:none;stroke:#000000;stroke-width:2.83465;stroke-opacity:0.7"
     id="path915"
     transform="matrix(1.504873,0.000000,0.000000,1.504873,-127.228050,-163.578920)" />
  <path
     clip-path="url(#p0bbebbdeb5)"
     d="m 252,288 h 21.32317 l -2.61906,6.10246 L 252,291.99807 V 288"
     style="fill:none;stroke:#000000;stroke-width:2.83465;stroke-opacity:0.7"
     id="path919"
     transform="matrix(1.504873,0.000000,0.000000,1.504873,-127.228050,-163.578920)" />
  <path
     clip-path="url(#p0bbebbdeb5)"
     d="m 252,288 v 3.99807 L 233.29589,294.10246 230.67683,288 H 252"
     style="fill:none;stroke:#000000;stroke-width:2.83465;stroke-opacity:0.7"
     id="path903"
     transform="matrix(1.504873,0.000000,0.000000,1.504873,-127.228050,-163.578920)" />
  <path
     clip-path="url(#p0bbebbdeb5)"
     d="M 258.16384,288 H 252 v -5.4443 l 9.09556,-4.36337 L 258.16384,288"
     style="fill:none;stroke:#000000;stroke-width:2.83465;stroke-opacity:0.7"
     id="path931"
     transform="matrix(1.504873,0.000000,0.000000,1.504873,-127.228050,-163.578920)" />
  <path
     clip-path="url(#p0bbebbdeb5)"
     d="m 271.99864,288 h -13.8348 l 2.93172,-9.80767 5.03305,-6.60501 L 271.99864,288"
     style="fill:none;stroke:#000000;stroke-width:2.83465;stroke-opacity:0.7"
     id="path933"
     transform="matrix(1.504873,0.000000,0.000000,1.504873,-127.228050,-163.578920)" />
  <path
     clip-path="url(#p0bbebbdeb5)"
     d="m 304.00136,288 h 13.8348 l -2.93172,9.80767 -5.03305,6.60501 L 304.00136,288"
     style="fill:none;stroke:#000000;stroke-width:2.83465;stroke-opacity:0.7"
     id="path925"
     transform="matrix(1.504873,0.000000,0.000000,1.504873,-127.228050,-163.578920)" />
  <path
     clip-path="url(#p0bbebbdeb5)"
     d="M 324,284.00193 V 288 h -21.32317 l 2.61906,-6.10246 L 324,284.00193"
     style="fill:none;stroke:#000000;stroke-width:2.83465;stroke-opacity:0.7"
     id="path927"
     transform="matrix(1.504873,0.000000,0.000000,1.504873,-127.228050,-163.578920)" />
  <path
     clip-path="url(#p0bbebbdeb5)"
     d="m 324,293.4443 -9.09556,4.36337 L 317.83616,288 H 324 v 5.4443"
     style="fill:none;stroke:#000000;stroke-width:2.83465;stroke-opacity:0.7"
     id="path923"
     transform="matrix(1.504873,0.000000,0.000000,1.504873,-127.228050,-163.578920)" />
  <path
     clip-path="url(#p0bbebbdeb5)"
     d="M 298.61759,324 270.70411,294.10246 273.32317,288 h 30.67819 l 5.87003,16.41268 L 304.5599,324 h -5.94231"
     style="fill:none;stroke:#000000;stroke-width:2.83465;stroke-opacity:0.7"
     id="path921"
     transform="matrix(1.504873,0.000000,0.000000,1.504873,-127.228050,-163.578920)" />
  <path
     clip-path="url(#p0bbebbdeb5)"
     d="M 298.61759,324 270.70411,353.89754 273.32317,360 h 30.67819 L 309.87139,343.58732 304.5599,324 h -5.94231"
     style="fill:none;stroke:#000000;stroke-width:2.83465;stroke-opacity:0.7"
     id="path889"
     transform="matrix(1.504873,0.000000,0.000000,1.504873,-127.228050,-163.578920)" />
  <path
     clip-path="url(#p0bbebbdeb5)"
     d="m 304.00136,360 h 13.8348 l -2.93172,-9.80767 -5.03305,-6.60501 L 304.00136,360"
     style="fill:none;stroke:#000000;stroke-width:2.83465;stroke-opacity:0.7"
     id="path893"
     transform="matrix(1.504873,0.000000,0.000000,1.504873,-127.228050,-163.578920)" />
  <path
     clip-path="url(#p0bbebbdeb5)"
     d="M 324,363.99807 V 360 h -21.32317 l 2.61906,6.10246 L 324,363.99807"
     style="fill:none;stroke:#000000;stroke-width:2.83465;stroke-opacity:0.7"
     id="path895"
     transform="matrix(1.504873,0.000000,0.000000,1.504873,-127.228050,-163.578920)" />
  <path
     clip-path="url(#p0bbebbdeb5)"
     d="M 324,354.5557 314.90444,350.19233 317.83616,360 H 324 v -5.4443"
     style="fill:none;stroke:#000000;stroke-width:2.83465;stroke-opacity:0.7"
     id="path891"
     transform="matrix(1.504873,0.000000,0.000000,1.504873,-127.228050,-163.578920)" />
  <path
     clip-path="url(#p0bbebbdeb5)"
     d="m 271.99864,360 h -13.8348 l 2.93172,9.80767 5.03305,6.60501 L 271.99864,360"
     style="fill:none;stroke:#000000;stroke-width:2.83465;stroke-opacity:0.7"
     id="path901"
     transform="matrix(1.504873,0.000000,0.000000,1.504873,-127.228050,-163.578920)" />
  <path
     clip-path="url(#p0bbebbdeb5)"
     d="M 258.16384,360 H 252 v 5.4443 l 9.09556,4.36337 L 258.16384,360"
     style="fill:none;stroke:#000000;stroke-width:2.83465;stroke-opacity:0.7"
     id="path899"
     transform="matrix(1.504873,0.000000,0.000000,1.504873,-127.228050,-163.578920)" />
  <path
     clip-path="url(#p0bbebbdeb5)"
     d="m 252,360 h 21.32317 L 270.70411,353.89754 252,356.00193 V 360"
     style="fill:none;stroke:#000000;stroke-width:2.83465;stroke-opacity:0.7"
     id="path887"
     transform="matrix(1.504873,0.000000,0.000000,1.504873,-127.228050,-163.578920)" />
  <path
     clip-path="url(#p0bbebbdeb5)"
     d="m 252,360 v -3.99807 L 233.29589,353.89754 230.67683,360 H 252"
     style="fill:none;stroke:#000000;stroke-width:2.83465;stroke-opacity:0.7"
     id="path871"
     transform="matrix(1.504873,0.000000,0.000000,1.504873,-127.228050,-163.578920)" />
  <path
     clip-path="url(#p0bbebbdeb5)"
     d="m 245.83616,360 -2.93172,9.80767 L 252,365.4443 V 360 h -6.16384"
     style="fill:none;stroke:#000000;stroke-width:2.83465;stroke-opacity:0.7"
     id="path883"
     transform="matrix(1.504873,0.000000,0.000000,1.504873,-127.228050,-163.578920)" />
  <path
     clip-path="url(#p0bbebbdeb5)"
     d="m 232.00136,360 5.87003,16.41268 5.03305,-6.60501 L 245.83616,360 h -13.8348"
     style="fill:none;stroke:#000000;stroke-width:2.83465;stroke-opacity:0.7"
     id="path885"
     transform="matrix(1.504873,0.000000,0.000000,1.504873,-127.228050,-163.578920)" />
  <path
     clip-path="url(#p0bbebbdeb5)"
     d="m 199.99864,360 -5.87003,-16.41268 -5.03305,6.60501 L 186.16384,360 h 13.8348"
     style="fill:none;stroke:#000000;stroke-width:2.83465;stroke-opacity:0.7"
     id="path877"
     transform="matrix(1.504873,0.000000,0.000000,1.504873,-127.228050,-163.578920)" />
  <path
     clip-path="url(#p0bbebbdeb5)"
     d="m 186.16384,360 2.93172,-9.80767 L 180,354.5557 V 360 h 6.16384"
     style="fill:none;stroke:#000000;stroke-width:2.83465;stroke-opacity:0.7"
     id="path875"
     transform="matrix(1.504873,0.000000,0.000000,1.504873,-127.228050,-163.578920)" />
  <path
     clip-path="url(#p0bbebbdeb5)"
     d="m 180,360 v 3.99807 l 18.70411,2.10439 L 201.32317,360 H 180"
     style="fill:none;stroke:#000000;stroke-width:2.83465;stroke-opacity:0.7"
     id="path879"
     transform="matrix(1.504873,0.000000,0.000000,1.504873,-127.228050,-163.578920)" />
  <path
     clip-path="url(#p0bbebbdeb5)"
     d="M 199.4401,324 194.12861,304.41268 199.99864,288 h 30.67819 l 2.61906,6.10246 L 205.38241,324 h -5.94231"
     style="fill:none;stroke:#000000;stroke-width:2.83465;stroke-opacity:0.7"
     id="path905"
     transform="matrix(1.504873,0.000000,0.000000,1.504873,-127.228050,-163.578920)" />
  <path
     clip-path="url(#p0bbebbdeb5)"
     d="M 199.4401,324 194.12861,343.58732 199.99864,360 h 30.67819 l 2.61906,-6.10246 L 205.38241,324 h -5.94231"
     style="fill:none;stroke:#000000;stroke-width:2.83465;stroke-opacity:0.7"
     id="path873"
     transform="matrix(1.504873,0.000000,0.000000,1.504873,-127.228050,-163.578920)" />
  <path
     clip-path="url(#p0bbebbdeb5)"
     d="m 199.99864,288 -5.87003,16.41268 -5.03305,-6.60501 L 186.16384,288 h 13.8348"
     style="fill:none;stroke:#000000;stroke-width:2.83465;stroke-opacity:0.7"
     id="path909"
     transform="matrix(1.504873,0.000000,0.000000,1.504873,-127.228050,-163.578920)" />
  <path
     clip-path="url(#p0bbebbdeb5)"
     d="m 186.16384,288 2.93172,9.80767 L 180,293.4443 V 288 h 6.16384"
     style="fill:none;stroke:#000000;stroke-width:2.83465;stroke-opacity:0.7"
     id="path907"
     transform="matrix(1.504873,0.000000,0.000000,1.504873,-127.228050,-163.578920)" />
  <path
     clip-path="url(#p0bbebbdeb5)"
     d="m 180,288 v -3.99807 L 198.70411,281.89754 201.32317,288 H 180"
     style="fill:none;stroke:#000000;stroke-width:2.83465;stroke-opacity:0.7"
     id="path911"
     transform="matrix(1.504873,0.000000,0.000000,1.504873,-127.228050,-163.578920)" />
  <path
     clip-path="url(#p0bbebbdeb5)"
     d="M 277.38241,252 305.29589,222.10246 302.67683,216 H 271.99864 L 266.12861,232.41268 271.4401,252 h 5.94231"
     style="fill:none;stroke:#000000;stroke-width:2.83465;stroke-opacity:0.7"
     id="path961"
     transform="matrix(1.504873,0.000000,0.000000,1.504873,-127.228050,-163.578920)" />
  <path
     clip-path="url(#p0bbebbdeb5)"
     d="M 277.38241,252 305.29589,281.89754 302.67683,288 H 271.99864 L 266.12861,271.58732 271.4401,252 h 5.94231"
     style="fill:none;stroke:#000000;stroke-width:2.83465;stroke-opacity:0.7"
     id="path929"
     transform="matrix(1.504873,0.000000,0.000000,1.504873,-127.228050,-163.578920)" />
  <path
     clip-path="url(#p0bbebbdeb5)"
     d="M 298.61759,180 270.70411,209.89754 273.32317,216 h 30.67819 L 309.87139,199.58732 304.5599,180 h -5.94231"
     style="fill:none;stroke:#000000;stroke-width:2.83465;stroke-opacity:0.7"
     id="path953"
     transform="matrix(1.504873,0.000000,0.000000,1.504873,-127.228050,-163.578920)" />
  <path
     clip-path="url(#p0bbebbdeb5)"
     d="M 277.38241,396 305.29589,366.10246 302.67683,360 H 271.99864 L 266.12861,376.41268 271.4401,396 h 5.94231"
     style="fill:none;stroke:#000000;stroke-width:2.83465;stroke-opacity:0.7"
     id="path897"
     transform="matrix(1.504873,0.000000,0.000000,1.504873,-127.228050,-163.578920)" />
  <path
     clip-path="url(#p0bbebbdeb5)"
     d="M 277.38241,396 305.29589,425.89754 302.67683,432 H 271.99864 L 266.12861,415.58732 271.4401,396 h 5.94231"
     style="fill:none;stroke:#000000;stroke-width:2.83465;stroke-opacity:0.7"
     id="path865"
     transform="matrix(1.504873,0.000000,0.000000,1.504873,-127.228050,-163.578920)" />
  <path
     clip-path="url(#p0bbebbdeb5)"
     d="m 271.99864,432 h -13.8348 l 2.93172,-9.80767 5.03305,-6.60501 L 271.99864,432"
     style="fill:none;stroke:#000000;stroke-width:2.83465;stroke-opacity:0.7"
     id="path869"
     transform="matrix(1.504873,0.000000,0.000000,1.504873,-127.228050,-163.578920)" />
  <path
     clip-path="url(#p0bbebbdeb5)"
     d="M 258.16384,432 H 252 v -5.4443 l 9.09556,-4.36337 L 258.16384,432"
     style="fill:none;stroke:#000000;stroke-width:2.83465;stroke-opacity:0.7"
     id="path867"
     transform="matrix(1.504873,0.000000,0.000000,1.504873,-127.228050,-163.578920)" />
  <path
     clip-path="url(#p0bbebbdeb5)"
     d="m 252,432 h 21.32317 l -2.61906,6.10246 L 252,435.99807 V 432"
     style="fill:none;stroke:#000000;stroke-width:2.83465;stroke-opacity:0.7"
     id="path855"
     transform="matrix(1.504873,0.000000,0.000000,1.504873,-127.228050,-163.578920)" />
  <path
     clip-path="url(#p0bbebbdeb5)"
     d="m 252,432 v 3.99807 L 233.29589,438.10246 230.67683,432 H 252"
     style="fill:none;stroke:#000000;stroke-width:2.83465;stroke-opacity:0.7"
     id="path839"
     transform="matrix(1.504873,0.000000,0.000000,1.504873,-127.228050,-163.578920)" />
  <path
     clip-path="url(#p0bbebbdeb5)"
     d="M 245.83616,432 242.90444,422.19233 252,426.5557 V 432 h -6.16384"
     style="fill:none;stroke:#000000;stroke-width:2.83465;stroke-opacity:0.7"
     id="path851"
     transform="matrix(1.504873,0.000000,0.000000,1.504873,-127.228050,-163.578920)" />
  <path
     clip-path="url(#p0bbebbdeb5)"
     d="m 232.00136,432 5.87003,-16.41268 5.03305,6.60501 2.93172,9.80767 h -13.8348"
     style="fill:none;stroke:#000000;stroke-width:2.83465;stroke-opacity:0.7"
     id="path853"
     transform="matrix(1.504873,0.000000,0.000000,1.504873,-127.228050,-163.578920)" />
  <path
     clip-path="url(#p0bbebbdeb5)"
     d="m 199.99864,432 -5.87003,16.41268 -5.03305,-6.60501 L 186.16384,432 h 13.8348"
     style="fill:none;stroke:#000000;stroke-width:2.83465;stroke-opacity:0.7"
     id="path845"
     transform="matrix(1.504873,0.000000,0.000000,1.504873,-127.228050,-163.578920)" />
  <path
     clip-path="url(#p0bbebbdeb5)"
     d="m 186.16384,432 2.93172,9.80767 L 180,437.4443 V 432 h 6.16384"
     style="fill:none;stroke:#000000;stroke-width:2.83465;stroke-opacity:0.7"
     id="path843"
     transform="matrix(1.504873,0.000000,0.000000,1.504873,-127.228050,-163.578920)" />
  <path
     clip-path="url(#p0bbebbdeb5)"
     d="m 180,432 v -3.99807 L 198.70411,425.89754 201.32317,432 H 180"
     style="fill:none;stroke:#000000;stroke-width:2.83465;stroke-opacity:0.7"
     id="path847"
     transform="matrix(1.504873,0.000000,0.000000,1.504873,-127.228050,-163.578920)" />
  <path
     clip-path="url(#p0bbebbdeb5)"
     d="M 199.4401,468 194.12861,448.41268 199.99864,432 h 30.67819 l 2.61906,6.10246 L 205.38241,468 h -5.94231"
     style="fill:none;stroke:#000000;stroke-width:2.83465;stroke-opacity:0.7"
     id="path841"
     transform="matrix(1.504873,0.000000,0.000000,1.504873,-127.228050,-163.578920)" />
  <path
     clip-path="url(#p0bbebbdeb5)"
     d="M 232.5599,396 237.87139,376.41268 232.00136,360 h -30.67819 l -2.61906,6.10246 L 226.61759,396 h 5.94231"
     style="fill:none;stroke:#000000;stroke-width:2.83465;stroke-opacity:0.7"
     id="path881"
     transform="matrix(1.504873,0.000000,0.000000,1.504873,-127.228050,-163.578920)" />
  <path
     clip-path="url(#p0bbebbdeb5)"
     d="m 232.5599,396 5.31149,19.58732 L 232.00136,432 H 201.32317 L 198.70411,425.89754 226.61759,396 h 5.94231"
     style="fill:none;stroke:#000000;stroke-width:2.83465;stroke-opacity:0.7"
     id="path849"
     transform="matrix(1.504873,0.000000,0.000000,1.504873,-127.228050,-163.578920)" />
  <path
     clip-path="url(#p0bbebbdeb5)"
     d="m 304.00136,432 h 13.8348 l -2.93172,9.80767 -5.03305,6.60501 L 304.00136,432"
     style="fill:none;stroke:#000000;stroke-width:2.83465;stroke-opacity:0.7"
     id="path861"
     transform="matrix(1.504873,0.000000,0.000000,1.504873,-127.228050,-163.578920)" />
  <path
     clip-path="url(#p0bbebbdeb5)"
     d="M 324,428.00193 V 432 h -21.32317 l 2.61906,-6.10246 L 324,428.00193"
     style="fill:none;stroke:#000000;stroke-width:2.83465;stroke-opacity:0.7"
     id="path863"
     transform="matrix(1.504873,0.000000,0.000000,1.504873,-127.228050,-163.578920)" />
  <path
     clip-path="url(#p0bbebbdeb5)"
     d="m 324,437.4443 -9.09556,4.36337 L 317.83616,432 H 324 v 5.4443"
     style="fill:none;stroke:#000000;stroke-width:2.83465;stroke-opacity:0.7"
     id="path859"
     transform="matrix(1.504873,0.000000,0.000000,1.504873,-127.228050,-163.578920)" />
  <path
     clip-path="url(#p0bbebbdeb5)"
     d="M 298.61759,468 270.70411,438.10246 273.32317,432 h 30.67819 l 5.87003,16.41268 L 304.5599,468 h -5.94231"
     style="fill:none;stroke:#000000;stroke-width:2.83465;stroke-opacity:0.7"
     id="path857"
     transform="matrix(1.504873,0.000000,0.000000,1.504873,-127.228050,-163.578920)" />
  <defs
     id="defs837">
    <style
       type="text/css"
       id="style835">*{stroke-linecap:butt;stroke-linejoin:round;}</style>
  </defs>
  <metadata
     id="metadata833">
    <rdf:RDF>
      <cc:Work>
        <dc:type
           rdf:resource="http://purl.org/dc/dcmitype/StillImage" />
        <dc:date>2021-04-13T17:12:04.273181</dc:date>
        <dc:format>image/svg+xml</dc:format>
        <dc:creator>
          <cc:Agent>
            <dc:title>Matplotlib v3.3.2, https://matplotlib.org/</dc:title>
          </cc:Agent>
        </dc:creator>
        <dc:title></dc:title>
      </cc:Work>
    </rdf:RDF>
    <rdf:RDF>
      <cc:Work
         rdf:about="">
        <dc:title />
      </cc:Work>
    </rdf:RDF>
  </metadata>
  <sodipodi:namedview
     pagecolor="#ffffff"
     bordercolor="#666666"
     borderopacity="1"
     objecttolerance="10"
     gridtolerance="10"
     guidetolerance="10"
     inkscape:pageopacity="0"
     inkscape:pageshadow="2"
     inkscape:window-width="1792"
     inkscape:window-height="1120"
     id="namedview977"
     showgrid="false"
     inkscape:zoom="0.75595238"
     inkscape:cx="336"
     inkscape:cy="432"
     inkscape:window-x="0"
     inkscape:window-y="0"
     inkscape:window-maximized="0"
     inkscape:current-layer="svg975"
     inkscape:document-rotation="0"
     inkscape:document-units="in" />
  <WCB
     layer="0"
     node="0"
     lastpath="0"
     lastpathnc="0"
     lastknownposx="0"
     lastknownposy="0"
     pausedposx="0"
     pausedposy="0"
     randseed="0"
     row="0"
     application="Axidraw" />
</svg>
