<?xml version="1.0" encoding="utf-8" standalone="no"?>
<!DOCTYPE svg PUBLIC "-//W3C//DTD SVG 1.1//EN"
  "http://www.w3.org/Graphics/SVG/1.1/DTD/svg11.dtd">
<!-- Created with matplotlib (https://matplotlib.org/) -->
<svg height="414pt" version="1.1" viewBox="0 0 342 414" width="342pt" xmlns="http://www.w3.org/2000/svg" xmlns:xlink="http://www.w3.org/1999/xlink">
 <metadata>
  <rdf:RDF xmlns:cc="http://creativecommons.org/ns#" xmlns:dc="http://purl.org/dc/elements/1.1/" xmlns:rdf="http://www.w3.org/1999/02/22-rdf-syntax-ns#">
   <cc:Work>
    <dc:type rdf:resource="http://purl.org/dc/dcmitype/StillImage"/>
    <dc:date>2021-03-29T13:47:04.791410</dc:date>
    <dc:format>image/svg+xml</dc:format>
    <dc:creator>
     <cc:Agent>
      <dc:title>Matplotlib v3.3.2, https://matplotlib.org/</dc:title>
     </cc:Agent>
    </dc:creator>
   </cc:Work>
  </rdf:RDF>
 </metadata>
 <defs>
  <style type="text/css">*{stroke-linecap:butt;stroke-linejoin:round;}</style>
 </defs>
 <g id="figure_1">
  <g id="axes_1">
   <g id="LineCollection_1">
    <path clip-path="url(#pf32ce3c2c4)" d="M 174.6 63 
L 279 63 
L 279 351 
L 174.6 351 
L 174.6 63 
" style="fill:none;stroke:#000000;stroke-opacity:0.7;stroke-width:1.417324;"/>
    <path clip-path="url(#pf32ce3c2c4)" d="M 167.4 351 
L 63 351 
L 63 63 
L 167.4 63 
L 167.4 351 
" style="fill:none;stroke:#000000;stroke-opacity:0.7;stroke-width:1.417324;"/>
    <path clip-path="url(#pf32ce3c2c4)" d="M 174.6 374.4 
L 174.6 39.6 
L 167.4 39.6 
L 167.4 374.4 
L 174.6 374.4 
" style="fill:none;stroke:#000000;stroke-opacity:0.7;stroke-width:1.417324;"/>
    <path clip-path="url(#pf32ce3c2c4)" d="M 63 348.677419 
L 167.4 348.677419 
" style="fill:none;stroke:#000000;stroke-opacity:0.7;stroke-width:1.417324;"/>
    <path clip-path="url(#pf32ce3c2c4)" d="M 174.6 348.677419 
L 279 348.677419 
" style="fill:none;stroke:#000000;stroke-opacity:0.7;stroke-width:1.417324;"/>
    <path clip-path="url(#pf32ce3c2c4)" d="M 63 346.354839 
L 167.4 346.354839 
" style="fill:none;stroke:#000000;stroke-opacity:0.7;stroke-width:1.417324;"/>
    <path clip-path="url(#pf32ce3c2c4)" d="M 174.6 346.354839 
L 279 346.354839 
" style="fill:none;stroke:#000000;stroke-opacity:0.7;stroke-width:1.417324;"/>
    <path clip-path="url(#pf32ce3c2c4)" d="M 63 344.032258 
L 167.4 344.032258 
" style="fill:none;stroke:#000000;stroke-opacity:0.7;stroke-width:1.417324;"/>
    <path clip-path="url(#pf32ce3c2c4)" d="M 174.6 344.032258 
L 279 344.032258 
" style="fill:none;stroke:#000000;stroke-opacity:0.7;stroke-width:1.417324;"/>
    <path clip-path="url(#pf32ce3c2c4)" d="M 63 341.709677 
L 167.4 341.709677 
" style="fill:none;stroke:#000000;stroke-opacity:0.7;stroke-width:1.417324;"/>
    <path clip-path="url(#pf32ce3c2c4)" d="M 174.6 341.709677 
L 279 341.709677 
" style="fill:none;stroke:#000000;stroke-opacity:0.7;stroke-width:1.417324;"/>
    <path clip-path="url(#pf32ce3c2c4)" d="M 63 339.387097 
L 167.4 339.387097 
" style="fill:none;stroke:#000000;stroke-opacity:0.7;stroke-width:1.417324;"/>
    <path clip-path="url(#pf32ce3c2c4)" d="M 174.6 339.387097 
L 279 339.387097 
" style="fill:none;stroke:#000000;stroke-opacity:0.7;stroke-width:1.417324;"/>
    <path clip-path="url(#pf32ce3c2c4)" d="M 63 337.064516 
L 167.4 337.064516 
" style="fill:none;stroke:#000000;stroke-opacity:0.7;stroke-width:1.417324;"/>
    <path clip-path="url(#pf32ce3c2c4)" d="M 174.6 337.064516 
L 279 337.064516 
" style="fill:none;stroke:#000000;stroke-opacity:0.7;stroke-width:1.417324;"/>
    <path clip-path="url(#pf32ce3c2c4)" d="M 63 334.741935 
L 167.4 334.741935 
" style="fill:none;stroke:#000000;stroke-opacity:0.7;stroke-width:1.417324;"/>
    <path clip-path="url(#pf32ce3c2c4)" d="M 174.6 334.741935 
L 279 334.741935 
" style="fill:none;stroke:#000000;stroke-opacity:0.7;stroke-width:1.417324;"/>
    <path clip-path="url(#pf32ce3c2c4)" d="M 63 332.419355 
L 167.4 332.419355 
" style="fill:none;stroke:#000000;stroke-opacity:0.7;stroke-width:1.417324;"/>
    <path clip-path="url(#pf32ce3c2c4)" d="M 174.6 332.419355 
L 279 332.419355 
" style="fill:none;stroke:#000000;stroke-opacity:0.7;stroke-width:1.417324;"/>
    <path clip-path="url(#pf32ce3c2c4)" d="M 63 330.096774 
L 167.4 330.096774 
" style="fill:none;stroke:#000000;stroke-opacity:0.7;stroke-width:1.417324;"/>
    <path clip-path="url(#pf32ce3c2c4)" d="M 174.6 330.096774 
L 279 330.096774 
" style="fill:none;stroke:#000000;stroke-opacity:0.7;stroke-width:1.417324;"/>
    <path clip-path="url(#pf32ce3c2c4)" d="M 63 327.774194 
L 167.4 327.774194 
" style="fill:none;stroke:#000000;stroke-opacity:0.7;stroke-width:1.417324;"/>
    <path clip-path="url(#pf32ce3c2c4)" d="M 174.6 327.774194 
L 279 327.774194 
" style="fill:none;stroke:#000000;stroke-opacity:0.7;stroke-width:1.417324;"/>
    <path clip-path="url(#pf32ce3c2c4)" d="M 63 325.451613 
L 167.4 325.451613 
" style="fill:none;stroke:#000000;stroke-opacity:0.7;stroke-width:1.417324;"/>
    <path clip-path="url(#pf32ce3c2c4)" d="M 174.6 325.451613 
L 279 325.451613 
" style="fill:none;stroke:#000000;stroke-opacity:0.7;stroke-width:1.417324;"/>
    <path clip-path="url(#pf32ce3c2c4)" d="M 63 323.129032 
L 167.4 323.129032 
" style="fill:none;stroke:#000000;stroke-opacity:0.7;stroke-width:1.417324;"/>
    <path clip-path="url(#pf32ce3c2c4)" d="M 174.6 323.129032 
L 279 323.129032 
" style="fill:none;stroke:#000000;stroke-opacity:0.7;stroke-width:1.417324;"/>
    <path clip-path="url(#pf32ce3c2c4)" d="M 63 320.806452 
L 167.4 320.806452 
" style="fill:none;stroke:#000000;stroke-opacity:0.7;stroke-width:1.417324;"/>
    <path clip-path="url(#pf32ce3c2c4)" d="M 174.6 320.806452 
L 279 320.806452 
" style="fill:none;stroke:#000000;stroke-opacity:0.7;stroke-width:1.417324;"/>
    <path clip-path="url(#pf32ce3c2c4)" d="M 63 318.483871 
L 167.4 318.483871 
" style="fill:none;stroke:#000000;stroke-opacity:0.7;stroke-width:1.417324;"/>
    <path clip-path="url(#pf32ce3c2c4)" d="M 174.6 318.483871 
L 279 318.483871 
" style="fill:none;stroke:#000000;stroke-opacity:0.7;stroke-width:1.417324;"/>
    <path clip-path="url(#pf32ce3c2c4)" d="M 63 316.16129 
L 167.4 316.16129 
" style="fill:none;stroke:#000000;stroke-opacity:0.7;stroke-width:1.417324;"/>
    <path clip-path="url(#pf32ce3c2c4)" d="M 174.6 316.16129 
L 279 316.16129 
" style="fill:none;stroke:#000000;stroke-opacity:0.7;stroke-width:1.417324;"/>
    <path clip-path="url(#pf32ce3c2c4)" d="M 63 313.83871 
L 167.4 313.83871 
" style="fill:none;stroke:#000000;stroke-opacity:0.7;stroke-width:1.417324;"/>
    <path clip-path="url(#pf32ce3c2c4)" d="M 174.6 313.83871 
L 279 313.83871 
" style="fill:none;stroke:#000000;stroke-opacity:0.7;stroke-width:1.417324;"/>
    <path clip-path="url(#pf32ce3c2c4)" d="M 63 311.516129 
L 167.4 311.516129 
" style="fill:none;stroke:#000000;stroke-opacity:0.7;stroke-width:1.417324;"/>
    <path clip-path="url(#pf32ce3c2c4)" d="M 174.6 311.516129 
L 279 311.516129 
" style="fill:none;stroke:#000000;stroke-opacity:0.7;stroke-width:1.417324;"/>
    <path clip-path="url(#pf32ce3c2c4)" d="M 63 309.193548 
L 167.4 309.193548 
" style="fill:none;stroke:#000000;stroke-opacity:0.7;stroke-width:1.417324;"/>
    <path clip-path="url(#pf32ce3c2c4)" d="M 174.6 309.193548 
L 279 309.193548 
" style="fill:none;stroke:#000000;stroke-opacity:0.7;stroke-width:1.417324;"/>
    <path clip-path="url(#pf32ce3c2c4)" d="M 63 306.870968 
L 167.4 306.870968 
" style="fill:none;stroke:#000000;stroke-opacity:0.7;stroke-width:1.417324;"/>
    <path clip-path="url(#pf32ce3c2c4)" d="M 174.6 306.870968 
L 279 306.870968 
" style="fill:none;stroke:#000000;stroke-opacity:0.7;stroke-width:1.417324;"/>
    <path clip-path="url(#pf32ce3c2c4)" d="M 63 304.548387 
L 167.4 304.548387 
" style="fill:none;stroke:#000000;stroke-opacity:0.7;stroke-width:1.417324;"/>
    <path clip-path="url(#pf32ce3c2c4)" d="M 174.6 304.548387 
L 279 304.548387 
" style="fill:none;stroke:#000000;stroke-opacity:0.7;stroke-width:1.417324;"/>
    <path clip-path="url(#pf32ce3c2c4)" d="M 63 302.225806 
L 167.4 302.225806 
" style="fill:none;stroke:#000000;stroke-opacity:0.7;stroke-width:1.417324;"/>
    <path clip-path="url(#pf32ce3c2c4)" d="M 174.6 302.225806 
L 279 302.225806 
" style="fill:none;stroke:#000000;stroke-opacity:0.7;stroke-width:1.417324;"/>
    <path clip-path="url(#pf32ce3c2c4)" d="M 63 299.903226 
L 167.4 299.903226 
" style="fill:none;stroke:#000000;stroke-opacity:0.7;stroke-width:1.417324;"/>
    <path clip-path="url(#pf32ce3c2c4)" d="M 174.6 299.903226 
L 279 299.903226 
" style="fill:none;stroke:#000000;stroke-opacity:0.7;stroke-width:1.417324;"/>
    <path clip-path="url(#pf32ce3c2c4)" d="M 63 297.580645 
L 167.4 297.580645 
" style="fill:none;stroke:#000000;stroke-opacity:0.7;stroke-width:1.417324;"/>
    <path clip-path="url(#pf32ce3c2c4)" d="M 174.6 297.580645 
L 279 297.580645 
" style="fill:none;stroke:#000000;stroke-opacity:0.7;stroke-width:1.417324;"/>
    <path clip-path="url(#pf32ce3c2c4)" d="M 63 295.258065 
L 167.4 295.258065 
" style="fill:none;stroke:#000000;stroke-opacity:0.7;stroke-width:1.417324;"/>
    <path clip-path="url(#pf32ce3c2c4)" d="M 174.6 295.258065 
L 279 295.258065 
" style="fill:none;stroke:#000000;stroke-opacity:0.7;stroke-width:1.417324;"/>
    <path clip-path="url(#pf32ce3c2c4)" d="M 63 292.935484 
L 167.4 292.935484 
" style="fill:none;stroke:#000000;stroke-opacity:0.7;stroke-width:1.417324;"/>
    <path clip-path="url(#pf32ce3c2c4)" d="M 174.6 292.935484 
L 279 292.935484 
" style="fill:none;stroke:#000000;stroke-opacity:0.7;stroke-width:1.417324;"/>
    <path clip-path="url(#pf32ce3c2c4)" d="M 63 290.612903 
L 167.4 290.612903 
" style="fill:none;stroke:#000000;stroke-opacity:0.7;stroke-width:1.417324;"/>
    <path clip-path="url(#pf32ce3c2c4)" d="M 174.6 290.612903 
L 279 290.612903 
" style="fill:none;stroke:#000000;stroke-opacity:0.7;stroke-width:1.417324;"/>
    <path clip-path="url(#pf32ce3c2c4)" d="M 63 288.290323 
L 167.4 288.290323 
" style="fill:none;stroke:#000000;stroke-opacity:0.7;stroke-width:1.417324;"/>
    <path clip-path="url(#pf32ce3c2c4)" d="M 174.6 288.290323 
L 279 288.290323 
" style="fill:none;stroke:#000000;stroke-opacity:0.7;stroke-width:1.417324;"/>
    <path clip-path="url(#pf32ce3c2c4)" d="M 63 285.967742 
L 167.4 285.967742 
" style="fill:none;stroke:#000000;stroke-opacity:0.7;stroke-width:1.417324;"/>
    <path clip-path="url(#pf32ce3c2c4)" d="M 174.6 285.967742 
L 279 285.967742 
" style="fill:none;stroke:#000000;stroke-opacity:0.7;stroke-width:1.417324;"/>
    <path clip-path="url(#pf32ce3c2c4)" d="M 63 283.645161 
L 167.4 283.645161 
" style="fill:none;stroke:#000000;stroke-opacity:0.7;stroke-width:1.417324;"/>
    <path clip-path="url(#pf32ce3c2c4)" d="M 174.6 283.645161 
L 279 283.645161 
" style="fill:none;stroke:#000000;stroke-opacity:0.7;stroke-width:1.417324;"/>
    <path clip-path="url(#pf32ce3c2c4)" d="M 63 281.322581 
L 167.4 281.322581 
" style="fill:none;stroke:#000000;stroke-opacity:0.7;stroke-width:1.417324;"/>
    <path clip-path="url(#pf32ce3c2c4)" d="M 174.6 281.322581 
L 279 281.322581 
" style="fill:none;stroke:#000000;stroke-opacity:0.7;stroke-width:1.417324;"/>
    <path clip-path="url(#pf32ce3c2c4)" d="M 63 279 
L 167.4 279 
" style="fill:none;stroke:#000000;stroke-opacity:0.7;stroke-width:1.417324;"/>
    <path clip-path="url(#pf32ce3c2c4)" d="M 174.6 279 
L 279 279 
" style="fill:none;stroke:#000000;stroke-opacity:0.7;stroke-width:1.417324;"/>
    <path clip-path="url(#pf32ce3c2c4)" d="M 63 276.677419 
L 167.4 276.677419 
" style="fill:none;stroke:#000000;stroke-opacity:0.7;stroke-width:1.417324;"/>
    <path clip-path="url(#pf32ce3c2c4)" d="M 174.6 276.677419 
L 279 276.677419 
" style="fill:none;stroke:#000000;stroke-opacity:0.7;stroke-width:1.417324;"/>
    <path clip-path="url(#pf32ce3c2c4)" d="M 63 274.354839 
L 167.4 274.354839 
" style="fill:none;stroke:#000000;stroke-opacity:0.7;stroke-width:1.417324;"/>
    <path clip-path="url(#pf32ce3c2c4)" d="M 174.6 274.354839 
L 279 274.354839 
" style="fill:none;stroke:#000000;stroke-opacity:0.7;stroke-width:1.417324;"/>
    <path clip-path="url(#pf32ce3c2c4)" d="M 63 272.032258 
L 167.4 272.032258 
" style="fill:none;stroke:#000000;stroke-opacity:0.7;stroke-width:1.417324;"/>
    <path clip-path="url(#pf32ce3c2c4)" d="M 174.6 272.032258 
L 279 272.032258 
" style="fill:none;stroke:#000000;stroke-opacity:0.7;stroke-width:1.417324;"/>
    <path clip-path="url(#pf32ce3c2c4)" d="M 63 269.709677 
L 167.4 269.709677 
" style="fill:none;stroke:#000000;stroke-opacity:0.7;stroke-width:1.417324;"/>
    <path clip-path="url(#pf32ce3c2c4)" d="M 174.6 269.709677 
L 279 269.709677 
" style="fill:none;stroke:#000000;stroke-opacity:0.7;stroke-width:1.417324;"/>
    <path clip-path="url(#pf32ce3c2c4)" d="M 63 267.387097 
L 167.4 267.387097 
" style="fill:none;stroke:#000000;stroke-opacity:0.7;stroke-width:1.417324;"/>
    <path clip-path="url(#pf32ce3c2c4)" d="M 174.6 267.387097 
L 279 267.387097 
" style="fill:none;stroke:#000000;stroke-opacity:0.7;stroke-width:1.417324;"/>
    <path clip-path="url(#pf32ce3c2c4)" d="M 63 265.064516 
L 167.4 265.064516 
" style="fill:none;stroke:#000000;stroke-opacity:0.7;stroke-width:1.417324;"/>
    <path clip-path="url(#pf32ce3c2c4)" d="M 174.6 265.064516 
L 279 265.064516 
" style="fill:none;stroke:#000000;stroke-opacity:0.7;stroke-width:1.417324;"/>
    <path clip-path="url(#pf32ce3c2c4)" d="M 63 262.741935 
L 167.4 262.741935 
" style="fill:none;stroke:#000000;stroke-opacity:0.7;stroke-width:1.417324;"/>
    <path clip-path="url(#pf32ce3c2c4)" d="M 174.6 262.741935 
L 279 262.741935 
" style="fill:none;stroke:#000000;stroke-opacity:0.7;stroke-width:1.417324;"/>
    <path clip-path="url(#pf32ce3c2c4)" d="M 63 260.419355 
L 167.4 260.419355 
" style="fill:none;stroke:#000000;stroke-opacity:0.7;stroke-width:1.417324;"/>
    <path clip-path="url(#pf32ce3c2c4)" d="M 174.6 260.419355 
L 279 260.419355 
" style="fill:none;stroke:#000000;stroke-opacity:0.7;stroke-width:1.417324;"/>
    <path clip-path="url(#pf32ce3c2c4)" d="M 63 258.096774 
L 167.4 258.096774 
" style="fill:none;stroke:#000000;stroke-opacity:0.7;stroke-width:1.417324;"/>
    <path clip-path="url(#pf32ce3c2c4)" d="M 174.6 258.096774 
L 279 258.096774 
" style="fill:none;stroke:#000000;stroke-opacity:0.7;stroke-width:1.417324;"/>
    <path clip-path="url(#pf32ce3c2c4)" d="M 63 255.774194 
L 167.4 255.774194 
" style="fill:none;stroke:#000000;stroke-opacity:0.7;stroke-width:1.417324;"/>
    <path clip-path="url(#pf32ce3c2c4)" d="M 174.6 255.774194 
L 279 255.774194 
" style="fill:none;stroke:#000000;stroke-opacity:0.7;stroke-width:1.417324;"/>
    <path clip-path="url(#pf32ce3c2c4)" d="M 63 253.451613 
L 167.4 253.451613 
" style="fill:none;stroke:#000000;stroke-opacity:0.7;stroke-width:1.417324;"/>
    <path clip-path="url(#pf32ce3c2c4)" d="M 174.6 253.451613 
L 279 253.451613 
" style="fill:none;stroke:#000000;stroke-opacity:0.7;stroke-width:1.417324;"/>
    <path clip-path="url(#pf32ce3c2c4)" d="M 63 251.129032 
L 167.4 251.129032 
" style="fill:none;stroke:#000000;stroke-opacity:0.7;stroke-width:1.417324;"/>
    <path clip-path="url(#pf32ce3c2c4)" d="M 174.6 251.129032 
L 279 251.129032 
" style="fill:none;stroke:#000000;stroke-opacity:0.7;stroke-width:1.417324;"/>
    <path clip-path="url(#pf32ce3c2c4)" d="M 63 248.806452 
L 167.4 248.806452 
" style="fill:none;stroke:#000000;stroke-opacity:0.7;stroke-width:1.417324;"/>
    <path clip-path="url(#pf32ce3c2c4)" d="M 174.6 248.806452 
L 279 248.806452 
" style="fill:none;stroke:#000000;stroke-opacity:0.7;stroke-width:1.417324;"/>
    <path clip-path="url(#pf32ce3c2c4)" d="M 63 246.483871 
L 167.4 246.483871 
" style="fill:none;stroke:#000000;stroke-opacity:0.7;stroke-width:1.417324;"/>
    <path clip-path="url(#pf32ce3c2c4)" d="M 174.6 246.483871 
L 279 246.483871 
" style="fill:none;stroke:#000000;stroke-opacity:0.7;stroke-width:1.417324;"/>
    <path clip-path="url(#pf32ce3c2c4)" d="M 63 244.16129 
L 167.4 244.16129 
" style="fill:none;stroke:#000000;stroke-opacity:0.7;stroke-width:1.417324;"/>
    <path clip-path="url(#pf32ce3c2c4)" d="M 174.6 244.16129 
L 279 244.16129 
" style="fill:none;stroke:#000000;stroke-opacity:0.7;stroke-width:1.417324;"/>
    <path clip-path="url(#pf32ce3c2c4)" d="M 63 241.83871 
L 167.4 241.83871 
" style="fill:none;stroke:#000000;stroke-opacity:0.7;stroke-width:1.417324;"/>
    <path clip-path="url(#pf32ce3c2c4)" d="M 174.6 241.83871 
L 279 241.83871 
" style="fill:none;stroke:#000000;stroke-opacity:0.7;stroke-width:1.417324;"/>
    <path clip-path="url(#pf32ce3c2c4)" d="M 63 239.516129 
L 167.4 239.516129 
" style="fill:none;stroke:#000000;stroke-opacity:0.7;stroke-width:1.417324;"/>
    <path clip-path="url(#pf32ce3c2c4)" d="M 174.6 239.516129 
L 279 239.516129 
" style="fill:none;stroke:#000000;stroke-opacity:0.7;stroke-width:1.417324;"/>
    <path clip-path="url(#pf32ce3c2c4)" d="M 63 237.193548 
L 167.4 237.193548 
" style="fill:none;stroke:#000000;stroke-opacity:0.7;stroke-width:1.417324;"/>
    <path clip-path="url(#pf32ce3c2c4)" d="M 174.6 237.193548 
L 279 237.193548 
" style="fill:none;stroke:#000000;stroke-opacity:0.7;stroke-width:1.417324;"/>
    <path clip-path="url(#pf32ce3c2c4)" d="M 63 234.870968 
L 167.4 234.870968 
" style="fill:none;stroke:#000000;stroke-opacity:0.7;stroke-width:1.417324;"/>
    <path clip-path="url(#pf32ce3c2c4)" d="M 174.6 234.870968 
L 279 234.870968 
" style="fill:none;stroke:#000000;stroke-opacity:0.7;stroke-width:1.417324;"/>
    <path clip-path="url(#pf32ce3c2c4)" d="M 63 232.548387 
L 167.4 232.548387 
" style="fill:none;stroke:#000000;stroke-opacity:0.7;stroke-width:1.417324;"/>
    <path clip-path="url(#pf32ce3c2c4)" d="M 174.6 232.548387 
L 279 232.548387 
" style="fill:none;stroke:#000000;stroke-opacity:0.7;stroke-width:1.417324;"/>
    <path clip-path="url(#pf32ce3c2c4)" d="M 63 230.225806 
L 167.4 230.225806 
" style="fill:none;stroke:#000000;stroke-opacity:0.7;stroke-width:1.417324;"/>
    <path clip-path="url(#pf32ce3c2c4)" d="M 174.6 230.225806 
L 279 230.225806 
" style="fill:none;stroke:#000000;stroke-opacity:0.7;stroke-width:1.417324;"/>
    <path clip-path="url(#pf32ce3c2c4)" d="M 63 227.903226 
L 167.4 227.903226 
" style="fill:none;stroke:#000000;stroke-opacity:0.7;stroke-width:1.417324;"/>
    <path clip-path="url(#pf32ce3c2c4)" d="M 174.6 227.903226 
L 279 227.903226 
" style="fill:none;stroke:#000000;stroke-opacity:0.7;stroke-width:1.417324;"/>
    <path clip-path="url(#pf32ce3c2c4)" d="M 63 225.580645 
L 167.4 225.580645 
" style="fill:none;stroke:#000000;stroke-opacity:0.7;stroke-width:1.417324;"/>
    <path clip-path="url(#pf32ce3c2c4)" d="M 174.6 225.580645 
L 279 225.580645 
" style="fill:none;stroke:#000000;stroke-opacity:0.7;stroke-width:1.417324;"/>
    <path clip-path="url(#pf32ce3c2c4)" d="M 63 223.258065 
L 167.4 223.258065 
" style="fill:none;stroke:#000000;stroke-opacity:0.7;stroke-width:1.417324;"/>
    <path clip-path="url(#pf32ce3c2c4)" d="M 174.6 223.258065 
L 279 223.258065 
" style="fill:none;stroke:#000000;stroke-opacity:0.7;stroke-width:1.417324;"/>
    <path clip-path="url(#pf32ce3c2c4)" d="M 63 220.935484 
L 167.4 220.935484 
" style="fill:none;stroke:#000000;stroke-opacity:0.7;stroke-width:1.417324;"/>
    <path clip-path="url(#pf32ce3c2c4)" d="M 174.6 220.935484 
L 279 220.935484 
" style="fill:none;stroke:#000000;stroke-opacity:0.7;stroke-width:1.417324;"/>
    <path clip-path="url(#pf32ce3c2c4)" d="M 63 218.612903 
L 167.4 218.612903 
" style="fill:none;stroke:#000000;stroke-opacity:0.7;stroke-width:1.417324;"/>
    <path clip-path="url(#pf32ce3c2c4)" d="M 174.6 218.612903 
L 279 218.612903 
" style="fill:none;stroke:#000000;stroke-opacity:0.7;stroke-width:1.417324;"/>
    <path clip-path="url(#pf32ce3c2c4)" d="M 63 216.290323 
L 167.4 216.290323 
" style="fill:none;stroke:#000000;stroke-opacity:0.7;stroke-width:1.417324;"/>
    <path clip-path="url(#pf32ce3c2c4)" d="M 174.6 216.290323 
L 279 216.290323 
" style="fill:none;stroke:#000000;stroke-opacity:0.7;stroke-width:1.417324;"/>
    <path clip-path="url(#pf32ce3c2c4)" d="M 63 213.967742 
L 167.4 213.967742 
" style="fill:none;stroke:#000000;stroke-opacity:0.7;stroke-width:1.417324;"/>
    <path clip-path="url(#pf32ce3c2c4)" d="M 174.6 213.967742 
L 279 213.967742 
" style="fill:none;stroke:#000000;stroke-opacity:0.7;stroke-width:1.417324;"/>
    <path clip-path="url(#pf32ce3c2c4)" d="M 63 211.645161 
L 167.4 211.645161 
" style="fill:none;stroke:#000000;stroke-opacity:0.7;stroke-width:1.417324;"/>
    <path clip-path="url(#pf32ce3c2c4)" d="M 174.6 211.645161 
L 279 211.645161 
" style="fill:none;stroke:#000000;stroke-opacity:0.7;stroke-width:1.417324;"/>
    <path clip-path="url(#pf32ce3c2c4)" d="M 63 209.322581 
L 167.4 209.322581 
" style="fill:none;stroke:#000000;stroke-opacity:0.7;stroke-width:1.417324;"/>
    <path clip-path="url(#pf32ce3c2c4)" d="M 174.6 209.322581 
L 279 209.322581 
" style="fill:none;stroke:#000000;stroke-opacity:0.7;stroke-width:1.417324;"/>
    <path clip-path="url(#pf32ce3c2c4)" d="M 63 207 
L 167.4 207 
" style="fill:none;stroke:#000000;stroke-opacity:0.7;stroke-width:1.417324;"/>
    <path clip-path="url(#pf32ce3c2c4)" d="M 174.6 207 
L 279 207 
" style="fill:none;stroke:#000000;stroke-opacity:0.7;stroke-width:1.417324;"/>
    <path clip-path="url(#pf32ce3c2c4)" d="M 63 204.677419 
L 167.4 204.677419 
" style="fill:none;stroke:#000000;stroke-opacity:0.7;stroke-width:1.417324;"/>
    <path clip-path="url(#pf32ce3c2c4)" d="M 174.6 204.677419 
L 279 204.677419 
" style="fill:none;stroke:#000000;stroke-opacity:0.7;stroke-width:1.417324;"/>
    <path clip-path="url(#pf32ce3c2c4)" d="M 63 202.354839 
L 167.4 202.354839 
" style="fill:none;stroke:#000000;stroke-opacity:0.7;stroke-width:1.417324;"/>
    <path clip-path="url(#pf32ce3c2c4)" d="M 174.6 202.354839 
L 279 202.354839 
" style="fill:none;stroke:#000000;stroke-opacity:0.7;stroke-width:1.417324;"/>
    <path clip-path="url(#pf32ce3c2c4)" d="M 63 200.032258 
L 167.4 200.032258 
" style="fill:none;stroke:#000000;stroke-opacity:0.7;stroke-width:1.417324;"/>
    <path clip-path="url(#pf32ce3c2c4)" d="M 174.6 200.032258 
L 279 200.032258 
" style="fill:none;stroke:#000000;stroke-opacity:0.7;stroke-width:1.417324;"/>
    <path clip-path="url(#pf32ce3c2c4)" d="M 63 197.709677 
L 167.4 197.709677 
" style="fill:none;stroke:#000000;stroke-opacity:0.7;stroke-width:1.417324;"/>
    <path clip-path="url(#pf32ce3c2c4)" d="M 174.6 197.709677 
L 279 197.709677 
" style="fill:none;stroke:#000000;stroke-opacity:0.7;stroke-width:1.417324;"/>
    <path clip-path="url(#pf32ce3c2c4)" d="M 63 195.387097 
L 167.4 195.387097 
" style="fill:none;stroke:#000000;stroke-opacity:0.7;stroke-width:1.417324;"/>
    <path clip-path="url(#pf32ce3c2c4)" d="M 174.6 195.387097 
L 279 195.387097 
" style="fill:none;stroke:#000000;stroke-opacity:0.7;stroke-width:1.417324;"/>
    <path clip-path="url(#pf32ce3c2c4)" d="M 63 193.064516 
L 167.4 193.064516 
" style="fill:none;stroke:#000000;stroke-opacity:0.7;stroke-width:1.417324;"/>
    <path clip-path="url(#pf32ce3c2c4)" d="M 174.6 193.064516 
L 279 193.064516 
" style="fill:none;stroke:#000000;stroke-opacity:0.7;stroke-width:1.417324;"/>
    <path clip-path="url(#pf32ce3c2c4)" d="M 63 190.741935 
L 167.4 190.741935 
" style="fill:none;stroke:#000000;stroke-opacity:0.7;stroke-width:1.417324;"/>
    <path clip-path="url(#pf32ce3c2c4)" d="M 174.6 190.741935 
L 279 190.741935 
" style="fill:none;stroke:#000000;stroke-opacity:0.7;stroke-width:1.417324;"/>
    <path clip-path="url(#pf32ce3c2c4)" d="M 63 188.419355 
L 167.4 188.419355 
" style="fill:none;stroke:#000000;stroke-opacity:0.7;stroke-width:1.417324;"/>
    <path clip-path="url(#pf32ce3c2c4)" d="M 174.6 188.419355 
L 279 188.419355 
" style="fill:none;stroke:#000000;stroke-opacity:0.7;stroke-width:1.417324;"/>
    <path clip-path="url(#pf32ce3c2c4)" d="M 63 186.096774 
L 167.4 186.096774 
" style="fill:none;stroke:#000000;stroke-opacity:0.7;stroke-width:1.417324;"/>
    <path clip-path="url(#pf32ce3c2c4)" d="M 174.6 186.096774 
L 279 186.096774 
" style="fill:none;stroke:#000000;stroke-opacity:0.7;stroke-width:1.417324;"/>
    <path clip-path="url(#pf32ce3c2c4)" d="M 63 183.774194 
L 167.4 183.774194 
" style="fill:none;stroke:#000000;stroke-opacity:0.7;stroke-width:1.417324;"/>
    <path clip-path="url(#pf32ce3c2c4)" d="M 174.6 183.774194 
L 279 183.774194 
" style="fill:none;stroke:#000000;stroke-opacity:0.7;stroke-width:1.417324;"/>
    <path clip-path="url(#pf32ce3c2c4)" d="M 63 181.451613 
L 167.4 181.451613 
" style="fill:none;stroke:#000000;stroke-opacity:0.7;stroke-width:1.417324;"/>
    <path clip-path="url(#pf32ce3c2c4)" d="M 174.6 181.451613 
L 279 181.451613 
" style="fill:none;stroke:#000000;stroke-opacity:0.7;stroke-width:1.417324;"/>
    <path clip-path="url(#pf32ce3c2c4)" d="M 63 179.129032 
L 167.4 179.129032 
" style="fill:none;stroke:#000000;stroke-opacity:0.7;stroke-width:1.417324;"/>
    <path clip-path="url(#pf32ce3c2c4)" d="M 174.6 179.129032 
L 279 179.129032 
" style="fill:none;stroke:#000000;stroke-opacity:0.7;stroke-width:1.417324;"/>
    <path clip-path="url(#pf32ce3c2c4)" d="M 63 176.806452 
L 167.4 176.806452 
" style="fill:none;stroke:#000000;stroke-opacity:0.7;stroke-width:1.417324;"/>
    <path clip-path="url(#pf32ce3c2c4)" d="M 174.6 176.806452 
L 279 176.806452 
" style="fill:none;stroke:#000000;stroke-opacity:0.7;stroke-width:1.417324;"/>
    <path clip-path="url(#pf32ce3c2c4)" d="M 63 174.483871 
L 167.4 174.483871 
" style="fill:none;stroke:#000000;stroke-opacity:0.7;stroke-width:1.417324;"/>
    <path clip-path="url(#pf32ce3c2c4)" d="M 174.6 174.483871 
L 279 174.483871 
" style="fill:none;stroke:#000000;stroke-opacity:0.7;stroke-width:1.417324;"/>
    <path clip-path="url(#pf32ce3c2c4)" d="M 63 172.16129 
L 167.4 172.16129 
" style="fill:none;stroke:#000000;stroke-opacity:0.7;stroke-width:1.417324;"/>
    <path clip-path="url(#pf32ce3c2c4)" d="M 174.6 172.16129 
L 279 172.16129 
" style="fill:none;stroke:#000000;stroke-opacity:0.7;stroke-width:1.417324;"/>
    <path clip-path="url(#pf32ce3c2c4)" d="M 63 169.83871 
L 167.4 169.83871 
" style="fill:none;stroke:#000000;stroke-opacity:0.7;stroke-width:1.417324;"/>
    <path clip-path="url(#pf32ce3c2c4)" d="M 174.6 169.83871 
L 279 169.83871 
" style="fill:none;stroke:#000000;stroke-opacity:0.7;stroke-width:1.417324;"/>
    <path clip-path="url(#pf32ce3c2c4)" d="M 63 167.516129 
L 167.4 167.516129 
" style="fill:none;stroke:#000000;stroke-opacity:0.7;stroke-width:1.417324;"/>
    <path clip-path="url(#pf32ce3c2c4)" d="M 174.6 167.516129 
L 279 167.516129 
" style="fill:none;stroke:#000000;stroke-opacity:0.7;stroke-width:1.417324;"/>
    <path clip-path="url(#pf32ce3c2c4)" d="M 63 165.193548 
L 167.4 165.193548 
" style="fill:none;stroke:#000000;stroke-opacity:0.7;stroke-width:1.417324;"/>
    <path clip-path="url(#pf32ce3c2c4)" d="M 174.6 165.193548 
L 279 165.193548 
" style="fill:none;stroke:#000000;stroke-opacity:0.7;stroke-width:1.417324;"/>
    <path clip-path="url(#pf32ce3c2c4)" d="M 63 162.870968 
L 167.4 162.870968 
" style="fill:none;stroke:#000000;stroke-opacity:0.7;stroke-width:1.417324;"/>
    <path clip-path="url(#pf32ce3c2c4)" d="M 174.6 162.870968 
L 279 162.870968 
" style="fill:none;stroke:#000000;stroke-opacity:0.7;stroke-width:1.417324;"/>
    <path clip-path="url(#pf32ce3c2c4)" d="M 63 160.548387 
L 167.4 160.548387 
" style="fill:none;stroke:#000000;stroke-opacity:0.7;stroke-width:1.417324;"/>
    <path clip-path="url(#pf32ce3c2c4)" d="M 174.6 160.548387 
L 279 160.548387 
" style="fill:none;stroke:#000000;stroke-opacity:0.7;stroke-width:1.417324;"/>
    <path clip-path="url(#pf32ce3c2c4)" d="M 63 158.225806 
L 167.4 158.225806 
" style="fill:none;stroke:#000000;stroke-opacity:0.7;stroke-width:1.417324;"/>
    <path clip-path="url(#pf32ce3c2c4)" d="M 174.6 158.225806 
L 279 158.225806 
" style="fill:none;stroke:#000000;stroke-opacity:0.7;stroke-width:1.417324;"/>
    <path clip-path="url(#pf32ce3c2c4)" d="M 63 155.903226 
L 167.4 155.903226 
" style="fill:none;stroke:#000000;stroke-opacity:0.7;stroke-width:1.417324;"/>
    <path clip-path="url(#pf32ce3c2c4)" d="M 174.6 155.903226 
L 279 155.903226 
" style="fill:none;stroke:#000000;stroke-opacity:0.7;stroke-width:1.417324;"/>
    <path clip-path="url(#pf32ce3c2c4)" d="M 63 153.580645 
L 167.4 153.580645 
" style="fill:none;stroke:#000000;stroke-opacity:0.7;stroke-width:1.417324;"/>
    <path clip-path="url(#pf32ce3c2c4)" d="M 174.6 153.580645 
L 279 153.580645 
" style="fill:none;stroke:#000000;stroke-opacity:0.7;stroke-width:1.417324;"/>
    <path clip-path="url(#pf32ce3c2c4)" d="M 63 151.258065 
L 167.4 151.258065 
" style="fill:none;stroke:#000000;stroke-opacity:0.7;stroke-width:1.417324;"/>
    <path clip-path="url(#pf32ce3c2c4)" d="M 174.6 151.258065 
L 279 151.258065 
" style="fill:none;stroke:#000000;stroke-opacity:0.7;stroke-width:1.417324;"/>
    <path clip-path="url(#pf32ce3c2c4)" d="M 63 148.935484 
L 167.4 148.935484 
" style="fill:none;stroke:#000000;stroke-opacity:0.7;stroke-width:1.417324;"/>
    <path clip-path="url(#pf32ce3c2c4)" d="M 174.6 148.935484 
L 279 148.935484 
" style="fill:none;stroke:#000000;stroke-opacity:0.7;stroke-width:1.417324;"/>
    <path clip-path="url(#pf32ce3c2c4)" d="M 63 146.612903 
L 167.4 146.612903 
" style="fill:none;stroke:#000000;stroke-opacity:0.7;stroke-width:1.417324;"/>
    <path clip-path="url(#pf32ce3c2c4)" d="M 174.6 146.612903 
L 279 146.612903 
" style="fill:none;stroke:#000000;stroke-opacity:0.7;stroke-width:1.417324;"/>
    <path clip-path="url(#pf32ce3c2c4)" d="M 63 144.290323 
L 167.4 144.290323 
" style="fill:none;stroke:#000000;stroke-opacity:0.7;stroke-width:1.417324;"/>
    <path clip-path="url(#pf32ce3c2c4)" d="M 174.6 144.290323 
L 279 144.290323 
" style="fill:none;stroke:#000000;stroke-opacity:0.7;stroke-width:1.417324;"/>
    <path clip-path="url(#pf32ce3c2c4)" d="M 63 141.967742 
L 167.4 141.967742 
" style="fill:none;stroke:#000000;stroke-opacity:0.7;stroke-width:1.417324;"/>
    <path clip-path="url(#pf32ce3c2c4)" d="M 174.6 141.967742 
L 279 141.967742 
" style="fill:none;stroke:#000000;stroke-opacity:0.7;stroke-width:1.417324;"/>
    <path clip-path="url(#pf32ce3c2c4)" d="M 63 139.645161 
L 167.4 139.645161 
" style="fill:none;stroke:#000000;stroke-opacity:0.7;stroke-width:1.417324;"/>
    <path clip-path="url(#pf32ce3c2c4)" d="M 174.6 139.645161 
L 279 139.645161 
" style="fill:none;stroke:#000000;stroke-opacity:0.7;stroke-width:1.417324;"/>
    <path clip-path="url(#pf32ce3c2c4)" d="M 63 137.322581 
L 167.4 137.322581 
" style="fill:none;stroke:#000000;stroke-opacity:0.7;stroke-width:1.417324;"/>
    <path clip-path="url(#pf32ce3c2c4)" d="M 174.6 137.322581 
L 279 137.322581 
" style="fill:none;stroke:#000000;stroke-opacity:0.7;stroke-width:1.417324;"/>
    <path clip-path="url(#pf32ce3c2c4)" d="M 63 135 
L 167.4 135 
" style="fill:none;stroke:#000000;stroke-opacity:0.7;stroke-width:1.417324;"/>
    <path clip-path="url(#pf32ce3c2c4)" d="M 174.6 135 
L 279 135 
" style="fill:none;stroke:#000000;stroke-opacity:0.7;stroke-width:1.417324;"/>
    <path clip-path="url(#pf32ce3c2c4)" d="M 63 132.677419 
L 167.4 132.677419 
" style="fill:none;stroke:#000000;stroke-opacity:0.7;stroke-width:1.417324;"/>
    <path clip-path="url(#pf32ce3c2c4)" d="M 174.6 132.677419 
L 279 132.677419 
" style="fill:none;stroke:#000000;stroke-opacity:0.7;stroke-width:1.417324;"/>
    <path clip-path="url(#pf32ce3c2c4)" d="M 63 130.354839 
L 167.4 130.354839 
" style="fill:none;stroke:#000000;stroke-opacity:0.7;stroke-width:1.417324;"/>
    <path clip-path="url(#pf32ce3c2c4)" d="M 174.6 130.354839 
L 279 130.354839 
" style="fill:none;stroke:#000000;stroke-opacity:0.7;stroke-width:1.417324;"/>
    <path clip-path="url(#pf32ce3c2c4)" d="M 63 128.032258 
L 167.4 128.032258 
" style="fill:none;stroke:#000000;stroke-opacity:0.7;stroke-width:1.417324;"/>
    <path clip-path="url(#pf32ce3c2c4)" d="M 174.6 128.032258 
L 279 128.032258 
" style="fill:none;stroke:#000000;stroke-opacity:0.7;stroke-width:1.417324;"/>
    <path clip-path="url(#pf32ce3c2c4)" d="M 63 125.709677 
L 167.4 125.709677 
" style="fill:none;stroke:#000000;stroke-opacity:0.7;stroke-width:1.417324;"/>
    <path clip-path="url(#pf32ce3c2c4)" d="M 174.6 125.709677 
L 279 125.709677 
" style="fill:none;stroke:#000000;stroke-opacity:0.7;stroke-width:1.417324;"/>
    <path clip-path="url(#pf32ce3c2c4)" d="M 63 123.387097 
L 167.4 123.387097 
" style="fill:none;stroke:#000000;stroke-opacity:0.7;stroke-width:1.417324;"/>
    <path clip-path="url(#pf32ce3c2c4)" d="M 174.6 123.387097 
L 279 123.387097 
" style="fill:none;stroke:#000000;stroke-opacity:0.7;stroke-width:1.417324;"/>
    <path clip-path="url(#pf32ce3c2c4)" d="M 63 121.064516 
L 167.4 121.064516 
" style="fill:none;stroke:#000000;stroke-opacity:0.7;stroke-width:1.417324;"/>
    <path clip-path="url(#pf32ce3c2c4)" d="M 174.6 121.064516 
L 279 121.064516 
" style="fill:none;stroke:#000000;stroke-opacity:0.7;stroke-width:1.417324;"/>
    <path clip-path="url(#pf32ce3c2c4)" d="M 63 118.741935 
L 167.4 118.741935 
" style="fill:none;stroke:#000000;stroke-opacity:0.7;stroke-width:1.417324;"/>
    <path clip-path="url(#pf32ce3c2c4)" d="M 174.6 118.741935 
L 279 118.741935 
" style="fill:none;stroke:#000000;stroke-opacity:0.7;stroke-width:1.417324;"/>
    <path clip-path="url(#pf32ce3c2c4)" d="M 63 116.419355 
L 167.4 116.419355 
" style="fill:none;stroke:#000000;stroke-opacity:0.7;stroke-width:1.417324;"/>
    <path clip-path="url(#pf32ce3c2c4)" d="M 174.6 116.419355 
L 279 116.419355 
" style="fill:none;stroke:#000000;stroke-opacity:0.7;stroke-width:1.417324;"/>
    <path clip-path="url(#pf32ce3c2c4)" d="M 63 114.096774 
L 167.4 114.096774 
" style="fill:none;stroke:#000000;stroke-opacity:0.7;stroke-width:1.417324;"/>
    <path clip-path="url(#pf32ce3c2c4)" d="M 174.6 114.096774 
L 279 114.096774 
" style="fill:none;stroke:#000000;stroke-opacity:0.7;stroke-width:1.417324;"/>
    <path clip-path="url(#pf32ce3c2c4)" d="M 63 111.774194 
L 167.4 111.774194 
" style="fill:none;stroke:#000000;stroke-opacity:0.7;stroke-width:1.417324;"/>
    <path clip-path="url(#pf32ce3c2c4)" d="M 174.6 111.774194 
L 279 111.774194 
" style="fill:none;stroke:#000000;stroke-opacity:0.7;stroke-width:1.417324;"/>
    <path clip-path="url(#pf32ce3c2c4)" d="M 63 109.451613 
L 167.4 109.451613 
" style="fill:none;stroke:#000000;stroke-opacity:0.7;stroke-width:1.417324;"/>
    <path clip-path="url(#pf32ce3c2c4)" d="M 174.6 109.451613 
L 279 109.451613 
" style="fill:none;stroke:#000000;stroke-opacity:0.7;stroke-width:1.417324;"/>
    <path clip-path="url(#pf32ce3c2c4)" d="M 63 107.129032 
L 167.4 107.129032 
" style="fill:none;stroke:#000000;stroke-opacity:0.7;stroke-width:1.417324;"/>
    <path clip-path="url(#pf32ce3c2c4)" d="M 174.6 107.129032 
L 279 107.129032 
" style="fill:none;stroke:#000000;stroke-opacity:0.7;stroke-width:1.417324;"/>
    <path clip-path="url(#pf32ce3c2c4)" d="M 63 104.806452 
L 167.4 104.806452 
" style="fill:none;stroke:#000000;stroke-opacity:0.7;stroke-width:1.417324;"/>
    <path clip-path="url(#pf32ce3c2c4)" d="M 174.6 104.806452 
L 279 104.806452 
" style="fill:none;stroke:#000000;stroke-opacity:0.7;stroke-width:1.417324;"/>
    <path clip-path="url(#pf32ce3c2c4)" d="M 63 102.483871 
L 167.4 102.483871 
" style="fill:none;stroke:#000000;stroke-opacity:0.7;stroke-width:1.417324;"/>
    <path clip-path="url(#pf32ce3c2c4)" d="M 174.6 102.483871 
L 279 102.483871 
" style="fill:none;stroke:#000000;stroke-opacity:0.7;stroke-width:1.417324;"/>
    <path clip-path="url(#pf32ce3c2c4)" d="M 63 100.16129 
L 167.4 100.16129 
" style="fill:none;stroke:#000000;stroke-opacity:0.7;stroke-width:1.417324;"/>
    <path clip-path="url(#pf32ce3c2c4)" d="M 174.6 100.16129 
L 279 100.16129 
" style="fill:none;stroke:#000000;stroke-opacity:0.7;stroke-width:1.417324;"/>
    <path clip-path="url(#pf32ce3c2c4)" d="M 63 97.83871 
L 167.4 97.83871 
" style="fill:none;stroke:#000000;stroke-opacity:0.7;stroke-width:1.417324;"/>
    <path clip-path="url(#pf32ce3c2c4)" d="M 174.6 97.83871 
L 279 97.83871 
" style="fill:none;stroke:#000000;stroke-opacity:0.7;stroke-width:1.417324;"/>
    <path clip-path="url(#pf32ce3c2c4)" d="M 63 95.516129 
L 167.4 95.516129 
" style="fill:none;stroke:#000000;stroke-opacity:0.7;stroke-width:1.417324;"/>
    <path clip-path="url(#pf32ce3c2c4)" d="M 174.6 95.516129 
L 279 95.516129 
" style="fill:none;stroke:#000000;stroke-opacity:0.7;stroke-width:1.417324;"/>
    <path clip-path="url(#pf32ce3c2c4)" d="M 63 93.193548 
L 167.4 93.193548 
" style="fill:none;stroke:#000000;stroke-opacity:0.7;stroke-width:1.417324;"/>
    <path clip-path="url(#pf32ce3c2c4)" d="M 174.6 93.193548 
L 279 93.193548 
" style="fill:none;stroke:#000000;stroke-opacity:0.7;stroke-width:1.417324;"/>
    <path clip-path="url(#pf32ce3c2c4)" d="M 63 90.870968 
L 167.4 90.870968 
" style="fill:none;stroke:#000000;stroke-opacity:0.7;stroke-width:1.417324;"/>
    <path clip-path="url(#pf32ce3c2c4)" d="M 174.6 90.870968 
L 279 90.870968 
" style="fill:none;stroke:#000000;stroke-opacity:0.7;stroke-width:1.417324;"/>
    <path clip-path="url(#pf32ce3c2c4)" d="M 63 88.548387 
L 167.4 88.548387 
" style="fill:none;stroke:#000000;stroke-opacity:0.7;stroke-width:1.417324;"/>
    <path clip-path="url(#pf32ce3c2c4)" d="M 174.6 88.548387 
L 279 88.548387 
" style="fill:none;stroke:#000000;stroke-opacity:0.7;stroke-width:1.417324;"/>
    <path clip-path="url(#pf32ce3c2c4)" d="M 63 86.225806 
L 167.4 86.225806 
" style="fill:none;stroke:#000000;stroke-opacity:0.7;stroke-width:1.417324;"/>
    <path clip-path="url(#pf32ce3c2c4)" d="M 174.6 86.225806 
L 279 86.225806 
" style="fill:none;stroke:#000000;stroke-opacity:0.7;stroke-width:1.417324;"/>
    <path clip-path="url(#pf32ce3c2c4)" d="M 63 83.903226 
L 167.4 83.903226 
" style="fill:none;stroke:#000000;stroke-opacity:0.7;stroke-width:1.417324;"/>
    <path clip-path="url(#pf32ce3c2c4)" d="M 174.6 83.903226 
L 279 83.903226 
" style="fill:none;stroke:#000000;stroke-opacity:0.7;stroke-width:1.417324;"/>
    <path clip-path="url(#pf32ce3c2c4)" d="M 63 81.580645 
L 167.4 81.580645 
" style="fill:none;stroke:#000000;stroke-opacity:0.7;stroke-width:1.417324;"/>
    <path clip-path="url(#pf32ce3c2c4)" d="M 174.6 81.580645 
L 279 81.580645 
" style="fill:none;stroke:#000000;stroke-opacity:0.7;stroke-width:1.417324;"/>
    <path clip-path="url(#pf32ce3c2c4)" d="M 63 79.258065 
L 167.4 79.258065 
" style="fill:none;stroke:#000000;stroke-opacity:0.7;stroke-width:1.417324;"/>
    <path clip-path="url(#pf32ce3c2c4)" d="M 174.6 79.258065 
L 279 79.258065 
" style="fill:none;stroke:#000000;stroke-opacity:0.7;stroke-width:1.417324;"/>
    <path clip-path="url(#pf32ce3c2c4)" d="M 63 76.935484 
L 167.4 76.935484 
" style="fill:none;stroke:#000000;stroke-opacity:0.7;stroke-width:1.417324;"/>
    <path clip-path="url(#pf32ce3c2c4)" d="M 174.6 76.935484 
L 279 76.935484 
" style="fill:none;stroke:#000000;stroke-opacity:0.7;stroke-width:1.417324;"/>
    <path clip-path="url(#pf32ce3c2c4)" d="M 63 74.612903 
L 167.4 74.612903 
" style="fill:none;stroke:#000000;stroke-opacity:0.7;stroke-width:1.417324;"/>
    <path clip-path="url(#pf32ce3c2c4)" d="M 174.6 74.612903 
L 279 74.612903 
" style="fill:none;stroke:#000000;stroke-opacity:0.7;stroke-width:1.417324;"/>
    <path clip-path="url(#pf32ce3c2c4)" d="M 63 72.290323 
L 167.4 72.290323 
" style="fill:none;stroke:#000000;stroke-opacity:0.7;stroke-width:1.417324;"/>
    <path clip-path="url(#pf32ce3c2c4)" d="M 174.6 72.290323 
L 279 72.290323 
" style="fill:none;stroke:#000000;stroke-opacity:0.7;stroke-width:1.417324;"/>
    <path clip-path="url(#pf32ce3c2c4)" d="M 63 69.967742 
L 167.4 69.967742 
" style="fill:none;stroke:#000000;stroke-opacity:0.7;stroke-width:1.417324;"/>
    <path clip-path="url(#pf32ce3c2c4)" d="M 174.6 69.967742 
L 279 69.967742 
" style="fill:none;stroke:#000000;stroke-opacity:0.7;stroke-width:1.417324;"/>
    <path clip-path="url(#pf32ce3c2c4)" d="M 63 67.645161 
L 167.4 67.645161 
" style="fill:none;stroke:#000000;stroke-opacity:0.7;stroke-width:1.417324;"/>
    <path clip-path="url(#pf32ce3c2c4)" d="M 174.6 67.645161 
L 279 67.645161 
" style="fill:none;stroke:#000000;stroke-opacity:0.7;stroke-width:1.417324;"/>
    <path clip-path="url(#pf32ce3c2c4)" d="M 63 65.322581 
L 167.4 65.322581 
" style="fill:none;stroke:#000000;stroke-opacity:0.7;stroke-width:1.417324;"/>
    <path clip-path="url(#pf32ce3c2c4)" d="M 174.6 65.322581 
L 279 65.322581 
" style="fill:none;stroke:#000000;stroke-opacity:0.7;stroke-width:1.417324;"/>
   </g>
  </g>
 </g>
 <defs>
  <clipPath id="pf32ce3c2c4">
   <rect height="414" width="342" x="0" y="0"/>
  </clipPath>
 </defs>
</svg>
