<?xml version="1.0" encoding="utf-8" standalone="no"?>
<!DOCTYPE svg PUBLIC "-//W3C//DTD SVG 1.1//EN"
  "http://www.w3.org/Graphics/SVG/1.1/DTD/svg11.dtd">
<!-- Created with matplotlib (https://matplotlib.org/) -->
<svg height="576pt" version="1.1" viewBox="0 0 432 576" width="432pt" xmlns="http://www.w3.org/2000/svg" xmlns:xlink="http://www.w3.org/1999/xlink">
 <defs>
  <style type="text/css">
*{stroke-linecap:butt;stroke-linejoin:round;}
  </style>
 </defs>
 <g id="figure_1">
  <g id="axes_1">
   <g id="LineCollection_1">
    <path clip-path="url(#pe41015ccbf)" d="M 342 180 
L 341.393276 192.35016 
L 339.578945 204.581381 
L 336.574482 216.575869 
L 332.408821 228.218112 
L 327.122079 239.395989 
L 320.765171 250.001849 
L 313.399317 259.933554 
L 305.095454 269.095454 
L 295.933554 277.399317 
L 286.001849 284.765171 
L 275.395989 291.122079 
L 264.218112 296.408821 
L 252.575869 300.574482 
L 240.581381 303.578945 
L 228.35016 305.393276 
L 216 306 
L 203.64984 305.393276 
L 191.418619 303.578945 
L 179.424131 300.574482 
L 167.781888 296.408821 
L 156.604011 291.122079 
L 145.998151 284.765171 
L 136.066446 277.399317 
L 126.904546 269.095454 
L 118.600683 259.933554 
L 111.234829 250.001849 
L 104.877921 239.395989 
L 99.591179 228.218112 
L 95.425518 216.575869 
L 92.421055 204.581381 
L 90.606724 192.35016 
L 90 180 
L 90.606724 167.64984 
L 92.421055 155.418619 
L 95.425518 143.424131 
L 99.591179 131.781888 
L 104.877921 120.604011 
L 111.234829 109.998151 
L 118.600683 100.066446 
L 126.904546 90.904546 
L 136.066446 82.600683 
L 145.998151 75.234829 
L 156.604011 68.877921 
L 167.781888 63.591179 
L 179.424131 59.425518 
L 191.418619 56.421055 
L 203.64984 54.606724 
L 216 54 
L 228.35016 54.606724 
L 240.581381 56.421055 
L 252.575869 59.425518 
L 264.218112 63.591179 
L 275.395989 68.877921 
L 286.001849 75.234829 
L 295.933554 82.600683 
L 305.095454 90.904546 
L 313.399317 100.066446 
L 320.765171 109.998151 
L 327.122079 120.604011 
L 332.408821 131.781888 
L 336.574482 143.424131 
L 339.578945 155.418619 
L 341.393276 167.64984 
L 342 180 
L 342 180 
" style="fill:none;stroke:#000000;stroke-opacity:0.8;stroke-width:5;"/>
    <path clip-path="url(#pe41015ccbf)" d="M 324 180 
L 323.47995 190.585851 
L 321.92481 201.069755 
L 319.349556 211.350745 
L 315.77899 221.329811 
L 311.247497 230.910848 
L 305.798718 240.001585 
L 299.485129 248.514475 
L 292.367532 256.367532 
L 284.514475 263.485129 
L 276.001585 269.798718 
L 266.910848 275.247497 
L 257.329811 279.77899 
L 247.350745 283.349556 
L 237.069755 285.92481 
L 226.585851 287.47995 
L 216 288 
L 205.414149 287.47995 
L 194.930245 285.92481 
L 184.649255 283.349556 
L 174.670189 279.77899 
L 165.089152 275.247497 
L 155.998415 269.798718 
L 147.485525 263.485129 
L 139.632468 256.367532 
L 132.514871 248.514475 
L 126.201282 240.001585 
L 120.752503 230.910848 
L 116.22101 221.329811 
L 112.650444 211.350745 
L 110.07519 201.069755 
L 108.52005 190.585851 
L 108 180 
L 108.52005 169.414149 
L 110.07519 158.930245 
L 112.650444 148.649255 
L 116.22101 138.670189 
L 120.752503 129.089152 
L 126.201282 119.998415 
L 132.514871 111.485525 
L 139.632468 103.632468 
L 147.485525 96.514871 
L 155.998415 90.201282 
L 165.089152 84.752503 
L 174.670189 80.22101 
L 184.649255 76.650444 
L 194.930245 74.07519 
L 205.414149 72.52005 
L 216 72 
L 226.585851 72.52005 
L 237.069755 74.07519 
L 247.350745 76.650444 
L 257.329811 80.22101 
L 266.910848 84.752503 
L 276.001585 90.201282 
L 284.514475 96.514871 
L 292.367532 103.632468 
L 299.485129 111.485525 
L 305.798718 119.998415 
L 311.247497 129.089152 
L 315.77899 138.670189 
L 319.349556 148.649255 
L 321.92481 158.930245 
L 323.47995 169.414149 
L 324 180 
L 324 180 
" style="fill:none;stroke:#000000;stroke-opacity:0.8;stroke-width:5;"/>
    <path clip-path="url(#pe41015ccbf)" d="M 378 288 
L 377.219926 303.878777 
L 374.887215 319.604632 
L 371.024334 335.026118 
L 365.668484 349.994716 
L 358.871245 364.366271 
L 350.698077 378.002378 
L 341.227693 390.771712 
L 330.551299 402.551299 
L 318.771712 413.227693 
L 306.002378 422.698077 
L 292.366271 430.871245 
L 277.994716 437.668484 
L 263.026118 443.024334 
L 247.604632 446.887215 
L 231.878777 449.219926 
L 216 450 
L 200.121223 449.219926 
L 184.395368 446.887215 
L 168.973882 443.024334 
L 154.005284 437.668484 
L 139.633729 430.871245 
L 125.997622 422.698077 
L 113.228288 413.227693 
L 101.448701 402.551299 
L 90.772307 390.771712 
L 81.301923 378.002378 
L 73.128755 364.366271 
L 66.331516 349.994716 
L 60.975666 335.026118 
L 57.112785 319.604632 
L 54.780074 303.878777 
L 54 288 
L 54.780074 272.121223 
L 57.112785 256.395368 
L 60.975666 240.973882 
L 66.331516 226.005284 
L 73.128755 211.633729 
L 81.301923 197.997622 
L 90.772307 185.228288 
L 101.448701 173.448701 
L 113.228288 162.772307 
L 125.997622 153.301923 
L 139.633729 145.128755 
L 154.005284 138.331516 
L 168.973882 132.975666 
L 184.395368 129.112785 
L 200.121223 126.780074 
L 216 126 
L 231.878777 126.780074 
L 247.604632 129.112785 
L 263.026118 132.975666 
L 277.994716 138.331516 
L 292.366271 145.128755 
L 306.002378 153.301923 
L 318.771712 162.772307 
L 330.551299 173.448701 
L 341.227693 185.228288 
L 350.698077 197.997622 
L 358.871245 211.633729 
L 365.668484 226.005284 
L 371.024334 240.973882 
L 374.887215 256.395368 
L 377.219926 272.121223 
L 378 288 
L 378 288 
" style="fill:none;stroke:#000000;stroke-opacity:0.8;stroke-width:5;"/>
    <path clip-path="url(#pe41015ccbf)" d="M 306 180 
L 305.566625 188.821543 
L 304.270675 197.558129 
L 302.12463 206.125621 
L 299.149158 214.441509 
L 295.372914 222.425706 
L 290.832265 230.001321 
L 285.570941 237.095396 
L 279.63961 243.63961 
L 273.095396 249.570941 
L 266.001321 254.832265 
L 258.425706 259.372914 
L 250.441509 263.149158 
L 242.125621 266.12463 
L 233.558129 268.270675 
L 224.821543 269.566625 
L 216 270 
L 207.178457 269.566625 
L 198.441871 268.270675 
L 189.874379 266.12463 
L 181.558491 263.149158 
L 173.574294 259.372914 
L 165.998679 254.832265 
L 158.904604 249.570941 
L 152.36039 243.63961 
L 146.429059 237.095396 
L 141.167735 230.001321 
L 136.627086 222.425706 
L 132.850842 214.441509 
L 129.87537 206.125621 
L 127.729325 197.558129 
L 126.433375 188.821543 
L 126 180 
L 126.433375 171.178457 
L 127.729325 162.441871 
L 129.87537 153.874379 
L 132.850842 145.558491 
L 136.627086 137.574294 
L 141.167735 129.998679 
L 146.429059 122.904604 
L 152.36039 116.36039 
L 158.904604 110.429059 
L 165.998679 105.167735 
L 173.574294 100.627086 
L 181.558491 96.850842 
L 189.874379 93.87537 
L 198.441871 91.729325 
L 207.178457 90.433375 
L 216 90 
L 224.821543 90.433375 
L 233.558129 91.729325 
L 242.125621 93.87537 
L 250.441509 96.850842 
L 258.425706 100.627086 
L 266.001321 105.167735 
L 273.095396 110.429059 
L 279.63961 116.36039 
L 285.570941 122.904604 
L 290.832265 129.998679 
L 295.372914 137.574294 
L 299.149158 145.558491 
L 302.12463 153.874379 
L 304.270675 162.441871 
L 305.566625 171.178457 
L 306 180 
L 306 180 
" style="fill:none;stroke:#000000;stroke-opacity:0.8;stroke-width:5;"/>
    <path clip-path="url(#pe41015ccbf)" d="M 270 288 
L 269.739975 293.292926 
L 268.962405 298.534877 
L 267.674778 303.675373 
L 265.889495 308.664905 
L 263.623748 313.455424 
L 260.899359 318.000793 
L 257.742564 322.257237 
L 254.183766 326.183766 
L 250.257237 329.742564 
L 246.000793 332.899359 
L 241.455424 335.623748 
L 236.664905 337.889495 
L 231.675373 339.674778 
L 226.534877 340.962405 
L 221.292926 341.739975 
L 216 342 
L 210.707074 341.739975 
L 205.465123 340.962405 
L 200.324627 339.674778 
L 195.335095 337.889495 
L 190.544576 335.623748 
L 185.999207 332.899359 
L 181.742763 329.742564 
L 177.816234 326.183766 
L 174.257436 322.257237 
L 171.100641 318.000793 
L 168.376252 313.455424 
L 166.110505 308.664905 
L 164.325222 303.675373 
L 163.037595 298.534877 
L 162.260025 293.292926 
L 162 288 
L 162.260025 282.707074 
L 163.037595 277.465123 
L 164.325222 272.324627 
L 166.110505 267.335095 
L 168.376252 262.544576 
L 171.100641 257.999207 
L 174.257436 253.742763 
L 177.816234 249.816234 
L 181.742763 246.257436 
L 185.999207 243.100641 
L 190.544576 240.376252 
L 195.335095 238.110505 
L 200.324627 236.325222 
L 205.465123 235.037595 
L 210.707074 234.260025 
L 216 234 
L 221.292926 234.260025 
L 226.534877 235.037595 
L 231.675373 236.325222 
L 236.664905 238.110505 
L 241.455424 240.376252 
L 246.000793 243.100641 
L 250.257237 246.257436 
L 254.183766 249.816234 
L 257.742564 253.742763 
L 260.899359 257.999207 
L 263.623748 262.544576 
L 265.889495 267.335095 
L 267.674778 272.324627 
L 268.962405 277.465123 
L 269.739975 282.707074 
L 270 288 
L 270 288 
" style="fill:none;stroke:#000000;stroke-opacity:0.8;stroke-width:5;"/>
    <path clip-path="url(#pe41015ccbf)" d="M 252 342 
L 251.82665 345.528617 
L 251.30827 349.023252 
L 250.449852 352.450248 
L 249.259663 355.776604 
L 247.749166 358.970283 
L 245.932906 362.000528 
L 243.828376 364.838158 
L 241.455844 367.455844 
L 238.838158 369.828376 
L 236.000528 371.932906 
L 232.970283 373.749166 
L 229.776604 375.259663 
L 226.450248 376.449852 
L 223.023252 377.30827 
L 219.528617 377.82665 
L 216 378 
L 212.471383 377.82665 
L 208.976748 377.30827 
L 205.549752 376.449852 
L 202.223396 375.259663 
L 199.029717 373.749166 
L 195.999472 371.932906 
L 193.161842 369.828376 
L 190.544156 367.455844 
L 188.171624 364.838158 
L 186.067094 362.000528 
L 184.250834 358.970283 
L 182.740337 355.776604 
L 181.550148 352.450248 
L 180.69173 349.023252 
L 180.17335 345.528617 
L 180 342 
L 180.17335 338.471383 
L 180.69173 334.976748 
L 181.550148 331.549752 
L 182.740337 328.223396 
L 184.250834 325.029717 
L 186.067094 321.999472 
L 188.171624 319.161842 
L 190.544156 316.544156 
L 193.161842 314.171624 
L 195.999472 312.067094 
L 199.029717 310.250834 
L 202.223396 308.740337 
L 205.549752 307.550148 
L 208.976748 306.69173 
L 212.471383 306.17335 
L 216 306 
L 219.528617 306.17335 
L 223.023252 306.69173 
L 226.450248 307.550148 
L 229.776604 308.740337 
L 232.970283 310.250834 
L 236.000528 312.067094 
L 238.838158 314.171624 
L 241.455844 316.544156 
L 243.828376 319.161842 
L 245.932906 321.999472 
L 247.749166 325.029717 
L 249.259663 328.223396 
L 250.449852 331.549752 
L 251.30827 334.976748 
L 251.82665 338.471383 
L 252 342 
L 252 342 
" style="fill:none;stroke:#000000;stroke-opacity:0.8;stroke-width:5;"/>
    <path clip-path="url(#pe41015ccbf)" d="M 230.4 381.6 
L 230.33066 383.011447 
L 230.123308 384.409301 
L 229.779941 385.780099 
L 229.303865 387.110641 
L 228.699666 388.388113 
L 227.973162 389.600211 
L 227.131351 390.735263 
L 226.182338 391.782338 
L 225.135263 392.731351 
L 224.000211 393.573162 
L 222.788113 394.299666 
L 221.510641 394.903865 
L 220.180099 395.379941 
L 218.809301 395.723308 
L 217.411447 395.93066 
L 216 396 
L 214.588553 395.93066 
L 213.190699 395.723308 
L 211.819901 395.379941 
L 210.489359 394.903865 
L 209.211887 394.299666 
L 207.999789 393.573162 
L 206.864737 392.731351 
L 205.817662 391.782338 
L 204.868649 390.735263 
L 204.026838 389.600211 
L 203.300334 388.388113 
L 202.696135 387.110641 
L 202.220059 385.780099 
L 201.876692 384.409301 
L 201.66934 383.011447 
L 201.6 381.6 
L 201.66934 380.188553 
L 201.876692 378.790699 
L 202.220059 377.419901 
L 202.696135 376.089359 
L 203.300334 374.811887 
L 204.026838 373.599789 
L 204.868649 372.464737 
L 205.817662 371.417662 
L 206.864737 370.468649 
L 207.999789 369.626838 
L 209.211887 368.900334 
L 210.489359 368.296135 
L 211.819901 367.820059 
L 213.190699 367.476692 
L 214.588553 367.26934 
L 216 367.2 
L 217.411447 367.26934 
L 218.809301 367.476692 
L 220.180099 367.820059 
L 221.510641 368.296135 
L 222.788113 368.900334 
L 224.000211 369.626838 
L 225.135263 370.468649 
L 226.182338 371.417662 
L 227.131351 372.464737 
L 227.973162 373.599789 
L 228.699666 374.811887 
L 229.303865 376.089359 
L 229.779941 377.419901 
L 230.123308 378.790699 
L 230.33066 380.188553 
L 230.4 381.6 
L 230.4 381.6 
" style="fill:none;stroke:#000000;stroke-opacity:0.8;stroke-width:5;"/>
    <path clip-path="url(#pe41015ccbf)" d="M 226.8 424.8 
L 226.747995 425.858585 
L 226.592481 426.906975 
L 226.334956 427.935075 
L 225.977899 428.932981 
L 225.52475 429.891085 
L 224.979872 430.800159 
L 224.348513 431.651447 
L 223.636753 432.436753 
L 222.851447 433.148513 
L 222.000159 433.779872 
L 221.091085 434.32475 
L 220.132981 434.777899 
L 219.135075 435.134956 
L 218.106975 435.392481 
L 217.058585 435.547995 
L 216 435.6 
L 214.941415 435.547995 
L 213.893025 435.392481 
L 212.864925 435.134956 
L 211.867019 434.777899 
L 210.908915 434.32475 
L 209.999841 433.779872 
L 209.148553 433.148513 
L 208.363247 432.436753 
L 207.651487 431.651447 
L 207.020128 430.800159 
L 206.47525 429.891085 
L 206.022101 428.932981 
L 205.665044 427.935075 
L 205.407519 426.906975 
L 205.252005 425.858585 
L 205.2 424.8 
L 205.252005 423.741415 
L 205.407519 422.693025 
L 205.665044 421.664925 
L 206.022101 420.667019 
L 206.47525 419.708915 
L 207.020128 418.799841 
L 207.651487 417.948553 
L 208.363247 417.163247 
L 209.148553 416.451487 
L 209.999841 415.820128 
L 210.908915 415.27525 
L 211.867019 414.822101 
L 212.864925 414.465044 
L 213.893025 414.207519 
L 214.941415 414.052005 
L 216 414 
L 217.058585 414.052005 
L 218.106975 414.207519 
L 219.135075 414.465044 
L 220.132981 414.822101 
L 221.091085 415.27525 
L 222.000159 415.820128 
L 222.851447 416.451487 
L 223.636753 417.163247 
L 224.348513 417.948553 
L 224.979872 418.799841 
L 225.52475 419.708915 
L 225.977899 420.667019 
L 226.334956 421.664925 
L 226.592481 422.693025 
L 226.747995 423.741415 
L 226.8 424.8 
L 226.8 424.8 
" style="fill:none;stroke:#000000;stroke-opacity:0.8;stroke-width:5;"/>
    <path clip-path="url(#pe41015ccbf)" d="M 225 468 
L 224.956663 468.882154 
L 224.827068 469.755813 
L 224.612463 470.612562 
L 224.314916 471.444151 
L 223.937291 472.242571 
L 223.483227 473.000132 
L 222.957094 473.70954 
L 222.363961 474.363961 
L 221.70954 474.957094 
L 221.000132 475.483227 
L 220.242571 475.937291 
L 219.444151 476.314916 
L 218.612562 476.612463 
L 217.755813 476.827068 
L 216.882154 476.956663 
L 216 477 
L 215.117846 476.956663 
L 214.244187 476.827068 
L 213.387438 476.612463 
L 212.555849 476.314916 
L 211.757429 475.937291 
L 210.999868 475.483227 
L 210.29046 474.957094 
L 209.636039 474.363961 
L 209.042906 473.70954 
L 208.516773 473.000132 
L 208.062709 472.242571 
L 207.685084 471.444151 
L 207.387537 470.612562 
L 207.172932 469.755813 
L 207.043337 468.882154 
L 207 468 
L 207.043337 467.117846 
L 207.172932 466.244187 
L 207.387537 465.387438 
L 207.685084 464.555849 
L 208.062709 463.757429 
L 208.516773 462.999868 
L 209.042906 462.29046 
L 209.636039 461.636039 
L 210.29046 461.042906 
L 210.999868 460.516773 
L 211.757429 460.062709 
L 212.555849 459.685084 
L 213.387438 459.387537 
L 214.244187 459.172932 
L 215.117846 459.043337 
L 216 459 
L 216.882154 459.043337 
L 217.755813 459.172932 
L 218.612562 459.387537 
L 219.444151 459.685084 
L 220.242571 460.062709 
L 221.000132 460.516773 
L 221.70954 461.042906 
L 222.363961 461.636039 
L 222.957094 462.29046 
L 223.483227 462.999868 
L 223.937291 463.757429 
L 224.314916 464.555849 
L 224.612463 465.387438 
L 224.827068 466.244187 
L 224.956663 467.117846 
L 225 468 
L 225 468 
" style="fill:none;stroke:#000000;stroke-opacity:0.8;stroke-width:5;"/>
    <path clip-path="url(#pe41015ccbf)" d="M 216 504 
L 216 54 
" style="fill:none;stroke:#000000;stroke-opacity:0.8;stroke-width:5;"/>
   </g>
  </g>
 </g>
 <defs>
  <clipPath id="pe41015ccbf">
   <rect height="576" width="432" x="0" y="0"/>
  </clipPath>
 </defs>
</svg>
