<?xml version="1.0" encoding="utf-8" standalone="no"?>
<!DOCTYPE svg PUBLIC "-//W3C//DTD SVG 1.1//EN"
  "http://www.w3.org/Graphics/SVG/1.1/DTD/svg11.dtd">
<!-- Created with matplotlib (https://matplotlib.org/) -->
<svg height="504pt" version="1.1" viewBox="0 0 360 504" width="360pt" xmlns="http://www.w3.org/2000/svg" xmlns:xlink="http://www.w3.org/1999/xlink">
 <metadata>
  <rdf:RDF xmlns:cc="http://creativecommons.org/ns#" xmlns:dc="http://purl.org/dc/elements/1.1/" xmlns:rdf="http://www.w3.org/1999/02/22-rdf-syntax-ns#">
   <cc:Work>
    <dc:type rdf:resource="http://purl.org/dc/dcmitype/StillImage"/>
    <dc:date>2021-06-07T15:28:51.035684</dc:date>
    <dc:format>image/svg+xml</dc:format>
    <dc:creator>
     <cc:Agent>
      <dc:title>Matplotlib v3.3.2, https://matplotlib.org/</dc:title>
     </cc:Agent>
    </dc:creator>
   </cc:Work>
  </rdf:RDF>
 </metadata>
 <defs>
  <style type="text/css">*{stroke-linecap:butt;stroke-linejoin:round;}</style>
 </defs>
 <g id="figure_1">
  <g id="axes_1">
   <g id="LineCollection_1">
    <path clip-path="url(#pcf53b54252)" d="M 36 468 
L 84 468 
L 84 461.142857 
L 36 461.142857 
L 36 454.285714 
L 84 454.285714 
L 84 447.428571 
L 36 447.428571 
L 36 440.571429 
L 84 440.571429 
L 84 433.714286 
L 36 433.714286 
L 36 426.857143 
L 84 426.857143 
L 84 420 
L 36 420 
" style="fill:none;stroke:#000000;stroke-width:1.984253;"/>
    <path clip-path="url(#pcf53b54252)" d="M 36 468 
L 36 420 
L 42.857143 420 
L 42.857143 468 
L 49.714286 468 
L 49.714286 420 
L 56.571429 420 
L 56.571429 468 
L 63.428571 468 
L 63.428571 420 
L 70.285714 420 
L 70.285714 468 
L 77.142857 468 
L 77.142857 420 
L 84 420 
L 84 468 
" style="fill:none;stroke:#000000;stroke-width:1.984253;"/>
    <path clip-path="url(#pcf53b54252)" d="M 36 420 
L 84 420 
L 84 414 
L 36 414 
L 36 408 
L 84 408 
L 84 402 
L 36 402 
L 36 396 
L 84 396 
L 84 390 
L 36 390 
L 36 384 
L 84 384 
L 84 378 
L 36 378 
L 36 372 
L 84 372 
" style="fill:none;stroke:#000000;stroke-width:1.984253;"/>
    <path clip-path="url(#pcf53b54252)" d="M 36 420 
L 36 372 
L 42.857143 372 
L 42.857143 420 
L 49.714286 420 
L 49.714286 372 
L 56.571429 372 
L 56.571429 420 
L 63.428571 420 
L 63.428571 372 
L 70.285714 372 
L 70.285714 420 
L 77.142857 420 
L 77.142857 372 
L 84 372 
L 84 420 
" style="fill:none;stroke:#000000;stroke-width:1.984253;"/>
    <path clip-path="url(#pcf53b54252)" d="M 36 372 
L 84 372 
L 84 366.666667 
L 36 366.666667 
L 36 361.333333 
L 84 361.333333 
L 84 356 
L 36 356 
L 36 350.666667 
L 84 350.666667 
L 84 345.333333 
L 36 345.333333 
L 36 340 
L 84 340 
L 84 334.666667 
L 36 334.666667 
L 36 329.333333 
L 84 329.333333 
L 84 324 
L 36 324 
" style="fill:none;stroke:#000000;stroke-width:1.984253;"/>
    <path clip-path="url(#pcf53b54252)" d="M 36 372 
L 36 324 
L 40.8 324 
L 40.8 372 
L 45.6 372 
L 45.6 324 
L 50.4 324 
L 50.4 372 
L 55.2 372 
L 55.2 324 
L 60 324 
L 60 372 
L 64.8 372 
L 64.8 324 
L 69.6 324 
L 69.6 372 
L 74.4 372 
L 74.4 324 
L 79.2 324 
L 79.2 372 
L 84 372 
L 84 324 
" style="fill:none;stroke:#000000;stroke-width:1.984253;"/>
    <path clip-path="url(#pcf53b54252)" d="M 36 324 
L 84 324 
L 84 318 
L 36 318 
L 36 312 
L 84 312 
L 84 306 
L 36 306 
L 36 300 
L 84 300 
L 84 294 
L 36 294 
L 36 288 
L 84 288 
L 84 282 
L 36 282 
L 36 276 
L 84 276 
" style="fill:none;stroke:#000000;stroke-width:1.984253;"/>
    <path clip-path="url(#pcf53b54252)" d="M 36 324 
L 36 276 
L 40.8 276 
L 40.8 324 
L 45.6 324 
L 45.6 276 
L 50.4 276 
L 50.4 324 
L 55.2 324 
L 55.2 276 
L 60 276 
L 60 324 
L 64.8 324 
L 64.8 276 
L 69.6 276 
L 69.6 324 
L 74.4 324 
L 74.4 276 
L 79.2 276 
L 79.2 324 
L 84 324 
L 84 276 
" style="fill:none;stroke:#000000;stroke-width:1.984253;"/>
    <path clip-path="url(#pcf53b54252)" d="M 36 276 
L 84 276 
L 84 272.307692 
L 36 272.307692 
L 36 268.615385 
L 84 268.615385 
L 84 264.923077 
L 36 264.923077 
L 36 261.230769 
L 84 261.230769 
L 84 257.538462 
L 36 257.538462 
L 36 253.846154 
L 84 253.846154 
L 84 250.153846 
L 36 250.153846 
L 36 246.461538 
L 84 246.461538 
L 84 242.769231 
L 36 242.769231 
L 36 239.076923 
L 84 239.076923 
L 84 235.384615 
L 36 235.384615 
L 36 231.692308 
L 84 231.692308 
L 84 228 
L 36 228 
" style="fill:none;stroke:#000000;stroke-width:1.984253;"/>
    <path clip-path="url(#pcf53b54252)" d="M 36 276 
L 36 228 
L 41.333333 228 
L 41.333333 276 
L 46.666667 276 
L 46.666667 228 
L 52 228 
L 52 276 
L 57.333333 276 
L 57.333333 228 
L 62.666667 228 
L 62.666667 276 
L 68 276 
L 68 228 
L 73.333333 228 
L 73.333333 276 
L 78.666667 276 
L 78.666667 228 
L 84 228 
L 84 276 
" style="fill:none;stroke:#000000;stroke-width:1.984253;"/>
    <path clip-path="url(#pcf53b54252)" d="M 36 228 
L 84 228 
L 84 222 
L 36 222 
L 36 216 
L 84 216 
L 84 210 
L 36 210 
L 36 204 
L 84 204 
L 84 198 
L 36 198 
L 36 192 
L 84 192 
L 84 186 
L 36 186 
L 36 180 
L 84 180 
" style="fill:none;stroke:#000000;stroke-width:1.984253;"/>
    <path clip-path="url(#pcf53b54252)" d="M 36 228 
L 36 180 
L 40 180 
L 40 228 
L 44 228 
L 44 180 
L 48 180 
L 48 228 
L 52 228 
L 52 180 
L 56 180 
L 56 228 
L 60 228 
L 60 180 
L 64 180 
L 64 228 
L 68 228 
L 68 180 
L 72 180 
L 72 228 
L 76 228 
L 76 180 
L 80 180 
L 80 228 
L 84 228 
L 84 180 
" style="fill:none;stroke:#000000;stroke-width:1.984253;"/>
    <path clip-path="url(#pcf53b54252)" d="M 36 180 
L 84 180 
L 84 175.636364 
L 36 175.636364 
L 36 171.272727 
L 84 171.272727 
L 84 166.909091 
L 36 166.909091 
L 36 162.545455 
L 84 162.545455 
L 84 158.181818 
L 36 158.181818 
L 36 153.818182 
L 84 153.818182 
L 84 149.454545 
L 36 149.454545 
L 36 145.090909 
L 84 145.090909 
L 84 140.727273 
L 36 140.727273 
L 36 136.363636 
L 84 136.363636 
L 84 132 
L 36 132 
" style="fill:none;stroke:#000000;stroke-width:1.984253;"/>
    <path clip-path="url(#pcf53b54252)" d="M 36 180 
L 36 132 
L 39 132 
L 39 180 
L 42 180 
L 42 132 
L 45 132 
L 45 180 
L 48 180 
L 48 132 
L 51 132 
L 51 180 
L 54 180 
L 54 132 
L 57 132 
L 57 180 
L 60 180 
L 60 132 
L 63 132 
L 63 180 
L 66 180 
L 66 132 
L 69 132 
L 69 180 
L 72 180 
L 72 132 
L 75 132 
L 75 180 
L 78 180 
L 78 132 
L 81 132 
L 81 180 
L 84 180 
L 84 132 
" style="fill:none;stroke:#000000;stroke-width:1.984253;"/>
    <path clip-path="url(#pcf53b54252)" d="M 36 132 
L 84 132 
L 84 128.571429 
L 36 128.571429 
L 36 125.142857 
L 84 125.142857 
L 84 121.714286 
L 36 121.714286 
L 36 118.285714 
L 84 118.285714 
L 84 114.857143 
L 36 114.857143 
L 36 111.428571 
L 84 111.428571 
L 84 108 
L 36 108 
L 36 104.571429 
L 84 104.571429 
L 84 101.142857 
L 36 101.142857 
L 36 97.714286 
L 84 97.714286 
L 84 94.285714 
L 36 94.285714 
L 36 90.857143 
L 84 90.857143 
L 84 87.428571 
L 36 87.428571 
L 36 84 
L 84 84 
" style="fill:none;stroke:#000000;stroke-width:1.984253;"/>
    <path clip-path="url(#pcf53b54252)" d="M 36 132 
L 36 84 
L 42.857143 84 
L 42.857143 132 
L 49.714286 132 
L 49.714286 84 
L 56.571429 84 
L 56.571429 132 
L 63.428571 132 
L 63.428571 84 
L 70.285714 84 
L 70.285714 132 
L 77.142857 132 
L 77.142857 84 
L 84 84 
L 84 132 
" style="fill:none;stroke:#000000;stroke-width:1.984253;"/>
    <path clip-path="url(#pcf53b54252)" d="M 36 84 
L 84 84 
L 84 81.714286 
L 36 81.714286 
L 36 79.428571 
L 84 79.428571 
L 84 77.142857 
L 36 77.142857 
L 36 74.857143 
L 84 74.857143 
L 84 72.571429 
L 36 72.571429 
L 36 70.285714 
L 84 70.285714 
L 84 68 
L 36 68 
L 36 65.714286 
L 84 65.714286 
L 84 63.428571 
L 36 63.428571 
L 36 61.142857 
L 84 61.142857 
L 84 58.857143 
L 36 58.857143 
L 36 56.571429 
L 84 56.571429 
L 84 54.285714 
L 36 54.285714 
L 36 52 
L 84 52 
L 84 49.714286 
L 36 49.714286 
L 36 47.428571 
L 84 47.428571 
L 84 45.142857 
L 36 45.142857 
L 36 42.857143 
L 84 42.857143 
L 84 40.571429 
L 36 40.571429 
L 36 38.285714 
L 84 38.285714 
L 84 36 
L 36 36 
" style="fill:none;stroke:#000000;stroke-width:1.984253;"/>
    <path clip-path="url(#pcf53b54252)" d="M 36 84 
L 36 36 
L 40 36 
L 40 84 
L 44 84 
L 44 36 
L 48 36 
L 48 84 
L 52 84 
L 52 36 
L 56 36 
L 56 84 
L 60 84 
L 60 36 
L 64 36 
L 64 84 
L 68 84 
L 68 36 
L 72 36 
L 72 84 
L 76 84 
L 76 36 
L 80 36 
L 80 84 
L 84 84 
L 84 36 
" style="fill:none;stroke:#000000;stroke-width:1.984253;"/>
    <path clip-path="url(#pcf53b54252)" d="M 84 468 
L 132 468 
L 132 461.142857 
L 84 461.142857 
L 84 454.285714 
L 132 454.285714 
L 132 447.428571 
L 84 447.428571 
L 84 440.571429 
L 132 440.571429 
L 132 433.714286 
L 84 433.714286 
L 84 426.857143 
L 132 426.857143 
L 132 420 
L 84 420 
" style="fill:none;stroke:#000000;stroke-width:1.984253;"/>
    <path clip-path="url(#pcf53b54252)" d="M 84 468 
L 84 420 
L 90.857143 420 
L 90.857143 468 
L 97.714286 468 
L 97.714286 420 
L 104.571429 420 
L 104.571429 468 
L 111.428571 468 
L 111.428571 420 
L 118.285714 420 
L 118.285714 468 
L 125.142857 468 
L 125.142857 420 
L 132 420 
L 132 468 
" style="fill:none;stroke:#000000;stroke-width:1.984253;"/>
    <path clip-path="url(#pcf53b54252)" d="M 84 420 
L 132 420 
L 132 414 
L 84 414 
L 84 408 
L 132 408 
L 132 402 
L 84 402 
L 84 396 
L 132 396 
L 132 390 
L 84 390 
L 84 384 
L 132 384 
L 132 378 
L 84 378 
L 84 372 
L 132 372 
" style="fill:none;stroke:#000000;stroke-width:1.984253;"/>
    <path clip-path="url(#pcf53b54252)" d="M 84 420 
L 84 372 
L 89.333333 372 
L 89.333333 420 
L 94.666667 420 
L 94.666667 372 
L 100 372 
L 100 420 
L 105.333333 420 
L 105.333333 372 
L 110.666667 372 
L 110.666667 420 
L 116 420 
L 116 372 
L 121.333333 372 
L 121.333333 420 
L 126.666667 420 
L 126.666667 372 
L 132 372 
L 132 420 
" style="fill:none;stroke:#000000;stroke-width:1.984253;"/>
    <path clip-path="url(#pcf53b54252)" d="M 84 372 
L 132 372 
L 132 365.142857 
L 84 365.142857 
L 84 358.285714 
L 132 358.285714 
L 132 351.428571 
L 84 351.428571 
L 84 344.571429 
L 132 344.571429 
L 132 337.714286 
L 84 337.714286 
L 84 330.857143 
L 132 330.857143 
L 132 324 
L 84 324 
" style="fill:none;stroke:#000000;stroke-width:1.984253;"/>
    <path clip-path="url(#pcf53b54252)" d="M 84 372 
L 84 324 
L 88.8 324 
L 88.8 372 
L 93.6 372 
L 93.6 324 
L 98.4 324 
L 98.4 372 
L 103.2 372 
L 103.2 324 
L 108 324 
L 108 372 
L 112.8 372 
L 112.8 324 
L 117.6 324 
L 117.6 372 
L 122.4 372 
L 122.4 324 
L 127.2 324 
L 127.2 372 
L 132 372 
L 132 324 
" style="fill:none;stroke:#000000;stroke-width:1.984253;"/>
    <path clip-path="url(#pcf53b54252)" d="M 84 324 
L 132 324 
L 132 319.636364 
L 84 319.636364 
L 84 315.272727 
L 132 315.272727 
L 132 310.909091 
L 84 310.909091 
L 84 306.545455 
L 132 306.545455 
L 132 302.181818 
L 84 302.181818 
L 84 297.818182 
L 132 297.818182 
L 132 293.454545 
L 84 293.454545 
L 84 289.090909 
L 132 289.090909 
L 132 284.727273 
L 84 284.727273 
L 84 280.363636 
L 132 280.363636 
L 132 276 
L 84 276 
" style="fill:none;stroke:#000000;stroke-width:1.984253;"/>
    <path clip-path="url(#pcf53b54252)" d="M 84 324 
L 84 276 
L 88.363636 276 
L 88.363636 324 
L 92.727273 324 
L 92.727273 276 
L 97.090909 276 
L 97.090909 324 
L 101.454545 324 
L 101.454545 276 
L 105.818182 276 
L 105.818182 324 
L 110.181818 324 
L 110.181818 276 
L 114.545455 276 
L 114.545455 324 
L 118.909091 324 
L 118.909091 276 
L 123.272727 276 
L 123.272727 324 
L 127.636364 324 
L 127.636364 276 
L 132 276 
L 132 324 
" style="fill:none;stroke:#000000;stroke-width:1.984253;"/>
    <path clip-path="url(#pcf53b54252)" d="M 84 276 
L 132 276 
L 132 271.636364 
L 84 271.636364 
L 84 267.272727 
L 132 267.272727 
L 132 262.909091 
L 84 262.909091 
L 84 258.545455 
L 132 258.545455 
L 132 254.181818 
L 84 254.181818 
L 84 249.818182 
L 132 249.818182 
L 132 245.454545 
L 84 245.454545 
L 84 241.090909 
L 132 241.090909 
L 132 236.727273 
L 84 236.727273 
L 84 232.363636 
L 132 232.363636 
L 132 228 
L 84 228 
" style="fill:none;stroke:#000000;stroke-width:1.984253;"/>
    <path clip-path="url(#pcf53b54252)" d="M 84 276 
L 84 228 
L 90.857143 228 
L 90.857143 276 
L 97.714286 276 
L 97.714286 228 
L 104.571429 228 
L 104.571429 276 
L 111.428571 276 
L 111.428571 228 
L 118.285714 228 
L 118.285714 276 
L 125.142857 276 
L 125.142857 228 
L 132 228 
L 132 276 
" style="fill:none;stroke:#000000;stroke-width:1.984253;"/>
    <path clip-path="url(#pcf53b54252)" d="M 84 228 
L 132 228 
L 132 223.2 
L 84 223.2 
L 84 218.4 
L 132 218.4 
L 132 213.6 
L 84 213.6 
L 84 208.8 
L 132 208.8 
L 132 204 
L 84 204 
L 84 199.2 
L 132 199.2 
L 132 194.4 
L 84 194.4 
L 84 189.6 
L 132 189.6 
L 132 184.8 
L 84 184.8 
L 84 180 
L 132 180 
" style="fill:none;stroke:#000000;stroke-width:1.984253;"/>
    <path clip-path="url(#pcf53b54252)" d="M 84 228 
L 84 180 
L 90.857143 180 
L 90.857143 228 
L 97.714286 228 
L 97.714286 180 
L 104.571429 180 
L 104.571429 228 
L 111.428571 228 
L 111.428571 180 
L 118.285714 180 
L 118.285714 228 
L 125.142857 228 
L 125.142857 180 
L 132 180 
L 132 228 
" style="fill:none;stroke:#000000;stroke-width:1.984253;"/>
    <path clip-path="url(#pcf53b54252)" d="M 84 180 
L 132 180 
L 132 175.636364 
L 84 175.636364 
L 84 171.272727 
L 132 171.272727 
L 132 166.909091 
L 84 166.909091 
L 84 162.545455 
L 132 162.545455 
L 132 158.181818 
L 84 158.181818 
L 84 153.818182 
L 132 153.818182 
L 132 149.454545 
L 84 149.454545 
L 84 145.090909 
L 132 145.090909 
L 132 140.727273 
L 84 140.727273 
L 84 136.363636 
L 132 136.363636 
L 132 132 
L 84 132 
" style="fill:none;stroke:#000000;stroke-width:1.984253;"/>
    <path clip-path="url(#pcf53b54252)" d="M 84 180 
L 84 132 
L 87.2 132 
L 87.2 180 
L 90.4 180 
L 90.4 132 
L 93.6 132 
L 93.6 180 
L 96.8 180 
L 96.8 132 
L 100 132 
L 100 180 
L 103.2 180 
L 103.2 132 
L 106.4 132 
L 106.4 180 
L 109.6 180 
L 109.6 132 
L 112.8 132 
L 112.8 180 
L 116 180 
L 116 132 
L 119.2 132 
L 119.2 180 
L 122.4 180 
L 122.4 132 
L 125.6 132 
L 125.6 180 
L 128.8 180 
L 128.8 132 
L 132 132 
L 132 180 
" style="fill:none;stroke:#000000;stroke-width:1.984253;"/>
    <path clip-path="url(#pcf53b54252)" d="M 84 132 
L 132 132 
L 132 128.307692 
L 84 128.307692 
L 84 124.615385 
L 132 124.615385 
L 132 120.923077 
L 84 120.923077 
L 84 117.230769 
L 132 117.230769 
L 132 113.538462 
L 84 113.538462 
L 84 109.846154 
L 132 109.846154 
L 132 106.153846 
L 84 106.153846 
L 84 102.461538 
L 132 102.461538 
L 132 98.769231 
L 84 98.769231 
L 84 95.076923 
L 132 95.076923 
L 132 91.384615 
L 84 91.384615 
L 84 87.692308 
L 132 87.692308 
L 132 84 
L 84 84 
" style="fill:none;stroke:#000000;stroke-width:1.984253;"/>
    <path clip-path="url(#pcf53b54252)" d="M 84 132 
L 84 84 
L 86.666667 84 
L 86.666667 132 
L 89.333333 132 
L 89.333333 84 
L 92 84 
L 92 132 
L 94.666667 132 
L 94.666667 84 
L 97.333333 84 
L 97.333333 132 
L 100 132 
L 100 84 
L 102.666667 84 
L 102.666667 132 
L 105.333333 132 
L 105.333333 84 
L 108 84 
L 108 132 
L 110.666667 132 
L 110.666667 84 
L 113.333333 84 
L 113.333333 132 
L 116 132 
L 116 84 
L 118.666667 84 
L 118.666667 132 
L 121.333333 132 
L 121.333333 84 
L 124 84 
L 124 132 
L 126.666667 132 
L 126.666667 84 
L 129.333333 84 
L 129.333333 132 
L 132 132 
L 132 84 
" style="fill:none;stroke:#000000;stroke-width:1.984253;"/>
    <path clip-path="url(#pcf53b54252)" d="M 84 84 
L 132 84 
L 132 80 
L 84 80 
L 84 76 
L 132 76 
L 132 72 
L 84 72 
L 84 68 
L 132 68 
L 132 64 
L 84 64 
L 84 60 
L 132 60 
L 132 56 
L 84 56 
L 84 52 
L 132 52 
L 132 48 
L 84 48 
L 84 44 
L 132 44 
L 132 40 
L 84 40 
L 84 36 
L 132 36 
" style="fill:none;stroke:#000000;stroke-width:1.984253;"/>
    <path clip-path="url(#pcf53b54252)" d="M 84 84 
L 84 36 
L 90.857143 36 
L 90.857143 84 
L 97.714286 84 
L 97.714286 36 
L 104.571429 36 
L 104.571429 84 
L 111.428571 84 
L 111.428571 36 
L 118.285714 36 
L 118.285714 84 
L 125.142857 84 
L 125.142857 36 
L 132 36 
L 132 84 
" style="fill:none;stroke:#000000;stroke-width:1.984253;"/>
    <path clip-path="url(#pcf53b54252)" d="M 132 468 
L 180 468 
L 180 461.142857 
L 132 461.142857 
L 132 454.285714 
L 180 454.285714 
L 180 447.428571 
L 132 447.428571 
L 132 440.571429 
L 180 440.571429 
L 180 433.714286 
L 132 433.714286 
L 132 426.857143 
L 180 426.857143 
L 180 420 
L 132 420 
" style="fill:none;stroke:#000000;stroke-width:1.984253;"/>
    <path clip-path="url(#pcf53b54252)" d="M 132 468 
L 132 420 
L 138.857143 420 
L 138.857143 468 
L 145.714286 468 
L 145.714286 420 
L 152.571429 420 
L 152.571429 468 
L 159.428571 468 
L 159.428571 420 
L 166.285714 420 
L 166.285714 468 
L 173.142857 468 
L 173.142857 420 
L 180 420 
L 180 468 
" style="fill:none;stroke:#000000;stroke-width:1.984253;"/>
    <path clip-path="url(#pcf53b54252)" d="M 132 420 
L 180 420 
L 180 414.666667 
L 132 414.666667 
L 132 409.333333 
L 180 409.333333 
L 180 404 
L 132 404 
L 132 398.666667 
L 180 398.666667 
L 180 393.333333 
L 132 393.333333 
L 132 388 
L 180 388 
L 180 382.666667 
L 132 382.666667 
L 132 377.333333 
L 180 377.333333 
L 180 372 
L 132 372 
" style="fill:none;stroke:#000000;stroke-width:1.984253;"/>
    <path clip-path="url(#pcf53b54252)" d="M 132 420 
L 132 372 
L 138 372 
L 138 420 
L 144 420 
L 144 372 
L 150 372 
L 150 420 
L 156 420 
L 156 372 
L 162 372 
L 162 420 
L 168 420 
L 168 372 
L 174 372 
L 174 420 
L 180 420 
L 180 372 
" style="fill:none;stroke:#000000;stroke-width:1.984253;"/>
    <path clip-path="url(#pcf53b54252)" d="M 132 372 
L 180 372 
L 180 367.2 
L 132 367.2 
L 132 362.4 
L 180 362.4 
L 180 357.6 
L 132 357.6 
L 132 352.8 
L 180 352.8 
L 180 348 
L 132 348 
L 132 343.2 
L 180 343.2 
L 180 338.4 
L 132 338.4 
L 132 333.6 
L 180 333.6 
L 180 328.8 
L 132 328.8 
L 132 324 
L 180 324 
" style="fill:none;stroke:#000000;stroke-width:1.984253;"/>
    <path clip-path="url(#pcf53b54252)" d="M 132 372 
L 132 324 
L 138.857143 324 
L 138.857143 372 
L 145.714286 372 
L 145.714286 324 
L 152.571429 324 
L 152.571429 372 
L 159.428571 372 
L 159.428571 324 
L 166.285714 324 
L 166.285714 372 
L 173.142857 372 
L 173.142857 324 
L 180 324 
L 180 372 
" style="fill:none;stroke:#000000;stroke-width:1.984253;"/>
    <path clip-path="url(#pcf53b54252)" d="M 132 324 
L 180 324 
L 180 318.666667 
L 132 318.666667 
L 132 313.333333 
L 180 313.333333 
L 180 308 
L 132 308 
L 132 302.666667 
L 180 302.666667 
L 180 297.333333 
L 132 297.333333 
L 132 292 
L 180 292 
L 180 286.666667 
L 132 286.666667 
L 132 281.333333 
L 180 281.333333 
L 180 276 
L 132 276 
" style="fill:none;stroke:#000000;stroke-width:1.984253;"/>
    <path clip-path="url(#pcf53b54252)" d="M 132 324 
L 132 276 
L 138 276 
L 138 324 
L 144 324 
L 144 276 
L 150 276 
L 150 324 
L 156 324 
L 156 276 
L 162 276 
L 162 324 
L 168 324 
L 168 276 
L 174 276 
L 174 324 
L 180 324 
L 180 276 
" style="fill:none;stroke:#000000;stroke-width:1.984253;"/>
    <path clip-path="url(#pcf53b54252)" d="M 132 276 
L 180 276 
L 180 270.666667 
L 132 270.666667 
L 132 265.333333 
L 180 265.333333 
L 180 260 
L 132 260 
L 132 254.666667 
L 180 254.666667 
L 180 249.333333 
L 132 249.333333 
L 132 244 
L 180 244 
L 180 238.666667 
L 132 238.666667 
L 132 233.333333 
L 180 233.333333 
L 180 228 
L 132 228 
" style="fill:none;stroke:#000000;stroke-width:1.984253;"/>
    <path clip-path="url(#pcf53b54252)" d="M 132 276 
L 132 228 
L 135.428571 228 
L 135.428571 276 
L 138.857143 276 
L 138.857143 228 
L 142.285714 228 
L 142.285714 276 
L 145.714286 276 
L 145.714286 228 
L 149.142857 228 
L 149.142857 276 
L 152.571429 276 
L 152.571429 228 
L 156 228 
L 156 276 
L 159.428571 276 
L 159.428571 228 
L 162.857143 228 
L 162.857143 276 
L 166.285714 276 
L 166.285714 228 
L 169.714286 228 
L 169.714286 276 
L 173.142857 276 
L 173.142857 228 
L 176.571429 228 
L 176.571429 276 
L 180 276 
L 180 228 
" style="fill:none;stroke:#000000;stroke-width:1.984253;"/>
    <path clip-path="url(#pcf53b54252)" d="M 132 228 
L 180 228 
L 180 222 
L 132 222 
L 132 216 
L 180 216 
L 180 210 
L 132 210 
L 132 204 
L 180 204 
L 180 198 
L 132 198 
L 132 192 
L 180 192 
L 180 186 
L 132 186 
L 132 180 
L 180 180 
" style="fill:none;stroke:#000000;stroke-width:1.984253;"/>
    <path clip-path="url(#pcf53b54252)" d="M 132 228 
L 132 180 
L 135 180 
L 135 228 
L 138 228 
L 138 180 
L 141 180 
L 141 228 
L 144 228 
L 144 180 
L 147 180 
L 147 228 
L 150 228 
L 150 180 
L 153 180 
L 153 228 
L 156 228 
L 156 180 
L 159 180 
L 159 228 
L 162 228 
L 162 180 
L 165 180 
L 165 228 
L 168 228 
L 168 180 
L 171 180 
L 171 228 
L 174 228 
L 174 180 
L 177 180 
L 177 228 
L 180 228 
L 180 180 
" style="fill:none;stroke:#000000;stroke-width:1.984253;"/>
    <path clip-path="url(#pcf53b54252)" d="M 132 180 
L 180 180 
L 180 173.142857 
L 132 173.142857 
L 132 166.285714 
L 180 166.285714 
L 180 159.428571 
L 132 159.428571 
L 132 152.571429 
L 180 152.571429 
L 180 145.714286 
L 132 145.714286 
L 132 138.857143 
L 180 138.857143 
L 180 132 
L 132 132 
" style="fill:none;stroke:#000000;stroke-width:1.984253;"/>
    <path clip-path="url(#pcf53b54252)" d="M 132 180 
L 132 132 
L 135 132 
L 135 180 
L 138 180 
L 138 132 
L 141 132 
L 141 180 
L 144 180 
L 144 132 
L 147 132 
L 147 180 
L 150 180 
L 150 132 
L 153 132 
L 153 180 
L 156 180 
L 156 132 
L 159 132 
L 159 180 
L 162 180 
L 162 132 
L 165 132 
L 165 180 
L 168 180 
L 168 132 
L 171 132 
L 171 180 
L 174 180 
L 174 132 
L 177 132 
L 177 180 
L 180 180 
L 180 132 
" style="fill:none;stroke:#000000;stroke-width:1.984253;"/>
    <path clip-path="url(#pcf53b54252)" d="M 132 132 
L 180 132 
L 180 127.636364 
L 132 127.636364 
L 132 123.272727 
L 180 123.272727 
L 180 118.909091 
L 132 118.909091 
L 132 114.545455 
L 180 114.545455 
L 180 110.181818 
L 132 110.181818 
L 132 105.818182 
L 180 105.818182 
L 180 101.454545 
L 132 101.454545 
L 132 97.090909 
L 180 97.090909 
L 180 92.727273 
L 132 92.727273 
L 132 88.363636 
L 180 88.363636 
L 180 84 
L 132 84 
" style="fill:none;stroke:#000000;stroke-width:1.984253;"/>
    <path clip-path="url(#pcf53b54252)" d="M 132 132 
L 132 84 
L 138 84 
L 138 132 
L 144 132 
L 144 84 
L 150 84 
L 150 132 
L 156 132 
L 156 84 
L 162 84 
L 162 132 
L 168 132 
L 168 84 
L 174 84 
L 174 132 
L 180 132 
L 180 84 
" style="fill:none;stroke:#000000;stroke-width:1.984253;"/>
    <path clip-path="url(#pcf53b54252)" d="M 132 84 
L 180 84 
L 180 81.176471 
L 132 81.176471 
L 132 78.352941 
L 180 78.352941 
L 180 75.529412 
L 132 75.529412 
L 132 72.705882 
L 180 72.705882 
L 180 69.882353 
L 132 69.882353 
L 132 67.058824 
L 180 67.058824 
L 180 64.235294 
L 132 64.235294 
L 132 61.411765 
L 180 61.411765 
L 180 58.588235 
L 132 58.588235 
L 132 55.764706 
L 180 55.764706 
L 180 52.941176 
L 132 52.941176 
L 132 50.117647 
L 180 50.117647 
L 180 47.294118 
L 132 47.294118 
L 132 44.470588 
L 180 44.470588 
L 180 41.647059 
L 132 41.647059 
L 132 38.823529 
L 180 38.823529 
L 180 36 
L 132 36 
" style="fill:none;stroke:#000000;stroke-width:1.984253;"/>
    <path clip-path="url(#pcf53b54252)" d="M 132 84 
L 132 36 
L 135.2 36 
L 135.2 84 
L 138.4 84 
L 138.4 36 
L 141.6 36 
L 141.6 84 
L 144.8 84 
L 144.8 36 
L 148 36 
L 148 84 
L 151.2 84 
L 151.2 36 
L 154.4 36 
L 154.4 84 
L 157.6 84 
L 157.6 36 
L 160.8 36 
L 160.8 84 
L 164 84 
L 164 36 
L 167.2 36 
L 167.2 84 
L 170.4 84 
L 170.4 36 
L 173.6 36 
L 173.6 84 
L 176.8 84 
L 176.8 36 
L 180 36 
L 180 84 
" style="fill:none;stroke:#000000;stroke-width:1.984253;"/>
    <path clip-path="url(#pcf53b54252)" d="M 180 468 
L 228 468 
L 228 461.142857 
L 180 461.142857 
L 180 454.285714 
L 228 454.285714 
L 228 447.428571 
L 180 447.428571 
L 180 440.571429 
L 228 440.571429 
L 228 433.714286 
L 180 433.714286 
L 180 426.857143 
L 228 426.857143 
L 228 420 
L 180 420 
" style="fill:none;stroke:#000000;stroke-width:1.984253;"/>
    <path clip-path="url(#pcf53b54252)" d="M 180 468 
L 180 420 
L 186.857143 420 
L 186.857143 468 
L 193.714286 468 
L 193.714286 420 
L 200.571429 420 
L 200.571429 468 
L 207.428571 468 
L 207.428571 420 
L 214.285714 420 
L 214.285714 468 
L 221.142857 468 
L 221.142857 420 
L 228 420 
L 228 468 
" style="fill:none;stroke:#000000;stroke-width:1.984253;"/>
    <path clip-path="url(#pcf53b54252)" d="M 180 420 
L 228 420 
L 228 413.142857 
L 180 413.142857 
L 180 406.285714 
L 228 406.285714 
L 228 399.428571 
L 180 399.428571 
L 180 392.571429 
L 228 392.571429 
L 228 385.714286 
L 180 385.714286 
L 180 378.857143 
L 228 378.857143 
L 228 372 
L 180 372 
" style="fill:none;stroke:#000000;stroke-width:1.984253;"/>
    <path clip-path="url(#pcf53b54252)" d="M 180 420 
L 180 372 
L 186 372 
L 186 420 
L 192 420 
L 192 372 
L 198 372 
L 198 420 
L 204 420 
L 204 372 
L 210 372 
L 210 420 
L 216 420 
L 216 372 
L 222 372 
L 222 420 
L 228 420 
L 228 372 
" style="fill:none;stroke:#000000;stroke-width:1.984253;"/>
    <path clip-path="url(#pcf53b54252)" d="M 180 372 
L 228 372 
L 228 365.142857 
L 180 365.142857 
L 180 358.285714 
L 228 358.285714 
L 228 351.428571 
L 180 351.428571 
L 180 344.571429 
L 228 344.571429 
L 228 337.714286 
L 180 337.714286 
L 180 330.857143 
L 228 330.857143 
L 228 324 
L 180 324 
" style="fill:none;stroke:#000000;stroke-width:1.984253;"/>
    <path clip-path="url(#pcf53b54252)" d="M 180 372 
L 180 324 
L 186 324 
L 186 372 
L 192 372 
L 192 324 
L 198 324 
L 198 372 
L 204 372 
L 204 324 
L 210 324 
L 210 372 
L 216 372 
L 216 324 
L 222 324 
L 222 372 
L 228 372 
L 228 324 
" style="fill:none;stroke:#000000;stroke-width:1.984253;"/>
    <path clip-path="url(#pcf53b54252)" d="M 180 324 
L 228 324 
L 228 320 
L 180 320 
L 180 316 
L 228 316 
L 228 312 
L 180 312 
L 180 308 
L 228 308 
L 228 304 
L 180 304 
L 180 300 
L 228 300 
L 228 296 
L 180 296 
L 180 292 
L 228 292 
L 228 288 
L 180 288 
L 180 284 
L 228 284 
L 228 280 
L 180 280 
L 180 276 
L 228 276 
" style="fill:none;stroke:#000000;stroke-width:1.984253;"/>
    <path clip-path="url(#pcf53b54252)" d="M 180 324 
L 180 276 
L 184.8 276 
L 184.8 324 
L 189.6 324 
L 189.6 276 
L 194.4 276 
L 194.4 324 
L 199.2 324 
L 199.2 276 
L 204 276 
L 204 324 
L 208.8 324 
L 208.8 276 
L 213.6 276 
L 213.6 324 
L 218.4 324 
L 218.4 276 
L 223.2 276 
L 223.2 324 
L 228 324 
L 228 276 
" style="fill:none;stroke:#000000;stroke-width:1.984253;"/>
    <path clip-path="url(#pcf53b54252)" d="M 180 276 
L 228 276 
L 228 272.571429 
L 180 272.571429 
L 180 269.142857 
L 228 269.142857 
L 228 265.714286 
L 180 265.714286 
L 180 262.285714 
L 228 262.285714 
L 228 258.857143 
L 180 258.857143 
L 180 255.428571 
L 228 255.428571 
L 228 252 
L 180 252 
L 180 248.571429 
L 228 248.571429 
L 228 245.142857 
L 180 245.142857 
L 180 241.714286 
L 228 241.714286 
L 228 238.285714 
L 180 238.285714 
L 180 234.857143 
L 228 234.857143 
L 228 231.428571 
L 180 231.428571 
L 180 228 
L 228 228 
" style="fill:none;stroke:#000000;stroke-width:1.984253;"/>
    <path clip-path="url(#pcf53b54252)" d="M 180 276 
L 180 228 
L 186.857143 228 
L 186.857143 276 
L 193.714286 276 
L 193.714286 228 
L 200.571429 228 
L 200.571429 276 
L 207.428571 276 
L 207.428571 228 
L 214.285714 228 
L 214.285714 276 
L 221.142857 276 
L 221.142857 228 
L 228 228 
L 228 276 
" style="fill:none;stroke:#000000;stroke-width:1.984253;"/>
    <path clip-path="url(#pcf53b54252)" d="M 180 228 
L 228 228 
L 228 225.176471 
L 180 225.176471 
L 180 222.352941 
L 228 222.352941 
L 228 219.529412 
L 180 219.529412 
L 180 216.705882 
L 228 216.705882 
L 228 213.882353 
L 180 213.882353 
L 180 211.058824 
L 228 211.058824 
L 228 208.235294 
L 180 208.235294 
L 180 205.411765 
L 228 205.411765 
L 228 202.588235 
L 180 202.588235 
L 180 199.764706 
L 228 199.764706 
L 228 196.941176 
L 180 196.941176 
L 180 194.117647 
L 228 194.117647 
L 228 191.294118 
L 180 191.294118 
L 180 188.470588 
L 228 188.470588 
L 228 185.647059 
L 180 185.647059 
L 180 182.823529 
L 228 182.823529 
L 228 180 
L 180 180 
" style="fill:none;stroke:#000000;stroke-width:1.984253;"/>
    <path clip-path="url(#pcf53b54252)" d="M 180 228 
L 180 180 
L 183.2 180 
L 183.2 228 
L 186.4 228 
L 186.4 180 
L 189.6 180 
L 189.6 228 
L 192.8 228 
L 192.8 180 
L 196 180 
L 196 228 
L 199.2 228 
L 199.2 180 
L 202.4 180 
L 202.4 228 
L 205.6 228 
L 205.6 180 
L 208.8 180 
L 208.8 228 
L 212 228 
L 212 180 
L 215.2 180 
L 215.2 228 
L 218.4 228 
L 218.4 180 
L 221.6 180 
L 221.6 228 
L 224.8 228 
L 224.8 180 
L 228 180 
L 228 228 
" style="fill:none;stroke:#000000;stroke-width:1.984253;"/>
    <path clip-path="url(#pcf53b54252)" d="M 180 180 
L 228 180 
L 228 177.473684 
L 180 177.473684 
L 180 174.947368 
L 228 174.947368 
L 228 172.421053 
L 180 172.421053 
L 180 169.894737 
L 228 169.894737 
L 228 167.368421 
L 180 167.368421 
L 180 164.842105 
L 228 164.842105 
L 228 162.315789 
L 180 162.315789 
L 180 159.789474 
L 228 159.789474 
L 228 157.263158 
L 180 157.263158 
L 180 154.736842 
L 228 154.736842 
L 228 152.210526 
L 180 152.210526 
L 180 149.684211 
L 228 149.684211 
L 228 147.157895 
L 180 147.157895 
L 180 144.631579 
L 228 144.631579 
L 228 142.105263 
L 180 142.105263 
L 180 139.578947 
L 228 139.578947 
L 228 137.052632 
L 180 137.052632 
L 180 134.526316 
L 228 134.526316 
L 228 132 
L 180 132 
" style="fill:none;stroke:#000000;stroke-width:1.984253;"/>
    <path clip-path="url(#pcf53b54252)" d="M 180 180 
L 180 132 
L 184.8 132 
L 184.8 180 
L 189.6 180 
L 189.6 132 
L 194.4 132 
L 194.4 180 
L 199.2 180 
L 199.2 132 
L 204 132 
L 204 180 
L 208.8 180 
L 208.8 132 
L 213.6 132 
L 213.6 180 
L 218.4 180 
L 218.4 132 
L 223.2 132 
L 223.2 180 
L 228 180 
L 228 132 
" style="fill:none;stroke:#000000;stroke-width:1.984253;"/>
    <path clip-path="url(#pcf53b54252)" d="M 180 132 
L 228 132 
L 228 129.333333 
L 180 129.333333 
L 180 126.666667 
L 228 126.666667 
L 228 124 
L 180 124 
L 180 121.333333 
L 228 121.333333 
L 228 118.666667 
L 180 118.666667 
L 180 116 
L 228 116 
L 228 113.333333 
L 180 113.333333 
L 180 110.666667 
L 228 110.666667 
L 228 108 
L 180 108 
L 180 105.333333 
L 228 105.333333 
L 228 102.666667 
L 180 102.666667 
L 180 100 
L 228 100 
L 228 97.333333 
L 180 97.333333 
L 180 94.666667 
L 228 94.666667 
L 228 92 
L 180 92 
L 180 89.333333 
L 228 89.333333 
L 228 86.666667 
L 180 86.666667 
L 180 84 
L 228 84 
" style="fill:none;stroke:#000000;stroke-width:1.984253;"/>
    <path clip-path="url(#pcf53b54252)" d="M 180 132 
L 180 84 
L 184.363636 84 
L 184.363636 132 
L 188.727273 132 
L 188.727273 84 
L 193.090909 84 
L 193.090909 132 
L 197.454545 132 
L 197.454545 84 
L 201.818182 84 
L 201.818182 132 
L 206.181818 132 
L 206.181818 84 
L 210.545455 84 
L 210.545455 132 
L 214.909091 132 
L 214.909091 84 
L 219.272727 84 
L 219.272727 132 
L 223.636364 132 
L 223.636364 84 
L 228 84 
L 228 132 
" style="fill:none;stroke:#000000;stroke-width:1.984253;"/>
    <path clip-path="url(#pcf53b54252)" d="M 180 84 
L 228 84 
L 228 81.818182 
L 180 81.818182 
L 180 79.636364 
L 228 79.636364 
L 228 77.454545 
L 180 77.454545 
L 180 75.272727 
L 228 75.272727 
L 228 73.090909 
L 180 73.090909 
L 180 70.909091 
L 228 70.909091 
L 228 68.727273 
L 180 68.727273 
L 180 66.545455 
L 228 66.545455 
L 228 64.363636 
L 180 64.363636 
L 180 62.181818 
L 228 62.181818 
L 228 60 
L 180 60 
L 180 57.818182 
L 228 57.818182 
L 228 55.636364 
L 180 55.636364 
L 180 53.454545 
L 228 53.454545 
L 228 51.272727 
L 180 51.272727 
L 180 49.090909 
L 228 49.090909 
L 228 46.909091 
L 180 46.909091 
L 180 44.727273 
L 228 44.727273 
L 228 42.545455 
L 180 42.545455 
L 180 40.363636 
L 228 40.363636 
L 228 38.181818 
L 180 38.181818 
L 180 36 
L 228 36 
" style="fill:none;stroke:#000000;stroke-width:1.984253;"/>
    <path clip-path="url(#pcf53b54252)" d="M 180 84 
L 180 36 
L 184 36 
L 184 84 
L 188 84 
L 188 36 
L 192 36 
L 192 84 
L 196 84 
L 196 36 
L 200 36 
L 200 84 
L 204 84 
L 204 36 
L 208 36 
L 208 84 
L 212 84 
L 212 36 
L 216 36 
L 216 84 
L 220 84 
L 220 36 
L 224 36 
L 224 84 
L 228 84 
L 228 36 
" style="fill:none;stroke:#000000;stroke-width:1.984253;"/>
    <path clip-path="url(#pcf53b54252)" d="M 228 468 
L 276 468 
L 276 461.142857 
L 228 461.142857 
L 228 454.285714 
L 276 454.285714 
L 276 447.428571 
L 228 447.428571 
L 228 440.571429 
L 276 440.571429 
L 276 433.714286 
L 228 433.714286 
L 228 426.857143 
L 276 426.857143 
L 276 420 
L 228 420 
" style="fill:none;stroke:#000000;stroke-width:1.984253;"/>
    <path clip-path="url(#pcf53b54252)" d="M 228 468 
L 228 420 
L 234.857143 420 
L 234.857143 468 
L 241.714286 468 
L 241.714286 420 
L 248.571429 420 
L 248.571429 468 
L 255.428571 468 
L 255.428571 420 
L 262.285714 420 
L 262.285714 468 
L 269.142857 468 
L 269.142857 420 
L 276 420 
L 276 468 
" style="fill:none;stroke:#000000;stroke-width:1.984253;"/>
    <path clip-path="url(#pcf53b54252)" d="M 228 420 
L 276 420 
L 276 414.666667 
L 228 414.666667 
L 228 409.333333 
L 276 409.333333 
L 276 404 
L 228 404 
L 228 398.666667 
L 276 398.666667 
L 276 393.333333 
L 228 393.333333 
L 228 388 
L 276 388 
L 276 382.666667 
L 228 382.666667 
L 228 377.333333 
L 276 377.333333 
L 276 372 
L 228 372 
" style="fill:none;stroke:#000000;stroke-width:1.984253;"/>
    <path clip-path="url(#pcf53b54252)" d="M 228 420 
L 228 372 
L 233.333333 372 
L 233.333333 420 
L 238.666667 420 
L 238.666667 372 
L 244 372 
L 244 420 
L 249.333333 420 
L 249.333333 372 
L 254.666667 372 
L 254.666667 420 
L 260 420 
L 260 372 
L 265.333333 372 
L 265.333333 420 
L 270.666667 420 
L 270.666667 372 
L 276 372 
L 276 420 
" style="fill:none;stroke:#000000;stroke-width:1.984253;"/>
    <path clip-path="url(#pcf53b54252)" d="M 228 372 
L 276 372 
L 276 367.636364 
L 228 367.636364 
L 228 363.272727 
L 276 363.272727 
L 276 358.909091 
L 228 358.909091 
L 228 354.545455 
L 276 354.545455 
L 276 350.181818 
L 228 350.181818 
L 228 345.818182 
L 276 345.818182 
L 276 341.454545 
L 228 341.454545 
L 228 337.090909 
L 276 337.090909 
L 276 332.727273 
L 228 332.727273 
L 228 328.363636 
L 276 328.363636 
L 276 324 
L 228 324 
" style="fill:none;stroke:#000000;stroke-width:1.984253;"/>
    <path clip-path="url(#pcf53b54252)" d="M 228 372 
L 228 324 
L 234.857143 324 
L 234.857143 372 
L 241.714286 372 
L 241.714286 324 
L 248.571429 324 
L 248.571429 372 
L 255.428571 372 
L 255.428571 324 
L 262.285714 324 
L 262.285714 372 
L 269.142857 372 
L 269.142857 324 
L 276 324 
L 276 372 
" style="fill:none;stroke:#000000;stroke-width:1.984253;"/>
    <path clip-path="url(#pcf53b54252)" d="M 228 324 
L 276 324 
L 276 320.307692 
L 228 320.307692 
L 228 316.615385 
L 276 316.615385 
L 276 312.923077 
L 228 312.923077 
L 228 309.230769 
L 276 309.230769 
L 276 305.538462 
L 228 305.538462 
L 228 301.846154 
L 276 301.846154 
L 276 298.153846 
L 228 298.153846 
L 228 294.461538 
L 276 294.461538 
L 276 290.769231 
L 228 290.769231 
L 228 287.076923 
L 276 287.076923 
L 276 283.384615 
L 228 283.384615 
L 228 279.692308 
L 276 279.692308 
L 276 276 
L 228 276 
" style="fill:none;stroke:#000000;stroke-width:1.984253;"/>
    <path clip-path="url(#pcf53b54252)" d="M 228 324 
L 228 276 
L 232.363636 276 
L 232.363636 324 
L 236.727273 324 
L 236.727273 276 
L 241.090909 276 
L 241.090909 324 
L 245.454545 324 
L 245.454545 276 
L 249.818182 276 
L 249.818182 324 
L 254.181818 324 
L 254.181818 276 
L 258.545455 276 
L 258.545455 324 
L 262.909091 324 
L 262.909091 276 
L 267.272727 276 
L 267.272727 324 
L 271.636364 324 
L 271.636364 276 
L 276 276 
L 276 324 
" style="fill:none;stroke:#000000;stroke-width:1.984253;"/>
    <path clip-path="url(#pcf53b54252)" d="M 228 276 
L 276 276 
L 276 272.571429 
L 228 272.571429 
L 228 269.142857 
L 276 269.142857 
L 276 265.714286 
L 228 265.714286 
L 228 262.285714 
L 276 262.285714 
L 276 258.857143 
L 228 258.857143 
L 228 255.428571 
L 276 255.428571 
L 276 252 
L 228 252 
L 228 248.571429 
L 276 248.571429 
L 276 245.142857 
L 228 245.142857 
L 228 241.714286 
L 276 241.714286 
L 276 238.285714 
L 228 238.285714 
L 228 234.857143 
L 276 234.857143 
L 276 231.428571 
L 228 231.428571 
L 228 228 
L 276 228 
" style="fill:none;stroke:#000000;stroke-width:1.984253;"/>
    <path clip-path="url(#pcf53b54252)" d="M 228 276 
L 228 228 
L 232.8 228 
L 232.8 276 
L 237.6 276 
L 237.6 228 
L 242.4 228 
L 242.4 276 
L 247.2 276 
L 247.2 228 
L 252 228 
L 252 276 
L 256.8 276 
L 256.8 228 
L 261.6 228 
L 261.6 276 
L 266.4 276 
L 266.4 228 
L 271.2 228 
L 271.2 276 
L 276 276 
L 276 228 
" style="fill:none;stroke:#000000;stroke-width:1.984253;"/>
    <path clip-path="url(#pcf53b54252)" d="M 228 228 
L 276 228 
L 276 224.571429 
L 228 224.571429 
L 228 221.142857 
L 276 221.142857 
L 276 217.714286 
L 228 217.714286 
L 228 214.285714 
L 276 214.285714 
L 276 210.857143 
L 228 210.857143 
L 228 207.428571 
L 276 207.428571 
L 276 204 
L 228 204 
L 228 200.571429 
L 276 200.571429 
L 276 197.142857 
L 228 197.142857 
L 228 193.714286 
L 276 193.714286 
L 276 190.285714 
L 228 190.285714 
L 228 186.857143 
L 276 186.857143 
L 276 183.428571 
L 228 183.428571 
L 228 180 
L 276 180 
" style="fill:none;stroke:#000000;stroke-width:1.984253;"/>
    <path clip-path="url(#pcf53b54252)" d="M 228 228 
L 228 180 
L 231.2 180 
L 231.2 228 
L 234.4 228 
L 234.4 180 
L 237.6 180 
L 237.6 228 
L 240.8 228 
L 240.8 180 
L 244 180 
L 244 228 
L 247.2 228 
L 247.2 180 
L 250.4 180 
L 250.4 228 
L 253.6 228 
L 253.6 180 
L 256.8 180 
L 256.8 228 
L 260 228 
L 260 180 
L 263.2 180 
L 263.2 228 
L 266.4 228 
L 266.4 180 
L 269.6 180 
L 269.6 228 
L 272.8 228 
L 272.8 180 
L 276 180 
L 276 228 
" style="fill:none;stroke:#000000;stroke-width:1.984253;"/>
    <path clip-path="url(#pcf53b54252)" d="M 228 180 
L 276 180 
L 276 176.307692 
L 228 176.307692 
L 228 172.615385 
L 276 172.615385 
L 276 168.923077 
L 228 168.923077 
L 228 165.230769 
L 276 165.230769 
L 276 161.538462 
L 228 161.538462 
L 228 157.846154 
L 276 157.846154 
L 276 154.153846 
L 228 154.153846 
L 228 150.461538 
L 276 150.461538 
L 276 146.769231 
L 228 146.769231 
L 228 143.076923 
L 276 143.076923 
L 276 139.384615 
L 228 139.384615 
L 228 135.692308 
L 276 135.692308 
L 276 132 
L 228 132 
" style="fill:none;stroke:#000000;stroke-width:1.984253;"/>
    <path clip-path="url(#pcf53b54252)" d="M 228 180 
L 228 132 
L 232.363636 132 
L 232.363636 180 
L 236.727273 180 
L 236.727273 132 
L 241.090909 132 
L 241.090909 180 
L 245.454545 180 
L 245.454545 132 
L 249.818182 132 
L 249.818182 180 
L 254.181818 180 
L 254.181818 132 
L 258.545455 132 
L 258.545455 180 
L 262.909091 180 
L 262.909091 132 
L 267.272727 132 
L 267.272727 180 
L 271.636364 180 
L 271.636364 132 
L 276 132 
L 276 180 
" style="fill:none;stroke:#000000;stroke-width:1.984253;"/>
    <path clip-path="url(#pcf53b54252)" d="M 228 132 
L 276 132 
L 276 125.142857 
L 228 125.142857 
L 228 118.285714 
L 276 118.285714 
L 276 111.428571 
L 228 111.428571 
L 228 104.571429 
L 276 104.571429 
L 276 97.714286 
L 228 97.714286 
L 228 90.857143 
L 276 90.857143 
L 276 84 
L 228 84 
" style="fill:none;stroke:#000000;stroke-width:1.984253;"/>
    <path clip-path="url(#pcf53b54252)" d="M 228 132 
L 228 84 
L 234.857143 84 
L 234.857143 132 
L 241.714286 132 
L 241.714286 84 
L 248.571429 84 
L 248.571429 132 
L 255.428571 132 
L 255.428571 84 
L 262.285714 84 
L 262.285714 132 
L 269.142857 132 
L 269.142857 84 
L 276 84 
L 276 132 
" style="fill:none;stroke:#000000;stroke-width:1.984253;"/>
    <path clip-path="url(#pcf53b54252)" d="M 228 84 
L 276 84 
L 276 79.2 
L 228 79.2 
L 228 74.4 
L 276 74.4 
L 276 69.6 
L 228 69.6 
L 228 64.8 
L 276 64.8 
L 276 60 
L 228 60 
L 228 55.2 
L 276 55.2 
L 276 50.4 
L 228 50.4 
L 228 45.6 
L 276 45.6 
L 276 40.8 
L 228 40.8 
L 228 36 
L 276 36 
" style="fill:none;stroke:#000000;stroke-width:1.984253;"/>
    <path clip-path="url(#pcf53b54252)" d="M 228 84 
L 228 36 
L 232.8 36 
L 232.8 84 
L 237.6 84 
L 237.6 36 
L 242.4 36 
L 242.4 84 
L 247.2 84 
L 247.2 36 
L 252 36 
L 252 84 
L 256.8 84 
L 256.8 36 
L 261.6 36 
L 261.6 84 
L 266.4 84 
L 266.4 36 
L 271.2 36 
L 271.2 84 
L 276 84 
L 276 36 
" style="fill:none;stroke:#000000;stroke-width:1.984253;"/>
    <path clip-path="url(#pcf53b54252)" d="M 276 468 
L 324 468 
L 324 461.142857 
L 276 461.142857 
L 276 454.285714 
L 324 454.285714 
L 324 447.428571 
L 276 447.428571 
L 276 440.571429 
L 324 440.571429 
L 324 433.714286 
L 276 433.714286 
L 276 426.857143 
L 324 426.857143 
L 324 420 
L 276 420 
" style="fill:none;stroke:#000000;stroke-width:1.984253;"/>
    <path clip-path="url(#pcf53b54252)" d="M 276 468 
L 276 420 
L 282.857143 420 
L 282.857143 468 
L 289.714286 468 
L 289.714286 420 
L 296.571429 420 
L 296.571429 468 
L 303.428571 468 
L 303.428571 420 
L 310.285714 420 
L 310.285714 468 
L 317.142857 468 
L 317.142857 420 
L 324 420 
L 324 468 
" style="fill:none;stroke:#000000;stroke-width:1.984253;"/>
    <path clip-path="url(#pcf53b54252)" d="M 276 420 
L 324 420 
L 324 413.142857 
L 276 413.142857 
L 276 406.285714 
L 324 406.285714 
L 324 399.428571 
L 276 399.428571 
L 276 392.571429 
L 324 392.571429 
L 324 385.714286 
L 276 385.714286 
L 276 378.857143 
L 324 378.857143 
L 324 372 
L 276 372 
" style="fill:none;stroke:#000000;stroke-width:1.984253;"/>
    <path clip-path="url(#pcf53b54252)" d="M 276 420 
L 276 372 
L 282 372 
L 282 420 
L 288 420 
L 288 372 
L 294 372 
L 294 420 
L 300 420 
L 300 372 
L 306 372 
L 306 420 
L 312 420 
L 312 372 
L 318 372 
L 318 420 
L 324 420 
L 324 372 
" style="fill:none;stroke:#000000;stroke-width:1.984253;"/>
    <path clip-path="url(#pcf53b54252)" d="M 276 372 
L 324 372 
L 324 365.142857 
L 276 365.142857 
L 276 358.285714 
L 324 358.285714 
L 324 351.428571 
L 276 351.428571 
L 276 344.571429 
L 324 344.571429 
L 324 337.714286 
L 276 337.714286 
L 276 330.857143 
L 324 330.857143 
L 324 324 
L 276 324 
" style="fill:none;stroke:#000000;stroke-width:1.984253;"/>
    <path clip-path="url(#pcf53b54252)" d="M 276 372 
L 276 324 
L 282.857143 324 
L 282.857143 372 
L 289.714286 372 
L 289.714286 324 
L 296.571429 324 
L 296.571429 372 
L 303.428571 372 
L 303.428571 324 
L 310.285714 324 
L 310.285714 372 
L 317.142857 372 
L 317.142857 324 
L 324 324 
L 324 372 
" style="fill:none;stroke:#000000;stroke-width:1.984253;"/>
    <path clip-path="url(#pcf53b54252)" d="M 276 324 
L 324 324 
L 324 317.142857 
L 276 317.142857 
L 276 310.285714 
L 324 310.285714 
L 324 303.428571 
L 276 303.428571 
L 276 296.571429 
L 324 296.571429 
L 324 289.714286 
L 276 289.714286 
L 276 282.857143 
L 324 282.857143 
L 324 276 
L 276 276 
" style="fill:none;stroke:#000000;stroke-width:1.984253;"/>
    <path clip-path="url(#pcf53b54252)" d="M 276 324 
L 276 276 
L 282 276 
L 282 324 
L 288 324 
L 288 276 
L 294 276 
L 294 324 
L 300 324 
L 300 276 
L 306 276 
L 306 324 
L 312 324 
L 312 276 
L 318 276 
L 318 324 
L 324 324 
L 324 276 
" style="fill:none;stroke:#000000;stroke-width:1.984253;"/>
    <path clip-path="url(#pcf53b54252)" d="M 276 276 
L 324 276 
L 324 270.666667 
L 276 270.666667 
L 276 265.333333 
L 324 265.333333 
L 324 260 
L 276 260 
L 276 254.666667 
L 324 254.666667 
L 324 249.333333 
L 276 249.333333 
L 276 244 
L 324 244 
L 324 238.666667 
L 276 238.666667 
L 276 233.333333 
L 324 233.333333 
L 324 228 
L 276 228 
" style="fill:none;stroke:#000000;stroke-width:1.984253;"/>
    <path clip-path="url(#pcf53b54252)" d="M 276 276 
L 276 228 
L 282.857143 228 
L 282.857143 276 
L 289.714286 276 
L 289.714286 228 
L 296.571429 228 
L 296.571429 276 
L 303.428571 276 
L 303.428571 228 
L 310.285714 228 
L 310.285714 276 
L 317.142857 276 
L 317.142857 228 
L 324 228 
L 324 276 
" style="fill:none;stroke:#000000;stroke-width:1.984253;"/>
    <path clip-path="url(#pcf53b54252)" d="M 276 228 
L 324 228 
L 324 224.571429 
L 276 224.571429 
L 276 221.142857 
L 324 221.142857 
L 324 217.714286 
L 276 217.714286 
L 276 214.285714 
L 324 214.285714 
L 324 210.857143 
L 276 210.857143 
L 276 207.428571 
L 324 207.428571 
L 324 204 
L 276 204 
L 276 200.571429 
L 324 200.571429 
L 324 197.142857 
L 276 197.142857 
L 276 193.714286 
L 324 193.714286 
L 324 190.285714 
L 276 190.285714 
L 276 186.857143 
L 324 186.857143 
L 324 183.428571 
L 276 183.428571 
L 276 180 
L 324 180 
" style="fill:none;stroke:#000000;stroke-width:1.984253;"/>
    <path clip-path="url(#pcf53b54252)" d="M 276 228 
L 276 180 
L 280 180 
L 280 228 
L 284 228 
L 284 180 
L 288 180 
L 288 228 
L 292 228 
L 292 180 
L 296 180 
L 296 228 
L 300 228 
L 300 180 
L 304 180 
L 304 228 
L 308 228 
L 308 180 
L 312 180 
L 312 228 
L 316 228 
L 316 180 
L 320 180 
L 320 228 
L 324 228 
L 324 180 
" style="fill:none;stroke:#000000;stroke-width:1.984253;"/>
    <path clip-path="url(#pcf53b54252)" d="M 276 180 
L 324 180 
L 324 177 
L 276 177 
L 276 174 
L 324 174 
L 324 171 
L 276 171 
L 276 168 
L 324 168 
L 324 165 
L 276 165 
L 276 162 
L 324 162 
L 324 159 
L 276 159 
L 276 156 
L 324 156 
L 324 153 
L 276 153 
L 276 150 
L 324 150 
L 324 147 
L 276 147 
L 276 144 
L 324 144 
L 324 141 
L 276 141 
L 276 138 
L 324 138 
L 324 135 
L 276 135 
L 276 132 
L 324 132 
" style="fill:none;stroke:#000000;stroke-width:1.984253;"/>
    <path clip-path="url(#pcf53b54252)" d="M 276 180 
L 276 132 
L 280.363636 132 
L 280.363636 180 
L 284.727273 180 
L 284.727273 132 
L 289.090909 132 
L 289.090909 180 
L 293.454545 180 
L 293.454545 132 
L 297.818182 132 
L 297.818182 180 
L 302.181818 180 
L 302.181818 132 
L 306.545455 132 
L 306.545455 180 
L 310.909091 180 
L 310.909091 132 
L 315.272727 132 
L 315.272727 180 
L 319.636364 180 
L 319.636364 132 
L 324 132 
L 324 180 
" style="fill:none;stroke:#000000;stroke-width:1.984253;"/>
    <path clip-path="url(#pcf53b54252)" d="M 276 132 
L 324 132 
L 324 129.714286 
L 276 129.714286 
L 276 127.428571 
L 324 127.428571 
L 324 125.142857 
L 276 125.142857 
L 276 122.857143 
L 324 122.857143 
L 324 120.571429 
L 276 120.571429 
L 276 118.285714 
L 324 118.285714 
L 324 116 
L 276 116 
L 276 113.714286 
L 324 113.714286 
L 324 111.428571 
L 276 111.428571 
L 276 109.142857 
L 324 109.142857 
L 324 106.857143 
L 276 106.857143 
L 276 104.571429 
L 324 104.571429 
L 324 102.285714 
L 276 102.285714 
L 276 100 
L 324 100 
L 324 97.714286 
L 276 97.714286 
L 276 95.428571 
L 324 95.428571 
L 324 93.142857 
L 276 93.142857 
L 276 90.857143 
L 324 90.857143 
L 324 88.571429 
L 276 88.571429 
L 276 86.285714 
L 324 86.285714 
L 324 84 
L 276 84 
" style="fill:none;stroke:#000000;stroke-width:1.984253;"/>
    <path clip-path="url(#pcf53b54252)" d="M 276 132 
L 276 84 
L 281.333333 84 
L 281.333333 132 
L 286.666667 132 
L 286.666667 84 
L 292 84 
L 292 132 
L 297.333333 132 
L 297.333333 84 
L 302.666667 84 
L 302.666667 132 
L 308 132 
L 308 84 
L 313.333333 84 
L 313.333333 132 
L 318.666667 132 
L 318.666667 84 
L 324 84 
L 324 132 
" style="fill:none;stroke:#000000;stroke-width:1.984253;"/>
    <path clip-path="url(#pcf53b54252)" d="M 276 84 
L 324 84 
L 324 78 
L 276 78 
L 276 72 
L 324 72 
L 324 66 
L 276 66 
L 276 60 
L 324 60 
L 324 54 
L 276 54 
L 276 48 
L 324 48 
L 324 42 
L 276 42 
L 276 36 
L 324 36 
" style="fill:none;stroke:#000000;stroke-width:1.984253;"/>
    <path clip-path="url(#pcf53b54252)" d="M 276 84 
L 276 36 
L 278.823529 36 
L 278.823529 84 
L 281.647059 84 
L 281.647059 36 
L 284.470588 36 
L 284.470588 84 
L 287.294118 84 
L 287.294118 36 
L 290.117647 36 
L 290.117647 84 
L 292.941176 84 
L 292.941176 36 
L 295.764706 36 
L 295.764706 84 
L 298.588235 84 
L 298.588235 36 
L 301.411765 36 
L 301.411765 84 
L 304.235294 84 
L 304.235294 36 
L 307.058824 36 
L 307.058824 84 
L 309.882353 84 
L 309.882353 36 
L 312.705882 36 
L 312.705882 84 
L 315.529412 84 
L 315.529412 36 
L 318.352941 36 
L 318.352941 84 
L 321.176471 84 
L 321.176471 36 
L 324 36 
L 324 84 
" style="fill:none;stroke:#000000;stroke-width:1.984253;"/>
   </g>
  </g>
 </g>
 <defs>
  <clipPath id="pcf53b54252">
   <rect height="504" width="360" x="0" y="0"/>
  </clipPath>
 </defs>
</svg>
