<?xml version="1.0" encoding="utf-8" standalone="no"?>
<!DOCTYPE svg PUBLIC "-//W3C//DTD SVG 1.1//EN"
  "http://www.w3.org/Graphics/SVG/1.1/DTD/svg11.dtd">
<!-- Created with matplotlib (https://matplotlib.org/) -->
<svg height="792pt" version="1.1" viewBox="0 0 612 792" width="612pt" xmlns="http://www.w3.org/2000/svg" xmlns:xlink="http://www.w3.org/1999/xlink">
 <metadata>
  <rdf:RDF xmlns:cc="http://creativecommons.org/ns#" xmlns:dc="http://purl.org/dc/elements/1.1/" xmlns:rdf="http://www.w3.org/1999/02/22-rdf-syntax-ns#">
   <cc:Work>
    <dc:type rdf:resource="http://purl.org/dc/dcmitype/StillImage"/>
    <dc:date>2020-10-14T15:34:18.407932</dc:date>
    <dc:format>image/svg+xml</dc:format>
    <dc:creator>
     <cc:Agent>
      <dc:title>Matplotlib v3.3.2, https://matplotlib.org/</dc:title>
     </cc:Agent>
    </dc:creator>
   </cc:Work>
  </rdf:RDF>
 </metadata>
 <defs>
  <style type="text/css">*{stroke-linecap:butt;stroke-linejoin:round;}</style>
 </defs>
 <g id="figure_1">
  <g id="axes_1">
   <g id="LineCollection_1">
    <path clip-path="url(#p0fc6f9a43d)" d="M 234 756 
L 234 36 
" style="fill:none;stroke:#000000;stroke-opacity:0.7;stroke-width:0.850394;"/>
    <path clip-path="url(#p0fc6f9a43d)" d="M 235.44 36 
L 235.44 756 
" style="fill:none;stroke:#000000;stroke-opacity:0.7;stroke-width:0.850394;"/>
    <path clip-path="url(#p0fc6f9a43d)" d="M 236.88 756 
L 236.88 36 
" style="fill:none;stroke:#000000;stroke-opacity:0.7;stroke-width:0.850394;"/>
    <path clip-path="url(#p0fc6f9a43d)" d="M 238.32 36 
L 238.32 756 
" style="fill:none;stroke:#000000;stroke-opacity:0.7;stroke-width:0.850394;"/>
    <path clip-path="url(#p0fc6f9a43d)" d="M 239.76 756 
L 239.76 36 
" style="fill:none;stroke:#000000;stroke-opacity:0.7;stroke-width:0.850394;"/>
    <path clip-path="url(#p0fc6f9a43d)" d="M 241.2 36 
L 241.2 756 
" style="fill:none;stroke:#000000;stroke-opacity:0.7;stroke-width:0.850394;"/>
    <path clip-path="url(#p0fc6f9a43d)" d="M 242.64 756 
L 242.64 36 
" style="fill:none;stroke:#000000;stroke-opacity:0.7;stroke-width:0.850394;"/>
    <path clip-path="url(#p0fc6f9a43d)" d="M 244.08 36 
L 244.08 756 
" style="fill:none;stroke:#000000;stroke-opacity:0.7;stroke-width:0.850394;"/>
    <path clip-path="url(#p0fc6f9a43d)" d="M 245.52 756 
L 245.52 36 
" style="fill:none;stroke:#000000;stroke-opacity:0.7;stroke-width:0.850394;"/>
    <path clip-path="url(#p0fc6f9a43d)" d="M 246.96 36 
L 246.96 756 
" style="fill:none;stroke:#000000;stroke-opacity:0.7;stroke-width:0.850394;"/>
    <path clip-path="url(#p0fc6f9a43d)" d="M 248.4 756 
L 248.4 36 
" style="fill:none;stroke:#000000;stroke-opacity:0.7;stroke-width:0.850394;"/>
    <path clip-path="url(#p0fc6f9a43d)" d="M 249.84 36 
L 249.84 756 
" style="fill:none;stroke:#000000;stroke-opacity:0.7;stroke-width:0.850394;"/>
    <path clip-path="url(#p0fc6f9a43d)" d="M 251.28 756 
L 251.28 36 
" style="fill:none;stroke:#000000;stroke-opacity:0.7;stroke-width:0.850394;"/>
    <path clip-path="url(#p0fc6f9a43d)" d="M 252.72 36 
L 252.72 756 
" style="fill:none;stroke:#000000;stroke-opacity:0.7;stroke-width:0.850394;"/>
    <path clip-path="url(#p0fc6f9a43d)" d="M 254.16 756 
L 254.16 36 
" style="fill:none;stroke:#000000;stroke-opacity:0.7;stroke-width:0.850394;"/>
    <path clip-path="url(#p0fc6f9a43d)" d="M 255.6 36 
L 255.6 756 
" style="fill:none;stroke:#000000;stroke-opacity:0.7;stroke-width:0.850394;"/>
    <path clip-path="url(#p0fc6f9a43d)" d="M 257.04 756 
L 257.04 36 
" style="fill:none;stroke:#000000;stroke-opacity:0.7;stroke-width:0.850394;"/>
    <path clip-path="url(#p0fc6f9a43d)" d="M 258.48 36 
L 258.48 756 
" style="fill:none;stroke:#000000;stroke-opacity:0.7;stroke-width:0.850394;"/>
    <path clip-path="url(#p0fc6f9a43d)" d="M 259.92 756 
L 259.92 36 
" style="fill:none;stroke:#000000;stroke-opacity:0.7;stroke-width:0.850394;"/>
    <path clip-path="url(#p0fc6f9a43d)" d="M 261.36 36 
L 261.36 756 
" style="fill:none;stroke:#000000;stroke-opacity:0.7;stroke-width:0.850394;"/>
    <path clip-path="url(#p0fc6f9a43d)" d="M 262.8 756 
L 262.8 36 
" style="fill:none;stroke:#000000;stroke-opacity:0.7;stroke-width:0.850394;"/>
    <path clip-path="url(#p0fc6f9a43d)" d="M 264.24 36 
L 264.24 756 
" style="fill:none;stroke:#000000;stroke-opacity:0.7;stroke-width:0.850394;"/>
    <path clip-path="url(#p0fc6f9a43d)" d="M 265.68 756 
L 265.68 36 
" style="fill:none;stroke:#000000;stroke-opacity:0.7;stroke-width:0.850394;"/>
    <path clip-path="url(#p0fc6f9a43d)" d="M 267.12 36 
L 267.12 756 
" style="fill:none;stroke:#000000;stroke-opacity:0.7;stroke-width:0.850394;"/>
    <path clip-path="url(#p0fc6f9a43d)" d="M 268.56 756 
L 268.56 36 
" style="fill:none;stroke:#000000;stroke-opacity:0.7;stroke-width:0.850394;"/>
    <path clip-path="url(#p0fc6f9a43d)" d="M 270 36 
L 270 756 
" style="fill:none;stroke:#000000;stroke-opacity:0.7;stroke-width:0.850394;"/>
    <path clip-path="url(#p0fc6f9a43d)" d="M 271.44 756 
L 271.44 36 
" style="fill:none;stroke:#000000;stroke-opacity:0.7;stroke-width:0.850394;"/>
    <path clip-path="url(#p0fc6f9a43d)" d="M 272.88 36 
L 272.88 756 
" style="fill:none;stroke:#000000;stroke-opacity:0.7;stroke-width:0.850394;"/>
    <path clip-path="url(#p0fc6f9a43d)" d="M 274.32 756 
L 274.32 36 
" style="fill:none;stroke:#000000;stroke-opacity:0.7;stroke-width:0.850394;"/>
    <path clip-path="url(#p0fc6f9a43d)" d="M 275.76 36 
L 275.76 756 
" style="fill:none;stroke:#000000;stroke-opacity:0.7;stroke-width:0.850394;"/>
    <path clip-path="url(#p0fc6f9a43d)" d="M 277.2 756 
L 277.2 36 
" style="fill:none;stroke:#000000;stroke-opacity:0.7;stroke-width:0.850394;"/>
    <path clip-path="url(#p0fc6f9a43d)" d="M 278.64 36 
L 278.64 756 
" style="fill:none;stroke:#000000;stroke-opacity:0.7;stroke-width:0.850394;"/>
    <path clip-path="url(#p0fc6f9a43d)" d="M 280.08 756 
L 280.08 36 
" style="fill:none;stroke:#000000;stroke-opacity:0.7;stroke-width:0.850394;"/>
    <path clip-path="url(#p0fc6f9a43d)" d="M 281.52 36 
L 281.52 756 
" style="fill:none;stroke:#000000;stroke-opacity:0.7;stroke-width:0.850394;"/>
    <path clip-path="url(#p0fc6f9a43d)" d="M 282.96 756 
L 282.96 36 
" style="fill:none;stroke:#000000;stroke-opacity:0.7;stroke-width:0.850394;"/>
    <path clip-path="url(#p0fc6f9a43d)" d="M 284.4 36 
L 284.4 756 
" style="fill:none;stroke:#000000;stroke-opacity:0.7;stroke-width:0.850394;"/>
    <path clip-path="url(#p0fc6f9a43d)" d="M 285.84 756 
L 285.84 36 
" style="fill:none;stroke:#000000;stroke-opacity:0.7;stroke-width:0.850394;"/>
    <path clip-path="url(#p0fc6f9a43d)" d="M 287.28 36 
L 287.28 756 
" style="fill:none;stroke:#000000;stroke-opacity:0.7;stroke-width:0.850394;"/>
    <path clip-path="url(#p0fc6f9a43d)" d="M 288.72 756 
L 288.72 36 
" style="fill:none;stroke:#000000;stroke-opacity:0.7;stroke-width:0.850394;"/>
    <path clip-path="url(#p0fc6f9a43d)" d="M 290.16 36 
L 290.16 756 
" style="fill:none;stroke:#000000;stroke-opacity:0.7;stroke-width:0.850394;"/>
    <path clip-path="url(#p0fc6f9a43d)" d="M 291.6 756 
L 291.6 36 
" style="fill:none;stroke:#000000;stroke-opacity:0.7;stroke-width:0.850394;"/>
    <path clip-path="url(#p0fc6f9a43d)" d="M 293.04 36 
L 293.04 756 
" style="fill:none;stroke:#000000;stroke-opacity:0.7;stroke-width:0.850394;"/>
    <path clip-path="url(#p0fc6f9a43d)" d="M 294.48 756 
L 294.48 36 
" style="fill:none;stroke:#000000;stroke-opacity:0.7;stroke-width:0.850394;"/>
    <path clip-path="url(#p0fc6f9a43d)" d="M 295.92 36 
L 295.92 756 
" style="fill:none;stroke:#000000;stroke-opacity:0.7;stroke-width:0.850394;"/>
    <path clip-path="url(#p0fc6f9a43d)" d="M 297.36 756 
L 297.36 36 
" style="fill:none;stroke:#000000;stroke-opacity:0.7;stroke-width:0.850394;"/>
    <path clip-path="url(#p0fc6f9a43d)" d="M 298.8 36 
L 298.8 756 
" style="fill:none;stroke:#000000;stroke-opacity:0.7;stroke-width:0.850394;"/>
    <path clip-path="url(#p0fc6f9a43d)" d="M 300.24 756 
L 300.24 36 
" style="fill:none;stroke:#000000;stroke-opacity:0.7;stroke-width:0.850394;"/>
    <path clip-path="url(#p0fc6f9a43d)" d="M 301.68 36 
L 301.68 756 
" style="fill:none;stroke:#000000;stroke-opacity:0.7;stroke-width:0.850394;"/>
    <path clip-path="url(#p0fc6f9a43d)" d="M 303.12 756 
L 303.12 36 
" style="fill:none;stroke:#000000;stroke-opacity:0.7;stroke-width:0.850394;"/>
    <path clip-path="url(#p0fc6f9a43d)" d="M 304.56 36 
L 304.56 756 
" style="fill:none;stroke:#000000;stroke-opacity:0.7;stroke-width:0.850394;"/>
    <path clip-path="url(#p0fc6f9a43d)" d="M 306 756 
L 306 36 
" style="fill:none;stroke:#000000;stroke-opacity:0.7;stroke-width:0.850394;"/>
    <path clip-path="url(#p0fc6f9a43d)" d="M 307.44 36 
L 307.44 756 
" style="fill:none;stroke:#000000;stroke-opacity:0.7;stroke-width:0.850394;"/>
    <path clip-path="url(#p0fc6f9a43d)" d="M 308.88 756 
L 308.88 36 
" style="fill:none;stroke:#000000;stroke-opacity:0.7;stroke-width:0.850394;"/>
    <path clip-path="url(#p0fc6f9a43d)" d="M 310.32 36 
L 310.32 756 
" style="fill:none;stroke:#000000;stroke-opacity:0.7;stroke-width:0.850394;"/>
    <path clip-path="url(#p0fc6f9a43d)" d="M 311.76 756 
L 311.76 36 
" style="fill:none;stroke:#000000;stroke-opacity:0.7;stroke-width:0.850394;"/>
    <path clip-path="url(#p0fc6f9a43d)" d="M 313.2 36 
L 313.2 756 
" style="fill:none;stroke:#000000;stroke-opacity:0.7;stroke-width:0.850394;"/>
    <path clip-path="url(#p0fc6f9a43d)" d="M 314.64 756 
L 314.64 36 
" style="fill:none;stroke:#000000;stroke-opacity:0.7;stroke-width:0.850394;"/>
    <path clip-path="url(#p0fc6f9a43d)" d="M 316.08 36 
L 316.08 756 
" style="fill:none;stroke:#000000;stroke-opacity:0.7;stroke-width:0.850394;"/>
    <path clip-path="url(#p0fc6f9a43d)" d="M 317.52 756 
L 317.52 36 
" style="fill:none;stroke:#000000;stroke-opacity:0.7;stroke-width:0.850394;"/>
    <path clip-path="url(#p0fc6f9a43d)" d="M 318.96 36 
L 318.96 756 
" style="fill:none;stroke:#000000;stroke-opacity:0.7;stroke-width:0.850394;"/>
    <path clip-path="url(#p0fc6f9a43d)" d="M 320.4 756 
L 320.4 36 
" style="fill:none;stroke:#000000;stroke-opacity:0.7;stroke-width:0.850394;"/>
    <path clip-path="url(#p0fc6f9a43d)" d="M 321.84 36 
L 321.84 756 
" style="fill:none;stroke:#000000;stroke-opacity:0.7;stroke-width:0.850394;"/>
    <path clip-path="url(#p0fc6f9a43d)" d="M 323.28 756 
L 323.28 36 
" style="fill:none;stroke:#000000;stroke-opacity:0.7;stroke-width:0.850394;"/>
    <path clip-path="url(#p0fc6f9a43d)" d="M 324.72 36 
L 324.72 756 
" style="fill:none;stroke:#000000;stroke-opacity:0.7;stroke-width:0.850394;"/>
    <path clip-path="url(#p0fc6f9a43d)" d="M 326.16 756 
L 326.16 36 
" style="fill:none;stroke:#000000;stroke-opacity:0.7;stroke-width:0.850394;"/>
    <path clip-path="url(#p0fc6f9a43d)" d="M 327.6 36 
L 327.6 756 
" style="fill:none;stroke:#000000;stroke-opacity:0.7;stroke-width:0.850394;"/>
    <path clip-path="url(#p0fc6f9a43d)" d="M 329.04 756 
L 329.04 36 
" style="fill:none;stroke:#000000;stroke-opacity:0.7;stroke-width:0.850394;"/>
    <path clip-path="url(#p0fc6f9a43d)" d="M 330.48 36 
L 330.48 756 
" style="fill:none;stroke:#000000;stroke-opacity:0.7;stroke-width:0.850394;"/>
    <path clip-path="url(#p0fc6f9a43d)" d="M 331.92 756 
L 331.92 36 
" style="fill:none;stroke:#000000;stroke-opacity:0.7;stroke-width:0.850394;"/>
    <path clip-path="url(#p0fc6f9a43d)" d="M 333.36 36 
L 333.36 756 
" style="fill:none;stroke:#000000;stroke-opacity:0.7;stroke-width:0.850394;"/>
    <path clip-path="url(#p0fc6f9a43d)" d="M 334.8 756 
L 334.8 36 
" style="fill:none;stroke:#000000;stroke-opacity:0.7;stroke-width:0.850394;"/>
    <path clip-path="url(#p0fc6f9a43d)" d="M 336.24 36 
L 336.24 756 
" style="fill:none;stroke:#000000;stroke-opacity:0.7;stroke-width:0.850394;"/>
    <path clip-path="url(#p0fc6f9a43d)" d="M 337.68 756 
L 337.68 36 
" style="fill:none;stroke:#000000;stroke-opacity:0.7;stroke-width:0.850394;"/>
    <path clip-path="url(#p0fc6f9a43d)" d="M 339.12 36 
L 339.12 756 
" style="fill:none;stroke:#000000;stroke-opacity:0.7;stroke-width:0.850394;"/>
    <path clip-path="url(#p0fc6f9a43d)" d="M 340.56 756 
L 340.56 36 
" style="fill:none;stroke:#000000;stroke-opacity:0.7;stroke-width:0.850394;"/>
    <path clip-path="url(#p0fc6f9a43d)" d="M 342 36 
L 342 756 
" style="fill:none;stroke:#000000;stroke-opacity:0.7;stroke-width:0.850394;"/>
    <path clip-path="url(#p0fc6f9a43d)" d="M 343.44 756 
L 343.44 36 
" style="fill:none;stroke:#000000;stroke-opacity:0.7;stroke-width:0.850394;"/>
    <path clip-path="url(#p0fc6f9a43d)" d="M 344.88 36 
L 344.88 756 
" style="fill:none;stroke:#000000;stroke-opacity:0.7;stroke-width:0.850394;"/>
    <path clip-path="url(#p0fc6f9a43d)" d="M 346.32 756 
L 346.32 36 
" style="fill:none;stroke:#000000;stroke-opacity:0.7;stroke-width:0.850394;"/>
    <path clip-path="url(#p0fc6f9a43d)" d="M 347.76 36 
L 347.76 756 
" style="fill:none;stroke:#000000;stroke-opacity:0.7;stroke-width:0.850394;"/>
    <path clip-path="url(#p0fc6f9a43d)" d="M 349.2 756 
L 349.2 36 
" style="fill:none;stroke:#000000;stroke-opacity:0.7;stroke-width:0.850394;"/>
    <path clip-path="url(#p0fc6f9a43d)" d="M 350.64 36 
L 350.64 756 
" style="fill:none;stroke:#000000;stroke-opacity:0.7;stroke-width:0.850394;"/>
    <path clip-path="url(#p0fc6f9a43d)" d="M 352.08 756 
L 352.08 36 
" style="fill:none;stroke:#000000;stroke-opacity:0.7;stroke-width:0.850394;"/>
    <path clip-path="url(#p0fc6f9a43d)" d="M 353.52 36 
L 353.52 756 
" style="fill:none;stroke:#000000;stroke-opacity:0.7;stroke-width:0.850394;"/>
    <path clip-path="url(#p0fc6f9a43d)" d="M 354.96 756 
L 354.96 36 
" style="fill:none;stroke:#000000;stroke-opacity:0.7;stroke-width:0.850394;"/>
    <path clip-path="url(#p0fc6f9a43d)" d="M 356.4 36 
L 356.4 756 
" style="fill:none;stroke:#000000;stroke-opacity:0.7;stroke-width:0.850394;"/>
    <path clip-path="url(#p0fc6f9a43d)" d="M 357.84 756 
L 357.84 36 
" style="fill:none;stroke:#000000;stroke-opacity:0.7;stroke-width:0.850394;"/>
    <path clip-path="url(#p0fc6f9a43d)" d="M 359.28 36 
L 359.28 756 
" style="fill:none;stroke:#000000;stroke-opacity:0.7;stroke-width:0.850394;"/>
    <path clip-path="url(#p0fc6f9a43d)" d="M 360.72 756 
L 360.72 36 
" style="fill:none;stroke:#000000;stroke-opacity:0.7;stroke-width:0.850394;"/>
    <path clip-path="url(#p0fc6f9a43d)" d="M 362.16 36 
L 362.16 756 
" style="fill:none;stroke:#000000;stroke-opacity:0.7;stroke-width:0.850394;"/>
    <path clip-path="url(#p0fc6f9a43d)" d="M 363.6 756 
L 363.6 36 
" style="fill:none;stroke:#000000;stroke-opacity:0.7;stroke-width:0.850394;"/>
    <path clip-path="url(#p0fc6f9a43d)" d="M 365.04 36 
L 365.04 756 
" style="fill:none;stroke:#000000;stroke-opacity:0.7;stroke-width:0.850394;"/>
    <path clip-path="url(#p0fc6f9a43d)" d="M 366.48 756 
L 366.48 36 
" style="fill:none;stroke:#000000;stroke-opacity:0.7;stroke-width:0.850394;"/>
    <path clip-path="url(#p0fc6f9a43d)" d="M 367.92 36 
L 367.92 756 
" style="fill:none;stroke:#000000;stroke-opacity:0.7;stroke-width:0.850394;"/>
    <path clip-path="url(#p0fc6f9a43d)" d="M 369.36 756 
L 369.36 36 
" style="fill:none;stroke:#000000;stroke-opacity:0.7;stroke-width:0.850394;"/>
    <path clip-path="url(#p0fc6f9a43d)" d="M 370.8 36 
L 370.8 756 
" style="fill:none;stroke:#000000;stroke-opacity:0.7;stroke-width:0.850394;"/>
    <path clip-path="url(#p0fc6f9a43d)" d="M 372.24 756 
L 372.24 36 
" style="fill:none;stroke:#000000;stroke-opacity:0.7;stroke-width:0.850394;"/>
    <path clip-path="url(#p0fc6f9a43d)" d="M 373.68 36 
L 373.68 756 
" style="fill:none;stroke:#000000;stroke-opacity:0.7;stroke-width:0.850394;"/>
    <path clip-path="url(#p0fc6f9a43d)" d="M 375.12 756 
L 375.12 36 
" style="fill:none;stroke:#000000;stroke-opacity:0.7;stroke-width:0.850394;"/>
    <path clip-path="url(#p0fc6f9a43d)" d="M 376.56 36 
L 376.56 756 
" style="fill:none;stroke:#000000;stroke-opacity:0.7;stroke-width:0.850394;"/>
    <path clip-path="url(#p0fc6f9a43d)" d="M 378 756 
L 378 36 
" style="fill:none;stroke:#000000;stroke-opacity:0.7;stroke-width:0.850394;"/>
   </g>
  </g>
 </g>
 <defs>
  <clipPath id="p0fc6f9a43d">
   <rect height="792" width="612" x="0" y="0"/>
  </clipPath>
 </defs>
</svg>
