<?xml version="1.0" encoding="utf-8" ?>
<svg baseProfile="tiny" height="865.0303" version="1.2" width="1118.6667" xmlns="http://www.w3.org/2000/svg" xmlns:ev="http://www.w3.org/2001/xml-events" xmlns:inkscape="http://www.inkscape.org/namespaces/inkscape" xmlns:xlink="http://www.w3.org/1999/xlink">
  <defs/>
  <g id="layer1" inkscape:groupmode="layer" inkscape:label="1" style="display:inline">
    <path d="M1052.5449039999999,31.99176933333333 L1088.801252,17.49986533333333" fill="none" stroke="black"/>
    <path d="M1088.801252,17.49986533333333 L1118.6666666666665,48.36808666666667" fill="none" stroke="black"/>
    <path d="M1118.6666666666665,199.132624 L1114.4813519999998,217.73809466666668" fill="none" stroke="black"/>
    <path d="M1114.4813519999998,217.73809466666668 L1047.2279173333332,37.883749333333334" fill="none" stroke="black"/>
    <path d="M1047.2279173333332,37.883749333333334 L1052.5449039999999,31.99176933333333" fill="none" stroke="black"/>
    <path d="M813.4980186666667,219.17774533333332 L949.6366666666667,461.8366773333333" fill="none" stroke="black"/>
    <path d="M949.6366666666667,461.8366773333333 L819.8282906666667,468.49943199999996" fill="none" stroke="black"/>
    <path d="M819.8282906666667,468.49943199999996 L748.3064586666666,244.14977066666665" fill="none" stroke="black"/>
    <path d="M748.3064586666666,244.14977066666665 L813.4980186666667,219.17774533333332" fill="none" stroke="black"/>
    <path d="M726.6485226666667,246.60963466666666 L578.3270626666666,174.909492" fill="none" stroke="black"/>
    <path d="M578.3270626666666,174.909492 L470.38826666666665,401.926904" fill="none" stroke="black"/>
    <path d="M470.38826666666665,401.926904 L632.51644,521.8090893333333" fill="none" stroke="black"/>
    <path d="M632.51644,521.8090893333333 L798.170356,470.95929599999994" fill="none" stroke="black"/>
    <path d="M798.170356,470.95929599999994 L726.6485226666667,246.60963466666666" fill="none" stroke="black"/>
    <path d="M954.8973599999999,164.77426933333334 L862.6767226666666,134.61382666666665" fill="none" stroke="black"/>
    <path d="M862.6767226666666,134.61382666666665 L795.4974906666666,21.05164933333333" fill="none" stroke="black"/>
    <path d="M795.4974906666666,21.05164933333333 L1014.2214293333333,52.40174133333333" fill="none" stroke="black"/>
    <path d="M1014.2214293333333,52.40174133333333 L954.8973599999999,164.77426933333334" fill="none" stroke="black"/>
    <path d="M840.0809559999999,133.40424266666668 L802.411028,190.33390266666666" fill="none" stroke="black"/>
    <path d="M802.411028,190.33390266666666 L737.2194679999999,215.305928" fill="none" stroke="black"/>
    <path d="M737.2194679999999,215.305928 L588.898008,143.60578666666666" fill="none" stroke="black"/>
    <path d="M588.898008,143.60578666666666 L597.01738,0.0" fill="none" stroke="black"/>
    <path d="M751.7830399999999,0.0 L772.901724,19.842063999999997" fill="none" stroke="black"/>
    <path d="M772.901724,19.842063999999997 L840.0809559999999,133.40424266666668" fill="none" stroke="black"/>
    <path d="M1006.9391413333333,27.938944 L1018.4816493333333,18.342252" fill="none" stroke="black"/>
    <path d="M1018.4816493333333,18.342252 L1023.798636,12.450273333333334" fill="none" stroke="black"/>
    <path d="M1023.798636,12.450273333333334 L1011.3395373333333,0.0" fill="none" stroke="black"/>
    <path d="M812.0141746666667,0.0 L1006.9391413333333,27.938944" fill="none" stroke="black"/>
    <path d="M957.9475666666667,185.98816666666667 L1068.2804599999997,463.862268" fill="none" stroke="black"/>
    <path d="M1068.2804599999997,463.862268 L964.1956493333333,455.41631733333327" fill="none" stroke="black"/>
    <path d="M964.1956493333333,455.41631733333327 L828.0570013333332,212.75738533333333" fill="none" stroke="black"/>
    <path d="M828.0570013333332,212.75738533333333 L865.7269293333334,155.82772533333335" fill="none" stroke="black"/>
    <path d="M865.7269293333334,155.82772533333335 L957.9475666666667,185.98816666666667" fill="none" stroke="black"/>
    <path d="M971.4211693333333,181.07092533333332 L1081.7540626666666,458.94502666666665" fill="none" stroke="black"/>
    <path d="M1081.7540626666666,458.94502666666665 L1097.2818746666665,465.53484399999996" fill="none" stroke="black"/>
    <path d="M1097.2818746666665,465.53484399999996 L1109.5411826666666,238.95605333333333" fill="none" stroke="black"/>
    <path d="M1109.5411826666666,238.95605333333333 L1042.287748,59.101706666666665" fill="none" stroke="black"/>
    <path d="M1042.287748,59.101706666666665 L1030.74524,68.69839866666665" fill="none" stroke="black"/>
    <path d="M1030.74524,68.69839866666665 L971.4211693333333,181.07092533333332" fill="none" stroke="black"/>
    <path d="M360.84736933333335,639.0137 L349.563424,442.969428" fill="none" stroke="black"/>
    <path d="M349.563424,442.969428 L444.657648,435.4428199999999" fill="none" stroke="black"/>
    <path d="M444.657648,435.4428199999999 L606.7858226666666,555.3250066666667" fill="none" stroke="black"/>
    <path d="M606.7858226666666,555.3250066666667 L596.095496,731.1247733333333" fill="none" stroke="black"/>
    <path d="M596.095496,731.1247733333333 L461.9310773333333,775.3408026666666" fill="none" stroke="black"/>
    <path d="M461.9310773333333,775.3408026666666 L360.84736933333335,639.0137" fill="none" stroke="black"/>
    <path d="M393.941628,831.7360266666666 L452.00712133333326,798.4529946666667" fill="none" stroke="black"/>
    <path d="M452.00712133333326,798.4529946666667 L350.92341466666664,662.125892" fill="none" stroke="black"/>
    <path d="M350.92341466666664,662.125892 L323.42303066666665,765.2967413333334" fill="none" stroke="black"/>
    <path d="M323.42303066666665,765.2967413333334 L393.941628,831.7360266666666" fill="none" stroke="black"/>
    <path d="M227.51018266666665,735.3655640000001 L309.8054173333333,744.0816546666666" fill="none" stroke="black"/>
    <path d="M309.8054173333333,744.0816546666666 L337.3058013333333,640.9108053333333" fill="none" stroke="black"/>
    <path d="M337.3058013333333,640.9108053333333 L326.0218546666666,444.8665333333333" fill="none" stroke="black"/>
    <path d="M326.0218546666666,444.8665333333333 L243.981072,433.1606746666666" fill="none" stroke="black"/>
    <path d="M243.981072,433.1606746666666 L205.14204533333336,604.0456733333333" fill="none" stroke="black"/>
    <path d="M205.14204533333336,604.0456733333333 L227.51018266666665,735.3655640000001" fill="none" stroke="black"/>
    <path d="M177.39228,831.003844 L192.76267466666664,865.0303026666667" fill="none" stroke="black"/>
    <path d="M366.6830706666666,865.0303026666667 L378.3232346666667,840.1459893333334" fill="none" stroke="black"/>
    <path d="M378.3232346666667,840.1459893333334 L307.8046373333333,773.7067040000001" fill="none" stroke="black"/>
    <path d="M307.8046373333333,773.7067040000001 L225.50940133333333,764.9906133333334" fill="none" stroke="black"/>
    <path d="M225.50940133333333,764.9906133333334 L177.39228,831.003844" fill="none" stroke="black"/>
    <path d="M72.73293333333332,792.9620880000001 L76.77742266666665,695.301392" fill="none" stroke="black"/>
    <path d="M76.77742266666665,695.301392 L106.62690666666666,691.5460733333333" fill="none" stroke="black"/>
    <path d="M106.62690666666666,691.5460733333333 L104.48688933333332,807.1475906666666" fill="none" stroke="black"/>
    <path d="M104.48688933333332,807.1475906666666 L80.39292666666665,808.2555253333334" fill="none" stroke="black"/>
    <path d="M80.39292666666665,808.2555253333334 L72.73293333333332,792.9620880000001" fill="none" stroke="black"/>
    <path d="M68.70703866666666,789.983932 L9.839368,690.975204" fill="none" stroke="black"/>
    <path d="M9.839368,690.975204 L72.751528,692.3232360000001" fill="none" stroke="black"/>
    <path d="M72.751528,692.3232360000001 L68.70703866666666,789.983932" fill="none" stroke="black"/>
    <path d="M70.58077066666665,646.0586266666667 L144.832612,578.2864093333334" fill="none" stroke="black"/>
    <path d="M144.832612,578.2864093333334 L183.67163733333334,407.40141066666666" fill="none" stroke="black"/>
    <path d="M183.67163733333334,407.40141066666666 L0.0,299.7087813333333" fill="none" stroke="black"/>
    <path d="M0.0,648.941188 L40.73128666666667,649.8139453333333" fill="none" stroke="black"/>
    <path d="M40.73128666666667,649.8139453333333 L70.58077066666665,646.0586266666667" fill="none" stroke="black"/>
    <path d="M112.67633066666666,804.3597946666667 L163.31920399999998,818.3191826666666" fill="none" stroke="black"/>
    <path d="M163.31920399999998,818.3191826666666 L211.43632533333334,752.305952" fill="none" stroke="black"/>
    <path d="M211.43632533333334,752.305952 L189.06818933333332,620.9860613333334" fill="none" stroke="black"/>
    <path d="M189.06818933333332,620.9860613333334 L114.81634799999999,688.7582773333334" fill="none" stroke="black"/>
    <path d="M114.81634799999999,688.7582773333334 L112.67633066666666,804.3597946666667" fill="none" stroke="black"/>
    <path d="M64.73532266666666,790.8399853333334 L5.867652,691.8312586666666" fill="none" stroke="black"/>
    <path d="M5.867652,691.8312586666666 L0.0,688.41792" fill="none" stroke="black"/>
    <path d="M0.0,791.4656586666666 L26.632988,831.5935226666667" fill="none" stroke="black"/>
    <path d="M26.632988,831.5935226666667 L72.39531466666666,806.133424" fill="none" stroke="black"/>
    <path d="M72.39531466666666,806.133424 L64.73532266666666,790.8399853333334" fill="none" stroke="black"/>
    <path d="M1.3333333333333333,863.6969693333334 L1117.3333333333333,863.6969693333334" fill="none" stroke="black"/>
    <path d="M1117.3333333333333,863.6969693333334 L1117.3333333333333,1.3333333333333333" fill="none" stroke="black"/>
    <path d="M1117.3333333333333,1.3333333333333333 L1.3333333333333333,1.3333333333333333" fill="none" stroke="black"/>
    <path d="M1.3333333333333333,1.3333333333333333 L1.3333333333333333,863.6969693333334" fill="none" stroke="black"/>
  </g>
  <g id="layer2" inkscape:groupmode="layer" inkscape:label="2" style="display:inline">
    <path d="M1057.0426253333333,37.08082266666667 L1087.949676,24.72706933333333" fill="none" stroke="black"/>
    <path d="M1087.949676,24.72706933333333 L1118.6666666666665,56.47546" fill="none" stroke="black"/>
    <path d="M1118.6666666666665,156.187772 L1109.8409093333332,195.421952" fill="none" stroke="black"/>
    <path d="M1109.8409093333332,195.421952 L1052.5101119999997,42.10349333333333" fill="none" stroke="black"/>
    <path d="M1052.5101119999997,42.10349333333333 L1057.0426253333333,37.08082266666667" fill="none" stroke="black"/>
    <path d="M816.123372,235.09436133333335 L932.1759906666666,441.95115466666664" fill="none" stroke="black"/>
    <path d="M932.1759906666666,441.95115466666664 L821.5196693333334,447.63088" fill="none" stroke="black"/>
    <path d="M821.5196693333334,447.63088 L760.5502386666667,256.3819893333333" fill="none" stroke="black"/>
    <path d="M760.5502386666667,256.3819893333333 L816.123372,235.09436133333335" fill="none" stroke="black"/>
    <path d="M716.1430093333333,261.31815866666665 L589.7050426666666,200.19672533333335" fill="none" stroke="black"/>
    <path d="M589.7050426666666,200.19672533333335 L497.6916426666666,393.719764" fill="none" stroke="black"/>
    <path d="M497.6916426666666,393.719764 L635.8992666666667,495.91441466666663" fill="none" stroke="black"/>
    <path d="M635.8992666666667,495.91441466666663 L777.11244,452.56704933333333" fill="none" stroke="black"/>
    <path d="M777.11244,452.56704933333333 L716.1430093333333,261.31815866666665" fill="none" stroke="black"/>
    <path d="M949.0869680000001,157.00930400000001 L870.4726546666667,131.29876266666668" fill="none" stroke="black"/>
    <path d="M870.4726546666667,131.29876266666668 L813.2051133333333,34.49166" fill="none" stroke="black"/>
    <path d="M813.2051133333333,34.49166 L999.6583066666667,61.216329333333334" fill="none" stroke="black"/>
    <path d="M999.6583066666667,61.216329333333334 L949.0869680000001,157.00930400000001" fill="none" stroke="black"/>
    <path d="M825.5389826666666,128.803492 L793.426912,177.33369466666667" fill="none" stroke="black"/>
    <path d="M793.426912,177.33369466666667 L737.85378,198.62132266666666" fill="none" stroke="black"/>
    <path d="M737.85378,198.62132266666666 L611.4158133333334,137.49989066666666" fill="none" stroke="black"/>
    <path d="M611.4158133333334,137.49989066666666 L619.1899626666667,0.0" fill="none" stroke="black"/>
    <path d="M734.2164333333334,0.0 L768.27144,31.996389333333333" fill="none" stroke="black"/>
    <path d="M768.27144,31.996389333333333 L825.5389826666666,128.803492" fill="none" stroke="black"/>
    <path d="M984.626748,13.097492 L994.466264,4.916706666666666" fill="none" stroke="black"/>
    <path d="M994.466264,4.916706666666666 L998.903152,0.0" fill="none" stroke="black"/>
    <path d="M893.2479106666666,0.0 L984.626748,13.097492" fill="none" stroke="black"/>
    <path d="M955.7542400000001,199.44278666666665 L1049.8085106666665,436.3190693333333" fill="none" stroke="black"/>
    <path d="M1049.8085106666665,436.3190693333333 L961.080476,429.1192426666666" fill="none" stroke="black"/>
    <path d="M961.080476,429.1192426666666 L845.0278573333334,222.26244799999998" fill="none" stroke="black"/>
    <path d="M845.0278573333334,222.26244799999998 L877.1399266666667,173.73224666666667" fill="none" stroke="black"/>
    <path d="M877.1399266666667,173.73224666666667 L955.7542400000001,199.44278666666665" fill="none" stroke="black"/>
    <path d="M981.3713426666667,189.39270266666665 L1075.425613333333,426.26898533333326" fill="none" stroke="black"/>
    <path d="M1075.425613333333,426.26898533333326 L1088.6624359999998,431.8865346666666" fill="none" stroke="black"/>
    <path d="M1088.6624359999998,431.8865346666666 L1099.1129933333332,238.73740133333334" fill="none" stroke="black"/>
    <path d="M1099.1129933333332,238.73740133333334 L1041.7821973333332,85.41894266666667" fill="none" stroke="black"/>
    <path d="M1041.7821973333332,85.41894266666667 L1031.9426813333332,93.599728" fill="none" stroke="black"/>
    <path d="M1031.9426813333332,93.599728 L981.3713426666667,189.39270266666665" fill="none" stroke="black"/>
    <path d="M374.22661866666664,633.387824 L364.6075173333333,466.26811733333335" fill="none" stroke="black"/>
    <path d="M364.6075173333333,466.26811733333335 L445.6714466666666,459.851992" fill="none" stroke="black"/>
    <path d="M445.6714466666666,459.851992 L583.8790706666667,562.0466426666667" fill="none" stroke="black"/>
    <path d="M583.8790706666667,562.0466426666667 L574.7660053333333,711.9087386666666" fill="none" stroke="black"/>
    <path d="M574.7660053333333,711.9087386666666 L460.39633599999996,749.6010933333333" fill="none" stroke="black"/>
    <path d="M460.39633599999996,749.6010933333333 L374.22661866666664,633.387824" fill="none" stroke="black"/>
    <path d="M393.61660533333327,823.0536346666667 L443.11505866666664,794.6812146666666" fill="none" stroke="black"/>
    <path d="M443.11505866666664,794.6812146666666 L356.94534133333326,678.4679466666666" fill="none" stroke="black"/>
    <path d="M356.94534133333326,678.4679466666666 L333.50239199999993,766.4168666666666" fill="none" stroke="black"/>
    <path d="M333.50239199999993,766.4168666666666 L393.61660533333327,823.0536346666667" fill="none" stroke="black"/>
    <path d="M232.318844,718.7073586666667 L302.47216,726.137468" fill="none" stroke="black"/>
    <path d="M302.47216,726.137468 L325.9151093333333,638.188548" fill="none" stroke="black"/>
    <path d="M325.9151093333333,638.188548 L316.296008,471.06883999999997" fill="none" stroke="black"/>
    <path d="M316.296008,471.06883999999997 L246.35960266666666,461.090076" fill="none" stroke="black"/>
    <path d="M246.35960266666666,461.090076 L213.25092533333336,606.7625346666667" fill="none" stroke="black"/>
    <path d="M213.25092533333336,606.7625346666667 L232.318844,718.7073586666667" fill="none" stroke="black"/>
    <path d="M189.23437866666666,834.3080493333333 L203.11220133333333,865.0303026666667" fill="none" stroke="black"/>
    <path d="M349.7942813333333,865.0303026666667 L360.51978266666663,842.1013533333333" fill="none" stroke="black"/>
    <path d="M360.51978266666663,842.1013533333333 L300.40556799999996,785.4645853333333" fill="none" stroke="black"/>
    <path d="M300.40556799999996,785.4645853333333 L230.252252,778.0344759999999" fill="none" stroke="black"/>
    <path d="M230.252252,778.0344759999999 L189.23437866666666,834.3080493333333" fill="none" stroke="black"/>
    <path d="M74.67963466666666,787.0847346666666 L78.12739599999999,703.8329946666667" fill="none" stroke="black"/>
    <path d="M78.12739599999999,703.8329946666667 L103.57285733333332,700.6317386666666" fill="none" stroke="black"/>
    <path d="M103.57285733333332,700.6317386666666 L101.74857999999999,799.1772946666666" fill="none" stroke="black"/>
    <path d="M101.74857999999999,799.1772946666666 L81.20946533333333,800.121764" fill="none" stroke="black"/>
    <path d="M81.20946533333333,800.121764 L74.67963466666666,787.0847346666666" fill="none" stroke="black"/>
    <path d="M66.69198933333332,782.1381253333334 L16.509712,697.7372426666667" fill="none" stroke="black"/>
    <path d="M16.509712,697.7372426666667 L70.13975066666666,698.886384" fill="none" stroke="black"/>
    <path d="M70.13975066666666,698.886384 L66.69198933333332,782.1381253333334" fill="none" stroke="black"/>
    <path d="M31.199597333333333,611.8252653333333 L94.496248,554.052228" fill="none" stroke="black"/>
    <path d="M94.496248,554.052228 L127.60492666666666,408.3797706666666" fill="none" stroke="black"/>
    <path d="M127.60492666666666,408.3797706666666 L0.0,333.5608693333333" fill="none" stroke="black"/>
    <path d="M0.0,614.9032253333334 L5.754134666666666,615.0265213333333" fill="none" stroke="black"/>
    <path d="M5.754134666666666,615.0265213333333 L31.199597333333333,611.8252653333333" fill="none" stroke="black"/>
    <path d="M118.51004399999998,795.9719853333332 L161.68101733333333,807.8717906666667" fill="none" stroke="black"/>
    <path d="M161.68101733333333,807.8717906666667 L202.698892,751.598216" fill="none" stroke="black"/>
    <path d="M202.698892,751.598216 L183.630972,639.653392" fill="none" stroke="black"/>
    <path d="M183.630972,639.653392 L120.33432133333334,697.4264293333334" fill="none" stroke="black"/>
    <path d="M120.33432133333334,697.4264293333334 L118.51004399999998,795.9719853333332" fill="none" stroke="black"/>
    <path d="M57.87514933333333,785.7727026666666 L7.692873333333333,701.3718213333333" fill="none" stroke="black"/>
    <path d="M7.692873333333333,701.3718213333333 L0.0,696.8967120000001" fill="none" stroke="black"/>
    <path d="M0.0,782.2516293333333 L25.394471999999997,820.5134226666668" fill="none" stroke="black"/>
    <path d="M25.394471999999997,820.5134226666668 L64.40498,798.809732" fill="none" stroke="black"/>
    <path d="M64.40498,798.809732 L57.87514933333333,785.7727026666666" fill="none" stroke="black"/>
    <path d="M1.3333333333333333,863.6969693333334 L1117.3333333333333,863.6969693333334" fill="none" stroke="black"/>
    <path d="M1117.3333333333333,863.6969693333334 L1117.3333333333333,1.3333333333333333" fill="none" stroke="black"/>
    <path d="M1117.3333333333333,1.3333333333333333 L1.3333333333333333,1.3333333333333333" fill="none" stroke="black"/>
    <path d="M1.3333333333333333,1.3333333333333333 L1.3333333333333333,863.6969693333334" fill="none" stroke="black"/>
  </g>
  <g id="layer3" inkscape:groupmode="layer" inkscape:label="3" style="display:inline">
    <path d="M1062.1385773333332,42.742534666666664 L1087.696329333333,32.526930666666665" fill="none" stroke="black"/>
    <path d="M1087.696329333333,32.526930666666665 L1118.6666666666665,64.53717466666666" fill="none" stroke="black"/>
    <path d="M1118.6666666666665,116.47496399999999 L1105.7986959999998,173.6784693333333" fill="none" stroke="black"/>
    <path d="M1105.7986959999998,173.6784693333333 L1058.3905373333332,46.89589733333333" fill="none" stroke="black"/>
    <path d="M1058.3905373333332,46.89589733333333 L1062.1385773333332,42.742534666666664" fill="none" stroke="black"/>
    <path d="M818.9532533333332,250.35169333333332 L914.9198426666667,421.40634933333325" fill="none" stroke="black"/>
    <path d="M914.9198426666667,421.40634933333325 L823.4155773333333,426.10304533333334" fill="none" stroke="black"/>
    <path d="M823.4155773333333,426.10304533333334 L772.998548,267.95492399999995" fill="none" stroke="black"/>
    <path d="M772.998548,267.95492399999995 L818.9532533333332,250.35169333333332" fill="none" stroke="black"/>
    <path d="M704.9441426666667,275.7880573333333 L600.389672,225.24533333333332" fill="none" stroke="black"/>
    <path d="M600.389672,225.24533333333332 L524.301668,385.27400133333333" fill="none" stroke="black"/>
    <path d="M524.301668,385.27400133333333 L638.5887413333334,469.781116" fill="none" stroke="black"/>
    <path d="M638.5887413333334,469.781116 L755.3611733333333,433.93617866666665" fill="none" stroke="black"/>
    <path d="M755.3611733333333,433.93617866666665 L704.9441426666667,275.7880573333333" fill="none" stroke="black"/>
    <path d="M943.3641186666667,148.19802 L878.356128,126.93737999999999" fill="none" stroke="black"/>
    <path d="M878.356128,126.93737999999999 L831.0002760000001,46.885353333333335" fill="none" stroke="black"/>
    <path d="M831.0002760000001,46.885353333333335 L985.1827253333332,68.98459866666666" fill="none" stroke="black"/>
    <path d="M985.1827253333332,68.98459866666666 L943.3641186666667,148.19802" fill="none" stroke="black"/>
    <path d="M810.4771346666666,123.846088 L783.9229226666666,163.976832" fill="none" stroke="black"/>
    <path d="M783.9229226666666,163.976832 L737.9682160000001,181.58006266666666" fill="none" stroke="black"/>
    <path d="M737.9682160000001,181.58006266666666 L633.4137453333334,131.03734" fill="none" stroke="black"/>
    <path d="M633.4137453333334,131.03734 L640.8225066666666,0.0" fill="none" stroke="black"/>
    <path d="M716.5095533333333,0.0 L763.1212826666666,43.79406" fill="none" stroke="black"/>
    <path d="M763.1212826666666,43.79406 L810.4771346666666,123.846088" fill="none" stroke="black"/>
    <path d="M952.9870706666667,213.83633866666665 L1030.7627173333333,409.7148026666667" fill="none" stroke="black"/>
    <path d="M1030.7627173333333,409.7148026666667 L957.3914586666666,403.7611" fill="none" stroke="black"/>
    <path d="M957.3914586666666,403.7611 L861.4248693333334,232.70644266666667" fill="none" stroke="black"/>
    <path d="M861.4248693333334,232.70644266666667 L887.9790813333334,192.57569866666665" fill="none" stroke="black"/>
    <path d="M887.9790813333334,192.57569866666665 L952.9870706666667,213.83633866666665" fill="none" stroke="black"/>
    <path d="M992.2379346666667,197.53531333333333 L1070.0135813333331,393.4137773333333" fill="none" stroke="black"/>
    <path d="M1070.0135813333331,393.4137773333333 L1080.959416,398.0590586666666" fill="none" stroke="black"/>
    <path d="M1080.959416,398.0590586666666 L1089.6012226666664,238.33958399999997" fill="none" stroke="black"/>
    <path d="M1089.6012226666664,238.33958399999997 L1042.1930639999998,111.557012" fill="none" stroke="black"/>
    <path d="M1042.1930639999998,111.557012 L1034.0565413333331,118.32189199999998" fill="none" stroke="black"/>
    <path d="M1034.0565413333331,118.32189199999998 L992.2379346666667,197.53531333333333" fill="none" stroke="black"/>
    <path d="M387.8651586666666,628.3083213333333 L379.9109013333333,490.11317999999994" fill="none" stroke="black"/>
    <path d="M379.9109013333333,490.11317999999994 L446.9445359999999,484.80753866666663" fill="none" stroke="black"/>
    <path d="M446.9445359999999,484.80753866666663 L561.2316093333333,569.3146533333334" fill="none" stroke="black"/>
    <path d="M561.2316093333333,569.3146533333334 L553.6958053333334,693.2390786666666" fill="none" stroke="black"/>
    <path d="M553.6958053333334,693.2390786666666 L459.12088666666665,724.4077560000001" fill="none" stroke="black"/>
    <path d="M459.12088666666665,724.4077560000001 L387.8651586666666,628.3083213333333" fill="none" stroke="black"/>
    <path d="M391.0735773333333,815.5565533333333 L432.00499066666663,792.094744" fill="none" stroke="black"/>
    <path d="M432.00499066666663,792.094744 L360.7492626666666,695.9953106666667" fill="none" stroke="black"/>
    <path d="M360.7492626666666,695.9953106666667 L341.36374533333327,768.7223026666667" fill="none" stroke="black"/>
    <path d="M341.36374533333327,768.7223026666667 L391.0735773333333,815.5565533333333" fill="none" stroke="black"/>
    <path d="M238.89878133333332,701.8823906666667 L296.9101773333333,708.02652" fill="none" stroke="black"/>
    <path d="M296.9101773333333,708.02652 L316.2956933333333,635.299528" fill="none" stroke="black"/>
    <path d="M316.2956933333333,635.299528 L308.341436,497.10438533333325" fill="none" stroke="black"/>
    <path d="M308.341436,497.10438533333325 L250.50940933333334,488.85271466666666" fill="none" stroke="black"/>
    <path d="M250.50940933333334,488.85271466666666 L223.13107866666667,609.312632" fill="none" stroke="black"/>
    <path d="M223.13107866666667,609.312632 L238.89878133333332,701.8823906666667" fill="none" stroke="black"/>
    <path d="M201.4383773333333,837.1337893333333 L214.03976,865.0303026666667" fill="none" stroke="black"/>
    <path d="M333.04357999999996,865.0303026666667 L343.0782306666666,843.5782519999999" fill="none" stroke="black"/>
    <path d="M343.0782306666666,843.5782519999999 L293.36839999999995,796.7440026666667" fill="none" stroke="black"/>
    <path d="M293.36839999999995,796.7440026666667 L235.357004,790.5998733333332" fill="none" stroke="black"/>
    <path d="M235.357004,790.5998733333332 L201.4383773333333,837.1337893333333" fill="none" stroke="black"/>
    <path d="M76.62677999999998,784.0018173333333 L79.47781333333332,715.159032" fill="none" stroke="black"/>
    <path d="M79.47781333333332,715.159032 L100.51925199999998,712.51184" fill="none" stroke="black"/>
    <path d="M100.51925199999998,712.51184 L99.01071466666666,794.0014346666667" fill="none" stroke="black"/>
    <path d="M99.01071466666666,794.0014346666667 L82.02644666666666,794.7824373333333" fill="none" stroke="black"/>
    <path d="M82.02644666666666,794.7824373333333 L76.62677999999998,784.0018173333333" fill="none" stroke="black"/>
    <path d="M64.42408933333333,774.2410706666666 L22.927206666666667,704.4480333333332" fill="none" stroke="black"/>
    <path d="M22.927206666666667,704.4480333333332 L67.27512266666666,705.3982853333333" fill="none" stroke="black"/>
    <path d="M67.27512266666666,705.3982853333333 L64.42408933333333,774.2410706666666" fill="none" stroke="black"/>
    <path d="M0.0,570.2080506666667 L43.696756,530.3245146666667" fill="none" stroke="black"/>
    <path d="M43.696756,530.3245146666667 L71.07508533333332,409.8645973333333" fill="none" stroke="black"/>
    <path d="M71.07508533333332,409.8645973333333 L0.0,368.190972" fill="none" stroke="black"/>
    <path d="M124.23063466666666,788.0902746666667 L159.92970933333334,797.9304986666666" fill="none" stroke="black"/>
    <path d="M159.92970933333334,797.9304986666666 L193.84833600000002,751.3965813333333" fill="none" stroke="black"/>
    <path d="M193.84833600000002,751.3965813333333 L178.08063333333334,658.8268226666667" fill="none" stroke="black"/>
    <path d="M178.08063333333334,658.8268226666667 L125.73917066666665,706.60068" fill="none" stroke="black"/>
    <path d="M125.73917066666665,706.60068 L124.23063466666666,788.0902746666667" fill="none" stroke="black"/>
    <path d="M51.45294533333333,780.8460306666666 L9.956062666666666,711.0529933333333" fill="none" stroke="black"/>
    <path d="M9.956062666666666,711.0529933333333 L0.0,705.2613373333334" fill="none" stroke="black"/>
    <path d="M0.0,772.518324 L24.593922666666664,809.5739333333332" fill="none" stroke="black"/>
    <path d="M24.593922666666664,809.5739333333332 L56.852612,791.6266506666666" fill="none" stroke="black"/>
    <path d="M56.852612,791.6266506666666 L51.45294533333333,780.8460306666666" fill="none" stroke="black"/>
    <path d="M1.3333333333333333,863.6969693333334 L1117.3333333333333,863.6969693333334" fill="none" stroke="black"/>
    <path d="M1117.3333333333333,863.6969693333334 L1117.3333333333333,1.3333333333333333" fill="none" stroke="black"/>
    <path d="M1117.3333333333333,1.3333333333333333 L1.3333333333333333,1.3333333333333333" fill="none" stroke="black"/>
    <path d="M1.3333333333333333,1.3333333333333333 L1.3333333333333333,863.6969693333334" fill="none" stroke="black"/>
  </g>
  <g id="layer4" inkscape:groupmode="layer" inkscape:label="4" style="display:inline">
    <path d="M1066.345144,48.418896 L1086.5536,40.34144133333333" fill="none" stroke="black"/>
    <path d="M1086.5536,40.34144133333333 L1118.5371413333332,73.39891199999998" fill="none" stroke="black"/>
    <path d="M1118.5371413333332,73.39891199999998 L1100.8670986666664,151.94963466666667" fill="none" stroke="black"/>
    <path d="M1100.8670986666664,151.94963466666667 L1063.3815773333333,51.70295066666667" fill="none" stroke="black"/>
    <path d="M1063.3815773333333,51.70295066666667 L1066.345144,48.418896" fill="none" stroke="black"/>
    <path d="M820.7575733333333,264.97922 L896.638132,400.2317386666667" fill="none" stroke="black"/>
    <path d="M896.638132,400.2317386666667 L824.2859226666666,403.94540533333327" fill="none" stroke="black"/>
    <path d="M824.2859226666666,403.94540533333327 L784.4212946666667,278.8980533333333" fill="none" stroke="black"/>
    <path d="M784.4212946666667,278.8980533333333 L820.7575733333333,264.97922" fill="none" stroke="black"/>
    <path d="M694.442708,289.962792 L611.7717306666667,249.99877866666668" fill="none" stroke="black"/>
    <path d="M611.7717306666667,249.99877866666668 L551.6091226666666,376.53307333333333" fill="none" stroke="black"/>
    <path d="M551.6091226666666,376.53307333333333 L641.9756453333333,443.352652" fill="none" stroke="black"/>
    <path d="M641.9756453333333,443.352652 L734.307336,415.01014399999997" fill="none" stroke="black"/>
    <path d="M734.307336,415.01014399999997 L694.442708,289.962792" fill="none" stroke="black"/>
    <path d="M938.0426266666667,139.72778533333334 L886.6409600000001,122.917048" fill="none" stroke="black"/>
    <path d="M886.6409600000001,122.917048 L849.1967986666667,59.620096" fill="none" stroke="black"/>
    <path d="M849.1967986666667,59.620096 L971.1085026666666,77.09391733333332" fill="none" stroke="black"/>
    <path d="M971.1085026666666,77.09391733333332 L938.0426266666667,139.72778533333334" fill="none" stroke="black"/>
    <path d="M796.1291666666666,118.52931066666666 L775.1328133333333,150.26059733333332" fill="none" stroke="black"/>
    <path d="M775.1328133333333,150.26059733333332 L738.7965346666666,164.17943066666666" fill="none" stroke="black"/>
    <path d="M738.7965346666666,164.17943066666666 L656.1255573333334,124.21541733333332" fill="none" stroke="black"/>
    <path d="M656.1255573333334,124.21541733333332 L663.1486106666667,0.0" fill="none" stroke="black"/>
    <path d="M699.8990480000001,0.0 L758.6850053333333,55.23235866666667" fill="none" stroke="black"/>
    <path d="M758.6850053333333,55.23235866666667 L796.1291666666666,118.52931066666666" fill="none" stroke="black"/>
    <path d="M950.178516,226.43426399999998 L1011.6755400000001,381.3149106666666" fill="none" stroke="black"/>
    <path d="M1011.6755400000001,381.3149106666666 L953.6610546666667,376.6073306666666" fill="none" stroke="black"/>
    <path d="M953.6610546666667,376.6073306666666 L877.780496,241.354812" fill="none" stroke="black"/>
    <path d="M877.780496,241.354812 L898.7768493333333,209.62352533333333" fill="none" stroke="black"/>
    <path d="M898.7768493333333,209.62352533333333 L950.178516,226.43426399999998" fill="none" stroke="black"/>
    <path d="M1003.833784,205.055444 L1065.3308066666666,359.93609066666664" fill="none" stroke="black"/>
    <path d="M1065.3308066666666,359.93609066666664 L1073.9856533333332,363.60910399999995" fill="none" stroke="black"/>
    <path d="M1073.9856533333332,363.60910399999995 L1080.8187093333331,237.31928533333334" fill="none" stroke="black"/>
    <path d="M1080.8187093333331,237.31928533333334 L1043.3331893333332,137.07260133333332" fill="none" stroke="black"/>
    <path d="M1043.3331893333332,137.07260133333332 L1036.8996599999998,142.421576" fill="none" stroke="black"/>
    <path d="M1036.8996599999998,142.421576 L1003.833784,205.055444" fill="none" stroke="black"/>
    <path d="M401.2517986666666,622.9914186666666 L394.96238666666665,513.7208413333334" fill="none" stroke="black"/>
    <path d="M394.96238666666665,513.7208413333334 L447.9657253333333,509.5256826666667" fill="none" stroke="black"/>
    <path d="M447.9657253333333,509.5256826666667 L538.332248,576.3452626666666" fill="none" stroke="black"/>
    <path d="M538.332248,576.3452626666666 L532.3737053333333,674.3320173333333" fill="none" stroke="black"/>
    <path d="M532.3737053333333,674.3320173333333 L457.5935373333333,698.9770173333333" fill="none" stroke="black"/>
    <path d="M457.5935373333333,698.9770173333333 L401.2517986666666,622.9914186666666" fill="none" stroke="black"/>
    <path d="M388.8807933333333,807.2410826666666 L421.24516666666665,788.6898853333333" fill="none" stroke="black"/>
    <path d="M421.24516666666665,788.6898853333333 L364.90342799999996,712.7042866666667" fill="none" stroke="black"/>
    <path d="M364.90342799999996,712.7042866666667 L349.5753453333333,770.2093506666666" fill="none" stroke="black"/>
    <path d="M349.5753453333333,770.2093506666666 L388.8807933333333,807.2410826666666" fill="none" stroke="black"/>
    <path d="M244.73228666666668,684.3003520000001 L290.6017626666666,689.1585" fill="none" stroke="black"/>
    <path d="M290.6017626666666,689.1585 L305.9298453333333,631.6534373333333" fill="none" stroke="black"/>
    <path d="M305.9298453333333,631.6534373333333 L299.6404333333333,522.38286" fill="none" stroke="black"/>
    <path d="M299.6404333333333,522.38286 L253.91278266666666,515.8582826666667" fill="none" stroke="black"/>
    <path d="M253.91278266666666,515.8582826666667 L232.26480133333334,611.1056586666667" fill="none" stroke="black"/>
    <path d="M232.26480133333334,611.1056586666667 L244.73228666666668,684.3003520000001" fill="none" stroke="black"/>
    <path d="M211.96887733333332,839.4503373333333 L223.52383066666667,865.0303026666667" fill="none" stroke="black"/>
    <path d="M314.38119333333333,865.0303026666667 L323.96317999999997,844.5459586666666" fill="none" stroke="black"/>
    <path d="M323.96317999999997,844.5459586666666 L284.65773199999995,807.5142253333333" fill="none" stroke="black"/>
    <path d="M284.65773199999995,807.5142253333333 L238.78825600000002,802.6560773333334" fill="none" stroke="black"/>
    <path d="M238.78825600000002,802.6560773333334 L211.96887733333332,839.4503373333333" fill="none" stroke="black"/>
    <path d="M78.41447333333332,779.7762173333334 L80.66877866666665,725.342388" fill="none" stroke="black"/>
    <path d="M80.66877866666665,725.342388 L97.30619599999999,723.2492586666667" fill="none" stroke="black"/>
    <path d="M97.30619599999999,723.2492586666667 L96.11339866666665,787.6828919999999" fill="none" stroke="black"/>
    <path d="M96.11339866666665,787.6828919999999 L82.68397733333332,788.3004293333333" fill="none" stroke="black"/>
    <path d="M82.68397733333332,788.3004293333333 L78.41447333333332,779.7762173333334" fill="none" stroke="black"/>
    <path d="M62.29063333333334,767.2159320000001 L29.479143999999998,712.03074" fill="none" stroke="black"/>
    <path d="M29.479143999999998,712.03074 L64.54493866666667,712.7821026666667" fill="none" stroke="black"/>
    <path d="M64.54493866666667,712.7821026666667 L62.29063333333334,767.2159320000001" fill="none" stroke="black"/>
    <path d="M0.0,474.54837733333335 L14.603030666666667,410.2975666666667" fill="none" stroke="black"/>
    <path d="M14.603030666666667,410.2975666666667 L0.0,401.735336" fill="none" stroke="black"/>
    <path d="M129.581556,779.3628826666667 L157.80873066666666,787.1435240000001" fill="none" stroke="black"/>
    <path d="M157.80873066666666,787.1435240000001 L184.62811066666666,750.3492653333333" fill="none" stroke="black"/>
    <path d="M184.62811066666666,750.3492653333333 L172.16062399999998,677.154572" fill="none" stroke="black"/>
    <path d="M172.16062399999998,677.154572 L130.774352,714.9292493333334" fill="none" stroke="black"/>
    <path d="M130.774352,714.9292493333334 L129.581556,779.3628826666667" fill="none" stroke="black"/>
    <path d="M44.428816000000005,775.4910893333334 L11.617326666666667,720.3058973333333" fill="none" stroke="black"/>
    <path d="M11.617326666666667,720.3058973333333 L0.0,713.5478493333334" fill="none" stroke="black"/>
    <path d="M0.0,763.2636706666667 L23.19144933333333,798.206176" fill="none" stroke="black"/>
    <path d="M23.19144933333333,798.206176 L48.698319999999995,784.0153013333334" fill="none" stroke="black"/>
    <path d="M48.698319999999995,784.0153013333334 L44.428816000000005,775.4910893333334" fill="none" stroke="black"/>
    <path d="M1.3333333333333333,863.6969693333334 L1117.3333333333333,863.6969693333334" fill="none" stroke="black"/>
    <path d="M1117.3333333333333,863.6969693333334 L1117.3333333333333,1.3333333333333333" fill="none" stroke="black"/>
    <path d="M1117.3333333333333,1.3333333333333333 L1.3333333333333333,1.3333333333333333" fill="none" stroke="black"/>
    <path d="M1.3333333333333333,1.3333333333333333 L1.3333333333333333,863.6969693333334" fill="none" stroke="black"/>
  </g>
  <g id="layer5" inkscape:groupmode="layer" inkscape:label="5" style="display:inline">
    <path d="M1071.0536133333333,53.92719866666667 L1085.912772,47.98789466666667" fill="none" stroke="black"/>
    <path d="M1085.912772,47.98789466666667 L1109.4300826666665,72.29485733333333" fill="none" stroke="black"/>
    <path d="M1109.4300826666665,72.29485733333333 L1096.4374039999998,130.05274266666666" fill="none" stroke="black"/>
    <path d="M1096.4374039999998,130.05274266666666 L1068.8745199999998,56.341945333333335" fill="none" stroke="black"/>
    <path d="M1068.8745199999998,56.341945333333335 L1071.0536133333333,53.92719866666667" fill="none" stroke="black"/>
    <path d="M822.6728240000001,279.99313866666665 L878.467352,379.44352" fill="none" stroke="black"/>
    <path d="M878.467352,379.44352 L825.2671986666666,382.1741573333333" fill="none" stroke="black"/>
    <path d="M825.2671986666666,382.1741573333333 L795.954972,290.2275746666666" fill="none" stroke="black"/>
    <path d="M795.954972,290.2275746666666 L822.6728240000001,279.99313866666665" fill="none" stroke="black"/>
    <path d="M684.2601866666668,304.2887466666666 L623.4727026666667,274.90344266666665" fill="none" stroke="black"/>
    <path d="M623.4727026666667,274.90344266666665 L579.2354906666667,367.94336533333325" fill="none" stroke="black"/>
    <path d="M579.2354906666667,367.94336533333325 L645.681464,417.075408" fill="none" stroke="black"/>
    <path d="M645.681464,417.075408 L713.5724133333333,396.23532933333325" fill="none" stroke="black"/>
    <path d="M713.5724133333333,396.23532933333325 L684.2601866666668,304.2887466666666" fill="none" stroke="black"/>
    <path d="M932.0267306666666,131.04380799999998 L894.2313866666667,118.68297199999999" fill="none" stroke="black"/>
    <path d="M894.2313866666667,118.68297199999999 L866.6989146666666,72.14109466666666" fill="none" stroke="black"/>
    <path d="M866.6989146666666,72.14109466666666 L956.3398733333333,84.98949333333333" fill="none" stroke="black"/>
    <path d="M956.3398733333333,84.98949333333333 L932.0267306666666,131.04380799999998" fill="none" stroke="black"/>
    <path d="M781.8510533333333,113.74084666666666 L766.4125586666668,137.07267466666667" fill="none" stroke="black"/>
    <path d="M766.4125586666668,137.07267466666667 L739.6947066666667,147.307112" fill="none" stroke="black"/>
    <path d="M739.6947066666667,147.307112 L678.9072226666666,117.92180666666665" fill="none" stroke="black"/>
    <path d="M678.9072226666666,117.92180666666665 L685.434296,2.4787239999999997" fill="none" stroke="black"/>
    <path d="M685.434296,2.4787239999999997 L754.3185813333333,67.19897066666665" fill="none" stroke="black"/>
    <path d="M754.3185813333333,67.19897066666665 L781.8510533333333,113.74084666666666" fill="none" stroke="black"/>
    <path d="M947.326612,240.403964 L992.5450106666667,354.286792" fill="none" stroke="black"/>
    <path d="M992.5450106666667,354.286792 L949.8873013333333,350.8253373333333" fill="none" stroke="black"/>
    <path d="M949.8873013333333,350.8253373333333 L894.0927733333333,251.37495466666667" fill="none" stroke="black"/>
    <path d="M894.0927733333333,251.37495466666667 L909.5312693333334,228.04312666666667" fill="none" stroke="black"/>
    <path d="M909.5312693333334,228.04312666666667 L947.326612,240.403964" fill="none" stroke="black"/>
    <path d="M1013.4685800000001,213.75533466666664 L1058.6869786666664,327.63816266666663" fill="none" stroke="black"/>
    <path d="M1058.6869786666664,327.63816266666663 L1065.050836,330.33890799999995" fill="none" stroke="black"/>
    <path d="M1065.050836,330.33890799999995 L1070.0751426666666,237.478748" fill="none" stroke="black"/>
    <path d="M1070.0751426666666,237.478748 L1042.5122586666664,163.76795066666668" fill="none" stroke="black"/>
    <path d="M1042.5122586666664,163.76795066666668 L1037.7817226666664,167.70102" fill="none" stroke="black"/>
    <path d="M1037.7817226666664,167.70102 L1013.4685800000001,213.75533466666664" fill="none" stroke="black"/>
    <path d="M415.21435333333335,617.766692 L410.5897853333333,537.4206786666667" fill="none" stroke="black"/>
    <path d="M410.5897853333333,537.4206786666667 L449.5628293333333,534.3360026666667" fill="none" stroke="black"/>
    <path d="M449.5628293333333,534.3360026666667 L516.0088013333333,583.4680466666667" fill="none" stroke="black"/>
    <path d="M516.0088013333333,583.4680466666667 L511.62751999999995,655.5171306666667" fill="none" stroke="black"/>
    <path d="M511.62751999999995,655.5171306666667 L456.64210266666663,673.6384546666667" fill="none" stroke="black"/>
    <path d="M456.64210266666663,673.6384546666667 L415.21435333333335,617.766692" fill="none" stroke="black"/>
    <path d="M387.34950266666664,799.4470853333333 L411.14683599999995,785.8064986666667" fill="none" stroke="black"/>
    <path d="M411.14683599999995,785.8064986666667 L369.7190866666666,729.9347346666667" fill="none" stroke="black"/>
    <path d="M369.7190866666666,729.9347346666667 L358.4484386666666,772.2178693333334" fill="none" stroke="black"/>
    <path d="M358.4484386666666,772.2178693333334 L387.34950266666664,799.4470853333333" fill="none" stroke="black"/>
    <path d="M250.4590893333333,667.9044906666667 L284.1866453333333,671.4766586666666" fill="none" stroke="black"/>
    <path d="M284.1866453333333,671.4766586666666 L295.45729466666666,629.193524" fill="none" stroke="black"/>
    <path d="M295.45729466666666,629.193524 L290.83272666666664,548.8475106666666" fill="none" stroke="black"/>
    <path d="M290.83272666666664,548.8475106666666 L257.20945466666666,544.050028" fill="none" stroke="black"/>
    <path d="M257.20945466666666,544.050028 L241.29182133333333,614.084864" fill="none" stroke="black"/>
    <path d="M241.29182133333333,614.084864 L250.4590893333333,667.9044906666667" fill="none" stroke="black"/>
    <path d="M224.20370666666668,841.9850506666667 L234.613684,865.0303026666667" fill="none" stroke="black"/>
    <path d="M297.5251906666666,865.0303026666667 L306.5524586666666,845.7318306666666" fill="none" stroke="black"/>
    <path d="M306.5524586666666,845.7318306666666 L277.65139466666665,818.5026160000001" fill="none" stroke="black"/>
    <path d="M277.65139466666665,818.5026160000001 L243.92383866666668,814.9304480000001" fill="none" stroke="black"/>
    <path d="M243.92383866666668,814.9304480000001 L224.20370666666668,841.9850506666667" fill="none" stroke="black"/>
    <path d="M80.51469199999998,775.3200253333333 L82.17226933333332,735.2951493333334" fill="none" stroke="black"/>
    <path d="M82.17226933333332,735.2951493333334 L94.40566399999999,733.756084" fill="none" stroke="black"/>
    <path d="M94.40566399999999,733.756084 L93.52860799999999,781.1337546666667" fill="none" stroke="black"/>
    <path d="M93.52860799999999,781.1337546666667 L83.65403333333332,781.5878266666667" fill="none" stroke="black"/>
    <path d="M83.65403333333332,781.5878266666667 L80.51469199999998,775.3200253333333" fill="none" stroke="black"/>
    <path d="M60.55399333333333,759.782656 L36.42789866666667,719.2053093333334" fill="none" stroke="black"/>
    <path d="M36.42789866666667,719.2053093333334 L62.21157066666667,719.7577813333334" fill="none" stroke="black"/>
    <path d="M62.21157066666667,719.7577813333334 L60.55399333333333,759.782656" fill="none" stroke="black"/>
    <path d="M135.37193466666668,771.3809213333334 L156.12721066666668,777.1019813333334" fill="none" stroke="black"/>
    <path d="M156.12721066666668,777.1019813333334 L175.84734133333333,750.0473786666666" fill="none" stroke="black"/>
    <path d="M175.84734133333333,750.0473786666666 L166.68007333333333,696.2277506666666" fill="none" stroke="black"/>
    <path d="M166.68007333333333,696.2277506666666 L136.24899066666669,724.0032493333333" fill="none" stroke="black"/>
    <path d="M136.24899066666669,724.0032493333333 L135.37193466666668,771.3809213333334" fill="none" stroke="black"/>
    <path d="M38.16216266666667,769.9667173333333 L14.036068,729.3893693333333" fill="none" stroke="black"/>
    <path d="M14.036068,729.3893693333333 L0.0,721.224288" fill="none" stroke="black"/>
    <path d="M0.0,752.6982986666667 L22.546452,786.6689853333334" fill="none" stroke="black"/>
    <path d="M22.546452,786.6689853333334 L41.301504,776.23452" fill="none" stroke="black"/>
    <path d="M41.301504,776.23452 L38.16216266666667,769.9667173333333" fill="none" stroke="black"/>
    <path d="M1.3333333333333333,863.6969693333334 L1117.3333333333333,863.6969693333334" fill="none" stroke="black"/>
    <path d="M1117.3333333333333,863.6969693333334 L1117.3333333333333,1.3333333333333333" fill="none" stroke="black"/>
    <path d="M1117.3333333333333,1.3333333333333333 L1.3333333333333333,1.3333333333333333" fill="none" stroke="black"/>
    <path d="M1.3333333333333333,1.3333333333333333 L1.3333333333333333,863.6969693333334" fill="none" stroke="black"/>
  </g>
  <g id="layer6" inkscape:groupmode="layer" inkscape:label="6" style="display:inline">
    <path d="M1075.4911919999997,59.26358533333333 L1085.0010533333332,55.46243066666667" fill="none" stroke="black"/>
    <path d="M1085.0010533333332,55.46243066666667 L1100.0521319999998,71.01888666666666" fill="none" stroke="black"/>
    <path d="M1100.0521319999998,71.01888666666666 L1091.7368173333332,107.98393333333333" fill="none" stroke="black"/>
    <path d="M1091.7368173333332,107.98393333333333 L1074.096572,60.809022666666664" fill="none" stroke="black"/>
    <path d="M1074.096572,60.809022666666664 L1075.4911919999997,59.26358533333333" fill="none" stroke="black"/>
    <path d="M825.2673826666668,295.3556773333333 L860.9758813333333,359.0039213333333" fill="none" stroke="black"/>
    <path d="M860.9758813333333,359.0039213333333 L826.9277826666666,360.7515293333333" fill="none" stroke="black"/>
    <path d="M826.9277826666666,360.7515293333333 L808.1679573333332,301.9057173333333" fill="none" stroke="black"/>
    <path d="M808.1679573333332,301.9057173333333 L825.2673826666668,295.3556773333333" fill="none" stroke="black"/>
    <path d="M673.7181826666666,318.7576413333333 L634.8141919999999,299.9510466666666" fill="none" stroke="black"/>
    <path d="M634.8141919999999,299.9510466666666 L606.5023773333334,359.49659733333334" fill="none" stroke="black"/>
    <path d="M606.5023773333334,359.49659733333334 L649.0278,390.94110533333327" fill="none" stroke="black"/>
    <path d="M649.0278,390.94110533333327 L692.4780066666667,377.6034546666666" fill="none" stroke="black"/>
    <path d="M692.4780066666667,377.6034546666666 L673.7181826666666,318.7576413333333" fill="none" stroke="black"/>
    <path d="M926.534932,122.53893599999999 L902.3459120000001,114.62800133333333" fill="none" stroke="black"/>
    <path d="M902.3459120000001,114.62800133333333 L884.7251293333334,84.84119999999999" fill="none" stroke="black"/>
    <path d="M884.7251293333334,84.84119999999999 L942.095344,93.06417466666666" fill="none" stroke="black"/>
    <path d="M942.095344,93.06417466666666 L926.534932,122.53893599999999" fill="none" stroke="black"/>
    <path d="M767.1718213333334,108.807464 L757.291184,123.73983466666665" fill="none" stroke="black"/>
    <path d="M757.291184,123.73983466666665 L740.1917586666667,130.28987333333333" fill="none" stroke="black"/>
    <path d="M740.1917586666667,130.28987333333333 L701.2877693333334,111.48327866666666" fill="none" stroke="black"/>
    <path d="M701.2877693333334,111.48327866666666 L705.465096,37.59970533333333" fill="none" stroke="black"/>
    <path d="M705.465096,37.59970533333333 L749.5510386666666,79.02066266666667" fill="none" stroke="black"/>
    <path d="M749.5510386666666,79.02066266666667 L767.1718213333334,108.807464" fill="none" stroke="black"/>
    <path d="M944.967204,253.543084 L973.9069800000001,326.4280946666666" fill="none" stroke="black"/>
    <path d="M973.9069800000001,326.4280946666666 L946.6060453333333,324.2127626666666" fill="none" stroke="black"/>
    <path d="M946.6060453333333,324.2127626666666 L910.897548,260.56451866666663" fill="none" stroke="black"/>
    <path d="M910.897548,260.56451866666663 L920.7781853333332,245.632148" fill="none" stroke="black"/>
    <path d="M920.7781853333332,245.632148 L944.967204,253.543084" fill="none" stroke="black"/>
    <path d="M1024.419868,221.97716266666666 L1053.3596426666666,294.86217199999993" fill="none" stroke="black"/>
    <path d="M1053.3596426666666,294.86217199999993 L1057.4325119999999,296.59064933333326" fill="none" stroke="black"/>
    <path d="M1057.4325119999999,296.59064933333326 L1060.6480679999997,237.1601466666667" fill="none" stroke="black"/>
    <path d="M1060.6480679999997,237.1601466666667 L1043.0078226666665,189.985236" fill="none" stroke="black"/>
    <path d="M1043.0078226666665,189.985236 L1039.98028,192.50240133333332" fill="none" stroke="black"/>
    <path d="M1039.98028,192.50240133333332 L1024.419868,221.97716266666666" fill="none" stroke="black"/>
    <path d="M429.3154506666666,612.1459933333333 L426.3557266666666,560.7245453333334" fill="none" stroke="black"/>
    <path d="M426.3557266666666,560.7245453333334 L451.29847466666666,558.7503533333334" fill="none" stroke="black"/>
    <path d="M451.29847466666666,558.7503533333334 L493.8238973333333,590.1948613333333" fill="none" stroke="black"/>
    <path d="M493.8238973333333,590.1948613333333 L491.0198773333333,636.3062746666667" fill="none" stroke="black"/>
    <path d="M491.0198773333333,636.3062746666667 L455.8292093333333,647.9039226666666" fill="none" stroke="black"/>
    <path d="M455.8292093333333,647.9039226666666 L429.3154506666666,612.1459933333333" fill="none" stroke="black"/>
    <path d="M385.9807106666666,791.5297333333333 L401.21100399999995,782.7997586666667" fill="none" stroke="black"/>
    <path d="M401.21100399999995,782.7997586666667 L374.69724533333334,747.0418293333333" fill="none" stroke="black"/>
    <path d="M374.69724533333334,747.0418293333333 L367.4840306666666,774.103036" fill="none" stroke="black"/>
    <path d="M367.4840306666666,774.103036 L385.9807106666666,791.5297333333333" fill="none" stroke="black"/>
    <path d="M256.5887373333333,650.42384 L278.17437199999995,652.710028" fill="none" stroke="black"/>
    <path d="M278.17437199999995,652.710028 L285.387588,625.6488213333333" fill="none" stroke="black"/>
    <path d="M285.387588,625.6488213333333 L282.42786399999994,574.2273733333333" fill="none" stroke="black"/>
    <path d="M282.42786399999994,574.2273733333333 L260.9089706666666,571.156984" fill="none" stroke="black"/>
    <path d="M260.9089706666666,571.156984 L250.72168533333334,615.9792786666667" fill="none" stroke="black"/>
    <path d="M250.72168533333334,615.9792786666667 L256.5887373333333,650.42384" fill="none" stroke="black"/>
    <path d="M236.14119733333334,844.7523733333334 L245.30112133333333,865.0303026666667" fill="none" stroke="black"/>
    <path d="M280.4806546666666,865.0303026666667 L288.8443986666666,847.1503133333334" fill="none" stroke="black"/>
    <path d="M288.8443986666666,847.1503133333334 L270.34771733333326,829.7236146666668" fill="none" stroke="black"/>
    <path d="M270.34771733333326,829.7236146666668 L248.76208133333333,827.4374280000001" fill="none" stroke="black"/>
    <path d="M248.76208133333333,827.4374280000001 L236.14119733333334,844.7523733333334" fill="none" stroke="black"/>
    <path d="M82.05926533333333,771.1898160000001 L83.12011466666665,745.573896" fill="none" stroke="black"/>
    <path d="M83.12011466666665,745.573896 L90.94948799999999,744.5888933333334" fill="none" stroke="black"/>
    <path d="M90.94948799999999,744.5888933333334 L90.38817199999998,774.9106026666667" fill="none" stroke="black"/>
    <path d="M90.38817199999998,774.9106026666667 L84.06844399999999,775.2012093333333" fill="none" stroke="black"/>
    <path d="M84.06844399999999,775.2012093333333 L82.05926533333333,771.1898160000001" fill="none" stroke="black"/>
    <path d="M58.509442666666665,752.9593839999999 L43.068741333333335,726.9898813333333" fill="none" stroke="black"/>
    <path d="M43.068741333333335,726.9898813333333 L59.570292,727.343464" fill="none" stroke="black"/>
    <path d="M59.570292,727.343464 L58.509442666666665,752.9593839999999" fill="none" stroke="black"/>
    <path d="M140.65787466666666,762.978008 L153.941252,766.6394866666666" fill="none" stroke="black"/>
    <path d="M153.941252,766.6394866666666 L166.56213599999998,749.3245413333334" fill="none" stroke="black"/>
    <path d="M166.56213599999998,749.3245413333334 L160.695084,714.87998" fill="none" stroke="black"/>
    <path d="M160.695084,714.87998 L141.21919066666666,732.6562986666667" fill="none" stroke="black"/>
    <path d="M141.21919066666666,732.6562986666667 L140.65787466666666,762.978008" fill="none" stroke="black"/>
    <path d="M31.608926666666665,765.2984759999999 L16.168226666666666,739.3289733333332" fill="none" stroke="black"/>
    <path d="M16.168226666666666,739.3289733333332 L0.0,729.9235706666667" fill="none" stroke="black"/>
    <path d="M0.0,743.4208493333334 L21.614872,775.987928" fill="none" stroke="black"/>
    <path d="M21.614872,775.987928 L33.61810533333333,769.3098693333333" fill="none" stroke="black"/>
    <path d="M33.61810533333333,769.3098693333333 L31.608926666666665,765.2984759999999" fill="none" stroke="black"/>
    <path d="M1.3333333333333333,863.6969693333334 L1117.3333333333333,863.6969693333334" fill="none" stroke="black"/>
    <path d="M1117.3333333333333,863.6969693333334 L1117.3333333333333,1.3333333333333333" fill="none" stroke="black"/>
    <path d="M1117.3333333333333,1.3333333333333333 L1.3333333333333333,1.3333333333333333" fill="none" stroke="black"/>
    <path d="M1.3333333333333333,1.3333333333333333 L1.3333333333333333,863.6969693333334" fill="none" stroke="black"/>
  </g>
  <g id="layer7" inkscape:groupmode="layer" inkscape:label="7" style="display:inline">
    <path d="M1080.1352879999997,64.79356 L1084.295852,63.13055466666666" fill="none" stroke="black"/>
    <path d="M1084.295852,63.13055466666666 L1090.8806986666666,69.93650533333333" fill="none" stroke="black"/>
    <path d="M1090.8806986666666,69.93650533333333 L1087.2427493333332,86.10871199999998" fill="none" stroke="black"/>
    <path d="M1087.2427493333332,86.10871199999998 L1079.5251413333333,65.46968933333332" fill="none" stroke="black"/>
    <path d="M1079.5251413333333,65.46968933333332 L1080.1352879999997,64.79356" fill="none" stroke="black"/>
    <path d="M827.4992453333333,310.7350906666666 L843.1217133333333,338.58119866666664" fill="none" stroke="black"/>
    <path d="M843.1217133333333,338.58119866666664 L828.2256706666667,339.34577599999994" fill="none" stroke="black"/>
    <path d="M828.2256706666667,339.34577599999994 L820.0182466666666,313.60073333333327" fill="none" stroke="black"/>
    <path d="M820.0182466666666,313.60073333333327 L827.4992453333333,310.7350906666666" fill="none" stroke="black"/>
    <path d="M663.2207306666667,332.95962799999995 L646.200236,324.73174266666666" fill="none" stroke="black"/>
    <path d="M646.200236,324.73174266666666 L633.813816,350.7829213333333" fill="none" stroke="black"/>
    <path d="M633.813816,350.7829213333333 L652.4186893333333,364.5398933333333" fill="none" stroke="black"/>
    <path d="M652.4186893333333,364.5398933333333 L671.4281546666667,358.70467066666663" fill="none" stroke="black"/>
    <path d="M671.4281546666667,358.70467066666663 L663.2207306666667,332.95962799999995" fill="none" stroke="black"/>
    <path d="M920.937732,114.15386266666665 L910.3550359999999,110.69282799999999" fill="none" stroke="black"/>
    <path d="M910.3550359999999,110.69282799999999 L902.6459426666667,97.66110266666666" fill="none" stroke="black"/>
    <path d="M902.6459426666667,97.66110266666666 L927.7454120000001,101.25865466666666" fill="none" stroke="black"/>
    <path d="M927.7454120000001,101.25865466666666 L920.937732,114.15386266666665" fill="none" stroke="black"/>
    <path d="M752.3375653333333,103.86654666666666 L748.0147866666666,110.39945866666666" fill="none" stroke="black"/>
    <path d="M748.0147866666666,110.39945866666666 L740.5337880000001,113.26510133333332" fill="none" stroke="black"/>
    <path d="M740.5337880000001,113.26510133333332 L723.513292,105.03721599999999" fill="none" stroke="black"/>
    <path d="M723.513292,105.03721599999999 L725.3408733333334,72.713152" fill="none" stroke="black"/>
    <path d="M725.3408733333334,72.713152 L744.6284733333333,90.83482133333332" fill="none" stroke="black"/>
    <path d="M744.6284733333333,90.83482133333332 L752.3375653333333,103.86654666666666" fill="none" stroke="black"/>
    <path d="M942.4405786666666,266.8967053333333 L955.1017306666666,298.7838973333333" fill="none" stroke="black"/>
    <path d="M955.1017306666666,298.7838973333333 L943.1575720000001,297.81469066666665" fill="none" stroke="black"/>
    <path d="M943.1575720000001,297.81469066666665 L927.535104,269.96858399999996" fill="none" stroke="black"/>
    <path d="M927.535104,269.96858399999996 L931.8578826666667,263.43567199999995" fill="none" stroke="black"/>
    <path d="M931.8578826666667,263.43567199999995 L942.4405786666666,266.8967053333333" fill="none" stroke="black"/>
    <path d="M1035.0300253333332,230.19472933333336 L1047.6911773333331,262.0819213333333" fill="none" stroke="black"/>
    <path d="M1047.6911773333331,262.0819213333333 L1049.4730573333331,262.83813066666664" fill="none" stroke="black"/>
    <path d="M1049.4730573333331,262.83813066666664 L1050.8798626666664,236.8372853333333" fill="none" stroke="black"/>
    <path d="M1050.8798626666664,236.8372853333333 L1043.1622559999998,216.19826266666666" fill="none" stroke="black"/>
    <path d="M1043.1622559999998,216.19826266666666 L1041.8377053333331,217.29952133333333" fill="none" stroke="black"/>
    <path d="M1041.8377053333331,217.29952133333333 L1035.0300253333332,230.19472933333336" fill="none" stroke="black"/>
    <path d="M443.08164666666664,606.946148 L441.786768,584.449264" fill="none" stroke="black"/>
    <path d="M441.786768,584.449264 L452.6992199999999,583.5855546666667" fill="none" stroke="black"/>
    <path d="M452.6992199999999,583.5855546666667 L471.30409199999997,597.3425266666667" fill="none" stroke="black"/>
    <path d="M471.30409199999997,597.3425266666667 L470.0773333333333,617.5162706666666" fill="none" stroke="black"/>
    <path d="M470.0773333333333,617.5162706666666 L454.68141599999996,622.5902413333333" fill="none" stroke="black"/>
    <path d="M454.68141599999996,622.5902413333333 L443.08164666666664,606.946148" fill="none" stroke="black"/>
    <path d="M384.489692,783.4550813333334 L391.1529453333333,779.6357173333334" fill="none" stroke="black"/>
    <path d="M391.1529453333333,779.6357173333334 L379.55317599999995,763.9916226666666" fill="none" stroke="black"/>
    <path d="M379.55317599999995,763.9916226666666 L376.3973946666666,775.8309013333333" fill="none" stroke="black"/>
    <path d="M376.3973946666666,775.8309013333333 L384.489692,783.4550813333334" fill="none" stroke="black"/>
    <path d="M262.59459999999996,633.398656 L272.0383146666666,634.3988626666667" fill="none" stroke="black"/>
    <path d="M272.0383146666666,634.3988626666667 L275.19409733333333,622.5595853333333" fill="none" stroke="black"/>
    <path d="M275.19409733333333,622.5595853333333 L273.8992173333333,600.0627013333334" fill="none" stroke="black"/>
    <path d="M273.8992173333333,600.0627013333334 L264.4847013333333,598.7194066666667" fill="none" stroke="black"/>
    <path d="M264.4847013333333,598.7194066666667 L260.027764,618.32916" fill="none" stroke="black"/>
    <path d="M260.027764,618.32916 L262.59459999999996,633.398656" fill="none" stroke="black"/>
    <path d="M247.91987600000002,847.3762706666666 L255.89453600000002,865.0303026666667" fill="none" stroke="black"/>
    <path d="M263.21021866666666,865.0303026666667 L270.9775266666666,848.4253693333334" fill="none" stroke="black"/>
    <path d="M270.9775266666666,848.4253693333334 L262.8852293333333,840.8011893333334" fill="none" stroke="black"/>
    <path d="M262.8852293333333,840.8011893333334 L253.44151333333332,839.8009826666666" fill="none" stroke="black"/>
    <path d="M253.44151333333332,839.8009826666666 L247.91987600000002,847.3762706666666" fill="none" stroke="black"/>
    <path d="M84.09564933333333,767.1781373333333 L84.55977066666667,755.971172" fill="none" stroke="black"/>
    <path d="M84.55977066666667,755.971172 L87.98512133333331,755.5402346666666" fill="none" stroke="black"/>
    <path d="M87.98512133333331,755.5402346666666 L87.73954533333333,768.8059826666666" fill="none" stroke="black"/>
    <path d="M87.73954533333333,768.8059826666666 L84.97466533333332,768.9331226666667" fill="none" stroke="black"/>
    <path d="M84.97466533333332,768.9331226666667 L84.09564933333333,767.1781373333333" fill="none" stroke="black"/>
    <path d="M56.541419999999995,745.5173333333333 L49.78611333333333,734.155676" fill="none" stroke="black"/>
    <path d="M49.78611333333333,734.155676 L57.00554133333333,734.3103679999999" fill="none" stroke="black"/>
    <path d="M57.00554133333333,734.3103679999999 L56.541419999999995,745.5173333333333" fill="none" stroke="black"/>
    <path d="M146.40968533333333,754.5118426666667 L152.22116266666666,756.1137399999999" fill="none" stroke="black"/>
    <path d="M152.22116266666666,756.1137399999999 L157.74279866666666,748.5384506666666" fill="none" stroke="black"/>
    <path d="M157.74279866666666,748.5384506666666 L155.175964,733.4689546666667" fill="none" stroke="black"/>
    <path d="M155.175964,733.4689546666667 L146.65526133333333,741.2460946666666" fill="none" stroke="black"/>
    <path d="M146.65526133333333,741.2460946666666 L146.40968533333333,754.5118426666667" fill="none" stroke="black"/>
    <path d="M25.058614666666664,760.1379453333334 L18.303307999999998,748.776288" fill="none" stroke="black"/>
    <path d="M18.303307999999998,748.776288 L4.845697333333333,740.947708" fill="none" stroke="black"/>
    <path d="M4.845697333333333,740.947708 L20.686215999999998,764.8145800000001" fill="none" stroke="black"/>
    <path d="M20.686215999999998,764.8145800000001 L25.937630666666667,761.8929293333334" fill="none" stroke="black"/>
    <path d="M25.937630666666667,761.8929293333334 L25.058614666666664,760.1379453333334" fill="none" stroke="black"/>
    <path d="M1.3333333333333333,863.6969693333334 L1117.3333333333333,863.6969693333334" fill="none" stroke="black"/>
    <path d="M1117.3333333333333,863.6969693333334 L1117.3333333333333,1.3333333333333333" fill="none" stroke="black"/>
    <path d="M1117.3333333333333,1.3333333333333333 L1.3333333333333333,1.3333333333333333" fill="none" stroke="black"/>
    <path d="M1.3333333333333333,1.3333333333333333 L1.3333333333333333,863.6969693333334" fill="none" stroke="black"/>
  </g>
</svg>
