<?xml version="1.0" encoding="UTF-8" standalone="no"?>
<svg
   xmlns:dc="http://purl.org/dc/elements/1.1/"
   xmlns:cc="http://creativecommons.org/ns#"
   xmlns:rdf="http://www.w3.org/1999/02/22-rdf-syntax-ns#"
   xmlns:svg="http://www.w3.org/2000/svg"
   xmlns="http://www.w3.org/2000/svg"
   xmlns:sodipodi="http://sodipodi.sourceforge.net/DTD/sodipodi-0.dtd"
   xmlns:inkscape="http://www.inkscape.org/namespaces/inkscape"
   inkscape:version="1.0beta2 (2b71d25, 2019-12-03)"
   sodipodi:docname="rainbow_rect_paper_cutout.svg"
   id="svg1633"
   width="1056.0"
   version="1.2"
   height="816.0">
  <metadata
     id="metadata1637">
    <rdf:RDF>
      <cc:Work
         rdf:about="">
        <dc:format>image/svg+xml</dc:format>
        <dc:type
           rdf:resource="http://purl.org/dc/dcmitype/StillImage" />
      </cc:Work>
    </rdf:RDF>
  </metadata>
  <sodipodi:namedview
     inkscape:current-layer="layer72"
     inkscape:window-maximized="0"
     inkscape:window-y="0"
     inkscape:window-x="0"
     inkscape:cy="333.32232"
     inkscape:cx="509.78571"
     inkscape:zoom="0.82352941"
     showgrid="false"
     id="namedview1635"
     inkscape:window-height="1120"
     inkscape:window-width="1792"
     inkscape:pageshadow="2"
     inkscape:pageopacity="0"
     guidetolerance="10"
     gridtolerance="10"
     objecttolerance="10"
     borderopacity="1"
     inkscape:document-rotation="0"
     bordercolor="#666666"
     pagecolor="#ffffff" />
  <defs
     id="defs833" />
  <g
     style="display:inline"
     inkscape:label="11"
     inkscape:groupmode="layer"
     id="layer11">
    <path
       id="path835"
       stroke="black"
       fill="none"
       d="M144.00000045878136,691.1999997179844 L316.79999999999995,691.1999997179844" />
    <path
       id="path837"
       stroke="black"
       fill="none"
       d="M144.00000045878136,518.4000001039005 L316.79999999999995,518.4000001039005" />
    <path
       id="path839"
       stroke="black"
       fill="none"
       d="M144.00000045878136,494.4000004378663 L316.79999999999995,494.4000004378663" />
    <path
       id="path841"
       stroke="black"
       fill="none"
       d="M144.00000045878136,321.5999995621337 L316.79999999999995,321.5999995621337" />
    <path
       id="path843"
       stroke="black"
       fill="none"
       d="M144.00000045878136,297.5999998960995 L316.79999999999995,297.5999998960995" />
    <path
       id="path845"
       stroke="black"
       fill="none"
       d="M144.00000045878136,124.80000028201556 L316.79999999999995,124.80000028201556" />
    <path
       id="path847"
       stroke="black"
       fill="none"
       d="M342.3999998853047,691.1999997179844 L515.1999994265233,691.1999997179844" />
    <path
       id="path849"
       stroke="black"
       fill="none"
       d="M342.3999998853047,518.4000001039005 L515.1999994265233,518.4000001039005" />
    <path
       id="path851"
       stroke="black"
       fill="none"
       d="M342.3999998853047,494.4000004378663 L515.1999994265233,494.4000004378663" />
    <path
       id="path853"
       stroke="black"
       fill="none"
       d="M342.3999998853047,321.5999995621337 L515.1999994265233,321.5999995621337" />
    <path
       id="path855"
       stroke="black"
       fill="none"
       d="M342.3999998853047,297.5999998960995 L515.1999994265233,297.5999998960995" />
    <path
       id="path857"
       stroke="black"
       fill="none"
       d="M342.3999998853047,124.80000028201556 L515.1999994265233,124.80000028201556" />
    <path
       id="path859"
       stroke="black"
       fill="none"
       d="M540.8000005734767,691.1999997179844 L713.6000001146954,691.1999997179844" />
    <path
       id="path861"
       stroke="black"
       fill="none"
       d="M540.8000005734767,518.4000001039005 L713.6000001146954,518.4000001039005" />
    <path
       id="path863"
       stroke="black"
       fill="none"
       d="M540.8000005734767,494.4000004378663 L713.6000001146954,494.4000004378663" />
    <path
       id="path865"
       stroke="black"
       fill="none"
       d="M540.8000005734767,321.5999995621337 L713.6000001146954,321.5999995621337" />
    <path
       id="path867"
       stroke="black"
       fill="none"
       d="M540.8000005734767,297.5999998960995 L713.6000001146954,297.5999998960995" />
    <path
       id="path869"
       stroke="black"
       fill="none"
       d="M540.8000005734767,124.80000028201556 L713.6000001146954,124.80000028201556" />
    <path
       id="path871"
       stroke="black"
       fill="none"
       d="M739.1999999999999,691.1999997179844 L911.9999995412186,691.1999997179844" />
    <path
       id="path873"
       stroke="black"
       fill="none"
       d="M739.1999999999999,518.4000001039005 L911.9999995412186,518.4000001039005" />
    <path
       id="path875"
       stroke="black"
       fill="none"
       d="M739.1999999999999,494.4000004378663 L911.9999995412186,494.4000004378663" />
    <path
       id="path877"
       stroke="black"
       fill="none"
       d="M739.1999999999999,321.5999995621337 L911.9999995412186,321.5999995621337" />
    <path
       id="path879"
       stroke="black"
       fill="none"
       d="M739.1999999999999,297.5999998960995 L911.9999995412186,297.5999998960995" />
    <path
       id="path881"
       stroke="black"
       fill="none"
       d="M739.1999999999999,124.80000028201556 L911.9999995412186,124.80000028201556" />
  </g>
  <g
     style="display:inline"
     inkscape:label="12"
     inkscape:groupmode="layer"
     id="layer12">
    <path
       id="path892"
       stroke="black"
       fill="none"
       d="M144.00000045878136,691.1999997179844 L144.00000045878136,518.4000001039005" />
    <path
       id="path894"
       stroke="black"
       fill="none"
       d="M316.79999999999995,691.1999997179844 L316.79999999999995,518.4000001039005" />
    <path
       id="path896"
       stroke="black"
       fill="none"
       d="M144.00000045878136,494.4000004378663 L144.00000045878136,321.5999995621337" />
    <path
       id="path898"
       stroke="black"
       fill="none"
       d="M316.79999999999995,494.4000004378663 L316.79999999999995,321.5999995621337" />
    <path
       id="path900"
       stroke="black"
       fill="none"
       d="M144.00000045878136,297.5999998960995 L144.00000045878136,124.80000028201556" />
    <path
       id="path902"
       stroke="black"
       fill="none"
       d="M316.79999999999995,297.5999998960995 L316.79999999999995,124.80000028201556" />
    <path
       id="path904"
       stroke="black"
       fill="none"
       d="M342.3999998853047,691.1999997179844 L342.3999998853047,518.4000001039005" />
    <path
       id="path906"
       stroke="black"
       fill="none"
       d="M515.1999994265233,691.1999997179844 L515.1999994265233,518.4000001039005" />
    <path
       id="path908"
       stroke="black"
       fill="none"
       d="M342.3999998853047,494.4000004378663 L342.3999998853047,321.5999995621337" />
    <path
       id="path910"
       stroke="black"
       fill="none"
       d="M515.1999994265233,494.4000004378663 L515.1999994265233,321.5999995621337" />
    <path
       id="path912"
       stroke="black"
       fill="none"
       d="M342.3999998853047,297.5999998960995 L342.3999998853047,124.80000028201556" />
    <path
       id="path914"
       stroke="black"
       fill="none"
       d="M515.1999994265233,297.5999998960995 L515.1999994265233,124.80000028201556" />
    <path
       id="path916"
       stroke="black"
       fill="none"
       d="M540.8000005734767,691.1999997179844 L540.8000005734767,518.4000001039005" />
    <path
       id="path918"
       stroke="black"
       fill="none"
       d="M713.6000001146954,691.1999997179844 L713.6000001146954,518.4000001039005" />
    <path
       id="path920"
       stroke="black"
       fill="none"
       d="M540.8000005734767,494.4000004378663 L540.8000005734767,321.5999995621337" />
    <path
       id="path922"
       stroke="black"
       fill="none"
       d="M713.6000001146954,494.4000004378663 L713.6000001146954,321.5999995621337" />
    <path
       id="path924"
       stroke="black"
       fill="none"
       d="M540.8000005734767,297.5999998960995 L540.8000005734767,124.80000028201556" />
    <path
       id="path926"
       stroke="black"
       fill="none"
       d="M713.6000001146954,297.5999998960995 L713.6000001146954,124.80000028201556" />
    <path
       id="path928"
       stroke="black"
       fill="none"
       d="M739.1999999999999,691.1999997179844 L739.1999999999999,518.4000001039005" />
    <path
       id="path930"
       stroke="black"
       fill="none"
       d="M911.9999995412186,691.1999997179844 L911.9999995412186,518.4000001039005" />
    <path
       id="path932"
       stroke="black"
       fill="none"
       d="M739.1999999999999,494.4000004378663 L739.1999999999999,321.5999995621337" />
    <path
       id="path934"
       stroke="black"
       fill="none"
       d="M911.9999995412186,494.4000004378663 L911.9999995412186,321.5999995621337" />
    <path
       id="path936"
       stroke="black"
       fill="none"
       d="M739.1999999999999,297.5999998960995 L739.1999999999999,124.80000028201556" />
    <path
       id="path938"
       stroke="black"
       fill="none"
       d="M911.9999995412186,297.5999998960995 L911.9999995412186,124.80000028201556" />
  </g>
  <g
     style="display:inline"
     inkscape:label="21"
     inkscape:groupmode="layer"
     id="layer21">
    <path
       id="path949"
       stroke="black"
       fill="none"
       d="M155.520000344086,679.679999827822 L305.2800001146953,679.679999827822" />
    <path
       id="path951"
       stroke="black"
       fill="none"
       d="M155.520000344086,529.9199999940628 L305.2800001146953,529.9199999940628" />
    <path
       id="path953"
       stroke="black"
       fill="none"
       d="M155.520000344086,482.88000054770396 L305.2800001146953,482.88000054770396" />
    <path
       id="path955"
       stroke="black"
       fill="none"
       d="M155.520000344086,333.12000071394476 L305.2800001146953,333.12000071394476" />
    <path
       id="path957"
       stroke="black"
       fill="none"
       d="M155.520000344086,286.08000000593717 L305.2800001146953,286.08000000593717" />
    <path
       id="path959"
       stroke="black"
       fill="none"
       d="M155.520000344086,136.3200001721779 L305.2800001146953,136.3200001721779" />
    <path
       id="path961"
       stroke="black"
       fill="none"
       d="M353.9199997706093,679.679999827822 L503.67999954121865,679.679999827822" />
    <path
       id="path963"
       stroke="black"
       fill="none"
       d="M353.9199997706093,529.9199999940628 L503.67999954121865,529.9199999940628" />
    <path
       id="path965"
       stroke="black"
       fill="none"
       d="M353.9199997706093,482.88000054770396 L503.67999954121865,482.88000054770396" />
    <path
       id="path967"
       stroke="black"
       fill="none"
       d="M353.9199997706093,333.12000071394476 L503.67999954121865,333.12000071394476" />
    <path
       id="path969"
       stroke="black"
       fill="none"
       d="M353.9199997706093,286.08000000593717 L503.67999954121865,286.08000000593717" />
    <path
       id="path971"
       stroke="black"
       fill="none"
       d="M353.9199997706093,136.3200001721779 L503.67999954121865,136.3200001721779" />
    <path
       id="path973"
       stroke="black"
       fill="none"
       d="M552.3200004587814,679.679999827822 L702.0800002293906,679.679999827822" />
    <path
       id="path975"
       stroke="black"
       fill="none"
       d="M552.3200004587814,529.9199999940628 L702.0800002293906,529.9199999940628" />
    <path
       id="path977"
       stroke="black"
       fill="none"
       d="M552.3200004587814,482.88000054770396 L702.0800002293906,482.88000054770396" />
    <path
       id="path979"
       stroke="black"
       fill="none"
       d="M552.3200004587814,333.12000071394476 L702.0800002293906,333.12000071394476" />
    <path
       id="path981"
       stroke="black"
       fill="none"
       d="M552.3200004587814,286.08000000593717 L702.0800002293906,286.08000000593717" />
    <path
       id="path983"
       stroke="black"
       fill="none"
       d="M552.3200004587814,136.3200001721779 L702.0800002293906,136.3200001721779" />
    <path
       id="path985"
       stroke="black"
       fill="none"
       d="M750.7199998853046,679.679999827822 L900.4799996559138,679.679999827822" />
    <path
       id="path987"
       stroke="black"
       fill="none"
       d="M750.7199998853046,529.9199999940628 L900.4799996559138,529.9199999940628" />
    <path
       id="path989"
       stroke="black"
       fill="none"
       d="M750.7199998853046,482.88000054770396 L900.4799996559138,482.88000054770396" />
    <path
       id="path991"
       stroke="black"
       fill="none"
       d="M750.7199998853046,333.12000071394476 L900.4799996559138,333.12000071394476" />
    <path
       id="path993"
       stroke="black"
       fill="none"
       d="M750.7199998853046,286.08000000593717 L900.4799996559138,286.08000000593717" />
    <path
       id="path995"
       stroke="black"
       fill="none"
       d="M750.7199998853046,136.3200001721779 L900.4799996559138,136.3200001721779" />
  </g>
  <g
     style="display:inline"
     inkscape:label="22"
     inkscape:groupmode="layer"
     id="layer22">
    <path
       id="path1006"
       stroke="black"
       fill="none"
       d="M155.520000344086,679.679999827822 L155.520000344086,529.9199999940628" />
    <path
       id="path1008"
       stroke="black"
       fill="none"
       d="M305.2800001146953,679.679999827822 L305.2800001146953,529.9199999940628" />
    <path
       id="path1010"
       stroke="black"
       fill="none"
       d="M155.520000344086,482.88000054770396 L155.520000344086,333.12000071394476" />
    <path
       id="path1012"
       stroke="black"
       fill="none"
       d="M305.2800001146953,482.88000054770396 L305.2800001146953,333.12000071394476" />
    <path
       id="path1014"
       stroke="black"
       fill="none"
       d="M155.520000344086,286.08000000593717 L155.520000344086,136.3200001721779" />
    <path
       id="path1016"
       stroke="black"
       fill="none"
       d="M305.2800001146953,286.08000000593717 L305.2800001146953,136.3200001721779" />
    <path
       id="path1018"
       stroke="black"
       fill="none"
       d="M353.9199997706093,679.679999827822 L353.9199997706093,529.9199999940628" />
    <path
       id="path1020"
       stroke="black"
       fill="none"
       d="M503.67999954121865,679.679999827822 L503.67999954121865,529.9199999940628" />
    <path
       id="path1022"
       stroke="black"
       fill="none"
       d="M353.9199997706093,482.88000054770396 L353.9199997706093,333.12000071394476" />
    <path
       id="path1024"
       stroke="black"
       fill="none"
       d="M503.67999954121865,482.88000054770396 L503.67999954121865,333.12000071394476" />
    <path
       id="path1026"
       stroke="black"
       fill="none"
       d="M353.9199997706093,286.08000000593717 L353.9199997706093,136.3200001721779" />
    <path
       id="path1028"
       stroke="black"
       fill="none"
       d="M503.67999954121865,286.08000000593717 L503.67999954121865,136.3200001721779" />
    <path
       id="path1030"
       stroke="black"
       fill="none"
       d="M552.3200004587814,679.679999827822 L552.3200004587814,529.9199999940628" />
    <path
       id="path1032"
       stroke="black"
       fill="none"
       d="M702.0800002293906,679.679999827822 L702.0800002293906,529.9199999940628" />
    <path
       id="path1034"
       stroke="black"
       fill="none"
       d="M552.3200004587814,482.88000054770396 L552.3200004587814,333.12000071394476" />
    <path
       id="path1036"
       stroke="black"
       fill="none"
       d="M702.0800002293906,482.88000054770396 L702.0800002293906,333.12000071394476" />
    <path
       id="path1038"
       stroke="black"
       fill="none"
       d="M552.3200004587814,286.08000000593717 L552.3200004587814,136.3200001721779" />
    <path
       id="path1040"
       stroke="black"
       fill="none"
       d="M702.0800002293906,286.08000000593717 L702.0800002293906,136.3200001721779" />
    <path
       id="path1042"
       stroke="black"
       fill="none"
       d="M750.7199998853046,679.679999827822 L750.7199998853046,529.9199999940628" />
    <path
       id="path1044"
       stroke="black"
       fill="none"
       d="M900.4799996559138,679.679999827822 L900.4799996559138,529.9199999940628" />
    <path
       id="path1046"
       stroke="black"
       fill="none"
       d="M750.7199998853046,482.88000054770396 L750.7199998853046,333.12000071394476" />
    <path
       id="path1048"
       stroke="black"
       fill="none"
       d="M900.4799996559138,482.88000054770396 L900.4799996559138,333.12000071394476" />
    <path
       id="path1050"
       stroke="black"
       fill="none"
       d="M750.7199998853046,286.08000000593717 L750.7199998853046,136.3200001721779" />
    <path
       id="path1052"
       stroke="black"
       fill="none"
       d="M900.4799996559138,286.08000000593717 L900.4799996559138,136.3200001721779" />
  </g>
  <g
     style="display:inline"
     inkscape:label="31"
     inkscape:groupmode="layer"
     id="layer31">
    <path
       id="path1063"
       stroke="black"
       fill="none"
       d="M167.0400002293906,668.1599999376597 L293.76000022939064,668.1599999376597" />
    <path
       id="path1065"
       stroke="black"
       fill="none"
       d="M167.0400002293906,541.4399998842251 L293.76000022939064,541.4399998842251" />
    <path
       id="path1067"
       stroke="black"
       fill="none"
       d="M167.0400002293906,471.36000065754155 L293.76000022939064,471.36000065754155" />
    <path
       id="path1069"
       stroke="black"
       fill="none"
       d="M167.0400002293906,344.64000060410706 L293.76000022939064,344.64000060410706" />
    <path
       id="path1071"
       stroke="black"
       fill="none"
       d="M167.0400002293906,274.56000011577476 L293.76000022939064,274.56000011577476" />
    <path
       id="path1073"
       stroke="black"
       fill="none"
       d="M167.0400002293906,147.84000006234032 L293.76000022939064,147.84000006234032" />
    <path
       id="path1075"
       stroke="black"
       fill="none"
       d="M365.439999655914,668.1599999376597 L492.159999655914,668.1599999376597" />
    <path
       id="path1077"
       stroke="black"
       fill="none"
       d="M365.439999655914,541.4399998842251 L492.159999655914,541.4399998842251" />
    <path
       id="path1079"
       stroke="black"
       fill="none"
       d="M365.439999655914,471.36000065754155 L492.159999655914,471.36000065754155" />
    <path
       id="path1081"
       stroke="black"
       fill="none"
       d="M365.439999655914,344.64000060410706 L492.159999655914,344.64000060410706" />
    <path
       id="path1083"
       stroke="black"
       fill="none"
       d="M365.439999655914,274.56000011577476 L492.159999655914,274.56000011577476" />
    <path
       id="path1085"
       stroke="black"
       fill="none"
       d="M365.439999655914,147.84000006234032 L492.159999655914,147.84000006234032" />
    <path
       id="path1087"
       stroke="black"
       fill="none"
       d="M563.840000344086,668.1599999376597 L690.5600003440859,668.1599999376597" />
    <path
       id="path1089"
       stroke="black"
       fill="none"
       d="M563.840000344086,541.4399998842251 L690.5600003440859,541.4399998842251" />
    <path
       id="path1091"
       stroke="black"
       fill="none"
       d="M563.840000344086,471.36000065754155 L690.5600003440859,471.36000065754155" />
    <path
       id="path1093"
       stroke="black"
       fill="none"
       d="M563.840000344086,344.64000060410706 L690.5600003440859,344.64000060410706" />
    <path
       id="path1095"
       stroke="black"
       fill="none"
       d="M563.840000344086,274.56000011577476 L690.5600003440859,274.56000011577476" />
    <path
       id="path1097"
       stroke="black"
       fill="none"
       d="M563.840000344086,147.84000006234032 L690.5600003440859,147.84000006234032" />
    <path
       id="path1099"
       stroke="black"
       fill="none"
       d="M762.2399997706093,668.1599999376597 L888.9599997706093,668.1599999376597" />
    <path
       id="path1101"
       stroke="black"
       fill="none"
       d="M762.2399997706093,541.4399998842251 L888.9599997706093,541.4399998842251" />
    <path
       id="path1103"
       stroke="black"
       fill="none"
       d="M762.2399997706093,471.36000065754155 L888.9599997706093,471.36000065754155" />
    <path
       id="path1105"
       stroke="black"
       fill="none"
       d="M762.2399997706093,344.64000060410706 L888.9599997706093,344.64000060410706" />
    <path
       id="path1107"
       stroke="black"
       fill="none"
       d="M762.2399997706093,274.56000011577476 L888.9599997706093,274.56000011577476" />
    <path
       id="path1109"
       stroke="black"
       fill="none"
       d="M762.2399997706093,147.84000006234032 L888.9599997706093,147.84000006234032" />
  </g>
  <g
     style="display:inline"
     inkscape:label="32"
     inkscape:groupmode="layer"
     id="layer32">
    <path
       id="path1120"
       stroke="black"
       fill="none"
       d="M167.0400002293906,668.1599999376597 L167.0400002293906,541.4399998842251" />
    <path
       id="path1122"
       stroke="black"
       fill="none"
       d="M293.76000022939064,668.1599999376597 L293.76000022939064,541.4399998842251" />
    <path
       id="path1124"
       stroke="black"
       fill="none"
       d="M167.0400002293906,471.36000065754155 L167.0400002293906,344.64000060410706" />
    <path
       id="path1126"
       stroke="black"
       fill="none"
       d="M293.76000022939064,471.36000065754155 L293.76000022939064,344.64000060410706" />
    <path
       id="path1128"
       stroke="black"
       fill="none"
       d="M167.0400002293906,274.56000011577476 L167.0400002293906,147.84000006234032" />
    <path
       id="path1130"
       stroke="black"
       fill="none"
       d="M293.76000022939064,274.56000011577476 L293.76000022939064,147.84000006234032" />
    <path
       id="path1132"
       stroke="black"
       fill="none"
       d="M365.439999655914,668.1599999376597 L365.439999655914,541.4399998842251" />
    <path
       id="path1134"
       stroke="black"
       fill="none"
       d="M492.159999655914,668.1599999376597 L492.159999655914,541.4399998842251" />
    <path
       id="path1136"
       stroke="black"
       fill="none"
       d="M365.439999655914,471.36000065754155 L365.439999655914,344.64000060410706" />
    <path
       id="path1138"
       stroke="black"
       fill="none"
       d="M492.159999655914,471.36000065754155 L492.159999655914,344.64000060410706" />
    <path
       id="path1140"
       stroke="black"
       fill="none"
       d="M365.439999655914,274.56000011577476 L365.439999655914,147.84000006234032" />
    <path
       id="path1142"
       stroke="black"
       fill="none"
       d="M492.159999655914,274.56000011577476 L492.159999655914,147.84000006234032" />
    <path
       id="path1144"
       stroke="black"
       fill="none"
       d="M563.840000344086,668.1599999376597 L563.840000344086,541.4399998842251" />
    <path
       id="path1146"
       stroke="black"
       fill="none"
       d="M690.5600003440859,668.1599999376597 L690.5600003440859,541.4399998842251" />
    <path
       id="path1148"
       stroke="black"
       fill="none"
       d="M563.840000344086,471.36000065754155 L563.840000344086,344.64000060410706" />
    <path
       id="path1150"
       stroke="black"
       fill="none"
       d="M690.5600003440859,471.36000065754155 L690.5600003440859,344.64000060410706" />
    <path
       id="path1152"
       stroke="black"
       fill="none"
       d="M563.840000344086,274.56000011577476 L563.840000344086,147.84000006234032" />
    <path
       id="path1154"
       stroke="black"
       fill="none"
       d="M690.5600003440859,274.56000011577476 L690.5600003440859,147.84000006234032" />
    <path
       id="path1156"
       stroke="black"
       fill="none"
       d="M762.2399997706093,668.1599999376597 L762.2399997706093,541.4399998842251" />
    <path
       id="path1158"
       stroke="black"
       fill="none"
       d="M888.9599997706093,668.1599999376597 L888.9599997706093,541.4399998842251" />
    <path
       id="path1160"
       stroke="black"
       fill="none"
       d="M762.2399997706093,471.36000065754155 L762.2399997706093,344.64000060410706" />
    <path
       id="path1162"
       stroke="black"
       fill="none"
       d="M888.9599997706093,471.36000065754155 L888.9599997706093,344.64000060410706" />
    <path
       id="path1164"
       stroke="black"
       fill="none"
       d="M762.2399997706093,274.56000011577476 L762.2399997706093,147.84000006234032" />
    <path
       id="path1166"
       stroke="black"
       fill="none"
       d="M888.9599997706093,274.56000011577476 L888.9599997706093,147.84000006234032" />
  </g>
  <g
     style="display:inline"
     inkscape:label="41"
     inkscape:groupmode="layer"
     id="layer41">
    <path
       id="path1177"
       stroke="black"
       fill="none"
       d="M178.5600001146953,656.6400000474973 L282.24000034408596,656.6400000474973" />
    <path
       id="path1179"
       stroke="black"
       fill="none"
       d="M178.5600001146953,552.9599997743874 L282.24000034408596,552.9599997743874" />
    <path
       id="path1181"
       stroke="black"
       fill="none"
       d="M178.5600001146953,459.84000076737925 L282.24000034408596,459.84000076737925" />
    <path
       id="path1183"
       stroke="black"
       fill="none"
       d="M178.5600001146953,356.1600004942694 L282.24000034408596,356.1600004942694" />
    <path
       id="path1185"
       stroke="black"
       fill="none"
       d="M178.5600001146953,263.0400002256125 L282.24000034408596,263.0400002256125" />
    <path
       id="path1187"
       stroke="black"
       fill="none"
       d="M178.5600001146953,159.35999995250262 L282.24000034408596,159.35999995250262" />
    <path
       id="path1189"
       stroke="black"
       fill="none"
       d="M376.9599995412186,656.6400000474973 L480.6399997706093,656.6400000474973" />
    <path
       id="path1191"
       stroke="black"
       fill="none"
       d="M376.9599995412186,552.9599997743874 L480.6399997706093,552.9599997743874" />
    <path
       id="path1193"
       stroke="black"
       fill="none"
       d="M376.9599995412186,459.84000076737925 L480.6399997706093,459.84000076737925" />
    <path
       id="path1195"
       stroke="black"
       fill="none"
       d="M376.9599995412186,356.1600004942694 L480.6399997706093,356.1600004942694" />
    <path
       id="path1197"
       stroke="black"
       fill="none"
       d="M376.9599995412186,263.0400002256125 L480.6399997706093,263.0400002256125" />
    <path
       id="path1199"
       stroke="black"
       fill="none"
       d="M376.9599995412186,159.35999995250262 L480.6399997706093,159.35999995250262" />
    <path
       id="path1201"
       stroke="black"
       fill="none"
       d="M575.3600002293906,656.6400000474973 L679.0400004587814,656.6400000474973" />
    <path
       id="path1203"
       stroke="black"
       fill="none"
       d="M575.3600002293906,552.9599997743874 L679.0400004587814,552.9599997743874" />
    <path
       id="path1205"
       stroke="black"
       fill="none"
       d="M575.3600002293906,459.84000076737925 L679.0400004587814,459.84000076737925" />
    <path
       id="path1207"
       stroke="black"
       fill="none"
       d="M575.3600002293906,356.1600004942694 L679.0400004587814,356.1600004942694" />
    <path
       id="path1209"
       stroke="black"
       fill="none"
       d="M575.3600002293906,263.0400002256125 L679.0400004587814,263.0400002256125" />
    <path
       id="path1211"
       stroke="black"
       fill="none"
       d="M575.3600002293906,159.35999995250262 L679.0400004587814,159.35999995250262" />
    <path
       id="path1213"
       stroke="black"
       fill="none"
       d="M773.7599996559139,656.6400000474973 L877.4399998853046,656.6400000474973" />
    <path
       id="path1215"
       stroke="black"
       fill="none"
       d="M773.7599996559139,552.9599997743874 L877.4399998853046,552.9599997743874" />
    <path
       id="path1217"
       stroke="black"
       fill="none"
       d="M773.7599996559139,459.84000076737925 L877.4399998853046,459.84000076737925" />
    <path
       id="path1219"
       stroke="black"
       fill="none"
       d="M773.7599996559139,356.1600004942694 L877.4399998853046,356.1600004942694" />
    <path
       id="path1221"
       stroke="black"
       fill="none"
       d="M773.7599996559139,263.0400002256125 L877.4399998853046,263.0400002256125" />
    <path
       id="path1223"
       stroke="black"
       fill="none"
       d="M773.7599996559139,159.35999995250262 L877.4399998853046,159.35999995250262" />
  </g>
  <g
     style="display:inline"
     inkscape:label="42"
     inkscape:groupmode="layer"
     id="layer42">
    <path
       id="path1234"
       stroke="black"
       fill="none"
       d="M178.5600001146953,656.6400000474973 L178.5600001146953,552.9599997743874" />
    <path
       id="path1236"
       stroke="black"
       fill="none"
       d="M282.24000034408596,656.6400000474973 L282.24000034408596,552.9599997743874" />
    <path
       id="path1238"
       stroke="black"
       fill="none"
       d="M178.5600001146953,459.84000076737925 L178.5600001146953,356.1600004942694" />
    <path
       id="path1240"
       stroke="black"
       fill="none"
       d="M282.24000034408596,459.84000076737925 L282.24000034408596,356.1600004942694" />
    <path
       id="path1242"
       stroke="black"
       fill="none"
       d="M178.5600001146953,263.0400002256125 L178.5600001146953,159.35999995250262" />
    <path
       id="path1244"
       stroke="black"
       fill="none"
       d="M282.24000034408596,263.0400002256125 L282.24000034408596,159.35999995250262" />
    <path
       id="path1246"
       stroke="black"
       fill="none"
       d="M376.9599995412186,656.6400000474973 L376.9599995412186,552.9599997743874" />
    <path
       id="path1248"
       stroke="black"
       fill="none"
       d="M480.6399997706093,656.6400000474973 L480.6399997706093,552.9599997743874" />
    <path
       id="path1250"
       stroke="black"
       fill="none"
       d="M376.9599995412186,459.84000076737925 L376.9599995412186,356.1600004942694" />
    <path
       id="path1252"
       stroke="black"
       fill="none"
       d="M480.6399997706093,459.84000076737925 L480.6399997706093,356.1600004942694" />
    <path
       id="path1254"
       stroke="black"
       fill="none"
       d="M376.9599995412186,263.0400002256125 L376.9599995412186,159.35999995250262" />
    <path
       id="path1256"
       stroke="black"
       fill="none"
       d="M480.6399997706093,263.0400002256125 L480.6399997706093,159.35999995250262" />
    <path
       id="path1258"
       stroke="black"
       fill="none"
       d="M575.3600002293906,656.6400000474973 L575.3600002293906,552.9599997743874" />
    <path
       id="path1260"
       stroke="black"
       fill="none"
       d="M679.0400004587814,656.6400000474973 L679.0400004587814,552.9599997743874" />
    <path
       id="path1262"
       stroke="black"
       fill="none"
       d="M575.3600002293906,459.84000076737925 L575.3600002293906,356.1600004942694" />
    <path
       id="path1264"
       stroke="black"
       fill="none"
       d="M679.0400004587814,459.84000076737925 L679.0400004587814,356.1600004942694" />
    <path
       id="path1266"
       stroke="black"
       fill="none"
       d="M575.3600002293906,263.0400002256125 L575.3600002293906,159.35999995250262" />
    <path
       id="path1268"
       stroke="black"
       fill="none"
       d="M679.0400004587814,263.0400002256125 L679.0400004587814,159.35999995250262" />
    <path
       id="path1270"
       stroke="black"
       fill="none"
       d="M773.7599996559139,656.6400000474973 L773.7599996559139,552.9599997743874" />
    <path
       id="path1272"
       stroke="black"
       fill="none"
       d="M877.4399998853046,656.6400000474973 L877.4399998853046,552.9599997743874" />
    <path
       id="path1274"
       stroke="black"
       fill="none"
       d="M773.7599996559139,459.84000076737925 L773.7599996559139,356.1600004942694" />
    <path
       id="path1276"
       stroke="black"
       fill="none"
       d="M877.4399998853046,459.84000076737925 L877.4399998853046,356.1600004942694" />
    <path
       id="path1278"
       stroke="black"
       fill="none"
       d="M773.7599996559139,263.0400002256125 L773.7599996559139,159.35999995250262" />
    <path
       id="path1280"
       stroke="black"
       fill="none"
       d="M877.4399998853046,263.0400002256125 L877.4399998853046,159.35999995250262" />
  </g>
  <g
     style="display:inline"
     inkscape:label="51"
     inkscape:groupmode="layer"
     id="layer51">
    <path
       id="path1291"
       stroke="black"
       fill="none"
       d="M190.07999999999998,645.120000157335 L270.7200004587813,645.120000157335" />
    <path
       id="path1293"
       stroke="black"
       fill="none"
       d="M190.07999999999998,564.4799996645497 L270.7200004587813,564.4799996645497" />
    <path
       id="path1295"
       stroke="black"
       fill="none"
       d="M190.07999999999998,448.3199996155681 L270.7200004587813,448.3199996155681" />
    <path
       id="path1297"
       stroke="black"
       fill="none"
       d="M190.07999999999998,367.68000038443176 L270.7200004587813,367.68000038443176" />
    <path
       id="path1299"
       stroke="black"
       fill="none"
       d="M190.07999999999998,251.5200003354501 L270.7200004587813,251.5200003354501" />
    <path
       id="path1301"
       stroke="black"
       fill="none"
       d="M190.07999999999998,170.87999984266497 L270.7200004587813,170.87999984266497" />
    <path
       id="path1303"
       stroke="black"
       fill="none"
       d="M388.47999942652325,645.120000157335 L469.11999988530465,645.120000157335" />
    <path
       id="path1305"
       stroke="black"
       fill="none"
       d="M388.47999942652325,564.4799996645497 L469.11999988530465,564.4799996645497" />
    <path
       id="path1307"
       stroke="black"
       fill="none"
       d="M388.47999942652325,448.3199996155681 L469.11999988530465,448.3199996155681" />
    <path
       id="path1309"
       stroke="black"
       fill="none"
       d="M388.47999942652325,367.68000038443176 L469.11999988530465,367.68000038443176" />
    <path
       id="path1311"
       stroke="black"
       fill="none"
       d="M388.47999942652325,251.5200003354501 L469.11999988530465,251.5200003354501" />
    <path
       id="path1313"
       stroke="black"
       fill="none"
       d="M388.47999942652325,170.87999984266497 L469.11999988530465,170.87999984266497" />
    <path
       id="path1315"
       stroke="black"
       fill="none"
       d="M586.8800001146952,645.120000157335 L667.5200005734766,645.120000157335" />
    <path
       id="path1317"
       stroke="black"
       fill="none"
       d="M586.8800001146952,564.4799996645497 L667.5200005734766,564.4799996645497" />
    <path
       id="path1319"
       stroke="black"
       fill="none"
       d="M586.8800001146952,448.3199996155681 L667.5200005734766,448.3199996155681" />
    <path
       id="path1321"
       stroke="black"
       fill="none"
       d="M586.8800001146952,367.68000038443176 L667.5200005734766,367.68000038443176" />
    <path
       id="path1323"
       stroke="black"
       fill="none"
       d="M586.8800001146952,251.5200003354501 L667.5200005734766,251.5200003354501" />
    <path
       id="path1325"
       stroke="black"
       fill="none"
       d="M586.8800001146952,170.87999984266497 L667.5200005734766,170.87999984266497" />
    <path
       id="path1327"
       stroke="black"
       fill="none"
       d="M785.2799995412186,645.120000157335 L865.9200000000001,645.120000157335" />
    <path
       id="path1329"
       stroke="black"
       fill="none"
       d="M785.2799995412186,564.4799996645497 L865.9200000000001,564.4799996645497" />
    <path
       id="path1331"
       stroke="black"
       fill="none"
       d="M785.2799995412186,448.3199996155681 L865.9200000000001,448.3199996155681" />
    <path
       id="path1333"
       stroke="black"
       fill="none"
       d="M785.2799995412186,367.68000038443176 L865.9200000000001,367.68000038443176" />
    <path
       id="path1335"
       stroke="black"
       fill="none"
       d="M785.2799995412186,251.5200003354501 L865.9200000000001,251.5200003354501" />
    <path
       id="path1337"
       stroke="black"
       fill="none"
       d="M785.2799995412186,170.87999984266497 L865.9200000000001,170.87999984266497" />
  </g>
  <g
     style="display:inline"
     inkscape:label="52"
     inkscape:groupmode="layer"
     id="layer52">
    <path
       id="path1348"
       stroke="black"
       fill="none"
       d="M190.07999999999998,645.120000157335 L190.07999999999998,564.4799996645497" />
    <path
       id="path1350"
       stroke="black"
       fill="none"
       d="M270.7200004587813,645.120000157335 L270.7200004587813,564.4799996645497" />
    <path
       id="path1352"
       stroke="black"
       fill="none"
       d="M190.07999999999998,448.3199996155681 L190.07999999999998,367.68000038443176" />
    <path
       id="path1354"
       stroke="black"
       fill="none"
       d="M270.7200004587813,448.3199996155681 L270.7200004587813,367.68000038443176" />
    <path
       id="path1356"
       stroke="black"
       fill="none"
       d="M190.07999999999998,251.5200003354501 L190.07999999999998,170.87999984266497" />
    <path
       id="path1358"
       stroke="black"
       fill="none"
       d="M270.7200004587813,251.5200003354501 L270.7200004587813,170.87999984266497" />
    <path
       id="path1360"
       stroke="black"
       fill="none"
       d="M388.47999942652325,645.120000157335 L388.47999942652325,564.4799996645497" />
    <path
       id="path1362"
       stroke="black"
       fill="none"
       d="M469.11999988530465,645.120000157335 L469.11999988530465,564.4799996645497" />
    <path
       id="path1364"
       stroke="black"
       fill="none"
       d="M388.47999942652325,448.3199996155681 L388.47999942652325,367.68000038443176" />
    <path
       id="path1366"
       stroke="black"
       fill="none"
       d="M469.11999988530465,448.3199996155681 L469.11999988530465,367.68000038443176" />
    <path
       id="path1368"
       stroke="black"
       fill="none"
       d="M388.47999942652325,251.5200003354501 L388.47999942652325,170.87999984266497" />
    <path
       id="path1370"
       stroke="black"
       fill="none"
       d="M469.11999988530465,251.5200003354501 L469.11999988530465,170.87999984266497" />
    <path
       id="path1372"
       stroke="black"
       fill="none"
       d="M586.8800001146952,645.120000157335 L586.8800001146952,564.4799996645497" />
    <path
       id="path1374"
       stroke="black"
       fill="none"
       d="M667.5200005734766,645.120000157335 L667.5200005734766,564.4799996645497" />
    <path
       id="path1376"
       stroke="black"
       fill="none"
       d="M586.8800001146952,448.3199996155681 L586.8800001146952,367.68000038443176" />
    <path
       id="path1378"
       stroke="black"
       fill="none"
       d="M667.5200005734766,448.3199996155681 L667.5200005734766,367.68000038443176" />
    <path
       id="path1380"
       stroke="black"
       fill="none"
       d="M586.8800001146952,251.5200003354501 L586.8800001146952,170.87999984266497" />
    <path
       id="path1382"
       stroke="black"
       fill="none"
       d="M667.5200005734766,251.5200003354501 L667.5200005734766,170.87999984266497" />
    <path
       id="path1384"
       stroke="black"
       fill="none"
       d="M785.2799995412186,645.120000157335 L785.2799995412186,564.4799996645497" />
    <path
       id="path1386"
       stroke="black"
       fill="none"
       d="M865.9200000000001,645.120000157335 L865.9200000000001,564.4799996645497" />
    <path
       id="path1388"
       stroke="black"
       fill="none"
       d="M785.2799995412186,448.3199996155681 L785.2799995412186,367.68000038443176" />
    <path
       id="path1390"
       stroke="black"
       fill="none"
       d="M865.9200000000001,448.3199996155681 L865.9200000000001,367.68000038443176" />
    <path
       id="path1392"
       stroke="black"
       fill="none"
       d="M785.2799995412186,251.5200003354501 L785.2799995412186,170.87999984266497" />
    <path
       id="path1394"
       stroke="black"
       fill="none"
       d="M865.9200000000001,251.5200003354501 L865.9200000000001,170.87999984266497" />
  </g>
  <g
     style="display:inline"
     inkscape:label="61"
     inkscape:groupmode="layer"
     id="layer61">
    <path
       id="path1405"
       stroke="black"
       fill="none"
       d="M201.5999998853046,633.6000002671726 L259.2000005734767,633.6000002671726" />
    <path
       id="path1407"
       stroke="black"
       fill="none"
       d="M201.5999998853046,576.0000008163609 L259.2000005734767,576.0000008163609" />
    <path
       id="path1409"
       stroke="black"
       fill="none"
       d="M201.5999998853046,436.7999997254058 L259.2000005734767,436.7999997254058" />
    <path
       id="path1411"
       stroke="black"
       fill="none"
       d="M201.5999998853046,379.2000002745941 L259.2000005734767,379.2000002745941" />
    <path
       id="path1413"
       stroke="black"
       fill="none"
       d="M201.5999998853046,240.0000004452878 L259.2000005734767,240.0000004452878" />
    <path
       id="path1415"
       stroke="black"
       fill="none"
       d="M201.5999998853046,182.3999997328273 L259.2000005734767,182.3999997328273" />
    <path
       id="path1417"
       stroke="black"
       fill="none"
       d="M400.00000057347665,633.6000002671726 L457.59999999999997,633.6000002671726" />
    <path
       id="path1419"
       stroke="black"
       fill="none"
       d="M400.00000057347665,576.0000008163609 L457.59999999999997,576.0000008163609" />
    <path
       id="path1421"
       stroke="black"
       fill="none"
       d="M400.00000057347665,436.7999997254058 L457.59999999999997,436.7999997254058" />
    <path
       id="path1423"
       stroke="black"
       fill="none"
       d="M400.00000057347665,379.2000002745941 L457.59999999999997,379.2000002745941" />
    <path
       id="path1425"
       stroke="black"
       fill="none"
       d="M400.00000057347665,240.0000004452878 L457.59999999999997,240.0000004452878" />
    <path
       id="path1427"
       stroke="black"
       fill="none"
       d="M400.00000057347665,182.3999997328273 L457.59999999999997,182.3999997328273" />
    <path
       id="path1429"
       stroke="black"
       fill="none"
       d="M598.4,633.6000002671726 L655.9999994265233,633.6000002671726" />
    <path
       id="path1431"
       stroke="black"
       fill="none"
       d="M598.4,576.0000008163609 L655.9999994265233,576.0000008163609" />
    <path
       id="path1433"
       stroke="black"
       fill="none"
       d="M598.4,436.7999997254058 L655.9999994265233,436.7999997254058" />
    <path
       id="path1435"
       stroke="black"
       fill="none"
       d="M598.4,379.2000002745941 L655.9999994265233,379.2000002745941" />
    <path
       id="path1437"
       stroke="black"
       fill="none"
       d="M598.4,240.0000004452878 L655.9999994265233,240.0000004452878" />
    <path
       id="path1439"
       stroke="black"
       fill="none"
       d="M598.4,182.3999997328273 L655.9999994265233,182.3999997328273" />
    <path
       id="path1441"
       stroke="black"
       fill="none"
       d="M796.7999994265232,633.6000002671726 L854.4000001146953,633.6000002671726" />
    <path
       id="path1443"
       stroke="black"
       fill="none"
       d="M796.7999994265232,576.0000008163609 L854.4000001146953,576.0000008163609" />
    <path
       id="path1445"
       stroke="black"
       fill="none"
       d="M796.7999994265232,436.7999997254058 L854.4000001146953,436.7999997254058" />
    <path
       id="path1447"
       stroke="black"
       fill="none"
       d="M796.7999994265232,379.2000002745941 L854.4000001146953,379.2000002745941" />
    <path
       id="path1449"
       stroke="black"
       fill="none"
       d="M796.7999994265232,240.0000004452878 L854.4000001146953,240.0000004452878" />
    <path
       id="path1451"
       stroke="black"
       fill="none"
       d="M796.7999994265232,182.3999997328273 L854.4000001146953,182.3999997328273" />
  </g>
  <g
     style="display:inline"
     inkscape:label="62"
     inkscape:groupmode="layer"
     id="layer62">
    <path
       id="path1462"
       stroke="black"
       fill="none"
       d="M201.5999998853046,633.6000002671726 L201.5999998853046,576.0000008163609" />
    <path
       id="path1464"
       stroke="black"
       fill="none"
       d="M259.2000005734767,633.6000002671726 L259.2000005734767,576.0000008163609" />
    <path
       id="path1466"
       stroke="black"
       fill="none"
       d="M201.5999998853046,436.7999997254058 L201.5999998853046,379.2000002745941" />
    <path
       id="path1468"
       stroke="black"
       fill="none"
       d="M259.2000005734767,436.7999997254058 L259.2000005734767,379.2000002745941" />
    <path
       id="path1470"
       stroke="black"
       fill="none"
       d="M201.5999998853046,240.0000004452878 L201.5999998853046,182.3999997328273" />
    <path
       id="path1472"
       stroke="black"
       fill="none"
       d="M259.2000005734767,240.0000004452878 L259.2000005734767,182.3999997328273" />
    <path
       id="path1474"
       stroke="black"
       fill="none"
       d="M400.00000057347665,633.6000002671726 L400.00000057347665,576.0000008163609" />
    <path
       id="path1476"
       stroke="black"
       fill="none"
       d="M457.59999999999997,633.6000002671726 L457.59999999999997,576.0000008163609" />
    <path
       id="path1478"
       stroke="black"
       fill="none"
       d="M400.00000057347665,436.7999997254058 L400.00000057347665,379.2000002745941" />
    <path
       id="path1480"
       stroke="black"
       fill="none"
       d="M457.59999999999997,436.7999997254058 L457.59999999999997,379.2000002745941" />
    <path
       id="path1482"
       stroke="black"
       fill="none"
       d="M400.00000057347665,240.0000004452878 L400.00000057347665,182.3999997328273" />
    <path
       id="path1484"
       stroke="black"
       fill="none"
       d="M457.59999999999997,240.0000004452878 L457.59999999999997,182.3999997328273" />
    <path
       id="path1486"
       stroke="black"
       fill="none"
       d="M598.4,633.6000002671726 L598.4,576.0000008163609" />
    <path
       id="path1488"
       stroke="black"
       fill="none"
       d="M655.9999994265233,633.6000002671726 L655.9999994265233,576.0000008163609" />
    <path
       id="path1490"
       stroke="black"
       fill="none"
       d="M598.4,436.7999997254058 L598.4,379.2000002745941" />
    <path
       id="path1492"
       stroke="black"
       fill="none"
       d="M655.9999994265233,436.7999997254058 L655.9999994265233,379.2000002745941" />
    <path
       id="path1494"
       stroke="black"
       fill="none"
       d="M598.4,240.0000004452878 L598.4,182.3999997328273" />
    <path
       id="path1496"
       stroke="black"
       fill="none"
       d="M655.9999994265233,240.0000004452878 L655.9999994265233,182.3999997328273" />
    <path
       id="path1498"
       stroke="black"
       fill="none"
       d="M796.7999994265232,633.6000002671726 L796.7999994265232,576.0000008163609" />
    <path
       id="path1500"
       stroke="black"
       fill="none"
       d="M854.4000001146953,633.6000002671726 L854.4000001146953,576.0000008163609" />
    <path
       id="path1502"
       stroke="black"
       fill="none"
       d="M796.7999994265232,436.7999997254058 L796.7999994265232,379.2000002745941" />
    <path
       id="path1504"
       stroke="black"
       fill="none"
       d="M854.4000001146953,436.7999997254058 L854.4000001146953,379.2000002745941" />
    <path
       id="path1506"
       stroke="black"
       fill="none"
       d="M796.7999994265232,240.0000004452878 L796.7999994265232,182.3999997328273" />
    <path
       id="path1508"
       stroke="black"
       fill="none"
       d="M854.4000001146953,240.0000004452878 L854.4000001146953,182.3999997328273" />
  </g>
  <g
     style="display:inline"
     inkscape:label="71"
     inkscape:groupmode="layer"
     id="layer71">
    <path
       id="path1519"
       stroke="black"
       fill="none"
       d="M213.1199997706093,622.0800003770103 L247.6799994265233,622.0800003770103" />
    <path
       id="path1521"
       stroke="black"
       fill="none"
       d="M213.1199997706093,587.5200007065232 L247.6799994265233,587.5200007065232" />
    <path
       id="path1523"
       stroke="black"
       fill="none"
       d="M213.1199997706093,425.2799998352435 L247.6799994265233,425.2799998352435" />
    <path
       id="path1525"
       stroke="black"
       fill="none"
       d="M213.1199997706093,390.7200001647564 L247.6799994265233,390.7200001647564" />
    <path
       id="path1527"
       stroke="black"
       fill="none"
       d="M213.1199997706093,228.48000055512543 L247.6799994265233,228.48000055512543" />
    <path
       id="path1529"
       stroke="black"
       fill="none"
       d="M213.1199997706093,193.91999962298965 L247.6799994265233,193.91999962298965" />
    <path
       id="path1531"
       stroke="black"
       fill="none"
       d="M411.5200004587813,622.0800003770103 L446.08000011469534,622.0800003770103" />
    <path
       id="path1533"
       stroke="black"
       fill="none"
       d="M411.5200004587813,587.5200007065232 L446.08000011469534,587.5200007065232" />
    <path
       id="path1535"
       stroke="black"
       fill="none"
       d="M411.5200004587813,425.2799998352435 L446.08000011469534,425.2799998352435" />
    <path
       id="path1537"
       stroke="black"
       fill="none"
       d="M411.5200004587813,390.7200001647564 L446.08000011469534,390.7200001647564" />
    <path
       id="path1539"
       stroke="black"
       fill="none"
       d="M411.5200004587813,228.48000055512543 L446.08000011469534,228.48000055512543" />
    <path
       id="path1541"
       stroke="black"
       fill="none"
       d="M411.5200004587813,193.91999962298965 L446.08000011469534,193.91999962298965" />
    <path
       id="path1543"
       stroke="black"
       fill="none"
       d="M609.9199998853046,622.0800003770103 L644.4799995412186,622.0800003770103" />
    <path
       id="path1545"
       stroke="black"
       fill="none"
       d="M609.9199998853046,587.5200007065232 L644.4799995412186,587.5200007065232" />
    <path
       id="path1547"
       stroke="black"
       fill="none"
       d="M609.9199998853046,425.2799998352435 L644.4799995412186,425.2799998352435" />
    <path
       id="path1549"
       stroke="black"
       fill="none"
       d="M609.9199998853046,390.7200001647564 L644.4799995412186,390.7200001647564" />
    <path
       id="path1551"
       stroke="black"
       fill="none"
       d="M609.9199998853046,228.48000055512543 L644.4799995412186,228.48000055512543" />
    <path
       id="path1553"
       stroke="black"
       fill="none"
       d="M609.9199998853046,193.91999962298965 L644.4799995412186,193.91999962298965" />
    <path
       id="path1555"
       stroke="black"
       fill="none"
       d="M808.3200005734768,622.0800003770103 L842.8800002293906,622.0800003770103" />
    <path
       id="path1557"
       stroke="black"
       fill="none"
       d="M808.3200005734768,587.5200007065232 L842.8800002293906,587.5200007065232" />
    <path
       id="path1559"
       stroke="black"
       fill="none"
       d="M808.3200005734768,425.2799998352435 L842.8800002293906,425.2799998352435" />
    <path
       id="path1561"
       stroke="black"
       fill="none"
       d="M808.3200005734768,390.7200001647564 L842.8800002293906,390.7200001647564" />
    <path
       id="path1563"
       stroke="black"
       fill="none"
       d="M808.3200005734768,228.48000055512543 L842.8800002293906,228.48000055512543" />
    <path
       id="path1565"
       stroke="black"
       fill="none"
       d="M808.3200005734768,193.91999962298965 L842.8800002293906,193.91999962298965" />
  </g>
  <g
     style="display:inline"
     inkscape:label="72"
     inkscape:groupmode="layer"
     id="layer72">
    <path
       id="path1576"
       stroke="black"
       fill="none"
       d="M213.1199997706093,622.0800003770103 L213.1199997706093,587.5200007065232" />
    <path
       id="path1578"
       stroke="black"
       fill="none"
       d="M247.6799994265233,622.0800003770103 L247.6799994265233,587.5200007065232" />
    <path
       id="path1580"
       stroke="black"
       fill="none"
       d="M213.1199997706093,425.2799998352435 L213.1199997706093,390.7200001647564" />
    <path
       id="path1582"
       stroke="black"
       fill="none"
       d="M247.6799994265233,425.2799998352435 L247.6799994265233,390.7200001647564" />
    <path
       id="path1584"
       stroke="black"
       fill="none"
       d="M213.1199997706093,228.48000055512543 L213.1199997706093,193.91999962298965" />
    <path
       id="path1586"
       stroke="black"
       fill="none"
       d="M247.6799994265233,228.48000055512543 L247.6799994265233,193.91999962298965" />
    <path
       id="path1588"
       stroke="black"
       fill="none"
       d="M411.5200004587813,622.0800003770103 L411.5200004587813,587.5200007065232" />
    <path
       id="path1590"
       stroke="black"
       fill="none"
       d="M446.08000011469534,622.0800003770103 L446.08000011469534,587.5200007065232" />
    <path
       id="path1592"
       stroke="black"
       fill="none"
       d="M411.5200004587813,425.2799998352435 L411.5200004587813,390.7200001647564" />
    <path
       id="path1594"
       stroke="black"
       fill="none"
       d="M446.08000011469534,425.2799998352435 L446.08000011469534,390.7200001647564" />
    <path
       id="path1596"
       stroke="black"
       fill="none"
       d="M411.5200004587813,228.48000055512543 L411.5200004587813,193.91999962298965" />
    <path
       id="path1598"
       stroke="black"
       fill="none"
       d="M446.08000011469534,228.48000055512543 L446.08000011469534,193.91999962298965" />
    <path
       id="path1600"
       stroke="black"
       fill="none"
       d="M609.9199998853046,622.0800003770103 L609.9199998853046,587.5200007065232" />
    <path
       id="path1602"
       stroke="black"
       fill="none"
       d="M644.4799995412186,622.0800003770103 L644.4799995412186,587.5200007065232" />
    <path
       id="path1604"
       stroke="black"
       fill="none"
       d="M609.9199998853046,425.2799998352435 L609.9199998853046,390.7200001647564" />
    <path
       id="path1606"
       stroke="black"
       fill="none"
       d="M644.4799995412186,425.2799998352435 L644.4799995412186,390.7200001647564" />
    <path
       id="path1608"
       stroke="black"
       fill="none"
       d="M609.9199998853046,228.48000055512543 L609.9199998853046,193.91999962298965" />
    <path
       id="path1610"
       stroke="black"
       fill="none"
       d="M644.4799995412186,228.48000055512543 L644.4799995412186,193.91999962298965" />
    <path
       id="path1612"
       stroke="black"
       fill="none"
       d="M808.3200005734768,622.0800003770103 L808.3200005734768,587.5200007065232" />
    <path
       id="path1614"
       stroke="black"
       fill="none"
       d="M842.8800002293906,622.0800003770103 L842.8800002293906,587.5200007065232" />
    <path
       id="path1616"
       stroke="black"
       fill="none"
       d="M808.3200005734768,425.2799998352435 L808.3200005734768,390.7200001647564" />
    <path
       id="path1618"
       stroke="black"
       fill="none"
       d="M842.8800002293906,425.2799998352435 L842.8800002293906,390.7200001647564" />
    <path
       id="path1620"
       stroke="black"
       fill="none"
       d="M808.3200005734768,228.48000055512543 L808.3200005734768,193.91999962298965" />
    <path
       id="path1622"
       stroke="black"
       fill="none"
       d="M842.8800002293906,228.48000055512543 L842.8800002293906,193.91999962298965" />
  </g>
</svg>
