<?xml version="1.0" encoding="utf-8" standalone="no"?>
<!DOCTYPE svg PUBLIC "-//W3C//DTD SVG 1.1//EN"
  "http://www.w3.org/Graphics/SVG/1.1/DTD/svg11.dtd">
<!-- Created with matplotlib (https://matplotlib.org/) -->
<svg height="576pt" version="1.1" viewBox="0 0 432 576" width="432pt" xmlns="http://www.w3.org/2000/svg" xmlns:xlink="http://www.w3.org/1999/xlink">
 <defs>
  <style type="text/css">
*{stroke-linecap:butt;stroke-linejoin:round;}
  </style>
 </defs>
 <g id="figure_1">
  <g id="axes_1">
   <g id="LineCollection_1">
    <path clip-path="url(#p79a8294101)" d="M 216 576 
L 216 288 
" style="fill:none;stroke:#000000;stroke-opacity:0.8;stroke-width:1.5;"/>
    <path clip-path="url(#p79a8294101)" d="M 216 144 
L 216 0 
" style="fill:none;stroke:#000000;stroke-opacity:0.8;stroke-width:1.5;"/>
    <path clip-path="url(#p79a8294101)" d="M 0 216 
L 144 216 
" style="fill:none;stroke:#000000;stroke-opacity:0.8;stroke-width:1.5;"/>
    <path clip-path="url(#p79a8294101)" d="M 288 216 
L 432 216 
" style="fill:none;stroke:#000000;stroke-opacity:0.8;stroke-width:1.5;"/>
    <path clip-path="url(#p79a8294101)" d="M 227.119424 111.982056 
L 239.090204 0 
" style="fill:none;stroke:#000000;stroke-opacity:0.8;stroke-width:1.5;"/>
    <path clip-path="url(#p79a8294101)" d="M 241.738941 96.986772 
L 251.643517 51.189412 
" style="fill:none;stroke:#000000;stroke-opacity:0.8;stroke-width:1.5;"/>
    <path clip-path="url(#p79a8294101)" d="M 238.613523 147.643372 
L 287.456436 0 
" style="fill:none;stroke:#000000;stroke-opacity:0.8;stroke-width:1.5;"/>
    <path clip-path="url(#p79a8294101)" d="M 247.944164 145.601624 
L 305.06982 19.708413 
" style="fill:none;stroke:#000000;stroke-opacity:0.8;stroke-width:1.5;"/>
    <path clip-path="url(#p79a8294101)" d="M 299.226695 74.756885 
L 312.654852 51.968106 
" style="fill:none;stroke:#000000;stroke-opacity:0.8;stroke-width:1.5;"/>
    <path clip-path="url(#p79a8294101)" d="M 258.93845 158.204762 
L 305.777675 95.159073 
" style="fill:none;stroke:#000000;stroke-opacity:0.8;stroke-width:1.5;"/>
    <path clip-path="url(#p79a8294101)" d="M 264.838452 163.096261 
L 394.059255 23.119188 
" style="fill:none;stroke:#000000;stroke-opacity:0.8;stroke-width:1.5;"/>
    <path clip-path="url(#p79a8294101)" d="M 326.629112 119.19777 
L 372.75783 78.834408 
" style="fill:none;stroke:#000000;stroke-opacity:0.8;stroke-width:1.5;"/>
    <path clip-path="url(#p79a8294101)" d="M 295.829429 159.926683 
L 387.064186 95.842103 
" style="fill:none;stroke:#000000;stroke-opacity:0.8;stroke-width:1.5;"/>
    <path clip-path="url(#p79a8294101)" d="M 327.39948 154.293332 
L 432 96.352761 
" style="fill:none;stroke:#000000;stroke-opacity:0.8;stroke-width:1.5;"/>
    <path clip-path="url(#p79a8294101)" d="M 282.334462 188.004659 
L 391.665773 141.863224 
" style="fill:none;stroke:#000000;stroke-opacity:0.8;stroke-width:1.5;"/>
    <path clip-path="url(#p79a8294101)" d="M 336.280469 179.73177 
L 432 150.869412 
" style="fill:none;stroke:#000000;stroke-opacity:0.8;stroke-width:1.5;"/>
    <path clip-path="url(#p79a8294101)" d="M 389.208503 183.340897 
L 432 175.272402 
" style="fill:none;stroke:#000000;stroke-opacity:0.8;stroke-width:1.5;"/>
    <path clip-path="url(#p79a8294101)" d="M 363.898274 204.162033 
L 432 198.711084 
" style="fill:none;stroke:#000000;stroke-opacity:0.8;stroke-width:1.5;"/>
    <path clip-path="url(#p79a8294101)" d="M 287.974484 217.916678 
L 425.220449 221.571532 
" style="fill:none;stroke:#000000;stroke-opacity:0.8;stroke-width:1.5;"/>
    <path clip-path="url(#p79a8294101)" d="M 358.341693 235.061012 
L 386.131835 238.782397 
" style="fill:none;stroke:#000000;stroke-opacity:0.8;stroke-width:1.5;"/>
    <path clip-path="url(#p79a8294101)" d="M 285.942952 233.087522 
L 432 268.770218 
" style="fill:none;stroke:#000000;stroke-opacity:0.8;stroke-width:1.5;"/>
    <path clip-path="url(#p79a8294101)" d="M 283.730419 240.425198 
L 405.489883 284.334554 
" style="fill:none;stroke:#000000;stroke-opacity:0.8;stroke-width:1.5;"/>
    <path clip-path="url(#p79a8294101)" d="M 280.750473 247.486127 
L 432 321.034034 
" style="fill:none;stroke:#000000;stroke-opacity:0.8;stroke-width:1.5;"/>
    <path clip-path="url(#p79a8294101)" d="M 277.036879 254.190305 
L 422.486861 345.19724 
" style="fill:none;stroke:#000000;stroke-opacity:0.8;stroke-width:1.5;"/>
    <path clip-path="url(#p79a8294101)" d="M 351.841513 322.649688 
L 376.604882 342.091503 
" style="fill:none;stroke:#000000;stroke-opacity:0.8;stroke-width:1.5;"/>
    <path clip-path="url(#p79a8294101)" d="M 267.584885 266.22947 
L 346.141911 342.722375 
" style="fill:none;stroke:#000000;stroke-opacity:0.8;stroke-width:1.5;"/>
    <path clip-path="url(#p79a8294101)" d="M 292.138496 307.836327 
L 364.741258 395.407942 
" style="fill:none;stroke:#000000;stroke-opacity:0.8;stroke-width:1.5;"/>
    <path clip-path="url(#p79a8294101)" d="M 255.801605 275.998602 
L 363.304218 438.052534 
" style="fill:none;stroke:#000000;stroke-opacity:0.8;stroke-width:1.5;"/>
    <path clip-path="url(#p79a8294101)" d="M 249.19866 279.889349 
L 332.876459 440.923563 
" style="fill:none;stroke:#000000;stroke-opacity:0.8;stroke-width:1.5;"/>
    <path clip-path="url(#p79a8294101)" d="M 262.366324 334.581303 
L 268.654949 350.664383 
" style="fill:none;stroke:#000000;stroke-opacity:0.8;stroke-width:1.5;"/>
    <path clip-path="url(#p79a8294101)" d="M 234.943385 285.463287 
L 258.906543 373.333527 
" style="fill:none;stroke:#000000;stroke-opacity:0.8;stroke-width:1.5;"/>
    <path clip-path="url(#p79a8294101)" d="M 227.452572 287.083322 
L 246.854475 407.506209 
" style="fill:none;stroke:#000000;stroke-opacity:0.8;stroke-width:1.5;"/>
    <path clip-path="url(#p79a8294101)" d="M 221.582833 320.748073 
L 225.787856 399.644951 
" style="fill:none;stroke:#000000;stroke-opacity:0.8;stroke-width:1.5;"/>
    <path clip-path="url(#p79a8294101)" d="M 209.936479 329.766998 
L 202.408623 471.008638 
" style="fill:none;stroke:#000000;stroke-opacity:0.8;stroke-width:1.5;"/>
    <path clip-path="url(#p79a8294101)" d="M 204.547428 287.083322 
L 179.947494 439.769116 
" style="fill:none;stroke:#000000;stroke-opacity:0.8;stroke-width:1.5;"/>
    <path clip-path="url(#p79a8294101)" d="M 170.939693 381.23114 
L 160.55973 419.293309 
" style="fill:none;stroke:#000000;stroke-opacity:0.8;stroke-width:1.5;"/>
    <path clip-path="url(#p79a8294101)" d="M 165.373305 345.477148 
L 162.421955 353.025189 
" style="fill:none;stroke:#000000;stroke-opacity:0.8;stroke-width:1.5;"/>
    <path clip-path="url(#p79a8294101)" d="M 182.80134 279.889349 
L 104.662452 430.264175 
" style="fill:none;stroke:#000000;stroke-opacity:0.8;stroke-width:1.5;"/>
    <path clip-path="url(#p79a8294101)" d="M 144.512008 323.763986 
L 116.074224 366.632291 
" style="fill:none;stroke:#000000;stroke-opacity:0.8;stroke-width:1.5;"/>
    <path clip-path="url(#p79a8294101)" d="M 170.046419 271.428047 
L 118.567155 333.521032 
" style="fill:none;stroke:#000000;stroke-opacity:0.8;stroke-width:1.5;"/>
    <path clip-path="url(#p79a8294101)" d="M 164.415115 266.22947 
L 108.282167 320.887499 
" style="fill:none;stroke:#000000;stroke-opacity:0.8;stroke-width:1.5;"/>
    <path clip-path="url(#p79a8294101)" d="M 159.368288 260.461772 
L 26.497515 364.779121 
" style="fill:none;stroke:#000000;stroke-opacity:0.8;stroke-width:1.5;"/>
    <path clip-path="url(#p79a8294101)" d="M 82.627824 299.449944 
L 1.497222 350.212738 
" style="fill:none;stroke:#000000;stroke-opacity:0.8;stroke-width:1.5;"/>
    <path clip-path="url(#p79a8294101)" d="M 100.648557 272.091794 
L 21.593294 310.533892 
" style="fill:none;stroke:#000000;stroke-opacity:0.8;stroke-width:1.5;"/>
    <path clip-path="url(#p79a8294101)" d="M 47.753699 276.673613 
L 0 293.894732 
" style="fill:none;stroke:#000000;stroke-opacity:0.8;stroke-width:1.5;"/>
    <path clip-path="url(#p79a8294101)" d="M 124.408624 238.376374 
L 23.477648 263.034474 
" style="fill:none;stroke:#000000;stroke-opacity:0.8;stroke-width:1.5;"/>
    <path clip-path="url(#p79a8294101)" d="M 68.524342 235.748503 
L 19.380622 242.329351 
" style="fill:none;stroke:#000000;stroke-opacity:0.8;stroke-width:1.5;"/>
    <path clip-path="url(#p79a8294101)" d="M 144.025516 217.916678 
L 52.586345 220.351699 
" style="fill:none;stroke:#000000;stroke-opacity:0.8;stroke-width:1.5;"/>
    <path clip-path="url(#p79a8294101)" d="M 144.229535 210.2554 
L 61.683905 203.648343 
" style="fill:none;stroke:#000000;stroke-opacity:0.8;stroke-width:1.5;"/>
    <path clip-path="url(#p79a8294101)" d="M 116.18072 197.178706 
L 14.734681 178.05068 
" style="fill:none;stroke:#000000;stroke-opacity:0.8;stroke-width:1.5;"/>
    <path clip-path="url(#p79a8294101)" d="M 126.662219 189.061934 
L 0 150.869412 
" style="fill:none;stroke:#000000;stroke-opacity:0.8;stroke-width:1.5;"/>
    <path clip-path="url(#p79a8294101)" d="M 149.665538 188.004659 
L 0 124.840844 
" style="fill:none;stroke:#000000;stroke-opacity:0.8;stroke-width:1.5;"/>
    <path clip-path="url(#p79a8294101)" d="M 98.982208 151.181223 
L 46.225502 121.958102 
" style="fill:none;stroke:#000000;stroke-opacity:0.8;stroke-width:1.5;"/>
    <path clip-path="url(#p79a8294101)" d="M 103.904223 137.262346 
L 37.44441 90.580035 
" style="fill:none;stroke:#000000;stroke-opacity:0.8;stroke-width:1.5;"/>
    <path clip-path="url(#p79a8294101)" d="M 148.071654 156.561618 
L 102.296285 116.507443 
" style="fill:none;stroke:#000000;stroke-opacity:0.8;stroke-width:1.5;"/>
    <path clip-path="url(#p79a8294101)" d="M 113.113138 104.548891 
L 115.349057 106.970926 
" style="fill:none;stroke:#000000;stroke-opacity:0.8;stroke-width:1.5;"/>
    <path clip-path="url(#p79a8294101)" d="M 173.06155 158.204762 
L 65.343718 13.216349 
" style="fill:none;stroke:#000000;stroke-opacity:0.8;stroke-width:1.5;"/>
    <path clip-path="url(#p79a8294101)" d="M 179.448062 153.968106 
L 88.723239 0 
" style="fill:none;stroke:#000000;stroke-opacity:0.8;stroke-width:1.5;"/>
    <path clip-path="url(#p79a8294101)" d="M 169.819887 114.228517 
L 139.348628 47.076122 
" style="fill:none;stroke:#000000;stroke-opacity:0.8;stroke-width:1.5;"/>
    <path clip-path="url(#p79a8294101)" d="M 164.407684 60.045675 
L 156.278473 35.472529 
" style="fill:none;stroke:#000000;stroke-opacity:0.8;stroke-width:1.5;"/>
    <path clip-path="url(#p79a8294101)" d="M 191.80643 104.132349 
L 181.790715 57.821097 
" style="fill:none;stroke:#000000;stroke-opacity:0.8;stroke-width:1.5;"/>
    <path clip-path="url(#p79a8294101)" d="M 202.107731 86.043154 
L 200.21998 68.38396 
" style="fill:none;stroke:#000000;stroke-opacity:0.8;stroke-width:1.5;"/>
    <path clip-path="url(#p79a8294101)" d="M 288 216 
L 287.6533 223.057234 
L 286.61654 230.046503 
L 284.899704 236.900497 
L 282.519326 243.553207 
L 279.498331 249.940565 
L 275.865812 256.001057 
L 271.656753 261.676316 
L 266.911688 266.911688 
L 261.676316 271.656753 
L 256.001057 275.865812 
L 249.940565 279.498331 
L 243.553207 282.519326 
L 236.900497 284.899704 
L 230.046503 286.61654 
L 223.057234 287.6533 
L 216 288 
L 208.942766 287.6533 
L 201.953497 286.61654 
L 195.099503 284.899704 
L 188.446793 282.519326 
L 182.059435 279.498331 
L 175.998943 275.865812 
L 170.323684 271.656753 
L 165.088312 266.911688 
L 160.343247 261.676316 
L 156.134188 256.001057 
L 152.501669 249.940565 
L 149.480674 243.553207 
L 147.100296 236.900497 
L 145.38346 230.046503 
L 144.3467 223.057234 
L 144 216 
L 144.3467 208.942766 
L 145.38346 201.953497 
L 147.100296 195.099503 
L 149.480674 188.446793 
L 152.501669 182.059435 
L 156.134188 175.998943 
L 160.343247 170.323684 
L 165.088312 165.088312 
L 170.323684 160.343247 
L 175.998943 156.134188 
L 182.059435 152.501669 
L 188.446793 149.480674 
L 195.099503 147.100296 
L 201.953497 145.38346 
L 208.942766 144.3467 
L 216 144 
L 223.057234 144.3467 
L 230.046503 145.38346 
L 236.900497 147.100296 
L 243.553207 149.480674 
L 249.940565 152.501669 
L 256.001057 156.134188 
L 261.676316 160.343247 
L 266.911688 165.088312 
L 271.656753 170.323684 
L 275.865812 175.998943 
L 279.498331 182.059435 
L 282.519326 188.446793 
L 284.899704 195.099503 
L 286.61654 201.953497 
L 287.6533 208.942766 
L 288 216 
L 288 216 
" style="fill:none;stroke:#000000;stroke-opacity:0.8;stroke-width:1.5;"/>
    <path clip-path="url(#p79a8294101)" d="M 187.658809 210.879756 
L 188.045094 209.074449 
L 188.546252 207.297602 
L 189.160223 205.556514 
L 189.884485 203.858341 
L 190.716061 202.210061 
L 191.651534 200.618446 
L 192.68706 199.090037 
L 193.818384 197.631116 
L 195.040857 196.247675 
L 196.349456 194.945402 
L 197.738803 193.729646 
L 199.203189 192.605404 
L 200.736596 191.577295 
L 202.332725 190.649545 
L 203.985015 189.825965 
L 205.686677 189.109939 
L 207.430719 188.504411 
L 209.209974 188.011868 
L 211.017131 187.634334 
L 212.844763 187.373361 
L 214.685361 187.23002 
L 216.531361 187.204902 
L 218.375177 187.298109 
L 220.209234 187.509258 
L 222.025994 187.837482 
L 223.817991 188.281432 
L 225.577863 188.839283 
L 227.298377 189.508744 
L 228.972464 190.287062 
L 230.593245 191.171041 
L 232.154058 192.157047 
L 233.648491 193.241029 
L 235.070403 194.418532 
L 236.41395 195.684719 
L 237.673612 197.034385 
L 238.844212 198.461985 
L 239.920941 199.961652 
L 240.899373 201.527225 
L 241.775488 203.152269 
L 242.545687 204.830107 
L 243.206803 206.553845 
L 243.756121 208.316399 
L 244.191383 210.110526 
L 244.510801 211.928855 
L 244.713062 213.763913 
L 244.797334 215.60816 
L 244.763272 217.454016 
L 244.611016 219.293898 
L 244.341191 221.120244 
" style="fill:none;stroke:#000000;stroke-opacity:0.8;stroke-width:1.5;"/>
    <path clip-path="url(#p79a8294101)" d="M 185.034495 234.361305 
L 183.414475 231.303058 
L 182.095604 228.103384 
L 181.090068 224.791853 
L 180.407163 221.399069 
L 180.053198 217.956389 
L 180.031446 214.495628 
L 180.342107 211.04877 
L 180.98231 207.64767 
L 181.946139 204.323761 
L 183.224686 201.107761 
L 184.806135 198.029391 
L 186.67587 195.117102 
L 188.816613 192.397808 
L 191.208578 189.89664 
L 193.82966 187.636713 
L 196.655635 185.638914 
L 199.660387 183.921704 
L 202.816145 182.500956 
L 206.093746 181.389797 
L 209.462898 180.598499 
L 212.892465 180.134373 
L 216.35075 180.001709 
L 219.805794 180.201733 
L 223.225666 180.732597 
L 226.57876 181.589394 
L 229.834087 182.764206 
L 232.961563 184.246175 
L 235.932284 186.021607 
L 238.718795 188.074092 
L 241.295344 190.384662 
L 243.63812 192.931963 
L 245.72547 195.692453 
L 247.538104 198.640622 
L 249.05927 201.749222 
L 250.27491 204.989524 
L 251.173788 208.331583 
L 251.747599 211.744511 
L 251.991038 215.196768 
L 251.901856 218.656448 
L 251.480878 222.091578 
L 250.731993 225.470411 
L 249.662123 228.76172 
L 248.281155 231.935088 
L 246.601852 234.961188 
L 244.639734 237.812053 
L 242.412933 240.461336 
L 239.942031 242.884553 
L 237.249861 245.059308 
L 234.361305 246.965505 
" style="fill:none;stroke:#000000;stroke-opacity:0.8;stroke-width:1.5;"/>
    <path clip-path="url(#p79a8294101)" d="M 179.104255 193.529041 
L 180.61978 191.211292 
L 182.280691 188.995404 
L 184.080161 186.890484 
L 186.010797 184.905182 
L 188.064665 183.047655 
L 190.233325 181.325536 
L 192.507866 179.745902 
L 194.878941 178.315243 
L 197.336807 177.03944 
L 199.871365 175.923734 
L 202.472198 174.97271 
L 205.12862 174.190275 
L 207.829714 173.579646 
L 210.564382 173.143331 
L 213.321387 172.883124 
L 216.089398 172.800092 
L 218.857042 172.894579 
L 221.612945 173.166195 
L 224.345784 173.613824 
L 227.044329 174.235628 
L 229.697489 175.02905 
L 232.294364 175.99083 
L 234.824282 177.117017 
L 237.276847 178.402982 
L 239.641981 179.843441 
L 241.909964 181.432475 
L 244.071478 183.163555 
L 246.117641 185.029567 
L 248.040043 187.022843 
L 249.830786 189.135192 
L 251.482512 191.357935 
L 252.988431 193.681937 
L 254.342358 196.097649 
L 255.538728 198.595144 
L 256.572624 201.164159 
L 257.439799 203.794137 
L 258.136689 206.474273 
L 258.66043 209.193551 
L 259.00887 211.940799 
L 259.180577 214.704727 
L 259.174847 217.473977 
L 258.991701 220.237171 
L 258.631894 222.982953 
L 258.096903 225.70004 
L 257.388926 228.377268 
L 256.510874 231.003636 
L 255.466354 233.56835 
L 254.259658 236.060871 
L 252.895745 238.470959 
" style="fill:none;stroke:#000000;stroke-opacity:0.8;stroke-width:1.5;"/>
    <path clip-path="url(#p79a8294101)" d="M 264.102646 231.043121 
L 263.039997 234.09416 
L 261.784052 237.070847 
L 260.33997 239.960949 
L 258.713685 242.75259 
L 256.911881 245.434299 
L 254.941961 247.995057 
L 252.81202 250.424339 
L 250.530811 252.712165 
L 248.107707 254.849133 
L 245.552666 256.826461 
L 242.876187 258.636024 
L 240.089267 260.270387 
L 237.20336 261.722834 
L 234.230323 262.987395 
L 231.182374 264.058875 
L 228.072038 264.932871 
L 224.912095 265.605792 
L 221.71553 266.074871 
L 218.495479 266.338182 
L 215.265173 266.394643 
L 212.037887 266.244021 
L 208.826882 265.886936 
L 205.645353 265.324855 
L 202.506374 264.560087 
L 199.422842 263.595775 
L 196.40743 262.435883 
L 193.472528 261.085175 
L 190.630196 259.549202 
L 187.892114 257.834277 
L 185.269533 255.947446 
L 182.773231 253.896461 
L 180.413464 251.689753 
L 178.19993 249.336387 
L 176.141725 246.846035 
L 174.247305 244.22893 
L 172.524457 241.495826 
L 170.980259 238.657955 
L 169.621057 235.726977 
L 168.452435 232.714937 
L 167.479197 229.634211 
L 166.705342 226.49746 
L 166.134048 223.317572 
L 165.767665 220.107615 
L 165.607697 216.880778 
L 165.654801 213.650323 
L 165.908785 210.429523 
L 166.368605 207.231613 
L 167.03237 204.069734 
L 167.897354 200.956879 
" style="fill:none;stroke:#000000;stroke-opacity:0.8;stroke-width:1.5;"/>
    <path clip-path="url(#p79a8294101)" d="M 206.243033 159.23239 
L 211.739117 158.557813 
L 217.274578 158.414104 
L 222.798261 158.802591 
L 228.259115 159.719683 
L 233.606673 161.156905 
L 238.791515 163.100975 
L 243.765722 165.533926 
L 248.483325 168.433272 
L 252.900725 171.77222 
L 256.977096 175.519911 
L 260.674766 179.641709 
L 263.959562 184.099523 
L 266.801127 188.852154 
L 269.173199 193.855679 
L 271.053856 199.063857 
L 272.425718 204.428555 
L 273.276106 209.900193 
L 273.597162 215.428205 
L 273.385917 220.961501 
L 272.644325 226.448944 
L 271.379239 231.83982 
L 269.60235 237.084308 
L 267.330081 242.133939 
L 264.58343 246.942047 
L 261.387783 251.464195 
L 257.772672 255.658592 
L 253.771507 259.486472 
L 249.421266 262.91246 
L 244.762154 265.904894 
L 239.837229 268.436119 
L 234.692005 270.48274 
L 229.374033 272.025844 
L 223.932462 273.05117 
L 218.417581 273.549242 
L 212.880358 273.515457 
L 207.371965 272.950127 
L 201.943311 271.858477 
L 196.644565 270.250596 
L 191.524698 268.141342 
L 186.631026 265.550211 
L 182.008776 262.501147 
L 177.700664 259.02233 
L 173.746507 255.145911 
L 170.182847 250.907714 
L 167.042618 246.346907 
L 164.354843 241.505642 
L 162.144361 236.428659 
L 160.4316 231.162879 
L 159.23239 225.756967 
" style="fill:none;stroke:#000000;stroke-opacity:0.8;stroke-width:1.5;"/>
    <path clip-path="url(#p79a8294101)" d="M 154.208843 235.516477 
L 153.085374 231.517405 
L 152.220435 227.454569 
L 151.617581 223.344663 
L 151.279287 219.204577 
L 151.206945 215.051323 
L 151.400851 210.901967 
L 151.860209 206.773559 
L 152.583131 202.683066 
L 153.566647 198.647294 
L 154.806714 194.682828 
L 156.298239 190.805959 
L 158.03509 187.032618 
L 160.010132 183.37831 
L 162.215248 179.858052 
L 164.641377 176.486309 
L 167.278549 173.276935 
L 170.115929 170.24312 
L 173.141856 167.39733 
L 176.343896 164.751259 
L 179.708892 162.31578 
L 183.223016 160.100901 
L 186.871828 158.115723 
L 190.640333 156.368404 
L 194.513046 154.866124 
L 198.474055 153.615056 
L 202.507081 152.620341 
L 206.595552 151.886067 
L 210.722668 151.415251 
L 214.87147 151.209828 
L 219.024909 151.270641 
L 223.165919 151.597441 
L 227.277482 152.188885 
L 231.342703 153.042542 
L 235.344878 154.154906 
L 239.267561 155.521404 
L 243.094632 157.136421 
L 246.810366 158.993322 
L 250.399493 161.084475 
L 253.847265 163.401288 
L 257.139515 165.93424 
L 260.262714 168.672923 
L 263.204027 171.606084 
L 265.95137 174.721668 
L 268.493451 178.006874 
L 270.819825 181.448202 
L 272.920933 185.031511 
L 274.788141 188.742075 
L 276.413776 192.564649 
L 277.791157 196.483523 
" style="fill:none;stroke:#000000;stroke-opacity:0.8;stroke-width:1.5;"/>
   </g>
  </g>
 </g>
 <defs>
  <clipPath id="p79a8294101">
   <rect height="576" width="432" x="0" y="0"/>
  </clipPath>
 </defs>
</svg>
