<?xml version="1.0" encoding="utf-8" standalone="no"?>
<!DOCTYPE svg PUBLIC "-//W3C//DTD SVG 1.1//EN"
  "http://www.w3.org/Graphics/SVG/1.1/DTD/svg11.dtd">
<!-- Created with matplotlib (https://matplotlib.org/) -->
<svg height="504pt" version="1.1" viewBox="0 0 360 504" width="360pt" xmlns="http://www.w3.org/2000/svg" xmlns:xlink="http://www.w3.org/1999/xlink">
 <metadata>
  <rdf:RDF xmlns:cc="http://creativecommons.org/ns#" xmlns:dc="http://purl.org/dc/elements/1.1/" xmlns:rdf="http://www.w3.org/1999/02/22-rdf-syntax-ns#">
   <cc:Work>
    <dc:type rdf:resource="http://purl.org/dc/dcmitype/StillImage"/>
    <dc:date>2020-11-10T13:54:58.777600</dc:date>
    <dc:format>image/svg+xml</dc:format>
    <dc:creator>
     <cc:Agent>
      <dc:title>Matplotlib v3.3.2, https://matplotlib.org/</dc:title>
     </cc:Agent>
    </dc:creator>
   </cc:Work>
  </rdf:RDF>
 </metadata>
 <defs>
  <style type="text/css">*{stroke-linecap:butt;stroke-linejoin:round;}</style>
 </defs>
 <g id="figure_1">
  <g id="axes_1">
   <g id="LineCollection_1">
    <path clip-path="url(#p3d863ae6ee)" d="M 51.428571 432 
L 308.571429 432 
" style="fill:none;stroke:#000000;stroke-opacity:0.8;stroke-width:1.417324;"/>
    <path clip-path="url(#p3d863ae6ee)" d="M 308.571429 429.12 
L 51.428571 429.12 
" style="fill:none;stroke:#000000;stroke-opacity:0.8;stroke-width:1.417324;"/>
    <path clip-path="url(#p3d863ae6ee)" d="M 51.428571 426.24 
L 308.571429 426.24 
" style="fill:none;stroke:#000000;stroke-opacity:0.8;stroke-width:1.417324;"/>
    <path clip-path="url(#p3d863ae6ee)" d="M 308.571429 423.36 
L 51.428571 423.36 
" style="fill:none;stroke:#000000;stroke-opacity:0.8;stroke-width:1.417324;"/>
    <path clip-path="url(#p3d863ae6ee)" d="M 51.428571 420.48 
L 308.571429 420.48 
" style="fill:none;stroke:#000000;stroke-opacity:0.8;stroke-width:1.417324;"/>
    <path clip-path="url(#p3d863ae6ee)" d="M 308.571429 417.6 
L 51.428571 417.6 
" style="fill:none;stroke:#000000;stroke-opacity:0.8;stroke-width:1.417324;"/>
    <path clip-path="url(#p3d863ae6ee)" d="M 51.428571 414.72 
L 308.571429 414.72 
" style="fill:none;stroke:#000000;stroke-opacity:0.8;stroke-width:1.417324;"/>
    <path clip-path="url(#p3d863ae6ee)" d="M 308.571429 411.84 
L 51.428571 411.84 
" style="fill:none;stroke:#000000;stroke-opacity:0.8;stroke-width:1.417324;"/>
    <path clip-path="url(#p3d863ae6ee)" d="M 51.428571 408.96 
L 308.571429 408.96 
" style="fill:none;stroke:#000000;stroke-opacity:0.8;stroke-width:1.417324;"/>
    <path clip-path="url(#p3d863ae6ee)" d="M 308.571429 406.08 
L 51.428571 406.08 
" style="fill:none;stroke:#000000;stroke-opacity:0.8;stroke-width:1.417324;"/>
    <path clip-path="url(#p3d863ae6ee)" d="M 51.428571 403.2 
L 308.571429 403.2 
" style="fill:none;stroke:#000000;stroke-opacity:0.8;stroke-width:1.417324;"/>
    <path clip-path="url(#p3d863ae6ee)" d="M 308.571429 400.32 
L 51.428571 400.32 
" style="fill:none;stroke:#000000;stroke-opacity:0.8;stroke-width:1.417324;"/>
    <path clip-path="url(#p3d863ae6ee)" d="M 51.428571 397.44 
L 308.571429 397.44 
" style="fill:none;stroke:#000000;stroke-opacity:0.8;stroke-width:1.417324;"/>
    <path clip-path="url(#p3d863ae6ee)" d="M 308.571429 394.56 
L 51.428571 394.56 
" style="fill:none;stroke:#000000;stroke-opacity:0.8;stroke-width:1.417324;"/>
    <path clip-path="url(#p3d863ae6ee)" d="M 51.428571 391.68 
L 308.571429 391.68 
" style="fill:none;stroke:#000000;stroke-opacity:0.8;stroke-width:1.417324;"/>
    <path clip-path="url(#p3d863ae6ee)" d="M 308.571429 388.8 
L 51.428571 388.8 
" style="fill:none;stroke:#000000;stroke-opacity:0.8;stroke-width:1.417324;"/>
    <path clip-path="url(#p3d863ae6ee)" d="M 51.428571 385.92 
L 308.571429 385.92 
" style="fill:none;stroke:#000000;stroke-opacity:0.8;stroke-width:1.417324;"/>
    <path clip-path="url(#p3d863ae6ee)" d="M 51.428571 432 
L 308.571429 432 
L 51.428571 432 
L 308.571429 432 
L 51.428571 432 
" style="fill:none;stroke:#000000;stroke-opacity:0.8;stroke-width:1.417324;"/>
    <path clip-path="url(#p3d863ae6ee)" d="M 51.428571 426.24 
L 308.571429 426.24 
L 51.428571 426.24 
L 308.571429 426.24 
L 51.428571 426.24 
" style="fill:none;stroke:#000000;stroke-opacity:0.8;stroke-width:1.417324;"/>
    <path clip-path="url(#p3d863ae6ee)" d="M 51.428571 420.48 
L 308.571429 420.48 
L 51.428571 420.48 
L 308.571429 420.48 
L 51.428571 420.48 
" style="fill:none;stroke:#000000;stroke-opacity:0.8;stroke-width:1.417324;"/>
    <path clip-path="url(#p3d863ae6ee)" d="M 51.428571 414.72 
L 308.571429 414.72 
L 51.428571 414.72 
L 308.571429 414.72 
L 51.428571 414.72 
" style="fill:none;stroke:#000000;stroke-opacity:0.8;stroke-width:1.417324;"/>
    <path clip-path="url(#p3d863ae6ee)" d="M 51.428571 408.96 
L 308.571429 408.96 
L 51.428571 408.96 
L 308.571429 408.96 
L 51.428571 408.96 
" style="fill:none;stroke:#000000;stroke-opacity:0.8;stroke-width:1.417324;"/>
    <path clip-path="url(#p3d863ae6ee)" d="M 51.428571 403.2 
L 308.571429 403.2 
L 51.428571 403.2 
L 308.571429 403.2 
L 51.428571 403.2 
" style="fill:none;stroke:#000000;stroke-opacity:0.8;stroke-width:1.417324;"/>
    <path clip-path="url(#p3d863ae6ee)" d="M 51.428571 397.44 
L 308.571429 397.44 
L 51.428571 397.44 
L 308.571429 397.44 
L 51.428571 397.44 
" style="fill:none;stroke:#000000;stroke-opacity:0.8;stroke-width:1.417324;"/>
    <path clip-path="url(#p3d863ae6ee)" d="M 51.428571 391.68 
L 308.571429 391.68 
L 51.428571 391.68 
L 308.571429 391.68 
L 51.428571 391.68 
" style="fill:none;stroke:#000000;stroke-opacity:0.8;stroke-width:1.417324;"/>
    <path clip-path="url(#p3d863ae6ee)" d="M 51.428571 385.92 
L 308.571429 385.92 
L 51.428571 385.92 
L 308.571429 385.92 
L 51.428571 385.92 
" style="fill:none;stroke:#000000;stroke-opacity:0.8;stroke-width:1.417324;"/>
    <path clip-path="url(#p3d863ae6ee)" d="M 51.428571 432 
L 51.428571 385.2 
" style="fill:none;stroke:#000000;stroke-opacity:0.8;stroke-width:1.417324;"/>
    <path clip-path="url(#p3d863ae6ee)" d="M 308.571429 385.2 
L 308.571429 432 
" style="fill:none;stroke:#000000;stroke-opacity:0.8;stroke-width:1.417324;"/>
    <path clip-path="url(#p3d863ae6ee)" d="M 51.428571 353.7 
L 308.571429 353.7 
" style="fill:none;stroke:#000000;stroke-opacity:0.8;stroke-width:1.417324;"/>
    <path clip-path="url(#p3d863ae6ee)" d="M 308.571429 350.82 
L 51.428571 350.82 
" style="fill:none;stroke:#000000;stroke-opacity:0.8;stroke-width:1.417324;"/>
    <path clip-path="url(#p3d863ae6ee)" d="M 51.428571 347.94 
L 308.571429 347.94 
" style="fill:none;stroke:#000000;stroke-opacity:0.8;stroke-width:1.417324;"/>
    <path clip-path="url(#p3d863ae6ee)" d="M 308.571429 345.06 
L 51.428571 345.06 
" style="fill:none;stroke:#000000;stroke-opacity:0.8;stroke-width:1.417324;"/>
    <path clip-path="url(#p3d863ae6ee)" d="M 51.428571 342.18 
L 308.571429 342.18 
" style="fill:none;stroke:#000000;stroke-opacity:0.8;stroke-width:1.417324;"/>
    <path clip-path="url(#p3d863ae6ee)" d="M 308.571429 339.3 
L 51.428571 339.3 
" style="fill:none;stroke:#000000;stroke-opacity:0.8;stroke-width:1.417324;"/>
    <path clip-path="url(#p3d863ae6ee)" d="M 51.428571 336.42 
L 308.571429 336.42 
" style="fill:none;stroke:#000000;stroke-opacity:0.8;stroke-width:1.417324;"/>
    <path clip-path="url(#p3d863ae6ee)" d="M 308.571429 333.54 
L 51.428571 333.54 
" style="fill:none;stroke:#000000;stroke-opacity:0.8;stroke-width:1.417324;"/>
    <path clip-path="url(#p3d863ae6ee)" d="M 51.428571 330.66 
L 308.571429 330.66 
" style="fill:none;stroke:#000000;stroke-opacity:0.8;stroke-width:1.417324;"/>
    <path clip-path="url(#p3d863ae6ee)" d="M 308.571429 327.78 
L 51.428571 327.78 
" style="fill:none;stroke:#000000;stroke-opacity:0.8;stroke-width:1.417324;"/>
    <path clip-path="url(#p3d863ae6ee)" d="M 51.428571 324.9 
L 308.571429 324.9 
" style="fill:none;stroke:#000000;stroke-opacity:0.8;stroke-width:1.417324;"/>
    <path clip-path="url(#p3d863ae6ee)" d="M 308.571429 322.02 
L 51.428571 322.02 
" style="fill:none;stroke:#000000;stroke-opacity:0.8;stroke-width:1.417324;"/>
    <path clip-path="url(#p3d863ae6ee)" d="M 51.428571 319.14 
L 308.571429 319.14 
" style="fill:none;stroke:#000000;stroke-opacity:0.8;stroke-width:1.417324;"/>
    <path clip-path="url(#p3d863ae6ee)" d="M 308.571429 316.26 
L 51.428571 316.26 
" style="fill:none;stroke:#000000;stroke-opacity:0.8;stroke-width:1.417324;"/>
    <path clip-path="url(#p3d863ae6ee)" d="M 51.428571 313.38 
L 308.571429 313.38 
" style="fill:none;stroke:#000000;stroke-opacity:0.8;stroke-width:1.417324;"/>
    <path clip-path="url(#p3d863ae6ee)" d="M 308.571429 310.5 
L 51.428571 310.5 
" style="fill:none;stroke:#000000;stroke-opacity:0.8;stroke-width:1.417324;"/>
    <path clip-path="url(#p3d863ae6ee)" d="M 51.428571 307.62 
L 308.571429 307.62 
" style="fill:none;stroke:#000000;stroke-opacity:0.8;stroke-width:1.417324;"/>
    <path clip-path="url(#p3d863ae6ee)" d="M 51.428571 353.7 
L 308.571429 353.7 
L 51.428571 353.7 
L 308.571429 353.7 
L 51.428571 353.7 
" style="fill:none;stroke:#000000;stroke-opacity:0.8;stroke-width:1.417324;"/>
    <path clip-path="url(#p3d863ae6ee)" d="M 51.428571 347.94 
L 308.571429 347.94 
L 51.428571 347.94 
L 308.571429 347.94 
L 51.428571 347.94 
" style="fill:none;stroke:#000000;stroke-opacity:0.8;stroke-width:1.417324;"/>
    <path clip-path="url(#p3d863ae6ee)" d="M 51.428571 342.18 
L 308.571429 342.18 
L 51.428571 342.18 
L 308.571429 342.18 
L 51.428571 342.18 
" style="fill:none;stroke:#000000;stroke-opacity:0.8;stroke-width:1.417324;"/>
    <path clip-path="url(#p3d863ae6ee)" d="M 51.428571 336.42 
L 308.571429 336.42 
L 51.428571 336.42 
L 308.571429 336.42 
L 51.428571 336.42 
" style="fill:none;stroke:#000000;stroke-opacity:0.8;stroke-width:1.417324;"/>
    <path clip-path="url(#p3d863ae6ee)" d="M 51.428571 330.66 
L 308.571429 330.66 
L 51.428571 330.66 
L 308.571429 330.66 
L 51.428571 330.66 
" style="fill:none;stroke:#000000;stroke-opacity:0.8;stroke-width:1.417324;"/>
    <path clip-path="url(#p3d863ae6ee)" d="M 51.428571 324.9 
L 308.571429 324.9 
L 51.428571 324.9 
L 308.571429 324.9 
L 51.428571 324.9 
" style="fill:none;stroke:#000000;stroke-opacity:0.8;stroke-width:1.417324;"/>
    <path clip-path="url(#p3d863ae6ee)" d="M 51.428571 319.14 
L 308.571429 319.14 
L 51.428571 319.14 
L 308.571429 319.14 
L 51.428571 319.14 
" style="fill:none;stroke:#000000;stroke-opacity:0.8;stroke-width:1.417324;"/>
    <path clip-path="url(#p3d863ae6ee)" d="M 51.428571 313.38 
L 308.571429 313.38 
L 51.428571 313.38 
L 308.571429 313.38 
L 51.428571 313.38 
" style="fill:none;stroke:#000000;stroke-opacity:0.8;stroke-width:1.417324;"/>
    <path clip-path="url(#p3d863ae6ee)" d="M 51.428571 307.62 
L 308.571429 307.62 
L 51.428571 307.62 
L 308.571429 307.62 
L 51.428571 307.62 
" style="fill:none;stroke:#000000;stroke-opacity:0.8;stroke-width:1.417324;"/>
    <path clip-path="url(#p3d863ae6ee)" d="M 51.428571 353.7 
L 51.428571 306.9 
" style="fill:none;stroke:#000000;stroke-opacity:0.8;stroke-width:1.417324;"/>
    <path clip-path="url(#p3d863ae6ee)" d="M 308.571429 306.9 
L 308.571429 353.7 
" style="fill:none;stroke:#000000;stroke-opacity:0.8;stroke-width:1.417324;"/>
    <path clip-path="url(#p3d863ae6ee)" d="M 51.428571 275.4 
L 308.571429 275.4 
" style="fill:none;stroke:#000000;stroke-opacity:0.8;stroke-width:1.417324;"/>
    <path clip-path="url(#p3d863ae6ee)" d="M 308.571429 272.52 
L 51.428571 272.52 
" style="fill:none;stroke:#000000;stroke-opacity:0.8;stroke-width:1.417324;"/>
    <path clip-path="url(#p3d863ae6ee)" d="M 51.428571 269.64 
L 308.571429 269.64 
" style="fill:none;stroke:#000000;stroke-opacity:0.8;stroke-width:1.417324;"/>
    <path clip-path="url(#p3d863ae6ee)" d="M 308.571429 266.76 
L 51.428571 266.76 
" style="fill:none;stroke:#000000;stroke-opacity:0.8;stroke-width:1.417324;"/>
    <path clip-path="url(#p3d863ae6ee)" d="M 51.428571 263.88 
L 308.571429 263.88 
" style="fill:none;stroke:#000000;stroke-opacity:0.8;stroke-width:1.417324;"/>
    <path clip-path="url(#p3d863ae6ee)" d="M 308.571429 261 
L 51.428571 261 
" style="fill:none;stroke:#000000;stroke-opacity:0.8;stroke-width:1.417324;"/>
    <path clip-path="url(#p3d863ae6ee)" d="M 51.428571 258.12 
L 308.571429 258.12 
" style="fill:none;stroke:#000000;stroke-opacity:0.8;stroke-width:1.417324;"/>
    <path clip-path="url(#p3d863ae6ee)" d="M 308.571429 255.24 
L 51.428571 255.24 
" style="fill:none;stroke:#000000;stroke-opacity:0.8;stroke-width:1.417324;"/>
    <path clip-path="url(#p3d863ae6ee)" d="M 51.428571 252.36 
L 308.571429 252.36 
" style="fill:none;stroke:#000000;stroke-opacity:0.8;stroke-width:1.417324;"/>
    <path clip-path="url(#p3d863ae6ee)" d="M 308.571429 249.48 
L 51.428571 249.48 
" style="fill:none;stroke:#000000;stroke-opacity:0.8;stroke-width:1.417324;"/>
    <path clip-path="url(#p3d863ae6ee)" d="M 51.428571 246.6 
L 308.571429 246.6 
" style="fill:none;stroke:#000000;stroke-opacity:0.8;stroke-width:1.417324;"/>
    <path clip-path="url(#p3d863ae6ee)" d="M 308.571429 243.72 
L 51.428571 243.72 
" style="fill:none;stroke:#000000;stroke-opacity:0.8;stroke-width:1.417324;"/>
    <path clip-path="url(#p3d863ae6ee)" d="M 51.428571 240.84 
L 308.571429 240.84 
" style="fill:none;stroke:#000000;stroke-opacity:0.8;stroke-width:1.417324;"/>
    <path clip-path="url(#p3d863ae6ee)" d="M 308.571429 237.96 
L 51.428571 237.96 
" style="fill:none;stroke:#000000;stroke-opacity:0.8;stroke-width:1.417324;"/>
    <path clip-path="url(#p3d863ae6ee)" d="M 51.428571 235.08 
L 308.571429 235.08 
" style="fill:none;stroke:#000000;stroke-opacity:0.8;stroke-width:1.417324;"/>
    <path clip-path="url(#p3d863ae6ee)" d="M 308.571429 232.2 
L 51.428571 232.2 
" style="fill:none;stroke:#000000;stroke-opacity:0.8;stroke-width:1.417324;"/>
    <path clip-path="url(#p3d863ae6ee)" d="M 51.428571 229.32 
L 308.571429 229.32 
" style="fill:none;stroke:#000000;stroke-opacity:0.8;stroke-width:1.417324;"/>
    <path clip-path="url(#p3d863ae6ee)" d="M 51.428571 275.4 
L 308.571429 275.4 
L 51.428571 275.4 
L 308.571429 275.4 
L 51.428571 275.4 
" style="fill:none;stroke:#000000;stroke-opacity:0.8;stroke-width:1.417324;"/>
    <path clip-path="url(#p3d863ae6ee)" d="M 51.428571 269.64 
L 308.571429 269.64 
L 51.428571 269.64 
L 308.571429 269.64 
L 51.428571 269.64 
" style="fill:none;stroke:#000000;stroke-opacity:0.8;stroke-width:1.417324;"/>
    <path clip-path="url(#p3d863ae6ee)" d="M 51.428571 263.88 
L 308.571429 263.88 
L 51.428571 263.88 
L 308.571429 263.88 
L 51.428571 263.88 
" style="fill:none;stroke:#000000;stroke-opacity:0.8;stroke-width:1.417324;"/>
    <path clip-path="url(#p3d863ae6ee)" d="M 51.428571 258.12 
L 308.571429 258.12 
L 51.428571 258.12 
L 308.571429 258.12 
L 51.428571 258.12 
" style="fill:none;stroke:#000000;stroke-opacity:0.8;stroke-width:1.417324;"/>
    <path clip-path="url(#p3d863ae6ee)" d="M 51.428571 252.36 
L 308.571429 252.36 
L 51.428571 252.36 
L 308.571429 252.36 
L 51.428571 252.36 
" style="fill:none;stroke:#000000;stroke-opacity:0.8;stroke-width:1.417324;"/>
    <path clip-path="url(#p3d863ae6ee)" d="M 51.428571 246.6 
L 308.571429 246.6 
L 51.428571 246.6 
L 308.571429 246.6 
L 51.428571 246.6 
" style="fill:none;stroke:#000000;stroke-opacity:0.8;stroke-width:1.417324;"/>
    <path clip-path="url(#p3d863ae6ee)" d="M 51.428571 240.84 
L 308.571429 240.84 
L 51.428571 240.84 
L 308.571429 240.84 
L 51.428571 240.84 
" style="fill:none;stroke:#000000;stroke-opacity:0.8;stroke-width:1.417324;"/>
    <path clip-path="url(#p3d863ae6ee)" d="M 51.428571 235.08 
L 308.571429 235.08 
L 51.428571 235.08 
L 308.571429 235.08 
L 51.428571 235.08 
" style="fill:none;stroke:#000000;stroke-opacity:0.8;stroke-width:1.417324;"/>
    <path clip-path="url(#p3d863ae6ee)" d="M 51.428571 229.32 
L 308.571429 229.32 
L 51.428571 229.32 
L 308.571429 229.32 
L 51.428571 229.32 
" style="fill:none;stroke:#000000;stroke-opacity:0.8;stroke-width:1.417324;"/>
    <path clip-path="url(#p3d863ae6ee)" d="M 51.428571 275.4 
L 51.428571 228.6 
" style="fill:none;stroke:#000000;stroke-opacity:0.8;stroke-width:1.417324;"/>
    <path clip-path="url(#p3d863ae6ee)" d="M 308.571429 228.6 
L 308.571429 275.4 
" style="fill:none;stroke:#000000;stroke-opacity:0.8;stroke-width:1.417324;"/>
    <path clip-path="url(#p3d863ae6ee)" d="M 51.428571 197.1 
L 308.571429 197.1 
" style="fill:none;stroke:#000000;stroke-opacity:0.8;stroke-width:1.417324;"/>
    <path clip-path="url(#p3d863ae6ee)" d="M 308.571429 194.22 
L 51.428571 194.22 
" style="fill:none;stroke:#000000;stroke-opacity:0.8;stroke-width:1.417324;"/>
    <path clip-path="url(#p3d863ae6ee)" d="M 51.428571 191.34 
L 308.571429 191.34 
" style="fill:none;stroke:#000000;stroke-opacity:0.8;stroke-width:1.417324;"/>
    <path clip-path="url(#p3d863ae6ee)" d="M 308.571429 188.46 
L 51.428571 188.46 
" style="fill:none;stroke:#000000;stroke-opacity:0.8;stroke-width:1.417324;"/>
    <path clip-path="url(#p3d863ae6ee)" d="M 51.428571 185.58 
L 308.571429 185.58 
" style="fill:none;stroke:#000000;stroke-opacity:0.8;stroke-width:1.417324;"/>
    <path clip-path="url(#p3d863ae6ee)" d="M 308.571429 182.7 
L 51.428571 182.7 
" style="fill:none;stroke:#000000;stroke-opacity:0.8;stroke-width:1.417324;"/>
    <path clip-path="url(#p3d863ae6ee)" d="M 51.428571 179.82 
L 308.571429 179.82 
" style="fill:none;stroke:#000000;stroke-opacity:0.8;stroke-width:1.417324;"/>
    <path clip-path="url(#p3d863ae6ee)" d="M 308.571429 176.94 
L 51.428571 176.94 
" style="fill:none;stroke:#000000;stroke-opacity:0.8;stroke-width:1.417324;"/>
    <path clip-path="url(#p3d863ae6ee)" d="M 51.428571 174.06 
L 308.571429 174.06 
" style="fill:none;stroke:#000000;stroke-opacity:0.8;stroke-width:1.417324;"/>
    <path clip-path="url(#p3d863ae6ee)" d="M 308.571429 171.18 
L 51.428571 171.18 
" style="fill:none;stroke:#000000;stroke-opacity:0.8;stroke-width:1.417324;"/>
    <path clip-path="url(#p3d863ae6ee)" d="M 51.428571 168.3 
L 308.571429 168.3 
" style="fill:none;stroke:#000000;stroke-opacity:0.8;stroke-width:1.417324;"/>
    <path clip-path="url(#p3d863ae6ee)" d="M 308.571429 165.42 
L 51.428571 165.42 
" style="fill:none;stroke:#000000;stroke-opacity:0.8;stroke-width:1.417324;"/>
    <path clip-path="url(#p3d863ae6ee)" d="M 51.428571 162.54 
L 308.571429 162.54 
" style="fill:none;stroke:#000000;stroke-opacity:0.8;stroke-width:1.417324;"/>
    <path clip-path="url(#p3d863ae6ee)" d="M 308.571429 159.66 
L 51.428571 159.66 
" style="fill:none;stroke:#000000;stroke-opacity:0.8;stroke-width:1.417324;"/>
    <path clip-path="url(#p3d863ae6ee)" d="M 51.428571 156.78 
L 308.571429 156.78 
" style="fill:none;stroke:#000000;stroke-opacity:0.8;stroke-width:1.417324;"/>
    <path clip-path="url(#p3d863ae6ee)" d="M 308.571429 153.9 
L 51.428571 153.9 
" style="fill:none;stroke:#000000;stroke-opacity:0.8;stroke-width:1.417324;"/>
    <path clip-path="url(#p3d863ae6ee)" d="M 51.428571 151.02 
L 308.571429 151.02 
" style="fill:none;stroke:#000000;stroke-opacity:0.8;stroke-width:1.417324;"/>
    <path clip-path="url(#p3d863ae6ee)" d="M 51.428571 197.1 
L 308.571429 197.1 
L 51.428571 197.1 
L 308.571429 197.1 
L 51.428571 197.1 
" style="fill:none;stroke:#000000;stroke-opacity:0.8;stroke-width:1.417324;"/>
    <path clip-path="url(#p3d863ae6ee)" d="M 51.428571 191.34 
L 308.571429 191.34 
L 51.428571 191.34 
L 308.571429 191.34 
L 51.428571 191.34 
" style="fill:none;stroke:#000000;stroke-opacity:0.8;stroke-width:1.417324;"/>
    <path clip-path="url(#p3d863ae6ee)" d="M 51.428571 185.58 
L 308.571429 185.58 
L 51.428571 185.58 
L 308.571429 185.58 
L 51.428571 185.58 
" style="fill:none;stroke:#000000;stroke-opacity:0.8;stroke-width:1.417324;"/>
    <path clip-path="url(#p3d863ae6ee)" d="M 51.428571 179.82 
L 308.571429 179.82 
L 51.428571 179.82 
L 308.571429 179.82 
L 51.428571 179.82 
" style="fill:none;stroke:#000000;stroke-opacity:0.8;stroke-width:1.417324;"/>
    <path clip-path="url(#p3d863ae6ee)" d="M 51.428571 174.06 
L 308.571429 174.06 
L 51.428571 174.06 
L 308.571429 174.06 
L 51.428571 174.06 
" style="fill:none;stroke:#000000;stroke-opacity:0.8;stroke-width:1.417324;"/>
    <path clip-path="url(#p3d863ae6ee)" d="M 51.428571 168.3 
L 308.571429 168.3 
L 51.428571 168.3 
L 308.571429 168.3 
L 51.428571 168.3 
" style="fill:none;stroke:#000000;stroke-opacity:0.8;stroke-width:1.417324;"/>
    <path clip-path="url(#p3d863ae6ee)" d="M 51.428571 162.54 
L 308.571429 162.54 
L 51.428571 162.54 
L 308.571429 162.54 
L 51.428571 162.54 
" style="fill:none;stroke:#000000;stroke-opacity:0.8;stroke-width:1.417324;"/>
    <path clip-path="url(#p3d863ae6ee)" d="M 51.428571 156.78 
L 308.571429 156.78 
L 51.428571 156.78 
L 308.571429 156.78 
L 51.428571 156.78 
" style="fill:none;stroke:#000000;stroke-opacity:0.8;stroke-width:1.417324;"/>
    <path clip-path="url(#p3d863ae6ee)" d="M 51.428571 151.02 
L 308.571429 151.02 
L 51.428571 151.02 
L 308.571429 151.02 
L 51.428571 151.02 
" style="fill:none;stroke:#000000;stroke-opacity:0.8;stroke-width:1.417324;"/>
    <path clip-path="url(#p3d863ae6ee)" d="M 51.428571 197.1 
L 51.428571 150.3 
" style="fill:none;stroke:#000000;stroke-opacity:0.8;stroke-width:1.417324;"/>
    <path clip-path="url(#p3d863ae6ee)" d="M 308.571429 150.3 
L 308.571429 197.1 
" style="fill:none;stroke:#000000;stroke-opacity:0.8;stroke-width:1.417324;"/>
    <path clip-path="url(#p3d863ae6ee)" d="M 51.428571 118.8 
L 308.571429 118.8 
" style="fill:none;stroke:#000000;stroke-opacity:0.8;stroke-width:1.417324;"/>
    <path clip-path="url(#p3d863ae6ee)" d="M 308.571429 115.92 
L 51.428571 115.92 
" style="fill:none;stroke:#000000;stroke-opacity:0.8;stroke-width:1.417324;"/>
    <path clip-path="url(#p3d863ae6ee)" d="M 51.428571 113.04 
L 308.571429 113.04 
" style="fill:none;stroke:#000000;stroke-opacity:0.8;stroke-width:1.417324;"/>
    <path clip-path="url(#p3d863ae6ee)" d="M 308.571429 110.16 
L 51.428571 110.16 
" style="fill:none;stroke:#000000;stroke-opacity:0.8;stroke-width:1.417324;"/>
    <path clip-path="url(#p3d863ae6ee)" d="M 51.428571 107.28 
L 308.571429 107.28 
" style="fill:none;stroke:#000000;stroke-opacity:0.8;stroke-width:1.417324;"/>
    <path clip-path="url(#p3d863ae6ee)" d="M 308.571429 104.4 
L 51.428571 104.4 
" style="fill:none;stroke:#000000;stroke-opacity:0.8;stroke-width:1.417324;"/>
    <path clip-path="url(#p3d863ae6ee)" d="M 51.428571 101.52 
L 308.571429 101.52 
" style="fill:none;stroke:#000000;stroke-opacity:0.8;stroke-width:1.417324;"/>
    <path clip-path="url(#p3d863ae6ee)" d="M 308.571429 98.64 
L 51.428571 98.64 
" style="fill:none;stroke:#000000;stroke-opacity:0.8;stroke-width:1.417324;"/>
    <path clip-path="url(#p3d863ae6ee)" d="M 51.428571 95.76 
L 308.571429 95.76 
" style="fill:none;stroke:#000000;stroke-opacity:0.8;stroke-width:1.417324;"/>
    <path clip-path="url(#p3d863ae6ee)" d="M 308.571429 92.88 
L 51.428571 92.88 
" style="fill:none;stroke:#000000;stroke-opacity:0.8;stroke-width:1.417324;"/>
    <path clip-path="url(#p3d863ae6ee)" d="M 51.428571 90 
L 308.571429 90 
" style="fill:none;stroke:#000000;stroke-opacity:0.8;stroke-width:1.417324;"/>
    <path clip-path="url(#p3d863ae6ee)" d="M 308.571429 87.12 
L 51.428571 87.12 
" style="fill:none;stroke:#000000;stroke-opacity:0.8;stroke-width:1.417324;"/>
    <path clip-path="url(#p3d863ae6ee)" d="M 51.428571 84.24 
L 308.571429 84.24 
" style="fill:none;stroke:#000000;stroke-opacity:0.8;stroke-width:1.417324;"/>
    <path clip-path="url(#p3d863ae6ee)" d="M 308.571429 81.36 
L 51.428571 81.36 
" style="fill:none;stroke:#000000;stroke-opacity:0.8;stroke-width:1.417324;"/>
    <path clip-path="url(#p3d863ae6ee)" d="M 51.428571 78.48 
L 308.571429 78.48 
" style="fill:none;stroke:#000000;stroke-opacity:0.8;stroke-width:1.417324;"/>
    <path clip-path="url(#p3d863ae6ee)" d="M 308.571429 75.6 
L 51.428571 75.6 
" style="fill:none;stroke:#000000;stroke-opacity:0.8;stroke-width:1.417324;"/>
    <path clip-path="url(#p3d863ae6ee)" d="M 51.428571 72.72 
L 308.571429 72.72 
" style="fill:none;stroke:#000000;stroke-opacity:0.8;stroke-width:1.417324;"/>
    <path clip-path="url(#p3d863ae6ee)" d="M 51.428571 118.8 
L 308.571429 118.8 
L 51.428571 118.8 
L 308.571429 118.8 
L 51.428571 118.8 
" style="fill:none;stroke:#000000;stroke-opacity:0.8;stroke-width:1.417324;"/>
    <path clip-path="url(#p3d863ae6ee)" d="M 51.428571 113.04 
L 308.571429 113.04 
L 51.428571 113.04 
L 308.571429 113.04 
L 51.428571 113.04 
" style="fill:none;stroke:#000000;stroke-opacity:0.8;stroke-width:1.417324;"/>
    <path clip-path="url(#p3d863ae6ee)" d="M 51.428571 107.28 
L 308.571429 107.28 
L 51.428571 107.28 
L 308.571429 107.28 
L 51.428571 107.28 
" style="fill:none;stroke:#000000;stroke-opacity:0.8;stroke-width:1.417324;"/>
    <path clip-path="url(#p3d863ae6ee)" d="M 51.428571 101.52 
L 308.571429 101.52 
L 51.428571 101.52 
L 308.571429 101.52 
L 51.428571 101.52 
" style="fill:none;stroke:#000000;stroke-opacity:0.8;stroke-width:1.417324;"/>
    <path clip-path="url(#p3d863ae6ee)" d="M 51.428571 95.76 
L 308.571429 95.76 
L 51.428571 95.76 
L 308.571429 95.76 
L 51.428571 95.76 
" style="fill:none;stroke:#000000;stroke-opacity:0.8;stroke-width:1.417324;"/>
    <path clip-path="url(#p3d863ae6ee)" d="M 51.428571 90 
L 308.571429 90 
L 51.428571 90 
L 308.571429 90 
L 51.428571 90 
" style="fill:none;stroke:#000000;stroke-opacity:0.8;stroke-width:1.417324;"/>
    <path clip-path="url(#p3d863ae6ee)" d="M 51.428571 84.24 
L 308.571429 84.24 
L 51.428571 84.24 
L 308.571429 84.24 
L 51.428571 84.24 
" style="fill:none;stroke:#000000;stroke-opacity:0.8;stroke-width:1.417324;"/>
    <path clip-path="url(#p3d863ae6ee)" d="M 51.428571 78.48 
L 308.571429 78.48 
L 51.428571 78.48 
L 308.571429 78.48 
L 51.428571 78.48 
" style="fill:none;stroke:#000000;stroke-opacity:0.8;stroke-width:1.417324;"/>
    <path clip-path="url(#p3d863ae6ee)" d="M 51.428571 72.72 
L 308.571429 72.72 
L 51.428571 72.72 
L 308.571429 72.72 
L 51.428571 72.72 
" style="fill:none;stroke:#000000;stroke-opacity:0.8;stroke-width:1.417324;"/>
    <path clip-path="url(#p3d863ae6ee)" d="M 51.428571 118.8 
L 51.428571 72 
" style="fill:none;stroke:#000000;stroke-opacity:0.8;stroke-width:1.417324;"/>
    <path clip-path="url(#p3d863ae6ee)" d="M 308.571429 72 
L 308.571429 118.8 
" style="fill:none;stroke:#000000;stroke-opacity:0.8;stroke-width:1.417324;"/>
   </g>
  </g>
 </g>
 <defs>
  <clipPath id="p3d863ae6ee">
   <rect height="504" width="360" x="0" y="0"/>
  </clipPath>
 </defs>
</svg>
