<?xml version="1.0" encoding="utf-8" standalone="no"?>
<!DOCTYPE svg PUBLIC "-//W3C//DTD SVG 1.1//EN"
  "http://www.w3.org/Graphics/SVG/1.1/DTD/svg11.dtd">
<!-- Created with matplotlib (https://matplotlib.org/) -->
<svg height="1008pt" version="1.1" viewBox="0 0 792 1008" width="792pt" xmlns="http://www.w3.org/2000/svg" xmlns:xlink="http://www.w3.org/1999/xlink">
 <defs>
  <style type="text/css">
*{stroke-linecap:butt;stroke-linejoin:round;}
  </style>
 </defs>
 <g id="figure_1">
  <g id="axes_1">
   <g id="LineCollection_1">
    <path clip-path="url(#p6e97ea4501)" d="M 334.569453 484.448763 
L 339.914484 486.015806 
L 346.671691 487.719084 
L 363.646891 491.581999 
L 383.943565 496.132821 
L 394.852615 498.695983 
L 406.010225 501.466863 
L 417.22246 504.457376 
L 428.295384 507.679437 
L 439.035061 511.144959 
L 449.247555 514.865856 
L 458.738929 518.854042 
L 467.315249 523.121432 
L 474.782578 527.67994 
L 480.94698 532.541479 
L 480.94698 532.541479 
L 486.163269 538.590732 
L 490.915745 546.4627 
L 495.204704 555.794773 
L 499.030438 566.224339 
L 502.393242 577.38879 
L 505.29341 588.925515 
L 507.731237 600.471904 
L 509.707016 611.665346 
L 511.221042 622.143232 
L 512.273608 631.542951 
L 512.86501 639.501894 
L 512.99554 645.65745 
L 512.665494 649.647008 
L 511.875166 651.10796 
L 510.624849 649.677694 
L 508.914837 644.993601 
L 508.914837 644.993601 
L 505.933682 635.924644 
L 494.696091 604.119231 
L 478.587224 558.879349 
L 469.516973 533.017304 
L 460.201996 505.951627 
L 450.966657 478.400649 
L 442.135321 451.082698 
L 434.032352 424.716102 
L 426.982114 400.019191 
L 421.308971 377.710294 
L 417.337289 358.507739 
L 415.391431 343.129855 
L 415.795762 332.294972 
L 418.874646 326.721418 
L 418.874646 326.721418 
L 425.198253 326.03123 
L 434.809887 329.117167 
L 447.243613 335.603639 
L 462.033496 345.115057 
L 478.713599 357.275832 
L 496.817989 371.710374 
L 515.880729 388.043094 
L 535.435885 405.898401 
L 555.017521 424.900708 
L 574.159702 444.674423 
L 592.396493 464.843959 
L 609.261957 485.033725 
L 624.290161 504.868132 
L 637.015169 523.97159 
L 646.971045 541.968511 
L 653.691854 558.483303 
L 653.691854 558.483303 
L 657.427166 575.923036 
L 658.898411 596.486905 
L 658.34745 619.487515 
L 656.016138 644.237473 
L 652.146335 670.049384 
L 646.979899 696.235853 
L 640.758687 722.109486 
L 633.724559 746.982889 
L 626.119372 770.168666 
L 618.184984 790.979424 
L 610.163253 808.727768 
L 602.296038 822.726303 
L 594.825196 832.287635 
L 587.992587 836.724369 
L 582.040067 835.349111 
L 577.209495 827.474467 
L 577.209495 827.474467 
L 572.830404 811.210862 
L 568.131634 785.966932 
L 563.204011 753.002595 
L 558.13836 713.57777 
L 553.025505 668.952377 
L 547.956272 620.386333 
L 543.021485 569.139558 
L 538.311968 516.471971 
L 533.918547 463.64349 
L 529.932046 411.914035 
L 526.443291 362.543524 
L 523.543105 316.791876 
L 521.322313 275.919011 
L 519.871741 241.184846 
L 519.282212 213.8493 
L 519.644553 195.172294 
L 519.644553 195.172294 
L 521.56071 185.117105 
L 525.367158 182.200902 
L 530.756514 185.51443 
L 537.421394 194.148438 
L 545.054414 207.193672 
L 553.34819 223.740881 
L 561.995338 242.880812 
L 570.688475 263.704212 
L 579.120216 285.301829 
L 586.983178 306.76441 
L 593.969976 327.182703 
L 599.773228 345.647454 
L 604.085549 361.249413 
L 606.599555 373.079325 
L 607.007862 380.227939 
L 605.003087 381.786002 
L 605.003087 381.786002 
L 600.121528 377.697798 
L 592.378338 368.97316 
L 582.184412 356.301161 
L 569.950644 340.37087 
L 556.08793 321.871361 
L 492.565519 235.962568 
L 476.721503 214.953039 
L 461.713912 195.508721 
L 447.953642 178.318685 
L 435.851587 164.072004 
L 425.818642 153.457749 
L 418.265704 147.164991 
L 413.603666 145.882802 
L 413.603666 145.882802 
L 412.11502 150.100039 
L 413.532113 159.378934 
L 417.440625 173.018627 
L 423.426237 190.318256 
L 431.07463 210.576959 
L 439.971485 233.093875 
L 479.757136 331.726431 
L 488.68151 355.021486 
L 496.36843 376.369583 
L 502.403576 395.069862 
L 506.372631 410.42146 
L 507.861273 421.723517 
L 506.455184 428.27517 
L 506.455184 428.27517 
L 501.385938 430.469358 
L 492.568789 429.404122 
L 480.614944 425.436251 
L 466.135606 418.922534 
L 449.74198 410.219762 
L 432.045273 399.684723 
L 413.656687 387.674207 
L 395.187429 374.545004 
L 377.248703 360.653903 
L 360.451714 346.357694 
L 345.407666 332.013166 
L 332.727766 317.97711 
L 323.023217 304.606313 
L 316.905224 292.257568 
L 314.984993 281.287661 
L 317.873729 272.053384 
L 317.873729 272.053384 
L 326.212154 262.884823 
L 339.763853 252.145086 
L 357.824318 240.240493 
L 379.689043 227.577361 
L 404.653523 214.562012 
L 432.013249 201.600763 
L 461.063717 189.099936 
L 491.100419 177.465848 
L 521.418848 167.104821 
L 551.314499 158.423172 
L 580.082865 151.827221 
L 607.019439 147.723289 
L 631.419715 146.517693 
L 652.579186 148.616755 
L 669.793346 154.426792 
L 682.357689 164.354124 
L 682.357689 164.354124 
L 690.670584 179.431258 
L 695.838267 199.945839 
L 698.218028 225.186898 
L 698.167156 254.443464 
L 696.042941 287.004568 
L 692.202673 322.15924 
L 687.003643 359.19651 
L 680.80314 397.405408 
L 673.958453 436.074965 
L 653.132194 547.737887 
L 647.283674 581.140379 
L 642.57742 611.448681 
L 639.370723 637.951821 
L 638.020872 659.938832 
L 638.020872 659.938832 
L 638.086574 679.194303 
L 638.831347 697.848499 
L 640.169695 715.708963 
L 642.016122 732.583235 
L 644.285134 748.278857 
L 646.891234 762.603372 
L 649.748927 775.364319 
L 652.772717 786.369241 
L 655.87711 795.42568 
L 658.976608 802.341176 
L 661.985717 806.923271 
L 664.818941 808.979507 
L 667.390785 808.317426 
L 669.615753 804.744568 
L 671.40835 798.068476 
L 672.683079 788.09669 
L 672.683079 788.09669 
L 673.833962 772.260057 
L 675.248739 748.896927 
L 676.832501 719.176098 
L 678.490335 684.266368 
L 680.127331 645.336535 
L 681.648579 603.555395 
L 682.959165 560.091748 
L 683.96418 516.114391 
L 684.568713 472.792122 
L 684.677852 431.293738 
L 684.196686 392.788037 
L 683.030303 358.443818 
L 681.083794 329.429878 
L 678.262247 306.915014 
L 674.47075 292.068025 
L 669.614392 286.057708 
L 669.614392 286.057708 
L 663.479009 289.514311 
L 656.01722 301.549402 
L 647.384293 321.053766 
L 637.735496 346.918184 
L 627.226096 378.03344 
L 616.011362 413.290317 
L 604.24656 451.579598 
L 579.687826 532.818504 
L 567.204428 573.549695 
L 554.792035 612.876421 
L 542.605912 649.689466 
L 530.801328 682.879613 
L 519.53355 711.337645 
L 508.957846 733.954345 
L 499.229484 749.620495 
L 499.229484 749.620495 
L 489.623217 759.878653 
L 479.427776 767.14179 
L 468.819397 771.606307 
L 457.974317 773.468609 
L 447.068771 772.925097 
L 436.278994 770.172176 
L 425.781223 765.406248 
L 415.751694 758.823716 
L 406.366643 750.620984 
L 397.802304 740.994453 
L 390.234915 730.140528 
L 383.840711 718.255611 
L 378.795928 705.536106 
L 375.276802 692.178414 
L 373.459568 678.37894 
L 373.520463 664.334086 
L 373.520463 664.334086 
L 376.40503 648.75798 
L 382.603018 630.480696 
L 391.60697 609.872553 
L 402.909428 587.30387 
L 416.002936 563.144969 
L 430.380035 537.766168 
L 460.955183 484.830147 
L 476.138316 458.013567 
L 490.575213 431.458367 
L 503.758416 405.534866 
L 515.180468 380.613386 
L 524.333912 357.064245 
L 530.71129 335.257763 
L 533.805147 315.564261 
L 533.108023 298.354057 
L 533.108023 298.354057 
L 528.558757 282.901681 
L 520.69889 268.247194 
L 509.925023 254.409217 
L 496.633756 241.406371 
L 481.22169 229.257277 
L 464.085426 217.980555 
L 445.621563 207.594827 
L 426.226702 198.118714 
L 406.297444 189.570836 
L 386.23039 181.969815 
L 366.42214 175.334271 
L 347.269294 169.682825 
L 329.168454 165.034099 
L 312.516218 161.406713 
L 297.709189 158.819287 
L 285.143967 157.290444 
L 285.143967 157.290444 
L 273.902787 156.851647 
L 262.854329 157.504451 
L 252.074857 159.222616 
L 241.640637 161.979901 
L 231.627935 165.750065 
L 222.113016 170.506868 
L 213.172144 176.224068 
L 204.881585 182.875424 
L 197.317605 190.434696 
L 190.556468 198.875643 
L 184.67444 208.172024 
L 179.747786 218.297598 
L 175.852771 229.226124 
L 173.065661 240.931361 
L 171.462721 253.387069 
L 171.120216 266.567006 
L 172.629471 281.837338 
L 176.335994 300.230243 
L 181.94733 321.218497 
L 189.171018 344.274877 
L 197.714603 368.872162 
L 207.285626 394.483127 
L 217.59163 420.580551 
L 228.340156 446.63721 
L 239.238748 472.125881 
L 249.994947 496.519341 
L 260.316295 519.290369 
L 269.910335 539.91174 
L 278.48461 557.856232 
L 285.746661 572.596622 
L 291.404031 583.605687 
L 295.164262 590.356205 
L 295.164262 590.356205 
L 297.464613 592.604918 
L 298.963692 590.782676 
L 299.701065 585.373409 
L 299.716297 576.861051 
L 299.048953 565.729535 
L 297.738598 552.462792 
L 295.824798 537.544756 
L 293.347118 521.459359 
L 290.345123 504.690533 
L 286.858378 487.722212 
L 282.92645 471.038327 
L 278.588902 455.122812 
L 273.885301 440.459599 
L 268.855212 427.53262 
L 263.5382 416.825808 
L 257.97383 408.823096 
L 257.97383 408.823096 
L 251.036675 402.039782 
L 241.855701 394.827873 
L 230.852065 387.426366 
L 218.446923 380.074258 
L 205.061432 373.010546 
L 191.116749 366.474227 
L 177.034029 360.704298 
L 163.234429 355.939755 
L 150.139105 352.419596 
L 138.169215 350.382817 
L 127.745914 350.068416 
L 119.290359 351.715389 
L 113.223706 355.562732 
L 109.967112 361.849444 
L 109.941733 370.81452 
L 113.568726 382.696958 
L 113.568726 382.696958 
L 121.823968 398.935998 
L 134.936433 420.310909 
L 152.206921 446.070729 
L 172.936234 475.464499 
L 196.425173 507.741259 
L 221.974539 542.150047 
L 248.885132 577.939903 
L 330.792289 686.086276 
L 356.155803 719.8908 
L 379.384549 751.321591 
L 399.779329 779.627686 
L 416.640943 804.058127 
L 429.270193 823.861952 
L 436.96788 838.288202 
L 436.96788 838.288202 
L 440.008353 847.905888 
L 439.400768 854.000064 
L 435.54813 856.893828 
L 428.853444 856.91028 
L 419.719716 854.37252 
L 408.549952 849.603645 
L 395.747157 842.926757 
L 381.714337 834.664953 
L 366.854498 825.141332 
L 351.570645 814.678996 
L 336.265783 803.601041 
L 321.342919 792.230568 
L 307.205058 780.890676 
L 294.255206 769.904463 
L 282.896368 759.59503 
L 273.531549 750.285475 
L 273.531549 750.285475 
L 265.431804 741.567951 
L 257.596873 732.770009 
L 250.0228 723.81785 
L 242.705626 714.637673 
L 235.641391 705.155678 
L 228.826138 695.298065 
L 222.255909 684.991034 
L 215.926744 674.160784 
L 209.834686 662.733516 
L 203.975775 650.635428 
L 198.346054 637.792721 
L 192.941563 624.131595 
L 187.758345 609.57825 
L 182.792441 594.058884 
L 178.039892 577.499699 
L 173.496741 559.826893 
L 173.496741 559.826893 
L 169.17799 538.805714 
L 165.099217 512.882624 
L 161.257323 483.005643 
L 157.64921 450.122793 
L 154.271778 415.182095 
L 151.12193 379.131571 
L 148.196566 342.919242 
L 143.006898 273.801253 
L 138.677985 215.4123 
L 136.828565 192.611265 
L 135.185037 175.336553 
L 133.744304 164.536186 
L 132.503266 161.158184 
L 131.458825 166.150568 
L 131.458825 166.150568 
L 130.686001 181.347538 
L 130.243392 206.998678 
L 130.103259 241.675096 
L 130.237868 283.947896 
L 130.619483 332.388183 
L 131.220367 385.567063 
L 132.012785 442.05564 
L 132.969001 500.425021 
L 134.061278 559.246311 
L 135.261881 617.090614 
L 136.543074 672.529037 
L 137.877121 724.132684 
L 139.236285 770.472661 
L 140.592831 810.120072 
L 141.919024 841.646024 
L 143.187126 863.621622 
L 143.187126 863.621622 
L 144.345843 876.51408 
L 145.38961 882.317191 
L 146.359284 881.891924 
L 147.295723 876.099249 
L 148.239785 865.800138 
L 150.314205 835.126482 
L 152.909405 796.758717 
L 154.504442 776.841969 
L 156.352247 757.584604 
L 158.493677 739.847592 
L 160.969589 724.491903 
L 163.820843 712.378508 
L 167.088294 704.368376 
L 170.812801 701.322477 
L 170.812801 701.322477 
L 175.529399 702.504555 
L 181.583233 706.379788 
L 188.730327 712.611302 
L 196.726706 720.862222 
L 205.328392 730.795671 
L 214.29141 742.074776 
L 223.371783 754.362659 
L 232.325536 767.322448 
L 240.908691 780.617265 
L 248.877273 793.910236 
L 255.987305 806.864485 
L 261.994811 819.143138 
L 266.655816 830.409319 
L 269.726342 840.326153 
L 270.962413 848.556764 
L 270.120054 854.764277 
L 270.120054 854.764277 
L 265.816328 859.319159 
L 257.31901 862.882363 
L 245.36019 865.552745 
L 230.671959 867.42916 
L 213.986408 868.610462 
L 196.035625 869.195508 
L 177.551703 869.283153 
L 159.26673 868.972251 
L 141.912799 868.361658 
L 126.221998 867.550229 
L 112.926418 866.63682 
L 102.75815 865.720286 
L 96.449284 864.899481 
L 94.73191 864.273262 
L 98.338118 863.940483 
L 108 864 
L 108 864 
L 125.836302 865.572026 
L 152.554802 869.363819 
L 186.771134 874.854799 
L 227.100934 881.524387 
L 272.159835 888.852003 
L 320.563473 896.31707 
L 370.927482 903.399006 
L 421.867497 909.577233 
L 471.999152 914.331171 
L 519.938084 917.140242 
L 564.299925 917.483865 
L 603.700311 914.841462 
L 636.754877 908.692454 
L 662.079257 898.51626 
L 678.289087 883.792302 
L 684 864 
L 684 864 
L 677.53125 837.457031 
L 659.25 803.53125 
L 630.84375 763.277344 
L 594 717.75 
L 550.40625 668.003906 
L 501.75 615.09375 
L 449.71875 560.074219 
L 342.28125 447.925781 
L 290.25 392.90625 
L 241.59375 339.996094 
L 198 290.25 
L 161.15625 244.722656 
L 132.75 204.46875 
L 114.46875 170.542969 
L 108 144 
L 108 144 
L 113.414062 124.224609 
L 128.8125 109.546875 
L 152.929688 99.439453 
L 184.5 93.375 
L 222.257812 90.826172 
L 264.9375 91.265625 
L 311.273438 94.166016 
L 360 99 
L 409.851562 105.240234 
L 459.5625 112.359375 
L 507.867188 119.830078 
L 595.195312 133.716797 
L 631.6875 139.078125 
L 661.710938 142.681641 
L 684 144 
L 684 144 
" style="fill:none;stroke:#000000;stroke-opacity:0.7;stroke-width:2.834647;"/>
   </g>
  </g>
 </g>
 <defs>
  <clipPath id="p6e97ea4501">
   <rect height="1008" width="792" x="0" y="0"/>
  </clipPath>
 </defs>
</svg>
