<?xml version="1.0" encoding="utf-8" standalone="no"?>
<!DOCTYPE svg PUBLIC "-//W3C//DTD SVG 1.1//EN"
  "http://www.w3.org/Graphics/SVG/1.1/DTD/svg11.dtd">
<!-- Created with matplotlib (https://matplotlib.org/) -->
<svg height="792pt" version="1.1" viewBox="0 0 576 792" width="576pt" xmlns="http://www.w3.org/2000/svg" xmlns:xlink="http://www.w3.org/1999/xlink">
 <defs>
  <style type="text/css">
*{stroke-linecap:butt;stroke-linejoin:round;}
  </style>
 </defs>
 <g id="figure_1">
  <g id="axes_1">
   <g id="LineCollection_1">
    <path clip-path="url(#p82d8a7c08a)" d="M 360 720 
L 360 684 
" style="fill:none;stroke:#000000;stroke-opacity:0.8;stroke-width:1.5;"/>
    <path clip-path="url(#p82d8a7c08a)" d="M 396 108 
L 396 72 
" style="fill:none;stroke:#000000;stroke-opacity:0.8;stroke-width:1.5;"/>
    <path clip-path="url(#p82d8a7c08a)" d="M 216 756 
L 252 756 
" style="fill:none;stroke:#000000;stroke-opacity:0.8;stroke-width:1.5;"/>
    <path clip-path="url(#p82d8a7c08a)" d="M 72 36 
L 72 0 
" style="fill:none;stroke:#000000;stroke-opacity:0.8;stroke-width:1.5;"/>
    <path clip-path="url(#p82d8a7c08a)" d="M 540 216 
L 576 216 
" style="fill:none;stroke:#000000;stroke-opacity:0.8;stroke-width:1.5;"/>
    <path clip-path="url(#p82d8a7c08a)" d="M 432 324 
L 432 360 
" style="fill:none;stroke:#000000;stroke-opacity:0.8;stroke-width:1.5;"/>
    <path clip-path="url(#p82d8a7c08a)" d="M 324 396 
L 288 396 
" style="fill:none;stroke:#000000;stroke-opacity:0.8;stroke-width:1.5;"/>
    <path clip-path="url(#p82d8a7c08a)" d="M 432 720 
L 432 756 
" style="fill:none;stroke:#000000;stroke-opacity:0.8;stroke-width:1.5;"/>
    <path clip-path="url(#p82d8a7c08a)" d="M 360 108 
L 360 72 
" style="fill:none;stroke:#000000;stroke-opacity:0.8;stroke-width:1.5;"/>
    <path clip-path="url(#p82d8a7c08a)" d="M 252 36 
L 252 72 
" style="fill:none;stroke:#000000;stroke-opacity:0.8;stroke-width:1.5;"/>
    <path clip-path="url(#p82d8a7c08a)" d="M 504 396 
L 504 432 
" style="fill:none;stroke:#000000;stroke-opacity:0.8;stroke-width:1.5;"/>
    <path clip-path="url(#p82d8a7c08a)" d="M 36 468 
L 72 468 
" style="fill:none;stroke:#000000;stroke-opacity:0.8;stroke-width:1.5;"/>
    <path clip-path="url(#p82d8a7c08a)" d="M 468 36 
L 468 0 
" style="fill:none;stroke:#000000;stroke-opacity:0.8;stroke-width:1.5;"/>
    <path clip-path="url(#p82d8a7c08a)" d="M 144 432 
L 144 468 
" style="fill:none;stroke:#000000;stroke-opacity:0.8;stroke-width:1.5;"/>
    <path clip-path="url(#p82d8a7c08a)" d="M 108 180 
L 108 216 
" style="fill:none;stroke:#000000;stroke-opacity:0.8;stroke-width:1.5;"/>
    <path clip-path="url(#p82d8a7c08a)" d="M 540 36 
L 504 36 
" style="fill:none;stroke:#000000;stroke-opacity:0.8;stroke-width:1.5;"/>
    <path clip-path="url(#p82d8a7c08a)" d="M 288 576 
L 288 612 
" style="fill:none;stroke:#000000;stroke-opacity:0.8;stroke-width:1.5;"/>
    <path clip-path="url(#p82d8a7c08a)" d="M 540 648 
L 540 612 
" style="fill:none;stroke:#000000;stroke-opacity:0.8;stroke-width:1.5;"/>
    <path clip-path="url(#p82d8a7c08a)" d="M 468 144 
L 468 108 
" style="fill:none;stroke:#000000;stroke-opacity:0.8;stroke-width:1.5;"/>
    <path clip-path="url(#p82d8a7c08a)" d="M 540 288 
L 504 288 
" style="fill:none;stroke:#000000;stroke-opacity:0.8;stroke-width:1.5;"/>
    <path clip-path="url(#p82d8a7c08a)" d="M 144 144 
L 108 144 
" style="fill:none;stroke:#000000;stroke-opacity:0.8;stroke-width:1.5;"/>
    <path clip-path="url(#p82d8a7c08a)" d="M 180 576 
L 144 576 
" style="fill:none;stroke:#000000;stroke-opacity:0.8;stroke-width:1.5;"/>
    <path clip-path="url(#p82d8a7c08a)" d="M 288 180 
L 324 180 
" style="fill:none;stroke:#000000;stroke-opacity:0.8;stroke-width:1.5;"/>
    <path clip-path="url(#p82d8a7c08a)" d="M 180 360 
L 216 360 
" style="fill:none;stroke:#000000;stroke-opacity:0.8;stroke-width:1.5;"/>
    <path clip-path="url(#p82d8a7c08a)" d="M 72 108 
L 72 144 
" style="fill:none;stroke:#000000;stroke-opacity:0.8;stroke-width:1.5;"/>
    <path clip-path="url(#p82d8a7c08a)" d="M 216 684 
L 252 684 
" style="fill:none;stroke:#000000;stroke-opacity:0.8;stroke-width:1.5;"/>
    <path clip-path="url(#p82d8a7c08a)" d="M 180 684 
L 144 684 
" style="fill:none;stroke:#000000;stroke-opacity:0.8;stroke-width:1.5;"/>
    <path clip-path="url(#p82d8a7c08a)" d="M 432 756 
L 432 792 
" style="fill:none;stroke:#000000;stroke-opacity:0.8;stroke-width:1.5;"/>
    <path clip-path="url(#p82d8a7c08a)" d="M 180 252 
L 144 252 
" style="fill:none;stroke:#000000;stroke-opacity:0.8;stroke-width:1.5;"/>
    <path clip-path="url(#p82d8a7c08a)" d="M 396 72 
L 396 108 
" style="fill:none;stroke:#000000;stroke-opacity:0.8;stroke-width:1.5;"/>
    <path clip-path="url(#p82d8a7c08a)" d="M 216 288 
L 216 324 
" style="fill:none;stroke:#000000;stroke-opacity:0.8;stroke-width:1.5;"/>
    <path clip-path="url(#p82d8a7c08a)" d="M 252 252 
L 252 216 
" style="fill:none;stroke:#000000;stroke-opacity:0.8;stroke-width:1.5;"/>
    <path clip-path="url(#p82d8a7c08a)" d="M 144 612 
L 144 648 
" style="fill:none;stroke:#000000;stroke-opacity:0.8;stroke-width:1.5;"/>
    <path clip-path="url(#p82d8a7c08a)" d="M 504 648 
L 540 648 
" style="fill:none;stroke:#000000;stroke-opacity:0.8;stroke-width:1.5;"/>
    <path clip-path="url(#p82d8a7c08a)" d="M 360 72 
L 324 72 
" style="fill:none;stroke:#000000;stroke-opacity:0.8;stroke-width:1.5;"/>
    <path clip-path="url(#p82d8a7c08a)" d="M 288 288 
L 324 288 
" style="fill:none;stroke:#000000;stroke-opacity:0.8;stroke-width:1.5;"/>
    <path clip-path="url(#p82d8a7c08a)" d="M 144 468 
L 180 468 
" style="fill:none;stroke:#000000;stroke-opacity:0.8;stroke-width:1.5;"/>
    <path clip-path="url(#p82d8a7c08a)" d="M 324 504 
L 288 504 
" style="fill:none;stroke:#000000;stroke-opacity:0.8;stroke-width:1.5;"/>
    <path clip-path="url(#p82d8a7c08a)" d="M 360 180 
L 360 216 
" style="fill:none;stroke:#000000;stroke-opacity:0.8;stroke-width:1.5;"/>
    <path clip-path="url(#p82d8a7c08a)" d="M 36 432 
L 36 468 
" style="fill:none;stroke:#000000;stroke-opacity:0.8;stroke-width:1.5;"/>
    <path clip-path="url(#p82d8a7c08a)" d="M 288 540 
L 288 576 
" style="fill:none;stroke:#000000;stroke-opacity:0.8;stroke-width:1.5;"/>
    <path clip-path="url(#p82d8a7c08a)" d="M 180 648 
L 144 648 
" style="fill:none;stroke:#000000;stroke-opacity:0.8;stroke-width:1.5;"/>
    <path clip-path="url(#p82d8a7c08a)" d="M 180 396 
L 216 396 
" style="fill:none;stroke:#000000;stroke-opacity:0.8;stroke-width:1.5;"/>
    <path clip-path="url(#p82d8a7c08a)" d="M 468 108 
L 468 72 
" style="fill:none;stroke:#000000;stroke-opacity:0.8;stroke-width:1.5;"/>
    <path clip-path="url(#p82d8a7c08a)" d="M 144 540 
L 180 540 
" style="fill:none;stroke:#000000;stroke-opacity:0.8;stroke-width:1.5;"/>
    <path clip-path="url(#p82d8a7c08a)" d="M 144 720 
L 108 720 
" style="fill:none;stroke:#000000;stroke-opacity:0.8;stroke-width:1.5;"/>
    <path clip-path="url(#p82d8a7c08a)" d="M 324 360 
L 324 324 
" style="fill:none;stroke:#000000;stroke-opacity:0.8;stroke-width:1.5;"/>
    <path clip-path="url(#p82d8a7c08a)" d="M 504 504 
L 504 540 
" style="fill:none;stroke:#000000;stroke-opacity:0.8;stroke-width:1.5;"/>
    <path clip-path="url(#p82d8a7c08a)" d="M 396 720 
L 396 756 
" style="fill:none;stroke:#000000;stroke-opacity:0.8;stroke-width:1.5;"/>
    <path clip-path="url(#p82d8a7c08a)" d="M 252 720 
L 288 720 
" style="fill:none;stroke:#000000;stroke-opacity:0.8;stroke-width:1.5;"/>
    <path clip-path="url(#p82d8a7c08a)" d="M 144 684 
L 144 648 
" style="fill:none;stroke:#000000;stroke-opacity:0.8;stroke-width:1.5;"/>
    <path clip-path="url(#p82d8a7c08a)" d="M 432 540 
L 432 576 
" style="fill:none;stroke:#000000;stroke-opacity:0.8;stroke-width:1.5;"/>
    <path clip-path="url(#p82d8a7c08a)" d="M 108 144 
L 108 180 
" style="fill:none;stroke:#000000;stroke-opacity:0.8;stroke-width:1.5;"/>
    <path clip-path="url(#p82d8a7c08a)" d="M 288 468 
L 288 504 
" style="fill:none;stroke:#000000;stroke-opacity:0.8;stroke-width:1.5;"/>
    <path clip-path="url(#p82d8a7c08a)" d="M 324 144 
L 360 144 
" style="fill:none;stroke:#000000;stroke-opacity:0.8;stroke-width:1.5;"/>
    <path clip-path="url(#p82d8a7c08a)" d="M 360 252 
L 360 216 
" style="fill:none;stroke:#000000;stroke-opacity:0.8;stroke-width:1.5;"/>
    <path clip-path="url(#p82d8a7c08a)" d="M 432 324 
L 468 324 
" style="fill:none;stroke:#000000;stroke-opacity:0.8;stroke-width:1.5;"/>
    <path clip-path="url(#p82d8a7c08a)" d="M 36 684 
L 72 684 
" style="fill:none;stroke:#000000;stroke-opacity:0.8;stroke-width:1.5;"/>
    <path clip-path="url(#p82d8a7c08a)" d="M 108 648 
L 108 684 
" style="fill:none;stroke:#000000;stroke-opacity:0.8;stroke-width:1.5;"/>
    <path clip-path="url(#p82d8a7c08a)" d="M 504 144 
L 504 108 
" style="fill:none;stroke:#000000;stroke-opacity:0.8;stroke-width:1.5;"/>
    <path clip-path="url(#p82d8a7c08a)" d="M 180 252 
L 180 288 
" style="fill:none;stroke:#000000;stroke-opacity:0.8;stroke-width:1.5;"/>
    <path clip-path="url(#p82d8a7c08a)" d="M 540 360 
L 504 360 
" style="fill:none;stroke:#000000;stroke-opacity:0.8;stroke-width:1.5;"/>
    <path clip-path="url(#p82d8a7c08a)" d="M 360 504 
L 360 468 
" style="fill:none;stroke:#000000;stroke-opacity:0.8;stroke-width:1.5;"/>
    <path clip-path="url(#p82d8a7c08a)" d="M 360 540 
L 324 540 
" style="fill:none;stroke:#000000;stroke-opacity:0.8;stroke-width:1.5;"/>
    <path clip-path="url(#p82d8a7c08a)" d="M 180 648 
L 180 684 
" style="fill:none;stroke:#000000;stroke-opacity:0.8;stroke-width:1.5;"/>
    <path clip-path="url(#p82d8a7c08a)" d="M 540 648 
L 576 648 
" style="fill:none;stroke:#000000;stroke-opacity:0.8;stroke-width:1.5;"/>
    <path clip-path="url(#p82d8a7c08a)" d="M 540 180 
L 576 180 
" style="fill:none;stroke:#000000;stroke-opacity:0.8;stroke-width:1.5;"/>
    <path clip-path="url(#p82d8a7c08a)" d="M 540 756 
L 540 720 
" style="fill:none;stroke:#000000;stroke-opacity:0.8;stroke-width:1.5;"/>
    <path clip-path="url(#p82d8a7c08a)" d="M 324 756 
L 288 756 
" style="fill:none;stroke:#000000;stroke-opacity:0.8;stroke-width:1.5;"/>
    <path clip-path="url(#p82d8a7c08a)" d="M 540 216 
L 540 180 
" style="fill:none;stroke:#000000;stroke-opacity:0.8;stroke-width:1.5;"/>
    <path clip-path="url(#p82d8a7c08a)" d="M 540 504 
L 576 504 
" style="fill:none;stroke:#000000;stroke-opacity:0.8;stroke-width:1.5;"/>
    <path clip-path="url(#p82d8a7c08a)" d="M 504 144 
L 540 144 
" style="fill:none;stroke:#000000;stroke-opacity:0.8;stroke-width:1.5;"/>
    <path clip-path="url(#p82d8a7c08a)" d="M 432 468 
L 432 432 
" style="fill:none;stroke:#000000;stroke-opacity:0.8;stroke-width:1.5;"/>
    <path clip-path="url(#p82d8a7c08a)" d="M 180 252 
L 216 252 
" style="fill:none;stroke:#000000;stroke-opacity:0.8;stroke-width:1.5;"/>
    <path clip-path="url(#p82d8a7c08a)" d="M 252 324 
L 252 360 
" style="fill:none;stroke:#000000;stroke-opacity:0.8;stroke-width:1.5;"/>
    <path clip-path="url(#p82d8a7c08a)" d="M 396 648 
L 396 612 
" style="fill:none;stroke:#000000;stroke-opacity:0.8;stroke-width:1.5;"/>
    <path clip-path="url(#p82d8a7c08a)" d="M 252 504 
L 252 540 
" style="fill:none;stroke:#000000;stroke-opacity:0.8;stroke-width:1.5;"/>
    <path clip-path="url(#p82d8a7c08a)" d="M 540 108 
L 504 108 
" style="fill:none;stroke:#000000;stroke-opacity:0.8;stroke-width:1.5;"/>
    <path clip-path="url(#p82d8a7c08a)" d="M 504 504 
L 540 504 
" style="fill:none;stroke:#000000;stroke-opacity:0.8;stroke-width:1.5;"/>
    <path clip-path="url(#p82d8a7c08a)" d="M 396 468 
L 432 468 
" style="fill:none;stroke:#000000;stroke-opacity:0.8;stroke-width:1.5;"/>
    <path clip-path="url(#p82d8a7c08a)" d="M 432 468 
L 432 432 
" style="fill:none;stroke:#000000;stroke-opacity:0.8;stroke-width:1.5;"/>
    <path clip-path="url(#p82d8a7c08a)" d="M 396 756 
L 432 756 
" style="fill:none;stroke:#000000;stroke-opacity:0.8;stroke-width:1.5;"/>
    <path clip-path="url(#p82d8a7c08a)" d="M 72 72 
L 108 72 
" style="fill:none;stroke:#000000;stroke-opacity:0.8;stroke-width:1.5;"/>
    <path clip-path="url(#p82d8a7c08a)" d="M 288 144 
L 324 144 
" style="fill:none;stroke:#000000;stroke-opacity:0.8;stroke-width:1.5;"/>
    <path clip-path="url(#p82d8a7c08a)" d="M 36 72 
L 72 72 
" style="fill:none;stroke:#000000;stroke-opacity:0.8;stroke-width:1.5;"/>
    <path clip-path="url(#p82d8a7c08a)" d="M 396 432 
L 360 432 
" style="fill:none;stroke:#000000;stroke-opacity:0.8;stroke-width:1.5;"/>
    <path clip-path="url(#p82d8a7c08a)" d="M 324 396 
L 324 360 
" style="fill:none;stroke:#000000;stroke-opacity:0.8;stroke-width:1.5;"/>
    <path clip-path="url(#p82d8a7c08a)" d="M 108 468 
L 72 468 
" style="fill:none;stroke:#000000;stroke-opacity:0.8;stroke-width:1.5;"/>
    <path clip-path="url(#p82d8a7c08a)" d="M 216 504 
L 216 540 
" style="fill:none;stroke:#000000;stroke-opacity:0.8;stroke-width:1.5;"/>
    <path clip-path="url(#p82d8a7c08a)" d="M 468 72 
L 468 108 
" style="fill:none;stroke:#000000;stroke-opacity:0.8;stroke-width:1.5;"/>
    <path clip-path="url(#p82d8a7c08a)" d="M 360 468 
L 360 432 
" style="fill:none;stroke:#000000;stroke-opacity:0.8;stroke-width:1.5;"/>
    <path clip-path="url(#p82d8a7c08a)" d="M 36 108 
L 36 72 
" style="fill:none;stroke:#000000;stroke-opacity:0.8;stroke-width:1.5;"/>
    <path clip-path="url(#p82d8a7c08a)" d="M 360 540 
L 396 540 
" style="fill:none;stroke:#000000;stroke-opacity:0.8;stroke-width:1.5;"/>
    <path clip-path="url(#p82d8a7c08a)" d="M 288 216 
L 288 180 
" style="fill:none;stroke:#000000;stroke-opacity:0.8;stroke-width:1.5;"/>
    <path clip-path="url(#p82d8a7c08a)" d="M 252 576 
L 216 576 
" style="fill:none;stroke:#000000;stroke-opacity:0.8;stroke-width:1.5;"/>
    <path clip-path="url(#p82d8a7c08a)" d="M 288 720 
L 288 756 
" style="fill:none;stroke:#000000;stroke-opacity:0.8;stroke-width:1.5;"/>
    <path clip-path="url(#p82d8a7c08a)" d="M 360 252 
L 360 216 
" style="fill:none;stroke:#000000;stroke-opacity:0.8;stroke-width:1.5;"/>
    <path clip-path="url(#p82d8a7c08a)" d="M 396 684 
L 396 720 
" style="fill:none;stroke:#000000;stroke-opacity:0.8;stroke-width:1.5;"/>
    <path clip-path="url(#p82d8a7c08a)" d="M 180 540 
L 216 540 
" style="fill:none;stroke:#000000;stroke-opacity:0.8;stroke-width:1.5;"/>
    <path clip-path="url(#p82d8a7c08a)" d="M 540 360 
L 540 396 
" style="fill:none;stroke:#000000;stroke-opacity:0.8;stroke-width:1.5;"/>
    <path clip-path="url(#p82d8a7c08a)" d="M 216 720 
L 180 720 
" style="fill:none;stroke:#000000;stroke-opacity:0.8;stroke-width:1.5;"/>
    <path clip-path="url(#p82d8a7c08a)" d="M 432 504 
L 468 504 
" style="fill:none;stroke:#000000;stroke-opacity:0.8;stroke-width:1.5;"/>
    <path clip-path="url(#p82d8a7c08a)" d="M 468 180 
L 468 216 
" style="fill:none;stroke:#000000;stroke-opacity:0.8;stroke-width:1.5;"/>
    <path clip-path="url(#p82d8a7c08a)" d="M 144 288 
L 108 288 
" style="fill:none;stroke:#000000;stroke-opacity:0.8;stroke-width:1.5;"/>
    <path clip-path="url(#p82d8a7c08a)" d="M 432 756 
L 468 756 
" style="fill:none;stroke:#000000;stroke-opacity:0.8;stroke-width:1.5;"/>
    <path clip-path="url(#p82d8a7c08a)" d="M 180 108 
L 216 108 
" style="fill:none;stroke:#000000;stroke-opacity:0.8;stroke-width:1.5;"/>
    <path clip-path="url(#p82d8a7c08a)" d="M 360 756 
L 396 756 
" style="fill:none;stroke:#000000;stroke-opacity:0.8;stroke-width:1.5;"/>
    <path clip-path="url(#p82d8a7c08a)" d="M 108 432 
L 72 432 
" style="fill:none;stroke:#000000;stroke-opacity:0.8;stroke-width:1.5;"/>
    <path clip-path="url(#p82d8a7c08a)" d="M 36 324 
L 36 360 
" style="fill:none;stroke:#000000;stroke-opacity:0.8;stroke-width:1.5;"/>
    <path clip-path="url(#p82d8a7c08a)" d="M 540 540 
L 504 540 
" style="fill:none;stroke:#000000;stroke-opacity:0.8;stroke-width:1.5;"/>
    <path clip-path="url(#p82d8a7c08a)" d="M 216 288 
L 180 288 
" style="fill:none;stroke:#000000;stroke-opacity:0.8;stroke-width:1.5;"/>
    <path clip-path="url(#p82d8a7c08a)" d="M 72 180 
L 108 180 
" style="fill:none;stroke:#000000;stroke-opacity:0.8;stroke-width:1.5;"/>
    <path clip-path="url(#p82d8a7c08a)" d="M 216 144 
L 216 108 
" style="fill:none;stroke:#000000;stroke-opacity:0.8;stroke-width:1.5;"/>
    <path clip-path="url(#p82d8a7c08a)" d="M 468 540 
L 504 540 
" style="fill:none;stroke:#000000;stroke-opacity:0.8;stroke-width:1.5;"/>
    <path clip-path="url(#p82d8a7c08a)" d="M 72 504 
L 72 540 
" style="fill:none;stroke:#000000;stroke-opacity:0.8;stroke-width:1.5;"/>
    <path clip-path="url(#p82d8a7c08a)" d="M 252 324 
L 252 360 
" style="fill:none;stroke:#000000;stroke-opacity:0.8;stroke-width:1.5;"/>
    <path clip-path="url(#p82d8a7c08a)" d="M 144 288 
L 180 288 
" style="fill:none;stroke:#000000;stroke-opacity:0.8;stroke-width:1.5;"/>
    <path clip-path="url(#p82d8a7c08a)" d="M 504 540 
L 504 576 
" style="fill:none;stroke:#000000;stroke-opacity:0.8;stroke-width:1.5;"/>
    <path clip-path="url(#p82d8a7c08a)" d="M 252 576 
L 252 612 
" style="fill:none;stroke:#000000;stroke-opacity:0.8;stroke-width:1.5;"/>
    <path clip-path="url(#p82d8a7c08a)" d="M 360 396 
L 396 396 
" style="fill:none;stroke:#000000;stroke-opacity:0.8;stroke-width:1.5;"/>
    <path clip-path="url(#p82d8a7c08a)" d="M 432 648 
L 468 648 
" style="fill:none;stroke:#000000;stroke-opacity:0.8;stroke-width:1.5;"/>
    <path clip-path="url(#p82d8a7c08a)" d="M 360 288 
L 360 252 
" style="fill:none;stroke:#000000;stroke-opacity:0.8;stroke-width:1.5;"/>
    <path clip-path="url(#p82d8a7c08a)" d="M 432 648 
L 396 648 
" style="fill:none;stroke:#000000;stroke-opacity:0.8;stroke-width:1.5;"/>
    <path clip-path="url(#p82d8a7c08a)" d="M 144 324 
L 108 324 
" style="fill:none;stroke:#000000;stroke-opacity:0.8;stroke-width:1.5;"/>
    <path clip-path="url(#p82d8a7c08a)" d="M 36 360 
L -0 360 
" style="fill:none;stroke:#000000;stroke-opacity:0.8;stroke-width:1.5;"/>
    <path clip-path="url(#p82d8a7c08a)" d="M 396 540 
L 396 576 
" style="fill:none;stroke:#000000;stroke-opacity:0.8;stroke-width:1.5;"/>
    <path clip-path="url(#p82d8a7c08a)" d="M 108 324 
L 72 324 
" style="fill:none;stroke:#000000;stroke-opacity:0.8;stroke-width:1.5;"/>
    <path clip-path="url(#p82d8a7c08a)" d="M 432 108 
L 396 108 
" style="fill:none;stroke:#000000;stroke-opacity:0.8;stroke-width:1.5;"/>
    <path clip-path="url(#p82d8a7c08a)" d="M 468 288 
L 468 324 
" style="fill:none;stroke:#000000;stroke-opacity:0.8;stroke-width:1.5;"/>
    <path clip-path="url(#p82d8a7c08a)" d="M 468 612 
L 504 612 
" style="fill:none;stroke:#000000;stroke-opacity:0.8;stroke-width:1.5;"/>
    <path clip-path="url(#p82d8a7c08a)" d="M 288 396 
L 324 396 
" style="fill:none;stroke:#000000;stroke-opacity:0.8;stroke-width:1.5;"/>
    <path clip-path="url(#p82d8a7c08a)" d="M 252 144 
L 252 108 
" style="fill:none;stroke:#000000;stroke-opacity:0.8;stroke-width:1.5;"/>
    <path clip-path="url(#p82d8a7c08a)" d="M 504 288 
L 540 288 
" style="fill:none;stroke:#000000;stroke-opacity:0.8;stroke-width:1.5;"/>
    <path clip-path="url(#p82d8a7c08a)" d="M 108 360 
L 72 360 
" style="fill:none;stroke:#000000;stroke-opacity:0.8;stroke-width:1.5;"/>
    <path clip-path="url(#p82d8a7c08a)" d="M 360 504 
L 360 540 
" style="fill:none;stroke:#000000;stroke-opacity:0.8;stroke-width:1.5;"/>
    <path clip-path="url(#p82d8a7c08a)" d="M 432 612 
L 468 612 
" style="fill:none;stroke:#000000;stroke-opacity:0.8;stroke-width:1.5;"/>
    <path clip-path="url(#p82d8a7c08a)" d="M 468 216 
L 432 216 
" style="fill:none;stroke:#000000;stroke-opacity:0.8;stroke-width:1.5;"/>
    <path clip-path="url(#p82d8a7c08a)" d="M 540 504 
L 504 504 
" style="fill:none;stroke:#000000;stroke-opacity:0.8;stroke-width:1.5;"/>
    <path clip-path="url(#p82d8a7c08a)" d="M 36 216 
L 36 252 
" style="fill:none;stroke:#000000;stroke-opacity:0.8;stroke-width:1.5;"/>
    <path clip-path="url(#p82d8a7c08a)" d="M 288 684 
L 324 684 
" style="fill:none;stroke:#000000;stroke-opacity:0.8;stroke-width:1.5;"/>
    <path clip-path="url(#p82d8a7c08a)" d="M 360 360 
L 360 324 
" style="fill:none;stroke:#000000;stroke-opacity:0.8;stroke-width:1.5;"/>
    <path clip-path="url(#p82d8a7c08a)" d="M 396 432 
L 432 432 
" style="fill:none;stroke:#000000;stroke-opacity:0.8;stroke-width:1.5;"/>
    <path clip-path="url(#p82d8a7c08a)" d="M 288 540 
L 288 504 
" style="fill:none;stroke:#000000;stroke-opacity:0.8;stroke-width:1.5;"/>
    <path clip-path="url(#p82d8a7c08a)" d="M 324 504 
L 288 504 
" style="fill:none;stroke:#000000;stroke-opacity:0.8;stroke-width:1.5;"/>
    <path clip-path="url(#p82d8a7c08a)" d="M 432 396 
L 396 396 
" style="fill:none;stroke:#000000;stroke-opacity:0.8;stroke-width:1.5;"/>
    <path clip-path="url(#p82d8a7c08a)" d="M 108 252 
L 144 252 
" style="fill:none;stroke:#000000;stroke-opacity:0.8;stroke-width:1.5;"/>
    <path clip-path="url(#p82d8a7c08a)" d="M 108 216 
L 108 252 
" style="fill:none;stroke:#000000;stroke-opacity:0.8;stroke-width:1.5;"/>
    <path clip-path="url(#p82d8a7c08a)" d="M 360 288 
L 324 288 
" style="fill:none;stroke:#000000;stroke-opacity:0.8;stroke-width:1.5;"/>
    <path clip-path="url(#p82d8a7c08a)" d="M 72 360 
L 36 360 
" style="fill:none;stroke:#000000;stroke-opacity:0.8;stroke-width:1.5;"/>
    <path clip-path="url(#p82d8a7c08a)" d="M 72 180 
L 72 216 
" style="fill:none;stroke:#000000;stroke-opacity:0.8;stroke-width:1.5;"/>
    <path clip-path="url(#p82d8a7c08a)" d="M 144 756 
L 108 756 
" style="fill:none;stroke:#000000;stroke-opacity:0.8;stroke-width:1.5;"/>
    <path clip-path="url(#p82d8a7c08a)" d="M 144 288 
L 108 288 
" style="fill:none;stroke:#000000;stroke-opacity:0.8;stroke-width:1.5;"/>
    <path clip-path="url(#p82d8a7c08a)" d="M 72 540 
L 72 504 
" style="fill:none;stroke:#000000;stroke-opacity:0.8;stroke-width:1.5;"/>
    <path clip-path="url(#p82d8a7c08a)" d="M 468 36 
L 504 36 
" style="fill:none;stroke:#000000;stroke-opacity:0.8;stroke-width:1.5;"/>
    <path clip-path="url(#p82d8a7c08a)" d="M 432 504 
L 468 504 
" style="fill:none;stroke:#000000;stroke-opacity:0.8;stroke-width:1.5;"/>
    <path clip-path="url(#p82d8a7c08a)" d="M 72 360 
L 72 396 
" style="fill:none;stroke:#000000;stroke-opacity:0.8;stroke-width:1.5;"/>
    <path clip-path="url(#p82d8a7c08a)" d="M 432 432 
L 468 432 
" style="fill:none;stroke:#000000;stroke-opacity:0.8;stroke-width:1.5;"/>
    <path clip-path="url(#p82d8a7c08a)" d="M 396 108 
L 396 72 
" style="fill:none;stroke:#000000;stroke-opacity:0.8;stroke-width:1.5;"/>
    <path clip-path="url(#p82d8a7c08a)" d="M 432 648 
L 396 648 
" style="fill:none;stroke:#000000;stroke-opacity:0.8;stroke-width:1.5;"/>
    <path clip-path="url(#p82d8a7c08a)" d="M 504 396 
L 468 396 
" style="fill:none;stroke:#000000;stroke-opacity:0.8;stroke-width:1.5;"/>
    <path clip-path="url(#p82d8a7c08a)" d="M 432 180 
L 396 180 
" style="fill:none;stroke:#000000;stroke-opacity:0.8;stroke-width:1.5;"/>
    <path clip-path="url(#p82d8a7c08a)" d="M 504 288 
L 504 324 
" style="fill:none;stroke:#000000;stroke-opacity:0.8;stroke-width:1.5;"/>
    <path clip-path="url(#p82d8a7c08a)" d="M 216 144 
L 252 144 
" style="fill:none;stroke:#000000;stroke-opacity:0.8;stroke-width:1.5;"/>
    <path clip-path="url(#p82d8a7c08a)" d="M 324 684 
L 288 684 
" style="fill:none;stroke:#000000;stroke-opacity:0.8;stroke-width:1.5;"/>
    <path clip-path="url(#p82d8a7c08a)" d="M 144 612 
L 108 612 
" style="fill:none;stroke:#000000;stroke-opacity:0.8;stroke-width:1.5;"/>
    <path clip-path="url(#p82d8a7c08a)" d="M 108 684 
L 108 720 
" style="fill:none;stroke:#000000;stroke-opacity:0.8;stroke-width:1.5;"/>
    <path clip-path="url(#p82d8a7c08a)" d="M 432 612 
L 468 612 
" style="fill:none;stroke:#000000;stroke-opacity:0.8;stroke-width:1.5;"/>
    <path clip-path="url(#p82d8a7c08a)" d="M 108 108 
L 108 72 
" style="fill:none;stroke:#000000;stroke-opacity:0.8;stroke-width:1.5;"/>
    <path clip-path="url(#p82d8a7c08a)" d="M 216 144 
L 216 108 
" style="fill:none;stroke:#000000;stroke-opacity:0.8;stroke-width:1.5;"/>
    <path clip-path="url(#p82d8a7c08a)" d="M 216 648 
L 216 612 
" style="fill:none;stroke:#000000;stroke-opacity:0.8;stroke-width:1.5;"/>
    <path clip-path="url(#p82d8a7c08a)" d="M 540 432 
L 504 432 
" style="fill:none;stroke:#000000;stroke-opacity:0.8;stroke-width:1.5;"/>
    <path clip-path="url(#p82d8a7c08a)" d="M 144 468 
L 180 468 
" style="fill:none;stroke:#000000;stroke-opacity:0.8;stroke-width:1.5;"/>
    <path clip-path="url(#p82d8a7c08a)" d="M 540 324 
L 540 360 
" style="fill:none;stroke:#000000;stroke-opacity:0.8;stroke-width:1.5;"/>
    <path clip-path="url(#p82d8a7c08a)" d="M 180 540 
L 216 540 
" style="fill:none;stroke:#000000;stroke-opacity:0.8;stroke-width:1.5;"/>
    <path clip-path="url(#p82d8a7c08a)" d="M 36 720 
L 36 684 
" style="fill:none;stroke:#000000;stroke-opacity:0.8;stroke-width:1.5;"/>
    <path clip-path="url(#p82d8a7c08a)" d="M 324 144 
L 324 180 
" style="fill:none;stroke:#000000;stroke-opacity:0.8;stroke-width:1.5;"/>
    <path clip-path="url(#p82d8a7c08a)" d="M 396 396 
L 396 432 
" style="fill:none;stroke:#000000;stroke-opacity:0.8;stroke-width:1.5;"/>
    <path clip-path="url(#p82d8a7c08a)" d="M 396 36 
L 396 72 
" style="fill:none;stroke:#000000;stroke-opacity:0.8;stroke-width:1.5;"/>
    <path clip-path="url(#p82d8a7c08a)" d="M 432 288 
L 396 288 
" style="fill:none;stroke:#000000;stroke-opacity:0.8;stroke-width:1.5;"/>
    <path clip-path="url(#p82d8a7c08a)" d="M 252 108 
L 288 108 
" style="fill:none;stroke:#000000;stroke-opacity:0.8;stroke-width:1.5;"/>
    <path clip-path="url(#p82d8a7c08a)" d="M 216 72 
L 180 72 
" style="fill:none;stroke:#000000;stroke-opacity:0.8;stroke-width:1.5;"/>
    <path clip-path="url(#p82d8a7c08a)" d="M 288 468 
L 252 468 
" style="fill:none;stroke:#000000;stroke-opacity:0.8;stroke-width:1.5;"/>
    <path clip-path="url(#p82d8a7c08a)" d="M 288 252 
L 324 252 
" style="fill:none;stroke:#000000;stroke-opacity:0.8;stroke-width:1.5;"/>
    <path clip-path="url(#p82d8a7c08a)" d="M 432 252 
L 432 288 
" style="fill:none;stroke:#000000;stroke-opacity:0.8;stroke-width:1.5;"/>
    <path clip-path="url(#p82d8a7c08a)" d="M 432 252 
L 432 216 
" style="fill:none;stroke:#000000;stroke-opacity:0.8;stroke-width:1.5;"/>
    <path clip-path="url(#p82d8a7c08a)" d="M 180 432 
L 144 432 
" style="fill:none;stroke:#000000;stroke-opacity:0.8;stroke-width:1.5;"/>
    <path clip-path="url(#p82d8a7c08a)" d="M 540 180 
L 540 216 
" style="fill:none;stroke:#000000;stroke-opacity:0.8;stroke-width:1.5;"/>
    <path clip-path="url(#p82d8a7c08a)" d="M 180 108 
L 144 108 
" style="fill:none;stroke:#000000;stroke-opacity:0.8;stroke-width:1.5;"/>
    <path clip-path="url(#p82d8a7c08a)" d="M 432 648 
L 432 684 
" style="fill:none;stroke:#000000;stroke-opacity:0.8;stroke-width:1.5;"/>
    <path clip-path="url(#p82d8a7c08a)" d="M 288 216 
L 288 252 
" style="fill:none;stroke:#000000;stroke-opacity:0.8;stroke-width:1.5;"/>
    <path clip-path="url(#p82d8a7c08a)" d="M 144 36 
L 108 36 
" style="fill:none;stroke:#000000;stroke-opacity:0.8;stroke-width:1.5;"/>
    <path clip-path="url(#p82d8a7c08a)" d="M 36 252 
L -0 252 
" style="fill:none;stroke:#000000;stroke-opacity:0.8;stroke-width:1.5;"/>
    <path clip-path="url(#p82d8a7c08a)" d="M 540 144 
L 576 144 
" style="fill:none;stroke:#000000;stroke-opacity:0.8;stroke-width:1.5;"/>
    <path clip-path="url(#p82d8a7c08a)" d="M 72 72 
L 72 36 
" style="fill:none;stroke:#000000;stroke-opacity:0.8;stroke-width:1.5;"/>
    <path clip-path="url(#p82d8a7c08a)" d="M 72 288 
L 108 288 
" style="fill:none;stroke:#000000;stroke-opacity:0.8;stroke-width:1.5;"/>
    <path clip-path="url(#p82d8a7c08a)" d="M 216 576 
L 180 576 
" style="fill:none;stroke:#000000;stroke-opacity:0.8;stroke-width:1.5;"/>
    <path clip-path="url(#p82d8a7c08a)" d="M 180 72 
L 216 72 
" style="fill:none;stroke:#000000;stroke-opacity:0.8;stroke-width:1.5;"/>
    <path clip-path="url(#p82d8a7c08a)" d="M 252 108 
L 252 72 
" style="fill:none;stroke:#000000;stroke-opacity:0.8;stroke-width:1.5;"/>
    <path clip-path="url(#p82d8a7c08a)" d="M 180 360 
L 216 360 
" style="fill:none;stroke:#000000;stroke-opacity:0.8;stroke-width:1.5;"/>
    <path clip-path="url(#p82d8a7c08a)" d="M 108 252 
L 144 252 
" style="fill:none;stroke:#000000;stroke-opacity:0.8;stroke-width:1.5;"/>
    <path clip-path="url(#p82d8a7c08a)" d="M 468 324 
L 504 324 
" style="fill:none;stroke:#000000;stroke-opacity:0.8;stroke-width:1.5;"/>
    <path clip-path="url(#p82d8a7c08a)" d="M 396 396 
L 432 396 
" style="fill:none;stroke:#000000;stroke-opacity:0.8;stroke-width:1.5;"/>
    <path clip-path="url(#p82d8a7c08a)" d="M 108 576 
L 108 540 
" style="fill:none;stroke:#000000;stroke-opacity:0.8;stroke-width:1.5;"/>
    <path clip-path="url(#p82d8a7c08a)" d="M 144 72 
L 180 72 
" style="fill:none;stroke:#000000;stroke-opacity:0.8;stroke-width:1.5;"/>
    <path clip-path="url(#p82d8a7c08a)" d="M 144 252 
L 108 252 
" style="fill:none;stroke:#000000;stroke-opacity:0.8;stroke-width:1.5;"/>
    <path clip-path="url(#p82d8a7c08a)" d="M 504 468 
L 504 504 
" style="fill:none;stroke:#000000;stroke-opacity:0.8;stroke-width:1.5;"/>
    <path clip-path="url(#p82d8a7c08a)" d="M 216 468 
L 216 504 
" style="fill:none;stroke:#000000;stroke-opacity:0.8;stroke-width:1.5;"/>
    <path clip-path="url(#p82d8a7c08a)" d="M 144 648 
L 144 684 
" style="fill:none;stroke:#000000;stroke-opacity:0.8;stroke-width:1.5;"/>
    <path clip-path="url(#p82d8a7c08a)" d="M 360 324 
L 360 360 
" style="fill:none;stroke:#000000;stroke-opacity:0.8;stroke-width:1.5;"/>
    <path clip-path="url(#p82d8a7c08a)" d="M 180 720 
L 144 720 
" style="fill:none;stroke:#000000;stroke-opacity:0.8;stroke-width:1.5;"/>
    <path clip-path="url(#p82d8a7c08a)" d="M 324 684 
L 360 684 
" style="fill:none;stroke:#000000;stroke-opacity:0.8;stroke-width:1.5;"/>
    <path clip-path="url(#p82d8a7c08a)" d="M 360 756 
L 360 792 
" style="fill:none;stroke:#000000;stroke-opacity:0.8;stroke-width:1.5;"/>
    <path clip-path="url(#p82d8a7c08a)" d="M 36 108 
L 36 72 
" style="fill:none;stroke:#000000;stroke-opacity:0.8;stroke-width:1.5;"/>
    <path clip-path="url(#p82d8a7c08a)" d="M 432 540 
L 396 540 
" style="fill:none;stroke:#000000;stroke-opacity:0.8;stroke-width:1.5;"/>
    <path clip-path="url(#p82d8a7c08a)" d="M 108 468 
L 72 468 
" style="fill:none;stroke:#000000;stroke-opacity:0.8;stroke-width:1.5;"/>
    <path clip-path="url(#p82d8a7c08a)" d="M 324 720 
L 360 720 
" style="fill:none;stroke:#000000;stroke-opacity:0.8;stroke-width:1.5;"/>
    <path clip-path="url(#p82d8a7c08a)" d="M 144 108 
L 180 108 
" style="fill:none;stroke:#000000;stroke-opacity:0.8;stroke-width:1.5;"/>
    <path clip-path="url(#p82d8a7c08a)" d="M 252 612 
L 252 576 
" style="fill:none;stroke:#000000;stroke-opacity:0.8;stroke-width:1.5;"/>
    <path clip-path="url(#p82d8a7c08a)" d="M 252 468 
L 288 468 
" style="fill:none;stroke:#000000;stroke-opacity:0.8;stroke-width:1.5;"/>
    <path clip-path="url(#p82d8a7c08a)" d="M 108 72 
L 108 36 
" style="fill:none;stroke:#000000;stroke-opacity:0.8;stroke-width:1.5;"/>
    <path clip-path="url(#p82d8a7c08a)" d="M 504 360 
L 504 396 
" style="fill:none;stroke:#000000;stroke-opacity:0.8;stroke-width:1.5;"/>
    <path clip-path="url(#p82d8a7c08a)" d="M 504 180 
L 504 216 
" style="fill:none;stroke:#000000;stroke-opacity:0.8;stroke-width:1.5;"/>
    <path clip-path="url(#p82d8a7c08a)" d="M 468 576 
L 468 540 
" style="fill:none;stroke:#000000;stroke-opacity:0.8;stroke-width:1.5;"/>
    <path clip-path="url(#p82d8a7c08a)" d="M 396 36 
L 396 72 
" style="fill:none;stroke:#000000;stroke-opacity:0.8;stroke-width:1.5;"/>
    <path clip-path="url(#p82d8a7c08a)" d="M 36 72 
L -0 72 
" style="fill:none;stroke:#000000;stroke-opacity:0.8;stroke-width:1.5;"/>
    <path clip-path="url(#p82d8a7c08a)" d="M 216 756 
L 216 720 
" style="fill:none;stroke:#000000;stroke-opacity:0.8;stroke-width:1.5;"/>
    <path clip-path="url(#p82d8a7c08a)" d="M 432 612 
L 396 612 
" style="fill:none;stroke:#000000;stroke-opacity:0.8;stroke-width:1.5;"/>
    <path clip-path="url(#p82d8a7c08a)" d="M 36 36 
L 36 0 
" style="fill:none;stroke:#000000;stroke-opacity:0.8;stroke-width:1.5;"/>
    <path clip-path="url(#p82d8a7c08a)" d="M 360 612 
L 360 576 
" style="fill:none;stroke:#000000;stroke-opacity:0.8;stroke-width:1.5;"/>
    <path clip-path="url(#p82d8a7c08a)" d="M 108 468 
L 144 468 
" style="fill:none;stroke:#000000;stroke-opacity:0.8;stroke-width:1.5;"/>
    <path clip-path="url(#p82d8a7c08a)" d="M 252 324 
L 252 360 
" style="fill:none;stroke:#000000;stroke-opacity:0.8;stroke-width:1.5;"/>
    <path clip-path="url(#p82d8a7c08a)" d="M 72 720 
L 108 720 
" style="fill:none;stroke:#000000;stroke-opacity:0.8;stroke-width:1.5;"/>
    <path clip-path="url(#p82d8a7c08a)" d="M 144 648 
L 144 612 
" style="fill:none;stroke:#000000;stroke-opacity:0.8;stroke-width:1.5;"/>
    <path clip-path="url(#p82d8a7c08a)" d="M 432 360 
L 468 360 
" style="fill:none;stroke:#000000;stroke-opacity:0.8;stroke-width:1.5;"/>
    <path clip-path="url(#p82d8a7c08a)" d="M 432 144 
L 432 180 
" style="fill:none;stroke:#000000;stroke-opacity:0.8;stroke-width:1.5;"/>
    <path clip-path="url(#p82d8a7c08a)" d="M 180 396 
L 144 396 
" style="fill:none;stroke:#000000;stroke-opacity:0.8;stroke-width:1.5;"/>
    <path clip-path="url(#p82d8a7c08a)" d="M 216 252 
L 216 288 
" style="fill:none;stroke:#000000;stroke-opacity:0.8;stroke-width:1.5;"/>
    <path clip-path="url(#p82d8a7c08a)" d="M 180 612 
L 216 612 
" style="fill:none;stroke:#000000;stroke-opacity:0.8;stroke-width:1.5;"/>
    <path clip-path="url(#p82d8a7c08a)" d="M 504 216 
L 504 180 
" style="fill:none;stroke:#000000;stroke-opacity:0.8;stroke-width:1.5;"/>
    <path clip-path="url(#p82d8a7c08a)" d="M 396 468 
L 432 468 
" style="fill:none;stroke:#000000;stroke-opacity:0.8;stroke-width:1.5;"/>
    <path clip-path="url(#p82d8a7c08a)" d="M 108 396 
L 144 396 
" style="fill:none;stroke:#000000;stroke-opacity:0.8;stroke-width:1.5;"/>
    <path clip-path="url(#p82d8a7c08a)" d="M 396 36 
L 432 36 
" style="fill:none;stroke:#000000;stroke-opacity:0.8;stroke-width:1.5;"/>
    <path clip-path="url(#p82d8a7c08a)" d="M 432 360 
L 432 396 
" style="fill:none;stroke:#000000;stroke-opacity:0.8;stroke-width:1.5;"/>
    <path clip-path="url(#p82d8a7c08a)" d="M 108 720 
L 72 720 
" style="fill:none;stroke:#000000;stroke-opacity:0.8;stroke-width:1.5;"/>
    <path clip-path="url(#p82d8a7c08a)" d="M 72 576 
L 72 612 
" style="fill:none;stroke:#000000;stroke-opacity:0.8;stroke-width:1.5;"/>
    <path clip-path="url(#p82d8a7c08a)" d="M 252 252 
L 216 252 
" style="fill:none;stroke:#000000;stroke-opacity:0.8;stroke-width:1.5;"/>
    <path clip-path="url(#p82d8a7c08a)" d="M 504 684 
L 468 684 
" style="fill:none;stroke:#000000;stroke-opacity:0.8;stroke-width:1.5;"/>
    <path clip-path="url(#p82d8a7c08a)" d="M 540 180 
L 576 180 
" style="fill:none;stroke:#000000;stroke-opacity:0.8;stroke-width:1.5;"/>
    <path clip-path="url(#p82d8a7c08a)" d="M 360 504 
L 360 540 
" style="fill:none;stroke:#000000;stroke-opacity:0.8;stroke-width:1.5;"/>
    <path clip-path="url(#p82d8a7c08a)" d="M 72 468 
L 72 504 
" style="fill:none;stroke:#000000;stroke-opacity:0.8;stroke-width:1.5;"/>
    <path clip-path="url(#p82d8a7c08a)" d="M 504 396 
L 468 396 
" style="fill:none;stroke:#000000;stroke-opacity:0.8;stroke-width:1.5;"/>
    <path clip-path="url(#p82d8a7c08a)" d="M 144 180 
L 144 216 
" style="fill:none;stroke:#000000;stroke-opacity:0.8;stroke-width:1.5;"/>
    <path clip-path="url(#p82d8a7c08a)" d="M 324 360 
L 324 396 
" style="fill:none;stroke:#000000;stroke-opacity:0.8;stroke-width:1.5;"/>
    <path clip-path="url(#p82d8a7c08a)" d="M 396 36 
L 396 72 
" style="fill:none;stroke:#000000;stroke-opacity:0.8;stroke-width:1.5;"/>
    <path clip-path="url(#p82d8a7c08a)" d="M 144 684 
L 108 684 
" style="fill:none;stroke:#000000;stroke-opacity:0.8;stroke-width:1.5;"/>
    <path clip-path="url(#p82d8a7c08a)" d="M 288 648 
L 288 684 
" style="fill:none;stroke:#000000;stroke-opacity:0.8;stroke-width:1.5;"/>
    <path clip-path="url(#p82d8a7c08a)" d="M 468 72 
L 504 72 
" style="fill:none;stroke:#000000;stroke-opacity:0.8;stroke-width:1.5;"/>
    <path clip-path="url(#p82d8a7c08a)" d="M 396 468 
L 360 468 
" style="fill:none;stroke:#000000;stroke-opacity:0.8;stroke-width:1.5;"/>
    <path clip-path="url(#p82d8a7c08a)" d="M 468 36 
L 468 0 
" style="fill:none;stroke:#000000;stroke-opacity:0.8;stroke-width:1.5;"/>
    <path clip-path="url(#p82d8a7c08a)" d="M 432 288 
L 432 324 
" style="fill:none;stroke:#000000;stroke-opacity:0.8;stroke-width:1.5;"/>
    <path clip-path="url(#p82d8a7c08a)" d="M 396 216 
L 360 216 
" style="fill:none;stroke:#000000;stroke-opacity:0.8;stroke-width:1.5;"/>
    <path clip-path="url(#p82d8a7c08a)" d="M 468 324 
L 504 324 
" style="fill:none;stroke:#000000;stroke-opacity:0.8;stroke-width:1.5;"/>
    <path clip-path="url(#p82d8a7c08a)" d="M 36 720 
L -0 720 
" style="fill:none;stroke:#000000;stroke-opacity:0.8;stroke-width:1.5;"/>
    <path clip-path="url(#p82d8a7c08a)" d="M 36 468 
L 72 468 
" style="fill:none;stroke:#000000;stroke-opacity:0.8;stroke-width:1.5;"/>
    <path clip-path="url(#p82d8a7c08a)" d="M 72 504 
L 108 504 
" style="fill:none;stroke:#000000;stroke-opacity:0.8;stroke-width:1.5;"/>
    <path clip-path="url(#p82d8a7c08a)" d="M 396 324 
L 432 324 
" style="fill:none;stroke:#000000;stroke-opacity:0.8;stroke-width:1.5;"/>
    <path clip-path="url(#p82d8a7c08a)" d="M 360 648 
L 360 684 
" style="fill:none;stroke:#000000;stroke-opacity:0.8;stroke-width:1.5;"/>
    <path clip-path="url(#p82d8a7c08a)" d="M 216 252 
L 252 252 
" style="fill:none;stroke:#000000;stroke-opacity:0.8;stroke-width:1.5;"/>
    <path clip-path="url(#p82d8a7c08a)" d="M 540 468 
L 540 432 
" style="fill:none;stroke:#000000;stroke-opacity:0.8;stroke-width:1.5;"/>
    <path clip-path="url(#p82d8a7c08a)" d="M 288 108 
L 324 108 
" style="fill:none;stroke:#000000;stroke-opacity:0.8;stroke-width:1.5;"/>
    <path clip-path="url(#p82d8a7c08a)" d="M 396 540 
L 360 540 
" style="fill:none;stroke:#000000;stroke-opacity:0.8;stroke-width:1.5;"/>
    <path clip-path="url(#p82d8a7c08a)" d="M 324 324 
L 288 324 
" style="fill:none;stroke:#000000;stroke-opacity:0.8;stroke-width:1.5;"/>
    <path clip-path="url(#p82d8a7c08a)" d="M 540 216 
L 540 252 
" style="fill:none;stroke:#000000;stroke-opacity:0.8;stroke-width:1.5;"/>
    <path clip-path="url(#p82d8a7c08a)" d="M 180 756 
L 144 756 
" style="fill:none;stroke:#000000;stroke-opacity:0.8;stroke-width:1.5;"/>
    <path clip-path="url(#p82d8a7c08a)" d="M 180 108 
L 180 72 
" style="fill:none;stroke:#000000;stroke-opacity:0.8;stroke-width:1.5;"/>
    <path clip-path="url(#p82d8a7c08a)" d="M 144 324 
L 108 324 
" style="fill:none;stroke:#000000;stroke-opacity:0.8;stroke-width:1.5;"/>
    <path clip-path="url(#p82d8a7c08a)" d="M 216 684 
L 216 720 
" style="fill:none;stroke:#000000;stroke-opacity:0.8;stroke-width:1.5;"/>
    <path clip-path="url(#p82d8a7c08a)" d="M 36 288 
L 36 252 
" style="fill:none;stroke:#000000;stroke-opacity:0.8;stroke-width:1.5;"/>
    <path clip-path="url(#p82d8a7c08a)" d="M 540 396 
L 504 396 
" style="fill:none;stroke:#000000;stroke-opacity:0.8;stroke-width:1.5;"/>
    <path clip-path="url(#p82d8a7c08a)" d="M 396 396 
L 432 396 
" style="fill:none;stroke:#000000;stroke-opacity:0.8;stroke-width:1.5;"/>
    <path clip-path="url(#p82d8a7c08a)" d="M 468 540 
L 468 576 
" style="fill:none;stroke:#000000;stroke-opacity:0.8;stroke-width:1.5;"/>
    <path clip-path="url(#p82d8a7c08a)" d="M 396 324 
L 396 360 
" style="fill:none;stroke:#000000;stroke-opacity:0.8;stroke-width:1.5;"/>
    <path clip-path="url(#p82d8a7c08a)" d="M 360 108 
L 360 144 
" style="fill:none;stroke:#000000;stroke-opacity:0.8;stroke-width:1.5;"/>
    <path clip-path="url(#p82d8a7c08a)" d="M 216 540 
L 216 504 
" style="fill:none;stroke:#000000;stroke-opacity:0.8;stroke-width:1.5;"/>
    <path clip-path="url(#p82d8a7c08a)" d="M 468 684 
L 504 684 
" style="fill:none;stroke:#000000;stroke-opacity:0.8;stroke-width:1.5;"/>
    <path clip-path="url(#p82d8a7c08a)" d="M 108 504 
L 72 504 
" style="fill:none;stroke:#000000;stroke-opacity:0.8;stroke-width:1.5;"/>
    <path clip-path="url(#p82d8a7c08a)" d="M 216 216 
L 216 252 
" style="fill:none;stroke:#000000;stroke-opacity:0.8;stroke-width:1.5;"/>
    <path clip-path="url(#p82d8a7c08a)" d="M 144 576 
L 144 612 
" style="fill:none;stroke:#000000;stroke-opacity:0.8;stroke-width:1.5;"/>
    <path clip-path="url(#p82d8a7c08a)" d="M 252 504 
L 288 504 
" style="fill:none;stroke:#000000;stroke-opacity:0.8;stroke-width:1.5;"/>
    <path clip-path="url(#p82d8a7c08a)" d="M 324 576 
L 324 612 
" style="fill:none;stroke:#000000;stroke-opacity:0.8;stroke-width:1.5;"/>
    <path clip-path="url(#p82d8a7c08a)" d="M 144 504 
L 108 504 
" style="fill:none;stroke:#000000;stroke-opacity:0.8;stroke-width:1.5;"/>
    <path clip-path="url(#p82d8a7c08a)" d="M 180 144 
L 180 180 
" style="fill:none;stroke:#000000;stroke-opacity:0.8;stroke-width:1.5;"/>
    <path clip-path="url(#p82d8a7c08a)" d="M 504 360 
L 468 360 
" style="fill:none;stroke:#000000;stroke-opacity:0.8;stroke-width:1.5;"/>
    <path clip-path="url(#p82d8a7c08a)" d="M 360 648 
L 396 648 
" style="fill:none;stroke:#000000;stroke-opacity:0.8;stroke-width:1.5;"/>
    <path clip-path="url(#p82d8a7c08a)" d="M 252 720 
L 216 720 
" style="fill:none;stroke:#000000;stroke-opacity:0.8;stroke-width:1.5;"/>
    <path clip-path="url(#p82d8a7c08a)" d="M 252 72 
L 288 72 
" style="fill:none;stroke:#000000;stroke-opacity:0.8;stroke-width:1.5;"/>
    <path clip-path="url(#p82d8a7c08a)" d="M 216 468 
L 252 468 
" style="fill:none;stroke:#000000;stroke-opacity:0.8;stroke-width:1.5;"/>
    <path clip-path="url(#p82d8a7c08a)" d="M 216 144 
L 180 144 
" style="fill:none;stroke:#000000;stroke-opacity:0.8;stroke-width:1.5;"/>
    <path clip-path="url(#p82d8a7c08a)" d="M 504 216 
L 468 216 
" style="fill:none;stroke:#000000;stroke-opacity:0.8;stroke-width:1.5;"/>
    <path clip-path="url(#p82d8a7c08a)" d="M 432 252 
L 432 216 
" style="fill:none;stroke:#000000;stroke-opacity:0.8;stroke-width:1.5;"/>
    <path clip-path="url(#p82d8a7c08a)" d="M 540 504 
L 504 504 
" style="fill:none;stroke:#000000;stroke-opacity:0.8;stroke-width:1.5;"/>
    <path clip-path="url(#p82d8a7c08a)" d="M 36 36 
L 36 0 
" style="fill:none;stroke:#000000;stroke-opacity:0.8;stroke-width:1.5;"/>
    <path clip-path="url(#p82d8a7c08a)" d="M 252 396 
L 288 396 
" style="fill:none;stroke:#000000;stroke-opacity:0.8;stroke-width:1.5;"/>
    <path clip-path="url(#p82d8a7c08a)" d="M 180 324 
L 216 324 
" style="fill:none;stroke:#000000;stroke-opacity:0.8;stroke-width:1.5;"/>
    <path clip-path="url(#p82d8a7c08a)" d="M 72 144 
L 108 144 
" style="fill:none;stroke:#000000;stroke-opacity:0.8;stroke-width:1.5;"/>
    <path clip-path="url(#p82d8a7c08a)" d="M 540 432 
L 540 396 
" style="fill:none;stroke:#000000;stroke-opacity:0.8;stroke-width:1.5;"/>
    <path clip-path="url(#p82d8a7c08a)" d="M 252 612 
L 252 576 
" style="fill:none;stroke:#000000;stroke-opacity:0.8;stroke-width:1.5;"/>
    <path clip-path="url(#p82d8a7c08a)" d="M 468 612 
L 468 576 
" style="fill:none;stroke:#000000;stroke-opacity:0.8;stroke-width:1.5;"/>
    <path clip-path="url(#p82d8a7c08a)" d="M 360 612 
L 360 576 
" style="fill:none;stroke:#000000;stroke-opacity:0.8;stroke-width:1.5;"/>
    <path clip-path="url(#p82d8a7c08a)" d="M 108 540 
L 72 540 
" style="fill:none;stroke:#000000;stroke-opacity:0.8;stroke-width:1.5;"/>
    <path clip-path="url(#p82d8a7c08a)" d="M 360 72 
L 324 72 
" style="fill:none;stroke:#000000;stroke-opacity:0.8;stroke-width:1.5;"/>
    <path clip-path="url(#p82d8a7c08a)" d="M 324 180 
L 360 180 
" style="fill:none;stroke:#000000;stroke-opacity:0.8;stroke-width:1.5;"/>
    <path clip-path="url(#p82d8a7c08a)" d="M 108 648 
L 108 612 
" style="fill:none;stroke:#000000;stroke-opacity:0.8;stroke-width:1.5;"/>
    <path clip-path="url(#p82d8a7c08a)" d="M 360 432 
L 324 432 
" style="fill:none;stroke:#000000;stroke-opacity:0.8;stroke-width:1.5;"/>
    <path clip-path="url(#p82d8a7c08a)" d="M 540 468 
L 540 432 
" style="fill:none;stroke:#000000;stroke-opacity:0.8;stroke-width:1.5;"/>
    <path clip-path="url(#p82d8a7c08a)" d="M 108 360 
L 72 360 
" style="fill:none;stroke:#000000;stroke-opacity:0.8;stroke-width:1.5;"/>
    <path clip-path="url(#p82d8a7c08a)" d="M 180 72 
L 144 72 
" style="fill:none;stroke:#000000;stroke-opacity:0.8;stroke-width:1.5;"/>
    <path clip-path="url(#p82d8a7c08a)" d="M 288 252 
L 288 288 
" style="fill:none;stroke:#000000;stroke-opacity:0.8;stroke-width:1.5;"/>
    <path clip-path="url(#p82d8a7c08a)" d="M 72 648 
L 108 648 
" style="fill:none;stroke:#000000;stroke-opacity:0.8;stroke-width:1.5;"/>
    <path clip-path="url(#p82d8a7c08a)" d="M 72 72 
L 72 36 
" style="fill:none;stroke:#000000;stroke-opacity:0.8;stroke-width:1.5;"/>
    <path clip-path="url(#p82d8a7c08a)" d="M 180 216 
L 180 180 
" style="fill:none;stroke:#000000;stroke-opacity:0.8;stroke-width:1.5;"/>
    <path clip-path="url(#p82d8a7c08a)" d="M 180 360 
L 144 360 
" style="fill:none;stroke:#000000;stroke-opacity:0.8;stroke-width:1.5;"/>
    <path clip-path="url(#p82d8a7c08a)" d="M 396 108 
L 396 72 
" style="fill:none;stroke:#000000;stroke-opacity:0.8;stroke-width:1.5;"/>
    <path clip-path="url(#p82d8a7c08a)" d="M 180 108 
L 216 108 
" style="fill:none;stroke:#000000;stroke-opacity:0.8;stroke-width:1.5;"/>
    <path clip-path="url(#p82d8a7c08a)" d="M 324 684 
L 360 684 
" style="fill:none;stroke:#000000;stroke-opacity:0.8;stroke-width:1.5;"/>
    <path clip-path="url(#p82d8a7c08a)" d="M 540 324 
L 504 324 
" style="fill:none;stroke:#000000;stroke-opacity:0.8;stroke-width:1.5;"/>
    <path clip-path="url(#p82d8a7c08a)" d="M 324 324 
L 288 324 
" style="fill:none;stroke:#000000;stroke-opacity:0.8;stroke-width:1.5;"/>
    <path clip-path="url(#p82d8a7c08a)" d="M 504 540 
L 504 576 
" style="fill:none;stroke:#000000;stroke-opacity:0.8;stroke-width:1.5;"/>
    <path clip-path="url(#p82d8a7c08a)" d="M 288 684 
L 324 684 
" style="fill:none;stroke:#000000;stroke-opacity:0.8;stroke-width:1.5;"/>
    <path clip-path="url(#p82d8a7c08a)" d="M 504 756 
L 504 720 
" style="fill:none;stroke:#000000;stroke-opacity:0.8;stroke-width:1.5;"/>
    <path clip-path="url(#p82d8a7c08a)" d="M 72 756 
L 72 720 
" style="fill:none;stroke:#000000;stroke-opacity:0.8;stroke-width:1.5;"/>
    <path clip-path="url(#p82d8a7c08a)" d="M 288 288 
L 288 324 
" style="fill:none;stroke:#000000;stroke-opacity:0.8;stroke-width:1.5;"/>
    <path clip-path="url(#p82d8a7c08a)" d="M 432 180 
L 432 144 
" style="fill:none;stroke:#000000;stroke-opacity:0.8;stroke-width:1.5;"/>
    <path clip-path="url(#p82d8a7c08a)" d="M 504 288 
L 504 324 
" style="fill:none;stroke:#000000;stroke-opacity:0.8;stroke-width:1.5;"/>
    <path clip-path="url(#p82d8a7c08a)" d="M 504 360 
L 468 360 
" style="fill:none;stroke:#000000;stroke-opacity:0.8;stroke-width:1.5;"/>
    <path clip-path="url(#p82d8a7c08a)" d="M 468 432 
L 468 396 
" style="fill:none;stroke:#000000;stroke-opacity:0.8;stroke-width:1.5;"/>
    <path clip-path="url(#p82d8a7c08a)" d="M 540 324 
L 576 324 
" style="fill:none;stroke:#000000;stroke-opacity:0.8;stroke-width:1.5;"/>
    <path clip-path="url(#p82d8a7c08a)" d="M 432 612 
L 468 612 
" style="fill:none;stroke:#000000;stroke-opacity:0.8;stroke-width:1.5;"/>
    <path clip-path="url(#p82d8a7c08a)" d="M 396 540 
L 396 576 
" style="fill:none;stroke:#000000;stroke-opacity:0.8;stroke-width:1.5;"/>
    <path clip-path="url(#p82d8a7c08a)" d="M 72 684 
L 108 684 
" style="fill:none;stroke:#000000;stroke-opacity:0.8;stroke-width:1.5;"/>
    <path clip-path="url(#p82d8a7c08a)" d="M 540 180 
L 540 216 
" style="fill:none;stroke:#000000;stroke-opacity:0.8;stroke-width:1.5;"/>
    <path clip-path="url(#p82d8a7c08a)" d="M 360 288 
L 396 288 
" style="fill:none;stroke:#000000;stroke-opacity:0.8;stroke-width:1.5;"/>
    <path clip-path="url(#p82d8a7c08a)" d="M 72 756 
L 36 756 
" style="fill:none;stroke:#000000;stroke-opacity:0.8;stroke-width:1.5;"/>
    <path clip-path="url(#p82d8a7c08a)" d="M 360 360 
L 360 324 
" style="fill:none;stroke:#000000;stroke-opacity:0.8;stroke-width:1.5;"/>
    <path clip-path="url(#p82d8a7c08a)" d="M 504 648 
L 504 612 
" style="fill:none;stroke:#000000;stroke-opacity:0.8;stroke-width:1.5;"/>
    <path clip-path="url(#p82d8a7c08a)" d="M 144 252 
L 144 216 
" style="fill:none;stroke:#000000;stroke-opacity:0.8;stroke-width:1.5;"/>
    <path clip-path="url(#p82d8a7c08a)" d="M 468 252 
L 468 216 
" style="fill:none;stroke:#000000;stroke-opacity:0.8;stroke-width:1.5;"/>
    <path clip-path="url(#p82d8a7c08a)" d="M 432 360 
L 396 360 
" style="fill:none;stroke:#000000;stroke-opacity:0.8;stroke-width:1.5;"/>
    <path clip-path="url(#p82d8a7c08a)" d="M 504 432 
L 504 468 
" style="fill:none;stroke:#000000;stroke-opacity:0.8;stroke-width:1.5;"/>
    <path clip-path="url(#p82d8a7c08a)" d="M 360 216 
L 360 180 
" style="fill:none;stroke:#000000;stroke-opacity:0.8;stroke-width:1.5;"/>
   </g>
  </g>
 </g>
 <defs>
  <clipPath id="p82d8a7c08a">
   <rect height="752.4" width="547.2" x="14.4" y="19.8"/>
  </clipPath>
 </defs>
</svg>
