<?xml version="1.0" encoding="utf-8" standalone="no"?>
<!DOCTYPE svg PUBLIC "-//W3C//DTD SVG 1.1//EN"
  "http://www.w3.org/Graphics/SVG/1.1/DTD/svg11.dtd">
<!-- Created with matplotlib (https://matplotlib.org/) -->
<svg height="1008pt" version="1.1" viewBox="0 0 792 1008" width="792pt" xmlns="http://www.w3.org/2000/svg" xmlns:xlink="http://www.w3.org/1999/xlink">
 <defs>
  <style type="text/css">
*{stroke-linecap:butt;stroke-linejoin:round;}
  </style>
 </defs>
 <g id="figure_1">
  <g id="axes_1">
   <g id="LineCollection_1">
    <path clip-path="url(#p9b314aca4e)" d="M 72 936 
L 72 72 
" style="fill:none;stroke:#000000;stroke-opacity:0.7;stroke-width:0.708662;"/>
    <path clip-path="url(#p9b314aca4e)" d="M 159.558941 72 
L 159.558941 936 
" style="fill:none;stroke:#000000;stroke-opacity:0.7;stroke-width:0.708662;"/>
    <path clip-path="url(#p9b314aca4e)" d="M 187.534715 936 
L 187.534715 72 
" style="fill:none;stroke:#000000;stroke-opacity:0.7;stroke-width:0.708662;"/>
    <path clip-path="url(#p9b314aca4e)" d="M 207.877954 72 
L 207.877954 936 
" style="fill:none;stroke:#000000;stroke-opacity:0.7;stroke-width:0.708662;"/>
    <path clip-path="url(#p9b314aca4e)" d="M 224.44897 936 
L 224.44897 72 
" style="fill:none;stroke:#000000;stroke-opacity:0.7;stroke-width:0.708662;"/>
    <path clip-path="url(#p9b314aca4e)" d="M 238.681922 72 
L 238.681922 936 
" style="fill:none;stroke:#000000;stroke-opacity:0.7;stroke-width:0.708662;"/>
    <path clip-path="url(#p9b314aca4e)" d="M 251.292036 936 
L 251.292036 72 
" style="fill:none;stroke:#000000;stroke-opacity:0.7;stroke-width:0.708662;"/>
    <path clip-path="url(#p9b314aca4e)" d="M 262.695179 72 
L 262.695179 936 
" style="fill:none;stroke:#000000;stroke-opacity:0.7;stroke-width:0.708662;"/>
    <path clip-path="url(#p9b314aca4e)" d="M 273.157622 936 
L 273.157622 72 
" style="fill:none;stroke:#000000;stroke-opacity:0.7;stroke-width:0.708662;"/>
    <path clip-path="url(#p9b314aca4e)" d="M 282.861602 72 
L 282.861602 936 
" style="fill:none;stroke:#000000;stroke-opacity:0.7;stroke-width:0.708662;"/>
    <path clip-path="url(#p9b314aca4e)" d="M 291.938115 936 
L 291.938115 72 
" style="fill:none;stroke:#000000;stroke-opacity:0.7;stroke-width:0.708662;"/>
    <path clip-path="url(#p9b314aca4e)" d="M 300.484936 72 
L 300.484936 936 
" style="fill:none;stroke:#000000;stroke-opacity:0.7;stroke-width:0.708662;"/>
    <path clip-path="url(#p9b314aca4e)" d="M 308.57726 936 
L 308.57726 72 
" style="fill:none;stroke:#000000;stroke-opacity:0.7;stroke-width:0.708662;"/>
    <path clip-path="url(#p9b314aca4e)" d="M 316.274335 72 
L 316.274335 936 
" style="fill:none;stroke:#000000;stroke-opacity:0.7;stroke-width:0.708662;"/>
    <path clip-path="url(#p9b314aca4e)" d="M 323.623798 936 
L 323.623798 72 
" style="fill:none;stroke:#000000;stroke-opacity:0.7;stroke-width:0.708662;"/>
    <path clip-path="url(#p9b314aca4e)" d="M 330.664603 72 
L 330.664603 936 
" style="fill:none;stroke:#000000;stroke-opacity:0.7;stroke-width:0.708662;"/>
    <path clip-path="url(#p9b314aca4e)" d="M 337.429074 936 
L 337.429074 72 
" style="fill:none;stroke:#000000;stroke-opacity:0.7;stroke-width:0.708662;"/>
    <path clip-path="url(#p9b314aca4e)" d="M 343.944367 72 
L 343.944367 936 
" style="fill:none;stroke:#000000;stroke-opacity:0.7;stroke-width:0.708662;"/>
    <path clip-path="url(#p9b314aca4e)" d="M 350.233552 936 
L 350.233552 72 
" style="fill:none;stroke:#000000;stroke-opacity:0.7;stroke-width:0.708662;"/>
    <path clip-path="url(#p9b314aca4e)" d="M 356.316418 72 
L 356.316418 936 
" style="fill:none;stroke:#000000;stroke-opacity:0.7;stroke-width:0.708662;"/>
    <path clip-path="url(#p9b314aca4e)" d="M 362.210083 936 
L 362.210083 72 
" style="fill:none;stroke:#000000;stroke-opacity:0.7;stroke-width:0.708662;"/>
    <path clip-path="url(#p9b314aca4e)" d="M 367.92947 72 
L 367.92947 936 
" style="fill:none;stroke:#000000;stroke-opacity:0.7;stroke-width:0.708662;"/>
    <path clip-path="url(#p9b314aca4e)" d="M 373.487681 936 
L 373.487681 72 
" style="fill:none;stroke:#000000;stroke-opacity:0.7;stroke-width:0.708662;"/>
    <path clip-path="url(#p9b314aca4e)" d="M 378.896286 72 
L 378.896286 936 
" style="fill:none;stroke:#000000;stroke-opacity:0.7;stroke-width:0.708662;"/>
    <path clip-path="url(#p9b314aca4e)" d="M 384.165566 936 
L 384.165566 72 
" style="fill:none;stroke:#000000;stroke-opacity:0.7;stroke-width:0.708662;"/>
    <path clip-path="url(#p9b314aca4e)" d="M 389.304698 72 
L 389.304698 936 
" style="fill:none;stroke:#000000;stroke-opacity:0.7;stroke-width:0.708662;"/>
    <path clip-path="url(#p9b314aca4e)" d="M 394.321917 936 
L 394.321917 72 
" style="fill:none;stroke:#000000;stroke-opacity:0.7;stroke-width:0.708662;"/>
    <path clip-path="url(#p9b314aca4e)" d="M 399.224644 72 
L 399.224644 936 
" style="fill:none;stroke:#000000;stroke-opacity:0.7;stroke-width:0.708662;"/>
    <path clip-path="url(#p9b314aca4e)" d="M 404.019592 936 
L 404.019592 72 
" style="fill:none;stroke:#000000;stroke-opacity:0.7;stroke-width:0.708662;"/>
    <path clip-path="url(#p9b314aca4e)" d="M 408.712855 72 
L 408.712855 936 
" style="fill:none;stroke:#000000;stroke-opacity:0.7;stroke-width:0.708662;"/>
    <path clip-path="url(#p9b314aca4e)" d="M 413.30999 936 
L 413.30999 72 
" style="fill:none;stroke:#000000;stroke-opacity:0.7;stroke-width:0.708662;"/>
    <path clip-path="url(#p9b314aca4e)" d="M 417.816074 72 
L 417.816074 936 
" style="fill:none;stroke:#000000;stroke-opacity:0.7;stroke-width:0.708662;"/>
    <path clip-path="url(#p9b314aca4e)" d="M 422.235763 936 
L 422.235763 72 
" style="fill:none;stroke:#000000;stroke-opacity:0.7;stroke-width:0.708662;"/>
    <path clip-path="url(#p9b314aca4e)" d="M 426.573337 72 
L 426.573337 936 
" style="fill:none;stroke:#000000;stroke-opacity:0.7;stroke-width:0.708662;"/>
    <path clip-path="url(#p9b314aca4e)" d="M 430.832743 936 
L 430.832743 72 
" style="fill:none;stroke:#000000;stroke-opacity:0.7;stroke-width:0.708662;"/>
    <path clip-path="url(#p9b314aca4e)" d="M 435.017629 72 
L 435.017629 936 
" style="fill:none;stroke:#000000;stroke-opacity:0.7;stroke-width:0.708662;"/>
    <path clip-path="url(#p9b314aca4e)" d="M 439.131373 936 
L 439.131373 72 
" style="fill:none;stroke:#000000;stroke-opacity:0.7;stroke-width:0.708662;"/>
    <path clip-path="url(#p9b314aca4e)" d="M 443.177112 72 
L 443.177112 936 
" style="fill:none;stroke:#000000;stroke-opacity:0.7;stroke-width:0.708662;"/>
    <path clip-path="url(#p9b314aca4e)" d="M 447.157763 936 
L 447.157763 72 
" style="fill:none;stroke:#000000;stroke-opacity:0.7;stroke-width:0.708662;"/>
    <path clip-path="url(#p9b314aca4e)" d="M 451.076045 72 
L 451.076045 936 
" style="fill:none;stroke:#000000;stroke-opacity:0.7;stroke-width:0.708662;"/>
    <path clip-path="url(#p9b314aca4e)" d="M 454.9345 936 
L 454.9345 72 
" style="fill:none;stroke:#000000;stroke-opacity:0.7;stroke-width:0.708662;"/>
    <path clip-path="url(#p9b314aca4e)" d="M 458.735501 72 
L 458.735501 936 
" style="fill:none;stroke:#000000;stroke-opacity:0.7;stroke-width:0.708662;"/>
    <path clip-path="url(#p9b314aca4e)" d="M 462.481277 936 
L 462.481277 72 
" style="fill:none;stroke:#000000;stroke-opacity:0.7;stroke-width:0.708662;"/>
    <path clip-path="url(#p9b314aca4e)" d="M 466.173915 72 
L 466.173915 936 
" style="fill:none;stroke:#000000;stroke-opacity:0.7;stroke-width:0.708662;"/>
    <path clip-path="url(#p9b314aca4e)" d="M 469.81538 936 
L 469.81538 72 
" style="fill:none;stroke:#000000;stroke-opacity:0.7;stroke-width:0.708662;"/>
    <path clip-path="url(#p9b314aca4e)" d="M 473.40752 72 
L 473.40752 936 
" style="fill:none;stroke:#000000;stroke-opacity:0.7;stroke-width:0.708662;"/>
    <path clip-path="url(#p9b314aca4e)" d="M 476.952077 936 
L 476.952077 72 
" style="fill:none;stroke:#000000;stroke-opacity:0.7;stroke-width:0.708662;"/>
    <path clip-path="url(#p9b314aca4e)" d="M 480.450697 72 
L 480.450697 936 
" style="fill:none;stroke:#000000;stroke-opacity:0.7;stroke-width:0.708662;"/>
    <path clip-path="url(#p9b314aca4e)" d="M 483.904933 936 
L 483.904933 72 
" style="fill:none;stroke:#000000;stroke-opacity:0.7;stroke-width:0.708662;"/>
    <path clip-path="url(#p9b314aca4e)" d="M 487.316256 72 
L 487.316256 936 
" style="fill:none;stroke:#000000;stroke-opacity:0.7;stroke-width:0.708662;"/>
    <path clip-path="url(#p9b314aca4e)" d="M 490.686059 936 
L 490.686059 72 
" style="fill:none;stroke:#000000;stroke-opacity:0.7;stroke-width:0.708662;"/>
    <path clip-path="url(#p9b314aca4e)" d="M 494.015662 72 
L 494.015662 936 
" style="fill:none;stroke:#000000;stroke-opacity:0.7;stroke-width:0.708662;"/>
    <path clip-path="url(#p9b314aca4e)" d="M 497.30632 936 
L 497.30632 72 
" style="fill:none;stroke:#000000;stroke-opacity:0.7;stroke-width:0.708662;"/>
    <path clip-path="url(#p9b314aca4e)" d="M 500.559223 72 
L 500.559223 936 
" style="fill:none;stroke:#000000;stroke-opacity:0.7;stroke-width:0.708662;"/>
    <path clip-path="url(#p9b314aca4e)" d="M 503.775507 936 
L 503.775507 72 
" style="fill:none;stroke:#000000;stroke-opacity:0.7;stroke-width:0.708662;"/>
    <path clip-path="url(#p9b314aca4e)" d="M 506.956249 72 
L 506.956249 936 
" style="fill:none;stroke:#000000;stroke-opacity:0.7;stroke-width:0.708662;"/>
    <path clip-path="url(#p9b314aca4e)" d="M 510.102478 936 
L 510.102478 72 
" style="fill:none;stroke:#000000;stroke-opacity:0.7;stroke-width:0.708662;"/>
    <path clip-path="url(#p9b314aca4e)" d="M 513.215175 72 
L 513.215175 936 
" style="fill:none;stroke:#000000;stroke-opacity:0.7;stroke-width:0.708662;"/>
    <path clip-path="url(#p9b314aca4e)" d="M 516.295276 936 
L 516.295276 72 
" style="fill:none;stroke:#000000;stroke-opacity:0.7;stroke-width:0.708662;"/>
    <path clip-path="url(#p9b314aca4e)" d="M 519.343677 72 
L 519.343677 936 
" style="fill:none;stroke:#000000;stroke-opacity:0.7;stroke-width:0.708662;"/>
    <path clip-path="url(#p9b314aca4e)" d="M 522.361232 936 
L 522.361232 72 
" style="fill:none;stroke:#000000;stroke-opacity:0.7;stroke-width:0.708662;"/>
    <path clip-path="url(#p9b314aca4e)" d="M 525.34876 72 
L 525.34876 936 
" style="fill:none;stroke:#000000;stroke-opacity:0.7;stroke-width:0.708662;"/>
    <path clip-path="url(#p9b314aca4e)" d="M 528.307045 936 
L 528.307045 72 
" style="fill:none;stroke:#000000;stroke-opacity:0.7;stroke-width:0.708662;"/>
    <path clip-path="url(#p9b314aca4e)" d="M 531.236838 72 
L 531.236838 936 
" style="fill:none;stroke:#000000;stroke-opacity:0.7;stroke-width:0.708662;"/>
    <path clip-path="url(#p9b314aca4e)" d="M 534.138859 936 
L 534.138859 72 
" style="fill:none;stroke:#000000;stroke-opacity:0.7;stroke-width:0.708662;"/>
    <path clip-path="url(#p9b314aca4e)" d="M 537.0138 72 
L 537.0138 936 
" style="fill:none;stroke:#000000;stroke-opacity:0.7;stroke-width:0.708662;"/>
    <path clip-path="url(#p9b314aca4e)" d="M 539.862323 936 
L 539.862323 72 
" style="fill:none;stroke:#000000;stroke-opacity:0.7;stroke-width:0.708662;"/>
    <path clip-path="url(#p9b314aca4e)" d="M 542.685066 72 
L 542.685066 936 
" style="fill:none;stroke:#000000;stroke-opacity:0.7;stroke-width:0.708662;"/>
    <path clip-path="url(#p9b314aca4e)" d="M 545.482643 936 
L 545.482643 72 
" style="fill:none;stroke:#000000;stroke-opacity:0.7;stroke-width:0.708662;"/>
    <path clip-path="url(#p9b314aca4e)" d="M 548.255643 72 
L 548.255643 936 
" style="fill:none;stroke:#000000;stroke-opacity:0.7;stroke-width:0.708662;"/>
    <path clip-path="url(#p9b314aca4e)" d="M 551.004634 936 
L 551.004634 72 
" style="fill:none;stroke:#000000;stroke-opacity:0.7;stroke-width:0.708662;"/>
    <path clip-path="url(#p9b314aca4e)" d="M 553.730161 72 
L 553.730161 936 
" style="fill:none;stroke:#000000;stroke-opacity:0.7;stroke-width:0.708662;"/>
    <path clip-path="url(#p9b314aca4e)" d="M 556.432751 936 
L 556.432751 72 
" style="fill:none;stroke:#000000;stroke-opacity:0.7;stroke-width:0.708662;"/>
    <path clip-path="url(#p9b314aca4e)" d="M 559.112913 72 
L 559.112913 936 
" style="fill:none;stroke:#000000;stroke-opacity:0.7;stroke-width:0.708662;"/>
    <path clip-path="url(#p9b314aca4e)" d="M 561.771135 936 
L 561.771135 72 
" style="fill:none;stroke:#000000;stroke-opacity:0.7;stroke-width:0.708662;"/>
    <path clip-path="url(#p9b314aca4e)" d="M 564.407891 72 
L 564.407891 936 
" style="fill:none;stroke:#000000;stroke-opacity:0.7;stroke-width:0.708662;"/>
    <path clip-path="url(#p9b314aca4e)" d="M 567.023636 936 
L 567.023636 72 
" style="fill:none;stroke:#000000;stroke-opacity:0.7;stroke-width:0.708662;"/>
    <path clip-path="url(#p9b314aca4e)" d="M 569.61881 72 
L 569.61881 936 
" style="fill:none;stroke:#000000;stroke-opacity:0.7;stroke-width:0.708662;"/>
    <path clip-path="url(#p9b314aca4e)" d="M 572.193841 936 
L 572.193841 72 
" style="fill:none;stroke:#000000;stroke-opacity:0.7;stroke-width:0.708662;"/>
    <path clip-path="url(#p9b314aca4e)" d="M 574.749138 72 
L 574.749138 936 
" style="fill:none;stroke:#000000;stroke-opacity:0.7;stroke-width:0.708662;"/>
    <path clip-path="url(#p9b314aca4e)" d="M 577.285102 936 
L 577.285102 72 
" style="fill:none;stroke:#000000;stroke-opacity:0.7;stroke-width:0.708662;"/>
    <path clip-path="url(#p9b314aca4e)" d="M 579.802116 72 
L 579.802116 936 
" style="fill:none;stroke:#000000;stroke-opacity:0.7;stroke-width:0.708662;"/>
    <path clip-path="url(#p9b314aca4e)" d="M 582.300554 936 
L 582.300554 72 
" style="fill:none;stroke:#000000;stroke-opacity:0.7;stroke-width:0.708662;"/>
    <path clip-path="url(#p9b314aca4e)" d="M 584.780776 72 
L 584.780776 936 
" style="fill:none;stroke:#000000;stroke-opacity:0.7;stroke-width:0.708662;"/>
    <path clip-path="url(#p9b314aca4e)" d="M 587.243134 936 
L 587.243134 72 
" style="fill:none;stroke:#000000;stroke-opacity:0.7;stroke-width:0.708662;"/>
    <path clip-path="url(#p9b314aca4e)" d="M 589.687965 72 
L 589.687965 936 
" style="fill:none;stroke:#000000;stroke-opacity:0.7;stroke-width:0.708662;"/>
    <path clip-path="url(#p9b314aca4e)" d="M 592.115599 936 
L 592.115599 72 
" style="fill:none;stroke:#000000;stroke-opacity:0.7;stroke-width:0.708662;"/>
    <path clip-path="url(#p9b314aca4e)" d="M 594.526354 72 
L 594.526354 936 
" style="fill:none;stroke:#000000;stroke-opacity:0.7;stroke-width:0.708662;"/>
    <path clip-path="url(#p9b314aca4e)" d="M 596.920541 936 
L 596.920541 72 
" style="fill:none;stroke:#000000;stroke-opacity:0.7;stroke-width:0.708662;"/>
    <path clip-path="url(#p9b314aca4e)" d="M 599.298458 72 
L 599.298458 936 
" style="fill:none;stroke:#000000;stroke-opacity:0.7;stroke-width:0.708662;"/>
    <path clip-path="url(#p9b314aca4e)" d="M 601.660398 936 
L 601.660398 72 
" style="fill:none;stroke:#000000;stroke-opacity:0.7;stroke-width:0.708662;"/>
    <path clip-path="url(#p9b314aca4e)" d="M 604.006643 72 
L 604.006643 936 
" style="fill:none;stroke:#000000;stroke-opacity:0.7;stroke-width:0.708662;"/>
    <path clip-path="url(#p9b314aca4e)" d="M 606.33747 936 
L 606.33747 72 
" style="fill:none;stroke:#000000;stroke-opacity:0.7;stroke-width:0.708662;"/>
    <path clip-path="url(#p9b314aca4e)" d="M 608.653144 72 
L 608.653144 936 
" style="fill:none;stroke:#000000;stroke-opacity:0.7;stroke-width:0.708662;"/>
    <path clip-path="url(#p9b314aca4e)" d="M 610.953926 936 
L 610.953926 72 
" style="fill:none;stroke:#000000;stroke-opacity:0.7;stroke-width:0.708662;"/>
    <path clip-path="url(#p9b314aca4e)" d="M 613.240069 72 
L 613.240069 936 
" style="fill:none;stroke:#000000;stroke-opacity:0.7;stroke-width:0.708662;"/>
    <path clip-path="url(#p9b314aca4e)" d="M 615.511818 936 
L 615.511818 72 
" style="fill:none;stroke:#000000;stroke-opacity:0.7;stroke-width:0.708662;"/>
    <path clip-path="url(#p9b314aca4e)" d="M 617.769413 72 
L 617.769413 936 
" style="fill:none;stroke:#000000;stroke-opacity:0.7;stroke-width:0.708662;"/>
    <path clip-path="url(#p9b314aca4e)" d="M 620.013086 936 
L 620.013086 72 
" style="fill:none;stroke:#000000;stroke-opacity:0.7;stroke-width:0.708662;"/>
    <path clip-path="url(#p9b314aca4e)" d="M 622.243063 72 
L 622.243063 936 
" style="fill:none;stroke:#000000;stroke-opacity:0.7;stroke-width:0.708662;"/>
    <path clip-path="url(#p9b314aca4e)" d="M 624.459567 936 
L 624.459567 72 
" style="fill:none;stroke:#000000;stroke-opacity:0.7;stroke-width:0.708662;"/>
    <path clip-path="url(#p9b314aca4e)" d="M 626.662811 72 
L 626.662811 936 
" style="fill:none;stroke:#000000;stroke-opacity:0.7;stroke-width:0.708662;"/>
    <path clip-path="url(#p9b314aca4e)" d="M 628.853004 936 
L 628.853004 72 
" style="fill:none;stroke:#000000;stroke-opacity:0.7;stroke-width:0.708662;"/>
    <path clip-path="url(#p9b314aca4e)" d="M 631.030352 72 
L 631.030352 936 
" style="fill:none;stroke:#000000;stroke-opacity:0.7;stroke-width:0.708662;"/>
    <path clip-path="url(#p9b314aca4e)" d="M 633.195053 936 
L 633.195053 72 
" style="fill:none;stroke:#000000;stroke-opacity:0.7;stroke-width:0.708662;"/>
    <path clip-path="url(#p9b314aca4e)" d="M 635.347301 72 
L 635.347301 936 
" style="fill:none;stroke:#000000;stroke-opacity:0.7;stroke-width:0.708662;"/>
    <path clip-path="url(#p9b314aca4e)" d="M 637.487285 936 
L 637.487285 72 
" style="fill:none;stroke:#000000;stroke-opacity:0.7;stroke-width:0.708662;"/>
    <path clip-path="url(#p9b314aca4e)" d="M 639.615191 72 
L 639.615191 936 
" style="fill:none;stroke:#000000;stroke-opacity:0.7;stroke-width:0.708662;"/>
    <path clip-path="url(#p9b314aca4e)" d="M 641.731197 936 
L 641.731197 72 
" style="fill:none;stroke:#000000;stroke-opacity:0.7;stroke-width:0.708662;"/>
    <path clip-path="url(#p9b314aca4e)" d="M 643.83548 72 
L 643.83548 936 
" style="fill:none;stroke:#000000;stroke-opacity:0.7;stroke-width:0.708662;"/>
    <path clip-path="url(#p9b314aca4e)" d="M 645.928211 936 
L 645.928211 72 
" style="fill:none;stroke:#000000;stroke-opacity:0.7;stroke-width:0.708662;"/>
    <path clip-path="url(#p9b314aca4e)" d="M 648.009558 72 
L 648.009558 936 
" style="fill:none;stroke:#000000;stroke-opacity:0.7;stroke-width:0.708662;"/>
    <path clip-path="url(#p9b314aca4e)" d="M 650.079685 936 
L 650.079685 72 
" style="fill:none;stroke:#000000;stroke-opacity:0.7;stroke-width:0.708662;"/>
    <path clip-path="url(#p9b314aca4e)" d="M 652.138751 72 
L 652.138751 936 
" style="fill:none;stroke:#000000;stroke-opacity:0.7;stroke-width:0.708662;"/>
    <path clip-path="url(#p9b314aca4e)" d="M 654.186913 936 
L 654.186913 72 
" style="fill:none;stroke:#000000;stroke-opacity:0.7;stroke-width:0.708662;"/>
    <path clip-path="url(#p9b314aca4e)" d="M 656.224324 72 
L 656.224324 936 
" style="fill:none;stroke:#000000;stroke-opacity:0.7;stroke-width:0.708662;"/>
    <path clip-path="url(#p9b314aca4e)" d="M 658.251132 936 
L 658.251132 72 
" style="fill:none;stroke:#000000;stroke-opacity:0.7;stroke-width:0.708662;"/>
    <path clip-path="url(#p9b314aca4e)" d="M 660.267483 72 
L 660.267483 936 
" style="fill:none;stroke:#000000;stroke-opacity:0.7;stroke-width:0.708662;"/>
    <path clip-path="url(#p9b314aca4e)" d="M 662.273521 936 
L 662.273521 72 
" style="fill:none;stroke:#000000;stroke-opacity:0.7;stroke-width:0.708662;"/>
    <path clip-path="url(#p9b314aca4e)" d="M 664.269384 72 
L 664.269384 936 
" style="fill:none;stroke:#000000;stroke-opacity:0.7;stroke-width:0.708662;"/>
    <path clip-path="url(#p9b314aca4e)" d="M 666.255209 936 
L 666.255209 72 
" style="fill:none;stroke:#000000;stroke-opacity:0.7;stroke-width:0.708662;"/>
    <path clip-path="url(#p9b314aca4e)" d="M 668.231129 72 
L 668.231129 936 
" style="fill:none;stroke:#000000;stroke-opacity:0.7;stroke-width:0.708662;"/>
    <path clip-path="url(#p9b314aca4e)" d="M 670.197276 936 
L 670.197276 72 
" style="fill:none;stroke:#000000;stroke-opacity:0.7;stroke-width:0.708662;"/>
    <path clip-path="url(#p9b314aca4e)" d="M 672.153776 72 
L 672.153776 936 
" style="fill:none;stroke:#000000;stroke-opacity:0.7;stroke-width:0.708662;"/>
    <path clip-path="url(#p9b314aca4e)" d="M 674.100756 936 
L 674.100756 72 
" style="fill:none;stroke:#000000;stroke-opacity:0.7;stroke-width:0.708662;"/>
    <path clip-path="url(#p9b314aca4e)" d="M 676.038338 72 
L 676.038338 936 
" style="fill:none;stroke:#000000;stroke-opacity:0.7;stroke-width:0.708662;"/>
    <path clip-path="url(#p9b314aca4e)" d="M 677.966641 936 
L 677.966641 72 
" style="fill:none;stroke:#000000;stroke-opacity:0.7;stroke-width:0.708662;"/>
    <path clip-path="url(#p9b314aca4e)" d="M 679.885784 72 
L 679.885784 936 
" style="fill:none;stroke:#000000;stroke-opacity:0.7;stroke-width:0.708662;"/>
    <path clip-path="url(#p9b314aca4e)" d="M 681.795881 936 
L 681.795881 72 
" style="fill:none;stroke:#000000;stroke-opacity:0.7;stroke-width:0.708662;"/>
    <path clip-path="url(#p9b314aca4e)" d="M 683.697045 72 
L 683.697045 936 
" style="fill:none;stroke:#000000;stroke-opacity:0.7;stroke-width:0.708662;"/>
    <path clip-path="url(#p9b314aca4e)" d="M 685.589387 936 
L 685.589387 72 
" style="fill:none;stroke:#000000;stroke-opacity:0.7;stroke-width:0.708662;"/>
    <path clip-path="url(#p9b314aca4e)" d="M 687.473016 72 
L 687.473016 936 
" style="fill:none;stroke:#000000;stroke-opacity:0.7;stroke-width:0.708662;"/>
    <path clip-path="url(#p9b314aca4e)" d="M 689.348036 936 
L 689.348036 72 
" style="fill:none;stroke:#000000;stroke-opacity:0.7;stroke-width:0.708662;"/>
    <path clip-path="url(#p9b314aca4e)" d="M 691.214553 72 
L 691.214553 936 
" style="fill:none;stroke:#000000;stroke-opacity:0.7;stroke-width:0.708662;"/>
    <path clip-path="url(#p9b314aca4e)" d="M 693.072669 936 
L 693.072669 72 
" style="fill:none;stroke:#000000;stroke-opacity:0.7;stroke-width:0.708662;"/>
    <path clip-path="url(#p9b314aca4e)" d="M 694.922483 72 
L 694.922483 936 
" style="fill:none;stroke:#000000;stroke-opacity:0.7;stroke-width:0.708662;"/>
    <path clip-path="url(#p9b314aca4e)" d="M 696.764094 936 
L 696.764094 72 
" style="fill:none;stroke:#000000;stroke-opacity:0.7;stroke-width:0.708662;"/>
    <path clip-path="url(#p9b314aca4e)" d="M 698.597597 72 
L 698.597597 936 
" style="fill:none;stroke:#000000;stroke-opacity:0.7;stroke-width:0.708662;"/>
    <path clip-path="url(#p9b314aca4e)" d="M 700.423089 936 
L 700.423089 72 
" style="fill:none;stroke:#000000;stroke-opacity:0.7;stroke-width:0.708662;"/>
    <path clip-path="url(#p9b314aca4e)" d="M 702.24066 72 
L 702.24066 936 
" style="fill:none;stroke:#000000;stroke-opacity:0.7;stroke-width:0.708662;"/>
    <path clip-path="url(#p9b314aca4e)" d="M 704.050403 936 
L 704.050403 72 
" style="fill:none;stroke:#000000;stroke-opacity:0.7;stroke-width:0.708662;"/>
    <path clip-path="url(#p9b314aca4e)" d="M 705.852407 72 
L 705.852407 936 
" style="fill:none;stroke:#000000;stroke-opacity:0.7;stroke-width:0.708662;"/>
    <path clip-path="url(#p9b314aca4e)" d="M 707.646758 936 
L 707.646758 72 
" style="fill:none;stroke:#000000;stroke-opacity:0.7;stroke-width:0.708662;"/>
    <path clip-path="url(#p9b314aca4e)" d="M 709.433543 72 
L 709.433543 936 
" style="fill:none;stroke:#000000;stroke-opacity:0.7;stroke-width:0.708662;"/>
    <path clip-path="url(#p9b314aca4e)" d="M 711.212848 936 
L 711.212848 72 
" style="fill:none;stroke:#000000;stroke-opacity:0.7;stroke-width:0.708662;"/>
    <path clip-path="url(#p9b314aca4e)" d="M 712.984753 72 
L 712.984753 936 
" style="fill:none;stroke:#000000;stroke-opacity:0.7;stroke-width:0.708662;"/>
    <path clip-path="url(#p9b314aca4e)" d="M 714.749342 936 
L 714.749342 72 
" style="fill:none;stroke:#000000;stroke-opacity:0.7;stroke-width:0.708662;"/>
    <path clip-path="url(#p9b314aca4e)" d="M 716.506694 72 
L 716.506694 936 
" style="fill:none;stroke:#000000;stroke-opacity:0.7;stroke-width:0.708662;"/>
    <path clip-path="url(#p9b314aca4e)" d="M 718.256888 936 
L 718.256888 72 
" style="fill:none;stroke:#000000;stroke-opacity:0.7;stroke-width:0.708662;"/>
    <path clip-path="url(#p9b314aca4e)" d="M 720 72 
L 720 936 
" style="fill:none;stroke:#000000;stroke-opacity:0.7;stroke-width:0.708662;"/>
    <path clip-path="url(#p9b314aca4e)" d="M 72 936 
L 720 936 
" style="fill:none;stroke:#000000;stroke-opacity:0.7;stroke-width:0.708662;"/>
    <path clip-path="url(#p9b314aca4e)" d="M 720 819.254746 
L 72 819.254746 
" style="fill:none;stroke:#000000;stroke-opacity:0.7;stroke-width:0.708662;"/>
    <path clip-path="url(#p9b314aca4e)" d="M 72 781.953714 
L 720 781.953714 
" style="fill:none;stroke:#000000;stroke-opacity:0.7;stroke-width:0.708662;"/>
    <path clip-path="url(#p9b314aca4e)" d="M 720 754.829394 
L 72 754.829394 
" style="fill:none;stroke:#000000;stroke-opacity:0.7;stroke-width:0.708662;"/>
    <path clip-path="url(#p9b314aca4e)" d="M 72 732.734706 
L 720 732.734706 
" style="fill:none;stroke:#000000;stroke-opacity:0.7;stroke-width:0.708662;"/>
    <path clip-path="url(#p9b314aca4e)" d="M 720 713.757437 
L 72 713.757437 
" style="fill:none;stroke:#000000;stroke-opacity:0.7;stroke-width:0.708662;"/>
    <path clip-path="url(#p9b314aca4e)" d="M 72 696.943952 
L 720 696.943952 
" style="fill:none;stroke:#000000;stroke-opacity:0.7;stroke-width:0.708662;"/>
    <path clip-path="url(#p9b314aca4e)" d="M 720 681.739761 
L 72 681.739761 
" style="fill:none;stroke:#000000;stroke-opacity:0.7;stroke-width:0.708662;"/>
    <path clip-path="url(#p9b314aca4e)" d="M 72 667.789837 
L 720 667.789837 
" style="fill:none;stroke:#000000;stroke-opacity:0.7;stroke-width:0.708662;"/>
    <path clip-path="url(#p9b314aca4e)" d="M 720 654.851197 
L 72 654.851197 
" style="fill:none;stroke:#000000;stroke-opacity:0.7;stroke-width:0.708662;"/>
    <path clip-path="url(#p9b314aca4e)" d="M 72 642.74918 
L 720 642.74918 
" style="fill:none;stroke:#000000;stroke-opacity:0.7;stroke-width:0.708662;"/>
    <path clip-path="url(#p9b314aca4e)" d="M 720 631.353419 
L 72 631.353419 
" style="fill:none;stroke:#000000;stroke-opacity:0.7;stroke-width:0.708662;"/>
    <path clip-path="url(#p9b314aca4e)" d="M 72 620.563654 
L 720 620.563654 
" style="fill:none;stroke:#000000;stroke-opacity:0.7;stroke-width:0.708662;"/>
    <path clip-path="url(#p9b314aca4e)" d="M 720 610.300887 
L 72 610.300887 
" style="fill:none;stroke:#000000;stroke-opacity:0.7;stroke-width:0.708662;"/>
    <path clip-path="url(#p9b314aca4e)" d="M 72 600.501603 
L 720 600.501603 
" style="fill:none;stroke:#000000;stroke-opacity:0.7;stroke-width:0.708662;"/>
    <path clip-path="url(#p9b314aca4e)" d="M 720 591.113862 
L 72 591.113862 
" style="fill:none;stroke:#000000;stroke-opacity:0.7;stroke-width:0.708662;"/>
    <path clip-path="url(#p9b314aca4e)" d="M 72 582.094568 
L 720 582.094568 
" style="fill:none;stroke:#000000;stroke-opacity:0.7;stroke-width:0.708662;"/>
    <path clip-path="url(#p9b314aca4e)" d="M 720 573.407511 
L 72 573.407511 
" style="fill:none;stroke:#000000;stroke-opacity:0.7;stroke-width:0.708662;"/>
    <path clip-path="url(#p9b314aca4e)" d="M 72 565.02193 
L 720 565.02193 
" style="fill:none;stroke:#000000;stroke-opacity:0.7;stroke-width:0.708662;"/>
    <path clip-path="url(#p9b314aca4e)" d="M 720 556.911443 
L 72 556.911443 
" style="fill:none;stroke:#000000;stroke-opacity:0.7;stroke-width:0.708662;"/>
    <path clip-path="url(#p9b314aca4e)" d="M 72 549.053223 
L 720 549.053223 
" style="fill:none;stroke:#000000;stroke-opacity:0.7;stroke-width:0.708662;"/>
    <path clip-path="url(#p9b314aca4e)" d="M 720 541.427373 
L 72 541.427373 
" style="fill:none;stroke:#000000;stroke-opacity:0.7;stroke-width:0.708662;"/>
    <path clip-path="url(#p9b314aca4e)" d="M 72 534.016426 
L 720 534.016426 
" style="fill:none;stroke:#000000;stroke-opacity:0.7;stroke-width:0.708662;"/>
    <path clip-path="url(#p9b314aca4e)" d="M 720 526.804952 
L 72 526.804952 
" style="fill:none;stroke:#000000;stroke-opacity:0.7;stroke-width:0.708662;"/>
    <path clip-path="url(#p9b314aca4e)" d="M 72 519.779246 
L 720 519.779246 
" style="fill:none;stroke:#000000;stroke-opacity:0.7;stroke-width:0.708662;"/>
    <path clip-path="url(#p9b314aca4e)" d="M 720 512.92707 
L 72 512.92707 
" style="fill:none;stroke:#000000;stroke-opacity:0.7;stroke-width:0.708662;"/>
    <path clip-path="url(#p9b314aca4e)" d="M 72 506.237444 
L 720 506.237444 
" style="fill:none;stroke:#000000;stroke-opacity:0.7;stroke-width:0.708662;"/>
    <path clip-path="url(#p9b314aca4e)" d="M 720 499.700474 
L 72 499.700474 
" style="fill:none;stroke:#000000;stroke-opacity:0.7;stroke-width:0.708662;"/>
    <path clip-path="url(#p9b314aca4e)" d="M 72 493.307211 
L 720 493.307211 
" style="fill:none;stroke:#000000;stroke-opacity:0.7;stroke-width:0.708662;"/>
    <path clip-path="url(#p9b314aca4e)" d="M 720 487.049526 
L 72 487.049526 
" style="fill:none;stroke:#000000;stroke-opacity:0.7;stroke-width:0.708662;"/>
    <path clip-path="url(#p9b314aca4e)" d="M 72 480.920013 
L 720 480.920013 
" style="fill:none;stroke:#000000;stroke-opacity:0.7;stroke-width:0.708662;"/>
    <path clip-path="url(#p9b314aca4e)" d="M 720 474.911901 
L 72 474.911901 
" style="fill:none;stroke:#000000;stroke-opacity:0.7;stroke-width:0.708662;"/>
    <path clip-path="url(#p9b314aca4e)" d="M 72 469.018983 
L 720 469.018983 
" style="fill:none;stroke:#000000;stroke-opacity:0.7;stroke-width:0.708662;"/>
    <path clip-path="url(#p9b314aca4e)" d="M 720 463.235551 
L 72 463.235551 
" style="fill:none;stroke:#000000;stroke-opacity:0.7;stroke-width:0.708662;"/>
    <path clip-path="url(#p9b314aca4e)" d="M 72 457.556342 
L 720 457.556342 
" style="fill:none;stroke:#000000;stroke-opacity:0.7;stroke-width:0.708662;"/>
    <path clip-path="url(#p9b314aca4e)" d="M 720 451.976494 
L 72 451.976494 
" style="fill:none;stroke:#000000;stroke-opacity:0.7;stroke-width:0.708662;"/>
    <path clip-path="url(#p9b314aca4e)" d="M 72 446.491502 
L 720 446.491502 
" style="fill:none;stroke:#000000;stroke-opacity:0.7;stroke-width:0.708662;"/>
    <path clip-path="url(#p9b314aca4e)" d="M 720 441.097184 
L 72 441.097184 
" style="fill:none;stroke:#000000;stroke-opacity:0.7;stroke-width:0.708662;"/>
    <path clip-path="url(#p9b314aca4e)" d="M 72 435.78965 
L 720 435.78965 
" style="fill:none;stroke:#000000;stroke-opacity:0.7;stroke-width:0.708662;"/>
    <path clip-path="url(#p9b314aca4e)" d="M 720 430.565273 
L 72 430.565273 
" style="fill:none;stroke:#000000;stroke-opacity:0.7;stroke-width:0.708662;"/>
    <path clip-path="url(#p9b314aca4e)" d="M 72 425.420667 
L 720 425.420667 
" style="fill:none;stroke:#000000;stroke-opacity:0.7;stroke-width:0.708662;"/>
    <path clip-path="url(#p9b314aca4e)" d="M 720 420.352665 
L 72 420.352665 
" style="fill:none;stroke:#000000;stroke-opacity:0.7;stroke-width:0.708662;"/>
    <path clip-path="url(#p9b314aca4e)" d="M 72 415.358298 
L 720 415.358298 
" style="fill:none;stroke:#000000;stroke-opacity:0.7;stroke-width:0.708662;"/>
    <path clip-path="url(#p9b314aca4e)" d="M 720 410.43478 
L 72 410.43478 
" style="fill:none;stroke:#000000;stroke-opacity:0.7;stroke-width:0.708662;"/>
    <path clip-path="url(#p9b314aca4e)" d="M 72 405.579494 
L 720 405.579494 
" style="fill:none;stroke:#000000;stroke-opacity:0.7;stroke-width:0.708662;"/>
    <path clip-path="url(#p9b314aca4e)" d="M 720 400.789974 
L 72 400.789974 
" style="fill:none;stroke:#000000;stroke-opacity:0.7;stroke-width:0.708662;"/>
    <path clip-path="url(#p9b314aca4e)" d="M 72 396.063897 
L 720 396.063897 
" style="fill:none;stroke:#000000;stroke-opacity:0.7;stroke-width:0.708662;"/>
    <path clip-path="url(#p9b314aca4e)" d="M 720 391.39907 
L 72 391.39907 
" style="fill:none;stroke:#000000;stroke-opacity:0.7;stroke-width:0.708662;"/>
    <path clip-path="url(#p9b314aca4e)" d="M 72 386.793422 
L 720 386.793422 
" style="fill:none;stroke:#000000;stroke-opacity:0.7;stroke-width:0.708662;"/>
    <path clip-path="url(#p9b314aca4e)" d="M 720 382.244992 
L 72 382.244992 
" style="fill:none;stroke:#000000;stroke-opacity:0.7;stroke-width:0.708662;"/>
    <path clip-path="url(#p9b314aca4e)" d="M 72 377.751922 
L 720 377.751922 
" style="fill:none;stroke:#000000;stroke-opacity:0.7;stroke-width:0.708662;"/>
    <path clip-path="url(#p9b314aca4e)" d="M 720 373.312451 
L 72 373.312451 
" style="fill:none;stroke:#000000;stroke-opacity:0.7;stroke-width:0.708662;"/>
    <path clip-path="url(#p9b314aca4e)" d="M 72 368.924907 
L 720 368.924907 
" style="fill:none;stroke:#000000;stroke-opacity:0.7;stroke-width:0.708662;"/>
    <path clip-path="url(#p9b314aca4e)" d="M 720 364.587702 
L 72 364.587702 
" style="fill:none;stroke:#000000;stroke-opacity:0.7;stroke-width:0.708662;"/>
    <path clip-path="url(#p9b314aca4e)" d="M 72 360.299324 
L 720 360.299324 
" style="fill:none;stroke:#000000;stroke-opacity:0.7;stroke-width:0.708662;"/>
    <path clip-path="url(#p9b314aca4e)" d="M 720 356.058335 
L 72 356.058335 
" style="fill:none;stroke:#000000;stroke-opacity:0.7;stroke-width:0.708662;"/>
    <path clip-path="url(#p9b314aca4e)" d="M 72 351.863363 
L 720 351.863363 
" style="fill:none;stroke:#000000;stroke-opacity:0.7;stroke-width:0.708662;"/>
    <path clip-path="url(#p9b314aca4e)" d="M 720 347.7131 
L 72 347.7131 
" style="fill:none;stroke:#000000;stroke-opacity:0.7;stroke-width:0.708662;"/>
    <path clip-path="url(#p9b314aca4e)" d="M 72 343.606298 
L 720 343.606298 
" style="fill:none;stroke:#000000;stroke-opacity:0.7;stroke-width:0.708662;"/>
    <path clip-path="url(#p9b314aca4e)" d="M 720 339.541764 
L 72 339.541764 
" style="fill:none;stroke:#000000;stroke-opacity:0.7;stroke-width:0.708662;"/>
    <path clip-path="url(#p9b314aca4e)" d="M 72 335.518357 
L 720 335.518357 
" style="fill:none;stroke:#000000;stroke-opacity:0.7;stroke-width:0.708662;"/>
    <path clip-path="url(#p9b314aca4e)" d="M 720 331.534986 
L 72 331.534986 
" style="fill:none;stroke:#000000;stroke-opacity:0.7;stroke-width:0.708662;"/>
    <path clip-path="url(#p9b314aca4e)" d="M 72 327.590606 
L 720 327.590606 
" style="fill:none;stroke:#000000;stroke-opacity:0.7;stroke-width:0.708662;"/>
    <path clip-path="url(#p9b314aca4e)" d="M 720 323.684216 
L 72 323.684216 
" style="fill:none;stroke:#000000;stroke-opacity:0.7;stroke-width:0.708662;"/>
    <path clip-path="url(#p9b314aca4e)" d="M 72 319.814854 
L 720 319.814854 
" style="fill:none;stroke:#000000;stroke-opacity:0.7;stroke-width:0.708662;"/>
    <path clip-path="url(#p9b314aca4e)" d="M 720 315.9816 
L 72 315.9816 
" style="fill:none;stroke:#000000;stroke-opacity:0.7;stroke-width:0.708662;"/>
    <path clip-path="url(#p9b314aca4e)" d="M 72 312.183569 
L 720 312.183569 
" style="fill:none;stroke:#000000;stroke-opacity:0.7;stroke-width:0.708662;"/>
    <path clip-path="url(#p9b314aca4e)" d="M 720 308.419911 
L 72 308.419911 
" style="fill:none;stroke:#000000;stroke-opacity:0.7;stroke-width:0.708662;"/>
    <path clip-path="url(#p9b314aca4e)" d="M 72 304.689809 
L 720 304.689809 
" style="fill:none;stroke:#000000;stroke-opacity:0.7;stroke-width:0.708662;"/>
    <path clip-path="url(#p9b314aca4e)" d="M 720 300.992476 
L 72 300.992476 
" style="fill:none;stroke:#000000;stroke-opacity:0.7;stroke-width:0.708662;"/>
    <path clip-path="url(#p9b314aca4e)" d="M 72 297.327155 
L 720 297.327155 
" style="fill:none;stroke:#000000;stroke-opacity:0.7;stroke-width:0.708662;"/>
    <path clip-path="url(#p9b314aca4e)" d="M 720 293.693119 
L 72 293.693119 
" style="fill:none;stroke:#000000;stroke-opacity:0.7;stroke-width:0.708662;"/>
    <path clip-path="url(#p9b314aca4e)" d="M 72 290.089665 
L 720 290.089665 
" style="fill:none;stroke:#000000;stroke-opacity:0.7;stroke-width:0.708662;"/>
    <path clip-path="url(#p9b314aca4e)" d="M 720 286.516116 
L 72 286.516116 
" style="fill:none;stroke:#000000;stroke-opacity:0.7;stroke-width:0.708662;"/>
    <path clip-path="url(#p9b314aca4e)" d="M 72 282.97182 
L 720 282.97182 
" style="fill:none;stroke:#000000;stroke-opacity:0.7;stroke-width:0.708662;"/>
    <path clip-path="url(#p9b314aca4e)" d="M 720 279.456146 
L 72 279.456146 
" style="fill:none;stroke:#000000;stroke-opacity:0.7;stroke-width:0.708662;"/>
    <path clip-path="url(#p9b314aca4e)" d="M 72 275.968486 
L 720 275.968486 
" style="fill:none;stroke:#000000;stroke-opacity:0.7;stroke-width:0.708662;"/>
    <path clip-path="url(#p9b314aca4e)" d="M 720 272.508253 
L 72 272.508253 
" style="fill:none;stroke:#000000;stroke-opacity:0.7;stroke-width:0.708662;"/>
    <path clip-path="url(#p9b314aca4e)" d="M 72 269.074879 
L 720 269.074879 
" style="fill:none;stroke:#000000;stroke-opacity:0.7;stroke-width:0.708662;"/>
    <path clip-path="url(#p9b314aca4e)" d="M 720 265.667815 
L 72 265.667815 
" style="fill:none;stroke:#000000;stroke-opacity:0.7;stroke-width:0.708662;"/>
    <path clip-path="url(#p9b314aca4e)" d="M 72 262.286531 
L 720 262.286531 
" style="fill:none;stroke:#000000;stroke-opacity:0.7;stroke-width:0.708662;"/>
    <path clip-path="url(#p9b314aca4e)" d="M 720 258.930512 
L 72 258.930512 
" style="fill:none;stroke:#000000;stroke-opacity:0.7;stroke-width:0.708662;"/>
    <path clip-path="url(#p9b314aca4e)" d="M 72 255.599262 
L 720 255.599262 
" style="fill:none;stroke:#000000;stroke-opacity:0.7;stroke-width:0.708662;"/>
    <path clip-path="url(#p9b314aca4e)" d="M 720 252.292298 
L 72 252.292298 
" style="fill:none;stroke:#000000;stroke-opacity:0.7;stroke-width:0.708662;"/>
    <path clip-path="url(#p9b314aca4e)" d="M 72 249.009155 
L 720 249.009155 
" style="fill:none;stroke:#000000;stroke-opacity:0.7;stroke-width:0.708662;"/>
    <path clip-path="url(#p9b314aca4e)" d="M 720 245.74938 
L 72 245.74938 
" style="fill:none;stroke:#000000;stroke-opacity:0.7;stroke-width:0.708662;"/>
    <path clip-path="url(#p9b314aca4e)" d="M 72 242.512535 
L 720 242.512535 
" style="fill:none;stroke:#000000;stroke-opacity:0.7;stroke-width:0.708662;"/>
    <path clip-path="url(#p9b314aca4e)" d="M 720 239.298194 
L 72 239.298194 
" style="fill:none;stroke:#000000;stroke-opacity:0.7;stroke-width:0.708662;"/>
    <path clip-path="url(#p9b314aca4e)" d="M 72 236.105946 
L 720 236.105946 
" style="fill:none;stroke:#000000;stroke-opacity:0.7;stroke-width:0.708662;"/>
    <path clip-path="url(#p9b314aca4e)" d="M 720 232.93539 
L 72 232.93539 
" style="fill:none;stroke:#000000;stroke-opacity:0.7;stroke-width:0.708662;"/>
    <path clip-path="url(#p9b314aca4e)" d="M 72 229.786136 
L 720 229.786136 
" style="fill:none;stroke:#000000;stroke-opacity:0.7;stroke-width:0.708662;"/>
    <path clip-path="url(#p9b314aca4e)" d="M 720 226.657809 
L 72 226.657809 
" style="fill:none;stroke:#000000;stroke-opacity:0.7;stroke-width:0.708662;"/>
    <path clip-path="url(#p9b314aca4e)" d="M 72 223.550041 
L 720 223.550041 
" style="fill:none;stroke:#000000;stroke-opacity:0.7;stroke-width:0.708662;"/>
    <path clip-path="url(#p9b314aca4e)" d="M 720 220.462475 
L 72 220.462475 
" style="fill:none;stroke:#000000;stroke-opacity:0.7;stroke-width:0.708662;"/>
    <path clip-path="url(#p9b314aca4e)" d="M 72 217.394765 
L 720 217.394765 
" style="fill:none;stroke:#000000;stroke-opacity:0.7;stroke-width:0.708662;"/>
    <path clip-path="url(#p9b314aca4e)" d="M 720 214.346575 
L 72 214.346575 
" style="fill:none;stroke:#000000;stroke-opacity:0.7;stroke-width:0.708662;"/>
    <path clip-path="url(#p9b314aca4e)" d="M 72 211.317576 
L 720 211.317576 
" style="fill:none;stroke:#000000;stroke-opacity:0.7;stroke-width:0.708662;"/>
    <path clip-path="url(#p9b314aca4e)" d="M 720 208.30745 
L 72 208.30745 
" style="fill:none;stroke:#000000;stroke-opacity:0.7;stroke-width:0.708662;"/>
    <path clip-path="url(#p9b314aca4e)" d="M 72 205.315886 
L 720 205.315886 
" style="fill:none;stroke:#000000;stroke-opacity:0.7;stroke-width:0.708662;"/>
    <path clip-path="url(#p9b314aca4e)" d="M 720 202.342582 
L 72 202.342582 
" style="fill:none;stroke:#000000;stroke-opacity:0.7;stroke-width:0.708662;"/>
    <path clip-path="url(#p9b314aca4e)" d="M 72 199.387244 
L 720 199.387244 
" style="fill:none;stroke:#000000;stroke-opacity:0.7;stroke-width:0.708662;"/>
    <path clip-path="url(#p9b314aca4e)" d="M 720 196.449586 
L 72 196.449586 
" style="fill:none;stroke:#000000;stroke-opacity:0.7;stroke-width:0.708662;"/>
    <path clip-path="url(#p9b314aca4e)" d="M 72 193.529327 
L 720 193.529327 
" style="fill:none;stroke:#000000;stroke-opacity:0.7;stroke-width:0.708662;"/>
    <path clip-path="url(#p9b314aca4e)" d="M 720 190.626197 
L 72 190.626197 
" style="fill:none;stroke:#000000;stroke-opacity:0.7;stroke-width:0.708662;"/>
    <path clip-path="url(#p9b314aca4e)" d="M 72 187.739929 
L 720 187.739929 
" style="fill:none;stroke:#000000;stroke-opacity:0.7;stroke-width:0.708662;"/>
    <path clip-path="url(#p9b314aca4e)" d="M 720 184.870265 
L 72 184.870265 
" style="fill:none;stroke:#000000;stroke-opacity:0.7;stroke-width:0.708662;"/>
    <path clip-path="url(#p9b314aca4e)" d="M 72 182.016953 
L 720 182.016953 
" style="fill:none;stroke:#000000;stroke-opacity:0.7;stroke-width:0.708662;"/>
    <path clip-path="url(#p9b314aca4e)" d="M 720 179.179746 
L 72 179.179746 
" style="fill:none;stroke:#000000;stroke-opacity:0.7;stroke-width:0.708662;"/>
    <path clip-path="url(#p9b314aca4e)" d="M 72 176.358404 
L 720 176.358404 
" style="fill:none;stroke:#000000;stroke-opacity:0.7;stroke-width:0.708662;"/>
    <path clip-path="url(#p9b314aca4e)" d="M 720 173.552694 
L 72 173.552694 
" style="fill:none;stroke:#000000;stroke-opacity:0.7;stroke-width:0.708662;"/>
    <path clip-path="url(#p9b314aca4e)" d="M 72 170.762386 
L 720 170.762386 
" style="fill:none;stroke:#000000;stroke-opacity:0.7;stroke-width:0.708662;"/>
    <path clip-path="url(#p9b314aca4e)" d="M 720 167.987256 
L 72 167.987256 
" style="fill:none;stroke:#000000;stroke-opacity:0.7;stroke-width:0.708662;"/>
    <path clip-path="url(#p9b314aca4e)" d="M 72 165.227087 
L 720 165.227087 
" style="fill:none;stroke:#000000;stroke-opacity:0.7;stroke-width:0.708662;"/>
    <path clip-path="url(#p9b314aca4e)" d="M 720 162.481665 
L 72 162.481665 
" style="fill:none;stroke:#000000;stroke-opacity:0.7;stroke-width:0.708662;"/>
    <path clip-path="url(#p9b314aca4e)" d="M 72 159.750782 
L 720 159.750782 
" style="fill:none;stroke:#000000;stroke-opacity:0.7;stroke-width:0.708662;"/>
    <path clip-path="url(#p9b314aca4e)" d="M 720 157.034235 
L 72 157.034235 
" style="fill:none;stroke:#000000;stroke-opacity:0.7;stroke-width:0.708662;"/>
    <path clip-path="url(#p9b314aca4e)" d="M 72 154.331824 
L 720 154.331824 
" style="fill:none;stroke:#000000;stroke-opacity:0.7;stroke-width:0.708662;"/>
    <path clip-path="url(#p9b314aca4e)" d="M 720 151.643356 
L 72 151.643356 
" style="fill:none;stroke:#000000;stroke-opacity:0.7;stroke-width:0.708662;"/>
    <path clip-path="url(#p9b314aca4e)" d="M 72 148.968639 
L 720 148.968639 
" style="fill:none;stroke:#000000;stroke-opacity:0.7;stroke-width:0.708662;"/>
    <path clip-path="url(#p9b314aca4e)" d="M 720 146.307489 
L 72 146.307489 
" style="fill:none;stroke:#000000;stroke-opacity:0.7;stroke-width:0.708662;"/>
    <path clip-path="url(#p9b314aca4e)" d="M 72 143.659722 
L 720 143.659722 
" style="fill:none;stroke:#000000;stroke-opacity:0.7;stroke-width:0.708662;"/>
    <path clip-path="url(#p9b314aca4e)" d="M 720 141.025161 
L 72 141.025161 
" style="fill:none;stroke:#000000;stroke-opacity:0.7;stroke-width:0.708662;"/>
    <path clip-path="url(#p9b314aca4e)" d="M 72 138.403633 
L 720 138.403633 
" style="fill:none;stroke:#000000;stroke-opacity:0.7;stroke-width:0.708662;"/>
    <path clip-path="url(#p9b314aca4e)" d="M 720 135.794965 
L 72 135.794965 
" style="fill:none;stroke:#000000;stroke-opacity:0.7;stroke-width:0.708662;"/>
    <path clip-path="url(#p9b314aca4e)" d="M 72 133.198992 
L 720 133.198992 
" style="fill:none;stroke:#000000;stroke-opacity:0.7;stroke-width:0.708662;"/>
    <path clip-path="url(#p9b314aca4e)" d="M 720 130.61555 
L 72 130.61555 
" style="fill:none;stroke:#000000;stroke-opacity:0.7;stroke-width:0.708662;"/>
    <path clip-path="url(#p9b314aca4e)" d="M 72 128.044479 
L 720 128.044479 
" style="fill:none;stroke:#000000;stroke-opacity:0.7;stroke-width:0.708662;"/>
    <path clip-path="url(#p9b314aca4e)" d="M 720 125.485622 
L 72 125.485622 
" style="fill:none;stroke:#000000;stroke-opacity:0.7;stroke-width:0.708662;"/>
    <path clip-path="url(#p9b314aca4e)" d="M 72 122.938826 
L 720 122.938826 
" style="fill:none;stroke:#000000;stroke-opacity:0.7;stroke-width:0.708662;"/>
    <path clip-path="url(#p9b314aca4e)" d="M 720 120.40394 
L 72 120.40394 
" style="fill:none;stroke:#000000;stroke-opacity:0.7;stroke-width:0.708662;"/>
    <path clip-path="url(#p9b314aca4e)" d="M 72 117.880817 
L 720 117.880817 
" style="fill:none;stroke:#000000;stroke-opacity:0.7;stroke-width:0.708662;"/>
    <path clip-path="url(#p9b314aca4e)" d="M 720 115.369313 
L 72 115.369313 
" style="fill:none;stroke:#000000;stroke-opacity:0.7;stroke-width:0.708662;"/>
    <path clip-path="url(#p9b314aca4e)" d="M 72 112.869285 
L 720 112.869285 
" style="fill:none;stroke:#000000;stroke-opacity:0.7;stroke-width:0.708662;"/>
    <path clip-path="url(#p9b314aca4e)" d="M 720 110.380596 
L 72 110.380596 
" style="fill:none;stroke:#000000;stroke-opacity:0.7;stroke-width:0.708662;"/>
    <path clip-path="url(#p9b314aca4e)" d="M 72 107.903108 
L 720 107.903108 
" style="fill:none;stroke:#000000;stroke-opacity:0.7;stroke-width:0.708662;"/>
    <path clip-path="url(#p9b314aca4e)" d="M 720 105.43669 
L 72 105.43669 
" style="fill:none;stroke:#000000;stroke-opacity:0.7;stroke-width:0.708662;"/>
    <path clip-path="url(#p9b314aca4e)" d="M 72 102.981209 
L 720 102.981209 
" style="fill:none;stroke:#000000;stroke-opacity:0.7;stroke-width:0.708662;"/>
    <path clip-path="url(#p9b314aca4e)" d="M 720 100.536537 
L 72 100.536537 
" style="fill:none;stroke:#000000;stroke-opacity:0.7;stroke-width:0.708662;"/>
    <path clip-path="url(#p9b314aca4e)" d="M 72 98.102548 
L 720 98.102548 
" style="fill:none;stroke:#000000;stroke-opacity:0.7;stroke-width:0.708662;"/>
    <path clip-path="url(#p9b314aca4e)" d="M 720 95.679119 
L 72 95.679119 
" style="fill:none;stroke:#000000;stroke-opacity:0.7;stroke-width:0.708662;"/>
    <path clip-path="url(#p9b314aca4e)" d="M 72 93.266129 
L 720 93.266129 
" style="fill:none;stroke:#000000;stroke-opacity:0.7;stroke-width:0.708662;"/>
    <path clip-path="url(#p9b314aca4e)" d="M 720 90.863458 
L 72 90.863458 
" style="fill:none;stroke:#000000;stroke-opacity:0.7;stroke-width:0.708662;"/>
    <path clip-path="url(#p9b314aca4e)" d="M 72 88.470989 
L 720 88.470989 
" style="fill:none;stroke:#000000;stroke-opacity:0.7;stroke-width:0.708662;"/>
    <path clip-path="url(#p9b314aca4e)" d="M 720 86.088609 
L 72 86.088609 
" style="fill:none;stroke:#000000;stroke-opacity:0.7;stroke-width:0.708662;"/>
    <path clip-path="url(#p9b314aca4e)" d="M 72 83.716203 
L 720 83.716203 
" style="fill:none;stroke:#000000;stroke-opacity:0.7;stroke-width:0.708662;"/>
    <path clip-path="url(#p9b314aca4e)" d="M 720 81.353662 
L 72 81.353662 
" style="fill:none;stroke:#000000;stroke-opacity:0.7;stroke-width:0.708662;"/>
    <path clip-path="url(#p9b314aca4e)" d="M 72 79.000877 
L 720 79.000877 
" style="fill:none;stroke:#000000;stroke-opacity:0.7;stroke-width:0.708662;"/>
    <path clip-path="url(#p9b314aca4e)" d="M 720 76.657741 
L 72 76.657741 
" style="fill:none;stroke:#000000;stroke-opacity:0.7;stroke-width:0.708662;"/>
    <path clip-path="url(#p9b314aca4e)" d="M 72 74.32415 
L 720 74.32415 
" style="fill:none;stroke:#000000;stroke-opacity:0.7;stroke-width:0.708662;"/>
    <path clip-path="url(#p9b314aca4e)" d="M 720 72 
L 72 72 
" style="fill:none;stroke:#000000;stroke-opacity:0.7;stroke-width:0.708662;"/>
   </g>
  </g>
 </g>
 <defs>
  <clipPath id="p9b314aca4e">
   <rect height="957.6" width="752.4" x="19.8" y="25.2"/>
  </clipPath>
 </defs>
</svg>
