<?xml version="1.0" encoding="utf-8" standalone="no"?>
<!DOCTYPE svg PUBLIC "-//W3C//DTD SVG 1.1//EN"
  "http://www.w3.org/Graphics/SVG/1.1/DTD/svg11.dtd">
<!-- Created with matplotlib (https://matplotlib.org/) -->
<svg height="792pt" version="1.1" viewBox="0 0 1008 792" width="1008pt" xmlns="http://www.w3.org/2000/svg" xmlns:xlink="http://www.w3.org/1999/xlink">
 <defs>
  <style type="text/css">
*{stroke-linecap:butt;stroke-linejoin:round;}
  </style>
 </defs>
 <g id="figure_1">
  <g id="axes_1">
   <g id="LineCollection_1">
    <path clip-path="url(#p382977f994)" d="M 25.2 626.211374 
L 115.703419 616.153734 
L 175.659644 604.880712 
L 224.972939 594 
" style="fill:none;stroke:#000000;stroke-opacity:0.7;stroke-width:1.275591;"/>
    <path clip-path="url(#p382977f994)" d="M 432 498.450542 
L 435.416584 497.411914 
L 438.993777 496.127286 
L 442.360497 494.947859 
L 445.941287 493.830678 
L 450.3617 492.736012 
L 455.127271 491.62697 
L 462.050393 490.469427 
L 468.505907 489.2322 
L 473.249694 487.887437 
L 477.904113 486.411134 
L 481.43839 484.783742 
L 484.347082 482.990766 
L 488.395332 482.62154 
L 494.306047 480.687799 
L 499.269166 478.659456 
L 503.997745 476.57428 
L 508.795 474.465589 
L 511.611778 472.362096 
L 513.881584 470.288019 
L 515.066292 468.263369 
L 517.711259 466.304357 
L 520.250714 464.423856 
L 523.385662 462.63189 
L 526.039437 460.936113 
L 528.586422 459.342261 
L 530.561012 457.854569 
L 532.678139 456.476152 
L 534.922442 455.209339 
L 537.648888 454.055982 
L 541.791809 453.790405 
L 544.131014 452.704188 
L 545.635154 451.63578 
L 546.408227 450.592884 
L 546.726753 449.582171 
L 546.848778 448.609394 
L 547.451552 447.6795 
L 547.978281 446.796752 
L 548.571637 445.96485 
L 550.008093 445.187043 
L 550.999708 444.466247 
L 553.04816 443.805158 
L 556.412726 443.206354 
L 559.559274 442.672413 
L 562.294187 442.206013 
L 565.777935 441.810053 
L 568.477055 441.487769 
L 571.095124 441.262139 
L 574.145571 441.014342 
L 576 440.911849 
" style="fill:none;stroke:#000000;stroke-opacity:0.7;stroke-width:1.275591;"/>
    <path clip-path="url(#p382977f994)" d="M 864 430.727316 
L 864.893419 430.719904 
L 871.204059 430.674899 
L 877.185479 430.629383 
L 883.696823 430.582533 
L 889.849594 430.533506 
L 895.815317 430.481438 
L 899.963918 430.425447 
L 904.04888 430.364627 
L 908.039939 430.298057 
L 912.854767 430.224797 
L 917.596381 430.143895 
L 923.435987 430.054386 
L 930.309463 429.955297 
L 936.896664 429.845653 
L 944.040863 429.724481 
L 950.326609 429.590812 
L 953.851581 429.253565 
L 959.986702 429.100851 
L 966.654105 428.928711 
L 972.283837 428.73955 
L 978.723151 428.535816 
L 982.8 428.395042 
" style="fill:none;stroke:#000000;stroke-opacity:0.7;stroke-width:1.275591;"/>
    <path clip-path="url(#p382977f994)" d="M 982.8 426.153558 
L 978.456861 426.309845 
L 972.01799 426.52307 
L 966.380493 426.722501 
L 959.711008 426.90583 
L 953.571213 427.07078 
L 950.041452 427.408027 
L 943.752679 427.554794 
L 936.609279 427.689602 
L 930.021919 427.813343 
L 923.149114 427.926916 
L 917.304206 428.031225 
L 912.553804 428.127174 
L 907.731365 428.215663 
L 903.729861 428.297582 
L 899.636174 428.37381 
L 895.482651 428.445214 
L 889.525224 428.512644 
L 883.384358 428.576936 
L 876.886245 428.638904 
L 870.914913 428.699349 
L 864.611093 428.75905 
L 864 428.76574 
" style="fill:none;stroke:#000000;stroke-opacity:0.7;stroke-width:1.275591;"/>
    <path clip-path="url(#p382977f994)" d="M 576 439.443276 
L 573.999596 439.554699 
L 570.949169 439.801777 
L 568.327555 440.027407 
L 565.629972 440.346604 
L 562.153078 440.737164 
L 559.420379 441.195989 
L 556.279459 441.720303 
L 552.920268 442.30754 
L 550.863094 442.955233 
L 549.857656 443.660908 
L 548.412274 444.421978 
L 547.806344 445.23564 
L 547.271053 446.098764 
L 546.666818 447.007784 
L 546.539066 447.958584 
L 546.217231 448.946379 
L 545.441632 449.965605 
L 543.939294 451.009798 
L 541.603341 452.071493 
L 537.47715 452.33707 
L 534.753419 453.464262 
L 532.507489 454.701818 
L 530.384711 456.047982 
L 528.407763 457.500534 
L 525.860282 459.056487 
L 523.206242 460.711766 
L 520.075455 462.460833 
L 517.536227 464.296285 
L 514.881311 466.208411 
L 513.676724 468.184727 
L 511.390669 470.209498 
L 508.558416 472.263286 
L 503.751792 474.322557 
L 499.017409 476.359392 
L 494.050395 478.341382 
L 488.142258 480.231775 
L 484.086379 480.601001 
L 481.161549 482.35503 
L 477.613072 483.948313 
L 472.949032 485.394892 
L 468.196708 486.713732 
L 461.745533 487.928144 
L 454.82597 489.065196 
L 450.056915 490.15521 
L 445.63391 491.231386 
L 442.047553 492.329632 
L 438.675408 493.488638 
L 435.100229 494.750249 
L 432 495.67565 
" style="fill:none;stroke:#000000;stroke-opacity:0.7;stroke-width:1.275591;"/>
    <path clip-path="url(#p382977f994)" d="M 201.824872 594 
L 174.996615 599.79059 
L 115.13565 610.809028 
L 25.2 620.596496 
" style="fill:none;stroke:#000000;stroke-opacity:0.7;stroke-width:1.275591;"/>
    <path clip-path="url(#p382977f994)" d="M 25.2 614.983561 
L 114.567881 605.464323 
L 174.333586 594.700469 
L 177.652966 594 
" style="fill:none;stroke:#000000;stroke-opacity:0.7;stroke-width:1.275591;"/>
    <path clip-path="url(#p382977f994)" d="M 432 492.904221 
L 434.783874 492.088584 
L 438.357039 490.849989 
L 441.73461 489.711404 
L 445.326534 488.632093 
L 449.75213 487.574407 
L 454.52467 486.503422 
L 461.440673 485.386861 
L 467.887509 484.195264 
L 472.64837 482.902347 
L 477.322031 481.485493 
L 480.884708 479.926319 
L 483.825677 478.211237 
L 487.889184 477.842011 
L 493.794742 475.994965 
L 498.765651 474.059327 
L 503.505839 472.070834 
L 508.321831 470.060983 
L 511.16956 468.056899 
L 513.471864 466.081435 
L 514.696329 464.153453 
L 517.361195 462.288213 
L 519.900196 460.49781 
L 523.026822 458.791642 
L 525.681127 457.176861 
L 528.229104 455.658807 
L 530.208409 454.241395 
L 532.33684 452.927483 
L 534.584396 451.719184 
L 537.305411 450.618158 
L 541.414873 450.352581 
L 543.747574 449.315408 
L 545.248109 448.295429 
L 546.026234 447.299874 
L 546.351378 446.334996 
L 546.484858 445.406175 
L 547.090555 444.518028 
L 547.634408 443.674528 
L 548.25291 442.879106 
L 549.70722 442.134773 
L 550.726479 441.444219 
L 552.792375 440.809923 
L 556.146192 440.234252 
L 559.281483 439.719565 
L 562.01197 439.268316 
L 565.482008 438.883155 
L 568.178055 438.567046 
L 570.803213 438.341415 
L 573.853621 438.095056 
L 576 437.974577 
" style="fill:none;stroke:#000000;stroke-opacity:0.7;stroke-width:1.275591;"/>
    <path clip-path="url(#p382977f994)" d="M 864 426.802668 
L 864.328767 426.798196 
L 870.625768 426.723798 
L 876.587012 426.648426 
L 883.071893 426.571339 
L 889.200854 426.491783 
L 895.149985 426.408989 
L 899.308431 426.322173 
L 903.410841 426.230536 
L 907.42279 426.13327 
L 912.252841 426.029552 
L 917.012031 425.918555 
L 922.862241 425.799446 
L 929.734375 425.671389 
L 936.321894 425.533551 
L 943.464495 425.385107 
L 949.756294 425.225243 
L 953.290844 424.887996 
L 959.435314 424.710808 
L 966.106881 424.516291 
L 971.752143 424.306589 
L 978.19057 424.083874 
L 982.8 423.911285 
" style="fill:none;stroke:#000000;stroke-opacity:0.7;stroke-width:1.275591;"/>
    <path clip-path="url(#p382977f994)" d="M 982.8 421.668221 
L 977.92428 421.857903 
L 971.486296 422.090109 
L 965.833269 422.310081 
L 959.159619 422.515787 
L 953.010476 422.705212 
L 949.471137 423.042459 
L 943.176312 423.21542 
L 936.034509 423.377499 
L 929.446831 423.529434 
L 922.575368 423.671976 
L 916.719857 423.805885 
L 911.951878 423.931929 
L 907.114216 424.050876 
L 903.091822 424.163491 
L 898.980687 424.270536 
L 894.817318 424.372765 
L 888.876484 424.470922 
L 882.759428 424.565742 
L 876.287778 424.657947 
L 870.336623 424.748248 
L 864.046441 424.837342 
L 864 424.838097 
" style="fill:none;stroke:#000000;stroke-opacity:0.7;stroke-width:1.275591;"/>
    <path clip-path="url(#p382977f994)" d="M 576 436.505754 
L 573.707645 436.635413 
L 570.657257 436.881054 
L 568.028555 437.106684 
L 565.334045 437.419705 
L 561.870862 437.799467 
L 559.142587 438.243142 
L 556.012925 438.748201 
L 552.664483 439.312305 
L 550.589865 439.933205 
L 549.556783 440.608638 
L 548.093546 441.336234 
L 547.462471 442.113415 
L 546.910057 442.937293 
L 546.302898 443.804565 
L 546.16369 444.711409 
L 545.835238 445.65337 
L 545.054586 446.625254 
L 543.555854 447.621017 
L 541.226405 448.633669 
L 537.133673 448.899246 
L 534.415373 449.974107 
L 532.16619 451.153149 
L 530.032108 452.434808 
L 528.050445 453.817079 
L 525.501972 455.297236 
L 522.847402 456.871517 
L 519.724937 458.534786 
L 517.186162 460.28014 
L 514.511348 462.098495 
L 513.267004 463.978142 
L 510.948451 465.9043 
L 508.085247 467.858681 
L 503.259886 469.819111 
L 498.513893 471.759263 
L 493.539089 473.648548 
L 487.63611 475.452246 
L 483.564974 475.821472 
L 480.607867 477.497607 
L 477.03099 479.022672 
L 472.347708 480.409802 
L 467.578311 481.676796 
L 461.135814 482.845578 
L 454.22337 483.941648 
L 449.447346 484.993605 
L 445.019158 486.0328 
L 441.421666 487.093177 
L 438.03867 488.211341 
L 434.467519 489.426919 
L 432 490.136262 
" style="fill:none;stroke:#000000;stroke-opacity:0.7;stroke-width:1.275591;"/>
    <path clip-path="url(#p382977f994)" d="M 148.746608 594 
L 114.000112 600.119617 
L 25.2 609.372577 
" style="fill:none;stroke:#000000;stroke-opacity:0.7;stroke-width:1.275591;"/>
    <path clip-path="url(#p382977f994)" d="M 25.2 603.763555 
L 113.432343 594.774911 
L 144 589.513296 
" style="fill:none;stroke:#000000;stroke-opacity:0.7;stroke-width:1.275591;"/>
    <path clip-path="url(#p382977f994)" d="M 432 487.371778 
L 434.151164 486.765254 
L 437.720301 485.572692 
L 441.108722 484.474949 
L 444.711782 483.433507 
L 449.142561 482.412802 
L 453.922069 481.379874 
L 460.830954 480.304295 
L 467.269112 479.158328 
L 472.047045 477.917257 
L 476.739949 476.559852 
L 480.331026 475.068895 
L 483.304272 473.431708 
L 487.383036 473.062482 
L 493.283436 471.302131 
L 498.262136 469.459198 
L 503.013933 467.567387 
L 507.848662 465.656378 
L 510.727342 463.751702 
L 513.062144 461.87485 
L 514.326367 460.043537 
L 517.01113 458.272068 
L 519.549678 456.571763 
L 522.667982 454.951393 
L 525.322817 453.41761 
L 527.871786 451.975352 
L 529.855807 450.628221 
L 531.995541 449.378814 
L 534.24635 448.229029 
L 536.961934 447.180334 
L 541.037936 446.914757 
L 543.364133 445.926627 
L 544.861064 444.955078 
L 545.644241 444.006865 
L 545.976002 443.087821 
L 546.120937 442.202955 
L 546.729558 441.356557 
L 547.290534 440.552303 
L 547.934182 439.793363 
L 549.406347 439.082503 
L 550.453251 438.422191 
L 552.53659 437.814688 
L 555.879658 437.262149 
L 559.003692 436.766718 
L 561.729754 436.330618 
L 565.186082 435.956256 
L 567.879055 435.646323 
L 570.511302 435.420692 
L 573.56167 435.175771 
L 576 435.036806 
" style="fill:none;stroke:#000000;stroke-opacity:0.7;stroke-width:1.275591;"/>
    <path clip-path="url(#p382977f994)" d="M 864 422.872591 
L 870.047477 422.772697 
L 875.988544 422.667468 
L 882.446963 422.560145 
L 888.552114 422.450061 
L 894.484652 422.33654 
L 898.652944 422.218899 
L 902.772802 422.096446 
L 906.805641 421.968482 
L 911.650915 421.834307 
L 916.427682 421.693215 
L 922.288495 421.544506 
L 929.159287 421.38748 
L 935.747124 421.221448 
L 942.888128 421.045733 
L 949.185979 420.859675 
L 952.730107 420.522428 
L 958.883925 420.320766 
L 965.559657 420.103871 
L 971.220449 419.873628 
L 977.657989 419.631932 
L 982.8 419.424362 
" style="fill:none;stroke:#000000;stroke-opacity:0.7;stroke-width:1.275591;"/>
    <path clip-path="url(#p382977f994)" d="M 982.8 417.179707 
L 977.391699 417.405961 
L 970.954603 417.657148 
L 965.286045 417.897661 
L 958.608231 418.125745 
L 952.449739 418.339644 
L 948.900822 418.676891 
L 942.599944 418.876046 
L 935.459739 419.065397 
L 928.871743 419.245526 
L 922.001622 419.417036 
L 916.135507 419.580545 
L 911.349952 419.736684 
L 906.497067 419.886089 
L 902.453783 420.029401 
L 898.3252 420.167263 
L 894.151986 420.300316 
L 888.227744 420.4292 
L 882.134497 420.554548 
L 875.68931 420.67699 
L 869.758332 420.797147 
L 864 420.905851 
" style="fill:none;stroke:#000000;stroke-opacity:0.7;stroke-width:1.275591;"/>
    <path clip-path="url(#p382977f994)" d="M 576 433.567734 
L 573.415695 433.716128 
L 570.365346 433.960331 
L 567.729555 434.185961 
L 565.038118 434.492807 
L 561.588645 434.861769 
L 558.864796 435.290294 
L 555.746391 435.776098 
L 552.408698 436.31707 
L 550.316636 436.911177 
L 549.25591 437.556368 
L 547.774818 438.250491 
L 547.118597 438.991191 
L 546.54906 439.775822 
L 545.938977 440.601346 
L 545.788314 441.464233 
L 545.453245 442.36036 
L 544.667541 443.284902 
L 543.172413 444.232237 
L 540.849468 445.195845 
L 536.790196 445.461423 
L 534.077327 446.483952 
L 531.824891 447.60448 
L 529.679505 448.821634 
L 527.693128 450.133625 
L 525.143662 451.537984 
L 522.488562 453.031269 
L 519.374419 454.60874 
L 516.836098 456.263996 
L 514.141386 457.988579 
L 512.857285 459.771558 
L 510.506233 461.599103 
L 507.612078 463.454075 
L 502.76798 465.315664 
L 498.010378 467.159134 
L 493.027783 468.955714 
L 487.129962 470.672717 
L 483.043569 471.041943 
L 480.054185 472.640184 
L 476.448908 474.097031 
L 471.746383 475.424712 
L 466.959913 476.63986 
L 460.526095 477.763013 
L 453.620769 478.8181 
L 448.837776 479.832 
L 444.404406 480.834215 
L 440.795779 481.856722 
L 437.401932 482.934044 
L 433.834809 484.103589 
L 432 484.610775 
" style="fill:none;stroke:#000000;stroke-opacity:0.7;stroke-width:1.275591;"/>
    <path clip-path="url(#p382977f994)" d="M 144 584.195542 
L 112.864574 589.430206 
L 25.2 598.156504 
" style="fill:none;stroke:#000000;stroke-opacity:0.7;stroke-width:1.275591;"/>
    <path clip-path="url(#p382977f994)" d="M 25.2 592.551433 
L 112.296805 584.0855 
L 144 578.882743 
" style="fill:none;stroke:#000000;stroke-opacity:0.7;stroke-width:1.275591;"/>
    <path clip-path="url(#p382977f994)" d="M 432 481.85326 
L 433.518454 481.441924 
L 437.083564 480.295395 
L 440.482835 479.238494 
L 444.097029 478.234922 
L 448.532991 477.251197 
L 453.319469 476.256326 
L 460.221235 475.22173 
L 466.650714 474.121392 
L 471.445721 472.932167 
L 476.157867 471.634211 
L 479.777343 470.211472 
L 482.782867 468.652179 
L 486.876888 468.282953 
L 492.772131 466.609297 
L 497.75862 464.85907 
L 502.522027 463.063941 
L 507.375493 461.251772 
L 510.285124 459.446505 
L 512.652425 457.668266 
L 513.956405 455.93362 
L 516.661066 454.255923 
L 519.19916 452.645717 
L 522.309142 451.111145 
L 524.964507 449.658358 
L 527.514469 448.291898 
L 529.503204 447.015047 
L 531.654242 445.830145 
L 533.908304 444.738875 
L 536.618457 443.742511 
L 540.661 443.476933 
L 542.980693 442.537847 
L 544.474019 441.614727 
L 545.262248 440.713855 
L 545.600627 439.840646 
L 545.757017 438.999736 
L 546.368561 438.195086 
L 546.946661 437.430078 
L 547.615455 436.707619 
L 549.105474 436.030233 
L 550.180022 435.400162 
L 552.280805 434.819453 
L 555.613124 434.290047 
L 558.7259 433.813871 
L 561.447537 433.392921 
L 564.890155 433.029357 
L 567.580055 432.7256 
L 570.21939 432.499969 
L 573.26972 432.256485 
L 576 432.098537 
" style="fill:none;stroke:#000000;stroke-opacity:0.7;stroke-width:1.275591;"/>
    <path clip-path="url(#p382977f994)" d="M 864 418.937774 
L 869.469187 418.821596 
L 875.390077 418.686511 
L 881.822032 418.548951 
L 887.903374 418.408338 
L 893.819319 418.264091 
L 897.997457 418.115626 
L 902.134763 417.962356 
L 906.188492 417.803695 
L 911.048989 417.639062 
L 915.843332 417.467876 
L 921.714749 417.289566 
L 928.584199 417.103571 
L 935.172354 416.909346 
L 942.31176 416.706359 
L 948.615664 416.494106 
L 952.169371 416.15686 
L 958.332537 415.930724 
L 965.012433 415.691451 
L 970.688756 415.440668 
L 977.125408 415.17999 
L 982.8 414.934254 
" style="fill:none;stroke:#000000;stroke-opacity:0.7;stroke-width:1.275591;"/>
    <path clip-path="url(#p382977f994)" d="M 982.8 412.687998 
L 976.859118 412.954019 
L 970.422909 413.224187 
L 964.738821 413.485241 
L 958.056843 413.735703 
L 951.889002 413.974075 
L 948.330507 414.311322 
L 942.023576 414.536673 
L 934.884969 414.753294 
L 928.296655 414.961617 
L 921.427876 415.162096 
L 915.551158 415.355206 
L 910.748025 415.541439 
L 905.879917 415.721302 
L 901.815744 415.89531 
L 897.669713 416.063989 
L 893.486653 416.227867 
L 887.579004 416.387477 
L 881.509567 416.543354 
L 875.090843 416.696032 
L 869.180041 416.846046 
L 864 416.968357 
" style="fill:none;stroke:#000000;stroke-opacity:0.7;stroke-width:1.275591;"/>
    <path clip-path="url(#p382977f994)" d="M 576 430.629217 
L 573.123745 430.796842 
L 570.073434 431.039608 
L 567.430555 431.265238 
L 564.742192 431.565908 
L 561.306429 431.924072 
L 558.587005 432.337447 
L 555.479857 432.803996 
L 552.152912 433.321836 
L 550.043408 433.889148 
L 548.955038 434.504099 
L 547.456091 435.164747 
L 546.774724 435.868966 
L 546.188063 436.61435 
L 545.575056 437.398127 
L 545.412939 438.217058 
L 545.071252 439.06735 
L 544.280496 439.944551 
L 542.788973 440.843457 
L 540.472532 441.758022 
L 536.446718 442.023599 
L 533.739281 442.993797 
L 531.483592 444.055811 
L 529.326903 445.20846 
L 527.33581 446.450171 
L 524.785352 447.778732 
L 522.129722 449.19102 
L 519.023901 450.682694 
L 516.486034 452.247851 
L 513.771424 453.878662 
L 512.447565 455.564974 
L 510.064015 457.293906 
L 507.138909 459.049469 
L 502.276073 460.812218 
L 497.506863 462.559005 
L 492.516478 464.26288 
L 486.623814 465.893188 
L 482.522164 466.262414 
L 479.500502 467.78276 
L 475.866826 469.171391 
L 471.145058 470.439622 
L 466.341515 471.602924 
L 459.916376 472.680447 
L 453.018168 473.694552 
L 448.228206 474.670395 
L 443.789653 475.635629 
L 440.169891 476.620267 
L 436.765195 477.656747 
L 433.2021 478.780259 
L 432 479.099238 
" style="fill:none;stroke:#000000;stroke-opacity:0.7;stroke-width:1.275591;"/>
    <path clip-path="url(#p382977f994)" d="M 144 573.574922 
L 111.729036 578.740795 
L 25.2 586.948354 
" style="fill:none;stroke:#000000;stroke-opacity:0.7;stroke-width:1.275591;"/>
    <path clip-path="url(#p382977f994)" d="M 25.2 581.347274 
L 111.161267 573.396089 
L 144 568.272104 
" style="fill:none;stroke:#000000;stroke-opacity:0.7;stroke-width:1.275591;"/>
    <path clip-path="url(#p382977f994)" d="M 432 476.348716 
L 432.885745 476.118594 
L 436.446826 475.018098 
L 439.856948 474.002039 
L 443.482277 473.036336 
L 447.923421 472.089592 
L 452.716868 471.132777 
L 459.611516 470.139164 
L 466.032316 469.084456 
L 470.844396 467.947077 
L 475.575785 466.70857 
L 479.223661 465.354049 
L 482.261462 463.87265 
L 486.37074 463.503424 
L 492.260825 461.916463 
L 497.255105 460.258941 
L 502.03012 458.560494 
L 506.902325 456.847166 
L 509.842906 455.141308 
L 512.242705 453.461681 
L 513.586443 451.823704 
L 516.311002 450.239779 
L 518.848641 448.71967 
L 521.950302 447.270896 
L 524.606197 445.899106 
L 527.157151 444.608443 
L 529.150602 443.401872 
L 531.312943 442.281476 
L 533.570259 441.24872 
L 536.27498 440.304687 
L 540.284063 440.03911 
L 542.597252 439.149066 
L 544.086974 438.274375 
L 544.880255 437.420846 
L 545.225251 436.593471 
L 545.393096 435.796517 
L 546.007565 435.033615 
L 546.602787 434.307854 
L 547.296727 433.621875 
L 548.804601 432.977964 
L 549.906793 432.378134 
L 552.02502 431.824218 
L 555.34659 431.317945 
L 558.448109 430.861023 
L 561.16532 430.455223 
L 564.594228 430.102459 
L 567.281055 429.804876 
L 569.927479 429.579246 
L 572.97777 429.337199 
L 576 429.159773 
" style="fill:none;stroke:#000000;stroke-opacity:0.7;stroke-width:1.275591;"/>
    <path clip-path="url(#p382977f994)" d="M 864 414.997595 
L 868.890896 414.870495 
L 874.791609 414.705554 
L 881.197102 414.537757 
L 887.254634 414.366616 
L 893.153986 414.191642 
L 897.341969 414.012352 
L 901.496724 413.828265 
L 905.571343 413.638908 
L 910.447062 413.443816 
L 915.258983 413.242536 
L 921.141003 413.034626 
L 928.009111 412.819663 
L 934.597584 412.597243 
L 941.735393 412.366986 
L 948.045349 412.128538 
L 951.608634 411.791291 
L 957.781149 411.540682 
L 964.465209 411.279031 
L 970.157062 411.007707 
L 976.592827 410.728048 
L 982.790975 410.441357 
L 982.8 410.44085 
" style="fill:none;stroke:#000000;stroke-opacity:0.7;stroke-width:1.275591;"/>
    <path clip-path="url(#p382977f994)" d="M 982.8 408.190232 
L 982.518101 408.206529 
L 976.326537 408.502077 
L 969.891215 408.791226 
L 964.191597 409.072822 
L 957.505455 409.34566 
L 951.328265 409.608507 
L 947.760192 409.945754 
L 941.447209 410.197299 
L 934.310199 410.441192 
L 927.721567 410.677709 
L 920.854131 410.907156 
L 914.966808 411.129866 
L 910.146099 411.346194 
L 905.262768 411.556515 
L 901.177704 411.76122 
L 897.014226 411.960715 
L 892.82132 412.155418 
L 886.930264 412.345755 
L 880.884637 412.53216 
L 874.492375 412.715075 
L 868.60175 412.894945 
L 864 413.025483 
" style="fill:none;stroke:#000000;stroke-opacity:0.7;stroke-width:1.275591;"/>
    <path clip-path="url(#p382977f994)" d="M 576 427.690205 
L 572.831794 427.877557 
L 569.781523 428.118884 
L 567.131555 428.344515 
L 564.446265 428.63901 
L 561.024212 428.986374 
L 558.309213 429.384599 
L 555.213322 429.831894 
L 551.897127 430.326601 
L 549.770179 430.86712 
L 548.654165 431.451829 
L 547.137363 432.079003 
L 546.430851 432.746741 
L 545.827066 433.452879 
L 545.211136 434.194907 
L 545.037563 434.969883 
L 544.689259 435.774341 
L 543.893451 436.6042 
L 542.405532 437.454676 
L 540.095595 438.320198 
L 536.103241 438.585775 
L 533.401236 439.503642 
L 531.142293 440.507142 
L 528.9743 441.595285 
L 526.978492 442.766716 
L 524.427042 444.01948 
L 521.770881 445.350772 
L 518.673382 446.756647 
L 516.13597 448.231707 
L 513.401462 449.768746 
L 512.037845 451.358389 
L 509.621797 452.988709 
L 506.66574 454.644863 
L 501.784167 456.308771 
L 497.003347 457.958877 
L 492.005172 459.570046 
L 486.117666 461.11366 
L 482.000759 461.482886 
L 478.94682 462.925337 
L 475.284744 464.24575 
L 470.543734 465.454532 
L 465.723117 466.565988 
L 459.306657 467.597881 
L 452.415568 468.571003 
L 447.618636 469.50879 
L 443.174901 470.437044 
L 439.544004 471.383812 
L 436.128457 472.37945 
L 432.56939 473.456929 
L 432 473.601698 
" style="fill:none;stroke:#000000;stroke-opacity:0.7;stroke-width:1.275591;"/>
    <path clip-path="url(#p382977f994)" d="M 144 562.974312 
L 110.593498 568.051384 
L 25.2 575.748205 
" style="fill:none;stroke:#000000;stroke-opacity:0.7;stroke-width:1.275591;"/>
    <path clip-path="url(#p382977f994)" d="M 25.2 570.151156 
L 110.025729 562.706678 
L 144 557.681571 
" style="fill:none;stroke:#000000;stroke-opacity:0.7;stroke-width:1.275591;"/>
    <path clip-path="url(#p382977f994)" d="M 432 470.858193 
L 432.253035 470.795264 
L 435.810088 469.740801 
L 439.23106 468.765584 
L 442.867524 467.837751 
L 447.313851 466.927987 
L 452.114267 466.009229 
L 459.001797 465.056598 
L 465.413919 464.04752 
L 470.243072 462.961987 
L 474.993703 461.782929 
L 478.669979 460.496625 
L 481.740057 459.093121 
L 485.864592 458.723895 
L 491.74952 457.22363 
L 496.75159 455.658812 
L 501.538214 454.057048 
L 506.429156 452.44256 
L 509.400688 450.836111 
L 511.832985 449.255097 
L 513.216481 447.713788 
L 515.960938 446.223634 
L 518.498123 444.793624 
L 521.591461 443.430647 
L 524.247887 442.139854 
L 526.799833 440.924989 
L 528.797999 439.788698 
L 530.971643 438.732807 
L 533.232213 437.758565 
L 535.931503 436.866863 
L 539.907127 436.601286 
L 542.213812 435.760286 
L 543.699928 434.934024 
L 544.498262 434.127836 
L 544.849875 433.346296 
L 545.029176 432.593298 
L 545.646568 431.872144 
L 546.258914 431.185629 
L 546.977999 430.536132 
L 548.503728 429.925694 
L 549.633564 429.356106 
L 551.769235 428.828983 
L 555.080055 428.345842 
L 558.170318 427.908176 
L 560.883104 427.517526 
L 564.298301 427.17556 
L 566.982055 426.884153 
L 569.635567 426.658523 
L 572.685819 426.417914 
L 575.953146 426.223304 
L 576 426.221215 
" style="fill:none;stroke:#000000;stroke-opacity:0.7;stroke-width:1.275591;"/>
    <path clip-path="url(#p382977f994)" d="M 864 411.052017 
L 868.312605 410.919394 
L 874.193141 410.724597 
L 880.572172 410.526563 
L 886.605894 410.324894 
L 892.488654 410.119193 
L 896.686482 409.909078 
L 900.858685 409.694175 
L 904.954194 409.474121 
L 909.845136 409.248571 
L 914.674634 409.017196 
L 920.567258 408.779686 
L 927.434023 408.535754 
L 934.022814 408.28514 
L 941.159025 408.027612 
L 947.475034 407.76297 
L 951.047897 407.425723 
L 957.229761 407.150639 
L 963.917985 406.866612 
L 969.625369 406.574746 
L 976.060246 406.276105 
L 982.245227 405.971702 
L 982.8 405.93872 
" style="fill:none;stroke:#000000;stroke-opacity:0.7;stroke-width:1.275591;"/>
    <path clip-path="url(#p382977f994)" d="M 982.8 403.686312 
L 981.972353 403.736875 
L 975.793956 404.050134 
L 969.359522 404.358265 
L 963.644373 404.660402 
L 956.954067 404.955618 
L 950.767528 405.242939 
L 947.189877 405.580186 
L 940.870841 405.857925 
L 933.735429 406.129089 
L 927.146479 406.3938 
L 920.280385 406.652216 
L 914.382459 406.904526 
L 909.544173 407.150949 
L 904.645619 407.391727 
L 900.539665 407.627129 
L 896.358739 407.857441 
L 892.155987 408.082969 
L 886.281524 408.304032 
L 880.259707 408.520966 
L 873.893908 408.734118 
L 868.02346 408.943844 
L 864 409.077192 
" style="fill:none;stroke:#000000;stroke-opacity:0.7;stroke-width:1.275591;"/>
    <path clip-path="url(#p382977f994)" d="M 576 424.753455 
L 575.808827 424.762167 
L 572.539844 424.958271 
L 569.489612 425.198161 
L 566.832555 425.423792 
L 564.150338 425.712111 
L 560.741995 426.048677 
L 558.031422 426.431752 
L 554.946788 426.859791 
L 551.641342 427.331366 
L 549.49695 427.845092 
L 548.353292 428.399559 
L 546.818636 428.99326 
L 546.086977 429.624517 
L 545.466069 430.291408 
L 544.847215 430.991688 
L 544.662187 431.722708 
L 544.307266 432.481331 
L 543.506406 433.263849 
L 542.022091 434.065896 
L 539.718659 434.882374 
L 535.759764 435.147951 
L 533.06319 436.013487 
L 530.800994 436.958473 
L 528.621698 437.982111 
L 526.621174 439.083262 
L 524.068732 440.260228 
L 521.412041 441.510523 
L 518.322864 442.830601 
L 515.785906 444.215562 
L 513.031499 445.65883 
L 511.628125 447.151805 
L 509.17958 448.683512 
L 506.192571 450.240258 
L 501.292261 451.805325 
L 496.499832 453.358748 
L 491.493867 454.877213 
L 485.611518 456.334131 
L 481.479354 456.703357 
L 478.393138 458.067914 
L 474.702662 459.320109 
L 469.942409 460.469442 
L 465.10472 461.529052 
L 458.696937 462.515316 
L 451.812967 463.447455 
L 447.009067 464.347185 
L 442.560148 465.238458 
L 438.918117 466.147356 
L 435.491719 467.102153 
L 432 468.115228 
" style="fill:none;stroke:#000000;stroke-opacity:0.7;stroke-width:1.275591;"/>
    <path clip-path="url(#p382977f994)" d="M 144 552.393906 
L 109.45796 557.361972 
L 25.2 564.556138 
" style="fill:none;stroke:#000000;stroke-opacity:0.7;stroke-width:1.275591;"/>
    <path clip-path="url(#p382977f994)" d="M 25.2 558.96316 
L 108.890191 552.017267 
L 144 547.111341 
" style="fill:none;stroke:#000000;stroke-opacity:0.7;stroke-width:1.275591;"/>
    <path clip-path="url(#p382977f994)" d="M 432 465.364174 
L 435.17335 464.463504 
L 438.605173 463.529129 
L 442.252772 462.639166 
L 446.704282 461.766382 
L 451.511667 460.885681 
L 458.392078 459.974033 
L 464.795521 459.010584 
L 469.641747 457.976898 
L 474.411621 456.857288 
L 478.116296 455.639202 
L 481.218652 454.313592 
L 485.358444 453.944366 
L 491.238214 452.530796 
L 496.248074 451.058684 
L 501.046308 449.553601 
L 505.955987 448.037955 
L 508.958471 446.530914 
L 511.423265 445.048513 
L 512.846518 443.603871 
L 515.610873 442.20749 
L 518.147605 440.867578 
L 521.232621 439.590399 
L 523.889577 438.380602 
L 526.442515 437.241534 
L 528.445397 436.175524 
L 530.630344 435.184138 
L 532.894167 434.26841 
L 535.588026 433.429039 
L 539.530191 433.163462 
L 541.830371 432.371506 
L 543.312883 431.593673 
L 544.116269 430.834826 
L 544.4745 430.099121 
L 544.665255 429.390079 
L 545.285571 428.710672 
L 545.91504 428.063404 
L 546.659272 427.450388 
L 548.202856 426.873424 
L 549.360336 426.334078 
L 551.51345 425.833748 
L 554.813521 425.37374 
L 557.892527 424.955328 
L 560.600887 424.579828 
L 564.002375 424.248662 
L 566.683055 423.96343 
L 569.343656 423.7378 
L 572.393869 423.498628 
L 575.664508 423.30103 
L 576 423.28541 
" style="fill:none;stroke:#000000;stroke-opacity:0.7;stroke-width:1.275591;"/>
    <path clip-path="url(#p382977f994)" d="M 864 407.101005 
L 867.734314 406.968293 
L 873.594674 406.743639 
L 879.947242 406.51537 
L 885.957154 406.283171 
L 891.823321 406.046744 
L 896.030995 405.805805 
L 900.220646 405.560084 
L 904.337045 405.309334 
L 909.24321 405.053326 
L 914.090284 404.791856 
L 919.993512 404.524746 
L 926.858935 404.251846 
L 933.448044 403.973038 
L 940.582657 403.688238 
L 946.904719 403.397401 
L 950.48716 403.060154 
L 956.678373 402.760597 
L 963.370761 402.454192 
L 969.093675 402.141785 
L 975.527665 401.824163 
L 981.69948 401.502048 
L 982.8 401.433005 
" style="fill:none;stroke:#000000;stroke-opacity:0.7;stroke-width:1.275591;"/>
    <path clip-path="url(#p382977f994)" d="M 982.8 399.1788 
L 981.426606 399.26722 
L 975.261374 399.598192 
L 968.827828 399.925304 
L 963.097149 400.247982 
L 956.402679 400.565576 
L 950.206791 400.87737 
L 946.619562 401.214617 
L 940.294474 401.518551 
L 933.160659 401.816986 
L 926.571391 402.109891 
L 919.706639 402.397276 
L 913.798109 402.679186 
L 908.942247 402.955703 
L 904.02847 403.22694 
L 899.901626 403.493039 
L 895.703251 403.754168 
L 891.490654 404.01052 
L 885.632784 404.26231 
L 879.634777 404.509773 
L 873.29544 404.753161 
L 867.445169 404.992743 
L 864 405.123451 
" style="fill:none;stroke:#000000;stroke-opacity:0.7;stroke-width:1.275591;"/>
    <path clip-path="url(#p382977f994)" d="M 576 421.817079 
L 575.52019 421.839892 
L 572.247894 422.038985 
L 569.1977 422.277438 
L 566.533555 422.503068 
L 563.854411 422.785212 
L 560.459779 423.110979 
L 557.753631 423.478905 
L 554.680254 423.887689 
L 551.385557 424.336131 
L 549.223721 424.823064 
L 548.052419 425.347289 
L 546.499908 425.907516 
L 545.743104 426.502292 
L 545.105073 427.129937 
L 544.483295 427.788469 
L 544.286812 428.475533 
L 543.925273 429.188321 
L 543.119361 429.923497 
L 541.638651 430.677116 
L 539.341722 431.44455 
L 535.416287 431.710127 
L 532.725144 432.523333 
L 530.459695 433.409804 
L 528.269095 434.368937 
L 526.263857 435.399807 
L 523.710422 436.500976 
L 521.053201 437.670275 
L 517.972346 438.904554 
L 515.435841 440.199417 
L 512.661537 441.548913 
L 511.218405 442.94522 
L 508.737362 444.378315 
L 505.719403 445.835652 
L 500.800355 447.301878 
L 495.996317 448.758619 
L 490.982561 450.184379 
L 485.10537 451.554602 
L 480.957949 451.923828 
L 477.839455 453.21049 
L 474.12058 454.394468 
L 469.341085 455.484353 
L 464.486322 456.492116 
L 458.087218 457.43275 
L 451.210366 458.323907 
L 446.399497 459.18558 
L 441.945396 460.039873 
L 438.292229 460.910901 
L 434.854981 461.824856 
L 432 462.61712 
" style="fill:none;stroke:#000000;stroke-opacity:0.7;stroke-width:1.275591;"/>
    <path clip-path="url(#p382977f994)" d="M 144 541.833901 
L 108.322422 546.672561 
L 25.2 553.372232 
" style="fill:none;stroke:#000000;stroke-opacity:0.7;stroke-width:1.275591;"/>
    <path clip-path="url(#p382977f994)" d="M 25.2 547.783366 
L 107.754653 541.327856 
L 144 536.56161 
" style="fill:none;stroke:#000000;stroke-opacity:0.7;stroke-width:1.275591;"/>
    <path clip-path="url(#p382977f994)" d="M 432 459.874072 
L 434.536612 459.186207 
L 437.979286 458.292674 
L 441.63802 457.44058 
L 446.094712 456.604777 
L 450.909066 455.762133 
L 457.782359 454.891467 
L 464.177123 453.973648 
L 469.040422 452.991808 
L 473.829539 451.931647 
L 477.562614 450.781779 
L 480.697247 449.534063 
L 484.852296 449.164837 
L 490.726908 447.837962 
L 495.744559 446.458555 
L 500.554402 445.050155 
L 505.482818 443.633349 
L 508.516253 442.225717 
L 511.013545 440.841928 
L 512.476556 439.493955 
L 515.260809 438.191345 
L 517.797087 436.941531 
L 520.873781 435.75015 
L 523.531267 434.621351 
L 526.085198 433.55808 
L 528.092794 432.56235 
L 530.289045 431.635469 
L 532.556121 430.778255 
L 535.244548 429.991216 
L 539.153254 429.725638 
L 541.446931 428.982725 
L 542.925838 428.253322 
L 543.734277 427.541817 
L 544.099124 426.851945 
L 544.301335 426.186859 
L 544.924574 425.549201 
L 545.571167 424.94118 
L 546.340544 424.364644 
L 547.901983 423.821154 
L 549.087107 423.31205 
L 551.257664 422.838514 
L 554.546987 422.401638 
L 557.614735 422.002481 
L 560.318671 421.642131 
L 563.706448 421.321763 
L 566.384055 421.042707 
L 569.051745 420.817076 
L 572.101919 420.579342 
L 575.375871 420.378755 
L 576 420.348464 
" style="fill:none;stroke:#000000;stroke-opacity:0.7;stroke-width:1.275591;"/>
    <path clip-path="url(#p382977f994)" d="M 864 403.144524 
L 867.156023 403.017192 
L 872.996206 402.762682 
L 879.322312 402.504176 
L 885.308414 402.241449 
L 891.157988 401.974295 
L 895.375508 401.702531 
L 899.582607 401.425994 
L 903.719896 401.144547 
L 908.641284 400.858081 
L 913.505935 400.566516 
L 919.419766 400.269806 
L 926.283847 399.967937 
L 932.873274 399.660935 
L 940.00629 399.348865 
L 946.334404 399.031833 
L 949.926423 398.694586 
L 956.126984 398.370555 
L 962.823537 398.041772 
L 968.561981 397.708824 
L 974.995084 397.372221 
L 981.153732 397.032393 
L 982.8 396.923694 
" style="fill:none;stroke:#000000;stroke-opacity:0.7;stroke-width:1.275591;"/>
    <path clip-path="url(#p382977f994)" d="M 982.8 394.667687 
L 980.880858 394.797566 
L 974.728793 395.14625 
L 968.296135 395.492343 
L 962.549925 395.835562 
L 955.85129 396.175534 
L 949.646054 396.511802 
L 946.049247 396.849049 
L 939.718106 397.179178 
L 932.585889 397.504884 
L 925.996303 397.825983 
L 919.132893 398.142336 
L 913.21376 398.453846 
L 908.340321 398.760458 
L 903.411321 399.062153 
L 899.263587 399.358948 
L 895.047764 399.650894 
L 890.825322 399.938071 
L 884.984044 400.220587 
L 879.009847 400.498579 
L 872.696973 400.772203 
L 866.866878 401.041642 
L 864 401.164222 
" style="fill:none;stroke:#000000;stroke-opacity:0.7;stroke-width:1.275591;"/>
    <path clip-path="url(#p382977f994)" d="M 576 418.879565 
L 575.231552 418.917618 
L 571.955943 419.1197 
L 568.905789 419.356715 
L 566.234555 419.582345 
L 563.558485 419.858314 
L 560.177562 420.173282 
L 557.47584 420.526057 
L 554.41372 420.915586 
L 551.129772 421.340896 
L 548.950493 421.801035 
L 547.751546 422.29502 
L 546.18118 422.821772 
L 545.39923 423.380068 
L 544.744076 423.968466 
L 544.119374 424.58525 
L 543.911436 425.228358 
L 543.54328 425.895312 
L 542.732316 426.583146 
L 541.25521 427.288335 
L 538.964786 428.006726 
L 535.07281 428.272304 
L 532.387098 429.033178 
L 530.118396 429.861135 
L 527.916493 430.755763 
L 525.906539 431.716353 
L 523.352112 432.741725 
L 520.694361 433.830026 
L 517.621828 434.978508 
L 515.085777 436.183273 
L 512.291575 437.438997 
L 510.808686 438.738636 
L 508.295144 440.073118 
L 505.246234 441.431046 
L 500.308449 442.798432 
L 495.492801 444.15849 
L 490.471256 445.491545 
L 484.599222 446.775073 
L 480.436544 447.144299 
L 477.285773 448.353067 
L 473.538498 449.468827 
L 468.73976 450.499263 
L 463.867924 451.45518 
L 457.477499 452.350184 
L 450.607766 453.200359 
L 445.789927 454.023975 
L 441.330643 454.841287 
L 437.666342 455.674446 
L 434.218243 456.547559 
L 432 457.135037 
" style="fill:none;stroke:#000000;stroke-opacity:0.7;stroke-width:1.275591;"/>
    <path clip-path="url(#p382977f994)" d="M 144 531.294495 
L 107.186884 535.98315 
L 25.2 542.196571 
" style="fill:none;stroke:#000000;stroke-opacity:0.7;stroke-width:1.275591;"/>
    <path clip-path="url(#p382977f994)" d="M 25.2 536.611857 
L 106.619115 530.638445 
L 144 526.032581 
" style="fill:none;stroke:#000000;stroke-opacity:0.7;stroke-width:1.275591;"/>
    <path clip-path="url(#p382977f994)" d="M 432 454.400023 
L 433.899875 453.90891 
L 437.353398 453.056219 
L 441.023267 452.241995 
L 445.485142 451.443172 
L 450.306466 450.638584 
L 457.17264 449.808902 
L 463.558726 448.936712 
L 468.439098 448.006718 
L 473.247457 447.006006 
L 477.008932 445.924355 
L 480.175842 444.754534 
L 484.346148 444.385308 
L 490.215603 443.145128 
L 495.241044 441.858426 
L 500.062496 440.546708 
L 505.009649 439.228743 
L 508.074035 437.920519 
L 510.603826 436.635344 
L 512.106594 435.384039 
L 514.910745 434.1752 
L 517.446569 433.015485 
L 520.514941 431.909902 
L 523.172956 430.862099 
L 525.72788 429.874626 
L 527.740191 428.949176 
L 529.947746 428.0868 
L 532.218076 427.2881 
L 534.901071 426.553392 
L 538.776318 426.287815 
L 541.06349 425.593945 
L 542.538793 424.91297 
L 543.352284 424.248807 
L 543.723748 423.60477 
L 543.937414 422.98364 
L 544.563577 422.38773 
L 545.227294 421.818955 
L 546.021817 421.278901 
L 547.60111 420.768885 
L 548.813878 420.290021 
L 551.001879 419.843279 
L 554.280453 419.429535 
L 557.336944 419.049633 
L 560.036454 418.704433 
L 563.410521 418.394864 
L 566.085055 418.121984 
L 568.759833 417.896353 
L 571.809968 417.660057 
L 575.087233 417.456481 
L 576 417.410384 
" style="fill:none;stroke:#000000;stroke-opacity:0.7;stroke-width:1.275591;"/>
    <path clip-path="url(#p382977f994)" d="M 864 399.182538 
L 866.577733 399.066091 
L 872.397739 398.781725 
L 878.697382 398.492982 
L 884.659673 398.199726 
L 890.492655 397.901846 
L 894.720021 397.599257 
L 898.944567 397.291903 
L 903.102747 396.97976 
L 908.039358 396.662836 
L 912.921585 396.341177 
L 918.84602 396.014866 
L 925.708759 395.684028 
L 932.298504 395.348832 
L 939.429922 395.009491 
L 945.76409 394.666265 
L 949.365686 394.329018 
L 955.575596 393.980512 
L 962.276313 393.629352 
L 968.030288 393.275863 
L 974.462503 392.920279 
L 980.607985 392.562738 
L 982.8 392.410776 
" style="fill:none;stroke:#000000;stroke-opacity:0.7;stroke-width:1.275591;"/>
    <path clip-path="url(#p382977f994)" d="M 982.8 390.15296 
L 980.335111 390.327911 
L 974.196212 390.694308 
L 967.764441 391.059382 
L 962.002701 391.423142 
L 955.299902 391.785491 
L 949.085318 392.146234 
L 945.478932 392.48348 
L 939.141738 392.839804 
L 932.01112 393.192781 
L 925.421215 393.542074 
L 918.559147 393.887396 
L 912.629411 394.228507 
L 907.738395 394.565213 
L 902.794172 394.897366 
L 898.625548 395.224858 
L 894.392277 395.54762 
L 890.159989 395.865622 
L 884.335303 396.178865 
L 878.384917 396.487385 
L 872.098505 396.791246 
L 866.288587 397.090541 
L 864 397.199469 
" style="fill:none;stroke:#000000;stroke-opacity:0.7;stroke-width:1.275591;"/>
    <path clip-path="url(#p382977f994)" d="M 576 415.940921 
L 574.942914 415.995344 
L 571.663993 416.200414 
L 568.613878 416.435992 
L 565.935555 416.661622 
L 563.262558 416.931415 
L 559.895346 417.235584 
L 557.198048 417.57321 
L 554.147186 417.943484 
L 550.873987 418.345661 
L 548.677264 418.779007 
L 547.450673 419.24275 
L 545.862453 419.736029 
L 545.055357 420.257843 
L 544.383079 420.806994 
L 543.755454 421.382031 
L 543.53606 421.981183 
L 543.161287 422.602302 
L 542.345271 423.242795 
L 540.87177 423.899555 
L 538.58785 424.568903 
L 534.729333 424.83448 
L 532.049053 425.543023 
L 529.777097 426.312466 
L 527.56389 427.142588 
L 525.549221 428.032898 
L 522.993801 428.982473 
L 520.335521 429.989778 
L 517.27131 431.052462 
L 514.735713 432.167128 
L 511.921613 433.329081 
L 510.398966 434.532052 
L 507.852926 435.767921 
L 504.773065 437.02644 
L 499.816543 438.294985 
L 494.989286 439.558362 
L 489.95995 440.798711 
L 484.093074 441.995544 
L 479.91514 442.36477 
L 476.732091 443.495644 
L 472.956416 444.543186 
L 468.138436 445.514173 
L 463.249527 446.418244 
L 456.86778 447.267619 
L 450.005165 448.07681 
L 445.180357 448.86237 
L 440.715891 449.642702 
L 437.040455 450.437991 
L 433.581506 451.270262 
L 432 451.669035 
" style="fill:none;stroke:#000000;stroke-opacity:0.7;stroke-width:1.275591;"/>
    <path clip-path="url(#p382977f994)" d="M 144 520.775892 
L 106.051346 525.293739 
L 25.2 531.029236 
" style="fill:none;stroke:#000000;stroke-opacity:0.7;stroke-width:1.275591;"/>
    <path clip-path="url(#p382977f994)" d="M 25.2 525.448717 
L 105.483577 519.949034 
L 144 515.524455 
" style="fill:none;stroke:#000000;stroke-opacity:0.7;stroke-width:1.275591;"/>
    <path clip-path="url(#p382977f994)" d="M 432 448.942081 
L 433.263137 448.631614 
L 436.727511 447.819764 
L 440.408515 447.043409 
L 444.875573 446.281567 
L 449.703865 445.515036 
L 456.562921 444.726336 
L 462.940328 443.899776 
L 467.837773 443.021628 
L 472.665375 442.080365 
L 476.455249 441.066932 
L 479.654437 439.975006 
L 483.84 439.60578 
L 489.704297 438.452294 
L 494.737528 437.258297 
L 499.57059 436.043262 
L 504.53648 434.824137 
L 507.631817 433.615322 
L 510.194106 432.428759 
L 511.736632 431.274123 
L 514.560681 430.159056 
L 517.09605 429.089438 
L 520.156101 428.069653 
L 522.814646 427.102847 
L 525.370562 426.191171 
L 527.387589 425.336001 
L 529.606447 424.538131 
L 531.88003 423.797945 
L 534.557594 423.115568 
L 538.399381 422.849991 
L 540.68005 422.205165 
L 542.151748 421.572619 
L 542.970291 420.955797 
L 543.348373 420.357595 
L 543.573493 419.780421 
L 544.202581 419.226259 
L 544.88342 418.696731 
L 545.703089 418.193157 
L 547.300237 417.716615 
L 548.54065 417.267993 
L 550.746094 416.848044 
L 554.013919 416.457433 
L 557.059153 416.096786 
L 559.754237 415.766736 
L 563.114594 415.467966 
L 565.786055 415.20126 
L 568.467922 414.97563 
L 571.518018 414.740771 
L 574.798595 414.534207 
L 576 414.471177 
" style="fill:none;stroke:#000000;stroke-opacity:0.7;stroke-width:1.275591;"/>
    <path clip-path="url(#p382977f994)" d="M 864 395.21501 
L 865.999442 395.11499 
L 871.799271 394.800768 
L 878.072451 394.481788 
L 884.010933 394.158004 
L 889.827322 393.829397 
L 894.064533 393.495984 
L 898.306528 393.157813 
L 902.485598 392.814973 
L 907.437432 392.467591 
L 912.337236 392.115837 
L 918.272274 391.759926 
L 925.13367 391.40012 
L 931.723735 391.03673 
L 938.853555 390.670117 
L 945.193775 390.300696 
L 948.804949 389.963449 
L 955.024208 389.59047 
L 961.729089 389.216932 
L 967.498594 388.842902 
L 973.929922 388.468337 
L 980.062237 388.093084 
L 982.8 387.894238 
" style="fill:none;stroke:#000000;stroke-opacity:0.7;stroke-width:1.275591;"/>
    <path clip-path="url(#p382977f994)" d="M 982.8 385.634609 
L 979.789363 385.858257 
L 973.663631 386.242366 
L 967.232747 386.626422 
L 961.455477 387.010722 
L 954.748514 387.395449 
L 948.524581 387.780665 
L 944.908617 388.117912 
L 938.565371 388.50043 
L 931.43635 388.880678 
L 924.846126 389.258166 
L 917.985401 389.632456 
L 912.045061 390.003167 
L 907.136469 390.369968 
L 902.177023 390.732579 
L 897.987509 391.090768 
L 893.73679 391.444347 
L 889.494656 391.793173 
L 883.686563 392.137143 
L 877.759986 392.476191 
L 871.500038 392.810289 
L 865.710296 393.13944 
L 864 393.229156 
" style="fill:none;stroke:#000000;stroke-opacity:0.7;stroke-width:1.275591;"/>
    <path clip-path="url(#p382977f994)" d="M 576 413.001152 
L 574.654277 413.07307 
L 571.372043 413.281128 
L 568.321966 413.515268 
L 565.636555 413.740899 
L 562.966631 414.004517 
L 559.613129 414.297887 
L 556.920257 414.620362 
L 553.880652 414.971382 
L 550.618202 415.350426 
L 548.404035 415.756979 
L 547.149801 416.19048 
L 545.543725 416.650285 
L 544.711484 417.135618 
L 544.022082 417.645523 
L 543.391533 418.178811 
L 543.160685 418.734008 
L 542.779294 419.309293 
L 541.958225 419.902444 
L 540.488329 420.510775 
L 538.210913 421.131079 
L 534.385856 421.396656 
L 531.711007 422.052868 
L 529.435798 422.763797 
L 527.211288 423.529414 
L 525.191903 424.349444 
L 522.635491 425.223221 
L 519.976681 426.149529 
L 516.920791 427.126415 
L 514.385649 428.150984 
L 511.55165 429.219164 
L 509.989246 430.325467 
L 507.410708 431.462724 
L 504.299896 432.621835 
L 499.324637 433.791538 
L 494.485771 434.958233 
L 489.448644 436.105877 
L 483.586926 437.216015 
L 479.393735 437.585241 
L 476.178408 438.638221 
L 472.374334 439.617545 
L 467.537111 440.529083 
L 462.631129 441.381308 
L 456.258061 442.185053 
L 449.402565 442.953262 
L 444.570788 443.700765 
L 440.101138 444.444116 
L 436.414567 445.201536 
L 432.944768 445.992965 
L 432 446.219168 
" style="fill:none;stroke:#000000;stroke-opacity:0.7;stroke-width:1.275591;"/>
    <path clip-path="url(#p382977f994)" d="M 144 510.278296 
L 104.915808 514.604328 
L 25.2 519.870312 
" style="fill:none;stroke:#000000;stroke-opacity:0.7;stroke-width:1.275591;"/>
    <path clip-path="url(#p382977f994)" d="M 25.2 514.29403 
L 104.348039 509.259622 
L 144 505.037439 
" style="fill:none;stroke:#000000;stroke-opacity:0.7;stroke-width:1.275591;"/>
    <path clip-path="url(#p382977f994)" d="M 432 443.500303 
L 432.626399 443.354317 
L 436.101624 442.583309 
L 439.793762 441.844824 
L 444.266003 441.119962 
L 449.101264 440.391488 
L 455.953202 439.64377 
L 462.32193 438.86284 
L 467.236449 438.036538 
L 472.083293 437.154724 
L 475.901567 436.209509 
L 479.133032 435.195477 
L 483.333852 434.826251 
L 489.192992 433.75946 
L 494.234013 432.658169 
L 499.078684 431.539815 
L 504.063312 430.419532 
L 507.189599 429.310125 
L 509.784386 428.222175 
L 511.366669 427.164206 
L 514.210617 426.142911 
L 516.745532 425.163392 
L 519.79726 424.229405 
L 522.456336 423.343595 
L 525.013244 422.507717 
L 527.034986 421.722827 
L 529.265148 420.989462 
L 531.541984 420.307791 
L 534.214117 419.677744 
L 538.022445 419.412167 
L 540.296609 418.816384 
L 541.764703 418.232268 
L 542.588298 417.662788 
L 542.972997 417.11042 
L 543.209573 416.577202 
L 543.841584 416.064788 
L 544.539547 415.574506 
L 545.384361 415.107413 
L 546.999364 414.664345 
L 548.267421 414.245965 
L 550.490309 413.852809 
L 553.747385 413.485331 
L 556.781361 413.143939 
L 559.472021 412.829038 
L 562.818668 412.541067 
L 565.487055 412.280537 
L 568.176011 412.054907 
L 571.226068 411.821486 
L 574.509958 411.611933 
L 576 411.530849 
" style="fill:none;stroke:#000000;stroke-opacity:0.7;stroke-width:1.275591;"/>
    <path clip-path="url(#p382977f994)" d="M 864 391.241903 
L 865.421151 391.163889 
L 871.200804 390.81981 
L 877.447521 390.470594 
L 883.362193 390.116281 
L 889.16199 389.756948 
L 893.409046 389.39271 
L 897.668489 389.023722 
L 901.868449 388.650185 
L 906.835506 388.272345 
L 911.752886 387.890497 
L 917.698528 387.504986 
L 924.558582 387.116211 
L 931.148965 386.724627 
L 938.277187 386.330743 
L 944.62346 385.935128 
L 948.244212 385.597881 
L 954.47282 385.200428 
L 961.181866 384.804512 
L 966.9669 384.409941 
L 973.397341 384.016395 
L 979.51649 383.623429 
L 982.8 383.374071 
" style="fill:none;stroke:#000000;stroke-opacity:0.7;stroke-width:1.275591;"/>
    <path clip-path="url(#p382977f994)" d="M 982.8 381.112622 
L 979.243616 381.388602 
L 973.13105 381.790424 
L 966.701054 382.193461 
L 960.908254 382.598302 
L 954.197126 383.005407 
L 947.963844 383.415097 
L 944.338302 383.752344 
L 937.989003 384.161056 
L 930.86158 384.568576 
L 924.271038 384.974257 
L 917.411656 385.377516 
L 911.460712 385.777827 
L 906.534543 386.174723 
L 901.559874 386.567792 
L 897.34947 386.956677 
L 893.081303 387.341073 
L 888.829323 387.720724 
L 883.037823 388.09542 
L 877.135056 388.464997 
L 870.90157 388.829332 
L 865.132006 389.188339 
L 864 389.253246 
" style="fill:none;stroke:#000000;stroke-opacity:0.7;stroke-width:1.275591;"/>
    <path clip-path="url(#p382977f994)" d="M 576 410.060266 
L 574.365639 410.150795 
L 571.080092 410.361843 
L 568.030055 410.594545 
L 565.337555 410.820176 
L 562.670704 411.077618 
L 559.330913 411.360189 
L 556.642466 411.667515 
L 553.614118 411.999279 
L 550.362417 412.355192 
L 548.130806 412.734951 
L 546.848928 413.13821 
L 545.224998 413.564542 
L 544.36761 414.013394 
L 543.661085 414.484052 
L 543.027613 414.975592 
L 542.785309 415.486832 
L 542.397301 416.016283 
L 541.57118 416.562092 
L 540.104889 417.121994 
L 537.833977 417.693255 
L 534.042378 417.958832 
L 531.372961 418.562713 
L 529.094499 419.215128 
L 526.858685 419.91624 
L 524.834585 420.665989 
L 522.277181 421.463969 
L 519.61784 422.30928 
L 516.570273 423.200369 
L 514.035584 424.134839 
L 511.181688 425.109248 
L 509.579526 426.118883 
L 506.96849 427.157527 
L 503.826727 428.217229 
L 498.83273 429.288092 
L 493.982255 430.358104 
L 488.937339 431.413043 
L 483.080778 432.436486 
L 478.87233 432.805712 
L 475.624726 433.780797 
L 471.792252 434.691904 
L 466.935786 435.543993 
L 462.012731 436.344372 
L 455.648342 437.102487 
L 448.799964 437.829714 
L 443.961218 438.539159 
L 439.486386 439.245531 
L 435.78868 439.965081 
L 432.30803 440.715668 
L 432 440.785492 
" style="fill:none;stroke:#000000;stroke-opacity:0.7;stroke-width:1.275591;"/>
    <path clip-path="url(#p382977f994)" d="M 144 499.801912 
L 103.780269 503.914917 
L 25.2 508.719883 
" style="fill:none;stroke:#000000;stroke-opacity:0.7;stroke-width:1.275591;"/>
    <path clip-path="url(#p382977f994)" d="M 25.2 503.147881 
L 103.2125 498.570211 
L 144 494.571741 
" style="fill:none;stroke:#000000;stroke-opacity:0.7;stroke-width:1.275591;"/>
    <path clip-path="url(#p382977f994)" d="M 432 438.074854 
L 435.475736 437.346854 
L 439.17901 436.646238 
L 443.656433 435.958357 
L 448.498664 435.26794 
L 455.343482 434.561205 
L 461.703532 433.825904 
L 466.635124 433.051448 
L 471.501211 432.229083 
L 475.347885 431.352086 
L 478.611627 430.415948 
L 482.827704 430.046722 
L 488.681686 429.066626 
L 493.730498 428.05804 
L 498.586777 427.036369 
L 503.590143 426.014926 
L 506.747381 425.004928 
L 509.374666 424.015591 
L 510.996707 423.05429 
L 513.860552 422.126767 
L 516.395014 421.237346 
L 519.43842 420.389156 
L 522.098026 419.584343 
L 524.655927 418.824262 
L 526.682384 418.109653 
L 528.923849 417.440793 
L 531.203938 416.817636 
L 533.87064 416.239921 
L 537.645508 415.974343 
L 539.913169 415.427604 
L 541.377658 414.891917 
L 542.206305 414.369778 
L 542.597621 413.863245 
L 542.845652 413.373982 
L 543.480587 412.903316 
L 544.195673 412.452281 
L 545.065634 412.02167 
L 546.698491 411.612075 
L 547.994192 411.223937 
L 550.234524 410.857574 
L 553.480851 410.513228 
L 556.50357 410.191091 
L 559.189804 409.891341 
L 562.522741 409.614169 
L 565.188055 409.359814 
L 567.884099 409.134184 
L 570.934117 408.9022 
L 574.22132 408.689658 
L 576 408.589406 
" style="fill:none;stroke:#000000;stroke-opacity:0.7;stroke-width:1.275591;"/>
    <path clip-path="url(#p382977f994)" d="M 864 387.263181 
L 864.84286 387.212788 
L 870.602336 386.838853 
L 876.822591 386.4594 
L 882.713453 386.074559 
L 888.496657 385.684499 
L 892.753559 385.289436 
L 897.03045 384.889632 
L 901.2513 384.485398 
L 906.23358 384.0771 
L 911.168537 383.665157 
L 917.124783 383.250046 
L 923.983494 382.832303 
L 930.574195 382.412524 
L 937.700819 381.99137 
L 944.053145 381.56956 
L 947.683475 381.232313 
L 953.921432 380.810385 
L 960.634642 380.392092 
L 966.435207 379.97698 
L 972.86476 379.564453 
L 978.970742 379.153775 
L 982.8 378.850262 
" style="fill:none;stroke:#000000;stroke-opacity:0.7;stroke-width:1.275591;"/>
    <path clip-path="url(#p382977f994)" d="M 982.8 376.586988 
L 978.697868 376.918948 
L 972.598469 377.338482 
L 966.16936 377.7605 
L 960.36103 378.185883 
L 953.645738 378.615364 
L 947.403107 379.049528 
L 943.767987 379.386775 
L 937.412635 379.821683 
L 930.28681 380.256473 
L 923.69595 380.690348 
L 916.83791 381.122576 
L 910.876362 381.552487 
L 905.932617 381.979478 
L 900.942725 382.403005 
L 896.711431 382.822587 
L 892.425815 383.237799 
L 888.16399 383.648275 
L 882.389083 384.053698 
L 876.510126 384.453803 
L 870.303102 384.848374 
L 864.553715 385.237238 
L 864 385.271702 
" style="fill:none;stroke:#000000;stroke-opacity:0.7;stroke-width:1.275591;"/>
    <path clip-path="url(#p382977f994)" d="M 576 407.118268 
L 574.077001 407.228521 
L 570.788142 407.442557 
L 567.738144 407.673822 
L 565.038555 407.899453 
L 562.374778 408.150719 
L 559.048696 408.422492 
L 556.364675 408.714668 
L 553.347583 409.027177 
L 550.106631 409.359957 
L 547.857578 409.712922 
L 546.548055 410.085941 
L 544.90627 410.478798 
L 544.023737 410.891169 
L 543.300089 411.322581 
L 542.663692 411.772373 
L 542.409933 412.239657 
L 542.015308 412.723273 
L 541.184135 413.221741 
L 539.721448 413.733214 
L 537.45704 414.255431 
L 533.698901 414.521009 
L 531.034915 415.072558 
L 528.7532 415.666459 
L 526.506083 416.303066 
L 524.477268 416.982535 
L 521.918871 417.704717 
L 519.259 418.469032 
L 516.219755 419.274322 
L 513.68552 420.118694 
L 510.811726 420.999332 
L 509.169806 421.912299 
L 506.526272 422.85233 
L 503.353558 423.812623 
L 498.340824 424.784645 
L 493.47874 425.757976 
L 488.426033 426.720209 
L 482.57463 427.656957 
L 478.350925 428.026183 
L 475.071044 428.923374 
L 471.21017 429.766263 
L 466.334462 430.558903 
L 461.394334 431.307436 
L 455.038623 432.019922 
L 448.197363 432.706166 
L 443.351648 433.377554 
L 438.871634 434.046946 
L 435.162793 434.728626 
L 432 435.371552 
" style="fill:none;stroke:#000000;stroke-opacity:0.7;stroke-width:1.275591;"/>
    <path clip-path="url(#p382977f994)" d="M 144 489.346953 
L 102.644731 493.225506 
L 25.2 497.578036 
" style="fill:none;stroke:#000000;stroke-opacity:0.7;stroke-width:1.275591;"/>
    <path clip-path="url(#p382977f994)" d="M 25.2 492.010358 
L 102.076962 487.8808 
L 144 484.127573 
" style="fill:none;stroke:#000000;stroke-opacity:0.7;stroke-width:1.275591;"/>
    <path clip-path="url(#p382977f994)" d="M 432 432.672169 
L 434.849849 432.110399 
L 438.564257 431.447653 
L 443.046863 430.796752 
L 447.896063 430.144392 
L 454.733763 429.478639 
L 461.085135 428.788968 
L 466.0338 428.066358 
L 470.919129 427.303442 
L 474.794202 426.494662 
L 478.090222 425.636419 
L 482.321556 425.267193 
L 488.17038 424.373792 
L 493.226982 423.457911 
L 498.094871 422.532922 
L 503.116974 421.61032 
L 506.305163 420.699731 
L 508.964946 419.809006 
L 510.626745 418.944374 
L 513.510488 418.110622 
L 516.044496 417.311299 
L 519.07958 416.548908 
L 521.739716 415.825092 
L 524.298609 415.140808 
L 526.329781 414.496479 
L 528.58255 413.892124 
L 530.865892 413.327481 
L 533.527163 412.802097 
L 537.268572 412.53652 
L 539.529728 412.038824 
L 540.990613 411.551565 
L 541.824312 411.076768 
L 542.222246 410.61607 
L 542.481732 410.170763 
L 543.11959 409.741845 
L 543.8518 409.330057 
L 544.746906 408.935926 
L 546.397618 408.559806 
L 547.720963 408.201908 
L 549.978739 407.862339 
L 553.214316 407.541126 
L 556.225779 407.238244 
L 558.907588 406.953643 
L 562.226814 406.68727 
L 564.889055 406.439091 
L 567.592188 406.213461 
L 570.642167 405.982914 
L 573.932682 405.767384 
L 576 405.646854 
" style="fill:none;stroke:#000000;stroke-opacity:0.7;stroke-width:1.275591;"/>
    <path clip-path="url(#p382977f994)" d="M 864 383.278805 
L 864.264569 383.261687 
L 870.003869 382.857896 
L 876.197661 382.448207 
L 882.064713 382.032837 
L 887.831324 381.61205 
L 892.098072 381.186163 
L 896.392411 380.755541 
L 900.634151 380.320611 
L 905.631654 379.881855 
L 910.584188 379.439817 
L 916.551037 378.995106 
L 923.408406 378.548394 
L 929.999425 378.100422 
L 937.124452 377.651996 
L 943.48283 377.203991 
L 947.122738 376.866744 
L 953.370044 376.420343 
L 960.087418 375.979673 
L 965.903513 375.544019 
L 972.332179 375.112511 
L 978.424995 374.68412 
L 982.8 374.3228 
" style="fill:none;stroke:#000000;stroke-opacity:0.7;stroke-width:1.275591;"/>
    <path clip-path="url(#p382977f994)" d="M 982.8 372.057696 
L 978.152121 372.449293 
L 972.065888 372.88654 
L 965.637666 373.327539 
L 959.813806 373.773463 
L 953.094349 374.225322 
L 946.84237 374.68396 
L 943.197672 375.021207 
L 936.836268 375.482309 
L 929.71204 375.94437 
L 923.120862 376.40644 
L 916.264164 376.867636 
L 910.292013 377.327147 
L 905.330691 377.784232 
L 900.325576 378.238218 
L 896.073391 378.688496 
L 891.770328 379.134526 
L 887.498658 379.575826 
L 881.740343 380.011975 
L 875.885196 380.44261 
L 869.704635 380.867417 
L 864 381.284341 
" style="fill:none;stroke:#000000;stroke-opacity:0.7;stroke-width:1.275591;"/>
    <path clip-path="url(#p382977f994)" d="M 576 404.175165 
L 573.788364 404.306247 
L 570.496192 404.523271 
L 567.446232 404.753099 
L 564.739555 404.978729 
L 562.078851 405.223821 
L 558.766479 405.484794 
L 556.086883 405.76182 
L 553.081049 406.055075 
L 549.850846 406.364722 
L 547.584349 406.690894 
L 546.247182 407.033671 
L 544.587542 407.393054 
L 543.679863 407.768944 
L 542.939092 408.16111 
L 542.299772 408.569154 
L 542.034558 408.992482 
L 541.633315 409.430264 
L 540.79709 409.88139 
L 539.338008 410.344434 
L 537.080104 410.817608 
L 533.355424 411.083185 
L 530.69687 411.582403 
L 528.411901 412.11779 
L 526.15348 412.689891 
L 524.11995 413.299081 
L 521.560561 413.945466 
L 518.90016 414.628783 
L 515.869237 415.348276 
L 513.335456 416.10255 
L 510.441764 416.889415 
L 508.760087 417.705714 
L 506.084054 418.547133 
L 502.88039 419.408017 
L 497.848918 420.281199 
L 492.975225 421.157847 
L 487.914728 422.027375 
L 482.068482 422.877428 
L 477.82952 423.246654 
L 474.517361 424.065951 
L 470.628088 424.840622 
L 465.733137 425.573813 
L 460.775936 426.2705 
L 454.428904 426.937356 
L 447.594763 427.582617 
L 442.742078 428.215949 
L 438.256881 428.84836 
L 434.536905 429.492171 
L 432 429.976687 
" style="fill:none;stroke:#000000;stroke-opacity:0.7;stroke-width:1.275591;"/>
    <path clip-path="url(#p382977f994)" d="M 144 478.913629 
L 101.509193 482.536095 
L 25.2 486.444858 
" style="fill:none;stroke:#000000;stroke-opacity:0.7;stroke-width:1.275591;"/>
    <path clip-path="url(#p382977f994)" d="M 25.2 480.881547 
L 100.941424 477.191389 
L 144 473.705148 
" style="fill:none;stroke:#000000;stroke-opacity:0.7;stroke-width:1.275591;"/>
    <path clip-path="url(#p382977f994)" d="M 432 427.285087 
L 434.223962 426.873944 
L 437.949505 426.249067 
L 442.437294 425.635147 
L 447.293462 425.020843 
L 454.124044 424.396073 
L 460.466737 423.752032 
L 465.432475 423.081268 
L 470.337047 422.377802 
L 474.24052 421.637239 
L 477.568817 420.85689 
L 481.815409 420.487664 
L 487.659075 419.680958 
L 492.723467 418.857782 
L 497.602965 418.029476 
L 502.643805 417.205714 
L 505.862945 416.394534 
L 508.555227 415.602422 
L 510.256783 414.834457 
L 513.160424 414.094478 
L 515.693978 413.385253 
L 518.72074 412.708659 
L 521.381406 412.06584 
L 523.941291 411.457353 
L 525.977179 410.883304 
L 528.241251 410.343455 
L 530.527847 409.837326 
L 533.183686 409.364273 
L 536.891636 409.098696 
L 539.146288 408.650043 
L 540.603568 408.211214 
L 541.442319 407.783759 
L 541.84687 407.368895 
L 542.117811 406.967544 
L 542.758593 406.580374 
L 543.507927 406.207832 
L 544.428179 405.850182 
L 546.096746 405.507536 
L 547.447735 405.17988 
L 549.722954 404.867104 
L 552.947782 404.569023 
L 555.947988 404.285396 
L 558.625371 404.015946 
L 561.930888 403.760372 
L 564.590055 403.518368 
L 567.300277 403.292737 
L 570.350217 403.063629 
L 573.644045 402.84511 
L 576 402.703201 
" style="fill:none;stroke:#000000;stroke-opacity:0.7;stroke-width:1.275591;"/>
    <path clip-path="url(#p382977f994)" d="M 864 379.286799 
L 869.405401 378.876939 
L 875.572731 378.437013 
L 881.415973 377.991114 
L 887.165991 377.539601 
L 891.442585 377.082889 
L 895.754372 376.621451 
L 900.017002 376.155824 
L 905.029728 375.68661 
L 909.999838 375.214477 
L 915.977291 374.740166 
L 922.833318 374.264486 
L 929.424655 373.788319 
L 936.548084 373.312622 
L 942.912515 372.838423 
L 946.562001 372.501176 
L 952.818655 372.030301 
L 959.540194 371.567253 
L 965.37182 371.111058 
L 971.799598 370.660569 
L 977.879247 370.214466 
L 982.8 369.791674 
" style="fill:none;stroke:#000000;stroke-opacity:0.7;stroke-width:1.275591;"/>
    <path clip-path="url(#p382977f994)" d="M 982.8 367.524882 
L 982.761971 367.528065 
L 977.606373 367.979639 
L 971.533307 368.434598 
L 965.105973 368.894578 
L 959.266582 369.361043 
L 952.542961 369.83528 
L 946.281633 370.318392 
L 942.627357 370.655639 
L 936.2599 371.142935 
L 929.13727 371.632268 
L 922.545774 372.122531 
L 915.690418 372.612696 
L 909.707663 373.101808 
L 904.728765 373.588987 
L 899.708427 374.073431 
L 895.435352 374.554406 
L 891.114841 375.031252 
L 886.833325 375.503377 
L 881.091603 375.970253 
L 875.260266 376.431416 
L 869.106167 376.88646 
L 864 377.287667 
" style="fill:none;stroke:#000000;stroke-opacity:0.7;stroke-width:1.275591;"/>
    <path clip-path="url(#p382977f994)" d="M 576 401.230962 
L 573.499726 401.383973 
L 570.204241 401.603986 
L 567.154321 401.832376 
L 564.440555 402.058006 
L 561.782924 402.296922 
L 558.484263 402.547097 
L 555.809092 402.808973 
L 552.814515 403.082972 
L 549.595061 403.369487 
L 547.31112 403.668866 
L 545.946309 403.981401 
L 544.268815 404.307311 
L 543.33599 404.64672 
L 542.578095 404.999638 
L 541.935851 405.365934 
L 541.659182 405.745307 
L 541.251322 406.137254 
L 540.410045 406.541039 
L 538.954567 406.955653 
L 536.703167 407.379784 
L 533.011947 407.645361 
L 530.358824 408.092248 
L 528.070602 408.569121 
L 525.800878 409.076717 
L 523.762632 409.615626 
L 521.202251 410.186214 
L 518.54132 410.788535 
L 515.518719 411.42223 
L 512.985392 412.086405 
L 510.071802 412.779499 
L 508.350367 413.49913 
L 505.641836 414.241936 
L 502.407221 415.003412 
L 497.357012 415.777752 
L 492.471709 416.557718 
L 487.403422 417.334541 
L 481.562335 418.0979 
L 477.308115 418.467126 
L 473.963679 419.208527 
L 470.046006 419.914981 
L 465.131813 420.588724 
L 460.157538 421.233564 
L 453.819185 421.85479 
L 446.992162 422.459069 
L 442.132509 423.054344 
L 437.642129 423.649775 
L 433.911018 424.255716 
L 432 424.597352 
" style="fill:none;stroke:#000000;stroke-opacity:0.7;stroke-width:1.275591;"/>
    <path clip-path="url(#p382977f994)" d="M 144 468.502158 
L 100.373655 471.846683 
L 25.2 475.320438 
" style="fill:none;stroke:#000000;stroke-opacity:0.7;stroke-width:1.275591;"/>
    <path clip-path="url(#p382977f994)" d="M 25.2 469.76154 
L 99.805886 466.501978 
L 144 463.304684 
" style="fill:none;stroke:#000000;stroke-opacity:0.7;stroke-width:1.275591;"/>
    <path clip-path="url(#p382977f994)" d="M 432 421.913464 
L 433.598075 421.637489 
L 437.334752 421.050482 
L 441.827724 420.473542 
L 446.690862 419.897295 
L 453.514325 419.313508 
L 459.848339 418.715096 
L 464.83115 418.096179 
L 469.754965 417.452161 
L 473.686838 416.779816 
L 477.047412 416.077361 
L 481.309261 415.708135 
L 487.147769 414.988124 
L 492.219952 414.257654 
L 497.111059 413.526029 
L 502.170636 412.801109 
L 505.420727 412.089337 
L 508.145507 411.395838 
L 509.88682 410.724541 
L 512.81036 410.078333 
L 515.34346 409.459206 
L 518.3619 408.868411 
L 521.023096 408.306588 
L 523.583973 407.773899 
L 525.624576 407.27013 
L 527.899952 406.794786 
L 530.189801 406.347171 
L 532.840209 405.926449 
L 536.514699 405.660872 
L 538.762847 405.261263 
L 540.216522 404.870863 
L 541.060326 404.490749 
L 541.471494 404.121719 
L 541.753891 403.764325 
L 542.397596 403.418903 
L 543.164053 403.085608 
L 544.109451 402.764439 
L 545.795873 402.455266 
L 547.174506 402.157852 
L 549.467169 401.87187 
L 552.681248 401.596921 
L 555.670196 401.332549 
L 558.343155 401.078248 
L 561.634961 400.833473 
L 564.291055 400.597645 
L 567.008365 400.372014 
L 570.058266 400.144343 
L 573.355407 399.922836 
L 576 399.758451 
" style="fill:none;stroke:#000000;stroke-opacity:0.7;stroke-width:1.275591;"/>
    <path clip-path="url(#p382977f994)" d="M 864 375.286937 
L 868.806934 374.895981 
L 874.947801 374.425819 
L 880.767233 373.949392 
L 886.500658 373.467152 
L 890.787097 372.979615 
L 895.116333 372.487361 
L 899.399853 371.991037 
L 904.427802 371.491365 
L 909.415489 370.989138 
L 915.403545 370.485226 
L 922.25823 369.980577 
L 928.849885 369.476216 
L 935.971716 368.973248 
L 942.3422 368.472854 
L 946.001264 368.135607 
L 952.267267 367.640259 
L 958.99297 367.154833 
L 964.840126 366.678097 
L 971.267017 366.208627 
L 977.3335 365.744811 
L 982.486415 365.284864 
L 982.8 365.258144 
" style="fill:none;stroke:#000000;stroke-opacity:0.7;stroke-width:1.275591;"/>
   </g>
  </g>
 </g>
 <defs>
  <clipPath id="p382977f994">
   <rect height="752.4" width="957.6" x="25.2" y="19.8"/>
  </clipPath>
 </defs>
</svg>
