<?xml version="1.0" encoding="utf-8" standalone="no"?>
<!DOCTYPE svg PUBLIC "-//W3C//DTD SVG 1.1//EN"
  "http://www.w3.org/Graphics/SVG/1.1/DTD/svg11.dtd">
<!-- Created with matplotlib (https://matplotlib.org/) -->
<svg height="792pt" version="1.1" viewBox="0 0 1008 792" width="1008pt" xmlns="http://www.w3.org/2000/svg" xmlns:xlink="http://www.w3.org/1999/xlink">
 <defs>
  <style type="text/css">
*{stroke-linecap:butt;stroke-linejoin:round;}
  </style>
 </defs>
 <g id="figure_1">
  <g id="axes_1">
   <g id="LineCollection_1">
    <path clip-path="url(#pf15f1f980f)" d="M 982.8 493.048582 
L 979.993394 493.017484 
L 974.588852 492.908799 
L 967.98183 492.756464 
L 961.982266 492.554306 
L 958.596176 492.891553 
L 952.398193 492.6454 
L 945.230827 492.371142 
L 938.648241 492.071971 
L 931.755302 491.751015 
L 926.069448 491.411322 
L 921.582695 491.055852 
L 916.9886 490.68747 
L 913.300448 490.308938 
L 909.468482 489.922915 
L 905.462643 489.531949 
L 899.256326 489.138481 
L 892.75831 488.744843 
L 885.863259 488.353263 
L 879.589275 487.965863 
L 873.08087 487.584669 
L 867.492195 487.211609 
L 864.459194 487.512339 
L 864 487.48584 
" style="fill:none;stroke:#000000;stroke-opacity:0.7;stroke-width:1.275591;"/>
    <path clip-path="url(#pf15f1f980f)" d="M 576 483.553441 
L 575.327839 483.612625 
L 572.812554 483.838255 
L 570.068873 484.250082 
L 566.386327 484.802627 
L 563.587248 485.4887 
L 560.277471 486.301839 
L 556.757044 487.236063 
L 554.961525 488.285657 
L 554.370749 489.444954 
L 553.193188 490.708133 
L 552.964446 492.069009 
L 552.686006 493.520832 
L 552.125626 495.056072 
L 552.1697 496.666211 
L 551.947125 498.341524 
L 551.247308 500.070873 
L 549.690902 501.841503 
L 547.257387 503.638849 
L 542.629307 503.904427 
L 539.824105 505.816585 
L 537.626974 507.931852 
L 535.673749 510.245596 
L 533.767529 512.75235 
L 531.234934 515.445264 
L 528.588845 518.315494 
L 525.333228 521.351529 
L 522.78719 524.538454 
L 520.430744 527.857156 
L 519.822521 531.283492 
L 518.023938 534.787454 
L 515.655948 538.332372 
L 511.130384 541.874255 
L 506.570139 545.361322 
L 501.719979 548.733891 
L 495.734477 551.924709 
L 491.907453 552.293935 
L 489.466784 555.21638 
L 486.344303 557.832927 
L 481.968901 560.17124 
L 477.472674 562.267773 
L 470.891319 564.166629 
L 463.86498 565.91842 
L 459.200461 567.579285 
L 454.855197 569.210167 
L 451.435863 570.876457 
L 448.226475 572.648092 
L 444.590876 574.600197 
L 439.786484 576.814365 
L 434.508318 579.380729 
L 432 581.161717 
" style="fill:none;stroke:#000000;stroke-opacity:0.7;stroke-width:1.275591;"/>
    <path clip-path="url(#pf15f1f980f)" d="M 418.386312 594 
L 416.853929 595.99481 
L 412.808651 602.336739 
L 406.337283 609.803003 
L 397.768095 618.442988 
L 390.205629 628.312446 
L 381.980908 639.467535 
L 372.235885 651.95646 
L 360.658198 665.807608 
L 345.687995 681.01295 
L 324.78003 697.505479 
L 292.795977 715.129905 
L 247.958594 733.606969 
L 194.887487 752.494227 
L 132.16872 771.150195 
L 126.16254 772.2 
" style="fill:none;stroke:#000000;stroke-opacity:0.7;stroke-width:1.275591;"/>
    <path clip-path="url(#pf15f1f980f)" d="M 94.571701 772.2 
L 131.600951 765.805489 
L 194.224458 747.404106 
L 247.24334 728.775868 
L 292.056007 710.553089 
L 324.056641 693.171822 
L 345.017928 676.907228 
L 360.049143 661.912256 
L 371.678331 648.252822 
L 381.4605 635.936716 
L 389.719808 624.935834 
L 397.309346 615.20255 
L 405.89279 606.681402 
L 412.381151 599.317337 
L 415.841834 594 
" style="fill:none;stroke:#000000;stroke-opacity:0.7;stroke-width:1.275591;"/>
    <path clip-path="url(#pf15f1f980f)" d="M 432 578.192912 
L 434.191567 576.660348 
L 439.472824 574.125893 
L 444.274521 571.938532 
L 447.908106 570.009444 
L 451.122919 568.25823 
L 454.547821 566.610875 
L 458.895676 564.998483 
L 463.563679 563.356646 
L 470.58646 561.625346 
L 477.163475 559.749305 
L 481.668239 557.678695 
L 486.053262 555.370107 
L 489.189943 552.787668 
L 491.646751 549.90417 
L 495.481403 549.534944 
L 501.464326 546.387474 
L 506.318381 543.061258 
L 510.884431 539.622531 
L 515.419364 536.13007 
L 517.802829 532.634855 
L 519.617661 529.1802 
L 520.245763 525.802198 
L 522.612158 522.530381 
L 525.157969 519.388506 
L 528.409425 516.39537 
L 531.055779 513.565639 
L 533.588871 510.910623 
L 535.497447 508.439009 
L 537.456325 506.157518 
L 539.655082 504.071507 
L 542.457568 502.185515 
L 547.068919 501.919937 
L 549.499181 500.147113 
L 551.053786 498.400698 
L 551.756128 496.695019 
L 551.982013 495.042623 
L 551.943666 493.454463 
L 552.505507 491.940097 
L 552.792509 490.507897 
L 553.033824 489.165261 
L 554.220313 487.918819 
L 554.82491 486.774643 
L 556.629152 485.738445 
L 560.144204 484.815787 
L 563.448352 484.012277 
L 566.245219 483.333778 
L 569.920909 482.786633 
L 572.663054 482.377893 
L 575.181883 482.152263 
L 576 482.08042 
" style="fill:none;stroke:#000000;stroke-opacity:0.7;stroke-width:1.275591;"/>
    <path clip-path="url(#pf15f1f980f)" d="M 864 485.555527 
L 864.186293 485.565911 
L 867.214339 485.265182 
L 872.798544 485.623815 
L 879.30013 485.990313 
L 885.564025 486.362784 
L 892.445845 486.739246 
L 898.931956 487.11762 
L 905.129977 487.495724 
L 909.140739 487.871278 
L 912.981428 488.241893 
L 916.680025 488.605076 
L 921.281732 488.958229 
L 925.777273 489.298652 
L 931.468429 489.623545 
L 938.360697 489.930017 
L 944.943442 490.21509 
L 952.11001 490.475713 
L 958.311018 490.708769 
L 961.701898 490.371522 
L 967.706136 490.561443 
L 974.31524 490.702589 
L 979.727547 490.801003 
L 982.8 490.83053 
" style="fill:none;stroke:#000000;stroke-opacity:0.7;stroke-width:1.275591;"/>
    <path clip-path="url(#pf15f1f980f)" d="M 982.8 488.611695 
L 979.461701 488.584523 
L 974.041628 488.496379 
L 967.430442 488.366422 
L 961.42153 488.188738 
L 958.025861 488.525985 
L 951.821826 488.306026 
L 944.656057 488.059039 
L 938.073153 487.788063 
L 931.181556 487.496075 
L 925.485098 487.185982 
L 920.980769 486.860607 
L 916.371451 486.522683 
L 912.662409 486.174848 
L 908.812995 485.819641 
L 904.79731 485.4595 
L 898.607586 485.096758 
L 892.13338 484.733649 
L 885.264791 484.372306 
L 879.010985 484.014762 
L 872.516218 483.662961 
L 866.936482 483.318754 
L 864 483.610867 
" style="fill:none;stroke:#000000;stroke-opacity:0.7;stroke-width:1.275591;"/>
    <path clip-path="url(#pf15f1f980f)" d="M 576 480.607468 
L 575.035928 480.691901 
L 572.513554 480.917532 
L 569.772946 481.323184 
L 566.104111 481.86493 
L 563.309456 482.535853 
L 560.010937 483.329736 
L 556.501259 484.240828 
L 554.688296 485.263628 
L 554.069876 486.392684 
L 552.87446 487.622389 
L 552.620572 488.946785 
L 552.325009 490.359361 
L 551.761706 491.852853 
L 551.794325 493.419036 
L 551.565132 495.048514 
L 550.860263 496.730522 
L 549.307461 498.452723 
L 546.880451 500.201026 
L 542.28583 500.466603 
L 539.486059 502.32643 
L 537.285675 504.383183 
L 535.321146 506.632422 
L 533.410212 509.068896 
L 530.876624 511.686013 
L 528.230005 514.475246 
L 524.98271 517.425483 
L 522.437126 520.522309 
L 520.060782 523.74724 
L 519.412801 527.076908 
L 517.58172 530.482257 
L 515.182779 533.927767 
L 510.638478 537.370808 
L 506.066623 540.761194 
L 501.208673 544.041057 
L 495.228329 547.14518 
L 491.386048 547.514406 
L 488.913102 550.358957 
L 485.762221 552.907287 
L 481.367576 555.18615 
L 476.854276 557.230837 
L 470.2816 559.084063 
L 463.262379 560.794872 
L 458.590892 562.41768 
L 454.240445 564.011582 
L 450.809976 565.640002 
L 447.589737 567.370795 
L 443.958166 569.276867 
L 439.159164 571.437421 
L 433.874816 573.939967 
L 432 575.231002 
" style="fill:none;stroke:#000000;stroke-opacity:0.7;stroke-width:1.275591;"/>
    <path clip-path="url(#pf15f1f980f)" d="M 413.479848 594 
L 411.95365 596.297935 
L 405.448297 603.559801 
L 396.850597 611.962112 
L 389.233987 621.559223 
L 380.940092 632.405896 
L 371.120777 644.549184 
L 359.440087 658.016903 
L 344.347861 672.801506 
L 323.333253 688.838164 
L 291.316036 705.976272 
L 246.528086 723.944766 
L 193.561429 742.313984 
L 131.033182 760.460784 
L 62.214642 772.2 
" style="fill:none;stroke:#000000;stroke-opacity:0.7;stroke-width:1.275591;"/>
    <path clip-path="url(#pf15f1f980f)" d="M 28.94707 772.2 
L 30.445744 771.966359 
L 130.465413 755.116078 
L 192.8984 737.223863 
L 245.812833 719.113665 
L 290.576066 701.399456 
L 322.609865 684.504506 
L 343.677794 668.695785 
L 358.831032 654.121551 
L 370.563223 640.845546 
L 380.419684 628.875077 
L 388.748167 618.182611 
L 396.391848 608.721674 
L 405.003804 600.4382 
L 410.868905 594 
" style="fill:none;stroke:#000000;stroke-opacity:0.7;stroke-width:1.275591;"/>
    <path clip-path="url(#pf15f1f980f)" d="M 432 572.275938 
L 433.558065 571.219585 
L 438.845504 568.748949 
L 443.641811 566.615202 
L 447.271368 564.732147 
L 450.497032 563.021775 
L 453.933068 561.412289 
L 458.286107 559.836878 
L 462.961079 558.233097 
L 469.976741 556.54278 
L 476.545077 554.712369 
L 481.066914 552.693605 
L 485.47118 550.444466 
L 488.636261 547.930245 
L 491.125346 545.124641 
L 494.975255 544.755415 
L 500.95302 541.69464 
L 505.814866 538.461129 
L 510.392525 535.119085 
L 514.946195 531.725464 
L 517.360611 528.329658 
L 519.207941 524.973616 
L 519.875801 521.692281 
L 522.262094 518.514237 
L 524.807451 515.462459 
L 528.050585 512.555121 
L 530.697469 509.806387 
L 533.231553 507.227169 
L 535.144845 504.825835 
L 537.115026 502.608849 
L 539.317036 500.581352 
L 542.114091 498.747691 
L 546.691983 498.482114 
L 549.115741 496.758332 
L 550.666741 495.060347 
L 551.374135 493.402009 
L 551.606637 491.795448 
L 551.579746 490.251244 
L 552.14451 488.778625 
L 552.448635 487.385672 
L 552.715096 486.079517 
L 553.91944 484.866549 
L 554.551682 483.752614 
L 556.373367 482.743211 
L 559.87767 481.843685 
L 563.170561 481.059429 
L 565.963002 480.396081 
L 569.624983 479.859735 
L 572.364054 479.45717 
L 574.889972 479.23154 
L 576 479.134585 
" style="fill:none;stroke:#000000;stroke-opacity:0.7;stroke-width:1.275591;"/>
    <path clip-path="url(#pf15f1f980f)" d="M 864 481.637233 
L 866.658626 481.372326 
L 872.233892 481.702107 
L 878.721839 482.039212 
L 884.965557 482.381827 
L 891.820915 482.728053 
L 898.283216 483.075897 
L 904.464644 483.423275 
L 908.485251 483.768005 
L 912.343389 484.107803 
L 916.062876 484.440289 
L 920.679806 484.762984 
L 925.192923 485.073312 
L 930.894683 485.368605 
L 937.785609 485.646109 
L 944.368672 485.902988 
L 951.533642 486.136339 
L 957.740703 486.3432 
L 961.141161 486.005953 
L 967.154748 486.171401 
L 973.768016 486.290169 
L 979.195854 486.368042 
L 982.8 486.392078 
" style="fill:none;stroke:#000000;stroke-opacity:0.7;stroke-width:1.275591;"/>
    <path clip-path="url(#pf15f1f980f)" d="M 982.8 484.171679 
L 978.930007 484.151562 
L 973.494404 484.083959 
L 966.879054 483.97638 
L 960.860793 483.823169 
L 957.455546 484.160416 
L 951.245458 483.966652 
L 944.081287 483.746936 
L 937.498065 483.504154 
L 930.60781 483.241135 
L 924.900749 482.960642 
L 920.378843 482.665362 
L 915.754302 482.357896 
L 912.02437 482.040758 
L 908.157508 481.716368 
L 904.131977 481.387051 
L 897.958846 481.055036 
L 891.50845 480.722456 
L 884.666324 480.391348 
L 878.432694 480.063661 
L 871.951566 479.741253 
L 866.380769 479.425898 
L 864 479.663509 
" style="fill:none;stroke:#000000;stroke-opacity:0.7;stroke-width:1.275591;"/>
    <path clip-path="url(#pf15f1f980f)" d="M 576 477.66177 
L 574.744016 477.771178 
L 572.214555 477.996809 
L 569.477019 478.396285 
L 565.821894 478.927232 
L 563.031665 479.583005 
L 559.744403 480.357634 
L 556.245474 481.245593 
L 554.415067 482.2416 
L 553.769003 483.340414 
L 552.555732 484.536645 
L 552.276699 485.82456 
L 551.964012 487.19789 
L 551.397785 488.649634 
L 551.418949 490.17186 
L 551.183139 491.755505 
L 550.473218 493.390171 
L 548.924021 495.063942 
L 546.503515 496.763202 
L 541.942353 497.028779 
L 539.148014 498.836275 
L 536.944376 500.834514 
L 534.968543 503.019247 
L 533.052894 505.385441 
L 530.518314 507.926761 
L 527.871165 510.634997 
L 524.632191 513.499436 
L 522.087061 516.506165 
L 519.690819 519.637323 
L 519.003082 522.870324 
L 517.139502 526.177059 
L 514.70961 529.523161 
L 510.146572 532.867362 
L 505.563108 536.161065 
L 500.697367 539.348223 
L 494.722181 542.365651 
L 490.864643 542.734877 
L 488.35942 545.501533 
L 485.180139 547.981646 
L 480.766252 550.20106 
L 476.235878 552.193901 
L 469.671881 554.001497 
L 462.659779 555.671323 
L 457.981322 557.256075 
L 453.625692 558.812996 
L 450.184088 560.403547 
L 446.952999 562.093498 
L 443.325456 563.953537 
L 438.531844 566.060477 
L 433.241314 568.499204 
L 432 569.327671 
" style="fill:none;stroke:#000000;stroke-opacity:0.7;stroke-width:1.275591;"/>
    <path clip-path="url(#pf15f1f980f)" d="M 407.632419 594 
L 404.559311 597.316599 
L 395.933099 605.481236 
L 388.262346 614.806 
L 379.899276 625.344258 
L 370.005669 637.141908 
L 358.221976 650.226198 
L 343.007728 664.590063 
L 321.886477 680.170849 
L 289.836096 696.822639 
L 245.097579 714.282564 
L 192.235371 732.133742 
L 129.897644 749.771373 
L 30.034224 766.383709 
L 25.2 767.127924 
" style="fill:none;stroke:#000000;stroke-opacity:0.7;stroke-width:1.275591;"/>
    <path clip-path="url(#pf15f1f980f)" d="M 25.2 761.473267 
L 29.622704 760.801059 
L 129.329875 744.426667 
L 191.572341 727.043621 
L 244.382326 709.451462 
L 289.096126 692.245823 
L 321.163089 675.837191 
L 342.337661 660.484341 
L 357.61292 646.330845 
L 369.448115 633.438271 
L 379.378868 621.813438 
L 387.776525 611.429388 
L 395.47435 602.240798 
L 404.114817 594.194998 
L 404.298631 594 
" style="fill:none;stroke:#000000;stroke-opacity:0.7;stroke-width:1.275591;"/>
    <path clip-path="url(#pf15f1f980f)" d="M 432 566.386152 
L 432.924563 565.778823 
L 438.218184 563.372004 
L 443.009101 561.291872 
L 446.63463 559.45485 
L 449.871145 557.78532 
L 453.318316 556.213704 
L 457.676537 554.675273 
L 462.358478 553.109549 
L 469.367022 551.460214 
L 475.92668 549.675433 
L 480.465589 547.708515 
L 484.889098 545.518825 
L 488.082578 543.072822 
L 490.603941 540.345112 
L 494.469107 539.975886 
L 500.441715 537.001806 
L 505.31135 533.861001 
L 509.900619 530.615638 
L 514.473026 527.320858 
L 516.918393 524.024461 
L 518.798222 520.767031 
L 519.505838 517.582365 
L 521.912029 514.498092 
L 524.456932 511.536413 
L 527.691744 508.714873 
L 530.339159 506.047135 
L 532.874235 503.543714 
L 534.792242 501.21266 
L 536.773727 499.06018 
L 538.978991 497.091197 
L 541.770614 495.309867 
L 546.315046 495.04429 
L 548.7323 493.369552 
L 550.279695 491.719995 
L 550.992142 490.109 
L 551.231261 488.548273 
L 551.215825 487.048024 
L 551.783513 485.617154 
L 552.104762 484.263448 
L 552.396369 482.993773 
L 553.618567 481.81428 
L 554.278453 480.730586 
L 556.117582 479.747976 
L 559.611136 478.871583 
L 562.892769 478.106582 
L 565.680786 477.458383 
L 569.329056 476.932836 
L 572.065055 476.536447 
L 574.59806 476.310817 
L 576 476.189024 
" style="fill:none;stroke:#000000;stroke-opacity:0.7;stroke-width:1.275591;"/>
    <path clip-path="url(#pf15f1f980f)" d="M 864 477.689696 
L 866.102913 477.47947 
L 871.66924 477.780399 
L 878.143548 478.088111 
L 884.36709 478.40087 
L 891.195985 478.716859 
L 897.634476 479.034175 
L 903.799311 479.350826 
L 907.829764 479.664731 
L 911.70535 479.973712 
L 915.445727 480.275502 
L 920.07788 480.567739 
L 924.608574 480.847973 
L 930.320937 481.113665 
L 937.210521 481.3622 
L 943.793902 481.590885 
L 950.957274 481.796965 
L 957.170388 481.977632 
L 960.580424 481.640385 
L 966.60336 481.781358 
L 973.220792 481.877749 
L 978.66416 481.935081 
L 982.8 481.950496 
" style="fill:none;stroke:#000000;stroke-opacity:0.7;stroke-width:1.275591;"/>
    <path clip-path="url(#pf15f1f980f)" d="M 982.8 479.72853 
L 978.398313 479.718601 
L 972.94718 479.671539 
L 966.327666 479.586337 
L 960.300056 479.457601 
L 956.885231 479.794848 
L 950.669091 479.627278 
L 943.506518 479.434834 
L 936.922977 479.220246 
L 930.034064 478.986195 
L 924.316399 478.735303 
L 919.776917 478.470116 
L 915.137153 478.193108 
L 911.38633 477.906667 
L 907.502021 477.613094 
L 903.466645 477.314602 
L 897.310106 477.013314 
L 890.88352 476.711262 
L 884.067856 476.410391 
L 877.854403 476.11256 
L 871.386914 475.819545 
L 865.825056 475.533042 
L 864 475.715792 
" style="fill:none;stroke:#000000;stroke-opacity:0.7;stroke-width:1.275591;"/>
    <path clip-path="url(#pf15f1f980f)" d="M 576 474.716346 
L 574.452105 474.850455 
L 571.915555 475.076086 
L 569.181093 475.469387 
L 565.539677 475.989535 
L 562.753874 476.630158 
L 559.477869 477.385531 
L 555.989689 478.250358 
L 554.141838 479.219572 
L 553.46813 480.288145 
L 552.237005 481.450902 
L 551.932825 482.702335 
L 551.603015 484.036418 
L 551.033865 485.446415 
L 551.043573 486.924685 
L 550.801146 488.462495 
L 550.086173 490.04982 
L 548.54058 491.675162 
L 546.126578 493.325378 
L 541.598875 493.590955 
L 538.809968 495.34612 
L 536.603077 497.285845 
L 534.615941 499.406073 
L 532.695576 501.701987 
L 530.160004 504.167509 
L 527.512324 506.794749 
L 524.281673 509.57339 
L 521.736997 512.49002 
L 519.320857 515.527407 
L 518.593362 518.663739 
L 516.697284 521.871862 
L 514.236442 525.118555 
L 509.654666 528.363915 
L 505.059593 531.560936 
L 500.186062 534.655389 
L 494.216033 537.586122 
L 490.343238 537.955348 
L 487.805737 540.64411 
L 484.598057 543.056005 
L 480.164927 545.21597 
L 475.617481 547.156965 
L 469.062162 548.918932 
L 462.057178 550.547775 
L 457.371752 552.09447 
L 453.01094 553.614411 
L 449.558201 555.167092 
L 446.316262 556.816201 
L 442.692746 558.630207 
L 437.904525 560.683532 
L 432.607812 563.058442 
L 432 563.451334 
" style="fill:none;stroke:#000000;stroke-opacity:0.7;stroke-width:1.275591;"/>
    <path clip-path="url(#pf15f1f980f)" d="M 400.475035 594 
L 395.015601 599.00036 
L 387.290704 608.052776 
L 378.85846 618.282619 
L 368.890561 629.734633 
L 357.003865 642.435493 
L 341.667594 656.37862 
L 320.439701 671.503534 
L 288.356155 687.669006 
L 243.667072 704.620361 
L 190.909312 721.9535 
L 128.762106 739.081962 
L 29.211185 755.218408 
L 25.2 755.820198 
" style="fill:none;stroke:#000000;stroke-opacity:0.7;stroke-width:1.275591;"/>
    <path clip-path="url(#pf15f1f980f)" d="M 25.2 750.168723 
L 28.799665 749.635758 
L 128.194337 733.737256 
L 190.246283 716.863378 
L 242.951818 699.789259 
L 287.616185 683.092189 
L 319.716313 667.169876 
L 340.997528 652.272898 
L 356.394809 638.54014 
L 368.333007 626.030995 
L 378.338051 614.7518 
L 386.804883 604.676165 
L 394.556852 595.759922 
L 396.510807 594 
" style="fill:none;stroke:#000000;stroke-opacity:0.7;stroke-width:1.275591;"/>
    <path clip-path="url(#pf15f1f980f)" d="M 432 560.523168 
L 432.291061 560.338061 
L 437.590865 557.99506 
L 442.376391 555.968542 
L 445.997893 554.177553 
L 449.245257 552.548865 
L 452.703563 551.015118 
L 457.066967 549.513668 
L 461.755878 547.986001 
L 468.757303 546.377649 
L 475.308282 544.638497 
L 479.864265 542.723425 
L 484.307016 540.593184 
L 487.528896 538.215398 
L 490.082536 535.565583 
L 493.962959 535.196357 
L 499.930409 532.308972 
L 504.807835 529.260872 
L 509.408713 526.112192 
L 513.999857 522.916252 
L 516.476175 519.719264 
L 518.388502 516.560447 
L 519.135876 513.472449 
L 521.561965 510.481948 
L 524.106414 507.610367 
L 527.332904 504.874624 
L 529.980849 502.287883 
L 532.516917 499.86026 
L 534.43964 497.599486 
L 536.432428 495.511511 
L 538.640945 493.601043 
L 541.427137 491.872043 
L 545.93811 491.606466 
L 548.34886 489.980772 
L 549.89265 488.379644 
L 550.610149 486.81599 
L 550.855886 485.301098 
L 550.851904 483.844805 
L 551.422517 482.455683 
L 551.760889 481.141223 
L 552.077641 479.90803 
L 553.317694 478.76201 
L 554.005224 477.708558 
L 555.861797 476.752741 
L 559.344602 475.89948 
L 562.614978 475.153734 
L 565.398569 474.520686 
L 569.033129 474.005937 
L 571.766055 473.615724 
L 574.306149 473.390094 
L 576 473.243737 
" style="fill:none;stroke:#000000;stroke-opacity:0.7;stroke-width:1.275591;"/>
    <path clip-path="url(#pf15f1f980f)" d="M 864 473.741797 
L 865.5472 473.586614 
L 871.104589 473.858691 
L 877.565258 474.13701 
L 883.768622 474.419913 
L 890.571055 474.705665 
L 896.985736 474.992452 
L 903.133978 475.278377 
L 907.174277 475.561457 
L 911.067311 475.839622 
L 914.828578 476.110715 
L 919.475954 476.372494 
L 924.024225 476.622633 
L 929.747191 476.858725 
L 936.635433 477.078291 
L 943.219133 477.278782 
L 950.380907 477.457592 
L 956.600074 477.612064 
L 960.019687 477.274817 
L 966.051972 477.391316 
L 972.673568 477.465329 
L 978.132467 477.502121 
L 982.8 477.505782 
" style="fill:none;stroke:#000000;stroke-opacity:0.7;stroke-width:1.275591;"/>
    <path clip-path="url(#pf15f1f980f)" d="M 982.8 475.282249 
L 977.86662 475.28564 
L 972.399956 475.259119 
L 965.776278 475.196295 
L 959.739319 475.092033 
L 956.314916 475.429279 
L 950.092723 475.287905 
L 942.931748 475.122731 
L 936.347889 474.936337 
L 929.460318 474.731255 
L 923.73205 474.509963 
L 919.17499 474.274871 
L 914.520004 474.028321 
L 910.748291 473.772577 
L 906.846534 473.50982 
L 902.801312 473.242153 
L 896.661366 472.971591 
L 890.258589 472.700068 
L 883.469388 472.429434 
L 877.276112 472.161459 
L 870.822263 471.897837 
L 865.269343 471.640186 
L 864 471.767711 
" style="fill:none;stroke:#000000;stroke-opacity:0.7;stroke-width:1.275591;"/>
    <path clip-path="url(#pf15f1f980f)" d="M 576 471.771197 
L 574.160193 471.929732 
L 571.616555 472.155362 
L 568.885166 472.542488 
L 565.257461 473.051837 
L 562.476083 473.677311 
L 559.211334 474.413429 
L 555.733904 475.255123 
L 553.86861 476.197544 
L 553.167258 477.235875 
L 551.918277 478.365158 
L 551.588952 479.580111 
L 551.242018 480.874947 
L 550.669944 482.243196 
L 550.668198 483.67751 
L 550.419153 485.169485 
L 549.699128 486.709468 
L 548.15714 488.286381 
L 545.749642 489.887554 
L 541.255398 490.153131 
L 538.471922 491.855965 
L 536.261778 493.737176 
L 534.263338 495.792899 
L 532.338258 498.018533 
L 529.801694 500.408257 
L 527.153484 502.9545 
L 523.931155 505.647343 
L 521.386933 508.473875 
L 518.950895 511.417491 
L 518.183642 514.457155 
L 516.255066 517.566665 
L 513.763273 520.713949 
L 509.162759 523.860469 
L 504.556077 526.960808 
L 499.674756 529.962555 
L 493.709886 532.806593 
L 489.821833 533.175819 
L 487.252055 535.786687 
L 484.015975 538.130364 
L 479.563603 540.23088 
L 474.999083 542.120029 
L 468.452443 543.836366 
L 461.454577 545.424227 
L 456.762182 546.932865 
L 452.396187 548.415826 
L 448.932314 549.930637 
L 445.679524 551.538904 
L 442.060036 553.306877 
L 437.277205 555.306588 
L 432 557.606483 
" style="fill:none;stroke:#000000;stroke-opacity:0.7;stroke-width:1.275591;"/>
    <path clip-path="url(#pf15f1f980f)" d="M 392.786383 594 
L 386.319063 601.299553 
L 377.817643 611.22098 
L 367.775452 622.327357 
L 355.785753 634.644787 
L 340.327461 648.167176 
L 318.992925 662.836218 
L 286.876215 678.515373 
L 242.236565 694.958158 
L 189.583254 711.773257 
L 127.626568 728.392551 
L 28.388145 744.053108 
L 25.2 744.51885 
" style="fill:none;stroke:#000000;stroke-opacity:0.7;stroke-width:1.275591;"/>
    <path clip-path="url(#pf15f1f980f)" d="M 25.2 738.870586 
L 27.976626 738.470457 
L 127.058799 723.047845 
L 188.920225 706.683136 
L 241.521311 690.127056 
L 286.136245 673.938556 
L 318.269537 658.502561 
L 339.657394 644.061455 
L 355.176698 630.749435 
L 367.217898 618.623719 
L 377.297235 607.690161 
L 385.833242 597.922942 
L 389.375964 594 
" style="fill:none;stroke:#000000;stroke-opacity:0.7;stroke-width:1.275591;"/>
    <path clip-path="url(#pf15f1f980f)" d="M 432 554.750203 
L 436.963545 552.618116 
L 441.743682 550.645213 
L 445.361155 548.900256 
L 448.61937 547.31241 
L 452.088811 545.816533 
L 456.457398 544.352063 
L 461.153277 542.862453 
L 468.147583 541.295083 
L 474.689884 539.601561 
L 479.26294 537.738335 
L 483.724934 535.667543 
L 486.975214 533.357975 
L 489.561131 530.786055 
L 493.456812 530.416829 
L 499.419103 527.616138 
L 504.30432 524.660743 
L 508.916806 521.608745 
L 513.526688 518.511647 
L 516.033957 515.414067 
L 517.978782 512.353863 
L 518.765914 509.362532 
L 521.211901 506.465803 
L 523.755896 503.68432 
L 526.974064 501.034376 
L 529.622538 498.528631 
L 532.1596 496.176805 
L 534.087037 493.986312 
L 536.091129 491.962842 
L 538.302899 490.110888 
L 541.08366 488.43422 
L 545.561173 488.168642 
L 547.965419 486.591991 
L 549.505605 485.039293 
L 550.228156 483.52298 
L 550.48051 482.053923 
L 550.487984 480.641586 
L 551.06152 479.294212 
L 551.417015 478.018998 
L 551.758913 476.822286 
L 553.016821 475.70974 
L 553.731995 474.68653 
L 555.606011 473.757506 
L 559.078067 472.927378 
L 562.337187 472.200887 
L 565.116352 471.582988 
L 568.737202 471.079039 
L 571.467055 470.695001 
L 574.014238 470.46937 
L 576 470.298725 
" style="fill:none;stroke:#000000;stroke-opacity:0.7;stroke-width:1.275591;"/>
    <path clip-path="url(#pf15f1f980f)" d="M 864 469.793533 
L 864.991487 469.693758 
L 870.539937 469.936983 
L 876.986967 470.185909 
L 883.170155 470.438955 
L 889.946124 470.694471 
L 896.336996 470.95073 
L 902.468645 471.205928 
L 906.51879 471.458183 
L 910.429272 471.705531 
L 914.211429 471.945928 
L 918.874027 472.177249 
L 923.439875 472.397293 
L 929.173445 472.603786 
L 936.060344 472.794383 
L 942.644363 472.96668 
L 949.804539 473.118218 
L 956.029759 473.246495 
L 959.45895 472.909248 
L 965.500584 473.001274 
L 972.126344 473.052909 
L 977.600773 473.06916 
L 982.8 473.057934 
" style="fill:none;stroke:#000000;stroke-opacity:0.7;stroke-width:1.275591;"/>
    <path clip-path="url(#pf15f1f980f)" d="M 982.8 470.832834 
L 977.334926 470.852679 
L 971.852732 470.8467 
L 965.22489 470.806253 
L 959.178582 470.726464 
L 955.744601 471.063711 
L 949.516355 470.948531 
L 942.356978 470.810628 
L 935.7728 470.652429 
L 928.886572 470.476316 
L 923.1477 470.284623 
L 918.573064 470.079626 
L 913.902855 469.863534 
L 910.110252 469.638486 
L 906.191046 469.406547 
L 902.135979 469.169704 
L 896.012626 468.929869 
L 889.633659 468.688874 
L 882.870921 468.448477 
L 876.697821 468.210358 
L 870.257611 467.976129 
L 864.71363 467.74733 
L 864 467.819263 
" style="fill:none;stroke:#000000;stroke-opacity:0.7;stroke-width:1.275591;"/>
    <path clip-path="url(#pf15f1f980f)" d="M 576 468.826322 
L 573.868282 469.009009 
L 571.317555 469.234639 
L 568.589239 469.61559 
L 564.975244 470.11414 
L 562.198291 470.724463 
L 558.9448 471.441327 
L 555.478119 472.259889 
L 553.595381 473.175516 
L 552.866385 474.183605 
L 551.59955 475.279414 
L 551.245078 476.457886 
L 550.881021 477.713476 
L 550.306024 479.039976 
L 550.292822 480.430335 
L 550.03716 481.876476 
L 549.312083 483.369117 
L 547.773699 484.897601 
L 545.372705 486.44973 
L 540.911921 486.715308 
L 538.133876 488.36581 
L 535.920479 490.188507 
L 533.910736 492.179725 
L 531.980941 494.335078 
L 529.443383 496.649005 
L 526.794644 499.114251 
L 523.580637 501.721297 
L 521.036869 504.457731 
L 518.580933 507.307574 
L 517.773922 510.250571 
L 515.812848 513.261468 
L 513.290104 516.309344 
L 508.670853 519.357022 
L 504.052562 522.360679 
L 499.163451 525.269721 
L 493.203738 528.027064 
L 489.300429 528.39629 
L 486.698373 530.929264 
L 483.433893 533.204723 
L 478.962278 535.245791 
L 474.380685 537.083093 
L 467.842724 538.7538 
L 460.851977 540.300679 
L 456.152613 541.77126 
L 451.781435 543.21724 
L 448.306426 544.694182 
L 445.042786 546.261607 
L 441.427327 547.983548 
L 436.649885 549.929643 
L 432 551.897888 
" style="fill:none;stroke:#000000;stroke-opacity:0.7;stroke-width:1.275591;"/>
    <path clip-path="url(#pf15f1f980f)" d="M 385.850435 594 
L 385.347421 594.54633 
L 376.776827 604.159342 
L 366.660344 614.920081 
L 354.567642 626.854082 
L 338.987327 639.955733 
L 317.546148 654.168903 
L 285.396274 669.36174 
L 240.806057 685.295955 
L 188.257196 701.593015 
L 126.49103 717.703139 
L 27.565106 732.887807 
L 25.2 733.223937 
" style="fill:none;stroke:#000000;stroke-opacity:0.7;stroke-width:1.275591;"/>
    <path clip-path="url(#pf15f1f980f)" d="M 25.2 727.578911 
L 27.153586 727.305157 
L 125.923261 712.358434 
L 187.594167 696.502893 
L 240.090804 680.464854 
L 284.656304 664.784923 
L 316.82276 649.835246 
L 338.317261 635.850011 
L 353.958587 622.958729 
L 366.10279 611.216443 
L 376.256419 600.628523 
L 382.286742 594 
" style="fill:none;stroke:#000000;stroke-opacity:0.7;stroke-width:1.275591;"/>
    <path clip-path="url(#pf15f1f980f)" d="M 432 549.049533 
L 436.336225 547.241171 
L 441.110972 545.321883 
L 444.724417 543.622959 
L 447.993483 542.075954 
L 451.474059 540.617947 
L 455.847828 539.190458 
L 460.550676 537.738905 
L 467.537864 536.212518 
L 474.071487 534.564625 
L 478.661616 532.753246 
L 483.142852 530.741902 
L 486.421531 528.500552 
L 489.039726 526.006526 
L 492.950664 525.6373 
L 498.907798 522.923304 
L 503.800804 520.060614 
L 508.4249 517.105299 
L 513.05352 514.107041 
L 515.591739 511.10887 
L 517.569062 508.147278 
L 518.395952 505.252616 
L 520.861837 502.449659 
L 523.405378 499.758274 
L 526.615224 497.194127 
L 529.264228 494.769379 
L 531.802282 492.493351 
L 533.734435 490.373138 
L 535.74983 488.414173 
L 537.964853 486.620733 
L 540.740183 484.996396 
L 545.184237 484.730819 
L 547.581979 483.203211 
L 549.11856 481.698942 
L 549.846164 480.229971 
L 550.105134 478.806747 
L 550.124063 477.438367 
L 550.700523 476.13274 
L 551.073142 474.896774 
L 551.440186 473.736543 
L 552.715948 472.65747 
L 553.458767 471.664501 
L 555.350226 470.762271 
L 558.811533 469.955276 
L 562.059396 469.24804 
L 564.834136 468.645291 
L 568.441276 468.15214 
L 571.168055 467.774278 
L 573.722326 467.548647 
L 576 467.353987 
" style="fill:none;stroke:#000000;stroke-opacity:0.7;stroke-width:1.275591;"/>
    <path clip-path="url(#pf15f1f980f)" d="M 864 465.844901 
L 864.435774 465.800902 
L 869.975285 466.015275 
L 876.408676 466.234808 
L 882.571687 466.457998 
L 889.321194 466.683277 
L 895.688256 466.909007 
L 901.803313 467.133479 
L 905.863303 467.35491 
L 909.791233 467.571441 
L 913.59428 467.781141 
L 918.272101 467.982004 
L 922.855526 468.171953 
L 928.599699 468.348846 
L 935.485256 468.510474 
L 942.069593 468.654577 
L 949.228172 468.778844 
L 955.459444 468.880927 
L 958.898213 468.54368 
L 964.949195 468.611232 
L 971.57912 468.64049 
L 977.069079 468.636199 
L 982.8 468.606951 
" style="fill:none;stroke:#000000;stroke-opacity:0.7;stroke-width:1.275591;"/>
    <path clip-path="url(#pf15f1f980f)" d="M 982.8 466.380283 
L 976.803233 466.419718 
L 971.305508 466.43428 
L 964.673501 466.41621 
L 958.617845 466.360896 
L 955.174286 466.698143 
L 948.939988 466.609157 
L 941.782208 466.498526 
L 935.197712 466.36852 
L 928.312827 466.221376 
L 922.563351 466.059283 
L 917.971138 465.884381 
L 913.285706 465.698747 
L 909.472213 465.504396 
L 905.535559 465.303273 
L 901.470646 465.097255 
L 895.363886 464.888146 
L 889.008729 464.67768 
L 882.272453 464.467519 
L 876.119531 464.259257 
L 869.692959 464.054421 
L 864.157917 463.854474 
L 864 463.870445 
" style="fill:none;stroke:#000000;stroke-opacity:0.7;stroke-width:1.275591;"/>
    <path clip-path="url(#pf15f1f980f)" d="M 576 465.881721 
L 573.576371 466.088286 
L 571.018555 466.313916 
L 568.293312 466.688691 
L 564.693028 467.176442 
L 561.9205 467.771616 
L 558.678266 468.469224 
L 555.222334 469.264654 
L 553.322152 470.153487 
L 552.565512 471.131336 
L 551.280822 472.193671 
L 550.901205 473.335661 
L 550.520025 474.552005 
L 549.942103 475.836757 
L 549.917447 477.18316 
L 549.655167 478.583466 
L 548.925038 480.028766 
L 547.390259 481.508821 
L 544.995769 483.011907 
L 540.568444 483.277484 
L 537.795831 484.875655 
L 535.57918 486.639838 
L 533.558133 488.566551 
L 531.623623 490.651624 
L 529.085073 492.889754 
L 526.435804 495.274003 
L 523.230119 497.795251 
L 520.686805 500.441586 
L 518.210971 503.197658 
L 517.364202 506.043986 
L 515.37063 508.956271 
L 512.816935 511.904738 
L 508.178947 514.853576 
L 503.549047 517.76055 
L 498.652145 520.576887 
L 492.69759 523.247535 
L 488.779024 523.616761 
L 486.14469 526.07184 
L 482.851811 528.279082 
L 478.360953 530.260701 
L 473.762288 532.046157 
L 467.233005 533.671235 
L 460.249376 535.17713 
L 455.543043 536.609655 
L 451.166682 538.018655 
L 447.680539 539.457727 
L 444.406048 540.98431 
L 440.794617 542.660218 
L 436.022565 544.552699 
L 432 546.205129 
" style="fill:none;stroke:#000000;stroke-opacity:0.7;stroke-width:1.275591;"/>
    <path clip-path="url(#pf15f1f980f)" d="M 378.612379 594 
L 375.736011 597.097703 
L 365.545236 607.512805 
L 353.349531 619.063377 
L 337.647194 631.74429 
L 316.099372 645.501588 
L 283.916334 660.208107 
L 239.37555 675.633752 
L 186.931138 691.412772 
L 125.355492 707.013728 
L 26.742066 721.722506 
L 25.2 721.935514 
" style="fill:none;stroke:#000000;stroke-opacity:0.7;stroke-width:1.275591;"/>
    <path clip-path="url(#pf15f1f980f)" d="M 25.2 716.293756 
L 26.330547 716.139856 
L 124.787723 701.669023 
L 186.268109 686.322651 
L 238.660296 670.802651 
L 283.176364 655.63129 
L 315.375984 641.167931 
L 336.977127 627.638568 
L 352.740475 615.168024 
L 364.987682 603.809167 
L 374.783094 594 
" style="fill:none;stroke:#000000;stroke-opacity:0.7;stroke-width:1.275591;"/>
    <path clip-path="url(#pf15f1f980f)" d="M 432 543.36467 
L 435.708905 541.864227 
L 440.478262 539.998553 
L 444.087679 538.345662 
L 447.367595 536.839499 
L 450.859306 535.419362 
L 455.238258 534.028853 
L 459.948076 532.615356 
L 466.928145 531.129952 
L 473.453089 529.527689 
L 478.060291 527.768156 
L 482.56077 525.816261 
L 485.867849 523.643129 
L 488.518321 521.226997 
L 492.444516 520.857771 
L 498.396492 518.230471 
L 503.297289 515.460486 
L 507.932994 512.601852 
L 512.580351 509.702435 
L 515.149521 506.803673 
L 517.159342 503.940694 
L 518.025989 501.1427 
L 520.511772 498.433514 
L 523.05486 495.832227 
L 526.256384 493.353879 
L 528.905918 491.010128 
L 531.444964 488.809896 
L 533.381832 486.759963 
L 535.408531 484.865504 
L 537.626808 483.130578 
L 540.396705 481.558572 
L 544.807301 481.292995 
L 547.198538 479.814431 
L 548.731515 478.35859 
L 549.464171 476.936961 
L 549.729759 475.559572 
L 549.760143 474.235148 
L 550.339526 472.971269 
L 550.729268 471.774549 
L 551.121458 470.650799 
L 552.415075 469.605201 
L 553.185538 468.642473 
L 555.094441 467.767036 
L 558.544999 466.983173 
L 561.781604 466.295192 
L 564.551919 465.707593 
L 568.145349 465.225242 
L 570.869055 464.853554 
L 573.430415 464.627924 
L 576 464.409524 
" style="fill:none;stroke:#000000;stroke-opacity:0.7;stroke-width:1.275591;"/>
    <path clip-path="url(#pf15f1f980f)" d="M 864 461.912069 
L 869.410633 462.093567 
L 875.830385 462.283707 
L 881.97322 462.477041 
L 888.696264 462.672083 
L 895.039515 462.867285 
L 901.13798 463.06103 
L 905.207816 463.251636 
L 909.153194 463.43735 
L 912.977131 463.616354 
L 917.670175 463.786758 
L 922.271176 463.946613 
L 928.025954 464.093906 
L 934.910168 464.226566 
L 941.494823 464.342475 
L 948.651804 464.43947 
L 954.889129 464.515359 
L 958.337477 464.178112 
L 964.397807 464.221189 
L 971.031896 464.22807 
L 976.537386 464.203238 
L 982.8 464.152832 
" style="fill:none;stroke:#000000;stroke-opacity:0.7;stroke-width:1.275591;"/>
    <path clip-path="url(#pf15f1f980f)" d="M 982.8 461.924303 
L 982.717509 461.925382 
L 976.271539 461.986757 
L 970.758284 462.02186 
L 964.122113 462.026168 
L 958.057108 461.995327 
L 954.603971 462.332574 
L 948.36362 462.269783 
L 941.207438 462.186423 
L 934.622624 462.084611 
L 927.739081 461.966436 
L 921.979001 461.833943 
L 917.369212 461.689136 
L 912.668557 461.53396 
L 908.834174 461.370305 
L 904.880072 461.199999 
L 900.805313 461.024806 
L 894.715145 460.846424 
L 888.383799 460.666486 
L 881.673986 460.486562 
L 875.54124 460.308156 
L 869.128307 460.132713 
L 864 459.973934 
" style="fill:none;stroke:#000000;stroke-opacity:0.7;stroke-width:1.275591;"/>
    <path clip-path="url(#pf15f1f980f)" d="M 576 462.937395 
L 573.284459 463.167562 
L 570.719555 463.393193 
L 567.997386 463.761792 
L 564.410811 464.238744 
L 561.642709 464.818768 
L 558.411732 465.497122 
L 554.966549 466.269419 
L 553.048924 467.131459 
L 552.264639 468.079066 
L 550.962094 469.107927 
L 550.557332 470.213437 
L 550.159028 471.390534 
L 549.578183 472.633538 
L 549.542071 473.935985 
L 549.273174 475.290456 
L 548.537992 476.688415 
L 547.006818 478.12004 
L 544.618832 479.574083 
L 540.224967 479.83966 
L 537.457785 481.385501 
L 535.237881 483.091169 
L 533.205531 484.953376 
L 531.266305 486.968169 
L 528.726763 489.130502 
L 526.076964 491.433754 
L 522.879601 493.869204 
L 520.33674 496.425442 
L 517.841008 499.087742 
L 516.954483 501.837402 
L 514.928412 504.651074 
L 512.343766 507.500132 
L 507.687041 510.350129 
L 503.045531 513.160421 
L 498.140839 515.884054 
L 492.191442 518.468006 
L 488.257619 518.837232 
L 485.591008 521.214417 
L 482.269729 523.353441 
L 477.759629 525.275611 
L 473.14389 527.009221 
L 466.623286 528.588669 
L 459.646775 530.053582 
L 454.933473 531.44805 
L 450.55193 532.820069 
L 447.054652 534.221272 
L 443.76931 535.707014 
L 440.161907 537.336888 
L 435.395245 539.175755 
L 432 540.528149 
" style="fill:none;stroke:#000000;stroke-opacity:0.7;stroke-width:1.275591;"/>
    <path clip-path="url(#pf15f1f980f)" d="M 370.654259 594 
L 364.430128 600.105529 
L 352.13142 611.272671 
L 336.307061 623.532846 
L 314.652596 636.834273 
L 282.436393 651.054474 
L 237.945043 665.971549 
L 185.60508 681.23253 
L 124.219954 696.324317 
L 25.919027 710.557206 
L 25.2 710.653641 
" style="fill:none;stroke:#000000;stroke-opacity:0.7;stroke-width:1.275591;"/>
    <path clip-path="url(#pf15f1f980f)" d="M 25.2 705.015179 
L 25.507507 704.974556 
L 123.652185 690.979612 
L 184.942051 676.142409 
L 237.229789 661.140448 
L 281.696423 646.477657 
L 313.929208 632.500615 
L 335.636994 619.427125 
L 351.522364 607.377319 
L 363.872573 596.401892 
L 366.372895 594 
" style="fill:none;stroke:#000000;stroke-opacity:0.7;stroke-width:1.275591;"/>
    <path clip-path="url(#pf15f1f980f)" d="M 432 537.69556 
L 435.081585 536.487283 
L 439.845552 534.675223 
L 443.450941 533.068365 
L 446.741708 531.603044 
L 450.244554 530.220776 
L 454.628688 528.867248 
L 459.345475 527.491808 
L 466.318426 526.047386 
L 472.834691 524.490753 
L 477.458967 522.783066 
L 481.978688 520.89062 
L 485.314167 518.785705 
L 487.996916 516.447468 
L 491.938368 516.078242 
L 497.885187 513.537637 
L 502.793774 510.860357 
L 507.441088 508.098406 
L 512.107182 505.297829 
L 514.707303 502.498476 
L 516.749623 499.73411 
L 517.656027 497.032784 
L 520.161708 494.417369 
L 522.704341 491.906181 
L 525.897544 489.51363 
L 528.547608 487.250876 
L 531.087646 485.126442 
L 533.02923 483.146789 
L 535.067232 481.316835 
L 537.288762 479.640423 
L 540.053228 478.120748 
L 544.430364 477.855171 
L 546.815098 476.42565 
L 548.34447 475.018239 
L 549.082178 473.643952 
L 549.354383 472.312397 
L 549.396222 471.031928 
L 549.978529 469.809798 
L 550.385395 468.652325 
L 550.802731 467.565055 
L 552.114203 466.552931 
L 552.912309 465.620445 
L 554.838656 464.771801 
L 558.278465 464.011071 
L 561.503813 463.342345 
L 564.269703 462.769896 
L 567.849422 462.298343 
L 570.570055 461.932831 
L 573.138504 461.707201 
L 576 461.465335 
" style="fill:none;stroke:#000000;stroke-opacity:0.7;stroke-width:1.275591;"/>
    <path clip-path="url(#pf15f1f980f)" d="M 864 458.034361 
L 868.845981 458.171859 
L 875.252094 458.332606 
L 881.374752 458.496084 
L 888.071334 458.660889 
L 894.390775 458.825563 
L 900.472647 458.988581 
L 904.552328 459.148362 
L 908.515154 459.30326 
L 912.359982 459.451566 
L 917.068249 459.591513 
L 921.686827 459.721274 
L 927.452208 459.838966 
L 934.33508 459.942657 
L 940.920053 460.030372 
L 948.075436 460.100097 
L 954.318814 460.14979 
L 957.77674 459.812543 
L 963.846419 459.831147 
L 970.484672 459.81565 
L 976.005692 459.770277 
L 982.451218 459.699411 
L 982.8 459.69436 
" style="fill:none;stroke:#000000;stroke-opacity:0.7;stroke-width:1.275591;"/>
    <path clip-path="url(#pf15f1f980f)" d="M 982.8 457.463664 
L 982.184928 457.47344 
L 975.739845 457.553796 
L 970.21106 457.60944 
L 963.570725 457.636126 
L 957.496371 457.629759 
L 954.033656 457.967006 
L 947.787253 457.93041 
L 940.632668 457.874321 
L 934.047536 457.800703 
L 927.165335 457.711496 
L 921.394652 457.608604 
L 916.767286 457.493891 
L 912.051408 457.369173 
L 908.196135 457.236215 
L 904.224585 457.096726 
L 900.139981 456.952357 
L 894.066405 456.804701 
L 887.758869 456.655293 
L 881.075518 456.505605 
L 874.962949 456.357055 
L 868.563655 456.211005 
L 864 456.093345 
" style="fill:none;stroke:#000000;stroke-opacity:0.7;stroke-width:1.275591;"/>
    <path clip-path="url(#pf15f1f980f)" d="M 576 459.993344 
L 572.992548 460.246839 
L 570.420555 460.47247 
L 567.701459 460.834894 
L 564.128594 461.301047 
L 561.364917 461.865921 
L 558.145198 462.52502 
L 554.710764 463.274184 
L 552.775695 464.109431 
L 551.963766 465.026796 
L 550.643367 466.022183 
L 550.213458 467.091212 
L 549.798031 468.229062 
L 549.214262 469.430319 
L 549.166695 470.68881 
L 548.891181 471.997447 
L 548.150947 473.348064 
L 546.623378 474.73126 
L 544.241896 476.136259 
L 539.88149 476.401836 
L 537.119739 477.895346 
L 534.896582 479.5425 
L 532.852928 481.340202 
L 530.908987 483.284715 
L 528.368453 485.37125 
L 525.718123 487.593506 
L 522.529082 489.943158 
L 519.986676 492.409297 
L 517.471046 494.977825 
L 516.544763 497.630817 
L 514.486194 500.345877 
L 511.870597 503.095527 
L 507.195135 505.846683 
L 502.542016 508.560293 
L 497.629534 511.19122 
L 491.685294 513.688477 
L 487.736214 514.057703 
L 485.037326 516.356994 
L 481.687647 518.4278 
L 477.158304 520.290521 
L 472.525492 521.972285 
L 466.013567 523.506103 
L 459.044175 524.930034 
L 454.323903 526.286445 
L 449.937177 527.621484 
L 446.428764 528.984817 
L 443.132573 530.429717 
L 439.529197 532.013558 
L 434.767926 533.79881 
L 432 534.866895 
" style="fill:none;stroke:#000000;stroke-opacity:0.7;stroke-width:1.275591;"/>
    <path clip-path="url(#pf15f1f980f)" d="M 361.817958 594 
L 350.913308 603.481966 
L 334.966927 615.321403 
L 313.20582 628.166958 
L 280.956453 641.90084 
L 236.514536 656.309347 
L 184.279022 671.052287 
L 123.084416 685.634906 
L 25.2 699.377302 
" style="fill:none;stroke:#000000;stroke-opacity:0.7;stroke-width:1.275591;"/>
    <path clip-path="url(#pf15f1f980f)" d="M 25.2 693.738015 
L 122.516647 680.2902 
L 183.615993 665.962166 
L 235.799282 651.478245 
L 280.216483 637.324024 
L 312.482432 623.8333 
L 334.29686 611.215681 
L 350.304253 599.586614 
L 356.87254 594 
" style="fill:none;stroke:#000000;stroke-opacity:0.7;stroke-width:1.275591;"/>
    <path clip-path="url(#pf15f1f980f)" d="M 432 532.042148 
L 434.454266 531.110338 
L 439.212842 529.351893 
L 442.814204 527.791068 
L 446.115821 526.366589 
L 449.629801 525.022191 
L 454.019119 523.705643 
L 458.742874 522.36826 
L 465.708707 520.964821 
L 472.216293 519.453817 
L 476.857642 517.797976 
L 481.396606 515.964979 
L 484.760484 513.928282 
L 487.475511 511.667939 
L 491.43222 511.298713 
L 497.373881 508.844803 
L 502.290258 506.260228 
L 506.949182 503.594959 
L 511.634013 500.893224 
L 514.265086 498.193278 
L 516.339903 495.527525 
L 517.286065 492.922867 
L 519.811644 490.401225 
L 522.353823 487.980135 
L 525.538703 485.673382 
L 528.189298 483.491624 
L 530.730328 481.442988 
L 532.676627 479.533615 
L 534.725933 477.768166 
L 536.950716 476.150268 
L 539.709751 474.682925 
L 544.053428 474.417347 
L 546.431657 473.03687 
L 547.957425 471.677888 
L 548.700185 470.350942 
L 548.979007 469.065222 
L 549.032302 467.828709 
L 549.617533 466.648327 
L 550.041521 465.5301 
L 550.484003 464.479312 
L 551.81333 463.500661 
L 552.63908 462.598417 
L 554.582871 461.776567 
L 558.011931 461.038968 
L 561.226022 460.389497 
L 563.987486 459.832198 
L 567.553496 459.371445 
L 570.271055 459.012108 
L 572.846592 458.786478 
L 575.897273 458.530056 
L 576 458.524913 
" style="fill:none;stroke:#000000;stroke-opacity:0.7;stroke-width:1.275591;"/>
    <path clip-path="url(#pf15f1f980f)" d="M 864 454.150884 
L 868.28133 454.250151 
L 874.673804 454.381505 
L 880.776284 454.515126 
L 887.446404 454.649696 
L 893.742035 454.78384 
L 899.807314 454.916132 
L 903.896841 455.045089 
L 907.877115 455.16917 
L 911.742833 455.286779 
L 916.466323 455.396268 
L 921.102477 455.495934 
L 926.878462 455.584026 
L 933.759992 455.658749 
L 940.345283 455.718269 
L 947.499069 455.760723 
L 953.748499 455.784222 
L 957.216003 455.446975 
L 963.295031 455.441105 
L 969.937448 455.40323 
L 975.473998 455.337316 
L 981.918637 455.247468 
L 982.8 455.232212 
" style="fill:none;stroke:#000000;stroke-opacity:0.7;stroke-width:1.275591;"/>
    <path clip-path="url(#pf15f1f980f)" d="M 982.8 453.000004 
L 981.652347 453.021497 
L 975.208152 453.120835 
L 969.663837 453.19702 
L 963.019337 453.246083 
L 956.935634 453.264191 
L 953.463341 453.601438 
L 947.210885 453.591036 
L 940.057898 453.562218 
L 933.472448 453.516794 
L 926.591589 453.456556 
L 920.810303 453.383264 
L 916.16536 453.298645 
L 911.434259 453.204386 
L 907.558096 453.102124 
L 903.569098 452.993452 
L 899.474648 452.879908 
L 893.417665 452.762979 
L 887.133939 452.644099 
L 880.477051 452.524648 
L 874.384658 452.405954 
L 867.999004 452.289297 
L 864 452.206975 
" style="fill:none;stroke:#000000;stroke-opacity:0.7;stroke-width:1.275591;"/>
    <path clip-path="url(#pf15f1f980f)" d="M 576 457.057855 
L 575.751298 457.070413 
L 572.700637 457.326116 
L 570.121555 457.551747 
L 567.405532 457.907995 
L 563.846378 458.363349 
L 561.087126 458.913074 
L 557.878664 459.552917 
L 554.454978 460.278949 
L 552.502466 461.087403 
L 551.662893 461.974526 
L 550.324639 462.93644 
L 549.869585 463.968988 
L 549.437034 465.067591 
L 548.850341 466.227099 
L 548.79132 467.441635 
L 548.509188 468.704437 
L 547.763902 470.007712 
L 546.239937 471.34248 
L 543.86496 472.698435 
L 539.538013 472.964013 
L 536.781693 474.405191 
L 534.555283 475.993831 
L 532.500326 477.727028 
L 530.55167 479.60126 
L 528.010143 481.611998 
L 525.359283 483.753257 
L 522.178564 486.017111 
L 519.636612 488.393152 
L 517.101084 490.867909 
L 516.135043 493.424233 
L 514.043977 496.04068 
L 511.397429 498.690921 
L 506.703229 501.343236 
L 502.038501 503.960164 
L 497.118228 506.498386 
L 491.179146 508.908948 
L 487.214809 509.278175 
L 484.483643 511.49957 
L 481.105565 513.502159 
L 476.55698 515.305431 
L 471.907095 516.935349 
L 465.403848 518.423538 
L 458.441574 519.806486 
L 453.714334 521.12484 
L 449.322425 522.422898 
L 445.802877 523.748362 
L 442.495835 525.15242 
L 438.896488 526.690228 
L 434.140606 528.421866 
L 432 529.221312 
" style="fill:none;stroke:#000000;stroke-opacity:0.7;stroke-width:1.275591;"/>
    <path clip-path="url(#pf15f1f980f)" d="M 351.728674 594 
L 349.695197 595.691261 
L 333.626794 607.10996 
L 311.759044 619.499643 
L 279.476512 632.747207 
L 235.084028 646.647144 
L 182.952964 660.872045 
L 121.948878 674.945495 
L 25.2 688.100552 
" style="fill:none;stroke:#000000;stroke-opacity:0.7;stroke-width:1.275591;"/>
    <path clip-path="url(#pf15f1f980f)" d="M 25.2 682.464922 
L 121.381109 669.600789 
L 182.289935 655.781924 
L 234.368775 641.816042 
L 278.736542 628.170391 
L 311.035655 615.165985 
L 332.956727 603.004238 
L 345.91433 594 
" style="fill:none;stroke:#000000;stroke-opacity:0.7;stroke-width:1.275591;"/>
    <path clip-path="url(#pf15f1f980f)" d="M 432 526.40438 
L 433.826946 525.733394 
L 438.580133 524.028563 
L 442.177466 522.513771 
L 445.489933 521.130134 
L 449.015049 519.823606 
L 453.409549 518.544037 
L 458.140274 517.244712 
L 465.098988 515.882255 
L 471.597896 514.416881 
L 476.256317 512.812886 
L 480.814524 511.039339 
L 484.206802 509.070859 
L 486.954106 506.88841 
L 490.926072 506.519184 
L 496.862575 504.151969 
L 501.786743 501.6601 
L 506.457276 499.091513 
L 511.160844 496.488618 
L 513.822868 493.888081 
L 515.930183 491.320941 
L 516.916103 488.812951 
L 519.46158 486.38508 
L 522.003305 484.054088 
L 525.179863 481.833133 
L 527.830988 479.732372 
L 530.373011 477.759533 
L 532.324024 475.920441 
L 534.384634 474.219497 
L 536.61267 472.660113 
L 539.366274 471.245101 
L 543.676491 470.979524 
L 546.048217 469.64809 
L 547.57038 468.337537 
L 548.318192 467.057932 
L 548.603632 465.818047 
L 548.668381 464.62549 
L 549.256536 463.486856 
L 549.697648 462.407875 
L 550.165275 461.393568 
L 551.512457 460.448391 
L 552.365852 459.576388 
L 554.327086 458.781332 
L 557.745397 458.066866 
L 560.948231 457.43665 
L 563.70527 456.894501 
L 567.257569 456.444546 
L 569.972055 456.091385 
L 572.554681 455.865755 
L 575.605322 455.61077 
L 576 455.590668 
" style="fill:none;stroke:#000000;stroke-opacity:0.7;stroke-width:1.275591;"/>
    <path clip-path="url(#pf15f1f980f)" d="M 864 450.261612 
L 867.716678 450.328443 
L 874.095513 450.430404 
L 880.177817 450.534169 
L 886.821474 450.638502 
L 893.093295 450.742118 
L 899.141981 450.843683 
L 903.241354 450.941815 
L 907.239076 451.035079 
L 911.125684 451.121992 
L 915.864397 451.201023 
L 920.518128 451.270594 
L 926.304716 451.329086 
L 933.184904 451.37484 
L 939.770513 451.406167 
L 946.922701 451.421349 
L 953.178184 451.418653 
L 956.655266 451.081407 
L 962.743643 451.051062 
L 969.390225 450.99081 
L 974.942305 450.904355 
L 981.386056 450.795526 
L 982.8 450.767036 
" style="fill:none;stroke:#000000;stroke-opacity:0.7;stroke-width:1.275591;"/>
    <path clip-path="url(#pf15f1f980f)" d="M 982.8 448.533305 
L 981.119766 448.569555 
L 974.676458 448.687875 
L 969.116613 448.7846 
L 962.467949 448.856041 
L 956.374897 448.898622 
L 952.893026 449.235869 
L 946.634517 449.251662 
L 939.483128 449.250115 
L 932.89736 449.232886 
L 926.017843 449.201616 
L 920.225953 449.157924 
L 915.563434 449.1034 
L 910.81711 449.039599 
L 906.920057 448.968034 
L 902.91361 448.890178 
L 898.809315 448.807459 
L 892.768925 448.721257 
L 886.509009 448.632905 
L 879.878583 448.54369 
L 873.806367 448.454854 
L 867.434352 448.367589 
L 864 448.314794 
" style="fill:none;stroke:#000000;stroke-opacity:0.7;stroke-width:1.275591;"/>
    <path clip-path="url(#pf15f1f980f)" d="M 576 454.123355 
L 575.459347 454.151127 
L 572.408725 454.405393 
L 569.822555 454.631023 
L 567.109605 454.981097 
L 563.564161 455.425652 
L 560.809335 455.960226 
L 557.61213 456.580815 
L 554.199193 457.283714 
L 552.229237 458.065374 
L 551.36202 458.922257 
L 550.005912 459.850696 
L 549.525711 460.846763 
L 549.076037 461.90612 
L 548.486421 463.02388 
L 548.415944 464.194459 
L 548.127195 465.411427 
L 547.376857 466.667361 
L 545.856497 467.953699 
L 543.488023 469.260612 
L 539.194535 469.526189 
L 536.443648 470.915036 
L 534.213984 472.445162 
L 532.147723 474.113854 
L 530.194352 475.917806 
L 527.651833 477.852746 
L 525.000443 479.913009 
L 521.828046 482.091065 
L 519.286548 484.377008 
L 516.731122 486.757993 
L 515.725323 489.217649 
L 513.601759 491.735483 
L 510.92426 494.286315 
L 506.211323 496.83979 
L 501.534985 499.360035 
L 496.606923 501.805552 
L 490.672998 504.12942 
L 486.693404 504.498646 
L 483.929961 506.642147 
L 480.523483 508.576518 
L 475.955655 510.320341 
L 471.288697 511.898413 
L 464.794128 513.340972 
L 457.838973 514.682937 
L 453.104764 515.963235 
L 448.707673 517.224313 
L 445.17699 518.511907 
L 441.859097 519.875123 
L 438.263778 521.366898 
L 433.513286 523.044922 
L 432 523.591345 
" style="fill:none;stroke:#000000;stroke-opacity:0.7;stroke-width:1.275591;"/>
    <path clip-path="url(#pf15f1f980f)" d="M 339.497912 594 
L 332.28666 598.898517 
L 310.312267 610.832327 
L 277.996572 623.593574 
L 233.653521 636.984941 
L 181.626906 650.691803 
L 120.81334 664.256084 
L 25.2 676.831132 
" style="fill:none;stroke:#000000;stroke-opacity:0.7;stroke-width:1.275591;"/>
    <path clip-path="url(#pf15f1f980f)" d="M 25.2 671.199193 
L 120.245571 658.911378 
L 180.963876 645.601681 
L 232.938267 632.153839 
L 277.256602 619.016758 
L 309.588879 606.49867 
L 331.616594 594.792795 
L 332.810934 594 
" style="fill:none;stroke:#000000;stroke-opacity:0.7;stroke-width:1.275591;"/>
    <path clip-path="url(#pf15f1f980f)" d="M 432 520.7822 
L 433.199626 520.356449 
L 437.947423 518.705233 
L 441.540728 517.236474 
L 444.864046 515.893679 
L 448.400296 514.62502 
L 452.799979 513.382432 
L 457.537673 512.121163 
L 464.489269 510.799689 
L 470.979498 509.379944 
L 475.654993 507.827796 
L 480.232442 506.113698 
L 483.65312 504.213435 
L 486.432701 502.108881 
L 490.419924 501.739655 
L 496.35127 499.459135 
L 501.283228 497.059971 
L 505.96537 494.588066 
L 510.687675 492.084012 
L 513.38065 489.582884 
L 515.520463 487.114356 
L 516.546141 484.703035 
L 519.111516 482.368936 
L 521.652787 480.128042 
L 524.821023 477.992884 
L 527.472678 475.97312 
L 530.015693 474.076079 
L 531.971422 472.307266 
L 534.043335 470.670828 
L 536.274625 469.169959 
L 539.022797 467.807277 
L 543.299555 467.5417 
L 545.664776 466.259309 
L 547.183335 464.997185 
L 547.936199 463.764923 
L 548.228256 462.570872 
L 548.304461 461.422271 
L 548.895539 460.325384 
L 549.353775 459.285651 
L 549.846548 458.307824 
L 551.211584 457.396122 
L 552.092623 456.55436 
L 554.071301 455.786097 
L 557.478863 455.094764 
L 560.670439 454.483802 
L 563.423053 453.956803 
L 566.961642 453.517647 
L 569.673055 453.170662 
L 572.26277 452.945031 
L 575.313372 452.691484 
L 576 452.655915 
" style="fill:none;stroke:#000000;stroke-opacity:0.7;stroke-width:1.275591;"/>
    <path clip-path="url(#pf15f1f980f)" d="M 864 446.366516 
L 867.152026 446.406735 
L 873.517222 446.479303 
L 879.579349 446.553212 
L 886.196543 446.627308 
L 892.444555 446.700395 
L 898.476649 446.771234 
L 902.585867 446.838541 
L 906.601037 446.900989 
L 910.508535 446.957205 
L 915.262471 447.005778 
L 919.933778 447.045254 
L 925.73097 447.074146 
L 932.609816 447.090931 
L 939.195743 447.094064 
L 946.346333 447.081975 
L 952.607869 447.053085 
L 956.094529 446.715838 
L 962.192255 446.66102 
L 968.843001 446.57839 
L 974.410611 446.471394 
L 980.853475 446.343584 
L 982.8 446.298811 
" style="fill:none;stroke:#000000;stroke-opacity:0.7;stroke-width:1.275591;"/>
    <path clip-path="url(#pf15f1f980f)" d="M 982.8 444.063549 
L 980.587185 444.117613 
L 974.144764 444.254914 
L 968.569389 444.37218 
L 961.91656 444.465999 
L 955.81416 444.533054 
L 952.322711 444.870301 
L 946.05815 444.912289 
L 938.908358 444.938013 
L 932.322272 444.948977 
L 925.444097 444.946676 
L 919.641604 444.932584 
L 914.961508 444.908155 
L 910.199961 444.874812 
L 906.282017 444.833943 
L 902.258123 444.786905 
L 898.143982 444.73501 
L 892.120185 444.679534 
L 885.884078 444.621711 
L 879.280116 444.562733 
L 873.228077 444.503753 
L 866.8697 444.445881 
L 864 444.416775 
" style="fill:none;stroke:#000000;stroke-opacity:0.7;stroke-width:1.275591;"/>
    <path clip-path="url(#pf15f1f980f)" d="M 576 451.188348 
L 575.167397 451.231842 
L 572.116814 451.48467 
L 569.523555 451.7103 
L 566.813679 452.054198 
L 563.281945 452.487954 
L 560.531544 453.007379 
L 557.345596 453.608712 
L 553.943408 454.288479 
L 551.956009 455.043346 
L 551.061148 455.869987 
L 549.687184 456.764953 
L 549.181838 457.724538 
L 548.715041 458.744649 
L 548.1225 459.820661 
L 548.040568 460.947284 
L 547.745202 462.118418 
L 546.989812 463.32701 
L 545.473056 464.564919 
L 543.111087 465.822788 
L 538.851058 466.088365 
L 536.105602 467.424881 
L 533.872685 468.896493 
L 531.795121 470.500679 
L 529.837034 472.234352 
L 527.293523 474.093495 
L 524.641603 476.07276 
L 521.477528 478.165019 
L 518.936484 480.360863 
L 516.361159 482.648076 
L 515.315603 485.011064 
L 513.159541 487.430286 
L 510.451091 489.881709 
L 505.719416 492.336343 
L 501.03147 494.759906 
L 496.095617 497.112718 
L 490.16685 499.349891 
L 486.171999 499.719117 
L 483.376279 501.784724 
L 479.941401 503.650877 
L 475.354331 505.335251 
L 470.670299 506.861476 
L 464.184409 508.258406 
L 457.236373 509.559389 
L 452.495194 510.80163 
L 448.09292 512.025727 
L 444.551102 513.275452 
L 441.222359 514.597826 
L 437.631068 516.043568 
L 432.885966 517.667977 
L 432 517.976939 
" style="fill:none;stroke:#000000;stroke-opacity:0.7;stroke-width:1.275591;"/>
    <path clip-path="url(#pf15f1f980f)" d="M 324.573183 594 
L 308.865491 602.165012 
L 276.516631 614.439941 
L 232.223014 627.322738 
L 180.300847 640.51156 
L 119.677802 653.566673 
L 25.2 665.569113 
" style="fill:none;stroke:#000000;stroke-opacity:0.7;stroke-width:1.275591;"/>
    <path clip-path="url(#pf15f1f980f)" d="M 25.2 659.940902 
L 119.110033 648.221967 
L 179.637818 635.421439 
L 231.50776 622.491637 
L 275.776661 609.863125 
L 308.142103 597.831355 
L 315.680285 594 
" style="fill:none;stroke:#000000;stroke-opacity:0.7;stroke-width:1.275591;"/>
    <path clip-path="url(#pf15f1f980f)" d="M 432 515.175556 
L 432.572306 514.979505 
L 437.314713 513.381903 
L 440.90399 511.959177 
L 444.238159 510.657224 
L 447.785544 509.426435 
L 452.190409 508.220827 
L 456.935072 506.997615 
L 463.87955 505.717124 
L 470.3611 504.343008 
L 475.053668 502.842706 
L 479.65036 501.188057 
L 483.099437 499.356012 
L 485.911296 497.329352 
L 489.913776 496.960126 
L 495.839964 494.766301 
L 500.779712 492.459842 
L 505.473463 490.08462 
L 510.214507 487.679406 
L 512.938432 485.277687 
L 515.110743 482.907772 
L 516.176178 480.593118 
L 518.761451 478.352791 
L 521.302269 476.201995 
L 524.462183 474.152636 
L 527.114368 472.213869 
L 529.658375 470.392624 
L 531.618819 468.694092 
L 533.702036 467.122159 
L 535.936579 465.679804 
L 538.67932 464.369453 
L 542.922618 464.103876 
L 545.281336 462.870529 
L 546.796289 461.656834 
L 547.554206 460.471913 
L 547.85288 459.323697 
L 547.94054 458.219051 
L 548.534542 457.163913 
L 549.009901 456.163426 
L 549.52782 455.222081 
L 550.910711 454.343852 
L 551.819394 453.532332 
L 553.815516 452.790862 
L 557.212328 452.122661 
L 560.392648 451.530955 
L 563.140836 451.019106 
L 566.665715 450.590749 
L 569.374055 450.249939 
L 571.970858 450.024308 
L 575.021422 449.772199 
L 576 449.720655 
" style="fill:none;stroke:#000000;stroke-opacity:0.7;stroke-width:1.275591;"/>
    <path clip-path="url(#pf15f1f980f)" d="M 864 442.465567 
L 866.587374 442.485027 
L 872.938931 442.528202 
L 878.980882 442.572255 
L 885.571613 442.616114 
L 891.795815 442.658673 
L 897.811316 442.698785 
L 901.93038 442.735268 
L 905.962998 442.766898 
L 909.891386 442.792418 
L 914.660545 442.810533 
L 919.349429 442.819914 
L 925.157224 442.819206 
L 932.034728 442.807023 
L 938.620973 442.781961 
L 945.769966 442.742602 
L 952.037554 442.687517 
L 955.533792 442.35027 
L 961.640866 442.270978 
L 968.295777 442.16597 
L 973.878918 442.038433 
L 980.320894 441.891642 
L 982.8 441.827518 
" style="fill:none;stroke:#000000;stroke-opacity:0.7;stroke-width:1.275591;"/>
    <path clip-path="url(#pf15f1f980f)" d="M 982.8 439.590716 
L 980.054604 439.665671 
L 973.613071 439.821953 
L 968.022165 439.959761 
L 961.365172 440.075957 
L 955.253424 440.167486 
L 951.752396 440.504733 
L 945.481782 440.572915 
L 938.333588 440.62591 
L 931.747184 440.665069 
L 924.870351 440.691736 
L 919.057254 440.707244 
L 914.359582 440.71291 
L 909.582812 440.710024 
L 905.643978 440.699853 
L 901.602636 440.683631 
L 897.478649 440.662561 
L 891.471445 440.637812 
L 885.259148 440.610517 
L 878.681648 440.581776 
L 872.649786 440.552652 
L 866.305048 440.524173 
L 864 440.512889 
" style="fill:none;stroke:#000000;stroke-opacity:0.7;stroke-width:1.275591;"/>
    <path clip-path="url(#pf15f1f980f)" d="M 576 448.252835 
L 574.875447 448.312556 
L 571.824903 448.563947 
L 569.224555 448.789577 
L 566.517752 449.1273 
L 562.999728 449.550257 
L 560.253752 450.054531 
L 557.079061 450.63661 
L 553.687623 451.293245 
L 551.68278 452.021318 
L 550.760275 452.817717 
L 549.368456 453.679209 
L 548.837965 454.602314 
L 548.354044 455.583178 
L 547.75858 456.617442 
L 547.665193 457.700109 
L 547.363209 458.825408 
L 546.602767 459.986659 
L 545.089616 461.176139 
L 542.73415 462.384964 
L 538.507581 462.650541 
L 535.767556 463.934726 
L 533.531386 465.347824 
L 531.442518 466.887505 
L 529.479716 468.550897 
L 526.935213 470.334243 
L 524.282763 472.232512 
L 521.12701 474.238972 
L 518.586419 476.344719 
L 515.991197 478.53816 
L 514.905884 480.80448 
L 512.717323 483.125089 
L 509.977922 485.477104 
L 505.22751 487.832897 
L 500.527955 490.159778 
L 495.584311 492.419884 
L 489.660702 494.570362 
L 485.650594 494.939588 
L 482.822596 496.9273 
L 479.359319 498.725236 
L 474.753006 500.350161 
L 470.051901 501.82454 
L 463.57469 503.175841 
L 456.633772 504.435841 
L 451.885624 505.640025 
L 447.478168 506.827142 
L 443.925215 508.038997 
L 440.585621 509.320529 
L 436.998358 510.720238 
L 432.258646 512.291033 
L 432 512.378042 
" style="fill:none;stroke:#000000;stroke-opacity:0.7;stroke-width:1.275591;"/>
    <path clip-path="url(#pf15f1f980f)" d="M 306.038943 594 
L 275.036691 605.286308 
L 230.792506 617.660535 
L 178.974789 630.331318 
L 118.542264 642.877262 
L 25.2 654.314567 
" style="fill:none;stroke:#000000;stroke-opacity:0.7;stroke-width:1.275591;"/>
    <path clip-path="url(#pf15f1f980f)" d="M 25.2 648.690119 
L 117.974495 637.532556 
L 178.31176 625.241196 
L 230.077253 612.829434 
L 274.296721 600.709491 
L 293.124755 594 
" style="fill:none;stroke:#000000;stroke-opacity:0.7;stroke-width:1.275591;"/>
    <path clip-path="url(#pf15f1f980f)" d="M 432 509.58463 
L 436.682003 508.058574 
L 440.267252 506.68188 
L 443.612272 505.420769 
L 447.170792 504.227849 
L 451.58084 503.059222 
L 456.332472 501.874067 
L 463.269831 500.634558 
L 469.742703 499.306072 
L 474.452344 497.857617 
L 479.068278 496.262416 
L 482.545755 494.498589 
L 485.389891 492.549823 
L 489.407628 492.180597 
L 495.328659 490.073467 
L 500.276197 487.859713 
L 504.981557 485.581173 
L 509.741338 483.274801 
L 512.496214 480.97249 
L 514.701024 478.701188 
L 515.806216 476.483202 
L 518.411387 474.336646 
L 520.951751 472.275949 
L 524.103343 470.312387 
L 526.756058 468.454617 
L 529.301057 466.70917 
L 531.266217 465.080918 
L 533.360737 463.57349 
L 535.598533 462.189649 
L 538.335843 460.931629 
L 542.545682 460.666052 
L 544.897895 459.481749 
L 546.409244 458.316483 
L 547.172213 457.178903 
L 547.477505 456.076522 
L 547.57662 455.015832 
L 548.173545 454.002442 
L 548.666028 453.041201 
L 549.209093 452.136337 
L 550.609838 451.291582 
L 551.546166 450.510304 
L 553.559731 449.795627 
L 556.945794 449.150559 
L 560.114857 448.578108 
L 562.85862 448.081408 
L 566.369789 447.66385 
L 569.075055 447.329215 
L 571.678947 447.103585 
L 574.729471 446.852913 
L 576 446.78489 
" style="fill:none;stroke:#000000;stroke-opacity:0.7;stroke-width:1.275591;"/>
    <path clip-path="url(#pf15f1f980f)" d="M 864 438.558737 
L 866.022722 438.563319 
L 872.36064 438.577101 
L 878.382414 438.591297 
L 884.946683 438.60492 
L 891.147075 438.616951 
L 897.145983 438.626336 
L 901.274892 438.631994 
L 905.324959 438.632808 
L 909.274237 438.627631 
L 914.058619 438.615287 
L 918.76508 438.594575 
L 924.583479 438.564266 
L 931.45964 438.523114 
L 938.046203 438.469859 
L 945.193598 438.403228 
L 951.467239 438.321948 
L 954.973055 437.984701 
L 961.089478 437.880935 
L 967.748553 437.753551 
L 973.347224 437.605472 
L 979.788313 437.4397 
L 982.8 437.353139 
" style="fill:none;stroke:#000000;stroke-opacity:0.7;stroke-width:1.275591;"/>
    <path clip-path="url(#pf15f1f980f)" d="M 982.8 435.114786 
L 979.522023 435.213729 
L 973.081377 435.388992 
L 967.474941 435.547341 
L 960.813784 435.685914 
L 954.692687 435.801917 
L 951.182082 436.139164 
L 944.905414 436.233541 
L 937.758819 436.313807 
L 931.172096 436.38116 
L 924.296606 436.436796 
L 918.472905 436.481905 
L 913.757656 436.517665 
L 908.965663 436.545237 
L 905.005939 436.565763 
L 900.947149 436.580357 
L 896.813317 436.590112 
L 890.822705 436.596089 
L 884.634218 436.599323 
L 878.083181 436.600819 
L 872.071495 436.601551 
L 865.740397 436.602466 
L 864 436.603107 
" style="fill:none;stroke:#000000;stroke-opacity:0.7;stroke-width:1.275591;"/>
    <path clip-path="url(#pf15f1f980f)" d="M 576 445.316818 
L 574.583496 445.39327 
L 571.532991 445.643223 
L 568.925555 445.868854 
L 566.221825 446.200401 
L 562.717512 446.612559 
L 559.975961 447.101684 
L 556.812527 447.664508 
L 553.431838 448.29801 
L 551.409551 448.99929 
L 550.459402 449.765447 
L 549.049729 450.593465 
L 548.494091 451.480089 
L 547.993047 452.421706 
L 547.394659 453.414223 
L 547.289817 454.452934 
L 546.981217 455.532399 
L 546.215722 456.646307 
L 544.706175 457.787358 
L 542.357214 458.94714 
L 538.164104 459.212718 
L 535.42951 460.444571 
L 533.190087 461.799155 
L 531.089916 463.274331 
L 529.122399 464.867443 
L 526.576903 466.574991 
L 523.923923 468.392263 
L 520.776491 470.312926 
L 518.236355 472.328574 
L 515.621235 474.428244 
L 514.496164 476.597895 
L 512.275105 478.819892 
L 509.504753 481.072498 
L 504.735604 483.32945 
L 500.024439 485.559649 
L 495.073006 487.72705 
L 489.154554 489.790833 
L 485.129189 490.160059 
L 482.268914 492.069877 
L 478.777237 493.799595 
L 474.151681 495.365072 
L 469.433504 496.787604 
L 462.964971 498.093275 
L 456.031172 499.312293 
L 451.276055 500.47842 
L 446.863415 501.628556 
L 443.299328 502.802542 
L 439.948884 504.043232 
L 436.365648 505.396909 
L 432 506.795942 
" style="fill:none;stroke:#000000;stroke-opacity:0.7;stroke-width:1.275591;"/>
    <path clip-path="url(#pf15f1f980f)" d="M 279.673302 594 
L 273.55675 596.132675 
L 229.361999 607.998332 
L 177.648731 620.151075 
L 117.406726 632.18785 
L 25.2 643.067566 
" style="fill:none;stroke:#000000;stroke-opacity:0.7;stroke-width:1.275591;"/>
    <path clip-path="url(#pf15f1f980f)" d="M 25.2 637.446918 
L 116.838957 626.843145 
L 176.985702 615.060954 
L 228.646745 603.167231 
L 263.519187 594 
" style="fill:none;stroke:#000000;stroke-opacity:0.7;stroke-width:1.275591;"/>
    <path clip-path="url(#pf15f1f980f)" d="M 432 504.010694 
L 436.049294 502.735244 
L 439.630515 501.404583 
L 442.986384 500.184314 
L 446.556039 499.029264 
L 450.97127 497.897617 
L 455.729871 496.750519 
L 462.660112 495.551992 
L 469.124305 494.269136 
L 473.851019 492.872527 
L 478.486195 491.336775 
L 481.992073 489.641165 
L 484.868487 487.770294 
L 488.90148 487.401068 
L 494.817353 485.380633 
L 499.772682 483.259585 
L 504.489651 481.077727 
L 509.268169 478.870195 
L 512.053996 476.667293 
L 514.291304 474.494603 
L 515.436254 472.373286 
L 518.061323 470.320502 
L 520.601232 468.349902 
L 523.744502 466.472139 
L 526.397747 464.695365 
L 528.94374 463.025715 
L 530.913614 461.467744 
L 533.019438 460.024821 
L 535.260487 458.699494 
L 537.992365 457.493806 
L 542.168746 457.228228 
L 544.514455 456.092968 
L 546.022199 454.976132 
L 546.79022 453.885894 
L 547.102129 452.829346 
L 547.212699 451.812613 
L 547.812549 450.840971 
L 548.322154 449.918977 
L 548.890365 449.050593 
L 550.308965 448.239312 
L 551.272937 447.488275 
L 553.303945 446.800392 
L 556.67926 446.178457 
L 559.837065 445.62526 
L 562.576403 445.143711 
L 566.073862 444.736952 
L 568.776055 444.408492 
L 571.387036 444.182862 
L 574.437521 443.933628 
L 576 443.848621 
" style="fill:none;stroke:#000000;stroke-opacity:0.7;stroke-width:1.275591;"/>
    <path clip-path="url(#pf15f1f980f)" d="M 864 434.645996 
L 865.458071 434.641612 
L 871.78235 434.626 
L 877.783947 434.61034 
L 884.321753 434.593726 
L 890.498335 434.575228 
L 896.48065 434.553887 
L 900.619405 434.52872 
L 904.68692 434.498717 
L 908.657088 434.462844 
L 913.456693 434.420042 
L 918.18073 434.369235 
L 924.009733 434.309326 
L 930.884552 434.239206 
L 937.471434 434.157756 
L 944.617231 434.063854 
L 950.896924 433.95638 
L 954.412318 433.619133 
L 960.53809 433.490893 
L 967.201329 433.341131 
L 972.81553 433.172511 
L 979.255732 432.987758 
L 982.8 432.875653 
" style="fill:none;stroke:#000000;stroke-opacity:0.7;stroke-width:1.275591;"/>
    <path clip-path="url(#pf15f1f980f)" d="M 982.8 430.63574 
L 978.989442 430.761787 
L 972.549684 430.956031 
L 966.927717 431.134921 
L 960.262396 431.295872 
L 954.13195 431.436349 
L 950.611767 431.773596 
L 944.329047 431.894167 
L 937.184049 432.001705 
L 930.597007 432.097251 
L 923.72286 432.181856 
L 917.888555 432.256565 
L 913.15573 432.32242 
L 908.348514 432.38045 
L 904.3679 432.431672 
L 900.291662 432.477084 
L 896.147984 432.517663 
L 890.173965 432.554367 
L 884.009288 432.58813 
L 877.484713 432.619861 
L 871.493204 432.65045 
L 865.175745 432.680758 
L 864 432.6874 
" style="fill:none;stroke:#000000;stroke-opacity:0.7;stroke-width:1.275591;"/>
    <path clip-path="url(#pf15f1f980f)" d="M 576 442.380298 
L 574.291546 442.473985 
L 571.24108 442.7225 
L 568.626555 442.948131 
L 565.925898 443.273502 
L 562.435295 443.674862 
L 559.69817 444.148836 
L 556.545993 444.692405 
L 553.176053 445.302775 
L 551.136322 445.977261 
L 550.158529 446.713178 
L 548.731001 447.507722 
L 548.150218 448.357865 
L 547.63205 449.260235 
L 547.030739 450.211003 
L 546.914441 451.205759 
L 546.599224 452.239389 
L 545.828677 453.305956 
L 544.322735 454.398578 
L 541.980277 455.509317 
L 537.820627 455.774894 
L 535.091464 456.954417 
L 532.848788 458.250487 
L 530.737313 459.661157 
L 528.765081 461.183988 
L 526.218592 462.815739 
L 523.565082 464.552015 
L 520.425973 466.386879 
L 517.886291 468.312429 
L 515.251273 470.318328 
L 514.086444 472.391311 
L 511.832887 474.514695 
L 509.031584 476.667892 
L 504.243698 478.826004 
L 499.520924 480.95952 
L 494.5617 483.034216 
L 488.648406 485.011304 
L 484.607784 485.38053 
L 481.715232 487.212454 
L 478.195154 488.873954 
L 473.550357 490.379982 
L 468.815106 491.750668 
L 462.355252 493.01071 
L 455.428571 494.188745 
L 450.666485 495.316815 
L 446.248663 496.429971 
L 442.673441 497.566087 
L 439.312146 498.765935 
L 435.732939 500.073579 
L 432 501.228893 
" style="fill:none;stroke:#000000;stroke-opacity:0.7;stroke-width:1.275591;"/>
    <path clip-path="url(#pf15f1f980f)" d="M 244.786149 594 
L 227.931492 598.33613 
L 176.322673 609.970833 
L 116.271188 621.498439 
L 25.2 631.828185 
" style="fill:none;stroke:#000000;stroke-opacity:0.7;stroke-width:1.275591;"/>
   </g>
  </g>
 </g>
 <defs>
  <clipPath id="pf15f1f980f">
   <rect height="752.4" width="957.6" x="25.2" y="19.8"/>
  </clipPath>
 </defs>
</svg>
