<?xml version="1.0" encoding="utf-8" standalone="no"?>
<!DOCTYPE svg PUBLIC "-//W3C//DTD SVG 1.1//EN"
  "http://www.w3.org/Graphics/SVG/1.1/DTD/svg11.dtd">
<!-- Created with matplotlib (https://matplotlib.org/) -->
<svg height="792pt" version="1.1" viewBox="0 0 1008 792" width="1008pt" xmlns="http://www.w3.org/2000/svg" xmlns:xlink="http://www.w3.org/1999/xlink">
 <defs>
  <style type="text/css">
*{stroke-linecap:butt;stroke-linejoin:round;}
  </style>
 </defs>
 <g id="figure_1">
  <g id="axes_1">
   <g id="LineCollection_1">
    <path clip-path="url(#pcc035c4275)" d="M 982.8 362.990566 
L 982.210858 363.041663 
L 977.060626 363.509984 
L 971.000726 363.982656 
L 964.574279 364.461617 
L 958.719358 364.948623 
L 951.991573 365.445237 
L 945.720896 365.952823 
L 942.057042 366.29007 
L 935.683533 366.803562 
L 928.5625 367.320165 
L 921.970686 367.838623 
L 915.116672 368.357756 
L 909.123314 368.876468 
L 904.126839 369.393742 
L 899.091278 369.908643 
L 894.797313 370.420315 
L 890.459354 370.927978 
L 886.167992 371.430928 
L 880.442863 371.92853 
L 874.635336 372.420222 
L 868.5077 372.905503 
L 864 373.2846 
" style="fill:none;stroke:#000000;stroke-opacity:0.7;stroke-width:1.275591;"/>
    <path clip-path="url(#pcc035c4275)" d="M 576 398.285667 
L 573.211088 398.461698 
L 569.912291 398.6847 
L 566.86241 398.911653 
L 564.141555 399.137283 
L 561.486997 399.370024 
L 558.202046 399.609399 
L 555.531301 399.856125 
L 552.547981 400.11087 
L 549.339276 400.374252 
L 547.037891 400.646838 
L 545.645436 400.929131 
L 543.950087 401.221567 
L 542.992116 401.524495 
L 542.217098 401.838167 
L 541.57193 402.162715 
L 541.283807 402.498132 
L 540.86933 402.844244 
L 540.023 403.200687 
L 538.571127 403.566873 
L 536.326231 403.94196 
L 532.66847 404.207537 
L 530.020778 404.602094 
L 527.729303 405.020452 
L 525.448275 405.463543 
L 523.405314 405.932172 
L 520.843941 406.426962 
L 518.18248 406.948286 
L 515.1682 407.496183 
L 512.635328 408.070261 
L 509.701839 408.669583 
L 507.940647 409.292545 
L 505.199618 409.936739 
L 501.934052 410.598806 
L 496.865106 411.274306 
L 491.968194 411.957589 
L 486.892116 412.641707 
L 481.056187 413.318371 
L 476.78671 413.687597 
L 473.409997 414.351104 
L 469.463924 414.98934 
L 464.530488 415.603634 
L 459.53914 416.196628 
L 453.209466 416.772225 
L 446.389561 417.335521 
L 441.522939 417.892739 
L 437.027376 418.451189 
L 433.285131 419.019261 
L 432 419.233405 
" style="fill:none;stroke:#000000;stroke-opacity:0.7;stroke-width:1.275591;"/>
    <path clip-path="url(#pcc035c4275)" d="M 144 458.112756 
L 99.238117 461.157272 
L 25.2 464.204865 
" style="fill:none;stroke:#000000;stroke-opacity:0.7;stroke-width:1.275591;"/>
    <path clip-path="url(#pcc035c4275)" d="M 25.2 458.650425 
L 98.670348 455.812567 
L 144 452.9264 
" style="fill:none;stroke:#000000;stroke-opacity:0.7;stroke-width:1.275591;"/>
    <path clip-path="url(#pcc035c4275)" d="M 432 416.557157 
L 432.972187 416.401034 
L 436.72 415.851896 
L 441.218154 415.311937 
L 446.088261 414.773747 
L 452.904606 414.230942 
L 459.229942 413.678159 
L 464.229826 413.111089 
L 469.172883 412.52652 
L 473.133155 411.922392 
L 476.526007 411.297832 
L 480.803113 410.928606 
L 486.636464 410.29529 
L 491.716436 409.657525 
L 496.619153 409.022583 
L 501.697467 408.396503 
L 504.978509 407.78414 
L 507.735787 407.189253 
L 509.516858 406.614625 
L 512.460296 406.062188 
L 514.992941 405.53316 
L 518.00306 405.028162 
L 520.664786 404.547336 
L 523.226656 404.090445 
L 525.271974 403.656956 
L 527.558653 403.246118 
L 529.851755 402.857016 
L 532.496731 402.488625 
L 536.137763 402.223048 
L 538.379407 401.872483 
L 539.829477 401.530512 
L 540.678333 401.19774 
L 541.096119 400.874544 
L 541.38997 400.561106 
L 542.0366 400.257432 
L 542.82018 399.963383 
L 543.790723 399.678695 
L 545.495 399.402996 
L 546.901277 399.135824 
L 549.211384 398.876635 
L 552.414714 398.624819 
L 555.392405 398.379702 
L 558.060938 398.140551 
L 561.339034 397.906574 
L 563.992055 397.676921 
L 566.716454 397.451291 
L 569.766316 397.225057 
L 573.066769 397.000561 
L 576 396.812611 
" style="fill:none;stroke:#000000;stroke-opacity:0.7;stroke-width:1.275591;"/>
    <path clip-path="url(#pcc035c4275)" d="M 864 371.280647 
L 868.208466 370.915024 
L 874.322871 370.414625 
L 880.118493 369.907669 
L 885.835326 369.394703 
L 890.13161 368.876342 
L 894.478294 368.35327 
L 898.782704 367.82625 
L 903.825876 367.29612 
L 908.831139 366.763798 
L 914.829799 366.230286 
L 921.683142 365.696668 
L 928.275115 365.164114 
L 935.395349 364.633875 
L 941.771885 364.107286 
L 945.440528 363.770039 
L 951.715879 363.250216 
L 958.445746 362.742413 
L 964.308432 362.245136 
L 970.734436 361.756685 
L 976.787752 361.275157 
L 981.935302 360.798461 
L 982.8 360.722147 
" style="fill:none;stroke:#000000;stroke-opacity:0.7;stroke-width:1.275591;"/>
    <path clip-path="url(#pcc035c4275)" d="M 982.8 358.452888 
L 981.659746 358.55526 
L 976.514878 359.040329 
L 970.468145 359.530714 
L 964.042585 360.028656 
L 958.172134 360.536203 
L 951.440185 361.055195 
L 945.160159 361.587255 
L 941.486727 361.924502 
L 935.107165 362.464188 
L 927.98773 363.008063 
L 921.395598 363.554714 
L 914.542926 364.102816 
L 908.538965 364.651128 
L 903.524913 365.198497 
L 898.474129 365.743856 
L 894.159274 366.286225 
L 889.803867 366.824705 
L 885.502659 367.358479 
L 879.794123 367.886808 
L 874.010405 368.409028 
L 867.909232 368.924545 
L 864 369.275071 
" style="fill:none;stroke:#000000;stroke-opacity:0.7;stroke-width:1.275591;"/>
    <path clip-path="url(#pcc035c4275)" d="M 576 395.339284 
L 572.922451 395.539424 
L 569.620341 395.765415 
L 566.570498 395.990929 
L 563.842555 396.21656 
L 561.191071 396.443125 
L 557.91983 396.671702 
L 555.253509 396.903278 
L 552.281447 397.138767 
L 549.083491 397.379017 
L 546.764663 397.624809 
L 545.344563 397.876862 
L 543.63136 398.135823 
L 542.648243 398.402271 
L 541.856101 398.676696 
L 541.20801 398.959496 
L 540.908431 399.250957 
L 540.487337 399.551235 
L 539.635955 399.860336 
L 538.187686 400.178093 
L 535.949294 400.504136 
L 532.324993 400.769714 
L 529.682732 401.111939 
L 527.388004 401.471783 
L 525.095672 401.850369 
L 523.047997 402.248717 
L 520.485631 402.66771 
L 517.823639 403.108038 
L 514.817682 403.570137 
L 512.285263 404.054116 
L 509.331877 404.559667 
L 507.530927 405.085961 
L 504.7574 405.631541 
L 501.460883 406.1942 
L 496.3732 406.770859 
L 491.464679 407.357461 
L 486.380811 407.948873 
L 480.550039 408.538842 
L 476.265305 408.908068 
L 472.856314 409.493681 
L 468.881842 410.063699 
L 463.929164 410.618544 
L 458.920743 411.159691 
L 452.599747 411.689659 
L 445.786961 412.211973 
L 440.913369 412.731134 
L 436.412624 413.252604 
L 432.659244 413.782806 
L 432 413.884703 
" style="fill:none;stroke:#000000;stroke-opacity:0.7;stroke-width:1.275591;"/>
    <path clip-path="url(#pcc035c4275)" d="M 144 447.745645 
L 98.102579 450.467861 
L 25.2 453.098232 
" style="fill:none;stroke:#000000;stroke-opacity:0.7;stroke-width:1.275591;"/>
    <path clip-path="url(#pcc035c4275)" d="M 25.2 447.548296 
L 97.53481 445.123156 
L 144 442.570519 
" style="fill:none;stroke:#000000;stroke-opacity:0.7;stroke-width:1.275591;"/>
    <path clip-path="url(#pcc035c4275)" d="M 432 411.216025 
L 432.3463 411.164579 
L 436.105248 410.653311 
L 440.608584 410.150332 
L 445.48566 409.650199 
L 452.294887 409.148376 
L 458.611544 408.641223 
L 463.628501 408.125999 
L 468.590801 407.600879 
L 472.579473 407.064969 
L 476.004602 406.518303 
L 480.296965 406.149077 
L 486.125158 405.602456 
L 491.212921 405.057396 
L 496.127247 404.519136 
L 501.224299 403.991897 
L 504.536291 403.478943 
L 507.326067 402.982669 
L 509.146896 402.504708 
L 512.110231 402.046044 
L 514.642423 401.607114 
L 517.644219 401.187913 
L 520.306476 400.788084 
L 522.869338 400.40699 
L 524.919371 400.043782 
L 527.217354 399.697449 
L 529.513709 399.366861 
L 532.153254 399.050802 
L 535.760826 398.785224 
L 537.995966 398.483702 
L 539.442432 398.19016 
L 540.29634 397.90473 
L 540.720743 397.627369 
L 541.02605 397.357886 
L 541.675603 397.09596 
L 542.476306 396.841158 
L 543.471996 396.592952 
L 545.194127 396.350727 
L 546.628048 396.113795 
L 548.955598 395.8814 
L 552.14818 395.652716 
L 555.114614 395.426854 
L 557.778721 395.202853 
L 561.043107 394.979676 
L 563.693055 394.756198 
L 566.424543 394.530568 
L 569.474366 394.305772 
L 572.778132 394.078287 
L 576 393.865687 
" style="fill:none;stroke:#000000;stroke-opacity:0.7;stroke-width:1.275591;"/>
    <path clip-path="url(#pcc035c4275)" d="M 864 367.267862 
L 867.609999 366.934067 
L 873.69794 366.403431 
L 879.469752 365.865947 
L 885.169993 365.322254 
L 889.476123 364.773068 
L 893.840254 364.21918 
L 898.165555 363.661463 
L 903.22395 363.100874 
L 908.24679 362.538458 
L 914.256053 361.975346 
L 921.108054 361.41276 
L 927.700345 360.852011 
L 934.818981 360.294501 
L 941.20157 359.741718 
L 944.879791 359.404471 
L 951.164491 358.860174 
L 957.898522 358.329993 
L 963.776739 357.812175 
L 970.201855 357.304742 
L 976.242005 356.805502 
L 981.384189 356.312059 
L 982.8 356.182787 
" style="fill:none;stroke:#000000;stroke-opacity:0.7;stroke-width:1.275591;"/>
    <path clip-path="url(#pcc035c4275)" d="M 982.8 353.911843 
L 981.108633 354.068858 
L 975.969131 354.570675 
L 969.935564 355.078771 
L 963.510892 355.595695 
L 957.62491 356.123783 
L 950.888797 356.665153 
L 944.599422 357.221687 
L 940.916412 357.558933 
L 934.530797 358.124814 
L 927.41296 358.69596 
L 920.82051 359.270806 
L 913.96918 359.847876 
L 907.954615 360.425788 
L 902.922987 361.003252 
L 897.85698 361.579069 
L 893.521235 362.152134 
L 889.148379 362.721431 
L 884.837326 363.28603 
L 879.145382 363.845086 
L 873.385475 364.397834 
L 867.310765 364.943588 
L 864 365.259012 
" style="fill:none;stroke:#000000;stroke-opacity:0.7;stroke-width:1.275591;"/>
    <path clip-path="url(#pcc035c4275)" d="M 576 392.39182 
L 572.633813 392.61715 
L 569.328391 392.846129 
L 566.278587 393.070206 
L 563.543555 393.295837 
L 560.895144 393.516227 
L 557.637613 393.734004 
L 554.975718 393.95043 
L 552.014913 394.166665 
L 548.827706 394.383782 
L 546.491434 394.602781 
L 545.043691 394.824592 
L 543.312632 395.05008 
L 542.30437 395.280046 
L 541.495104 395.515225 
L 540.844089 395.756277 
L 540.533055 396.003782 
L 540.105344 396.258225 
L 539.24891 396.519985 
L 537.804246 396.789312 
L 535.572358 397.066313 
L 531.981516 397.33189 
L 529.344687 397.621784 
L 527.046705 397.923114 
L 524.74307 398.237194 
L 522.690679 398.565263 
L 520.127321 398.908458 
L 517.464799 399.267789 
L 514.467164 399.64409 
L 511.935199 400.037971 
L 508.961915 400.44975 
L 507.121207 400.879377 
L 504.315182 401.326344 
L 500.987714 401.789594 
L 495.881294 402.267413 
L 490.961163 402.757332 
L 485.869505 403.256039 
L 480.043891 403.759313 
L 475.7439 404.128539 
L 472.302632 404.636257 
L 468.29976 405.138058 
L 463.327839 405.633454 
L 458.302345 406.122755 
L 451.990027 406.607094 
L 445.18436 407.088424 
L 440.3038 407.569529 
L 435.797871 408.054018 
L 432.033356 408.546351 
L 432 408.551107 
" style="fill:none;stroke:#000000;stroke-opacity:0.7;stroke-width:1.275591;"/>
    <path clip-path="url(#pcc035c4275)" d="M 144 437.401051 
L 96.967041 439.77845 
L 25.2 442.000629 
" style="fill:none;stroke:#000000;stroke-opacity:0.7;stroke-width:1.275591;"/>
    <path clip-path="url(#pcc035c4275)" d="M 25.2 436.455243 
L 96.399272 434.433745 
L 144 432.237267 
" style="fill:none;stroke:#000000;stroke-opacity:0.7;stroke-width:1.275591;"/>
    <path clip-path="url(#pcc035c4275)" d="M 432 405.893017 
L 435.490495 405.454725 
L 439.999015 404.988727 
L 444.88306 404.52665 
L 451.685168 404.065811 
L 457.993146 403.604287 
L 463.027177 403.140909 
L 468.008719 402.675238 
L 472.025791 402.207546 
L 475.483198 401.738774 
L 479.790817 401.369548 
L 485.613852 400.909622 
L 490.709406 400.457268 
L 495.635341 400.01569 
L 500.75113 399.587291 
L 504.094074 399.173746 
L 506.916347 398.776084 
L 508.776934 398.394792 
L 511.760167 398.029899 
L 514.291905 397.681067 
L 517.285379 397.347665 
L 519.948165 397.028833 
L 522.51202 396.723536 
L 524.566769 396.430607 
L 526.876055 396.14878 
L 529.175664 395.876706 
L 531.809777 395.612978 
L 535.38389 395.347401 
L 537.612526 395.094922 
L 539.055387 394.849809 
L 539.914347 394.61172 
L 540.345367 394.380194 
L 540.662129 394.154667 
L 541.314606 393.934489 
L 542.132433 393.718934 
L 543.153268 393.507208 
L 544.893254 393.298457 
L 546.35482 393.091767 
L 548.699813 392.886165 
L 551.881646 392.680614 
L 554.836823 392.474007 
L 557.496505 392.265156 
L 560.747181 392.052777 
L 563.394055 391.835475 
L 566.132631 391.609845 
L 569.182415 391.386486 
L 572.489494 391.156013 
L 575.99621 390.917942 
L 576 390.917688 
" style="fill:none;stroke:#000000;stroke-opacity:0.7;stroke-width:1.275591;"/>
    <path clip-path="url(#pcc035c4275)" d="M 864 363.248511 
L 867.011531 362.95311 
L 873.07301 362.392237 
L 878.821012 361.824224 
L 884.50466 361.249805 
L 888.820636 360.669794 
L 893.202215 360.085089 
L 897.548406 359.496676 
L 902.622024 358.905629 
L 907.66244 358.313118 
L 913.682308 357.720406 
L 920.532966 357.128851 
L 927.125575 356.539909 
L 934.242614 355.955127 
L 940.631255 355.376149 
L 944.319054 355.038902 
L 950.613103 354.470132 
L 957.351298 353.917573 
L 963.245045 353.379215 
L 969.669274 352.8528 
L 975.696257 352.335848 
L 980.833077 351.825657 
L 982.8 351.640056 
" style="fill:none;stroke:#000000;stroke-opacity:0.7;stroke-width:1.275591;"/>
    <path clip-path="url(#pcc035c4275)" d="M 982.8 349.367425 
L 980.55752 349.582456 
L 975.423383 350.10102 
L 969.402983 350.626829 
L 962.979198 351.162734 
L 957.077686 351.711363 
L 950.337409 352.275111 
L 944.038685 352.856118 
L 940.346098 353.193365 
L 933.95443 353.78544 
L 926.83819 354.383857 
L 920.245422 354.986897 
L 913.395435 355.592936 
L 907.370266 356.200448 
L 902.32106 356.808007 
L 897.239831 357.414282 
L 892.883196 358.018044 
L 888.492892 358.618157 
L 884.171994 359.213581 
L 878.496642 359.803363 
L 872.760545 360.38664 
L 866.712297 360.962631 
L 864 361.236351 
" style="fill:none;stroke:#000000;stroke-opacity:0.7;stroke-width:1.275591;"/>
    <path clip-path="url(#pcc035c4275)" d="M 576 389.443346 
L 575.85513 389.453254 
L 572.345175 389.694876 
L 569.03644 389.926843 
L 565.986676 390.149483 
L 563.244555 390.375113 
L 560.599217 390.589328 
L 557.355397 390.796307 
L 554.697927 390.997583 
L 551.748379 391.194563 
L 548.571921 391.388548 
L 546.218205 391.580753 
L 544.742818 391.772322 
L 542.993904 391.964336 
L 541.960496 392.157821 
L 541.134108 392.353754 
L 540.480169 392.553058 
L 540.15768 392.756607 
L 539.723351 392.965215 
L 538.861865 393.179634 
L 537.420805 393.400532 
L 535.195422 393.628489 
L 531.638039 393.894066 
L 529.006641 394.131629 
L 526.705406 394.374445 
L 524.390467 394.62402 
L 522.333361 394.881808 
L 519.76901 395.149207 
L 517.105959 395.427541 
L 514.116646 395.718044 
L 511.585135 396.021827 
L 508.591953 396.339834 
L 506.711488 396.672792 
L 503.872965 397.021147 
L 500.514545 397.384989 
L 495.389387 397.763966 
L 490.457648 398.157203 
L 485.3582 398.563205 
L 479.537743 398.979784 
L 475.222495 399.34901 
L 471.74895 399.778834 
L 467.717678 400.212417 
L 462.726514 400.648364 
L 457.683947 401.085819 
L 451.380308 401.524528 
L 444.581759 401.964876 
L 439.69423 402.407924 
L 435.183119 402.855433 
L 432 403.238575 
" style="fill:none;stroke:#000000;stroke-opacity:0.7;stroke-width:1.275591;"/>
    <path clip-path="url(#pcc035c4275)" d="M 144 427.079199 
L 95.831503 429.089039 
L 25.2 430.91215 
" style="fill:none;stroke:#000000;stroke-opacity:0.7;stroke-width:1.275591;"/>
    <path clip-path="url(#pcc035c4275)" d="M 25.2 425.371363 
L 95.263734 423.744333 
L 144 421.926873 
" style="fill:none;stroke:#000000;stroke-opacity:0.7;stroke-width:1.275591;"/>
    <path clip-path="url(#pcc035c4275)" d="M 432 400.587374 
L 434.875743 400.25614 
L 439.389445 399.827122 
L 444.280459 399.403102 
L 451.075449 398.983245 
L 457.374748 398.567351 
L 462.425852 398.155819 
L 467.426637 397.749597 
L 471.472108 397.350122 
L 474.961793 396.959246 
L 479.284669 396.590019 
L 485.102547 396.216789 
L 490.20589 395.857139 
L 495.143434 395.512243 
L 500.277961 395.182686 
L 503.651856 394.868549 
L 506.506628 394.5695 
L 508.406972 394.284876 
L 511.410103 394.013755 
L 513.941387 393.755021 
L 516.926539 393.507416 
L 519.589855 393.269581 
L 522.154702 393.040081 
L 524.214166 392.817433 
L 526.534756 392.600111 
L 528.837618 392.386552 
L 531.4663 392.175154 
L 535.006953 391.909577 
L 537.229085 391.706142 
L 538.668342 391.509458 
L 539.532354 391.318711 
L 539.969992 391.133019 
L 540.298209 390.951448 
L 540.953609 390.773018 
L 541.788559 390.596709 
L 542.834541 390.421464 
L 544.592381 390.246187 
L 546.081591 390.069739 
L 548.444028 389.89093 
L 551.615112 389.708512 
L 554.559031 389.521159 
L 557.214288 389.327458 
L 560.451254 389.125879 
L 563.095055 388.914752 
L 565.84072 388.689121 
L 568.890465 388.4672 
L 572.200856 388.233739 
L 575.714051 387.988566 
L 576 387.968583 
" style="fill:none;stroke:#000000;stroke-opacity:0.7;stroke-width:1.275591;"/>
    <path clip-path="url(#pcc035c4275)" d="M 864 359.222523 
L 866.413063 358.972152 
L 872.44808 358.381043 
L 878.172272 357.782502 
L 883.839327 357.177356 
L 888.165149 356.566521 
L 892.564176 355.950999 
L 896.931257 355.331889 
L 902.020097 354.710384 
L 907.078091 354.087778 
L 913.108562 353.465466 
L 919.957878 352.844943 
L 926.550805 352.227806 
L 933.666246 351.615754 
L 940.06094 351.010581 
L 943.758317 350.673334 
L 950.061714 350.080089 
L 956.804074 349.505154 
L 962.713351 348.946254 
L 969.136693 348.400858 
L 975.15051 347.866193 
L 980.281964 347.339255 
L 982.8 347.093949 
" style="fill:none;stroke:#000000;stroke-opacity:0.7;stroke-width:1.275591;"/>
    <path clip-path="url(#pcc035c4275)" d="M 982.8 344.819627 
L 980.006407 345.096053 
L 974.877636 345.631366 
L 968.870402 346.174887 
L 962.447505 346.729773 
L 956.530462 347.298944 
L 949.78602 347.885068 
L 943.477948 348.49055 
L 939.775783 348.827797 
L 933.378062 349.446067 
L 926.263421 350.071755 
L 919.670334 350.702988 
L 912.821689 351.337996 
L 906.785916 351.975109 
L 901.719134 352.612761 
L 896.622682 353.249495 
L 892.245157 353.883954 
L 887.837405 354.514884 
L 883.506661 355.141132 
L 877.847902 355.761641 
L 872.135615 356.375447 
L 866.11383 356.981674 
L 864 357.207019 
" style="fill:none;stroke:#000000;stroke-opacity:0.7;stroke-width:1.275591;"/>
    <path clip-path="url(#pcc035c4275)" d="M 576 386.493399 
L 575.572971 386.523878 
L 572.056538 386.772601 
L 568.74449 387.007558 
L 565.694764 387.22876 
L 562.945555 387.45439 
L 560.30329 387.662429 
L 557.07318 387.858609 
L 554.420136 388.044736 
L 551.481845 388.22246 
L 548.316136 388.393313 
L 545.944977 388.558725 
L 544.441945 388.720052 
L 542.675177 388.878592 
L 541.616623 389.035597 
L 540.773111 389.192282 
L 540.116248 389.349838 
L 539.782304 389.509431 
L 539.341358 389.672206 
L 538.474819 389.839282 
L 537.037365 390.011752 
L 534.818485 390.190665 
L 531.294561 390.456242 
L 528.668595 390.641474 
L 526.364107 390.825776 
L 524.037865 391.010846 
L 521.976043 391.198354 
L 519.4107 391.389955 
L 516.747119 391.587292 
L 513.766128 391.791998 
L 511.235071 392.005682 
L 508.22199 392.229918 
L 506.301768 392.466208 
L 503.430747 392.71595 
L 500.041377 392.980383 
L 494.897481 393.26052 
L 489.954133 393.557074 
L 484.846894 393.870372 
L 479.031595 394.200255 
L 474.70109 394.569481 
L 471.195267 394.921411 
L 467.135596 395.286776 
L 462.12519 395.663274 
L 457.06555 396.048883 
L 450.770589 396.441962 
L 443.979159 396.841328 
L 439.08466 397.246319 
L 434.568367 397.656847 
L 432 397.9394 
" style="fill:none;stroke:#000000;stroke-opacity:0.7;stroke-width:1.275591;"/>
    <path clip-path="url(#pcc035c4275)" d="M 144 416.78032 
L 94.695965 418.399628 
L 25.2 419.832892 
" style="fill:none;stroke:#000000;stroke-opacity:0.7;stroke-width:1.275591;"/>
    <path clip-path="url(#pcc035c4275)" d="M 25.2 414.296749 
L 94.128196 413.054922 
L 144 411.639568 
" style="fill:none;stroke:#000000;stroke-opacity:0.7;stroke-width:1.275591;"/>
    <path clip-path="url(#pcc035c4275)" d="M 432 395.294638 
L 434.26099 395.057555 
L 438.779875 394.665517 
L 443.677859 394.279554 
L 450.46573 393.900679 
L 456.756351 393.530415 
L 461.824528 393.170729 
L 466.844555 392.823956 
L 470.918426 392.492699 
L 474.440388 392.179717 
L 478.778521 391.810491 
L 484.591241 391.523955 
L 489.702375 391.25701 
L 494.651528 391.008797 
L 499.804792 390.77808 
L 503.209638 390.563352 
L 506.096908 390.362916 
L 508.037009 390.174959 
L 511.060039 389.99761 
L 513.590869 389.828974 
L 516.567699 389.667168 
L 519.231545 389.510329 
L 521.797385 389.356627 
L 523.861564 389.204259 
L 526.193457 389.051442 
L 528.499572 388.896397 
L 531.122823 388.73733 
L 534.630017 388.471753 
L 536.845645 388.317361 
L 538.281297 388.169107 
L 539.150361 388.025701 
L 539.594616 387.885844 
L 539.934288 387.748229 
L 540.592612 387.611547 
L 541.444686 387.474484 
L 542.515813 387.335721 
L 544.291508 387.193917 
L 545.808362 387.047711 
L 548.188243 386.895695 
L 551.348577 386.736409 
L 554.28124 386.568312 
L 556.932072 386.389761 
L 560.155327 386.19898 
L 562.796055 385.994029 
L 565.548809 385.768398 
L 568.598515 385.547915 
L 571.912219 385.311464 
L 575.431892 385.059189 
L 576 385.017794 
" style="fill:none;stroke:#000000;stroke-opacity:0.7;stroke-width:1.275591;"/>
    <path clip-path="url(#pcc035c4275)" d="M 864 355.189828 
L 865.814596 354.991195 
L 871.82315 354.36985 
L 877.523532 353.74078 
L 883.173995 353.104907 
L 887.509662 352.463247 
L 891.926137 351.816908 
L 896.314108 351.167101 
L 901.418171 350.515139 
L 906.493742 349.862439 
L 912.534816 349.210526 
L 919.382789 348.561034 
L 925.976036 347.915703 
L 933.089878 347.27638 
L 939.490625 346.645013 
L 943.19758 346.307766 
L 949.510326 345.690047 
L 956.25685 345.092734 
L 962.181658 344.513293 
L 968.604111 343.948916 
L 974.604762 343.396539 
L 979.730851 342.852852 
L 982.8 342.54446 
" style="fill:none;stroke:#000000;stroke-opacity:0.7;stroke-width:1.275591;"/>
    <path clip-path="url(#pcc035c4275)" d="M 982.8 340.268445 
L 979.455295 340.609651 
L 974.331888 341.161711 
L 968.337821 341.722945 
L 961.915811 342.296812 
L 955.983238 342.886524 
L 949.234632 343.495026 
L 942.917211 344.124981 
L 939.205468 344.462228 
L 932.801695 345.106693 
L 925.688651 345.759652 
L 919.095245 346.41908 
L 912.247943 347.083056 
L 906.201567 347.749769 
L 901.117208 348.417516 
L 896.005533 349.084708 
L 891.607117 349.749863 
L 887.181918 350.41161 
L 882.841328 351.068683 
L 877.199162 351.719918 
L 871.510685 352.364253 
L 865.515362 353.000716 
L 864 353.170941 
" style="fill:none;stroke:#000000;stroke-opacity:0.7;stroke-width:1.275591;"/>
    <path clip-path="url(#pcc035c4275)" d="M 576 383.541768 
L 575.290812 383.594501 
L 571.7679 383.850327 
L 568.45254 384.088272 
L 565.402853 384.308037 
L 562.646555 384.533667 
L 560.007364 384.735531 
L 556.790963 384.920912 
L 554.142344 385.091888 
L 551.21531 385.250358 
L 548.060351 385.398078 
L 545.671748 385.536696 
L 544.141072 385.667783 
L 542.356449 385.792849 
L 541.272749 385.913372 
L 540.412114 386.030811 
L 539.752328 386.146619 
L 539.406928 386.262256 
L 538.959365 386.379196 
L 538.087774 386.498931 
L 536.653924 386.622971 
L 534.441549 386.752841 
L 530.951084 387.018418 
L 528.330549 387.151319 
L 526.022808 387.277107 
L 523.685262 387.397672 
L 521.618726 387.5149 
L 519.05239 387.630703 
L 516.388279 387.747043 
L 513.41561 387.865951 
L 510.885007 387.989538 
L 507.852028 388.120001 
L 505.892048 388.259623 
L 502.988529 388.410753 
L 499.568208 388.575777 
L 494.405575 388.757073 
L 489.450617 388.956946 
L 484.335588 389.177538 
L 478.525447 389.420726 
L 474.179685 389.789952 
L 470.641585 390.063987 
L 466.553514 390.361135 
L 461.523865 390.678184 
L 456.447152 391.011947 
L 450.16087 391.359397 
L 443.376558 391.71778 
L 438.47509 392.084714 
L 433.953614 392.458262 
L 432 392.653074 
" style="fill:none;stroke:#000000;stroke-opacity:0.7;stroke-width:1.275591;"/>
    <path clip-path="url(#pcc035c4275)" d="M 144 406.504648 
L 93.560427 407.710217 
L 25.2 408.762948 
" style="fill:none;stroke:#000000;stroke-opacity:0.7;stroke-width:1.275591;"/>
    <path clip-path="url(#pcc035c4275)" d="M 25.2 403.2315 
L 92.992658 402.365511 
L 144 401.375588 
" style="fill:none;stroke:#000000;stroke-opacity:0.7;stroke-width:1.275591;"/>
    <path clip-path="url(#pcc035c4275)" d="M 432 390.014694 
L 433.646238 389.858969 
L 438.170305 389.503912 
L 443.075258 389.156006 
L 449.856011 388.818114 
L 456.137953 388.493479 
L 461.223203 388.185639 
L 466.262473 387.898315 
L 470.364744 387.635276 
L 473.918983 387.400188 
L 478.272373 387.030962 
L 484.079936 386.831121 
L 489.19886 386.656881 
L 494.159622 386.50535 
L 499.331623 386.373474 
L 502.76742 386.258155 
L 505.687188 386.156331 
L 507.667047 386.065043 
L 510.709974 385.981465 
L 513.24035 385.902928 
L 516.208859 385.826919 
L 518.873235 385.751077 
L 521.440067 385.673172 
L 523.508961 385.591085 
L 525.852158 385.502773 
L 528.161526 385.406242 
L 530.779346 385.299507 
L 534.253081 385.033929 
L 536.462204 384.928581 
L 537.894252 384.828755 
L 538.768368 384.732691 
L 539.21924 384.638669 
L 539.570367 384.54501 
L 540.231616 384.450075 
L 541.100813 384.35226 
L 542.197086 384.249977 
L 543.990636 384.141648 
L 545.535133 384.025682 
L 547.932458 383.90046 
L 551.082043 383.764307 
L 554.003449 383.615464 
L 556.649855 383.452063 
L 559.8594 383.272082 
L 562.497055 383.073306 
L 565.256897 382.847675 
L 568.306564 382.628629 
L 571.623581 382.38919 
L 575.149733 382.129813 
L 576 382.06532 
" style="fill:none;stroke:#000000;stroke-opacity:0.7;stroke-width:1.275591;"/>
    <path clip-path="url(#pcc035c4275)" d="M 864 351.150351 
L 865.216128 351.010238 
L 871.19822 350.358656 
L 876.874792 349.699057 
L 882.508662 349.032458 
L 886.854174 348.359973 
L 891.288098 347.682818 
L 895.696959 347.002314 
L 900.816245 346.319894 
L 905.909392 345.637099 
L 911.96107 344.955586 
L 918.807701 344.277126 
L 925.401266 343.603601 
L 932.513511 342.937006 
L 938.92031 342.279444 
L 942.636843 341.942197 
L 948.958938 341.300005 
L 955.709626 340.680314 
L 961.649964 340.080332 
L 968.07153 339.496974 
L 974.059015 338.926884 
L 979.179738 338.36645 
L 982.8 337.991582 
" style="fill:none;stroke:#000000;stroke-opacity:0.7;stroke-width:1.275591;"/>
    <path clip-path="url(#pcc035c4275)" d="M 982.8 335.713871 
L 978.904182 336.123249 
L 973.786141 336.692057 
L 967.80524 337.271003 
L 961.384117 337.863851 
L 955.436014 338.474104 
L 948.683244 339.104984 
L 942.356475 339.759413 
L 938.635153 340.09666 
L 932.225327 340.767319 
L 925.113881 341.447549 
L 918.520157 342.135171 
L 911.674197 342.828116 
L 905.617217 343.524429 
L 900.515282 344.222271 
L 895.388384 344.919921 
L 890.969078 345.615773 
L 886.526431 346.308336 
L 882.175995 346.996234 
L 876.550422 347.678196 
L 870.885755 348.353059 
L 864.916895 349.019759 
L 864 349.128047 
" style="fill:none;stroke:#000000;stroke-opacity:0.7;stroke-width:1.275591;"/>
    <path clip-path="url(#pcc035c4275)" d="M 576 380.588452 
L 575.008653 380.665125 
L 571.479262 380.928053 
L 568.160589 381.168986 
L 565.110941 381.387314 
L 562.347555 381.612944 
L 559.711437 381.808632 
L 556.508747 381.983214 
L 553.864553 382.139041 
L 550.948776 382.278256 
L 547.804565 382.402843 
L 545.398519 382.514668 
L 543.840199 382.615513 
L 542.037722 382.707105 
L 540.928876 382.791148 
L 540.051117 382.86934 
L 539.388407 382.9434 
L 539.031553 383.015081 
L 538.577372 383.086187 
L 537.700729 383.15858 
L 536.270484 383.234191 
L 534.064612 383.315018 
L 530.607607 383.580595 
L 527.992504 383.661164 
L 525.681509 383.728438 
L 523.33266 383.784497 
L 521.261408 383.831445 
L 518.69408 383.871451 
L 516.029439 383.906795 
L 513.065091 383.939905 
L 510.534942 383.973393 
L 507.482066 384.010085 
L 505.482328 384.053039 
L 502.546311 384.105556 
L 499.095039 384.171171 
L 493.913669 384.253627 
L 488.947102 384.356817 
L 483.824283 384.484704 
L 478.019299 384.641197 
L 473.65828 385.010423 
L 470.087903 385.206564 
L 465.971432 385.435494 
L 460.922541 385.693094 
L 455.828754 385.975011 
L 449.551151 386.276831 
L 442.773958 386.594232 
L 437.865521 386.923109 
L 433.338862 387.259676 
L 432 387.379485 
" style="fill:none;stroke:#000000;stroke-opacity:0.7;stroke-width:1.275591;"/>
    <path clip-path="url(#pcc035c4275)" d="M 144 396.252419 
L 92.424889 397.020806 
L 25.2 397.702418 
" style="fill:none;stroke:#000000;stroke-opacity:0.7;stroke-width:1.275591;"/>
    <path clip-path="url(#pcc035c4275)" d="M 25.2 392.175713 
L 91.85712 391.6761 
L 144 391.135171 
" style="fill:none;stroke:#000000;stroke-opacity:0.7;stroke-width:1.275591;"/>
    <path clip-path="url(#pcc035c4275)" d="M 432 384.747432 
L 433.031485 384.660384 
L 437.560736 384.342307 
L 442.472657 384.032457 
L 449.246292 383.735548 
L 455.519555 383.456543 
L 460.621878 383.20055 
L 465.680391 382.972674 
L 469.811061 382.777852 
L 473.397578 382.620659 
L 477.766225 382.251433 
L 483.56863 382.138287 
L 488.695344 382.056753 
L 493.667716 382.001904 
L 498.858454 381.968868 
L 502.325202 381.952958 
L 505.277468 381.949747 
L 507.297085 381.955127 
L 510.35991 381.965321 
L 512.889832 381.976882 
L 515.850018 381.986671 
L 518.514925 381.991825 
L 521.082749 381.989718 
L 523.156358 381.97791 
L 525.510859 381.954104 
L 527.823481 381.916087 
L 530.435869 381.861683 
L 533.876144 381.596106 
L 536.078764 381.539801 
L 537.507207 381.488404 
L 538.386375 381.439682 
L 538.843865 381.391494 
L 539.206447 381.34179 
L 539.870619 381.288604 
L 540.756939 381.230035 
L 541.878358 381.164233 
L 543.689763 381.089378 
L 545.261905 381.003654 
L 547.676673 380.905226 
L 550.815509 380.792204 
L 553.725657 380.662617 
L 556.367638 380.514366 
L 559.563474 380.345183 
L 562.198055 380.152582 
L 564.964986 379.926952 
L 568.014614 379.709344 
L 571.334943 379.466916 
L 574.867573 379.200437 
L 576 379.111162 
" style="fill:none;stroke:#000000;stroke-opacity:0.7;stroke-width:1.275591;"/>
    <path clip-path="url(#pcc035c4275)" d="M 864 347.104019 
L 864.617661 347.029281 
L 870.57329 346.347462 
L 876.226052 345.657335 
L 881.843329 344.960009 
L 886.198687 344.256699 
L 890.650059 343.548727 
L 895.07981 342.837527 
L 900.214319 342.124649 
L 905.325043 341.411759 
L 911.387324 340.700646 
L 918.232613 339.993217 
L 924.826496 339.291498 
L 931.937143 338.597632 
L 938.349995 337.913876 
L 942.076106 337.576629 
L 948.40755 336.909962 
L 955.162402 336.267894 
L 961.118271 335.647371 
L 967.538949 335.045032 
L 973.513267 334.457229 
L 978.628626 333.880048 
L 982.8 333.43531 
" style="fill:none;stroke:#000000;stroke-opacity:0.7;stroke-width:1.275591;"/>
    <path clip-path="url(#pcc035c4275)" d="M 982.8 331.155899 
L 978.353069 331.636847 
L 973.240393 332.222402 
L 967.272659 332.819061 
L 960.852424 333.43089 
L 954.88879 334.061684 
L 948.131856 334.714941 
L 941.795738 335.393845 
L 938.064838 335.731092 
L 931.648959 336.427946 
L 924.539111 337.135447 
L 917.945069 337.851263 
L 911.100451 338.573176 
L 905.032868 339.299089 
L 899.913356 340.027026 
L 894.771235 340.755134 
L 890.331039 341.481682 
L 885.870944 342.205063 
L 881.510663 342.923785 
L 875.901682 343.636474 
L 870.260825 344.341865 
L 864.318427 345.038802 
L 864 345.078259 
" style="fill:none;stroke:#000000;stroke-opacity:0.7;stroke-width:1.275591;"/>
    <path clip-path="url(#pcc035c4275)" d="M 576 377.63345 
L 574.726494 377.735749 
L 571.190625 378.005779 
L 567.868639 378.249701 
L 564.81903 378.46659 
L 562.048555 378.692221 
L 559.41551 378.881734 
L 556.22653 379.045517 
L 553.586762 379.186193 
L 550.682242 379.306153 
L 547.54878 379.407608 
L 545.12529 379.49264 
L 543.539326 379.563243 
L 541.718994 379.621361 
L 540.585002 379.668923 
L 539.69012 379.707869 
L 539.024487 379.740181 
L 538.656177 379.767906 
L 538.195379 379.793177 
L 537.313684 379.818229 
L 535.887043 379.84541 
L 533.687676 379.877194 
L 530.26413 380.142771 
L 527.654458 380.17101 
L 525.34021 380.179769 
L 522.980057 380.171323 
L 520.90409 380.147991 
L 518.33577 380.112199 
L 515.670598 380.066546 
L 512.714573 380.013858 
L 510.184878 379.957249 
L 507.112104 379.900169 
L 505.072608 379.846455 
L 502.104093 379.800359 
L 498.62187 379.766566 
L 493.421763 379.75018 
L 488.443587 379.756688 
L 483.312977 379.79187 
L 477.513151 379.861668 
L 473.136875 380.230894 
L 469.53422 380.349141 
L 465.38935 380.509854 
L 460.321216 380.708005 
L 455.210356 380.938075 
L 448.941432 381.194265 
L 442.171357 381.470683 
L 437.255951 381.761504 
L 432.724109 382.061091 
L 432 382.118521 
" style="fill:none;stroke:#000000;stroke-opacity:0.7;stroke-width:1.275591;"/>
    <path clip-path="url(#pcc035c4275)" d="M 144 386.023874 
L 91.289351 386.331394 
L 25.2 386.6514 
" style="fill:none;stroke:#000000;stroke-opacity:0.7;stroke-width:1.275591;"/>
    <path clip-path="url(#pcc035c4275)" d="M 25.2 381.129489 
L 90.721582 380.986689 
L 144 380.918558 
" style="fill:none;stroke:#000000;stroke-opacity:0.7;stroke-width:1.275591;"/>
    <path clip-path="url(#pcc035c4275)" d="M 432 379.492739 
L 432.416733 379.461798 
L 436.951166 379.180702 
L 441.870057 378.908909 
L 448.636572 378.652982 
L 454.901158 378.419607 
L 460.020554 378.21546 
L 465.098309 378.047033 
L 469.257379 377.920429 
L 472.876173 377.84113 
L 477.260077 377.471904 
L 483.057324 377.445453 
L 488.191829 377.456624 
L 493.17581 377.498457 
L 498.385286 377.564263 
L 501.882984 377.64776 
L 504.867748 377.743163 
L 506.927123 377.845211 
L 510.009846 377.949176 
L 512.539314 378.050835 
L 515.491178 378.146422 
L 518.156615 378.232573 
L 520.725431 378.306264 
L 522.803756 378.364736 
L 525.16956 378.405435 
L 527.485435 378.425932 
L 530.092391 378.423859 
L 533.499208 378.158282 
L 535.695323 378.15102 
L 537.120162 378.148053 
L 538.004382 378.146672 
L 538.468489 378.144318 
L 538.842526 378.138571 
L 539.509622 378.127133 
L 540.413066 378.107811 
L 541.55963 378.07849 
L 543.38889 378.037108 
L 544.988676 377.981626 
L 547.420888 377.909991 
L 550.548975 377.820102 
L 553.447866 377.70977 
L 556.085422 377.576668 
L 559.267547 377.418284 
L 561.899055 377.231859 
L 564.673074 377.006229 
L 567.722664 376.790058 
L 571.046306 376.544642 
L 574.585414 376.271061 
L 576 376.155317 
" style="fill:none;stroke:#000000;stroke-opacity:0.7;stroke-width:1.275591;"/>
    <path clip-path="url(#pcc035c4275)" d="M 864 343.050758 
L 864.019193 343.048323 
L 869.948359 342.336268 
L 875.577312 341.615612 
L 881.177996 340.88756 
L 885.5432 340.153426 
L 890.01202 339.414637 
L 894.462661 338.67274 
L 899.612393 337.929403 
L 904.740693 337.186419 
L 910.813578 336.445706 
L 917.657525 335.709308 
L 924.251726 334.979395 
L 931.360776 334.258259 
L 937.77968 333.548307 
L 941.515369 333.211061 
L 947.856162 332.51992 
L 954.615178 331.855474 
L 960.586577 331.21441 
L 967.006368 330.59309 
L 972.96752 329.987575 
L 978.077513 329.393645 
L 982.8 328.875638 
" style="fill:none;stroke:#000000;stroke-opacity:0.7;stroke-width:1.275591;"/>
    <path clip-path="url(#pcc035c4275)" d="M 982.8 326.594524 
L 977.801957 327.150444 
L 972.694646 327.752748 
L 966.740078 328.367119 
L 960.32073 328.997929 
L 954.341566 329.649264 
L 947.580468 330.324899 
L 941.235001 331.028276 
L 937.494523 331.365523 
L 931.072592 332.088572 
L 923.964341 332.823344 
L 917.369981 333.567354 
L 910.526705 334.318236 
L 904.448519 335.073749 
L 899.31143 335.831781 
L 894.154086 336.590347 
L 889.693 337.347592 
L 885.215456 338.101789 
L 880.84533 338.851336 
L 875.252942 339.594751 
L 869.635894 340.330671 
L 864 341.023423 
" style="fill:none;stroke:#000000;stroke-opacity:0.7;stroke-width:1.275591;"/>
    <path clip-path="url(#pcc035c4275)" d="M 576 374.676762 
L 574.444335 374.806373 
L 570.901987 375.083504 
L 567.576689 375.330415 
L 564.527119 375.545867 
L 561.749555 375.771498 
L 559.119584 375.954835 
L 555.944314 376.107819 
L 553.308971 376.233346 
L 550.415708 376.334051 
L 547.292995 376.412373 
L 544.852062 376.470612 
L 543.238453 376.510973 
L 541.400267 376.535618 
L 540.241129 376.546698 
L 539.329124 376.546397 
L 538.660566 376.536962 
L 538.280801 376.520731 
L 537.813386 376.500167 
L 536.926639 376.477877 
L 535.503603 376.45663 
L 533.310739 376.43937 
L 529.920653 376.704947 
L 527.316412 376.680855 
L 524.998911 376.6311 
L 522.627455 376.558149 
L 520.546772 376.464536 
L 517.97746 376.352948 
L 515.311758 376.226298 
L 512.364055 376.087812 
L 509.834814 375.941104 
L 506.742142 375.790252 
L 504.662889 375.63987 
L 501.661875 375.495162 
L 498.148701 375.36196 
L 492.929857 375.246734 
L 487.940071 375.15656 
L 482.801672 375.099036 
L 477.007003 375.082139 
L 472.61547 375.451365 
L 468.980538 375.491717 
L 464.807268 375.584213 
L 459.719892 375.722915 
L 454.591959 375.901139 
L 448.331713 376.1117 
L 441.568756 376.347135 
L 436.646381 376.599899 
L 432.109357 376.862505 
L 432 376.870073 
" style="fill:none;stroke:#000000;stroke-opacity:0.7;stroke-width:1.275591;"/>
    <path clip-path="url(#pcc035c4275)" d="M 144 375.819254 
L 90.153813 375.641983 
L 25.2 375.609993 
" style="fill:none;stroke:#000000;stroke-opacity:0.7;stroke-width:1.275591;"/>
    <path clip-path="url(#pcc035c4275)" d="M 25.2 370.092927 
L 89.586044 370.297278 
L 144 370.725994 
" style="fill:none;stroke:#000000;stroke-opacity:0.7;stroke-width:1.275591;"/>
    <path clip-path="url(#pcc035c4275)" d="M 432 374.252564 
L 436.341596 374.019097 
L 441.267456 373.785361 
L 448.026853 373.570417 
L 454.28276 373.382671 
L 459.419229 373.23037 
L 464.516227 373.121392 
L 468.703697 373.063006 
L 472.354768 373.061601 
L 476.753929 372.692375 
L 482.546019 372.752619 
L 487.688314 372.856495 
L 492.683904 372.995011 
L 497.912117 373.159657 
L 501.440766 373.342563 
L 504.458029 373.536578 
L 506.55716 373.735294 
L 509.659782 373.933032 
L 512.188796 374.124789 
L 515.132338 374.306174 
L 517.798305 374.473322 
L 520.368114 374.622809 
L 522.451153 374.751562 
L 524.828261 374.856766 
L 527.147389 374.935777 
L 529.748914 374.986035 
L 533.122271 374.720458 
L 535.311883 374.76224 
L 536.733116 374.807702 
L 537.62239 374.853663 
L 538.093113 374.897143 
L 538.478606 374.935352 
L 539.148625 374.965662 
L 540.069192 374.985586 
L 541.240903 374.992746 
L 543.088017 374.984838 
L 544.715447 374.959598 
L 547.165103 374.914756 
L 550.282441 374.848 
L 553.170075 374.756922 
L 555.803205 374.63897 
L 558.97162 374.491386 
L 561.600055 374.311136 
L 564.381163 374.085506 
L 567.430713 373.870772 
L 570.757668 373.622367 
L 574.303255 373.341685 
L 576 373.197785 
" style="fill:none;stroke:#000000;stroke-opacity:0.7;stroke-width:1.275591;"/>
    <path clip-path="url(#pcc035c4275)" d="M 864 338.99452 
L 869.323429 338.325074 
L 874.928572 337.57389 
L 880.512663 336.815111 
L 884.887713 336.050152 
L 889.373981 335.280546 
L 893.845512 334.507953 
L 899.010467 333.734158 
L 904.156344 332.961079 
L 910.239833 332.190766 
L 917.082437 331.4254 
L 923.676956 330.667293 
L 930.784408 329.918885 
L 937.209365 329.182739 
L 940.954632 328.845492 
L 947.304774 328.129878 
L 954.067954 327.443054 
L 960.054883 326.781449 
L 966.473787 326.141148 
L 972.421772 325.51792 
L 977.5264 324.907243 
L 982.8 324.312558 
" style="fill:none;stroke:#000000;stroke-opacity:0.7;stroke-width:1.275591;"/>
    <path clip-path="url(#pcc035c4275)" d="M 982.8 322.029898 
L 982.595923 322.053067 
L 977.250844 322.664042 
L 972.148898 323.283093 
L 966.207497 323.915177 
L 959.789036 324.564969 
L 953.794342 325.236844 
L 947.029079 325.934857 
L 940.674264 326.662708 
L 936.924208 326.999955 
L 930.496224 327.749198 
L 923.389571 328.511241 
L 916.794893 329.283446 
L 909.95296 330.063296 
L 903.864169 330.84841 
L 898.709504 331.636536 
L 893.536937 332.425559 
L 889.054961 333.213501 
L 884.559969 333.998515 
L 880.179997 334.778887 
L 874.604202 335.553029 
L 869.010964 336.319477 
L 864 336.963908 
" style="fill:none;stroke:#000000;stroke-opacity:0.7;stroke-width:1.275591;"/>
    <path clip-path="url(#pcc035c4275)" d="M 576 371.718387 
L 574.162176 371.876997 
L 570.613349 372.16123 
L 567.284738 372.411129 
L 564.235207 372.625144 
L 561.450555 372.850774 
L 558.823657 373.027937 
L 555.662097 373.170122 
L 553.031179 373.280499 
L 550.149174 373.361949 
L 547.03721 373.417138 
L 544.578833 373.448583 
L 542.937581 373.458704 
L 541.081539 373.449874 
L 539.897256 373.424474 
L 538.968127 373.384926 
L 538.296646 373.333742 
L 537.905426 373.273556 
L 537.431393 373.207158 
L 536.539594 373.137526 
L 535.120162 373.06785 
L 532.933803 373.001546 
L 529.577176 373.267123 
L 526.978366 373.1907 
L 524.657612 373.082431 
L 522.274852 372.944975 
L 520.189455 372.781082 
L 517.61915 372.593696 
L 514.952918 372.386049 
L 512.013537 372.161766 
L 509.48475 371.924959 
L 506.372179 371.680336 
L 504.253169 371.433286 
L 501.219657 371.189965 
L 497.675532 370.957354 
L 492.437951 370.743287 
L 487.436556 370.556431 
L 482.290366 370.406202 
L 476.500855 370.302611 
L 472.094065 370.671837 
L 468.426856 370.634294 
L 464.225186 370.658572 
L 459.118567 370.737825 
L 453.973561 370.864203 
L 447.721994 371.029134 
L 440.966156 371.223587 
L 436.036811 371.438294 
L 432 371.638815 
" style="fill:none;stroke:#000000;stroke-opacity:0.7;stroke-width:1.275591;"/>
    <path clip-path="url(#pcc035c4275)" d="M 144 365.638808 
L 89.018275 364.952572 
L 25.2 364.578301 
" style="fill:none;stroke:#000000;stroke-opacity:0.7;stroke-width:1.275591;"/>
    <path clip-path="url(#pcc035c4275)" d="M 25.2 359.06613 
L 88.450506 359.607867 
L 143.834249 360.554894 
L 144 360.558466 
" style="fill:none;stroke:#000000;stroke-opacity:0.7;stroke-width:1.275591;"/>
    <path clip-path="url(#pcc035c4275)" d="M 432 369.027584 
L 435.732027 368.857492 
L 440.664855 368.661813 
L 447.417134 368.487851 
L 453.664362 368.345735 
L 458.817905 368.24528 
L 463.934145 368.195751 
L 468.150014 368.205582 
L 471.833363 368.282072 
L 476.247781 367.912846 
L 482.034713 368.059785 
L 487.184798 368.256367 
L 492.191998 368.491564 
L 497.438948 368.755051 
L 500.998548 369.037366 
L 504.048309 369.329994 
L 506.187198 369.625378 
L 509.309718 369.916887 
L 511.838278 370.198742 
L 514.773498 370.465925 
L 517.439995 370.71407 
L 520.010796 370.939355 
L 522.098551 371.138388 
L 524.486962 371.308097 
L 526.809343 371.445622 
L 529.405437 371.548212 
L 532.745335 371.282634 
L 534.928442 371.37346 
L 536.346071 371.46735 
L 537.240397 371.560653 
L 537.717738 371.649968 
L 538.114685 371.732133 
L 538.787628 371.804191 
L 539.725319 371.863361 
L 540.922175 371.907002 
L 542.787144 371.932569 
L 544.442219 371.937569 
L 546.909318 371.919521 
L 550.015907 371.875897 
L 552.892284 371.804075 
L 555.520989 371.701273 
L 558.675693 371.564487 
L 561.301055 371.390413 
L 564.089252 371.164782 
L 567.138763 370.951487 
L 570.46903 370.700093 
L 574.021096 370.412309 
L 576 370.238566 
" style="fill:none;stroke:#000000;stroke-opacity:0.7;stroke-width:1.275591;"/>
    <path clip-path="url(#pcc035c4275)" d="M 864 334.931575 
L 868.698499 334.31388 
L 874.279831 333.532167 
L 879.847331 332.742662 
L 884.232226 331.946878 
L 888.735941 331.146456 
L 893.228363 330.343166 
L 898.408541 329.538913 
L 903.571994 328.73574 
L 909.666087 327.935826 
L 916.507349 327.141491 
L 923.102186 326.35519 
L 930.20804 325.579511 
L 936.63905 324.817171 
L 940.393895 324.479924 
L 946.753385 323.739836 
L 953.52073 323.030634 
L 959.52319 322.348488 
L 965.941206 321.689206 
L 971.876025 321.048266 
L 976.975288 320.420841 
L 982.318763 319.801816 
L 982.8 319.746392 
" style="fill:none;stroke:#000000;stroke-opacity:0.7;stroke-width:1.275591;"/>
    <path clip-path="url(#pcc035c4275)" d="M 982.8 317.46197 
L 982.041602 317.550566 
L 976.699731 318.17764 
L 971.603151 318.813439 
L 965.674916 319.463235 
L 959.257343 320.132008 
L 953.247118 320.824424 
L 946.477691 321.544814 
L 940.113527 322.29714 
L 936.353893 322.634387 
L 929.919857 323.409824 
L 922.814801 324.199139 
L 916.219805 324.999537 
L 909.379214 325.808356 
L 903.27982 326.62307 
L 898.107578 327.44129 
L 892.919788 328.260772 
L 888.416922 329.079411 
L 883.904482 329.895242 
L 879.514664 330.706438 
L 873.955461 331.511306 
L 868.386034 332.308284 
L 864 332.897511 
" style="fill:none;stroke:#000000;stroke-opacity:0.7;stroke-width:1.275591;"/>
    <path clip-path="url(#pcc035c4275)" d="M 576 368.758323 
L 573.880017 368.947621 
L 570.324712 369.238956 
L 566.992788 369.491844 
L 563.943296 369.704421 
L 561.151555 369.930051 
L 558.52773 370.101038 
L 555.37988 370.232424 
L 552.753388 370.327651 
L 549.88264 370.389846 
L 546.781425 370.421904 
L 544.305604 370.426555 
L 542.636708 370.406434 
L 540.762811 370.364131 
L 539.553382 370.302249 
L 538.60713 370.223455 
L 537.932725 370.130523 
L 537.53005 370.026381 
L 537.0494 369.914148 
L 536.152549 369.797175 
L 534.736722 369.679069 
L 532.556867 369.563722 
L 529.233699 369.8293 
L 526.64032 369.700545 
L 524.316313 369.533762 
L 521.92225 369.331801 
L 519.832137 369.097627 
L 517.26084 368.834444 
L 514.594078 368.545801 
L 511.663019 368.235719 
L 509.134685 367.908815 
L 506.002217 367.57042 
L 503.843449 367.226702 
L 500.777439 366.884768 
L 497.202363 366.552748 
L 491.946044 366.239841 
L 486.933041 365.956302 
L 481.77906 365.713368 
L 475.994707 365.523082 
L 471.57266 365.892308 
L 467.873173 365.776871 
L 463.643104 365.732931 
L 458.517242 365.752735 
L 453.355163 365.827267 
L 447.112275 365.946568 
L 440.363555 366.100039 
L 435.427242 366.276689 
L 432 366.418866 
" style="fill:none;stroke:#000000;stroke-opacity:0.7;stroke-width:1.275591;"/>
    <path clip-path="url(#pcc035c4275)" d="M 144 355.487037 
L 143.17122 355.464772 
L 87.882737 354.263161 
L 25.2 353.556426 
" style="fill:none;stroke:#000000;stroke-opacity:0.7;stroke-width:1.275591;"/>
    <path clip-path="url(#pcc035c4275)" d="M 25.2 348.049203 
L 87.314968 348.918455 
L 142.508191 350.374651 
L 144 350.422665 
" style="fill:none;stroke:#000000;stroke-opacity:0.7;stroke-width:1.275591;"/>
    <path clip-path="url(#pcc035c4275)" d="M 432 363.812657 
L 435.122457 363.695887 
L 440.062255 363.538264 
L 446.807415 363.405286 
L 453.045965 363.308799 
L 458.21658 363.26019 
L 463.352063 363.27011 
L 467.596332 363.348159 
L 471.311958 363.502543 
L 475.741633 363.133317 
L 481.523408 363.366951 
L 486.681283 363.656238 
L 491.700091 363.988118 
L 496.965779 364.350446 
L 500.55633 364.732169 
L 503.638589 365.123409 
L 505.817236 365.515462 
L 508.959653 365.900742 
L 511.48776 366.272696 
L 514.414658 366.625676 
L 517.081685 366.954818 
L 519.653478 367.2559 
L 521.745948 367.525213 
L 524.145663 367.759428 
L 526.471298 367.955468 
L 529.06196 368.110388 
L 532.368398 367.844811 
L 534.545002 367.984679 
L 535.959026 368.126999 
L 536.858404 368.267643 
L 537.342362 368.402793 
L 537.750765 368.528913 
L 538.426632 368.642719 
L 539.381446 368.741137 
L 540.603448 368.821259 
L 542.486271 368.880299 
L 544.16899 368.915541 
L 546.653532 368.924286 
L 549.749373 368.903795 
L 552.614492 368.851227 
L 555.238772 368.763575 
L 558.379767 368.637589 
L 561.002055 368.46969 
L 563.79734 368.244059 
L 566.846813 368.032201 
L 570.180393 367.777819 
L 573.738937 367.482933 
L 576 367.277659 
" style="fill:none;stroke:#000000;stroke-opacity:0.7;stroke-width:1.275591;"/>
    <path clip-path="url(#pcc035c4275)" d="M 864 330.861702 
L 868.073569 330.302687 
L 873.631091 329.490445 
L 879.181998 328.670213 
L 883.576738 327.843605 
L 888.097902 327.012366 
L 892.611214 326.178379 
L 897.806615 325.343668 
L 902.987645 324.5104 
L 909.092341 323.680886 
L 915.932261 322.857583 
L 922.527416 322.043087 
L 929.631673 321.240137 
L 936.068735 320.451602 
L 939.833158 320.114355 
L 946.201997 319.349793 
L 952.973507 318.618215 
L 958.991496 317.915527 
L 965.408625 317.237264 
L 971.330277 316.578611 
L 976.424175 315.934438 
L 981.764441 315.299316 
L 982.8 315.17663 
" style="fill:none;stroke:#000000;stroke-opacity:0.7;stroke-width:1.275591;"/>
    <path clip-path="url(#pcc035c4275)" d="M 982.8 312.890366 
L 981.487281 313.048065 
L 976.148619 313.691237 
L 971.057403 314.343784 
L 965.142335 315.011293 
L 958.725649 315.699047 
L 952.699895 316.412005 
L 945.926303 317.154772 
L 939.55279 317.931571 
L 935.783578 318.268818 
L 929.343489 319.070451 
L 922.240031 319.887036 
L 915.644717 320.715628 
L 908.805468 321.553416 
L 902.69547 322.39773 
L 897.505652 323.246045 
L 892.302639 324.095985 
L 887.778883 324.94532 
L 883.248995 325.791968 
L 878.849331 326.633989 
L 873.306721 327.469584 
L 867.761104 328.29709 
L 864 328.824138 
" style="fill:none;stroke:#000000;stroke-opacity:0.7;stroke-width:1.275591;"/>
    <path clip-path="url(#pcc035c4275)" d="M 576 365.796571 
L 573.597858 366.018245 
L 570.036074 366.316682 
L 566.700838 366.572558 
L 563.651385 366.783698 
L 560.852555 367.009328 
L 558.231803 367.174139 
L 555.097664 367.294727 
L 552.475597 367.374804 
L 549.616106 367.417744 
L 546.52564 367.426669 
L 544.032375 367.404527 
L 542.335835 367.354164 
L 540.444084 367.278387 
L 539.209509 367.180024 
L 538.246133 367.061984 
L 537.568804 366.927304 
L 537.154674 366.779205 
L 536.667407 366.621138 
L 535.765504 366.456824 
L 534.353281 366.290289 
L 532.17993 366.125899 
L 528.890221 366.391476 
L 526.302275 366.21039 
L 523.975013 365.985093 
L 521.569647 365.718626 
L 519.474819 365.414173 
L 516.90253 365.075192 
L 514.235238 364.705552 
L 511.3125 364.309673 
L 508.784621 363.89267 
L 505.632255 363.460503 
L 503.433729 363.020117 
L 500.335221 362.579571 
L 496.729195 362.148143 
L 491.454138 361.736394 
L 486.429525 361.356173 
L 481.267755 361.020534 
L 475.488559 360.743553 
L 471.051256 361.112779 
L 467.319491 360.919447 
L 463.061022 360.80729 
L 457.915918 360.767645 
L 452.736766 360.790331 
L 446.502556 360.864003 
L 439.760954 360.97649 
L 434.817672 361.115084 
L 432 361.208952 
" style="fill:none;stroke:#000000;stroke-opacity:0.7;stroke-width:1.275591;"/>
    <path clip-path="url(#pcc035c4275)" d="M 144 345.365373 
L 141.845162 345.28453 
L 86.747199 343.57375 
L 25.2 342.544473 
" style="fill:none;stroke:#000000;stroke-opacity:0.7;stroke-width:1.275591;"/>
    <path clip-path="url(#pcc035c4275)" d="M 25.2 337.04225 
L 86.17943 338.229044 
L 141.182133 340.194409 
L 144 340.315184 
" style="fill:none;stroke:#000000;stroke-opacity:0.7;stroke-width:1.275591;"/>
    <path clip-path="url(#pcc035c4275)" d="M 432 358.607748 
L 434.512887 358.534281 
L 439.459654 358.414716 
L 446.197696 358.32272 
L 452.427567 358.271863 
L 457.615255 358.2751 
L 462.769981 358.344469 
L 467.04265 358.490736 
L 470.790553 358.723014 
L 475.235485 358.353788 
L 481.012102 358.674117 
L 486.177768 359.056109 
L 491.208185 359.484671 
L 496.49261 359.94584 
L 500.114112 360.426972 
L 503.228869 360.916825 
L 505.447274 361.405545 
L 508.609589 361.884598 
L 511.137241 362.34665 
L 514.055818 362.785428 
L 516.723374 363.195566 
L 519.29616 363.572446 
L 521.393346 363.912039 
L 523.804364 364.210759 
L 526.133252 364.465313 
L 528.718483 364.672564 
L 531.991462 364.406987 
L 534.161561 364.595899 
L 535.571981 364.786648 
L 536.476411 364.974634 
L 536.966987 365.155618 
L 537.386844 365.325694 
L 538.065635 365.481248 
L 539.037572 365.618912 
L 540.28472 365.735515 
L 542.185398 365.828029 
L 543.895761 365.893513 
L 546.397747 365.929051 
L 549.482838 365.931693 
L 552.336701 365.89838 
L 554.956556 365.825878 
L 558.08384 365.71069 
L 560.703055 365.548966 
L 563.505429 365.323336 
L 566.554862 365.112915 
L 569.891755 364.855544 
L 573.456778 364.553556 
L 576 364.315062 
" style="fill:none;stroke:#000000;stroke-opacity:0.7;stroke-width:1.275591;"/>
    <path clip-path="url(#pcc035c4275)" d="M 864 326.784806 
L 867.448639 326.291493 
L 872.982351 325.448723 
L 878.516665 324.597764 
L 882.921251 323.740331 
L 887.459863 322.878275 
L 891.994065 322.013592 
L 897.204689 321.148423 
L 902.403296 320.28506 
L 908.518595 319.425946 
L 915.357173 318.573674 
L 921.952646 317.730985 
L 929.055305 316.900764 
L 935.49842 316.086034 
L 939.272422 315.748787 
L 945.650609 314.959751 
L 952.426283 314.205795 
L 958.459802 313.482566 
L 964.876044 312.785322 
L 970.78453 312.108957 
L 975.873062 311.448036 
L 981.21012 310.796815 
L 982.8 310.603176 
" style="fill:none;stroke:#000000;stroke-opacity:0.7;stroke-width:1.275591;"/>
    <path clip-path="url(#pcc035c4275)" d="M 982.8 308.315054 
L 980.93296 308.545564 
L 975.597506 309.204835 
L 970.511656 309.874129 
L 964.609754 310.55935 
L 958.193956 311.266086 
L 952.152671 311.999585 
L 945.374915 312.76473 
L 938.992053 313.566003 
L 935.213263 313.90325 
L 928.767121 314.731077 
L 921.665261 315.574934 
L 915.069629 316.43172 
L 908.231722 317.298476 
L 902.111121 318.17239 
L 896.903726 319.0508 
L 891.68549 319.931198 
L 887.140844 320.81123 
L 882.593508 321.688694 
L 878.183999 322.56154 
L 872.657981 323.427861 
L 867.136174 324.285896 
L 864 324.743695 
" style="fill:none;stroke:#000000;stroke-opacity:0.7;stroke-width:1.275591;"/>
    <path clip-path="url(#pcc035c4275)" d="M 576 362.83313 
L 573.315699 363.088868 
L 569.747436 363.394407 
L 566.408887 363.653273 
L 563.359473 363.862975 
L 560.553555 364.088605 
L 557.935877 364.247241 
L 554.815447 364.357029 
L 552.197805 364.421956 
L 549.349571 364.445641 
L 546.269855 364.431434 
L 543.759147 364.382499 
L 542.034962 364.301894 
L 540.125356 364.192643 
L 538.865635 364.0578 
L 537.885136 363.900513 
L 537.204884 363.724085 
L 536.779299 363.53203 
L 536.285414 363.328129 
L 535.378459 363.116472 
L 533.969841 362.901509 
L 531.802994 362.688075 
L 528.546744 362.953652 
L 525.964229 362.720235 
L 523.633714 362.436424 
L 521.217045 362.105452 
L 519.117501 361.730719 
L 516.544219 361.31594 
L 513.876397 360.865304 
L 510.961982 360.383626 
L 508.434557 359.876526 
L 505.262293 359.350587 
L 503.024009 358.813533 
L 499.893003 358.274374 
L 496.256026 357.743537 
L 490.962232 357.232948 
L 485.92601 356.756045 
L 480.756449 356.3277 
L 474.982411 355.964024 
L 470.529851 356.33325 
L 466.765809 356.062024 
L 462.47894 355.881649 
L 457.314593 355.782555 
L 452.118368 355.753395 
L 445.892837 355.781437 
L 439.158354 355.852942 
L 434.208102 355.953479 
L 432 356.00904 
" style="fill:none;stroke:#000000;stroke-opacity:0.7;stroke-width:1.275591;"/>
    <path clip-path="url(#pcc035c4275)" d="M 144 335.27212 
L 140.519104 335.104287 
L 85.611661 332.884339 
L 25.2 331.542547 
" style="fill:none;stroke:#000000;stroke-opacity:0.7;stroke-width:1.275591;"/>
    <path clip-path="url(#pcc035c4275)" d="M 25.2 326.045378 
L 85.043892 327.539633 
L 139.856075 330.014166 
L 144 330.236205 
" style="fill:none;stroke:#000000;stroke-opacity:0.7;stroke-width:1.275591;"/>
    <path clip-path="url(#pcc035c4275)" d="M 432 353.412824 
L 433.903317 353.372676 
L 438.857053 353.291168 
L 445.587977 353.240154 
L 451.809169 353.234927 
L 457.013931 353.29001 
L 462.187899 353.418828 
L 466.488967 353.633312 
L 470.269148 353.943485 
L 474.729337 353.574259 
L 480.500796 353.981283 
L 485.674252 354.45598 
L 490.716279 354.981225 
L 496.019441 355.541234 
L 499.671894 356.121775 
L 502.819149 356.710241 
L 505.077312 357.295629 
L 508.259525 357.868453 
L 510.786723 358.420603 
L 513.696977 358.945179 
L 516.365064 359.436314 
L 518.938842 359.888991 
L 521.040743 360.298865 
L 523.463065 360.66209 
L 525.795206 360.975158 
L 528.375006 361.23474 
L 531.614526 360.969163 
L 533.778121 361.207119 
L 535.184936 361.446297 
L 536.094418 361.681624 
L 536.591611 361.908443 
L 537.022924 362.122475 
L 537.704638 362.319777 
L 538.693699 362.496688 
L 539.965992 362.649771 
L 541.884526 362.775759 
L 543.622532 362.871485 
L 546.141962 362.933816 
L 549.216304 362.95959 
L 552.05891 362.945533 
L 554.674339 362.88818 
L 557.787913 362.783792 
L 560.404055 362.628243 
L 563.213518 362.402613 
L 566.262912 362.19363 
L 569.603117 361.93327 
L 573.174619 361.62418 
L 576 361.350775 
" style="fill:none;stroke:#000000;stroke-opacity:0.7;stroke-width:1.275591;"/>
    <path clip-path="url(#pcc035c4275)" d="M 864 322.700791 
L 866.823709 322.280299 
L 872.333611 321.407 
L 877.851332 320.525315 
L 882.265764 319.637057 
L 886.821824 318.744185 
L 891.376915 317.848805 
L 896.602763 316.953178 
L 901.818946 316.05972 
L 907.944849 315.171006 
L 914.782085 314.289766 
L 921.377876 313.418882 
L 928.478937 312.56139 
L 934.928106 311.720466 
L 938.711685 311.383219 
L 945.099221 310.569709 
L 951.879059 309.793375 
L 957.928109 309.049605 
L 964.343463 308.333379 
L 970.238782 307.639302 
L 975.321949 306.961634 
L 980.655799 306.294314 
L 982.8 306.025996 
" style="fill:none;stroke:#000000;stroke-opacity:0.7;stroke-width:1.275591;"/>
    <path clip-path="url(#pcc035c4275)" d="M 982.8 303.735999 
L 980.378639 304.043064 
L 975.046393 304.718433 
L 969.965908 305.404475 
L 964.077173 306.107408 
L 957.662262 306.833125 
L 951.605447 307.587165 
L 944.823527 308.374687 
L 938.431316 309.200434 
L 934.642948 309.537681 
L 928.190754 310.391703 
L 921.090491 311.262831 
L 914.494541 312.147811 
L 907.657976 313.043536 
L 901.526771 313.94705 
L 896.3018 314.855555 
L 891.068341 315.766411 
L 886.502804 316.677139 
L 881.93802 317.585421 
L 877.518666 318.489091 
L 872.009241 319.386139 
L 866.511244 320.274702 
L 864 320.656084 
" style="fill:none;stroke:#000000;stroke-opacity:0.7;stroke-width:1.275591;"/>
    <path clip-path="url(#pcc035c4275)" d="M 576 359.867998 
L 573.03354 360.159492 
L 569.458799 360.472133 
L 566.116937 360.733987 
L 563.067562 360.942251 
L 560.254555 361.167882 
L 557.63995 361.320342 
L 554.533231 361.419332 
L 551.920014 361.469109 
L 549.083037 361.473539 
L 546.01407 361.436199 
L 543.485918 361.360471 
L 541.734089 361.249625 
L 539.806629 361.1069 
L 538.521762 360.935575 
L 537.52414 360.739041 
L 536.840963 360.520865 
L 536.403923 360.284855 
L 535.903421 360.035119 
L 534.991413 359.776121 
L 533.5864 359.512728 
L 531.426057 359.250251 
L 528.203267 359.515828 
L 525.626183 359.23008 
L 523.292415 358.887755 
L 520.864442 358.492278 
L 518.760184 358.047264 
L 516.185909 357.556689 
L 513.517557 357.025055 
L 510.611464 356.45758 
L 508.084493 355.860381 
L 504.89233 355.240671 
L 502.61429 354.606948 
L 499.450785 353.969177 
L 495.782857 353.338931 
L 490.470326 352.729501 
L 485.422495 352.155916 
L 480.245144 351.634866 
L 474.476263 351.184495 
L 470.008446 351.553721 
L 466.212126 351.204601 
L 461.896858 350.956008 
L 456.713269 350.797465 
L 451.49997 350.716459 
L 445.283117 350.698871 
L 438.555753 350.729394 
L 433.598532 350.791874 
L 432 350.819096 
" style="fill:none;stroke:#000000;stroke-opacity:0.7;stroke-width:1.275591;"/>
    <path clip-path="url(#pcc035c4275)" d="M 144 325.207461 
L 139.193045 324.924045 
L 84.476123 322.194928 
L 25.2 320.550757 
" style="fill:none;stroke:#000000;stroke-opacity:0.7;stroke-width:1.275591;"/>
    <path clip-path="url(#pcc035c4275)" d="M 25.2 315.058696 
L 83.908354 316.850222 
L 138.530016 319.833924 
L 144 320.185912 
" style="fill:none;stroke:#000000;stroke-opacity:0.7;stroke-width:1.275591;"/>
    <path clip-path="url(#pcc035c4275)" d="M 432 348.227851 
L 433.293748 348.211071 
L 438.254453 348.16762 
L 444.978258 348.157589 
L 451.190771 348.197991 
L 456.412606 348.30492 
L 461.605817 348.493187 
L 465.935285 348.775889 
L 469.747743 349.163957 
L 474.223189 348.794731 
L 479.989491 349.288449 
L 485.170737 349.855852 
L 490.224373 350.477778 
L 495.546273 351.136628 
L 499.229676 351.816578 
L 502.40943 352.503656 
L 504.707349 353.185713 
L 507.909461 353.852309 
L 510.436205 354.494557 
L 513.338137 355.104931 
L 516.006754 355.677063 
L 518.581525 356.205537 
L 520.688141 356.685691 
L 523.121766 357.113421 
L 525.45716 357.485003 
L 528.031529 357.796916 
L 531.237589 357.531339 
L 533.39468 357.818338 
L 534.797891 358.105945 
L 535.712425 358.388614 
L 536.216235 358.661268 
L 536.659003 358.919256 
L 537.343641 359.158306 
L 538.349825 359.374463 
L 539.647265 359.564028 
L 541.583653 359.72349 
L 543.349304 359.849456 
L 545.886177 359.938582 
L 548.94977 359.987488 
L 551.781119 359.992685 
L 554.392122 359.950483 
L 557.491986 359.856893 
L 560.105055 359.70752 
L 562.921606 359.48189 
L 565.970962 359.274344 
L 569.31448 359.010996 
L 572.89246 358.694804 
L 576 358.384798 
" style="fill:none;stroke:#000000;stroke-opacity:0.7;stroke-width:1.275591;"/>
    <path clip-path="url(#pcc035c4275)" d="M 864 318.609559 
L 866.198779 318.269105 
L 871.684871 317.365278 
L 877.185999 316.452866 
L 881.610277 315.533784 
L 886.183785 314.610094 
L 890.759766 313.684017 
L 896.000837 312.757932 
L 901.234597 311.83438 
L 907.371103 310.916066 
L 914.206997 310.005857 
L 920.803106 309.10678 
L 927.90257 308.222016 
L 934.357791 307.354897 
L 938.150948 307.01765 
L 944.547833 306.179666 
L 951.331835 305.380955 
L 957.396415 304.616644 
L 963.810882 303.881437 
L 969.693035 303.169648 
L 974.770837 302.475232 
L 980.101478 301.791813 
L 982.8 301.445058 
" style="fill:none;stroke:#000000;stroke-opacity:0.7;stroke-width:1.275591;"/>
    <path clip-path="url(#pcc035c4275)" d="M 982.8 299.153168 
L 979.824318 299.540563 
L 974.49528 300.23203 
L 969.420161 300.93482 
L 963.544592 301.655466 
L 957.130568 302.400164 
L 951.058223 303.174745 
L 944.272138 303.984645 
L 937.870579 304.834866 
L 934.072633 305.172113 
L 927.614386 306.052329 
L 920.515722 306.950728 
L 913.919452 307.863903 
L 907.08423 308.788596 
L 900.942422 309.721711 
L 895.699874 310.66031 
L 890.451192 311.601624 
L 885.864765 312.543049 
L 881.282533 313.482147 
L 876.853333 314.416642 
L 871.360501 315.344417 
L 865.886313 316.263508 
L 864 316.561206 
" style="fill:none;stroke:#000000;stroke-opacity:0.7;stroke-width:1.275591;"/>
    <path clip-path="url(#pcc035c4275)" d="M 576 356.901175 
L 572.751381 357.230116 
L 569.170161 357.549859 
L 565.824987 357.814701 
L 562.775651 358.021528 
L 559.955555 358.247159 
L 557.344023 358.393444 
L 554.251014 358.481634 
L 551.642223 358.516261 
L 548.816503 358.501437 
L 545.758284 358.440964 
L 543.212689 358.338442 
L 541.433216 358.197355 
L 539.487901 358.021156 
L 538.177889 357.813351 
L 537.163143 357.57757 
L 536.477043 357.317646 
L 536.028547 357.03768 
L 535.521428 356.74211 
L 534.604368 356.43577 
L 533.20296 356.123948 
L 531.049121 355.812427 
L 527.85979 356.078005 
L 525.288137 355.739926 
L 522.951116 355.339086 
L 520.511839 354.879104 
L 518.402866 354.36381 
L 515.827599 353.797437 
L 513.158717 353.184807 
L 510.260946 352.531534 
L 507.734429 351.844236 
L 504.522368 351.130754 
L 502.20457 350.400364 
L 499.008568 349.663979 
L 495.309688 348.934325 
L 489.97842 348.226055 
L 484.918979 347.555787 
L 479.733838 346.942032 
L 473.970115 346.404966 
L 469.487041 346.774192 
L 465.658444 346.347178 
L 461.314776 346.030367 
L 456.111944 345.812376 
L 450.881573 345.679523 
L 444.673398 345.616306 
L 437.953152 345.605846 
L 432.988963 345.630269 
L 432 345.639085 
" style="fill:none;stroke:#000000;stroke-opacity:0.7;stroke-width:1.275591;"/>
    <path clip-path="url(#pcc035c4275)" d="M 144 315.171581 
L 137.866987 314.743803 
L 83.340585 311.505517 
L 25.2 309.569211 
" style="fill:none;stroke:#000000;stroke-opacity:0.7;stroke-width:1.275591;"/>
   </g>
  </g>
 </g>
 <defs>
  <clipPath id="pcc035c4275">
   <rect height="752.4" width="957.6" x="25.2" y="19.8"/>
  </clipPath>
 </defs>
</svg>
