<?xml version="1.0" encoding="utf-8" ?>
<svg baseProfile="full" height="7in" version="1.1" width="5in" xmlns="http://www.w3.org/2000/svg" xmlns:ev="http://www.w3.org/2001/xml-events" xmlns:xlink="http://www.w3.org/1999/xlink"><defs /><polygon fill="none" points="306.0,54.0 306.0,68.39999999999999 54.0,68.39999999999999 54.0,54.0 306.0,54.0" stroke="rgb(255, 0, 0)" stroke-width="1pt" /><polygon fill="none" points="306.0,81.25714285714285 306.0,95.65714285714286 54.0,95.65714285714286 54.0,81.25714285714285 306.0,81.25714285714285" stroke="rgb(255, 0, 0)" stroke-width="1pt" /><polygon fill="none" points="306.0,108.5142857142857 306.0,122.91428571428571 54.0,122.91428571428571 54.0,108.5142857142857 306.0,108.5142857142857" stroke="rgb(255, 0, 0)" stroke-width="1pt" /><polygon fill="none" points="306.0,135.77142857142857 306.0,150.17142857142858 54.0,150.17142857142858 54.0,135.77142857142857 306.0,135.77142857142857" stroke="rgb(255, 0, 0)" stroke-width="1pt" /><polygon fill="none" points="306.0,163.0285714285714 306.0,177.42857142857144 54.0,177.42857142857144 54.0,163.0285714285714 306.0,163.0285714285714" stroke="rgb(255, 0, 0)" stroke-width="1pt" /><polygon fill="none" points="306.0,190.28571428571425 306.0,204.68571428571425 54.0,204.68571428571425 54.0,190.28571428571425 306.0,190.28571428571425" stroke="rgb(255, 0, 0)" stroke-width="1pt" /><polygon fill="none" points="306.0,217.54285714285714 306.0,231.94285714285715 54.0,231.94285714285715 54.0,217.54285714285714 306.0,217.54285714285714" stroke="rgb(255, 0, 0)" stroke-width="1pt" /><polygon fill="none" points="306.0,244.79999999999998 306.0,259.2 54.0,259.2 54.0,244.79999999999998 306.0,244.79999999999998" stroke="rgb(255, 0, 0)" stroke-width="1pt" /><polygon fill="none" points="306.0,272.0571428571428 306.0,286.45714285714286 54.0,286.45714285714286 54.0,272.0571428571428 306.0,272.0571428571428" stroke="rgb(255, 0, 0)" stroke-width="1pt" /><polygon fill="none" points="306.0,299.3142857142857 306.0,313.71428571428567 54.0,313.71428571428567 54.0,299.3142857142857 306.0,299.3142857142857" stroke="rgb(255, 0, 0)" stroke-width="1pt" /><polygon fill="none" points="306.0,326.5714285714285 306.0,340.97142857142853 54.0,340.97142857142853 54.0,326.5714285714285 306.0,326.5714285714285" stroke="rgb(255, 0, 0)" stroke-width="1pt" /><polygon fill="none" points="306.0,353.82857142857137 306.0,368.2285714285714 54.0,368.2285714285714 54.0,353.82857142857137 306.0,353.82857142857137" stroke="rgb(255, 0, 0)" stroke-width="1pt" /><polygon fill="none" points="306.0,381.0857142857143 306.0,395.48571428571427 54.0,395.48571428571427 54.0,381.0857142857143 306.0,381.0857142857143" stroke="rgb(255, 0, 0)" stroke-width="1pt" /><polygon fill="none" points="306.0,408.3428571428571 306.0,422.74285714285713 54.0,422.74285714285713 54.0,408.3428571428571 306.0,408.3428571428571" stroke="rgb(255, 0, 0)" stroke-width="1pt" /><polygon fill="none" points="306.0,435.59999999999997 306.0,450.0 54.0,450.0 54.0,435.59999999999997 306.0,435.59999999999997" stroke="rgb(255, 0, 0)" stroke-width="1pt" /></svg>