<?xml version="1.0" encoding="utf-8" standalone="no"?>
<!DOCTYPE svg PUBLIC "-//W3C//DTD SVG 1.1//EN"
  "http://www.w3.org/Graphics/SVG/1.1/DTD/svg11.dtd">
<!-- Created with matplotlib (https://matplotlib.org/) -->
<svg height="792pt" version="1.1" viewBox="0 0 1008 792" width="1008pt" xmlns="http://www.w3.org/2000/svg" xmlns:xlink="http://www.w3.org/1999/xlink">
 <defs>
  <style type="text/css">
*{stroke-linecap:butt;stroke-linejoin:round;}
  </style>
 </defs>
 <g id="figure_1">
  <g id="axes_1">
   <g id="LineCollection_1">
    <path clip-path="url(#p88c0fbadd8)" d="M 982.8 229.960197 
L 981.641132 230.152933 
L 976.547749 231.079429 
L 971.509501 232.003051 
L 966.22859 232.935996 
L 961.233949 233.890002 
L 955.555876 234.876335 
L 949.155164 235.90575 
L 942.849864 236.988447 
L 936.001316 238.134011 
L 929.459526 239.351341 
L 925.517909 239.688587 
L 918.968872 240.961724 
L 911.894173 242.269189 
L 905.293131 243.605274 
L 898.478043 244.964497 
L 892.17718 246.341613 
L 886.670983 247.731632 
L 881.193957 249.129817 
L 876.294178 250.531692 
L 871.450225 251.933042 
L 866.873341 253.329907 
L 864 254.09081 
" style="fill:none;stroke:#000000;stroke-opacity:0.7;stroke-width:1.275591;"/>
    <path clip-path="url(#p88c0fbadd8)" d="M 576 311.906552 
L 575.106314 312.114777 
L 572.182686 312.75365 
L 568.518995 313.289474 
L 564.840596 313.715745 
L 561.445732 314.025417 
L 558.39698 314.210681 
L 555.470555 314.436311 
L 552.905122 314.489965 
L 550.017765 314.416172 
L 547.475354 314.22355 
L 544.818491 313.919901 
L 541.921508 313.512441 
L 539.114258 313.008019 
L 536.920124 312.413309 
L 534.706987 311.735001 
L 533.019787 310.979981 
L 531.748191 310.155502 
L 531.018235 309.269358 
L 530.397913 308.330053 
L 529.791534 307.346965 
L 528.798692 306.330501 
L 527.451352 305.292243 
L 525.395074 304.245071 
L 522.707633 304.510648 
L 520.217451 303.387603 
L 517.831631 302.109052 
L 515.222801 300.68149 
L 513.043099 299.111993 
L 510.452948 297.40866 
L 507.776114 295.581078 
L 505.003173 293.640838 
L 502.483465 291.602068 
L 498.972935 289.48201 
L 496.058773 287.301598 
L 492.375299 285.086023 
L 488.212156 282.865239 
L 482.599828 280.674357 
L 477.366249 278.553856 
L 472.064254 276.549523 
L 466.377896 274.712033 
L 461.665967 275.081259 
L 457.353209 273.485828 
L 452.583545 272.145753 
L 447.092075 271.036028 
L 441.605607 270.125482 
L 435.527612 269.377821 
L 432 269.044341 
" style="fill:none;stroke:#000000;stroke-opacity:0.7;stroke-width:1.275591;"/>
    <path clip-path="url(#p88c0fbadd8)" d="M 249.578869 198 
L 240.867008 194.801198 
L 206.959428 184.219185 
L 164.989172 173.199205 
L 117.976115 162.040166 
L 66.307514 151.16435 
L 25.2 146.154659 
" style="fill:none;stroke:#000000;stroke-opacity:0.7;stroke-width:1.275591;"/>
    <path clip-path="url(#p88c0fbadd8)" d="M 25.2 140.752415 
L 65.739745 145.819644 
L 117.313086 156.950045 
L 164.273918 168.368103 
L 206.219457 179.642368 
L 240.14362 190.46754 
L 260.238051 198 
" style="fill:none;stroke:#000000;stroke-opacity:0.7;stroke-width:1.275591;"/>
    <path clip-path="url(#p88c0fbadd8)" d="M 432 266.521723 
L 435.222752 266.836538 
L 441.296408 267.607014 
L 446.791413 268.543483 
L 452.292504 269.682932 
L 457.076368 271.057116 
L 461.405264 272.691494 
L 466.124822 272.322268 
L 471.808601 274.203107 
L 477.114492 276.253792 
L 482.353875 278.422634 
L 487.975571 280.662936 
L 492.15419 282.933425 
L 495.853913 285.198306 
L 498.787954 287.427052 
L 502.308433 289.593995 
L 504.827914 291.677814 
L 507.596694 293.660954 
L 510.273792 295.529034 
L 512.864441 297.270266 
L 515.0465 298.874903 
L 517.660982 300.334718 
L 520.048428 301.642525 
L 522.535895 302.791736 
L 525.206606 302.526159 
L 527.259632 303.597853 
L 528.605169 304.660325 
L 529.600538 305.70046 
L 530.210225 306.706466 
L 530.836274 307.667748 
L 531.567692 308.574767 
L 532.847851 309.418869 
L 534.547623 310.19213 
L 536.769687 310.887174 
L 538.977644 311.497005 
L 541.793615 312.014824 
L 544.685224 312.43385 
L 547.336458 312.747127 
L 549.876657 312.947323 
L 552.757159 313.026516 
L 555.321055 312.975949 
L 558.251025 312.750319 
L 561.299757 312.565774 
L 564.696277 312.254608 
L 568.377915 311.824786 
L 572.041322 311.283496 
L 574.968111 310.637371 
L 576 310.394118 
" style="fill:none;stroke:#000000;stroke-opacity:0.7;stroke-width:1.275591;"/>
    <path clip-path="url(#p88c0fbadd8)" d="M 864 251.975012 
L 866.540675 251.293682 
L 871.122482 249.881405 
L 875.975159 248.464647 
L 880.885382 247.047424 
L 886.37002 245.63401 
L 891.885006 244.228944 
L 898.19117 242.837027 
L 905.005587 241.46332 
L 911.606788 240.113137 
L 918.680688 238.792037 
L 925.232751 237.505803 
L 929.179157 237.168556 
L 935.725622 235.938989 
L 942.576252 234.782237 
L 948.889317 233.68927 
L 955.289586 232.650364 
L 960.961075 231.655175 
L 965.953033 230.692795 
L 971.23234 229.751801 
L 976.262629 228.820291 
L 981.348658 227.885902 
L 982.8 227.642263 
" style="fill:none;stroke:#000000;stroke-opacity:0.7;stroke-width:1.275591;"/>
    <path clip-path="url(#p88c0fbadd8)" d="M 982.8 225.323414 
L 981.056183 225.61887 
L 975.97751 226.561153 
L 970.95518 227.50055 
L 965.677477 228.449594 
L 960.688201 229.420348 
L 955.023295 230.424393 
L 948.62347 231.472789 
L 942.30264 232.576027 
L 935.449928 233.743968 
L 928.898789 234.985772 
L 924.947594 235.323019 
L 918.392504 236.62235 
L 911.319403 237.957086 
L 904.718043 239.321365 
L 897.904297 240.709557 
L 891.592831 242.116274 
L 886.069057 243.536387 
L 880.576808 244.96503 
L 875.656139 246.397602 
L 870.794738 247.829768 
L 866.208008 249.257458 
L 864 249.857006 
" style="fill:none;stroke:#000000;stroke-opacity:0.7;stroke-width:1.275591;"/>
    <path clip-path="url(#p88c0fbadd8)" d="M 576 308.880929 
L 574.829909 309.159965 
L 571.899957 309.813341 
L 568.236836 310.360098 
L 564.551958 310.793471 
L 561.153781 311.106131 
L 558.105069 311.289957 
L 555.171555 311.515588 
L 552.609195 311.563066 
L 549.735549 311.478474 
L 547.197563 311.270703 
L 544.551957 310.947799 
L 541.665723 310.517207 
L 538.84103 309.98599 
L 536.619251 309.361039 
L 534.388259 308.649258 
L 532.675914 307.857757 
L 531.387194 306.994031 
L 530.654314 306.066139 
L 530.022537 305.082878 
L 529.409541 304.053955 
L 528.411646 302.99015 
L 527.067912 301.903463 
L 525.018138 300.807247 
L 522.364156 301.072824 
L 519.879405 299.897448 
L 517.490332 298.560383 
L 514.870199 297.068316 
L 512.685782 295.428539 
L 510.094637 293.649408 
L 507.417274 291.74083 
L 504.652655 289.714791 
L 502.133401 287.585923 
L 498.602973 285.372094 
L 495.649053 283.095014 
L 491.933081 280.780826 
L 487.738987 278.460633 
L 482.107922 276.170911 
L 476.862734 273.953728 
L 471.552949 271.85669 
L 465.871748 269.932504 
L 461.144562 270.30173 
L 456.799527 268.628404 
L 452.001463 267.220112 
L 446.490751 266.050938 
L 440.987209 265.088546 
L 434.917893 264.295255 
L 432 264.001016 
" style="fill:none;stroke:#000000;stroke-opacity:0.7;stroke-width:1.275591;"/>
    <path clip-path="url(#p88c0fbadd8)" d="M 269.99044 198 
L 266.620123 196.537794 
L 239.420232 186.133883 
L 205.479487 175.065552 
L 163.558664 163.537002 
L 116.650057 151.859924 
L 65.171976 140.474938 
L 25.2 135.353246 
" style="fill:none;stroke:#000000;stroke-opacity:0.7;stroke-width:1.275591;"/>
    <path clip-path="url(#p88c0fbadd8)" d="M 25.2 129.957168 
L 64.604207 135.130233 
L 115.987028 146.769803 
L 162.843411 158.705901 
L 204.739517 170.488735 
L 238.696844 181.800225 
L 265.950056 192.432072 
L 278.543741 198 
" style="fill:none;stroke:#000000;stroke-opacity:0.7;stroke-width:1.275591;"/>
    <path clip-path="url(#p88c0fbadd8)" d="M 432 261.482224 
L 434.613033 261.753973 
L 440.67801 262.570078 
L 446.190089 263.558393 
L 451.710422 264.757291 
L 456.522686 266.199693 
L 460.883859 267.911965 
L 465.618674 267.542739 
L 471.297296 269.510273 
L 476.610976 271.653663 
L 481.861969 273.919187 
L 487.502402 276.258331 
L 491.711972 278.628228 
L 495.444193 280.991722 
L 498.417991 283.317135 
L 501.958369 285.577851 
L 504.477396 287.751768 
L 507.237854 289.820705 
L 509.915482 291.769782 
L 512.507123 293.586812 
L 514.693898 295.261729 
L 517.319682 296.786049 
L 519.710382 298.15237 
L 522.192417 299.353912 
L 524.82967 299.088335 
L 526.876191 300.209072 
L 528.218124 301.319974 
L 529.218545 302.407451 
L 529.834849 303.45929 
L 530.472354 304.464529 
L 531.206695 305.413295 
L 532.503977 306.296644 
L 534.228896 307.106386 
L 536.468814 307.834904 
L 538.704415 308.474976 
L 541.53783 309.019589 
L 544.41869 309.461748 
L 547.058667 309.794279 
L 549.594441 310.009625 
L 552.461232 310.099617 
L 555.022055 310.055226 
L 557.959113 309.829596 
L 561.007806 309.646488 
L 564.407639 309.332334 
L 568.095756 308.89541 
L 571.758593 308.343187 
L 574.691706 307.682559 
L 576 307.366986 
" style="fill:none;stroke:#000000;stroke-opacity:0.7;stroke-width:1.275591;"/>
    <path clip-path="url(#p88c0fbadd8)" d="M 864 247.736781 
L 865.875342 247.221233 
L 870.466995 245.778131 
L 875.33712 244.330557 
L 880.268233 242.882636 
L 885.768093 241.438764 
L 891.300656 240.003604 
L 897.617424 238.582087 
L 904.430499 237.179411 
L 911.032018 235.801035 
L 918.10432 234.452663 
L 924.662436 233.140235 
L 928.61842 232.802988 
L 935.174233 231.548947 
L 942.029028 230.369817 
L 948.357623 229.256309 
L 954.757005 228.198422 
L 960.415327 227.18552 
L 965.401921 226.206393 
L 970.678019 225.2493 
L 975.69239 224.302015 
L 980.763708 223.351839 
L 982.8 223.003648 
" style="fill:none;stroke:#000000;stroke-opacity:0.7;stroke-width:1.275591;"/>
    <path clip-path="url(#p88c0fbadd8)" d="M 982.8 220.682963 
L 980.471234 221.084808 
L 975.40727 222.042877 
L 970.400859 222.99805 
L 965.126364 223.963191 
L 960.142454 224.950693 
L 954.490714 225.972451 
L 948.091777 227.039828 
L 941.755416 228.163607 
L 934.898539 229.353926 
L 928.338052 230.620204 
L 924.377279 230.957451 
L 917.816137 232.282976 
L 910.744633 233.644983 
L 904.142955 235.037457 
L 897.330551 236.454617 
L 891.008482 237.890934 
L 885.46713 239.341142 
L 879.959659 240.800243 
L 875.0181 242.263511 
L 870.139251 243.726494 
L 865.542676 245.185009 
L 864 245.614327 
" style="fill:none;stroke:#000000;stroke-opacity:0.7;stroke-width:1.275591;"/>
    <path clip-path="url(#p88c0fbadd8)" d="M 576 305.85229 
L 574.553503 306.205153 
L 571.617229 306.873032 
L 567.954677 307.430722 
L 564.263321 307.871196 
L 560.861831 308.186845 
L 557.813158 308.369234 
L 554.872555 308.594865 
L 552.313269 308.636168 
L 549.453332 308.540777 
L 546.919771 308.317855 
L 544.285423 307.975696 
L 541.409938 307.521972 
L 538.567801 306.963962 
L 536.318378 306.308769 
L 534.069532 305.563514 
L 532.33204 304.735532 
L 531.026197 303.83256 
L 530.290393 302.86292 
L 529.647161 301.835703 
L 529.027548 300.760946 
L 528.024601 299.649799 
L 526.684471 298.514682 
L 524.641202 297.369423 
L 522.020679 297.635001 
L 519.541359 296.407293 
L 517.149033 295.011714 
L 514.517596 293.455141 
L 512.328464 291.745084 
L 509.736327 289.890156 
L 507.058434 287.900581 
L 504.302137 285.788745 
L 501.783337 283.569778 
L 498.23301 281.262177 
L 495.239333 278.88843 
L 491.490863 276.475629 
L 487.265818 274.056028 
L 481.616015 271.667464 
L 476.359219 269.353599 
L 471.041643 267.163856 
L 465.3656 265.152975 
L 460.623157 265.522201 
L 456.245844 263.770981 
L 451.419381 262.294471 
L 445.889426 261.065848 
L 440.368812 260.05161 
L 434.308174 259.21269 
L 432 258.965349 
" style="fill:none;stroke:#000000;stroke-opacity:0.7;stroke-width:1.275591;"/>
    <path clip-path="url(#p88c0fbadd8)" d="M 286.76039 198 
L 265.279989 188.326351 
L 237.973456 177.466568 
L 203.999547 165.911919 
L 162.128157 153.874799 
L 115.323999 141.679681 
L 64.036438 129.785527 
L 25.2 124.5642 
" style="fill:none;stroke:#000000;stroke-opacity:0.7;stroke-width:1.275591;"/>
    <path clip-path="url(#p88c0fbadd8)" d="M 25.2 119.174358 
L 63.468669 124.440822 
L 114.66097 136.58956 
L 161.412903 149.043698 
L 203.259576 161.335102 
L 237.250068 173.13291 
L 264.609922 184.220629 
L 286.962467 194.469939 
L 293.688971 198 
" style="fill:none;stroke:#000000;stroke-opacity:0.7;stroke-width:1.275591;"/>
    <path clip-path="url(#p88c0fbadd8)" d="M 432 256.450395 
L 434.003314 256.671407 
L 440.059613 257.533142 
L 445.588764 258.573303 
L 451.12834 259.83165 
L 455.969003 261.342269 
L 460.362454 263.132436 
L 465.112526 262.76321 
L 470.78599 264.817439 
L 476.107461 267.053535 
L 481.370062 269.415741 
L 487.029234 271.853725 
L 491.269754 274.323031 
L 495.034473 276.785137 
L 498.048029 279.207219 
L 501.608305 281.561706 
L 504.126878 283.825722 
L 506.879014 285.980457 
L 509.557172 288.01053 
L 512.149805 289.903357 
L 514.341295 291.648554 
L 516.978383 293.23738 
L 519.372337 294.662216 
L 521.84894 295.916089 
L 524.452733 295.650511 
L 526.492751 296.820292 
L 527.831079 297.979623 
L 528.836552 299.114441 
L 529.459473 300.212115 
L 530.108433 301.26131 
L 530.845699 302.251824 
L 532.160104 303.17442 
L 533.910168 304.020642 
L 536.167941 304.782634 
L 538.431186 305.452948 
L 541.282045 306.024354 
L 544.152156 306.489645 
L 546.780876 306.841432 
L 549.312224 307.071928 
L 552.165305 307.172719 
L 554.723055 307.134503 
L 557.667202 306.908873 
L 560.715856 306.727203 
L 564.119002 306.410059 
L 567.813597 305.966034 
L 571.475864 305.402878 
L 574.4153 304.727747 
L 576 304.33684 
" style="fill:none;stroke:#000000;stroke-opacity:0.7;stroke-width:1.275591;"/>
    <path clip-path="url(#p88c0fbadd8)" d="M 864 243.489634 
L 865.210009 243.148784 
L 869.811508 241.674858 
L 874.699081 240.196466 
L 879.651084 238.717849 
L 885.166167 237.243519 
L 890.716307 235.778264 
L 897.043678 234.327147 
L 903.855411 232.895503 
L 910.457248 231.488932 
L 917.527953 230.113289 
L 924.092122 228.774667 
L 928.057683 228.43742 
L 934.622845 227.158905 
L 941.481804 225.957398 
L 947.82593 224.823348 
L 954.224423 223.74648 
L 959.86958 222.715866 
L 964.850808 221.71999 
L 970.123698 220.746799 
L 975.12215 219.783739 
L 980.178759 218.817777 
L 982.8 218.361356 
" style="fill:none;stroke:#000000;stroke-opacity:0.7;stroke-width:1.275591;"/>
    <path clip-path="url(#p88c0fbadd8)" d="M 982.8 216.038825 
L 979.886285 216.550745 
L 974.83703 217.524602 
L 969.846538 218.495549 
L 964.575252 219.476789 
L 959.596706 220.481039 
L 953.958133 221.520509 
L 947.560083 222.606867 
L 941.208192 223.751188 
L 934.347151 224.963884 
L 927.777315 226.254635 
L 923.806964 226.591882 
L 917.239769 227.943602 
L 910.169863 229.332881 
L 903.567867 230.753548 
L 896.756805 232.199677 
L 890.424132 233.665594 
L 884.865204 235.145897 
L 879.34251 236.635456 
L 874.380061 238.129421 
L 869.483764 239.623221 
L 864.877343 241.11256 
L 864 241.36269 
" style="fill:none;stroke:#000000;stroke-opacity:0.7;stroke-width:1.275591;"/>
    <path clip-path="url(#p88c0fbadd8)" d="M 576 302.820639 
L 574.277097 303.250342 
L 571.3345 303.932724 
L 567.672518 304.501346 
L 563.974683 304.948922 
L 560.569881 305.26756 
L 557.521246 305.448511 
L 554.573555 305.674141 
L 552.017342 305.709269 
L 549.171116 305.603079 
L 546.64198 305.365008 
L 544.018889 305.003594 
L 541.154152 304.526737 
L 538.294572 303.941934 
L 536.017505 303.256499 
L 533.750804 302.47777 
L 531.988167 301.613308 
L 530.6652 300.671089 
L 529.926473 299.6597 
L 529.271786 298.588528 
L 528.645556 297.467936 
L 527.637556 296.309447 
L 526.301031 295.125902 
L 524.264265 293.9316 
L 521.677202 294.197177 
L 519.203314 292.917138 
L 516.807734 291.463045 
L 514.164994 289.841967 
L 511.971146 288.06163 
L 509.378017 286.130904 
L 506.699594 284.060333 
L 503.951619 281.862698 
L 501.433273 279.553634 
L 497.863048 277.152261 
L 494.829613 274.681845 
L 491.048645 272.170432 
L 486.792649 269.651422 
L 481.124109 267.164018 
L 475.855703 264.75347 
L 470.530337 262.471022 
L 464.859452 260.373446 
L 460.101752 260.742672 
L 455.692162 258.913558 
L 450.837299 257.36883 
L 445.288102 256.080758 
L 439.750414 255.014674 
L 433.698455 254.130124 
L 432 253.937364 
" style="fill:none;stroke:#000000;stroke-opacity:0.7;stroke-width:1.275591;"/>
    <path clip-path="url(#p88c0fbadd8)" d="M 300.258177 198 
L 286.353412 190.574586 
L 263.939856 180.114907 
L 236.52668 168.799252 
L 202.519606 156.758285 
L 160.69765 144.212596 
L 113.997941 131.499439 
L 62.9009 119.096116 
L 25.2 113.787661 
" style="fill:none;stroke:#000000;stroke-opacity:0.7;stroke-width:1.275591;"/>
    <path clip-path="url(#p88c0fbadd8)" d="M 25.2 108.404128 
L 62.333131 113.751411 
L 113.334912 126.409318 
L 159.982396 139.381495 
L 201.779636 152.181469 
L 235.803291 164.465595 
L 263.269789 176.009186 
L 285.744356 186.679234 
L 303.656727 196.408998 
L 306.254148 198 
" style="fill:none;stroke:#000000;stroke-opacity:0.7;stroke-width:1.275591;"/>
    <path clip-path="url(#p88c0fbadd8)" d="M 432 251.426261 
L 433.393595 251.588841 
L 439.441215 252.496206 
L 444.987439 253.588213 
L 450.546258 254.906009 
L 455.415321 256.484846 
L 459.841049 258.352908 
L 464.606378 257.983682 
L 470.274685 260.124605 
L 475.603946 262.453406 
L 480.878156 264.912294 
L 486.556065 267.449119 
L 490.827536 270.017834 
L 494.624753 272.578553 
L 497.678067 275.097303 
L 501.258241 277.545561 
L 503.776359 279.899675 
L 506.520174 282.140208 
L 509.198862 284.251278 
L 511.792487 286.219903 
L 513.988693 288.03538 
L 516.637084 289.688711 
L 519.034291 291.172061 
L 521.505463 292.478265 
L 524.075797 292.212688 
L 526.10931 293.431512 
L 527.444034 294.639272 
L 528.454559 295.821431 
L 529.084098 296.96494 
L 529.744513 298.058091 
L 530.484702 299.090353 
L 531.81623 300.052195 
L 533.59144 300.934899 
L 535.867069 301.730364 
L 538.157958 302.43092 
L 541.02626 303.029119 
L 543.885622 303.517543 
L 546.503084 303.888584 
L 549.030007 304.13423 
L 551.869378 304.24582 
L 554.424055 304.21378 
L 557.375291 303.988149 
L 560.423906 303.807917 
L 563.830364 303.487785 
L 567.531438 303.036657 
L 571.193135 302.462569 
L 574.138895 301.772936 
L 576 301.303687 
" style="fill:none;stroke:#000000;stroke-opacity:0.7;stroke-width:1.275591;"/>
    <path clip-path="url(#p88c0fbadd8)" d="M 864 239.233484 
L 864.544676 239.076335 
L 869.15602 237.571584 
L 874.061041 236.062376 
L 879.033935 234.553062 
L 884.564241 233.048274 
L 890.131957 231.552924 
L 896.469932 230.072207 
L 903.280323 228.611594 
L 909.882478 227.176829 
L 916.951585 225.773916 
L 923.521807 224.409098 
L 927.496946 224.071851 
L 934.071457 222.768863 
L 940.93458 221.544978 
L 947.294236 220.390387 
L 953.691842 219.294538 
L 959.323832 218.246211 
L 964.299695 217.233588 
L 969.569377 216.244298 
L 974.551911 215.265464 
L 979.59381 214.283714 
L 982.8 213.715368 
" style="fill:none;stroke:#000000;stroke-opacity:0.7;stroke-width:1.275591;"/>
    <path clip-path="url(#p88c0fbadd8)" d="M 982.8 211.390984 
L 979.301336 212.016683 
L 974.266791 213.006326 
L 969.292216 213.993048 
L 964.024139 214.990387 
L 959.050959 216.011384 
L 953.425552 217.068567 
L 947.028389 218.173906 
L 940.660968 219.338768 
L 933.795763 220.573841 
L 927.216578 221.889067 
L 923.236649 222.226314 
L 916.663401 223.604229 
L 909.595093 225.020778 
L 902.992778 226.46964 
L 896.183059 227.944737 
L 889.839783 229.440254 
L 884.263278 230.950652 
L 878.725361 232.470669 
L 873.742022 233.99533 
L 868.828277 235.519947 
L 864.21201 237.040111 
L 864 237.102006 
" style="fill:none;stroke:#000000;stroke-opacity:0.7;stroke-width:1.275591;"/>
    <path clip-path="url(#p88c0fbadd8)" d="M 576 299.785984 
L 574.000692 300.29553 
L 571.051771 300.992415 
L 567.390359 301.571969 
L 563.686045 302.026648 
L 560.277931 302.348274 
L 557.229335 302.527788 
L 554.274555 302.753418 
L 551.721415 302.782371 
L 548.888899 302.665382 
L 546.364189 302.412161 
L 543.752355 302.031492 
L 540.898367 301.531502 
L 538.021343 300.919906 
L 535.716632 300.20423 
L 533.432077 299.392027 
L 531.644294 298.491083 
L 530.304203 297.509617 
L 529.562552 296.456481 
L 528.89641 295.341353 
L 528.263563 294.174926 
L 527.250511 292.969096 
L 525.91759 291.737122 
L 523.887329 290.493776 
L 521.333725 290.759353 
L 518.865268 289.426983 
L 516.466435 287.914376 
L 513.812391 286.228793 
L 511.613828 284.378176 
L 509.019707 282.371652 
L 506.340754 280.220084 
L 503.6011 277.936652 
L 501.083209 275.537489 
L 497.493086 273.042345 
L 494.419894 270.475261 
L 490.606427 267.865235 
L 486.31948 265.246816 
L 480.632203 262.660571 
L 475.352188 260.153341 
L 470.019032 257.778188 
L 464.353304 255.593917 
L 459.580347 255.963143 
L 455.13848 254.056135 
L 450.255217 252.443189 
L 444.686777 251.095668 
L 439.132016 249.977738 
L 433.088736 249.047558 
L 432 248.917087 
" style="fill:none;stroke:#000000;stroke-opacity:0.7;stroke-width:1.275591;"/>
    <path clip-path="url(#p88c0fbadd8)" d="M 311.597955 198 
L 303.099173 192.70536 
L 285.135301 182.783881 
L 262.599722 171.903464 
L 235.079903 160.131937 
L 201.039666 147.604652 
L 159.267143 134.550394 
L 112.671883 121.319197 
L 61.765362 108.406705 
L 25.2 103.023776 
" style="fill:none;stroke:#000000;stroke-opacity:0.7;stroke-width:1.275591;"/>
    <path clip-path="url(#p88c0fbadd8)" d="M 25.2 97.646624 
L 61.197593 103.062 
L 112.008854 116.229075 
L 158.551889 129.719292 
L 200.299695 143.027836 
L 234.356515 155.79828 
L 261.929656 167.797742 
L 284.526245 178.888529 
L 302.541619 189.001722 
L 316.748138 198 
" style="fill:none;stroke:#000000;stroke-opacity:0.7;stroke-width:1.275591;"/>
    <path clip-path="url(#p88c0fbadd8)" d="M 432 246.409846 
L 432.783876 246.506276 
L 438.822817 247.45927 
L 444.386115 248.603123 
L 449.964176 249.980369 
L 454.861639 251.627423 
L 459.319644 253.573379 
L 464.10023 253.204153 
L 469.763379 255.431771 
L 475.10043 257.853277 
L 480.38625 260.408848 
L 486.082896 263.044513 
L 490.385318 265.712637 
L 494.215034 268.371969 
L 497.308105 270.987386 
L 500.908176 273.529417 
L 503.425841 275.973629 
L 506.161333 278.29996 
L 508.840552 280.492026 
L 511.43517 282.536448 
L 513.63609 284.422206 
L 516.295785 286.140042 
L 518.696245 287.681906 
L 521.161986 289.040441 
L 523.69886 288.774864 
L 525.72587 290.042731 
L 527.056989 291.29892 
L 528.072566 292.528422 
L 528.708722 293.717765 
L 529.380592 294.854872 
L 530.123705 295.928882 
L 531.472357 296.929971 
L 533.272713 297.849155 
L 535.566196 298.678095 
L 537.884729 299.408892 
L 540.770475 300.033885 
L 543.619087 300.545441 
L 546.225293 300.935737 
L 548.747791 301.196533 
L 551.573452 301.318921 
L 554.125055 301.293057 
L 557.083379 301.067426 
L 560.131955 300.888631 
L 563.541727 300.565511 
L 567.249279 300.107281 
L 570.910406 299.522261 
L 573.862489 298.818124 
L 576 298.267532 
" style="fill:none;stroke:#000000;stroke-opacity:0.7;stroke-width:1.275591;"/>
    <path clip-path="url(#p88c0fbadd8)" d="M 864 234.963793 
L 868.500533 233.46831 
L 873.423002 231.928285 
L 878.416786 230.388275 
L 883.962315 228.853029 
L 889.547608 227.327584 
L 895.896187 225.817267 
L 902.705234 224.327685 
L 909.307709 222.864727 
L 916.375218 221.434542 
L 922.951492 220.04353 
L 926.93621 219.706283 
L 933.520069 218.37882 
L 940.387356 217.132558 
L 946.762543 215.957426 
L 953.159261 214.842596 
L 958.778085 213.776557 
L 963.748583 212.747186 
L 969.015056 211.741798 
L 973.981671 210.747188 
L 979.008861 209.749652 
L 982.8 209.065669 
" style="fill:none;stroke:#000000;stroke-opacity:0.7;stroke-width:1.275591;"/>
    <path clip-path="url(#p88c0fbadd8)" d="M 982.8 206.739421 
L 978.716387 207.48262 
L 973.696551 208.48805 
L 968.737895 209.490547 
L 963.473026 210.503984 
L 958.505211 211.54173 
L 952.892971 212.616624 
L 946.496696 213.740945 
L 940.113744 214.926348 
L 933.244375 216.183799 
L 926.655841 217.523499 
L 922.666334 217.860746 
L 916.087034 219.264855 
L 909.020324 220.708675 
L 902.41769 222.185731 
L 895.609314 223.689797 
L 889.255433 225.214914 
L 883.661352 226.755406 
L 878.108212 228.305882 
L 873.103983 229.86124 
L 868.17279 231.416673 
L 864 232.815677 
" style="fill:none;stroke:#000000;stroke-opacity:0.7;stroke-width:1.275591;"/>
    <path clip-path="url(#p88c0fbadd8)" d="M 576 296.748331 
L 573.724286 297.340718 
L 570.769042 298.052106 
L 567.1082 298.642593 
L 563.397408 299.104374 
L 559.98598 299.428989 
L 556.937424 299.607065 
L 553.975555 299.832695 
L 551.425488 299.855472 
L 548.606683 299.727684 
L 546.086398 299.459313 
L 543.48582 299.059389 
L 540.642582 298.536267 
L 537.748115 297.897877 
L 535.415759 297.15196 
L 533.113349 296.306283 
L 531.30042 295.368858 
L 529.943207 294.348146 
L 529.198632 293.253262 
L 528.521034 292.094177 
L 527.88157 290.881917 
L 526.863466 289.628745 
L 525.53415 288.348341 
L 523.510392 287.055952 
L 520.990247 287.321529 
L 518.527222 285.936828 
L 516.125136 284.365707 
L 513.459789 282.615619 
L 511.256511 280.694721 
L 508.661397 278.612401 
L 505.981913 276.379835 
L 503.250582 274.010606 
L 500.733144 271.521345 
L 497.123124 268.932428 
L 494.010174 266.268676 
L 490.164209 263.560038 
L 485.846311 260.84221 
L 480.140297 258.157125 
L 474.848673 255.553213 
L 469.507726 253.085354 
L 463.847156 250.814388 
L 459.058942 251.183614 
L 454.584797 249.198711 
L 449.673135 247.517548 
L 444.085453 246.110578 
L 438.513618 244.940802 
L 432.479016 243.964993 
L 432 243.904542 
" style="fill:none;stroke:#000000;stroke-opacity:0.7;stroke-width:1.275591;"/>
    <path clip-path="url(#p88c0fbadd8)" d="M 321.603237 198 
L 316.409486 194.584304 
L 301.984065 185.298084 
L 283.917189 174.993176 
L 261.259589 163.692021 
L 233.633127 151.464622 
L 199.559725 138.451019 
L 157.836635 124.888191 
L 111.345825 111.138954 
L 60.629824 97.717294 
L 25.2 92.272691 
" style="fill:none;stroke:#000000;stroke-opacity:0.7;stroke-width:1.275591;"/>
    <path clip-path="url(#p88c0fbadd8)" d="M 25.2 86.901995 
L 60.062055 92.372588 
L 110.682796 106.048833 
L 157.121382 120.057089 
L 198.819755 133.874203 
L 232.909739 147.130964 
L 260.589522 159.586299 
L 283.308134 171.097823 
L 301.426511 181.594447 
L 315.889078 191.053484 
L 326.2869 198 
" style="fill:none;stroke:#000000;stroke-opacity:0.7;stroke-width:1.275591;"/>
    <path clip-path="url(#p88c0fbadd8)" d="M 432 241.401177 
L 432.174157 241.42371 
L 438.20442 242.422334 
L 443.78479 243.618033 
L 449.382094 245.054728 
L 454.307956 246.77 
L 458.798239 248.79385 
L 463.594082 248.424624 
L 469.252073 250.738937 
L 474.596915 253.253148 
L 479.894344 255.905401 
L 485.609727 258.639908 
L 489.9431 261.40744 
L 493.805314 264.165384 
L 496.938143 266.87747 
L 500.558112 269.513272 
L 503.075323 272.047582 
L 505.802493 274.459711 
L 508.482242 276.732775 
L 511.077852 278.852994 
L 513.283487 280.809032 
L 515.954486 282.591373 
L 518.358199 284.191751 
L 520.818509 285.602617 
L 523.321924 285.33704 
L 525.342429 286.653951 
L 526.669943 287.958569 
L 527.690573 289.235412 
L 528.333347 290.47059 
L 529.016672 291.651652 
L 529.762708 292.767411 
L 531.128483 293.807746 
L 532.953985 294.763411 
L 535.265323 295.625825 
L 537.6115 296.386863 
L 540.51469 297.03865 
L 543.352553 297.573338 
L 545.947502 297.982889 
L 548.465574 298.258835 
L 551.277525 298.392023 
L 553.826055 298.372333 
L 556.791468 298.146703 
L 559.840005 297.969346 
L 563.253089 297.643237 
L 566.96712 297.177905 
L 570.627678 296.581952 
L 573.586084 295.863312 
L 576 295.228383 
" style="fill:none;stroke:#000000;stroke-opacity:0.7;stroke-width:1.275591;"/>
    <path clip-path="url(#p88c0fbadd8)" d="M 864 230.665584 
L 867.845046 229.365036 
L 872.784963 227.794195 
L 877.799637 226.223488 
L 883.360389 224.657784 
L 888.963259 223.102245 
L 895.322441 221.562327 
L 902.130146 220.043777 
L 908.732939 218.552624 
L 915.79885 217.095168 
L 922.381177 215.677961 
L 926.375473 215.340715 
L 932.968681 213.988778 
L 939.840132 212.720138 
L 946.230849 211.524465 
L 952.62668 210.390653 
L 958.232337 209.306902 
L 963.19747 208.260783 
L 968.460735 207.239297 
L 973.411432 206.228912 
L 978.423912 205.215589 
L 982.8 204.412239 
" style="fill:none;stroke:#000000;stroke-opacity:0.7;stroke-width:1.275591;"/>
    <path clip-path="url(#p88c0fbadd8)" d="M 982.8 202.08412 
L 978.131437 202.948558 
L 973.126312 203.969774 
L 968.183574 204.988047 
L 962.921914 206.017582 
L 957.959464 207.072075 
L 952.36039 208.164682 
L 945.965002 209.307984 
L 939.56652 210.513928 
L 932.692987 211.793757 
L 926.095104 213.15793 
L 922.096019 213.495177 
L 915.510666 214.925481 
L 908.445554 216.396573 
L 901.842602 217.901823 
L 895.035568 219.434857 
L 888.671084 220.989575 
L 883.059426 222.560161 
L 877.491063 224.141094 
L 872.465944 225.72715 
L 867.517302 227.3134 
L 864 228.513522 
" style="fill:none;stroke:#000000;stroke-opacity:0.7;stroke-width:1.275591;"/>
    <path clip-path="url(#p88c0fbadd8)" d="M 576 293.707687 
L 573.447881 294.385906 
L 570.486313 295.111797 
L 566.82604 295.713217 
L 563.10877 296.182099 
L 559.69403 296.509703 
L 556.645512 296.686341 
L 553.676555 296.911972 
L 551.129562 296.928574 
L 548.324466 296.789987 
L 545.808606 296.506466 
L 543.219286 296.087287 
L 540.386797 295.541032 
L 537.474886 294.875849 
L 535.114887 294.09969 
L 532.794621 293.220539 
L 530.956547 292.246634 
L 529.58221 291.186675 
L 528.834711 290.050043 
L 528.145659 288.847002 
L 527.499577 287.588907 
L 526.476421 286.288394 
L 525.150709 284.959561 
L 523.133456 283.618128 
L 520.64677 283.883706 
L 518.189176 282.446674 
L 515.783837 280.817038 
L 513.107186 279.002444 
L 510.899193 277.011267 
L 508.303087 274.853149 
L 505.623073 272.539587 
L 502.900064 270.084559 
L 500.38308 267.5052 
L 496.753161 264.822512 
L 493.600454 262.062092 
L 489.721991 259.254841 
L 485.373143 256.437605 
L 479.648391 253.653678 
L 474.345157 250.953084 
L 468.996421 248.39252 
L 463.341008 246.034859 
L 458.537537 246.404085 
L 454.031115 244.341288 
L 449.091053 242.591907 
L 443.484128 241.125488 
L 437.895221 239.903866 
L 432 238.904582 
" style="fill:none;stroke:#000000;stroke-opacity:0.7;stroke-width:1.275591;"/>
    <path clip-path="url(#p88c0fbadd8)" d="M 330.782793 198 
L 328.020567 196.106171 
L 315.36867 187.522665 
L 300.868956 177.890809 
L 282.699078 167.202471 
L 259.919456 155.480577 
L 232.186351 142.797307 
L 198.079785 129.297386 
L 156.406128 115.225988 
L 110.019767 100.958712 
L 59.494286 87.027883 
L 25.2 81.534554 
" style="fill:none;stroke:#000000;stroke-opacity:0.7;stroke-width:1.275591;"/>
    <path clip-path="url(#p88c0fbadd8)" d="M 25.2 76.170389 
L 58.926517 81.683177 
L 109.356738 95.868591 
L 155.690874 110.394886 
L 197.339814 124.72057 
L 231.462963 138.463649 
L 259.249389 151.374856 
L 282.090022 163.307118 
L 300.311402 174.187171 
L 314.848262 183.991846 
L 327.534746 192.729559 
L 335.104434 198 
" style="fill:none;stroke:#000000;stroke-opacity:0.7;stroke-width:1.275591;"/>
    <path clip-path="url(#p88c0fbadd8)" d="M 432 236.416679 
L 437.586022 237.385398 
L 443.183466 238.632943 
L 448.800012 240.129087 
L 453.754274 241.912576 
L 458.276834 244.014321 
L 463.087934 243.645095 
L 468.740768 246.046103 
L 474.0934 248.65302 
L 479.402438 251.401955 
L 485.136558 254.235302 
L 489.500882 257.102242 
L 493.395594 259.9588 
L 496.56818 262.767554 
L 500.208048 265.497128 
L 502.724805 268.121536 
L 505.443653 270.619463 
L 508.123932 272.973523 
L 510.720534 275.169539 
L 512.930885 277.195857 
L 515.613187 279.042704 
L 518.020154 280.701596 
L 520.475032 282.164794 
L 522.944988 281.899216 
L 524.958989 283.265171 
L 526.282898 284.618218 
L 527.30858 285.942402 
L 527.957971 287.223415 
L 528.652751 288.448433 
L 529.401711 289.605939 
L 530.78461 290.685521 
L 532.635258 291.677668 
L 534.96445 292.573555 
L 537.338272 293.364835 
L 540.258905 294.043415 
L 543.086019 294.601236 
L 545.669711 295.030042 
L 548.183358 295.321138 
L 550.981598 295.465124 
L 553.527055 295.45161 
L 556.499557 295.22598 
L 559.548055 295.05006 
L 562.964451 294.720962 
L 566.684961 294.248529 
L 570.344949 293.641643 
L 573.309678 292.908501 
L 576 292.186245 
" style="fill:none;stroke:#000000;stroke-opacity:0.7;stroke-width:1.275591;"/>
    <path clip-path="url(#p88c0fbadd8)" d="M 864 226.359495 
L 867.189559 225.261763 
L 872.146924 223.660104 
L 877.182488 222.058701 
L 882.758463 220.462539 
L 888.378909 218.876905 
L 894.748695 217.307387 
L 901.555058 215.759868 
L 908.158169 214.240522 
L 915.222482 212.755794 
L 921.810862 211.312393 
L 925.814736 210.975146 
L 932.417293 209.598736 
L 939.292908 208.307718 
L 945.699155 207.091504 
L 952.094099 205.938711 
L 957.68659 204.837248 
L 962.646357 203.774381 
L 967.906414 202.736796 
L 972.841192 201.710637 
L 977.838963 200.681526 
L 982.8 199.755061 
" style="fill:none;stroke:#000000;stroke-opacity:0.7;stroke-width:1.275591;"/>
    <path clip-path="url(#p88c0fbadd8)" d="M 982.8 197.425062 
L 977.546488 198.414495 
L 972.556072 199.451499 
L 967.629253 200.485546 
L 962.370801 201.53118 
L 957.413716 202.60242 
L 951.827809 203.71274 
L 945.433309 204.875023 
L 939.019296 206.101508 
L 932.141598 207.403715 
L 925.534367 208.792362 
L 921.525704 209.129609 
L 914.934299 210.586108 
L 907.870784 212.08447 
L 901.267514 213.617914 
L 894.461822 215.179917 
L 888.086734 216.764235 
L 882.4575 218.364916 
L 876.873913 219.976307 
L 871.827905 221.593059 
L 866.861815 223.210126 
L 864 224.203511 
" style="fill:none;stroke:#000000;stroke-opacity:0.7;stroke-width:1.275591;"/>
    <path clip-path="url(#p88c0fbadd8)" d="M 576 290.664057 
L 573.171475 291.431095 
L 570.203584 292.171489 
L 566.543881 292.783841 
L 562.820132 293.259825 
L 559.40208 293.590417 
L 556.353601 293.765618 
L 553.377555 293.991249 
L 550.833635 294.001675 
L 548.042249 293.852289 
L 545.530815 293.553618 
L 542.952752 293.115185 
L 540.131012 292.545797 
L 537.201657 291.853821 
L 534.814014 291.04742 
L 532.475894 290.134796 
L 530.612673 289.124409 
L 529.221213 288.025204 
L 528.470791 286.846824 
L 527.770283 285.599827 
L 527.117584 284.295898 
L 526.089376 282.948042 
L 524.767269 281.570781 
L 522.756519 280.180305 
L 520.303293 280.445882 
L 517.851131 278.956519 
L 515.442538 277.268369 
L 512.754584 275.38927 
L 510.541875 273.327812 
L 507.944777 271.093897 
L 505.264233 268.699338 
L 502.549546 266.158513 
L 500.033016 263.489055 
L 496.383199 260.712596 
L 493.190734 257.855508 
L 489.279773 254.949644 
L 484.899974 252.032999 
L 479.156485 249.150232 
L 473.841642 246.352955 
L 468.485115 243.699686 
L 462.83486 241.25533 
L 458.016132 241.624556 
L 453.477433 239.483865 
L 448.508971 237.666266 
L 442.882803 236.140398 
L 437.276823 234.86693 
L 432 233.931164 
" style="fill:none;stroke:#000000;stroke-opacity:0.7;stroke-width:1.275591;"/>
    <path clip-path="url(#p88c0fbadd8)" d="M 339.37667 198 
L 338.130729 197.186045 
L 327.048925 189.352948 
L 314.327854 180.461027 
L 299.753848 170.483533 
L 281.480967 159.411765 
L 258.579322 147.269134 
L 230.739575 134.129992 
L 196.599844 120.143753 
L 154.975621 105.563785 
L 108.693709 90.778469 
L 58.358748 76.338472 
L 25.2 70.809518 
" style="fill:none;stroke:#000000;stroke-opacity:0.7;stroke-width:1.275591;"/>
    <path clip-path="url(#p88c0fbadd8)" d="M 25.2 65.451961 
L 57.790979 70.993766 
L 108.03068 85.688348 
L 154.260367 100.732684 
L 195.859874 115.566936 
L 230.016187 129.796334 
L 257.909255 143.163412 
L 280.871911 155.516413 
L 299.196294 166.779895 
L 313.807446 176.930207 
L 326.563104 185.976336 
L 337.67198 193.945607 
L 343.78002 198 
" style="fill:none;stroke:#000000;stroke-opacity:0.7;stroke-width:1.275591;"/>
    <path clip-path="url(#p88c0fbadd8)" d="M 432 231.448044 
L 436.967624 232.348462 
L 442.582141 233.647853 
L 448.21793 235.203446 
L 453.200592 237.055153 
L 457.755429 239.234792 
L 462.581786 238.865566 
L 468.229462 241.353269 
L 473.589884 244.052891 
L 478.910532 246.898508 
L 484.663389 249.830696 
L 489.058664 252.797045 
L 492.985874 255.752215 
L 496.198218 258.657637 
L 499.857984 261.480983 
L 502.374287 264.19549 
L 505.084813 266.779214 
L 507.765622 269.214271 
L 510.363216 271.486085 
L 512.578282 273.582683 
L 515.271888 275.494035 
L 517.682108 277.211441 
L 520.131555 278.72697 
L 522.568051 278.461393 
L 524.575548 279.87639 
L 525.895853 281.277867 
L 526.926587 282.649393 
L 527.582595 283.97624 
L 528.28883 285.245214 
L 529.040715 286.444468 
L 530.440737 287.563297 
L 532.31653 288.591924 
L 534.663577 289.521285 
L 537.065043 290.342807 
L 540.003119 291.04818 
L 542.819485 291.629133 
L 545.391919 292.077195 
L 547.901141 292.38344 
L 550.685672 292.538226 
L 553.228055 292.530887 
L 556.207645 292.305257 
L 559.256104 292.130774 
L 562.675814 291.798688 
L 566.402802 291.319153 
L 570.06222 290.701334 
L 573.033273 289.953689 
L 576 289.141124 
" style="fill:none;stroke:#000000;stroke-opacity:0.7;stroke-width:1.275591;"/>
    <path clip-path="url(#p88c0fbadd8)" d="M 864 222.045575 
L 866.534072 221.158489 
L 871.508885 219.526014 
L 876.565339 217.893914 
L 882.156537 216.267293 
L 887.79456 214.651565 
L 894.174949 213.052447 
L 900.97997 211.47596 
L 907.583399 209.928419 
L 914.646115 208.416421 
L 921.240547 206.946825 
L 925.253999 206.609578 
L 931.865904 205.208693 
L 938.745684 203.895298 
L 945.167462 202.658543 
L 951.561518 201.486769 
L 957.140842 200.367593 
L 962.095245 199.287979 
L 967.352093 198.234295 
L 972.270953 197.192361 
L 977.254014 196.147464 
L 982.8 195.094118 
" style="fill:none;stroke:#000000;stroke-opacity:0.7;stroke-width:1.275591;"/>
    <path clip-path="url(#p88c0fbadd8)" d="M 982.8 192.761661 
L 982.554415 192.809264 
L 976.961539 193.880433 
L 971.985833 194.933223 
L 967.074932 195.983045 
L 961.819688 197.044778 
L 956.867969 198.132766 
L 951.295228 199.260798 
L 944.901615 200.442063 
L 938.472072 201.689088 
L 931.59021 203.013672 
L 924.97363 204.426794 
L 920.955389 204.764041 
L 914.357931 206.246734 
L 907.296014 207.772368 
L 900.692426 209.334005 
L 893.888076 210.924977 
L 887.502385 212.538895 
L 881.855574 214.169671 
L 876.256764 215.81152 
L 871.189865 217.458969 
L 866.206328 219.106852 
L 864 219.885695 
" style="fill:none;stroke:#000000;stroke-opacity:0.7;stroke-width:1.275591;"/>
    <path clip-path="url(#p88c0fbadd8)" d="M 576 287.617447 
L 572.89507 288.476283 
L 569.920856 289.23118 
L 566.261722 289.854465 
L 562.531495 290.337551 
L 559.110129 290.671132 
L 556.06169 290.844895 
L 553.078555 291.070526 
L 550.537708 291.074776 
L 547.760033 290.914591 
L 545.253024 290.600771 
L 542.686218 290.143082 
L 539.875227 289.550563 
L 536.928428 288.831793 
L 534.513141 287.995151 
L 532.157166 287.049052 
L 530.2688 286.002184 
L 528.860216 284.863733 
L 528.10687 283.643604 
L 527.394907 282.352652 
L 526.735591 281.002888 
L 525.702331 279.607691 
L 524.383828 278.182 
L 522.379583 276.742481 
L 519.959816 277.008058 
L 517.513085 275.466364 
L 515.101239 273.7197 
L 512.401981 271.776096 
L 510.184557 269.644358 
L 507.586467 267.334645 
L 504.905393 264.85909 
L 502.199028 262.232466 
L 499.682952 259.472911 
L 496.013237 256.602679 
L 492.781014 253.648923 
L 488.837556 250.644447 
L 484.426805 247.628393 
L 478.664579 244.646785 
L 473.338127 241.752827 
L 467.973809 239.006852 
L 462.328712 236.475802 
L 457.494727 236.845028 
L 452.92375 234.626441 
L 447.926889 232.740625 
L 442.281479 231.155309 
L 436.658425 229.829994 
L 432 228.967322 
" style="fill:none;stroke:#000000;stroke-opacity:0.7;stroke-width:1.275591;"/>
    <path clip-path="url(#p88c0fbadd8)" d="M 348.023416 198 
L 347.664197 197.751683 
L 337.213231 190.705169 
L 326.077283 182.599725 
L 313.287037 173.399388 
L 298.63874 163.076257 
L 280.262856 151.62106 
L 257.239189 139.057691 
L 229.292798 125.462676 
L 195.119904 110.99012 
L 153.545113 95.901582 
L 107.36765 80.598227 
L 57.22321 65.649061 
L 25.2 60.097736 
" style="fill:none;stroke:#000000;stroke-opacity:0.7;stroke-width:1.275591;"/>
    <path clip-path="url(#p88c0fbadd8)" d="M 25.2 54.746864 
L 56.655441 60.304355 
L 106.704621 75.508106 
L 152.82986 91.070481 
L 194.379933 106.413303 
L 228.56941 121.129019 
L 256.569122 134.951969 
L 279.6538 147.725707 
L 298.081186 159.372619 
L 312.766629 169.868569 
L 325.591463 179.223113 
L 336.754482 187.464731 
L 347.219704 194.630082 
L 352.022693 198 
" style="fill:none;stroke:#000000;stroke-opacity:0.7;stroke-width:1.275591;"/>
    <path clip-path="url(#p88c0fbadd8)" d="M 432 226.489005 
L 436.349226 227.311526 
L 441.980816 228.662764 
L 447.635848 230.277805 
L 452.646909 232.19773 
L 457.234025 234.455263 
L 462.075638 234.086037 
L 467.718157 236.660435 
L 473.086369 239.452762 
L 478.418626 242.395062 
L 484.19022 245.42609 
L 488.616447 248.491848 
L 492.576154 251.545631 
L 495.828256 254.547721 
L 499.50792 257.464839 
L 502.023769 260.269443 
L 504.725973 262.938966 
L 507.407312 265.455019 
L 510.005899 267.802631 
L 512.22568 269.969509 
L 514.930589 271.945366 
L 517.344062 273.721286 
L 519.788077 275.289146 
L 522.191115 275.023569 
L 524.192108 276.48761 
L 525.508808 277.937516 
L 526.544594 279.356383 
L 527.20722 280.729065 
L 527.92491 282.041995 
L 528.679718 283.282997 
L 530.096863 284.441072 
L 531.997802 285.50618 
L 534.362704 286.469016 
L 536.791814 287.320779 
L 539.747334 288.052945 
L 542.552951 288.657031 
L 545.114128 289.124347 
L 547.618925 289.445743 
L 550.389745 289.611327 
L 552.929055 289.610164 
L 555.915734 289.384534 
L 558.964154 289.211489 
L 562.387176 288.876414 
L 566.120643 288.389777 
L 569.779491 287.761026 
L 572.756867 286.998877 
L 575.933598 286.111574 
L 576 286.085003 
" style="fill:none;stroke:#000000;stroke-opacity:0.7;stroke-width:1.275591;"/>
    <path clip-path="url(#p88c0fbadd8)" d="M 864 217.723875 
L 865.878584 217.055215 
L 870.870846 215.391923 
L 875.94819 213.729127 
L 881.554611 212.072048 
L 887.21021 210.426225 
L 893.601203 208.797507 
L 900.404882 207.192051 
L 907.008629 205.616316 
L 914.069747 204.077047 
L 920.670232 202.581256 
L 924.693262 202.244009 
L 931.314516 200.818651 
L 938.19846 199.482878 
L 944.635768 198.225582 
L 951.028937 197.034827 
L 956.595095 195.897939 
L 961.544132 194.801576 
L 966.797771 193.731795 
L 971.700713 192.674085 
L 976.669065 191.613401 
L 982.25749 190.534161 
L 982.8 190.428084 
" style="fill:none;stroke:#000000;stroke-opacity:0.7;stroke-width:1.275591;"/>
    <path clip-path="url(#p88c0fbadd8)" d="M 982.8 188.093498 
L 981.960565 188.259058 
L 976.37659 189.34637 
L 971.415593 190.414947 
L 966.520611 191.480544 
L 961.268575 192.558375 
L 956.322221 193.663111 
L 950.762647 194.808856 
L 944.369921 196.009102 
L 937.924848 197.276668 
L 931.038822 198.62363 
L 924.412893 200.061225 
L 920.385074 200.398472 
L 913.781563 201.90736 
L 906.721244 203.460265 
L 900.117338 205.050097 
L 893.31433 206.670037 
L 886.918036 208.313555 
L 881.253648 209.974426 
L 875.639615 211.646733 
L 870.551826 213.324878 
L 865.550841 215.003579 
L 864 215.560122 
" style="fill:none;stroke:#000000;stroke-opacity:0.7;stroke-width:1.275591;"/>
    <path clip-path="url(#p88c0fbadd8)" d="M 576 284.542897 
L 575.796505 284.625254 
L 572.618664 285.521471 
L 569.638127 286.290871 
L 565.979563 286.925089 
L 562.242857 287.415277 
L 558.818179 287.751846 
L 555.769778 287.924172 
L 552.779555 288.149802 
L 550.241781 288.147878 
L 547.477816 287.976894 
L 544.975232 287.647924 
L 542.419684 287.17098 
L 539.619442 286.555328 
L 536.6552 285.809764 
L 534.212268 284.942881 
L 531.838439 283.963309 
L 529.924927 282.87996 
L 528.499219 281.702261 
L 527.74295 280.440385 
L 527.019532 279.105477 
L 526.353598 277.709878 
L 525.315285 276.26734 
L 524.000387 274.79322 
L 522.002647 273.304657 
L 519.616339 273.570234 
L 517.175039 271.976209 
L 514.75994 270.171031 
L 512.049379 268.162922 
L 509.82724 265.960903 
L 507.228157 263.575393 
L 504.546553 261.018841 
L 501.848509 258.30642 
L 499.332887 255.456766 
L 495.643275 252.492763 
L 492.371295 249.442339 
L 488.395338 246.33925 
L 483.953636 243.223787 
L 478.172672 240.143339 
L 472.834611 237.152698 
L 467.462504 234.314018 
L 461.822564 231.696273 
L 456.973322 232.065499 
L 452.370068 229.769018 
L 447.344807 227.814984 
L 441.680154 226.170219 
L 436.040028 224.793058 
L 432 224.013097 
" style="fill:none;stroke:#000000;stroke-opacity:0.7;stroke-width:1.275591;"/>
    <path clip-path="url(#p88c0fbadd8)" d="M 355.905267 198 
L 355.523592 197.736879 
L 346.77521 191.508481 
L 336.295733 184.224292 
L 325.105642 175.846502 
L 312.246221 166.337749 
L 297.523632 155.668981 
L 279.044744 143.830355 
L 255.899055 130.846247 
L 227.846022 116.795361 
L 193.639963 101.836487 
L 152.114606 86.239379 
L 106.041592 70.417984 
L 56.087672 54.959649 
L 25.2 49.399364 
" style="fill:none;stroke:#000000;stroke-opacity:0.7;stroke-width:1.275591;"/>
    <path clip-path="url(#p88c0fbadd8)" d="M 25.2 44.055256 
L 55.519903 49.614944 
L 105.378563 65.327863 
L 151.399352 81.408278 
L 192.899993 97.25967 
L 227.122634 112.461704 
L 255.228989 126.740526 
L 278.435689 139.935002 
L 296.966078 151.965343 
L 311.725813 162.80693 
L 324.619821 172.46989 
L 335.836984 180.983854 
L 346.330717 188.38688 
L 355.096092 194.717477 
L 359.796294 198 
" style="fill:none;stroke:#000000;stroke-opacity:0.7;stroke-width:1.275591;"/>
    <path clip-path="url(#p88c0fbadd8)" d="M 432 221.539604 
L 435.730829 222.27459 
L 441.379492 223.677674 
L 447.053766 225.352164 
L 452.093227 227.340306 
L 456.71262 229.675734 
L 461.56949 229.306508 
L 467.206851 231.967601 
L 472.582854 234.852633 
L 477.926719 237.891615 
L 483.717052 241.021485 
L 488.174229 244.186651 
L 492.166435 247.339047 
L 495.458294 250.437805 
L 499.157855 253.448694 
L 501.67325 256.343397 
L 504.367133 259.098717 
L 507.049001 261.695767 
L 509.648581 264.119176 
L 511.873077 266.356335 
L 514.58929 268.396697 
L 517.006016 270.231131 
L 519.4446 271.851322 
L 521.814178 271.585745 
L 523.808667 273.09883 
L 525.121763 274.597164 
L 526.162601 276.063373 
L 526.831844 277.481889 
L 527.560989 278.838776 
L 528.318721 280.121526 
L 529.75299 281.318848 
L 531.679075 282.420437 
L 534.061832 283.416746 
L 536.518585 284.29875 
L 539.491549 285.05771 
L 542.286417 285.684929 
L 544.836337 286.1715 
L 547.336708 286.508045 
L 550.093818 286.684429 
L 552.630055 286.689441 
L 555.623823 286.46381 
L 558.672204 286.292203 
L 562.098538 285.95414 
L 565.838484 285.460401 
L 569.496762 284.820717 
L 572.480461 284.044065 
L 575.659413 283.138935 
L 576 282.99954 
" style="fill:none;stroke:#000000;stroke-opacity:0.7;stroke-width:1.275591;"/>
    <path clip-path="url(#p88c0fbadd8)" d="M 864 213.394443 
L 865.223097 212.951942 
L 870.232807 211.257833 
L 875.331041 209.56434 
L 880.952685 207.876803 
L 886.625861 206.200885 
L 893.027457 204.542567 
L 899.829794 202.908143 
L 906.433859 201.304214 
L 913.49338 199.737673 
L 920.099917 198.215688 
L 924.132525 197.878441 
L 930.763128 196.428609 
L 937.651236 195.070459 
L 944.104074 193.792621 
L 950.496356 192.582885 
L 956.049347 191.428284 
L 960.993019 190.315174 
L 966.24345 189.229294 
L 971.130474 188.155809 
L 976.084115 187.079339 
L 981.663641 185.983954 
L 982.8 185.7579 
" style="fill:none;stroke:#000000;stroke-opacity:0.7;stroke-width:1.275591;"/>
    <path clip-path="url(#p88c0fbadd8)" d="M 982.8 183.421287 
L 981.366716 183.708851 
L 975.791641 184.812307 
L 970.845354 185.896672 
L 965.96629 186.978043 
L 960.717463 188.071973 
L 955.776474 189.193457 
L 950.230066 190.356914 
L 943.838228 191.576141 
L 937.377624 192.864249 
L 930.487434 194.233588 
L 923.852157 195.695657 
L 919.814759 196.032904 
L 913.205196 197.567986 
L 906.146474 199.148162 
L 899.54225 200.766188 
L 892.740584 202.415097 
L 886.333686 204.088215 
L 880.651722 205.779181 
L 875.022466 207.481946 
L 869.913787 209.190788 
L 864.895354 210.900305 
L 864 211.226843 
" style="fill:none;stroke:#000000;stroke-opacity:0.7;stroke-width:1.275591;"/>
    <path clip-path="url(#p88c0fbadd8)" d="M 576 281.454928 
L 575.522321 281.652615 
L 572.342259 282.56666 
L 569.355398 283.350562 
L 565.697404 283.995712 
L 561.954219 284.493002 
L 558.526229 284.83256 
L 555.477867 285.003449 
L 552.480555 285.229079 
L 549.945855 285.220979 
L 547.1956 285.039196 
L 544.697441 284.695076 
L 542.15315 284.198877 
L 539.363657 283.560093 
L 536.381971 282.787736 
L 533.911395 281.890611 
L 531.519711 280.877565 
L 529.581053 279.757735 
L 528.138223 278.54079 
L 527.379029 277.237166 
L 526.644156 275.858302 
L 525.971605 274.416869 
L 524.92824 272.926989 
L 523.616947 271.404439 
L 521.62571 269.866833 
L 519.272862 270.13241 
L 516.836993 268.486054 
L 514.418641 266.622362 
L 511.696776 264.549748 
L 509.469922 262.277449 
L 506.869846 259.816142 
L 504.187712 257.178593 
L 501.497991 254.380374 
L 498.982823 251.440622 
L 495.273312 248.382847 
L 491.961575 245.235754 
L 487.95312 242.034053 
L 483.480467 238.819182 
L 477.680766 235.639892 
L 472.331096 232.552569 
L 466.951198 229.621184 
L 461.316416 226.916744 
L 456.451917 227.28597 
L 451.816386 224.911595 
L 446.762725 222.889343 
L 441.07883 221.185129 
L 435.42163 219.756121 
L 432 219.068532 
" style="fill:none;stroke:#000000;stroke-opacity:0.7;stroke-width:1.275591;"/>
    <path clip-path="url(#p88c0fbadd8)" d="M 363.747355 198 
L 362.271291 197.075546 
L 354.668591 191.698075 
L 345.886224 185.265279 
L 335.378235 177.743416 
L 324.134 169.093279 
L 311.205405 159.276111 
L 296.408523 148.261705 
L 277.826633 136.039649 
L 254.558922 122.634804 
L 226.399246 108.128046 
L 192.160023 92.682854 
L 150.684099 76.577177 
L 104.715534 60.237742 
L 54.952134 44.270238 
L 25.2 38.714561 
" style="fill:none;stroke:#000000;stroke-opacity:0.7;stroke-width:1.275591;"/>
    <path clip-path="url(#p88c0fbadd8)" d="M 25.2 33.377298 
L 54.384365 38.925533 
L 104.052505 55.147621 
L 149.968845 71.746075 
L 191.420052 88.106037 
L 225.675858 103.794388 
L 253.888855 118.529083 
L 277.217577 132.144297 
L 295.850969 144.558068 
L 310.684997 155.745291 
L 323.648179 165.716667 
L 334.919486 174.502978 
L 345.441731 182.143678 
L 354.241091 188.678673 
L 361.869948 194.142316 
L 367.949627 198 
" style="fill:none;stroke:#000000;stroke-opacity:0.7;stroke-width:1.275591;"/>
    <path clip-path="url(#p88c0fbadd8)" d="M 432 216.599884 
L 435.112431 217.237653 
L 440.778167 218.692584 
L 446.471684 220.426523 
L 451.539545 222.482883 
L 456.191215 224.896205 
L 461.063342 224.526979 
L 466.695545 227.274767 
L 472.079338 230.252505 
L 477.434813 233.388169 
L 483.243883 236.616879 
L 487.732011 239.881454 
L 491.756715 243.132462 
L 495.088331 246.327889 
L 498.807791 249.432549 
L 501.322732 252.41735 
L 504.008292 255.258468 
L 506.690691 257.936516 
L 509.291263 260.435722 
L 511.520475 262.74316 
L 514.247991 264.848028 
L 516.667971 266.740977 
L 519.101123 268.413499 
L 521.437242 268.147921 
L 523.425227 269.710049 
L 524.734718 271.256813 
L 525.780608 272.770364 
L 526.456468 274.234714 
L 527.197069 275.635556 
L 527.957724 276.960054 
L 529.409116 278.196623 
L 531.360347 279.334693 
L 533.760959 280.364476 
L 536.245357 281.276722 
L 539.235764 282.062475 
L 542.019883 282.712826 
L 544.558546 283.218652 
L 547.054491 283.570348 
L 549.797891 283.75753 
L 552.331055 283.768718 
L 555.331911 283.543087 
L 558.380253 283.372918 
L 561.809901 283.031865 
L 565.556325 282.531024 
L 569.214033 281.880408 
L 572.204056 281.089254 
L 575.385229 280.166295 
L 576 279.909056 
" style="fill:none;stroke:#000000;stroke-opacity:0.7;stroke-width:1.275591;"/>
    <path clip-path="url(#p88c0fbadd8)" d="M 864 209.057329 
L 864.56761 208.848668 
L 869.594768 207.123743 
L 874.713892 205.399552 
L 880.350759 203.681558 
L 886.041511 201.975546 
L 892.453711 200.287627 
L 899.254706 198.624234 
L 905.859089 196.992111 
L 912.917012 195.3983 
L 919.529602 193.85012 
L 923.571788 193.512873 
L 930.21174 192.038566 
L 937.104012 190.658039 
L 943.572381 189.35966 
L 949.963775 188.130943 
L 955.5036 186.95863 
L 960.441906 185.828772 
L 965.689129 184.726793 
L 970.560234 183.637534 
L 975.499166 182.545276 
L 981.069791 181.433748 
L 982.8 181.083654 
" style="fill:none;stroke:#000000;stroke-opacity:0.7;stroke-width:1.275591;"/>
    <path clip-path="url(#p88c0fbadd8)" d="M 982.8 178.744999 
L 980.772866 179.158645 
L 975.206692 180.278245 
L 970.275114 181.378396 
L 965.411969 182.475543 
L 960.16635 183.585571 
L 955.230726 184.723802 
L 949.697485 185.904972 
L 943.306534 187.14318 
L 936.8304 188.451829 
L 929.936046 189.843545 
L 923.29142 191.330088 
L 919.244444 191.667335 
L 912.628828 193.228613 
L 905.571704 194.83606 
L 898.967162 196.48228 
L 892.166839 198.160157 
L 885.749337 199.862876 
L 880.049796 201.583935 
L 874.405317 203.317159 
L 869.275748 205.056697 
L 864.239866 206.797031 
L 864 206.885906 
" style="fill:none;stroke:#000000;stroke-opacity:0.7;stroke-width:1.275591;"/>
    <path clip-path="url(#p88c0fbadd8)" d="M 576 278.361923 
L 575.248137 278.679975 
L 572.065853 279.611848 
L 569.072669 280.410254 
L 565.415245 281.066336 
L 561.665582 281.570728 
L 558.234278 281.913275 
L 555.185955 282.082726 
L 552.181555 282.308356 
L 549.649928 282.294081 
L 546.913383 282.101499 
L 544.41965 281.742229 
L 541.886616 281.226775 
L 539.107871 280.564858 
L 536.108742 279.765708 
L 533.610522 278.838341 
L 531.200983 277.791821 
L 529.23718 276.635511 
L 527.777226 275.379319 
L 527.015109 274.033947 
L 526.26878 272.611127 
L 525.589612 271.123859 
L 524.541195 269.586637 
L 523.233506 268.015659 
L 521.248774 266.429009 
L 518.929385 266.694587 
L 516.498948 264.995899 
L 514.077342 263.073693 
L 511.344174 260.936573 
L 509.112604 258.593995 
L 506.511536 256.05689 
L 503.828872 253.338344 
L 501.147473 250.454327 
L 498.632759 247.424477 
L 494.90335 244.27293 
L 491.551855 241.02917 
L 487.510902 237.728856 
L 483.007298 234.414576 
L 477.18886 231.136446 
L 471.827581 227.95244 
L 466.439893 224.92835 
L 460.810268 222.137215 
L 455.930512 222.506441 
L 451.262703 220.054171 
L 446.180643 217.963702 
L 440.477505 216.200039 
L 434.803232 214.719185 
L 432 214.133667 
" style="fill:none;stroke:#000000;stroke-opacity:0.7;stroke-width:1.275591;"/>
    <path clip-path="url(#p88c0fbadd8)" d="M 377.784791 198 
L 373.00841 195.253849 
L 368.450219 195.696134 
L 361.468606 191.209086 
L 353.81359 185.659271 
L 344.997238 179.022077 
L 334.460737 171.26254 
L 323.162359 162.340056 
L 310.164589 152.214472 
L 295.293415 140.85443 
L 276.608522 128.248944 
L 253.218788 114.423361 
L 224.95247 99.460731 
L 190.680082 83.529221 
L 149.253592 66.914974 
L 103.389476 50.0575 
L 53.816596 33.580827 
L 25.2 28.043488 
" style="fill:none;stroke:#000000;stroke-opacity:0.7;stroke-width:1.275591;"/>
    <path clip-path="url(#p88c0fbadd8)" d="M 25.2 22.713152 
L 53.248827 28.236122 
L 102.726447 44.967378 
L 148.538338 62.083872 
L 189.940112 78.952404 
L 224.229082 95.127073 
L 252.548722 110.317639 
L 275.999466 124.353592 
L 294.735861 137.150792 
L 309.644181 148.683653 
L 322.676538 158.963444 
L 334.001988 168.022102 
L 344.552745 175.900476 
L 353.38609 182.639869 
L 361.067263 188.275856 
L 368.070209 192.833507 
L 372.636544 192.391223 
L 378.866294 196.01317 
L 382.923843 198 
" style="fill:none;stroke:#000000;stroke-opacity:0.7;stroke-width:1.275591;"/>
    <path clip-path="url(#p88c0fbadd8)" d="M 432 211.669886 
L 434.494033 212.200717 
L 440.176843 213.707494 
L 445.889602 215.500882 
L 450.985862 217.62546 
L 455.66981 220.116676 
L 460.557194 219.74745 
L 466.18424 222.581933 
L 471.575823 225.652376 
L 476.942907 228.884722 
L 482.770714 232.212273 
L 487.289793 235.576257 
L 491.346995 238.925878 
L 494.718369 242.217972 
L 498.457727 245.416405 
L 500.972214 248.491304 
L 503.649452 251.41822 
L 506.332381 254.177264 
L 508.933945 256.752267 
L 511.167872 259.129986 
L 513.906692 261.299359 
L 516.329925 263.250822 
L 518.757646 264.975675 
L 521.060305 264.710098 
L 523.041786 266.321269 
L 524.347673 267.916462 
L 525.398616 269.477354 
L 526.081093 270.987539 
L 526.833148 272.432337 
L 527.596727 273.798583 
L 529.065243 275.074398 
L 531.04162 276.248949 
L 533.460086 277.312206 
L 535.972128 278.254694 
L 538.979979 279.067241 
L 541.753349 279.740724 
L 544.280754 280.265805 
L 546.772275 280.63265 
L 549.501965 280.830631 
L 552.032055 280.847994 
L 555.04 280.622364 
L 558.088303 280.453632 
L 561.521263 280.109591 
L 565.274166 279.601648 
L 568.931305 278.940099 
L 571.92765 278.134442 
L 575.111044 277.193655 
L 576 276.813523 
" style="fill:none;stroke:#000000;stroke-opacity:0.7;stroke-width:1.275591;"/>
    <path clip-path="url(#p88c0fbadd8)" d="M 864 204.714809 
L 868.956728 202.989652 
L 874.096743 201.234765 
L 879.748833 199.486313 
L 885.457162 197.750206 
L 891.879966 196.032687 
L 898.679618 194.340325 
L 905.284319 192.680008 
L 912.340644 191.058926 
L 918.959287 189.484551 
L 923.011051 189.147304 
L 929.660352 187.648524 
L 936.556789 186.245619 
L 943.040687 184.926699 
L 949.431194 183.679001 
L 954.957852 182.488975 
L 959.890794 181.34237 
L 965.134808 180.224292 
L 969.989994 179.119258 
L 974.914217 178.011214 
L 980.475942 176.883542 
L 982.8 176.405319 
" style="fill:none;stroke:#000000;stroke-opacity:0.7;stroke-width:1.275591;"/>
    <path clip-path="url(#p88c0fbadd8)" d="M 982.8 174.064609 
L 980.179017 174.608439 
L 974.621743 175.744182 
L 969.704875 176.86012 
L 964.857647 177.973042 
L 959.615237 179.099168 
L 954.684979 180.254148 
L 949.164904 181.45303 
L 942.77484 182.710219 
L 936.283177 184.039409 
L 929.384657 185.453503 
L 922.730683 186.96452 
L 918.67413 187.301767 
L 912.052461 188.889239 
L 904.996934 190.523957 
L 898.392074 192.198371 
L 891.593093 193.905217 
L 885.164987 195.637536 
L 879.44787 197.38869 
L 873.788168 199.152372 
L 868.637709 200.922607 
L 864 202.548086 
" style="fill:none;stroke:#000000;stroke-opacity:0.7;stroke-width:1.275591;"/>
    <path clip-path="url(#p88c0fbadd8)" d="M 576 275.263854 
L 574.973952 275.707335 
L 571.789448 276.657036 
L 568.78994 277.469945 
L 565.133086 278.13696 
L 561.376944 278.648454 
L 557.942328 278.993989 
L 554.894044 279.162002 
L 551.882555 279.387633 
L 549.354001 279.367182 
L 546.631166 279.163801 
L 544.141859 278.789381 
L 541.620081 278.254673 
L 538.852086 277.569623 
L 535.835514 276.74368 
L 533.309649 275.786072 
L 530.882256 274.706078 
L 528.893306 273.513286 
L 527.416229 272.217848 
L 526.651188 270.830728 
L 525.893405 269.363952 
L 525.207619 267.830849 
L 524.15415 266.246286 
L 522.850066 264.626879 
L 520.871837 262.991186 
L 518.585908 263.256763 
L 516.160902 261.505744 
L 513.736043 259.525024 
L 510.991571 257.323399 
L 508.755286 254.91054 
L 506.153226 252.297638 
L 503.470032 249.498096 
L 500.796955 246.528281 
L 498.282695 243.408332 
L 494.533388 240.163014 
L 491.142135 236.822586 
L 487.068684 233.423659 
L 482.53413 230.00997 
L 476.696954 226.632999 
L 471.324065 223.352312 
L 465.928587 220.235516 
L 460.30412 217.357686 
L 455.409107 217.726912 
L 450.709021 215.196748 
L 445.598561 213.038061 
L 439.87618 211.214949 
L 434.184834 209.682249 
L 432 209.208546 
" style="fill:none;stroke:#000000;stroke-opacity:0.7;stroke-width:1.275591;"/>
    <path clip-path="url(#p88c0fbadd8)" d="M 388.895685 198 
L 384.473843 196.160236 
L 378.523693 193.20756 
L 372.264678 189.528596 
L 367.690199 189.97088 
L 360.66592 185.342626 
L 352.958589 179.620467 
L 344.108252 172.778875 
L 333.543239 164.781664 
L 322.190717 155.586833 
L 309.123773 145.152834 
L 294.178307 133.447154 
L 275.39041 120.458239 
L 251.878655 106.211918 
L 223.505693 90.793416 
L 189.200142 74.375587 
L 147.823084 57.252771 
L 102.063418 39.877257 
L 52.681058 22.891416 
L 37.248954 19.8 
" style="fill:none;stroke:#000000;stroke-opacity:0.7;stroke-width:1.275591;"/>
    <path clip-path="url(#p88c0fbadd8)" d="M 58.555015 19.8 
L 101.400389 34.787136 
L 147.107831 52.421669 
L 188.460171 69.798771 
L 222.782305 86.459758 
L 251.208588 102.106196 
L 274.781355 116.562886 
L 293.620753 129.743516 
L 308.603364 141.622014 
L 321.704896 152.210221 
L 333.08449 161.541226 
L 343.663759 169.657274 
L 352.531089 176.601065 
L 360.264577 182.409397 
L 367.310188 187.108254 
L 371.892812 186.665969 
L 378.181092 190.401951 
L 384.146837 193.401373 
L 389.846431 195.806977 
L 395.560438 197.739788 
L 396.295774 198 
" style="fill:none;stroke:#000000;stroke-opacity:0.7;stroke-width:1.275591;"/>
    <path clip-path="url(#p88c0fbadd8)" d="M 432 206.749653 
L 433.875636 207.163781 
L 439.575518 208.722404 
L 445.30752 210.575241 
L 450.43218 212.768036 
L 455.148405 215.337148 
L 460.051046 214.967922 
L 465.672934 217.889099 
L 471.072308 221.052247 
L 476.451001 224.381276 
L 482.297545 227.807667 
L 486.847575 231.27106 
L 490.937275 234.719294 
L 494.348407 238.108056 
L 498.107663 241.40026 
L 500.621696 244.565257 
L 503.290612 247.577971 
L 505.974071 250.418012 
L 508.576628 253.068813 
L 510.81527 255.516812 
L 513.565393 257.75069 
L 515.991879 259.760667 
L 518.414169 261.537851 
L 520.683369 261.272274 
L 522.658346 262.932489 
L 523.960628 264.576111 
L 525.016623 266.184345 
L 525.705717 267.740364 
L 526.469228 269.229118 
L 527.235731 270.637112 
L 528.72137 271.952174 
L 530.722892 273.163206 
L 533.159213 274.259937 
L 535.698899 275.232666 
L 538.724194 276.072006 
L 541.486814 276.768622 
L 544.002963 277.312958 
L 546.490058 277.694953 
L 549.206038 277.903733 
L 551.733055 277.927271 
L 554.748088 277.701641 
L 557.796353 277.534346 
L 561.232625 277.187317 
L 564.992007 276.672272 
L 568.648576 275.999791 
L 571.651245 275.17963 
L 574.83686 274.221016 
L 576 273.712911 
" style="fill:none;stroke:#000000;stroke-opacity:0.7;stroke-width:1.275591;"/>
    <path clip-path="url(#p88c0fbadd8)" d="M 864 200.379764 
L 868.318689 198.855562 
L 873.479594 197.069978 
L 879.146907 195.291068 
L 884.872813 193.524866 
L 891.30622 191.777747 
L 898.10453 190.056417 
L 904.709549 188.367906 
L 911.764277 186.719552 
L 918.388972 185.118983 
L 922.450314 184.781736 
L 929.108963 183.258482 
L 936.009565 181.833199 
L 942.508994 180.493738 
L 948.898613 179.227059 
L 954.412105 178.019321 
L 959.339681 176.855967 
L 964.580487 175.721792 
L 969.419755 174.600982 
L 974.329268 173.477151 
L 979.882092 172.333335 
L 982.8 171.722866 
" style="fill:none;stroke:#000000;stroke-opacity:0.7;stroke-width:1.275591;"/>
    <path clip-path="url(#p88c0fbadd8)" d="M 982.8 169.380087 
L 979.585167 170.058232 
L 974.036794 171.21012 
L 969.134635 172.341844 
L 964.303326 173.470541 
L 959.064125 174.612766 
L 954.139231 175.784493 
L 948.632323 177.001088 
L 942.243147 178.277258 
L 935.735953 179.626989 
L 928.833269 181.063461 
L 922.169946 182.598952 
L 918.103815 182.936199 
L 911.476093 184.549865 
L 904.422164 186.211854 
L 897.816986 187.914462 
L 891.019347 189.650277 
L 884.580638 191.412196 
L 878.845944 193.193445 
L 873.171019 194.987585 
L 867.99967 196.788516 
L 864 198.209852 
" style="fill:none;stroke:#000000;stroke-opacity:0.7;stroke-width:1.275591;"/>
    <path clip-path="url(#p88c0fbadd8)" d="M 576 272.160691 
L 574.699768 272.734696 
L 571.513042 273.702224 
L 568.507211 274.529636 
L 564.850927 275.207584 
L 561.088306 275.72618 
L 557.650378 276.074703 
L 554.602133 276.241279 
L 551.583555 276.46691 
L 549.058074 276.440284 
L 546.34895 276.226104 
L 543.864067 275.836534 
L 541.353547 275.28257 
L 538.596301 274.574388 
L 535.562285 273.721651 
L 533.008777 272.733802 
L 530.563528 271.620334 
L 528.549433 270.391061 
L 527.055232 269.056376 
L 526.287267 267.627508 
L 525.518029 266.116776 
L 524.825626 264.53784 
L 523.767105 262.905935 
L 522.466625 261.238098 
L 520.494901 259.553362 
L 518.24243 259.818939 
L 515.822856 258.015589 
L 513.394744 255.976355 
L 510.638968 253.710225 
L 508.397969 251.227086 
L 505.794916 248.538386 
L 503.111192 245.657847 
L 500.446437 242.602234 
L 497.932631 239.392188 
L 494.163426 236.053098 
L 490.732415 232.616001 
L 486.626466 229.118461 
L 482.060961 225.605365 
L 476.205048 222.129553 
L 470.82055 218.752183 
L 465.417281 215.542682 
L 459.797972 212.578157 
L 454.887702 212.947383 
L 450.155339 210.339325 
L 445.016479 208.112421 
L 439.274856 206.229859 
L 433.566437 204.645313 
L 432 204.293211 
" style="fill:none;stroke:#000000;stroke-opacity:0.7;stroke-width:1.275591;"/>
    <path clip-path="url(#p88c0fbadd8)" d="M 403.159174 198 
L 403.018091 197.960007 
L 399.668481 196.643776 
L 395.246778 195.051316 
L 389.52968 193.086596 
L 383.819832 190.642511 
L 377.83849 187.596341 
L 371.520946 183.803342 
L 366.930178 184.245627 
L 359.863234 179.476167 
L 352.103589 173.581663 
L 343.219266 166.535673 
L 332.625741 158.300788 
L 321.219075 148.83361 
L 308.082956 138.091195 
L 293.063199 126.039878 
L 274.172299 112.667534 
L 250.538522 98.000474 
L 222.058917 82.1261 
L 187.720201 65.221954 
L 146.392577 47.590568 
L 100.73736 29.697015 
L 72.909289 19.8 
" style="fill:none;stroke:#000000;stroke-opacity:0.7;stroke-width:1.275591;"/>
    <path clip-path="url(#p88c0fbadd8)" d="M 86.778137 19.8 
L 100.074331 24.606894 
L 145.677323 42.759467 
L 186.980231 60.645138 
L 221.335529 77.792443 
L 249.868455 93.894753 
L 273.563244 108.772181 
L 292.505644 122.33624 
L 307.562548 134.560376 
L 320.733255 145.456998 
L 332.166992 155.06035 
L 342.774773 163.414073 
L 351.676088 170.562261 
L 359.461891 176.542937 
L 366.550168 181.383 
L 371.14908 180.940715 
L 377.495889 184.790731 
L 383.492827 187.883648 
L 389.212929 190.366215 
L 394.933118 192.362844 
L 399.352126 193.982111 
L 402.699723 195.321359 
L 406.68492 196.469922 
L 410.900398 197.511307 
L 413.174923 198 
" style="fill:none;stroke:#000000;stroke-opacity:0.7;stroke-width:1.275591;"/>
    <path clip-path="url(#p88c0fbadd8)" d="M 432 201.839227 
L 433.257238 202.126845 
L 438.974194 203.737314 
L 444.725438 205.6496 
L 449.878498 207.910613 
L 454.627 210.557619 
L 459.544898 210.188393 
L 465.161629 213.196266 
L 470.568793 216.452119 
L 475.959095 219.877829 
L 481.824376 223.403062 
L 486.405357 226.965863 
L 490.527555 230.512709 
L 493.978445 233.99814 
L 497.757598 237.384116 
L 500.271178 240.639211 
L 502.931772 243.737723 
L 505.615761 246.65876 
L 508.21931 249.385358 
L 510.462667 251.903638 
L 513.224094 254.202021 
L 515.653833 256.270512 
L 518.070692 258.100027 
L 520.306433 257.83445 
L 522.274905 259.543708 
L 523.573582 261.235759 
L 524.63463 262.891335 
L 525.330341 264.493189 
L 526.105307 266.025899 
L 526.874734 267.475641 
L 528.377496 268.829949 
L 530.404164 270.077462 
L 532.85834 271.207667 
L 535.42567 272.210637 
L 538.468409 273.076771 
L 541.22028 273.796519 
L 543.725172 274.36011 
L 546.207842 274.757255 
L 548.910111 274.976834 
L 551.434055 275.006548 
L 554.456177 274.780918 
L 557.504402 274.615061 
L 560.943988 274.265043 
L 564.709848 273.742896 
L 568.365847 273.059482 
L 571.374839 272.224819 
L 574.562676 271.248376 
L 576 270.60719 
" style="fill:none;stroke:#000000;stroke-opacity:0.7;stroke-width:1.275591;"/>
    <path clip-path="url(#p88c0fbadd8)" d="M 858.80537 198 
L 862.601148 196.538847 
L 867.68065 194.721471 
L 872.862445 192.905191 
L 878.544981 191.095822 
L 884.288463 189.299526 
L 890.732474 187.522807 
L 897.529442 185.772508 
L 904.134779 184.055803 
L 911.187909 182.380178 
L 917.818657 180.753414 
L 921.889577 180.416168 
L 928.557575 178.86844 
L 935.462341 177.420779 
L 941.9773 176.060777 
L 948.366032 174.775117 
L 953.866357 173.549666 
L 958.788568 172.369565 
L 964.026166 171.219291 
L 968.849515 170.082707 
L 973.744319 168.943089 
L 979.288243 167.783129 
L 982.8 167.036269 
" style="fill:none;stroke:#000000;stroke-opacity:0.7;stroke-width:1.275591;"/>
    <path clip-path="url(#p88c0fbadd8)" d="M 982.8 164.691407 
L 978.991318 165.508026 
L 973.451844 166.676057 
L 968.564396 167.823569 
L 963.749005 168.96804 
L 958.513012 170.126364 
L 953.593484 171.314839 
L 948.099742 172.549146 
L 941.711453 173.844297 
L 935.188729 175.214569 
L 928.281881 176.673418 
L 921.609209 178.233383 
L 917.5335 178.57063 
L 910.899725 180.210491 
L 903.847394 181.899752 
L 897.241897 183.630554 
L 890.445601 185.395337 
L 883.996288 187.186856 
L 878.244018 188.9982 
L 872.55387 190.822797 
L 867.361631 192.654426 
L 862.273405 194.48721 
L 857.558682 196.315621 
L 852.917545 198 
" style="fill:none;stroke:#000000;stroke-opacity:0.7;stroke-width:1.275591;"/>
    <path clip-path="url(#p88c0fbadd8)" d="M 576 269.052404 
L 574.425583 269.762056 
L 571.236637 270.747413 
L 568.224483 271.589327 
L 564.568768 272.278208 
L 560.799669 272.803905 
L 557.358427 273.155418 
L 554.310221 273.320556 
L 551.284555 273.546186 
L 548.762148 273.513385 
L 546.066733 273.288406 
L 543.586276 272.883686 
L 541.087013 272.310468 
L 538.340516 271.579153 
L 535.289056 270.699623 
L 532.707904 269.681532 
L 530.244801 268.53459 
L 528.205559 267.268837 
L 526.694235 265.894905 
L 525.923347 264.424289 
L 525.142653 262.869601 
L 524.443633 261.24483 
L 523.38006 259.565584 
L 522.083185 257.849318 
L 520.117964 256.115538 
L 517.898953 256.381115 
L 515.48481 254.525435 
L 513.053445 252.427686 
L 510.286366 250.097051 
L 508.040651 247.543631 
L 505.436606 244.779134 
L 502.752352 241.817599 
L 500.095919 238.676188 
L 497.582566 235.376043 
L 493.793464 231.943181 
L 490.322696 228.409417 
L 486.184248 224.813264 
L 481.587792 221.200759 
L 475.713142 217.626106 
L 470.317035 214.152054 
L 464.905976 210.849849 
L 459.291824 207.798628 
L 454.366297 208.167854 
L 449.601656 205.481901 
L 444.434397 203.18678 
L 438.673531 201.244769 
L 432.948039 199.608377 
L 432 199.387705 
" style="fill:none;stroke:#000000;stroke-opacity:0.7;stroke-width:1.275591;"/>
    <path clip-path="url(#p88c0fbadd8)" d="M 425.785972 198 
L 420.477734 197.022947 
L 415.31144 195.943723 
L 410.593021 194.912014 
L 406.371976 193.851695 
L 402.381354 192.682711 
L 399.035772 191.320446 
L 394.619458 189.674372 
L 388.896178 187.645833 
L 383.165822 185.124785 
L 377.153288 181.985121 
L 370.777214 178.078088 
L 366.170157 178.520373 
L 359.060548 173.609707 
L 351.248588 167.542859 
L 342.33028 160.292472 
L 331.708243 151.819912 
L 320.247434 142.080387 
L 307.04214 131.029556 
L 291.94809 118.632602 
L 272.954188 104.876828 
L 249.198388 89.789031 
L 220.612141 73.458785 
L 186.240261 56.068321 
L 144.96207 37.928365 
L 100.112014 19.8 
" style="fill:none;stroke:#000000;stroke-opacity:0.7;stroke-width:1.275591;"/>
   </g>
  </g>
 </g>
 <defs>
  <clipPath id="p88c0fbadd8">
   <rect height="752.4" width="957.6" x="25.2" y="19.8"/>
  </clipPath>
 </defs>
</svg>
