<?xml version="1.0" encoding="utf-8" standalone="no"?>
<!DOCTYPE svg PUBLIC "-//W3C//DTD SVG 1.1//EN"
  "http://www.w3.org/Graphics/SVG/1.1/DTD/svg11.dtd">
<!-- Created with matplotlib (https://matplotlib.org/) -->
<svg height="792pt" version="1.1" viewBox="0 0 1008 792" width="1008pt" xmlns="http://www.w3.org/2000/svg" xmlns:xlink="http://www.w3.org/1999/xlink">
 <defs>
  <style type="text/css">
*{stroke-linecap:butt;stroke-linejoin:round;}
  </style>
 </defs>
 <g id="figure_1">
  <g id="axes_1">
   <g id="LineCollection_1">
    <path clip-path="url(#p7fee5d0b58)" d="M 381.735465 772.2 
L 388.404955 759.361959 
L 397.072744 741.861294 
L 404.294432 726.23418 
L 411.071815 712.415691 
L 419.227582 700.329429 
L 425.206164 689.899396 
L 428.492874 681.058476 
L 431.911944 673.754813 
L 435.110021 673.312528 
L 436.423283 667.355619 
L 439.73774 662.408037 
L 443.694096 658.271784 
L 448.882621 654.780058 
L 453.765167 651.78848 
L 457.459173 649.168898 
L 460.511229 646.805055 
L 463.769107 644.589657 
L 468.039222 642.422558 
L 472.602689 640.209869 
L 479.732246 637.86383 
L 486.439441 635.303346 
L 490.688107 632.455043 
L 494.784492 629.254721 
L 497.495178 625.649018 
L 499.467825 621.597104 
L 503.073623 621.227877 
L 509.13391 616.779983 
L 513.871111 612.063189 
L 518.263023 607.174229 
L 522.516896 602.199156 
L 524.436098 597.212811 
L 525.763458 592.278966 
L 525.795196 587.450942 
L 527.863121 582.77255 
L 530.415742 578.279202 
L 533.792028 573.999098 
L 536.430431 569.954416 
L 538.948637 566.16244 
L 540.786485 562.636622 
L 542.57581 559.387552 
L 544.725769 556.42383 
L 547.609725 553.752871 
L 552.722966 553.487294 
L 555.250789 550.978818 
L 556.859462 548.505967 
L 557.486022 546.090164 
L 557.612647 543.75025 
L 557.402474 541.502751 
L 557.920459 539.362165 
L 557.95061 537.341266 
L 557.814738 535.451415 
L 558.733405 533.702865 
L 558.923341 532.105066 
L 560.465929 530.666968 
L 564.142216 529.397323 
L 567.615221 528.304988 
L 570.478468 527.399241 
L 574.35981 526.690112 
L 576 526.39518 
" style="fill:none;stroke:#000000;stroke-opacity:0.7;stroke-width:1.275591;"/>
    <path clip-path="url(#p7fee5d0b58)" d="M 864 543.024386 
L 864.537035 543.086894 
L 872.373321 543.95875 
L 875.550034 543.658021 
L 881.268321 544.449434 
L 887.974492 545.256828 
L 894.541038 546.077143 
L 901.819797 546.907154 
L 908.663058 547.743456 
L 915.109968 548.58246 
L 918.973046 549.420383 
L 922.552015 550.25325 
L 925.937261 551.076883 
L 930.310623 551.886907 
L 934.542514 552.678749 
L 940.074616 553.447645 
L 946.987018 554.188646 
L 953.564991 554.89663 
L 960.755524 555.566319 
L 966.865743 556.192294 
L 970.112952 555.855047 
L 975.976959 556.412078 
L 982.523599 556.888887 
L 982.8 556.910582 
" style="fill:none;stroke:#000000;stroke-opacity:0.7;stroke-width:1.275591;"/>
    <path clip-path="url(#p7fee5d0b58)" d="M 982.8 554.724694 
L 982.249987 554.682677 
L 975.701265 554.217056 
L 969.832583 553.672263 
L 966.580585 554.00951 
L 960.46734 553.396632 
L 953.277606 552.740579 
L 946.699474 552.046692 
L 939.787743 551.320175 
L 934.25034 550.566079 
L 930.00966 549.789284 
L 925.628686 548.994489 
L 922.232996 548.186205 
L 918.645303 547.368747 
L 914.777302 546.546235 
L 908.338688 545.722595 
L 901.507332 544.901557 
L 894.241804 544.086664 
L 887.685347 543.281277 
L 880.985995 542.48858 
L 875.272178 541.711593 
L 872.10042 542.012322 
L 864.280143 541.15586 
L 864 541.123731 
" style="fill:none;stroke:#000000;stroke-opacity:0.7;stroke-width:1.275591;"/>
    <path clip-path="url(#p7fee5d0b58)" d="M 576 524.906928 
L 574.211847 525.226662 
L 570.337359 525.930392 
L 567.476325 526.828564 
L 564.008949 527.911272 
L 560.338036 529.169351 
L 558.786727 530.594052 
L 558.582969 532.17673 
L 557.655374 533.908544 
L 557.778673 535.780154 
L 557.739961 537.781429 
L 557.220514 539.901141 
L 557.42496 542.126663 
L 557.295026 544.443659 
L 556.66594 546.835791 
L 555.059069 549.284428 
L 552.534497 551.768382 
L 547.437987 552.033959 
L 544.556746 554.678753 
L 542.405161 557.613218 
L 540.610184 560.830035 
L 538.769978 564.320712 
L 536.251276 568.07479 
L 533.612608 572.078974 
L 530.240482 576.316179 
L 527.688089 580.764478 
L 525.610215 585.395984 
L 525.558598 590.175674 
L 524.214989 595.060213 
L 522.280312 599.996853 
L 518.01707 604.922506 
L 513.619353 609.763125 
L 508.878257 614.433566 
L 502.820549 618.838113 
L 499.207122 619.207339 
L 497.218337 623.220307 
L 494.493451 626.791901 
L 490.387445 629.962498 
L 486.130242 632.784878 
L 479.427387 635.322548 
L 472.301389 637.648095 
L 467.734438 639.841756 
L 463.461731 641.990364 
L 460.198285 644.186828 
L 457.140804 646.53025 
L 453.448812 649.126815 
L 448.568961 652.091586 
L 443.377345 655.551403 
L 439.410735 659.649174 
L 436.080682 664.550009 
L 434.738155 670.449901 
L 431.531933 670.892186 
L 428.091531 678.125246 
L 424.778664 686.879994 
L 418.783089 697.207828 
L 410.613066 709.175253 
L 403.808611 722.857568 
L 396.552335 738.330475 
L 387.847401 755.658321 
L 379.123785 772.2 
" style="fill:none;stroke:#000000;stroke-opacity:0.7;stroke-width:1.275591;"/>
    <path clip-path="url(#p7fee5d0b58)" d="M 376.325811 772.2 
L 377.1027 770.98213 
L 387.289847 751.954683 
L 396.031927 734.799656 
L 403.322791 719.480957 
L 410.154317 705.934815 
L 418.338596 694.086227 
L 424.351163 683.860592 
L 427.690188 675.192016 
L 431.151923 668.029559 
L 434.366289 667.587274 
L 435.738081 661.744399 
L 439.08373 656.890312 
L 443.060594 652.831022 
L 448.255301 649.403114 
L 453.132458 646.46515 
L 456.822435 643.891601 
L 459.885342 641.5686 
L 463.154355 639.391071 
L 467.429653 637.260953 
L 472.000088 635.086321 
L 479.122527 632.781265 
L 485.821043 630.26641 
L 490.086783 627.469953 
L 494.20241 624.32908 
L 496.941496 620.791595 
L 498.94642 616.817575 
L 502.567475 616.448349 
L 508.622604 612.087149 
L 513.367596 607.46306 
L 517.771117 602.670783 
L 522.043727 597.79455 
L 523.99388 592.907614 
L 525.353738 588.072382 
L 525.425234 583.341026 
L 527.513057 578.756406 
L 530.065223 574.353155 
L 533.433187 570.15885 
L 536.07212 566.195164 
L 538.591319 562.478985 
L 540.433883 559.023448 
L 542.234511 555.838883 
L 544.387723 552.933675 
L 547.266248 550.315047 
L 552.346029 550.04947 
L 554.867349 547.590037 
L 556.472417 545.165615 
L 557.104029 542.797154 
L 557.237272 540.503075 
L 557.038554 538.299532 
L 557.559462 536.200693 
L 557.606737 534.219041 
L 557.49601 532.365672 
L 558.432532 530.650596 
L 558.650113 529.083038 
L 560.210144 527.671733 
L 563.875682 526.425221 
L 567.33743 525.35214 
L 570.196251 524.461543 
L 574.063884 523.763213 
L 576 523.418977 
" style="fill:none;stroke:#000000;stroke-opacity:0.7;stroke-width:1.275591;"/>
    <path clip-path="url(#p7fee5d0b58)" d="M 864 539.2222 
L 864.023251 539.224826 
L 871.827519 540.065894 
L 874.994321 539.765165 
L 880.703669 540.527726 
L 887.396201 541.305727 
L 893.94257 542.096186 
L 901.194867 542.89596 
L 908.014318 543.701734 
L 914.444636 544.510011 
L 918.317559 545.31711 
L 921.913976 546.11916 
L 925.320112 546.912096 
L 929.708697 547.691662 
L 933.958165 548.453409 
L 939.50087 549.192705 
L 946.41193 549.904737 
L 952.990221 550.584527 
L 960.179156 551.226945 
L 966.295428 551.826726 
L 969.552215 551.489479 
L 975.425571 552.022035 
L 981.976375 552.476467 
L 982.8 552.537664 
" style="fill:none;stroke:#000000;stroke-opacity:0.7;stroke-width:1.275591;"/>
    <path clip-path="url(#p7fee5d0b58)" d="M 982.8 550.349496 
L 981.702763 550.270257 
L 975.149877 549.827014 
L 969.271846 549.306695 
L 966.01027 549.643942 
L 959.890972 549.057258 
L 952.702836 548.428476 
L 946.124386 547.762783 
L 939.213997 547.065235 
L 933.66599 546.34074 
L 929.407734 545.594039 
L 925.011537 544.829702 
L 921.594957 544.052114 
L 917.989816 543.265473 
L 914.111969 542.473786 
L 907.689948 541.680872 
L 900.882402 540.890363 
L 893.643337 540.105707 
L 887.107056 539.330176 
L 880.421343 538.566872 
L 874.716465 537.818737 
L 871.554618 538.119466 
L 864 537.318562 
" style="fill:none;stroke:#000000;stroke-opacity:0.7;stroke-width:1.275591;"/>
    <path clip-path="url(#p7fee5d0b58)" d="M 576 521.931328 
L 573.91592 522.299764 
L 570.055143 522.992695 
L 567.198534 523.875717 
L 563.742415 524.939169 
L 560.082251 526.174116 
L 558.513498 527.572024 
L 558.282096 529.124461 
L 557.336646 530.8228 
L 557.4348 532.657929 
L 557.378964 534.619958 
L 556.856594 536.697922 
L 557.049584 538.879487 
L 556.913033 541.150649 
L 556.278895 543.49544 
L 554.675628 545.895647 
L 552.157561 548.330558 
L 547.094509 548.596136 
L 544.2187 551.188598 
L 542.063862 554.064549 
L 540.257582 557.216861 
L 538.41266 560.637258 
L 535.892965 564.315538 
L 533.253767 568.238725 
L 529.889964 572.390132 
L 527.338025 576.748333 
L 525.240253 581.286068 
L 525.148879 585.969089 
L 523.772771 590.755016 
L 521.807143 595.592247 
L 517.525164 600.419059 
L 513.115838 605.162996 
L 508.366951 609.740732 
L 502.314401 614.058584 
L 498.685717 614.42781 
L 496.664654 618.362883 
L 493.911369 621.86626 
L 489.78612 624.977408 
L 485.511844 627.747942 
L 478.817668 630.239982 
L 471.698788 632.524547 
L 467.124868 634.680151 
L 462.846979 636.791778 
L 459.572398 638.950373 
L 456.504066 641.252953 
L 452.816103 643.803485 
L 447.941641 646.714642 
L 442.743843 650.110641 
L 438.756724 654.131449 
L 435.39548 658.938789 
L 433.994423 664.724647 
L 430.771913 665.166932 
L 427.288845 672.258786 
L 423.923663 680.84119 
L 417.894103 690.964626 
L 409.695568 702.694377 
L 402.83697 716.104345 
L 395.511519 731.268836 
L 386.732293 748.251045 
L 376.493645 767.086777 
L 373.183601 772.2 
" style="fill:none;stroke:#000000;stroke-opacity:0.7;stroke-width:1.275591;"/>
    <path clip-path="url(#p7fee5d0b58)" d="M 369.966084 772.2 
L 375.884589 763.191424 
L 386.174739 744.547408 
L 394.991111 727.738017 
L 402.351149 712.727734 
L 409.23682 699.453939 
L 417.44961 687.843025 
L 423.496162 677.821788 
L 426.887502 669.325557 
L 430.391902 662.304305 
L 433.622557 661.862021 
L 435.052878 656.133179 
L 438.429719 651.372586 
L 442.427092 647.39026 
L 447.627981 644.02617 
L 452.499748 641.14182 
L 456.185697 638.614304 
L 459.259454 636.332145 
L 462.539602 634.192486 
L 466.820083 632.099348 
L 471.397488 629.962773 
L 478.512808 627.698699 
L 485.202645 625.229474 
L 489.485458 622.484863 
L 493.620328 619.403439 
L 496.387813 615.934172 
L 498.425015 612.038046 
L 502.061327 611.66882 
L 508.111298 607.394315 
L 512.86408 602.862931 
L 517.279211 598.167336 
L 521.570559 593.389944 
L 523.551662 588.602417 
L 524.944019 583.865797 
L 525.055272 579.23111 
L 527.162993 574.740261 
L 529.714705 570.427109 
L 533.074347 566.318601 
L 535.71381 562.435912 
L 538.234001 558.795531 
L 540.08128 555.410274 
L 541.893212 552.290214 
L 544.049677 549.44352 
L 546.922771 546.877224 
L 551.969093 546.611646 
L 554.483908 544.201257 
L 556.085372 541.825264 
L 556.722036 539.504144 
L 556.861896 537.2559 
L 556.674633 535.096313 
L 557.198466 533.039222 
L 557.262863 531.096817 
L 557.177282 529.279928 
L 558.13166 527.598326 
L 558.376884 526.06101 
L 559.954358 524.676499 
L 563.609148 523.453118 
L 567.059639 522.399293 
L 569.914034 521.523846 
L 573.767957 520.836315 
L 576 520.44398 
" style="fill:none;stroke:#000000;stroke-opacity:0.7;stroke-width:1.275591;"/>
    <path clip-path="url(#p7fee5d0b58)" d="M 864 535.413898 
L 871.281717 536.173038 
L 874.438608 535.872309 
L 880.139017 536.606018 
L 886.81791 537.354626 
L 893.344103 538.115229 
L 900.569937 538.884766 
L 907.365578 539.660011 
L 913.779303 540.437562 
L 917.662072 541.213836 
L 921.275937 541.985069 
L 924.702963 542.747309 
L 929.106771 543.496417 
L 933.373815 544.22807 
L 938.927125 544.937765 
L 945.836842 545.620829 
L 952.415451 546.272425 
L 959.602789 546.887571 
L 965.725113 547.461158 
L 968.991478 547.123911 
L 974.874183 547.631993 
L 981.429151 548.064047 
L 982.8 548.160196 
" style="fill:none;stroke:#000000;stroke-opacity:0.7;stroke-width:1.275591;"/>
    <path clip-path="url(#p7fee5d0b58)" d="M 982.8 545.969768 
L 981.155539 545.857837 
L 974.598489 545.436972 
L 968.711109 544.941126 
L 965.439955 545.278373 
L 959.314605 544.717884 
L 952.128066 544.116373 
L 945.549298 543.478874 
L 938.640252 542.810295 
L 933.081641 542.1154 
L 928.805808 541.398794 
L 924.394388 540.664915 
L 920.956917 539.918024 
L 917.334329 539.162199 
L 913.446636 538.401337 
L 907.041208 537.63915 
L 900.257472 536.879169 
L 893.044869 536.12475 
L 886.528765 535.379075 
L 879.856691 534.645164 
L 874.160752 533.925881 
L 871.008816 534.22661 
L 864 533.508324 
" style="fill:none;stroke:#000000;stroke-opacity:0.7;stroke-width:1.275591;"/>
    <path clip-path="url(#p7fee5d0b58)" d="M 576 518.956934 
L 573.619994 519.372865 
L 569.772926 520.054997 
L 566.920743 520.922869 
L 563.475881 521.967067 
L 559.826466 523.178881 
L 558.240269 524.549996 
L 557.981223 526.072191 
L 557.017919 527.737056 
L 557.090927 529.535705 
L 557.017967 531.458487 
L 556.492673 533.494703 
L 556.674208 535.632312 
L 556.53104 537.857639 
L 555.89185 540.155088 
L 554.292188 542.506867 
L 551.780625 544.892735 
L 546.751032 545.158312 
L 543.880654 547.698443 
L 541.722563 550.51588 
L 539.904979 553.603687 
L 538.055343 556.953803 
L 535.534655 560.556286 
L 532.894927 564.398477 
L 529.539446 568.464086 
L 526.98796 572.732189 
L 524.870291 577.176152 
L 524.739159 581.762505 
L 523.330553 586.449818 
L 521.333974 591.187641 
L 517.033258 595.915613 
L 512.612323 600.562867 
L 507.855646 605.047898 
L 501.808253 609.279055 
L 498.164313 609.648281 
L 496.110972 613.50546 
L 493.329287 616.940619 
L 489.184796 619.992318 
L 484.893446 622.711006 
L 478.207949 625.157416 
L 471.096187 627.400999 
L 466.515298 629.518546 
L 462.232226 631.593193 
L 458.946511 633.713918 
L 455.867328 635.975656 
L 452.183393 638.480155 
L 447.314322 641.337697 
L 442.110341 644.669878 
L 438.102714 648.613723 
L 434.710277 653.327569 
L 433.250691 658.999394 
L 430.011892 659.441679 
L 426.48616 666.392327 
L 423.068662 674.802386 
L 417.005117 684.721425 
L 408.778071 696.213501 
L 401.865328 709.351122 
L 394.470703 724.207198 
L 385.617185 740.84377 
L 375.275533 759.296072 
L 366.670915 772.2 
" style="fill:none;stroke:#000000;stroke-opacity:0.7;stroke-width:1.275591;"/>
    <path clip-path="url(#p7fee5d0b58)" d="M 363.295647 772.2 
L 374.666478 755.400719 
L 385.05963 737.140132 
L 393.950295 720.676379 
L 401.379507 705.974511 
L 408.319322 692.973063 
L 416.560624 681.599824 
L 422.641161 671.782984 
L 426.084817 663.459097 
L 429.631882 656.579052 
L 432.878825 656.136767 
L 434.367676 650.52196 
L 437.775708 645.854861 
L 441.79359 641.949497 
L 447.000662 638.649225 
L 451.867038 635.81849 
L 455.54896 633.337007 
L 458.633567 631.09569 
L 461.92485 628.9939 
L 466.210513 626.937743 
L 470.794887 624.839225 
L 477.903089 622.616134 
L 484.584248 620.192538 
L 488.884133 617.499773 
L 493.038246 614.477798 
L 495.834131 611.076748 
L 497.90361 607.258517 
L 501.555179 606.889291 
L 507.599993 602.701481 
L 512.360565 598.262803 
L 516.787305 593.663889 
L 521.09739 588.985339 
L 523.109444 584.29722 
L 524.534299 579.659213 
L 524.68531 575.121193 
L 526.812928 570.724117 
L 529.364187 566.501063 
L 532.715507 562.478353 
L 535.3555 558.67666 
L 537.876684 555.112076 
L 539.728678 551.7971 
L 541.551913 548.741545 
L 543.711631 545.953366 
L 546.579294 543.4394 
L 551.592156 543.173823 
L 554.100468 540.812477 
L 555.698327 538.484913 
L 556.340043 536.211135 
L 556.48652 534.008725 
L 556.310713 531.893093 
L 556.837469 529.877751 
L 556.91899 527.974592 
L 556.858555 526.194184 
L 557.830787 524.546056 
L 558.103655 523.038982 
L 559.698573 521.681264 
L 563.342614 520.481016 
L 566.781847 519.446446 
L 569.631818 518.586148 
L 573.47203 517.909416 
L 576 517.470191 
" style="fill:none;stroke:#000000;stroke-opacity:0.7;stroke-width:1.275591;"/>
    <path clip-path="url(#p7fee5d0b58)" d="M 864 531.601833 
L 870.735915 532.280182 
L 873.882895 531.979453 
L 879.574365 532.68431 
L 886.23962 533.403525 
L 892.745635 534.134271 
L 899.945007 534.873572 
L 906.716838 535.618289 
L 913.11397 536.365113 
L 917.006585 537.110562 
L 920.637898 537.850979 
L 924.085814 538.582522 
L 928.504845 539.301171 
L 932.789466 540.00273 
L 938.353379 540.682825 
L 945.261754 541.33692 
L 951.840681 541.960322 
L 959.026421 542.548197 
L 965.154798 543.095589 
L 968.430741 542.758342 
L 974.322795 543.241951 
L 980.881927 543.651627 
L 982.8 543.778218 
" style="fill:none;stroke:#000000;stroke-opacity:0.7;stroke-width:1.275591;"/>
    <path clip-path="url(#p7fee5d0b58)" d="M 982.8 541.585551 
L 980.608315 541.445417 
L 974.0471 541.046929 
L 968.150372 540.575558 
L 964.86964 540.912805 
L 958.738237 540.378511 
L 951.553296 539.804271 
L 944.97421 539.194966 
L 938.066506 538.555355 
L 932.497291 537.89006 
L 928.203882 537.203549 
L 923.777239 536.500128 
L 920.318878 535.783933 
L 916.678841 535.058926 
L 912.781304 534.328888 
L 906.392468 533.597427 
L 899.632542 532.867975 
L 892.446402 532.143793 
L 885.950474 531.427974 
L 879.292039 530.723456 
L 873.605039 530.033025 
L 870.463014 530.333754 
L 864 529.69442 
" style="fill:none;stroke:#000000;stroke-opacity:0.7;stroke-width:1.275591;"/>
    <path clip-path="url(#p7fee5d0b58)" d="M 576 515.983752 
L 573.324067 516.445967 
L 569.490709 517.1173 
L 566.642952 517.970022 
L 563.209347 518.994965 
L 559.570681 520.183646 
L 557.967041 521.527967 
L 557.68035 523.019921 
L 556.699191 524.651313 
L 556.747053 526.41348 
L 556.65697 528.297015 
L 556.128752 530.291484 
L 556.298833 532.385137 
L 556.149047 534.56463 
L 555.504805 536.814737 
L 553.908747 539.118087 
L 551.403688 541.454911 
L 546.407555 541.720488 
L 543.542609 544.208288 
L 541.381264 546.967211 
L 539.552376 549.990513 
L 537.698025 553.270349 
L 535.176345 556.797034 
L 532.536087 560.558228 
L 529.188928 564.538039 
L 526.637896 568.716044 
L 524.500328 573.066235 
L 524.329439 577.555921 
L 522.888335 582.144621 
L 520.860805 586.783036 
L 516.541352 591.412166 
L 512.108807 595.962738 
L 507.34434 600.355064 
L 501.302105 604.499526 
L 497.642908 604.868752 
L 495.55729 608.648037 
L 492.747205 612.014978 
L 488.583471 615.007228 
L 484.275049 617.67407 
L 477.598229 620.074851 
L 470.493587 622.27745 
L 465.905728 624.356941 
L 461.617474 626.394607 
L 458.320623 628.477463 
L 455.230591 630.698359 
L 451.550683 633.156825 
L 446.687002 635.960753 
L 441.476839 639.229116 
L 437.448703 643.095998 
L 434.025075 647.71635 
L 432.50696 653.27414 
L 429.251871 653.716425 
L 425.683474 660.525867 
L 422.213661 668.763582 
L 416.116131 678.478223 
L 407.860573 689.732625 
L 400.893687 702.597899 
L 393.429887 717.145559 
L 384.502076 733.436494 
L 374.057422 751.505367 
L 360.429462 771.338826 
L 359.639251 772.2 
" style="fill:none;stroke:#000000;stroke-opacity:0.7;stroke-width:1.275591;"/>
    <path clip-path="url(#p7fee5d0b58)" d="M 355.140515 772.2 
L 359.759395 767.233104 
L 373.448367 747.610014 
L 383.944522 729.732856 
L 392.909479 713.61474 
L 400.407866 699.221288 
L 407.401824 686.492187 
L 415.671637 675.356622 
L 421.78616 665.74418 
L 425.282131 657.592637 
L 428.871861 650.853798 
L 432.135094 650.411513 
L 433.682474 644.91074 
L 437.121698 640.337135 
L 441.160088 636.508735 
L 446.373342 633.272281 
L 451.234328 630.495161 
L 454.912222 628.05971 
L 458.00768 625.859235 
L 461.310098 623.795315 
L 465.600944 621.776138 
L 470.192286 619.715676 
L 477.29337 617.533568 
L 483.96585 615.155602 
L 488.282809 612.514683 
L 492.456164 609.552157 
L 495.280449 606.219325 
L 497.382205 602.478988 
L 501.049031 602.109762 
L 507.088687 598.008647 
L 511.85705 593.662674 
L 516.295399 589.160443 
L 520.624221 584.580733 
L 522.667226 579.992023 
L 524.124579 575.452628 
L 524.315347 571.011277 
L 526.462864 566.707972 
L 529.013669 562.575016 
L 532.356667 558.638104 
L 534.99719 554.917408 
L 537.519366 551.428622 
L 539.376075 548.183925 
L 541.210614 545.192876 
L 543.373586 542.463211 
L 546.235817 540.001576 
L 551.21522 539.735999 
L 553.717027 537.423696 
L 555.311282 535.144562 
L 555.958051 532.918125 
L 556.111145 530.76155 
L 555.946792 528.689874 
L 556.476472 526.71628 
L 556.575116 524.852368 
L 556.539827 523.108441 
L 557.529914 521.493786 
L 557.830426 520.016953 
L 559.442788 518.686029 
L 563.076079 517.508913 
L 566.504056 516.493598 
L 569.349601 515.648451 
L 573.176104 514.982517 
L 575.952054 514.505848 
L 576 514.501416 
" style="fill:none;stroke:#000000;stroke-opacity:0.7;stroke-width:1.275591;"/>
    <path clip-path="url(#p7fee5d0b58)" d="M 864 527.786078 
L 870.190113 528.387326 
L 873.327182 528.086597 
L 879.009714 528.762602 
L 885.661329 529.452424 
L 892.147168 530.153314 
L 899.320077 530.862379 
L 906.068098 531.576566 
L 912.448637 532.292664 
L 916.351098 533.007289 
L 919.999859 533.716888 
L 923.468665 534.417735 
L 927.902919 535.105926 
L 932.205117 535.77739 
L 937.779633 536.427885 
L 944.686666 537.053012 
L 951.265911 537.648219 
L 958.450053 538.208824 
L 964.584483 538.730021 
L 967.870004 538.392774 
L 973.771406 538.851908 
L 980.334703 539.239207 
L 982.8 539.391771 
" style="fill:none;stroke:#000000;stroke-opacity:0.7;stroke-width:1.275591;"/>
    <path clip-path="url(#p7fee5d0b58)" d="M 982.8 537.196884 
L 980.061091 537.032997 
L 973.495712 536.656887 
L 967.589636 536.20999 
L 964.299325 536.547237 
L 958.16187 536.039137 
L 950.978526 535.492168 
L 944.399122 534.911057 
L 937.49276 534.300415 
L 931.912942 533.66472 
L 927.601956 533.008304 
L 923.16009 532.335341 
L 919.680839 531.649843 
L 916.023354 530.955652 
L 912.115971 530.256439 
L 905.743728 529.555705 
L 899.007612 528.856782 
L 891.847934 528.162835 
L 885.372183 527.476873 
L 878.727388 526.801748 
L 873.049326 526.140169 
L 869.917212 526.440898 
L 864 525.876803 
" style="fill:none;stroke:#000000;stroke-opacity:0.7;stroke-width:1.275591;"/>
    <path clip-path="url(#p7fee5d0b58)" d="M 576 513.027262 
L 575.802554 513.045487 
L 573.02814 513.519068 
L 569.208493 514.179602 
L 566.36516 515.017174 
L 562.942812 516.022862 
L 559.314896 517.188411 
L 557.693812 518.505939 
L 557.379477 519.967651 
L 556.380463 521.565569 
L 556.40318 523.291255 
L 556.295974 525.135544 
L 555.764832 527.088265 
L 555.923457 529.137962 
L 555.767054 531.27162 
L 555.117759 533.474386 
L 553.525307 535.729306 
L 551.026752 538.017087 
L 546.064078 538.282664 
L 543.204563 540.718133 
L 541.039965 543.418542 
L 539.199774 546.377338 
L 537.340707 549.586895 
L 534.818035 553.037783 
L 532.177247 556.71798 
L 528.83841 560.611993 
L 526.287832 564.6999 
L 524.130366 568.956319 
L 523.919719 573.349336 
L 522.446117 577.839424 
L 520.387636 582.37843 
L 516.049445 586.90872 
L 511.605292 591.36261 
L 506.833034 595.66223 
L 500.795957 599.719997 
L 497.121503 600.089223 
L 495.003608 603.790613 
L 492.165123 607.089337 
L 487.982147 610.022139 
L 483.656651 612.637134 
L 476.98851 614.992285 
L 469.890986 617.153902 
L 465.296159 619.195336 
L 461.002721 621.196022 
L 457.694736 623.241008 
L 454.593853 625.421062 
L 450.917973 627.833496 
L 446.059682 630.583809 
L 440.843337 633.788353 
L 436.794692 637.578273 
L 433.339873 642.10513 
L 431.763228 647.548887 
L 428.491851 647.991171 
L 424.880788 654.659407 
L 421.35866 662.724778 
L 415.227144 672.235021 
L 406.943075 683.251749 
L 399.922045 695.844676 
L 392.389071 710.083921 
L 383.386968 726.029218 
L 372.839311 743.714661 
L 359.089329 763.127383 
L 350.53807 772.2 
" style="fill:none;stroke:#000000;stroke-opacity:0.7;stroke-width:1.275591;"/>
    <path clip-path="url(#p7fee5d0b58)" d="M 345.828509 772.2 
L 358.419262 759.021661 
L 372.230255 739.819309 
L 382.829414 722.32558 
L 391.868662 706.553101 
L 399.436224 692.468065 
L 406.484326 680.01131 
L 414.782651 669.11342 
L 420.93116 659.705376 
L 424.479445 651.726177 
L 428.11184 645.128544 
L 431.391362 644.68626 
L 432.997272 639.29952 
L 436.467687 634.81941 
L 440.526586 631.067972 
L 445.746022 627.895337 
L 450.601618 625.171831 
L 454.275484 622.782414 
L 457.381792 620.62278 
L 460.695345 618.596729 
L 464.991374 616.614533 
L 469.589686 614.592128 
L 476.683651 612.451002 
L 483.347452 610.118666 
L 487.681484 607.529594 
L 491.874082 604.626516 
L 494.726766 601.361902 
L 496.8608 597.699459 
L 500.542883 597.330233 
L 506.577382 593.315813 
L 511.353534 589.062545 
L 515.803492 584.656996 
L 520.151052 580.176127 
L 522.225008 575.686826 
L 523.714859 571.246044 
L 523.945385 566.901361 
L 526.1128 562.691827 
L 528.663151 558.64897 
L 531.997827 554.797855 
L 534.63888 551.158157 
L 537.162048 547.745167 
L 539.023473 544.570751 
L 540.869315 541.644207 
L 543.03554 538.973056 
L 545.89234 536.563752 
L 550.838284 536.298175 
L 553.333587 534.034916 
L 554.924237 531.80421 
L 555.576058 529.625115 
L 555.735769 527.514374 
L 555.582872 525.486655 
L 556.115475 523.554809 
L 556.231243 521.730143 
L 556.2211 520.022697 
L 557.229041 518.441517 
L 557.557198 516.994925 
L 559.187003 515.690794 
L 562.809545 514.536811 
L 566.226265 513.540751 
L 569.067385 512.710753 
L 572.880177 512.055619 
L 575.653054 511.585125 
L 576 511.553147 
" style="fill:none;stroke:#000000;stroke-opacity:0.7;stroke-width:1.275591;"/>
    <path clip-path="url(#p7fee5d0b58)" d="M 864 523.966588 
L 869.644311 524.49447 
L 872.771469 524.193741 
L 878.445062 524.840894 
L 885.083038 525.501323 
L 891.5487 526.172357 
L 898.695147 526.851185 
L 905.419358 527.534844 
L 911.783304 528.220215 
L 915.695611 528.904015 
L 919.36182 529.582798 
L 922.851516 530.252947 
L 927.300992 530.910681 
L 931.620767 531.55205 
L 937.205887 532.172945 
L 944.111578 532.769103 
L 950.691141 533.336117 
L 957.873686 533.86945 
L 964.014168 534.364452 
L 967.309267 534.027206 
L 973.220018 534.461866 
L 979.787479 534.826787 
L 982.8 535.000894 
" style="fill:none;stroke:#000000;stroke-opacity:0.7;stroke-width:1.275591;"/>
    <path clip-path="url(#p7fee5d0b58)" d="M 982.8 532.803807 
L 979.513867 532.620578 
L 972.944324 532.266845 
L 967.028899 531.844421 
L 963.72901 532.181668 
L 957.585502 531.699763 
L 950.403756 531.180065 
L 943.824034 530.627149 
L 936.919014 530.045475 
L 931.328592 529.43938 
L 927.000029 528.813059 
L 922.542941 528.170554 
L 919.0428 527.515752 
L 915.367867 526.852378 
L 911.450638 526.18399 
L 905.094987 525.513983 
L 898.382681 524.845588 
L 891.249466 524.181878 
L 884.793893 523.525772 
L 878.162736 522.880041 
L 872.493613 522.247313 
L 869.37141 522.548042 
L 864 522.055428 
" style="fill:none;stroke:#000000;stroke-opacity:0.7;stroke-width:1.275591;"/>
    <path clip-path="url(#p7fee5d0b58)" d="M 576 510.079072 
L 575.503554 510.124764 
L 572.732213 510.59217 
L 568.926276 511.241905 
L 566.087369 512.064327 
L 562.676278 513.05076 
L 559.059111 514.193177 
L 557.420583 515.483911 
L 557.078605 516.915382 
L 556.061736 518.479825 
L 556.059306 520.169031 
L 555.934977 521.974073 
L 555.400911 523.885045 
L 555.548081 525.890787 
L 555.385061 527.978611 
L 554.730714 530.134035 
L 553.141866 532.340526 
L 550.649815 534.579263 
L 545.720601 534.84484 
L 542.866517 537.227978 
L 540.698666 539.869873 
L 538.847171 542.764164 
L 536.983389 545.90344 
L 534.459725 549.278531 
L 531.818407 552.877731 
L 528.487892 556.685947 
L 525.937768 560.683755 
L 523.760404 564.846403 
L 523.509999 569.142752 
L 522.003899 573.534227 
L 519.914468 577.973824 
L 515.557539 582.405273 
L 511.101777 586.762481 
L 506.321729 590.969396 
L 500.289809 594.940469 
L 496.600098 595.309695 
L 494.449925 598.93319 
L 491.583041 602.163696 
L 487.380822 605.037049 
L 483.038253 607.600198 
L 476.378791 609.909719 
L 469.288385 612.030354 
L 464.686589 614.033731 
L 460.387969 615.997437 
L 457.068849 618.004552 
L 453.957115 620.143765 
L 450.285264 622.510166 
L 445.432362 625.206864 
L 440.209835 628.347591 
L 436.140682 632.060547 
L 432.654671 636.493911 
L 431.019496 641.823633 
L 427.73183 642.265918 
L 424.078102 648.792947 
L 420.503659 656.685974 
L 414.338158 665.991819 
L 406.025577 676.770872 
L 398.950403 689.091453 
L 391.348254 703.022282 
L 382.27186 718.621942 
L 371.6212 735.923956 
L 357.749195 754.91594 
L 341.008276 772.2 
" style="fill:none;stroke:#000000;stroke-opacity:0.7;stroke-width:1.275591;"/>
    <path clip-path="url(#p7fee5d0b58)" d="M 335.588049 772.2 
L 337.077628 771.177658 
L 357.079129 750.810218 
L 371.012144 732.028603 
L 381.714306 714.918304 
L 390.827846 699.491463 
L 398.464583 685.714841 
L 405.566828 673.530434 
L 413.893665 662.870218 
L 420.076159 653.666572 
L 423.676759 645.859718 
L 427.35182 639.403291 
L 430.64763 638.961006 
L 432.312069 633.688301 
L 435.813676 629.301684 
L 439.893084 625.62721 
L 445.118702 622.518392 
L 449.968909 619.848501 
L 453.638746 617.505117 
L 456.755905 615.386325 
L 460.080593 613.398144 
L 464.381804 611.452928 
L 468.987085 609.46858 
L 476.073932 607.368437 
L 482.729054 605.081729 
L 487.08016 602.544504 
L 491.292 599.700876 
L 494.173084 596.504478 
L 496.339395 592.91993 
L 500.036735 592.550704 
L 506.066076 588.622979 
L 510.850019 584.462417 
L 515.311586 580.15355 
L 519.677883 575.771521 
L 521.78279 571.381629 
L 523.305139 567.03946 
L 523.575423 562.791445 
L 525.762736 558.675683 
L 528.312632 554.722923 
L 531.638987 550.957607 
L 534.28057 547.398905 
L 536.80473 544.061713 
L 538.67087 540.957577 
L 540.528016 538.095538 
L 542.697494 535.482901 
L 545.548862 533.125929 
L 550.461347 532.860351 
L 552.950146 530.646136 
L 554.537192 528.463859 
L 555.194065 526.332106 
L 555.360393 524.267199 
L 555.218951 522.283436 
L 555.754478 520.393337 
L 555.88737 518.607918 
L 555.902372 516.936954 
L 556.928168 515.389247 
L 557.283969 513.972897 
L 558.931218 512.695559 
L 562.543011 511.564709 
L 565.948473 510.587903 
L 568.785168 509.773056 
L 572.58425 509.12872 
L 575.354054 508.664402 
L 576 508.605036 
" style="fill:none;stroke:#000000;stroke-opacity:0.7;stroke-width:1.275591;"/>
    <path clip-path="url(#p7fee5d0b58)" d="M 864 520.143316 
L 869.098509 520.601614 
L 872.215756 520.300885 
L 877.88041 520.919187 
L 884.504747 521.550222 
L 890.950233 522.1914 
L 898.070216 522.839991 
L 904.770617 523.493121 
L 911.117972 524.147766 
L 915.040123 524.800741 
L 918.72378 525.448707 
L 922.234367 526.08816 
L 926.699066 526.715436 
L 931.036418 527.32671 
L 936.632141 527.918005 
L 943.53649 528.485194 
L 950.116371 529.024014 
L 957.297318 529.530076 
L 963.443853 529.998884 
L 966.74853 529.661637 
L 972.66863 530.071824 
L 979.240255 530.414368 
L 982.8 530.605626 
" style="fill:none;stroke:#000000;stroke-opacity:0.7;stroke-width:1.275591;"/>
    <path clip-path="url(#p7fee5d0b58)" d="M 982.8 528.406358 
L 978.966643 528.208158 
L 972.392936 527.876803 
L 966.468162 527.478853 
L 963.158695 527.8161 
L 957.009134 527.360389 
L 949.828986 526.867963 
L 943.248946 526.34324 
L 936.345268 525.790535 
L 930.744243 525.214041 
L 926.398103 524.617813 
L 921.925792 524.005767 
L 918.404761 523.381662 
L 914.71238 522.749104 
L 910.785305 522.111541 
L 904.446247 521.47226 
L 897.757751 520.834394 
L 890.650999 520.200921 
L 884.215602 519.574671 
L 877.598084 518.958333 
L 871.9379 518.354457 
L 868.825608 518.655186 
L 864 518.230247 
" style="fill:none;stroke:#000000;stroke-opacity:0.7;stroke-width:1.275591;"/>
    <path clip-path="url(#p7fee5d0b58)" d="M 576 507.13104 
L 575.204554 507.20404 
L 572.436287 507.665271 
L 568.64406 508.304207 
L 565.809578 509.11148 
L 562.409744 510.078657 
L 558.803325 511.197942 
L 557.147355 512.461883 
L 556.777732 513.863112 
L 555.743008 515.394082 
L 555.715433 517.046806 
L 555.57398 518.812602 
L 555.036991 520.681826 
L 555.172706 522.643612 
L 555.003068 524.685601 
L 554.343669 526.793683 
L 552.758426 528.951746 
L 550.272879 531.141439 
L 545.377124 531.407017 
L 542.528471 533.737823 
L 540.357367 536.321204 
L 538.494569 539.15099 
L 536.626071 542.219986 
L 534.101415 545.519279 
L 531.459566 549.037483 
L 528.137373 552.7599 
L 525.587704 556.66761 
L 523.390442 560.736486 
L 523.10028 564.936168 
L 521.561681 569.22903 
L 519.441299 573.569218 
L 515.065633 577.901827 
L 510.598261 582.162352 
L 505.810423 586.276562 
L 499.783661 590.16094 
L 496.078693 590.530166 
L 493.896243 594.075767 
L 491.000959 597.238055 
L 486.779497 600.051959 
L 482.419856 602.563261 
L 475.769072 604.827154 
L 468.685785 606.906806 
L 464.077019 608.872126 
L 459.773217 610.798851 
L 456.442961 612.768097 
L 453.320377 614.866468 
L 449.652554 617.186836 
L 444.805042 619.82992 
L 439.576333 622.906829 
L 435.486671 626.542822 
L 431.969468 630.882691 
L 430.275764 636.098379 
L 426.971809 636.540664 
L 423.275416 642.926488 
L 419.648658 650.64717 
L 413.449172 659.748617 
L 405.108079 670.289996 
L 397.978762 682.33823 
L 390.307438 695.960644 
L 381.156752 711.214666 
L 370.403088 728.133251 
L 356.409062 746.704496 
L 336.354239 766.844001 
L 328.458084 772.2 
" style="fill:none;stroke:#000000;stroke-opacity:0.7;stroke-width:1.275591;"/>
    <path clip-path="url(#p7fee5d0b58)" d="M 321.174895 772.2 
L 335.630851 762.510343 
L 355.738995 742.598775 
L 369.794033 724.237898 
L 380.599197 707.511029 
L 389.78703 692.429824 
L 397.492941 678.961618 
L 404.64933 667.049558 
L 413.004679 656.627016 
L 419.221158 647.627769 
L 422.874073 639.993258 
L 426.591799 633.678037 
L 429.903898 633.235752 
L 431.626867 628.077081 
L 435.159666 623.783959 
L 439.259582 620.186447 
L 444.491382 617.141448 
L 449.336199 614.525171 
L 453.002008 612.22782 
L 456.130018 610.14987 
L 459.46584 608.199558 
L 463.772234 606.291323 
L 468.384485 604.345032 
L 475.464213 602.285871 
L 482.110657 600.044793 
L 486.478835 597.559414 
L 490.709918 594.775235 
L 493.619402 591.647055 
L 495.81799 588.140401 
L 499.530587 587.771175 
L 505.55477 583.930145 
L 510.346504 579.862288 
L 514.81968 575.650103 
L 519.204714 571.366916 
L 521.340572 567.076432 
L 522.89542 562.832875 
L 523.205461 558.681528 
L 525.412671 554.659538 
L 527.962114 550.796877 
L 531.280146 547.117358 
L 533.92226 543.639653 
L 536.447413 540.378259 
L 538.318268 537.344403 
L 540.186717 534.546869 
L 542.359448 531.992746 
L 545.205385 529.688105 
L 550.084411 529.422528 
L 552.566706 527.257355 
L 554.150147 525.123508 
L 554.812072 523.039096 
L 554.985018 521.020024 
L 554.85503 519.080216 
L 555.393482 517.231866 
L 555.543496 515.485694 
L 555.583644 513.85121 
L 556.627295 512.336977 
L 557.01074 510.950869 
L 558.675433 509.700324 
L 562.276477 508.592606 
L 565.670682 507.635056 
L 568.502951 506.835358 
L 572.288323 506.201822 
L 575.055054 505.743679 
L 576 505.657083 
" style="fill:none;stroke:#000000;stroke-opacity:0.7;stroke-width:1.275591;"/>
    <path clip-path="url(#p7fee5d0b58)" d="M 864 516.316215 
L 868.552708 516.708758 
L 871.660043 516.408029 
L 877.315758 516.997479 
L 883.926456 517.599121 
L 890.351765 518.210442 
L 897.445286 518.828797 
L 904.121877 519.451399 
L 910.452639 520.075317 
L 914.384636 520.697468 
L 918.085741 521.314617 
L 921.617218 521.923373 
L 926.09714 522.520191 
L 930.452068 523.101371 
L 936.058395 523.663065 
L 942.961402 524.201286 
L 949.541601 524.711911 
L 956.72095 525.190702 
L 962.873538 525.633316 
L 966.187793 525.296069 
L 972.117242 525.681781 
L 978.693031 526.001948 
L 982.8 526.206007 
" style="fill:none;stroke:#000000;stroke-opacity:0.7;stroke-width:1.275591;"/>
    <path clip-path="url(#p7fee5d0b58)" d="M 982.8 524.004577 
L 978.419419 523.795738 
L 971.841548 523.48676 
L 965.907425 523.113285 
L 962.58838 523.450532 
L 956.432767 523.021016 
L 949.254217 522.55586 
L 942.673858 522.059332 
L 935.771522 521.535595 
L 930.159894 520.988701 
L 925.796177 520.422568 
L 921.308643 519.84098 
L 917.766722 519.247572 
L 914.056893 518.645831 
L 910.119972 518.039092 
L 903.797507 517.430538 
L 897.132821 516.8232 
L 890.052531 516.219964 
L 883.637311 515.62357 
L 877.033432 515.036625 
L 871.382187 514.461601 
L 868.279807 514.76233 
L 864 514.401213 
" style="fill:none;stroke:#000000;stroke-opacity:0.7;stroke-width:1.275591;"/>
    <path clip-path="url(#p7fee5d0b58)" d="M 576 504.183166 
L 574.905554 504.283317 
L 572.14036 504.738372 
L 568.361843 505.36651 
L 565.531787 506.158632 
L 562.14321 507.106555 
L 558.54754 508.202707 
L 556.874126 509.439854 
L 556.476859 510.810842 
L 555.424281 512.308338 
L 555.371559 513.924581 
L 555.212983 515.651131 
L 554.67307 517.478607 
L 554.79733 519.396437 
L 554.621075 521.392591 
L 553.956624 523.453332 
L 552.374985 525.562965 
L 549.895942 527.703616 
L 545.033647 527.969193 
L 542.190425 530.247669 
L 540.016068 532.772535 
L 538.141966 535.537816 
L 536.268754 538.536531 
L 533.743105 541.760027 
L 531.100726 545.197234 
L 527.786855 548.833854 
L 525.237639 552.651466 
L 523.02048 556.62657 
L 522.69056 560.729583 
L 521.119463 564.923833 
L 518.96813 569.164613 
L 514.573727 573.39838 
L 510.094746 577.562223 
L 505.299118 581.583728 
L 499.277513 585.381411 
L 495.557288 585.750637 
L 493.342561 589.218343 
L 490.418877 592.312414 
L 486.178173 595.066869 
L 481.801458 597.526325 
L 475.159353 599.744588 
L 468.083184 601.783258 
L 463.467449 603.71052 
L 459.158464 605.600266 
L 455.817074 607.531642 
L 452.68364 609.589171 
L 449.019844 611.863506 
L 444.177723 614.452976 
L 438.942831 617.466066 
L 434.832661 621.025096 
L 431.284266 625.271471 
L 429.532032 630.373126 
L 426.211789 630.81541 
L 422.47273 637.060028 
L 418.793657 644.608367 
L 412.560186 653.505415 
L 404.190581 663.80912 
L 397.00712 675.585007 
L 389.266622 688.899005 
L 380.041643 703.807391 
L 369.184977 720.342545 
L 355.068928 738.493053 
L 334.907463 758.176686 
L 313.733166 772.2 
" style="fill:none;stroke:#000000;stroke-opacity:0.7;stroke-width:1.275591;"/>
    <path clip-path="url(#p7fee5d0b58)" d="M 306.127334 772.2 
L 334.184075 753.843028 
L 354.398862 734.387331 
L 368.575922 716.447193 
L 379.484089 700.103753 
L 388.746214 685.368186 
L 396.521299 672.208395 
L 403.731832 660.568682 
L 412.115693 650.383815 
L 418.366157 641.588965 
L 422.071387 634.126798 
L 425.831778 627.952784 
L 429.160166 627.510499 
L 430.941665 622.465862 
L 434.505655 618.266233 
L 438.62608 614.745685 
L 443.864063 611.764504 
L 448.703489 609.201841 
L 452.365271 606.950523 
L 455.50413 604.913415 
L 458.851088 603.000973 
L 463.162665 601.129718 
L 467.781884 599.221483 
L 474.854494 597.203305 
L 481.492259 595.007857 
L 485.877511 592.574324 
L 490.127836 589.849594 
L 493.065719 586.789632 
L 495.296585 583.360872 
L 499.024439 582.991646 
L 505.043465 579.237312 
L 509.842988 575.262159 
L 514.327774 571.146657 
L 518.731546 566.96231 
L 520.898354 562.771235 
L 522.4857 558.626291 
L 522.835498 554.571612 
L 525.062607 550.643394 
L 527.611596 546.870831 
L 530.921306 543.27711 
L 533.56395 539.880401 
L 536.090095 536.694804 
L 537.965665 533.731229 
L 539.845418 530.9982 
L 542.021403 528.502591 
L 544.861908 526.250281 
L 549.707474 525.984704 
L 552.183265 523.868575 
L 553.763102 521.783157 
L 554.430079 519.746086 
L 554.609642 517.772849 
L 554.49111 515.876997 
L 555.032485 514.070395 
L 555.199623 512.363469 
L 555.264917 510.765466 
L 556.326422 509.284707 
L 556.737511 507.92884 
L 558.419648 506.705089 
L 562.009943 505.620504 
L 565.392891 504.682209 
L 568.220735 503.897661 
L 571.992397 503.274923 
L 574.756054 502.822956 
L 576 502.709287 
" style="fill:none;stroke:#000000;stroke-opacity:0.7;stroke-width:1.275591;"/>
    <path clip-path="url(#p7fee5d0b58)" d="M 864 512.485235 
L 868.006906 512.815902 
L 871.10433 512.515173 
L 876.751106 513.075771 
L 883.348166 513.64802 
L 889.753298 514.229485 
L 896.820356 514.817603 
L 903.473137 515.409677 
L 909.787306 516.002868 
L 913.729149 516.594194 
L 917.447702 517.180526 
L 921.000069 517.758586 
L 925.495214 518.324946 
L 929.867719 518.876031 
L 935.48465 519.408125 
L 942.386314 519.917377 
L 948.966832 520.399809 
L 956.144583 520.851329 
L 962.303223 521.267747 
L 965.627056 520.9305 
L 971.565854 521.291739 
L 978.145807 521.589528 
L 982.8 521.802073 
" style="fill:none;stroke:#000000;stroke-opacity:0.7;stroke-width:1.275591;"/>
    <path clip-path="url(#p7fee5d0b58)" d="M 982.8 519.598501 
L 977.872196 519.383318 
L 971.29016 519.096718 
L 965.346688 518.747716 
L 962.018066 519.084963 
L 955.856399 518.681642 
L 948.679447 518.243758 
L 942.09877 517.775423 
L 935.197777 517.280655 
L 929.575544 516.763361 
L 925.194251 516.227323 
L 920.691494 515.676192 
L 917.128683 515.113481 
L 913.401405 514.542557 
L 909.45464 513.966643 
L 903.148767 513.388815 
L 896.507891 512.812006 
L 889.454064 512.239006 
L 883.05902 511.672469 
L 876.46878 511.114917 
L 870.826474 510.568745 
L 867.734005 510.869474 
L 864 510.568275 
" style="fill:none;stroke:#000000;stroke-opacity:0.7;stroke-width:1.275591;"/>
    <path clip-path="url(#p7fee5d0b58)" d="M 576 501.235447 
L 574.606554 501.362594 
L 571.844433 501.811474 
L 568.079627 502.428812 
L 565.253995 503.205785 
L 561.876676 504.134453 
L 558.291755 505.207472 
L 556.600897 506.417826 
L 556.175986 507.758572 
L 555.105553 509.222594 
L 555.027686 510.802357 
L 554.851986 512.489659 
L 554.30915 514.275388 
L 554.421954 516.149261 
L 554.239082 518.099582 
L 553.569579 520.112981 
L 551.991545 522.174185 
L 549.519006 524.265792 
L 544.69017 524.531369 
L 541.85238 526.757514 
L 539.674769 529.223866 
L 537.789364 531.924641 
L 535.911436 534.853077 
L 533.384795 538.000775 
L 530.741886 541.356986 
L 527.436337 544.907807 
L 524.887575 548.635321 
L 522.650517 552.516654 
L 522.28084 556.522999 
L 520.677245 560.618636 
L 518.494961 564.760007 
L 514.081821 568.894934 
L 509.591231 572.962095 
L 504.787812 576.890895 
L 498.771365 580.601882 
L 495.035883 580.971108 
L 492.788878 584.36092 
L 489.836795 587.386773 
L 485.576848 590.081779 
L 481.18306 592.489389 
L 474.549634 594.662022 
L 467.480584 596.659709 
L 462.85788 598.548915 
L 458.543712 600.40168 
L 455.191187 602.295187 
L 452.046902 604.311874 
L 448.387134 606.540176 
L 443.550403 609.076031 
L 438.30933 612.025304 
L 434.17865 615.507371 
L 430.599064 619.660252 
L 428.7883 624.647872 
L 425.451768 625.090157 
L 421.670044 631.193568 
L 417.938656 638.569563 
L 411.6712 647.262214 
L 403.273083 657.328244 
L 396.035479 668.831784 
L 388.225806 681.837366 
L 378.926535 696.400115 
L 367.966866 712.55184 
L 353.728795 730.28161 
L 333.460687 749.50937 
L 301.67562 770.051704 
L 297.171765 772.2 
" style="fill:none;stroke:#000000;stroke-opacity:0.7;stroke-width:1.275591;"/>
    <path clip-path="url(#p7fee5d0b58)" d="M 286.675892 772.2 
L 300.93565 765.474887 
L 332.737299 745.175713 
L 353.058728 726.175888 
L 367.35781 708.656487 
L 378.368981 692.696477 
L 387.705398 678.306547 
L 395.549658 665.455172 
L 402.814334 654.087806 
L 411.226707 644.140613 
L 417.511156 635.550161 
L 421.268701 628.260338 
L 425.071758 622.22753 
L 428.416434 621.785245 
L 430.256463 616.854642 
L 433.851645 612.748508 
L 437.992579 609.304923 
L 443.236743 606.387559 
L 448.070779 603.878511 
L 451.728533 601.673226 
L 454.878243 599.67696 
L 458.236335 597.802387 
L 462.553095 595.968113 
L 467.179283 594.097935 
L 474.244774 592.12074 
L 480.873861 589.970921 
L 485.276186 587.589234 
L 489.545754 584.923953 
L 492.512037 581.932208 
L 494.77518 578.581343 
L 498.518291 578.212117 
L 504.532159 574.544478 
L 509.339473 570.66203 
L 513.835868 566.64321 
L 518.258377 562.557704 
L 520.456136 558.466037 
L 522.07598 554.419707 
L 522.465536 550.461696 
L 524.712543 546.627249 
L 527.261078 542.944784 
L 530.562466 539.436861 
L 533.20564 536.121149 
L 535.732777 533.01135 
L 537.613063 530.118054 
L 539.504119 527.449531 
L 541.683357 525.012436 
L 544.518431 522.812457 
L 549.330538 522.54688 
L 551.799825 520.479795 
L 553.376056 518.442805 
L 554.048086 516.453077 
L 554.234267 514.525674 
L 554.127189 512.673778 
L 554.671488 510.908924 
L 554.855749 509.241245 
L 554.946189 507.679723 
L 556.02555 506.232438 
L 556.464283 504.906812 
L 558.163863 503.709855 
L 561.743409 502.648402 
L 565.1151 501.729361 
L 567.938518 500.959963 
L 571.69647 500.348025 
L 574.457054 499.902233 
L 576 499.761645 
" style="fill:none;stroke:#000000;stroke-opacity:0.7;stroke-width:1.275591;"/>
    <path clip-path="url(#p7fee5d0b58)" d="M 864 508.650327 
L 867.461104 508.923046 
L 870.548617 508.622317 
L 876.186455 509.154063 
L 882.769875 509.696919 
L 889.15483 510.248528 
L 896.195426 510.806409 
L 902.824397 511.367954 
L 909.121973 511.930419 
L 913.073662 512.49092 
L 916.809663 513.046436 
L 920.382919 513.593799 
L 924.893288 514.1297 
L 929.283369 514.650691 
L 934.910904 515.153185 
L 941.811226 515.633469 
L 948.392062 516.087706 
L 955.568215 516.511955 
L 961.732908 516.902179 
L 965.066319 516.564932 
L 971.014465 516.901697 
L 977.598584 517.177108 
L 982.8 517.393864 
" style="fill:none;stroke:#000000;stroke-opacity:0.7;stroke-width:1.275591;"/>
    <path clip-path="url(#p7fee5d0b58)" d="M 982.8 515.186106 
L 982.651862 515.182288 
L 977.324972 514.970898 
L 970.738771 514.706676 
L 964.785951 514.382148 
L 961.447751 514.719395 
L 955.280031 514.342268 
L 948.104677 513.931655 
L 941.523681 513.491514 
L 934.624031 513.025715 
L 928.991195 512.538021 
L 924.592325 512.032078 
L 920.074345 511.511405 
L 916.490643 510.979391 
L 912.745918 510.439283 
L 908.789307 509.894194 
L 902.500027 509.347093 
L 895.882961 508.800812 
L 888.855596 508.258049 
L 882.480729 507.721368 
L 875.904129 507.193209 
L 870.270761 506.675889 
L 867.188203 506.976618 
L 864 506.731385 
" style="fill:none;stroke:#000000;stroke-opacity:0.7;stroke-width:1.275591;"/>
    <path clip-path="url(#p7fee5d0b58)" d="M 576 498.287882 
L 574.307554 498.441871 
L 571.548506 498.884575 
L 567.79741 499.491115 
L 564.976204 500.252937 
L 561.610142 501.16235 
L 558.03597 502.212237 
L 556.327668 503.395798 
L 555.875113 504.706303 
L 554.786826 506.136851 
L 554.683813 507.680132 
L 554.49099 509.328188 
L 553.945229 511.072168 
L 554.046579 512.902086 
L 553.857089 514.806572 
L 553.182534 516.77263 
L 551.608104 518.785405 
L 549.14207 520.827968 
L 544.346692 521.093545 
L 541.514334 523.267359 
L 539.33347 525.675197 
L 537.436761 528.311467 
L 535.554118 531.169622 
L 533.026485 534.241523 
L 530.383046 537.516737 
L 527.085819 540.981761 
L 524.537511 544.619177 
L 522.280555 548.406737 
L 521.87112 552.316414 
L 520.235027 556.313439 
L 518.021792 560.355401 
L 513.589915 564.391487 
L 509.087715 568.361966 
L 504.276507 572.198061 
L 498.265217 575.822353 
L 494.514478 576.191579 
L 492.235196 579.503497 
L 489.254713 582.461132 
L 484.975524 585.096689 
L 480.564662 587.452453 
L 473.939915 589.579457 
L 466.877983 591.536161 
L 462.24831 593.38731 
L 457.928959 595.203095 
L 454.565299 597.058732 
L 451.410164 599.034577 
L 447.754424 601.216846 
L 442.923083 603.699087 
L 437.675828 606.584541 
L 433.524639 609.989645 
L 429.913862 614.049032 
L 428.044568 618.922618 
L 424.691747 619.364903 
L 420.867359 625.327108 
L 417.083656 632.530759 
L 410.782214 641.019012 
L 402.355585 650.847368 
L 395.063837 662.078561 
L 387.184989 674.775728 
L 377.811427 688.992839 
L 366.748755 704.761135 
L 352.388662 722.070166 
L 332.013911 740.842055 
L 300.195679 760.898071 
L 275.954742 772.2 
" style="fill:none;stroke:#000000;stroke-opacity:0.7;stroke-width:1.275591;"/>
    <path clip-path="url(#p7fee5d0b58)" d="M 265.000039 772.2 
L 299.455709 756.321254 
L 331.290523 736.508398 
L 351.718595 717.964445 
L 366.139699 700.865782 
L 377.253873 685.289201 
L 386.664581 671.244908 
L 394.578016 658.701949 
L 401.896836 647.60693 
L 410.337721 637.897411 
L 416.656155 629.511357 
L 420.466016 622.393879 
L 424.311737 616.502276 
L 427.672702 616.059992 
L 429.57126 611.243422 
L 433.197634 607.230783 
L 437.359077 603.86416 
L 442.609423 601.010615 
L 447.43807 598.555181 
L 451.091795 596.395929 
L 454.252356 594.440505 
L 457.621583 592.603802 
L 461.943525 590.806508 
L 466.576683 588.974387 
L 473.635055 587.038174 
L 480.255464 584.933985 
L 484.674861 582.604144 
L 488.963672 579.998312 
L 491.958355 577.074785 
L 494.253775 573.801815 
L 498.012143 573.432589 
L 504.020854 569.851644 
L 508.835958 566.061902 
L 513.343962 562.139764 
L 517.785208 558.153098 
L 520.013918 554.16084 
L 521.66626 550.213122 
L 522.095574 546.351779 
L 524.362479 542.611104 
L 526.91056 539.018738 
L 530.203626 535.596613 
L 532.847329 532.361898 
L 535.375459 529.327895 
L 537.26046 526.50488 
L 539.16282 523.900862 
L 541.345311 521.522281 
L 544.174954 519.374634 
L 548.953601 519.109056 
L 551.416384 517.091014 
L 552.989011 515.102454 
L 553.666093 513.160067 
L 553.858891 511.278499 
L 553.763269 509.470559 
L 554.310491 507.747453 
L 554.511876 506.11902 
L 554.627462 504.593979 
L 555.724677 503.180168 
L 556.191054 501.884784 
L 557.908077 500.71462 
L 561.476875 499.676299 
L 564.837308 498.776514 
L 567.656302 498.022266 
L 571.400543 497.421126 
L 574.158054 496.981509 
L 576 496.814158 
" style="fill:none;stroke:#000000;stroke-opacity:0.7;stroke-width:1.275591;"/>
    <path clip-path="url(#p7fee5d0b58)" d="M 864 504.811441 
L 866.915302 505.03019 
L 869.992904 504.729461 
L 875.621803 505.232355 
L 882.191584 505.745818 
L 888.556363 506.267571 
L 895.570496 506.795216 
L 902.175657 507.326232 
L 908.45664 507.857969 
L 912.418175 508.387647 
L 916.171624 508.912345 
L 919.76577 509.429012 
L 924.291362 509.934455 
L 928.69902 510.425351 
L 934.337158 510.898245 
L 941.236137 511.34956 
L 947.817292 511.775604 
L 954.991848 512.172581 
L 961.162593 512.536611 
L 964.505583 512.199364 
L 970.463077 512.511655 
L 977.05136 512.764688 
L 982.386016 512.965808 
L 982.8 512.975869 
" style="fill:none;stroke:#000000;stroke-opacity:0.7;stroke-width:1.275591;"/>
    <path clip-path="url(#p7fee5d0b58)" d="M 982.8 510.764851 
L 982.120169 510.749327 
L 976.777748 510.558478 
L 970.187383 510.316633 
L 964.225214 510.01658 
L 960.877436 510.353826 
L 954.703664 510.002894 
L 947.529907 509.619552 
L 940.948593 509.207606 
L 934.050285 508.770775 
L 928.406845 508.312681 
L 923.990399 507.836833 
L 919.457196 507.346618 
L 915.852604 506.8453 
L 912.090431 506.33601 
L 908.123974 505.821745 
L 901.851287 505.305371 
L 895.258031 504.789619 
L 888.257129 504.277092 
L 881.902439 503.770267 
L 875.339477 503.271501 
L 869.715048 502.783033 
L 866.642401 503.083762 
L 864 502.890491 
" style="fill:none;stroke:#000000;stroke-opacity:0.7;stroke-width:1.275591;"/>
    <path clip-path="url(#p7fee5d0b58)" d="M 576 495.340471 
L 574.008554 495.521148 
L 571.25258 495.957677 
L 567.515193 496.553417 
L 564.698413 497.30009 
L 561.343608 498.190248 
L 557.780185 499.217002 
L 556.05444 500.37377 
L 555.57424 501.654033 
L 554.468098 503.051107 
L 554.339939 504.557908 
L 554.129993 506.166717 
L 553.581309 507.868949 
L 553.671203 509.654911 
L 553.475096 511.513562 
L 552.795489 513.432278 
L 551.224664 515.396624 
L 548.765133 517.390144 
L 544.003215 517.655722 
L 541.176288 519.777204 
L 538.992171 522.126528 
L 537.084159 524.698293 
L 535.1968 527.486168 
L 532.668174 530.482272 
L 530.024206 533.676488 
L 526.735301 537.055715 
L 524.187447 540.603032 
L 521.910593 544.296821 
L 521.4614 548.10983 
L 519.792809 552.008242 
L 517.548623 555.950795 
L 513.098009 559.888041 
L 508.5842 563.761837 
L 503.765201 567.505227 
L 497.759069 571.042824 
L 493.993073 571.41205 
L 491.681514 574.646073 
L 488.672631 577.535491 
L 484.374199 580.111599 
L 479.946265 582.415517 
L 473.330196 584.496891 
L 466.275382 586.412613 
L 461.63874 588.225705 
L 457.314207 590.004509 
L 453.939412 591.822277 
L 450.773426 593.75728 
L 447.121715 595.893516 
L 442.295763 598.322143 
L 437.042326 601.143779 
L 432.870629 604.47192 
L 429.228659 608.437812 
L 427.300836 613.197365 
L 423.931727 613.639649 
L 420.064673 619.460649 
L 416.228655 626.491955 
L 409.893227 634.77581 
L 401.438087 644.366492 
L 394.092195 655.325338 
L 386.144173 667.714089 
L 376.696319 681.585563 
L 365.530643 696.97043 
L 351.048528 713.858723 
L 330.567135 732.17474 
L 298.715739 751.744438 
L 253.803096 772.2 
" style="fill:none;stroke:#000000;stroke-opacity:0.7;stroke-width:1.275591;"/>
    <path clip-path="url(#p7fee5d0b58)" d="M 240.6382 772.2 
L 252.965369 767.424679 
L 297.975769 747.167621 
L 329.843746 727.841082 
L 350.378462 709.753001 
L 364.921588 693.075077 
L 376.138764 677.881925 
L 385.623765 664.18327 
L 393.606375 651.948726 
L 400.979338 641.126054 
L 409.448734 631.654209 
L 415.801154 623.472553 
L 419.66333 616.527419 
L 423.551716 610.777023 
L 426.92897 610.334738 
L 428.886058 605.632203 
L 432.543623 601.713057 
L 436.725575 598.423398 
L 441.982103 595.63367 
L 446.80536 593.231851 
L 450.455057 591.118632 
L 453.626469 589.20405 
L 457.006831 587.405216 
L 461.333955 585.644903 
L 465.974082 583.850839 
L 473.025336 581.955608 
L 479.637066 579.897049 
L 484.073537 577.619054 
L 488.38159 575.072671 
L 491.404672 572.217362 
L 493.732371 569.022286 
L 497.505995 568.65306 
L 503.509548 565.15881 
L 508.332442 561.461773 
L 512.852056 557.636317 
L 517.312039 553.748493 
L 519.5717 549.855643 
L 521.25654 546.006538 
L 521.725612 542.241863 
L 524.012415 538.59496 
L 526.560041 535.092691 
L 529.844786 531.756364 
L 532.489019 528.602646 
L 535.018142 525.644441 
L 536.907857 522.891706 
L 538.821521 520.352193 
L 541.007265 518.032127 
L 543.831477 515.93681 
L 548.576665 515.671233 
L 551.032943 513.702234 
L 552.601966 511.762103 
L 553.2841 509.867058 
L 553.483515 508.031324 
L 553.399348 506.26734 
L 553.949494 504.585981 
L 554.168003 502.996795 
L 554.308734 501.508235 
L 555.423804 500.127898 
L 555.917825 498.862756 
L 557.652292 497.719385 
L 561.210341 496.704197 
L 564.559517 495.823666 
L 567.374085 495.084568 
L 571.104616 494.494227 
L 573.859054 494.060786 
L 576 493.866822 
" style="fill:none;stroke:#000000;stroke-opacity:0.7;stroke-width:1.275591;"/>
    <path clip-path="url(#p7fee5d0b58)" d="M 864 500.968527 
L 866.3695 501.137334 
L 869.437191 500.836605 
L 875.057151 501.310647 
L 881.613293 501.794717 
L 887.957895 502.286613 
L 894.945566 502.784022 
L 901.526917 503.284509 
L 907.791308 503.78552 
L 911.762687 504.284373 
L 915.533585 504.778255 
L 919.148621 505.264225 
L 923.689436 505.73921 
L 928.114671 506.200011 
L 933.763412 506.643305 
L 940.661049 507.065651 
L 947.242522 507.463501 
L 954.41548 507.833208 
L 960.592278 508.171042 
L 963.944846 507.833795 
L 969.911689 508.121612 
L 976.504136 508.352268 
L 981.854322 508.532847 
L 982.8 508.553053 
" style="fill:none;stroke:#000000;stroke-opacity:0.7;stroke-width:1.275591;"/>
    <path clip-path="url(#p7fee5d0b58)" d="M 982.8 506.340473 
L 981.588475 506.316367 
L 976.230524 506.146058 
L 969.635995 505.926591 
L 963.664477 505.651011 
L 960.307121 505.988258 
L 954.127296 505.663521 
L 946.955137 505.30745 
L 940.373505 504.923697 
L 933.476539 504.515835 
L 927.822496 504.087341 
L 923.388473 503.641587 
L 918.840047 503.181831 
L 915.214565 502.71121 
L 911.434944 502.232736 
L 907.458641 501.749296 
L 901.202547 501.263648 
L 894.633101 500.778425 
L 887.658661 500.296135 
L 881.324148 499.819166 
L 874.774825 499.349793 
L 869.159335 498.890177 
L 866.096599 499.190906 
L 864 499.045542 
" style="fill:none;stroke:#000000;stroke-opacity:0.7;stroke-width:1.275591;"/>
    <path clip-path="url(#p7fee5d0b58)" d="M 576 492.393211 
L 573.709554 492.600425 
L 570.956653 493.030778 
L 567.232977 493.61572 
L 564.420621 494.347243 
L 561.077073 495.218146 
L 557.5244 496.221767 
L 555.781211 497.351741 
L 555.273367 498.601763 
L 554.14937 499.965364 
L 553.996066 501.435683 
L 553.768996 503.005246 
L 553.217388 504.66573 
L 553.295827 506.407736 
L 553.093104 508.220553 
L 552.408444 510.091927 
L 550.841223 512.007844 
L 548.388197 513.952321 
L 543.659738 514.217898 
L 540.838242 516.287049 
L 538.650872 518.577859 
L 536.731556 521.085119 
L 534.839483 523.802714 
L 532.309864 526.72302 
L 529.665366 529.83624 
L 526.384782 533.129668 
L 523.837383 536.586888 
L 521.540631 540.186905 
L 521.051681 543.903246 
L 519.350592 547.703045 
L 517.075455 551.54619 
L 512.606102 555.384594 
L 508.080685 559.161709 
L 503.253895 562.812393 
L 497.252921 566.263295 
L 493.471668 566.632521 
L 491.127831 569.78865 
L 488.090549 572.60985 
L 483.772875 575.126509 
L 479.327867 577.378581 
L 472.720477 579.414326 
L 465.672782 581.289065 
L 461.029171 583.0641 
L 456.699454 584.805924 
L 453.313525 586.585822 
L 450.136688 588.479983 
L 446.489005 590.570187 
L 441.668443 592.945198 
L 436.408824 595.703016 
L 432.216618 598.954194 
L 428.543457 602.826593 
L 426.557105 607.472111 
L 423.171706 607.914396 
L 419.261987 613.594189 
L 415.373654 620.453151 
L 409.004241 628.532608 
L 400.520589 637.885616 
L 393.120554 648.572115 
L 385.103357 660.652451 
L 375.58121 674.178287 
L 364.312532 689.179724 
L 349.708395 705.64728 
L 329.120358 723.507425 
L 297.235798 742.590805 
L 252.250116 762.593578 
L 227.162098 772.2 
" style="fill:none;stroke:#000000;stroke-opacity:0.7;stroke-width:1.275591;"/>
    <path clip-path="url(#p7fee5d0b58)" d="M 213.383453 772.2 
L 251.534862 757.762476 
L 296.495828 738.013988 
L 328.39697 719.173767 
L 349.038328 701.541558 
L 363.703477 685.284372 
L 375.023656 670.47465 
L 384.582949 657.121631 
L 392.634733 645.195503 
L 400.06184 634.645178 
L 408.559748 625.411007 
L 414.946153 617.433749 
L 418.860644 610.660959 
L 422.791696 605.051769 
L 426.185239 604.609484 
L 428.200856 600.020983 
L 431.889613 596.195332 
L 436.092073 592.982635 
L 441.354783 590.256726 
L 446.17265 587.908522 
L 449.818319 585.841335 
L 453.000581 583.967595 
L 456.392078 582.206631 
L 460.724386 580.483298 
L 465.371481 578.72729 
L 472.415617 576.873043 
L 479.018668 574.860113 
L 483.472212 572.633965 
L 487.799508 570.14703 
L 490.85099 567.359938 
L 493.210966 564.242757 
L 496.999847 563.873531 
L 502.998243 560.465976 
L 507.828927 556.861644 
L 512.360149 553.132871 
L 516.83887 549.343887 
L 519.129483 545.550446 
L 520.846821 541.799953 
L 521.355649 538.131947 
L 523.66235 534.578815 
L 526.209523 531.166645 
L 529.485945 527.916116 
L 532.130709 524.843394 
L 534.660824 521.960986 
L 536.555255 519.278532 
L 538.480222 516.803524 
L 540.66922 514.541972 
L 543.488 512.498986 
L 548.199729 512.233409 
L 550.649503 510.313454 
L 552.214921 508.421752 
L 552.902107 506.574048 
L 553.10814 504.784149 
L 553.035428 503.06412 
L 553.588498 501.42451 
L 553.824129 499.874571 
L 553.990007 498.422492 
L 555.122931 497.075628 
L 555.644597 495.840727 
L 557.396507 494.72415 
L 560.943806 493.732094 
L 564.281726 492.870819 
L 567.091869 492.146871 
L 570.80869 491.567329 
L 573.560054 491.140063 
L 576 490.919638 
" style="fill:none;stroke:#000000;stroke-opacity:0.7;stroke-width:1.275591;"/>
    <path clip-path="url(#p7fee5d0b58)" d="M 864 497.121531 
L 865.823698 497.244478 
L 868.881478 496.943749 
L 874.492499 497.388939 
L 881.035002 497.843616 
L 887.359427 498.305656 
L 894.320635 498.772828 
L 900.878177 499.242787 
L 907.125975 499.713071 
L 911.1072 500.181099 
L 914.895546 500.644165 
L 918.531472 501.099438 
L 923.08751 501.543965 
L 927.530321 501.974672 
L 933.189666 502.388365 
L 940.085961 502.781743 
L 946.667752 503.151398 
L 953.839112 503.493834 
L 960.021963 503.805474 
L 963.384109 503.468227 
L 969.360301 503.73157 
L 975.956912 503.939848 
L 981.322628 504.099886 
L 982.8 504.127112 
" style="fill:none;stroke:#000000;stroke-opacity:0.7;stroke-width:1.275591;"/>
    <path clip-path="url(#p7fee5d0b58)" d="M 982.8 501.912969 
L 981.056782 501.883406 
L 975.6833 501.733639 
L 969.084607 501.536549 
L 963.10374 501.285443 
L 959.736806 501.62269 
L 953.550929 501.324147 
L 946.380367 500.995347 
L 939.798417 500.639789 
L 932.902793 500.260895 
L 927.238146 499.862002 
L 922.786547 499.446342 
L 918.222898 499.017044 
L 914.576526 498.577119 
L 910.779457 498.129462 
L 906.793308 497.676847 
L 900.553807 497.221926 
L 894.00817 496.767231 
L 887.060194 496.315177 
L 880.745857 495.868065 
L 874.210173 495.428085 
L 868.603622 494.997321 
L 865.550797 495.298051 
L 864 495.196487 
" style="fill:none;stroke:#000000;stroke-opacity:0.7;stroke-width:1.275591;"/>
    <path clip-path="url(#p7fee5d0b58)" d="M 576 489.44621 
L 575.911662 489.454071 
L 573.410554 489.679701 
L 570.660726 490.10388 
L 566.95076 490.678022 
L 564.14283 491.394395 
L 560.810539 492.246043 
L 557.268615 493.226533 
L 555.507982 494.329713 
L 554.972495 495.549493 
L 553.830643 496.87962 
L 553.652192 498.313458 
L 553.407999 499.843775 
L 552.853467 501.462511 
L 552.920452 503.160561 
L 552.711111 504.927543 
L 552.021398 506.751576 
L 550.457783 508.619064 
L 548.01126 510.514497 
L 543.316261 510.780074 
L 540.500197 512.796894 
L 538.309573 515.02919 
L 536.378954 517.471944 
L 534.482165 520.119259 
L 531.951554 522.963768 
L 529.306525 525.995991 
L 526.034264 529.203622 
L 523.487318 532.570743 
L 521.170668 536.076989 
L 520.641961 539.696661 
L 518.908374 543.397848 
L 516.602286 547.141584 
L 512.114196 550.881148 
L 507.577169 554.56158 
L 502.74259 558.119559 
L 496.746773 561.483766 
L 492.950263 561.852992 
L 490.574149 564.931227 
L 487.508467 567.684209 
L 483.17155 570.14142 
L 478.709469 572.341645 
L 472.110758 574.33176 
L 465.070181 576.165516 
L 460.419601 577.902495 
L 456.084702 579.607338 
L 452.687638 581.349367 
L 449.499951 583.202686 
L 445.856295 585.246857 
L 441.041124 587.568254 
L 435.775322 590.262254 
L 432 593.1069 
" style="fill:none;stroke:#000000;stroke-opacity:0.7;stroke-width:1.275591;"/>
    <path clip-path="url(#p7fee5d0b58)" d="M 431.010194 594 
L 427.858255 597.215373 
L 425.813373 601.746857 
L 422.411686 602.189142 
L 418.459301 607.727729 
L 414.518653 614.414347 
L 408.115255 622.289406 
L 399.603091 631.40474 
L 392.148912 641.818892 
L 384.062541 653.590812 
L 374.466102 666.771012 
L 363.094421 681.389019 
L 348.368261 697.435836 
L 327.673582 714.84011 
L 295.755858 733.437172 
L 250.819608 752.931375 
L 199.290466 772.2 
" style="fill:none;stroke:#000000;stroke-opacity:0.7;stroke-width:1.275591;"/>
    <path clip-path="url(#p7fee5d0b58)" d="M 182.486513 772.2 
L 196.876574 767.76459 
L 250.104355 748.100273 
L 295.015888 728.860355 
L 326.950194 710.506452 
L 347.698195 693.330115 
L 362.485365 677.493666 
L 373.908548 663.067374 
L 383.542133 650.059993 
L 391.663091 638.44228 
L 399.144342 628.164302 
L 407.670762 619.167805 
L 414.091153 611.394945 
L 418.057958 604.794499 
L 422.031675 599.326515 
L 425.441507 598.884231 
L 427.515654 594.409763 
L 427.924077 594 
" style="fill:none;stroke:#000000;stroke-opacity:0.7;stroke-width:1.275591;"/>
    <path clip-path="url(#p7fee5d0b58)" d="M 432 590.110008 
L 435.458571 587.541873 
L 440.727464 584.879782 
L 445.53994 582.585192 
L 449.181582 580.564038 
L 452.374694 578.73114 
L 455.777326 577.008046 
L 460.114816 575.321693 
L 464.768881 573.603742 
L 471.805898 571.790477 
L 478.40027 569.823177 
L 482.870888 567.648875 
L 487.217426 565.221389 
L 490.297308 562.502515 
L 492.689561 559.463228 
L 496.493699 559.094002 
L 502.486937 555.773142 
L 507.325412 552.261516 
L 511.868243 548.629424 
L 516.365701 544.939281 
L 518.687265 541.245249 
L 520.437101 537.593369 
L 520.985687 534.02203 
L 523.312286 530.562671 
L 525.859005 527.240599 
L 529.127105 524.075867 
L 531.772399 521.084142 
L 534.303506 518.277532 
L 536.202652 515.665357 
L 538.138923 513.254855 
L 540.331174 511.051817 
L 543.144522 509.061162 
L 547.822792 508.795585 
L 550.266062 506.924673 
L 551.827876 505.0814 
L 552.520114 503.281038 
L 552.732764 501.536973 
L 552.671507 499.860901 
L 553.227501 498.263039 
L 553.480256 496.752346 
L 553.671279 495.336748 
L 554.822058 494.023359 
L 555.371368 492.818699 
L 557.140722 491.728915 
L 560.677272 490.759992 
L 564.003935 489.917971 
L 566.809652 489.209173 
L 570.512763 488.64043 
L 573.261054 488.21934 
L 575.765706 487.993709 
L 576 487.972915 
" style="fill:none;stroke:#000000;stroke-opacity:0.7;stroke-width:1.275591;"/>
    <path clip-path="url(#p7fee5d0b58)" d="M 864 493.270402 
L 865.277896 493.351623 
L 868.325765 493.050893 
L 873.927847 493.467231 
L 880.456712 493.892515 
L 886.76096 494.324699 
L 893.695705 494.761634 
L 900.229437 495.201064 
L 906.460642 495.640622 
L 910.451713 496.077826 
L 914.257507 496.510074 
L 917.914323 496.93465 
L 922.485584 497.34872 
L 926.945972 497.749332 
L 932.61592 498.133425 
L 939.510873 498.497834 
L 946.092982 498.839296 
L 953.262745 499.15446 
L 959.451648 499.439906 
L 962.823372 499.102659 
L 968.808913 499.341528 
L 975.409688 499.527429 
L 980.790935 499.666925 
L 982.8 499.698045 
" style="fill:none;stroke:#000000;stroke-opacity:0.7;stroke-width:1.275591;"/>
    <path clip-path="url(#p7fee5d0b58)" d="M 982.8 497.48234 
L 980.525088 497.450445 
L 975.136076 497.321219 
L 968.533219 497.146506 
L 962.543003 496.919874 
L 959.166491 497.257121 
L 952.974561 496.984773 
L 945.805597 496.683244 
L 939.223329 496.35588 
L 932.329047 496.005955 
L 926.653797 495.636662 
L 922.184621 495.251097 
L 917.605749 494.852257 
L 913.938487 494.443029 
L 910.123969 494.026189 
L 906.127976 493.604398 
L 899.905066 493.180203 
L 893.38324 492.756037 
L 886.461726 492.33422 
L 880.167566 491.916964 
L 873.645522 491.506377 
L 868.047908 491.104465 
L 865.004995 491.405195 
L 864 491.343271 
" style="fill:none;stroke:#000000;stroke-opacity:0.7;stroke-width:1.275591;"/>
    <path clip-path="url(#p7fee5d0b58)" d="M 576 486.499688 
L 575.61975 486.533348 
L 573.111554 486.758978 
L 570.3648 487.176981 
L 566.668544 487.740325 
L 563.865039 488.441548 
L 560.544005 489.273941 
L 557.01283 490.231298 
L 555.234753 491.307685 
L 554.671622 492.497224 
L 553.511915 493.793876 
L 553.308319 495.191234 
L 553.047002 496.682303 
L 552.489547 498.259292 
L 552.545076 499.913386 
L 552.329118 501.634533 
L 551.634353 503.411225 
L 550.074342 505.230283 
L 547.634324 507.076673 
L 542.972784 507.34225 
L 540.162151 509.306739 
L 537.968274 511.480521 
L 536.026351 513.85877 
L 534.124847 516.435805 
L 531.593244 519.204516 
L 528.947685 522.155743 
L 525.683746 525.277575 
L 523.137254 528.554598 
L 520.800706 531.967072 
L 520.232241 535.490077 
L 518.466156 539.092651 
L 516.129117 542.736978 
L 511.62229 546.377701 
L 507.073654 549.961451 
L 502.231284 553.426725 
L 496.240625 556.704237 
L 492.428858 557.073463 
L 490.020467 560.073803 
L 486.926385 562.758568 
L 482.570225 565.15633 
L 478.091072 567.304709 
L 471.501038 569.249194 
L 464.46758 571.041968 
L 459.810031 572.74089 
L 455.469949 574.408753 
L 452.06175 576.112912 
L 448.863213 577.925389 
L 445.223585 579.923527 
L 440.413804 582.19131 
L 435.14182 584.821492 
L 432 587.120215 
" style="fill:none;stroke:#000000;stroke-opacity:0.7;stroke-width:1.275591;"/>
    <path clip-path="url(#p7fee5d0b58)" d="M 426.032247 594 
L 425.069641 596.021604 
L 421.651665 596.463889 
L 417.656615 601.861269 
L 413.663652 608.375543 
L 407.226269 616.046205 
L 398.685593 624.923864 
L 391.177271 635.065669 
L 383.021724 646.529173 
L 373.350994 659.363736 
L 361.87631 673.598314 
L 347.028128 689.224393 
L 326.226806 706.172794 
L 294.275917 724.283538 
L 249.389101 743.269172 
L 196.213545 762.674469 
L 164.946127 772.2 
" style="fill:none;stroke:#000000;stroke-opacity:0.7;stroke-width:1.275591;"/>
    <path clip-path="url(#p7fee5d0b58)" d="M 147.002598 772.2 
L 195.550516 757.584348 
L 248.673847 738.438071 
L 293.535947 719.706722 
L 325.503418 701.839137 
L 346.358061 685.118671 
L 361.267254 669.702961 
L 372.79344 655.660098 
L 382.501316 642.998354 
L 390.69145 631.689057 
L 398.226844 621.683426 
L 406.781776 612.924604 
L 413.236152 605.356141 
L 417.255272 598.928039 
L 420.971006 594 
" style="fill:none;stroke:#000000;stroke-opacity:0.7;stroke-width:1.275591;"/>
    <path clip-path="url(#p7fee5d0b58)" d="M 432 584.137468 
L 434.825069 582.10111 
L 440.100144 579.502837 
L 444.90723 577.261862 
L 448.544844 575.286741 
L 451.748807 573.494685 
L 455.162573 571.80946 
L 459.505246 570.160088 
L 464.16628 568.480194 
L 471.196179 566.707911 
L 477.781873 564.786241 
L 482.269563 562.663785 
L 486.635344 560.295748 
L 489.743625 557.645092 
L 492.168156 554.683699 
L 495.987551 554.314473 
L 501.975631 551.080308 
L 506.821896 547.661387 
L 511.376337 544.125978 
L 515.892533 540.534675 
L 518.245047 536.940052 
L 520.027381 533.386785 
L 520.615725 529.912114 
L 522.962222 526.546526 
L 525.508487 523.314552 
L 528.768265 520.235619 
L 531.414089 517.32489 
L 533.946188 514.594077 
L 535.85005 512.052183 
L 537.797624 509.706187 
L 539.993128 507.561662 
L 542.801045 505.623338 
L 547.445856 505.357761 
L 549.882622 503.535893 
L 551.440831 501.741049 
L 552.138121 499.988029 
L 552.357388 498.289798 
L 552.307587 496.657682 
L 552.866504 495.101568 
L 553.136382 493.630121 
L 553.352551 492.251004 
L 554.521185 490.971089 
L 555.098139 489.796671 
L 556.884937 488.73368 
L 560.410738 487.78789 
L 563.726143 486.965124 
L 566.527435 486.271476 
L 570.216836 485.713532 
L 572.962054 485.298617 
L 575.473795 485.072986 
L 576 485.02653 
" style="fill:none;stroke:#000000;stroke-opacity:0.7;stroke-width:1.275591;"/>
    <path clip-path="url(#p7fee5d0b58)" d="M 864 489.415085 
L 864.732095 489.458767 
L 867.770052 489.158037 
L 873.363196 489.545523 
L 879.878421 489.941414 
L 886.162492 490.343742 
L 893.070775 490.75044 
L 899.580696 491.159342 
L 905.795309 491.568173 
L 909.796226 491.974552 
L 913.619467 492.375984 
L 917.297174 492.769863 
L 921.883658 493.153475 
L 926.361622 493.523992 
L 932.042174 493.878485 
L 938.935785 494.213926 
L 945.518212 494.527193 
L 952.686377 494.815086 
L 958.881333 495.074337 
L 962.262635 494.73709 
L 968.257525 494.951485 
L 974.862464 495.115009 
L 980.259241 495.233964 
L 982.8 495.265852 
" style="fill:none;stroke:#000000;stroke-opacity:0.7;stroke-width:1.275591;"/>
   </g>
  </g>
 </g>
 <defs>
  <clipPath id="p7fee5d0b58">
   <rect height="752.4" width="957.6" x="25.2" y="19.8"/>
  </clipPath>
 </defs>
</svg>
