<?xml version="1.0" encoding="utf-8" standalone="no"?>
<!DOCTYPE svg PUBLIC "-//W3C//DTD SVG 1.1//EN"
  "http://www.w3.org/Graphics/SVG/1.1/DTD/svg11.dtd">
<!-- Created with matplotlib (https://matplotlib.org/) -->
<svg height="792pt" version="1.1" viewBox="0 0 1008 792" width="1008pt" xmlns="http://www.w3.org/2000/svg" xmlns:xlink="http://www.w3.org/1999/xlink">
 <defs>
  <style type="text/css">
*{stroke-linecap:butt;stroke-linejoin:round;}
  </style>
 </defs>
 <g id="figure_1">
  <g id="axes_1">
   <g id="LineCollection_1">
    <path clip-path="url(#p1cae45b114)" d="M 25.2 304.082314 
L 82.772816 306.160811 
L 137.203958 309.653681 
L 144 310.16449 
" style="fill:none;stroke:#000000;stroke-opacity:0.7;stroke-width:1.275591;"/>
    <path clip-path="url(#p1cae45b114)" d="M 432 343.052794 
L 432.684178 343.049466 
L 437.651852 343.044071 
L 444.368539 343.075023 
L 450.572374 343.161055 
L 455.811282 343.319831 
L 461.023735 343.567546 
L 465.381603 343.918466 
L 469.226338 344.384428 
L 473.717041 344.015202 
L 479.478185 344.595615 
L 484.667222 345.255723 
L 489.732467 345.974332 
L 495.073104 346.732023 
L 498.787459 347.511381 
L 501.99971 348.297072 
L 504.337387 349.075796 
L 507.559396 349.836164 
L 510.085687 350.56851 
L 512.979297 351.264682 
L 515.648444 351.917811 
L 518.224207 352.522083 
L 520.335538 353.072516 
L 522.780467 353.564752 
L 525.119115 353.994848 
L 527.688052 354.359093 
L 530.860653 354.093515 
L 533.011239 354.429558 
L 534.410846 354.765594 
L 535.330432 355.095605 
L 535.84086 355.414093 
L 536.295083 355.716037 
L 536.982644 355.996835 
L 538.005952 356.252238 
L 539.328537 356.478284 
L 541.28278 356.67122 
L 543.076075 356.827428 
L 545.630392 356.943347 
L 548.683236 357.015386 
L 551.503327 357.039838 
L 554.109906 357.012785 
L 557.19606 356.929994 
L 559.806055 356.786797 
L 562.629695 356.561167 
L 565.679011 356.355058 
L 569.025842 356.088722 
L 572.610301 355.765428 
L 576 355.417129 
" style="fill:none;stroke:#000000;stroke-opacity:0.7;stroke-width:1.275591;"/>
    <path clip-path="url(#p1cae45b114)" d="M 864 314.51101 
L 865.573848 314.257911 
L 871.036131 313.323555 
L 876.520667 312.380417 
L 880.95479 311.43051 
L 885.545746 310.476004 
L 890.142617 309.51923 
L 895.398911 308.562687 
L 900.650247 307.609041 
L 906.797357 306.661126 
L 913.631908 305.721948 
L 920.228337 304.794677 
L 927.326202 303.882643 
L 933.787476 302.989329 
L 937.590211 302.652082 
L 943.996444 301.789624 
L 950.784611 300.968535 
L 956.864722 300.183683 
L 963.278301 299.429495 
L 969.147287 298.699993 
L 974.219724 297.988829 
L 979.547157 297.289312 
L 982.8 296.860326 
" style="fill:none;stroke:#000000;stroke-opacity:0.7;stroke-width:1.275591;"/>
    <path clip-path="url(#p1cae45b114)" d="M 982.8 294.566528 
L 979.269996 295.038062 
L 973.944168 295.745628 
L 968.874413 296.465166 
L 963.012011 297.203524 
L 956.598875 297.967203 
L 950.510999 298.762325 
L 943.72075 299.594603 
L 937.309842 300.469298 
L 933.502318 300.806545 
L 927.038018 301.712956 
L 919.940952 302.638626 
L 913.344364 303.579994 
L 906.510485 304.533656 
L 900.358073 305.496371 
L 895.097948 306.465065 
L 889.834043 307.436837 
L 885.226726 308.408959 
L 880.627046 309.378873 
L 876.188 310.344193 
L 870.711761 311.302694 
L 865.261383 312.252314 
L 864 312.45896 
" style="fill:none;stroke:#000000;stroke-opacity:0.7;stroke-width:1.275591;"/>
    <path clip-path="url(#p1cae45b114)" d="M 576 353.93266 
L 572.469222 354.30074 
L 568.881523 354.627585 
L 565.533036 354.895416 
L 562.483739 355.100805 
L 559.656555 355.326435 
L 557.048096 355.466545 
L 553.968798 355.543937 
L 551.364432 355.563414 
L 548.549969 355.529334 
L 545.502499 355.445729 
L 542.939461 355.316414 
L 541.132344 355.145085 
L 539.169173 354.935412 
L 537.834015 354.691126 
L 536.802146 354.416099 
L 536.113122 354.114427 
L 535.653172 353.790505 
L 535.139435 353.4491 
L 534.217323 353.095419 
L 532.819519 352.735168 
L 530.672184 352.374604 
L 527.516313 352.640181 
L 524.950092 352.249771 
L 522.609817 351.790418 
L 520.159237 351.265929 
L 518.045548 350.680355 
L 515.469289 350.038185 
L 512.799877 349.344558 
L 509.910428 348.605487 
L 507.384364 347.828092 
L 504.152406 347.020838 
L 501.79485 346.19378 
L 498.56635 345.358782 
L 494.836519 344.52972 
L 489.486514 343.722608 
L 484.415464 342.955659 
L 479.222532 342.249198 
L 473.463967 341.625437 
L 468.965636 341.994663 
L 465.104762 341.489754 
L 460.732694 341.104726 
L 455.510619 340.827286 
L 450.263175 340.642587 
L 444.063679 340.53374 
L 437.350552 340.482297 
L 432.379393 340.468664 
L 432 340.468974 
" style="fill:none;stroke:#000000;stroke-opacity:0.7;stroke-width:1.275591;"/>
    <path clip-path="url(#p1cae45b114)" d="M 144 305.164665 
L 136.540929 304.56356 
L 82.205047 300.816105 
L 25.2 298.59802 
" style="fill:none;stroke:#000000;stroke-opacity:0.7;stroke-width:1.275591;"/>
    <path clip-path="url(#p1cae45b114)" d="M 25.2 293.116343 
L 81.637278 295.4714 
L 135.8779 299.473439 
L 144 300.172127 
" style="fill:none;stroke:#000000;stroke-opacity:0.7;stroke-width:1.275591;"/>
    <path clip-path="url(#p1cae45b114)" d="M 432 337.887621 
L 432.074608 337.887861 
L 437.049252 337.920523 
L 443.75882 337.992457 
L 449.953976 338.124119 
L 455.209957 338.334741 
L 460.441653 338.641906 
L 464.82792 339.061043 
L 468.704933 339.604899 
L 473.210893 339.235673 
L 478.96688 339.902781 
L 484.163706 340.655594 
L 489.240561 341.470885 
L 494.599935 342.327417 
L 498.345241 343.206184 
L 501.58999 344.090487 
L 503.967425 344.96588 
L 507.209332 345.820019 
L 509.735169 346.642464 
L 512.620457 347.424434 
L 515.290134 348.158559 
L 517.866889 348.838628 
L 519.982936 349.459342 
L 522.439168 350.016083 
L 524.781069 350.504693 
L 527.344574 350.921269 
L 530.483716 350.655692 
L 532.627799 351.040778 
L 534.023801 351.425243 
L 534.948439 351.802595 
L 535.465484 352.166917 
L 535.931162 352.512817 
L 536.621648 352.835363 
L 537.662078 353.130014 
L 539.00981 353.392541 
L 540.981907 353.61895 
L 542.802846 353.8054 
L 545.374607 353.948112 
L 548.416702 354.043283 
L 551.225536 354.08699 
L 553.827689 354.075088 
L 556.900133 354.003096 
L 559.507055 353.866074 
L 562.337784 353.640443 
L 565.387061 353.435773 
L 568.737204 353.166447 
L 572.328142 352.836052 
L 575.999526 352.447818 
L 576 352.447744 
" style="fill:none;stroke:#000000;stroke-opacity:0.7;stroke-width:1.275591;"/>
    <path clip-path="url(#p1cae45b114)" d="M 864 310.405043 
L 864.948918 310.246717 
L 870.387391 309.281833 
L 875.855334 308.307968 
L 880.299302 307.327236 
L 884.907707 306.341913 
L 889.525468 305.354443 
L 894.796985 304.367442 
L 900.065898 303.383701 
L 906.223612 302.406186 
L 913.05682 301.43804 
L 919.653567 300.482574 
L 926.749835 299.543269 
L 933.217161 298.62376 
L 937.029474 298.286514 
L 943.445056 297.399582 
L 950.237387 296.556115 
L 956.333028 295.750723 
L 962.74572 294.977553 
L 968.60154 294.230339 
L 973.668611 293.502427 
L 978.992836 292.786812 
L 982.8 292.271767 
" style="fill:none;stroke:#000000;stroke-opacity:0.7;stroke-width:1.275591;"/>
    <path clip-path="url(#p1cae45b114)" d="M 982.8 289.976042 
L 978.715675 290.535561 
L 973.393055 291.259226 
L 968.328666 291.995511 
L 962.47943 292.751582 
L 956.067181 293.534242 
L 949.963775 294.349905 
L 943.169362 295.204561 
L 936.749105 296.103729 
L 932.932003 296.440976 
L 926.461651 297.373582 
L 919.366182 298.326523 
L 912.769276 299.296085 
L 905.936739 300.278716 
L 899.773723 301.271031 
L 894.496022 302.269819 
L 889.216894 303.27205 
L 884.588687 304.274868 
L 879.971559 305.2756 
L 875.522667 306.271744 
L 870.063021 307.260972 
L 864.636453 308.241121 
L 864 308.349245 
" style="fill:none;stroke:#000000;stroke-opacity:0.7;stroke-width:1.275591;"/>
    <path clip-path="url(#p1cae45b114)" d="M 576 350.955184 
L 575.858161 350.977664 
L 572.187062 351.371364 
L 568.592886 351.70531 
L 565.241086 351.97613 
L 562.191828 352.180082 
L 559.357555 352.405712 
L 556.75217 352.539647 
L 553.686581 352.606239 
L 551.08664 352.610567 
L 548.283435 352.557232 
L 545.246714 352.450494 
L 542.666232 352.294386 
L 540.831471 352.092815 
L 538.850446 351.849669 
L 537.490142 351.568901 
L 536.441149 351.254628 
L 535.749202 350.911208 
L 535.277796 350.54333 
L 534.757443 350.15609 
L 533.830278 349.755067 
L 532.436079 349.346387 
L 530.295248 348.93678 
L 527.172836 349.202357 
L 524.612046 348.759616 
L 522.268518 348.241749 
L 519.806634 347.652755 
L 517.68823 346.996901 
L 515.110979 346.278933 
L 512.441037 345.504309 
L 509.55991 344.679441 
L 507.0343 343.811947 
L 503.782444 342.910922 
L 501.38513 341.987195 
L 498.124132 341.053585 
L 494.36335 340.125114 
L 488.994608 339.219162 
L 483.911949 338.35553 
L 478.711227 337.556364 
L 472.957819 336.845908 
L 468.444231 337.215134 
L 464.551079 336.632331 
L 460.150612 336.179085 
L 454.909295 335.842196 
L 449.644777 335.605651 
L 443.45396 335.451174 
L 436.747951 335.358749 
L 432 335.309449 
" style="fill:none;stroke:#000000;stroke-opacity:0.7;stroke-width:1.275591;"/>
    <path clip-path="url(#p1cae45b114)" d="M 144 295.1869 
L 135.214871 294.383318 
L 81.069509 290.126694 
L 25.2 287.637297 
" style="fill:none;stroke:#000000;stroke-opacity:0.7;stroke-width:1.275591;"/>
    <path clip-path="url(#p1cae45b114)" d="M 25.2 282.160897 
L 80.50174 284.781989 
L 134.551842 289.293197 
L 144 290.209009 
" style="fill:none;stroke:#000000;stroke-opacity:0.7;stroke-width:1.275591;"/>
    <path clip-path="url(#p1cae45b114)" d="M 432 332.733851 
L 436.446651 332.796975 
L 443.149101 332.909892 
L 449.335578 333.087183 
L 454.608633 333.349651 
L 459.859571 333.716265 
L 464.274238 334.203619 
L 468.183528 334.82537 
L 472.704745 334.456144 
L 478.455574 335.209948 
L 483.660191 336.055465 
L 488.748655 336.967439 
L 494.126766 337.922811 
L 497.903023 338.900987 
L 501.18027 339.883903 
L 503.597463 340.855964 
L 506.859268 341.803875 
L 509.38465 342.716418 
L 512.261617 343.584185 
L 514.931824 344.399307 
L 517.509571 345.155174 
L 519.630333 345.846168 
L 522.097869 346.467414 
L 524.443023 347.014538 
L 527.001097 347.483445 
L 530.10678 347.217868 
L 532.244358 347.651997 
L 533.636755 348.084892 
L 534.566446 348.509585 
L 535.090108 348.919742 
L 535.567241 349.309598 
L 536.260651 349.673892 
L 537.318205 350.007789 
L 538.691082 350.306797 
L 540.681034 350.56668 
L 542.529617 350.783372 
L 545.118822 350.952877 
L 548.150168 351.071181 
L 550.947745 351.134143 
L 553.545473 351.13739 
L 556.604206 351.076197 
L 559.208055 350.945351 
L 562.045872 350.71972 
L 565.095111 350.516487 
L 568.448567 350.244173 
L 572.045983 349.906676 
L 575.716797 349.507509 
L 576 349.461953 
" style="fill:none;stroke:#000000;stroke-opacity:0.7;stroke-width:1.275591;"/>
    <path clip-path="url(#p1cae45b114)" d="M 864 306.291553 
L 864.323988 306.235524 
L 869.738651 305.24011 
L 875.190001 304.235519 
L 879.643815 303.223963 
L 884.269668 302.207823 
L 888.908319 301.189656 
L 894.195058 300.172197 
L 899.481548 299.158361 
L 905.649866 298.151246 
L 912.481732 297.154131 
L 919.078797 296.170472 
L 926.173467 295.203895 
L 932.646846 294.258192 
L 936.468737 293.920945 
L 942.893668 293.009539 
L 949.690163 292.143695 
L 955.801334 291.317762 
L 962.213139 290.525611 
L 968.055792 289.760684 
L 973.117499 289.016025 
L 978.438515 288.284311 
L 982.8 287.679346 
" style="fill:none;stroke:#000000;stroke-opacity:0.7;stroke-width:1.275591;"/>
    <path clip-path="url(#p1cae45b114)" d="M 982.8 285.381676 
L 978.161354 286.03306 
L 972.841942 286.772824 
L 967.782918 287.525857 
L 961.946849 288.29964 
L 955.535487 289.101281 
L 949.416551 289.937485 
L 942.617974 290.814518 
L 936.188369 291.738161 
L 932.361688 292.075408 
L 925.885283 293.034208 
L 918.791412 294.01442 
L 912.194188 295.012177 
L 905.362993 296.023776 
L 899.189374 297.045691 
L 893.894095 298.074574 
L 888.599745 299.107262 
L 883.950648 300.140778 
L 879.316072 301.172326 
L 874.857335 302.199295 
L 869.414281 303.219249 
L 864.011523 304.229927 
L 864 304.231955 
" style="fill:none;stroke:#000000;stroke-opacity:0.7;stroke-width:1.275591;"/>
    <path clip-path="url(#p1cae45b114)" d="M 576 347.968053 
L 575.575432 348.037355 
L 571.904903 348.441988 
L 568.304248 348.783036 
L 564.949136 349.056844 
L 561.899917 349.259359 
L 559.058555 349.484989 
L 556.456243 349.612748 
L 553.404364 349.668542 
L 550.808849 349.657719 
L 548.016901 349.58513 
L 544.990929 349.45526 
L 542.393003 349.272358 
L 540.530598 349.040546 
L 538.531718 348.763925 
L 537.146268 348.446677 
L 536.080152 348.093157 
L 535.385281 347.707989 
L 534.90242 347.296155 
L 534.37545 346.863081 
L 533.443233 346.414716 
L 532.052638 345.957607 
L 529.918312 345.498956 
L 526.829359 345.764533 
L 524.274 345.269461 
L 521.927219 344.69308 
L 519.454032 344.039581 
L 517.330913 343.313446 
L 514.752669 342.519681 
L 512.082197 341.664061 
L 509.209391 340.753394 
L 506.684236 339.795803 
L 503.412481 338.801006 
L 500.97541 337.780611 
L 497.681914 336.748388 
L 493.890182 335.720508 
L 488.502701 334.715715 
L 483.408433 333.755401 
L 478.199921 332.863531 
L 472.451671 332.066379 
L 467.922826 332.435605 
L 463.997397 331.774908 
L 459.56853 331.253444 
L 454.30797 330.857106 
L 449.026379 330.568715 
L 442.844241 330.368609 
L 436.145351 330.235201 
L 432 330.160572 
" style="fill:none;stroke:#000000;stroke-opacity:0.7;stroke-width:1.275591;"/>
    <path clip-path="url(#p1cae45b114)" d="M 144 285.238478 
L 133.888813 284.203075 
L 79.933971 279.437283 
L 25.2 276.687156 
" style="fill:none;stroke:#000000;stroke-opacity:0.7;stroke-width:1.275591;"/>
    <path clip-path="url(#p1cae45b114)" d="M 25.2 271.216089 
L 79.366202 274.092578 
L 133.225784 279.112954 
L 144 280.275329 
" style="fill:none;stroke:#000000;stroke-opacity:0.7;stroke-width:1.275591;"/>
    <path clip-path="url(#p1cae45b114)" d="M 432 327.589608 
L 435.84405 327.673427 
L 442.539381 327.827326 
L 448.717181 328.050247 
L 454.007308 328.364561 
L 459.277489 328.790624 
L 463.720556 329.346196 
L 467.662123 330.045841 
L 472.198597 329.676615 
L 477.944269 330.517114 
L 483.156676 331.455337 
L 488.256748 332.463992 
L 493.653597 333.518205 
L 497.460805 334.59579 
L 500.77055 335.677319 
L 503.2275 336.746047 
L 506.509204 337.78773 
L 509.034132 338.790371 
L 511.902776 339.743937 
L 514.573514 340.640055 
L 517.152254 341.471719 
L 519.277731 342.232994 
L 521.75657 342.918745 
L 524.104977 343.524384 
L 526.65762 344.045621 
L 529.729843 343.780044 
L 531.860918 344.263217 
L 533.24971 344.74454 
L 534.184453 345.216576 
L 534.714733 345.672567 
L 535.203321 346.106379 
L 535.899654 346.512421 
L 536.974332 346.885564 
L 538.372354 347.221053 
L 540.380161 347.514411 
L 542.256389 347.761343 
L 544.863037 347.957642 
L 547.883634 348.099078 
L 550.669953 348.181296 
L 553.263256 348.199693 
L 556.30828 348.149299 
L 558.909055 348.024627 
L 561.753961 347.798997 
L 564.803161 347.597202 
L 568.159929 347.321899 
L 571.763824 346.9773 
L 575.434068 346.567201 
L 576 346.473486 
" style="fill:none;stroke:#000000;stroke-opacity:0.7;stroke-width:1.275591;"/>
    <path clip-path="url(#p1cae45b114)" d="M 864 302.167057 
L 869.08991 301.198388 
L 874.524668 300.16307 
L 878.988328 299.120689 
L 883.631628 298.073732 
L 888.29117 297.024869 
L 893.593132 295.976952 
L 898.897199 294.933021 
L 905.07612 293.896306 
L 911.906644 292.870223 
L 918.504027 291.858369 
L 925.597099 290.864521 
L 932.076531 289.892624 
L 935.908 289.555377 
L 942.34228 288.619497 
L 949.142939 287.731276 
L 955.269641 286.884801 
L 961.680558 286.073669 
L 967.510045 285.29103 
L 972.566386 284.529622 
L 977.884194 283.78181 
L 982.8 283.083027 
" style="fill:none;stroke:#000000;stroke-opacity:0.7;stroke-width:1.275591;"/>
    <path clip-path="url(#p1cae45b114)" d="M 982.8 280.783394 
L 977.607033 281.53056 
L 972.29083 282.286421 
L 967.237171 283.056202 
L 961.414267 283.847698 
L 955.003794 284.66832 
L 948.869327 285.525066 
L 942.066586 286.424476 
L 935.627632 287.372593 
L 931.791373 287.70984 
L 925.308916 288.694835 
L 918.216642 289.702318 
L 911.6191 290.728268 
L 904.789247 291.768836 
L 898.605024 292.820351 
L 893.292169 293.879329 
L 887.982596 294.942475 
L 883.312609 296.006687 
L 878.660585 297.069052 
L 874.192002 298.126846 
L 868.76554 299.177527 
L 864 300.099995 
" style="fill:none;stroke:#000000;stroke-opacity:0.7;stroke-width:1.275591;"/>
    <path clip-path="url(#p1cae45b114)" d="M 576 344.978256 
L 575.292703 345.097046 
L 571.622744 345.512612 
L 568.01561 345.860762 
L 564.657185 346.137559 
L 561.608005 346.338635 
L 558.759555 346.564266 
L 556.160316 346.685849 
L 553.122148 346.730844 
L 550.531058 346.704872 
L 547.750367 346.613027 
L 544.735144 346.460025 
L 542.119774 346.250329 
L 540.229725 345.988276 
L 538.212991 345.678181 
L 536.802395 345.324452 
L 535.719156 344.931685 
L 535.021361 344.504769 
L 534.527045 344.04898 
L 533.993457 343.570071 
L 533.056188 343.074365 
L 531.669198 342.568827 
L 529.541375 342.061132 
L 526.485882 342.32671 
L 523.935954 341.779306 
L 521.58592 341.144411 
L 519.101429 340.426407 
L 516.973595 339.629992 
L 514.394359 338.760429 
L 511.723356 337.823812 
L 508.858873 336.827348 
L 506.334172 335.779658 
L 503.042519 334.691089 
L 500.565691 333.574026 
L 497.239696 332.443191 
L 493.417013 331.315902 
L 488.010795 330.212269 
L 482.904918 329.155272 
L 477.688616 328.170697 
L 471.945523 327.286851 
L 467.401421 327.656077 
L 463.443715 326.917484 
L 458.986448 326.327803 
L 453.706646 325.872016 
L 448.407982 325.531779 
L 442.234522 325.286043 
L 435.54275 325.111653 
L 432 325.020953 
" style="fill:none;stroke:#000000;stroke-opacity:0.7;stroke-width:1.275591;"/>
    <path clip-path="url(#p1cae45b114)" d="M 144 275.319587 
L 132.562755 274.022833 
L 78.798433 268.747872 
L 25.2 265.747712 
" style="fill:none;stroke:#000000;stroke-opacity:0.7;stroke-width:1.275591;"/>
    <path clip-path="url(#p1cae45b114)" d="M 25.2 260.282037 
L 78.230664 263.403166 
L 131.899726 268.932712 
L 144 270.371276 
" style="fill:none;stroke:#000000;stroke-opacity:0.7;stroke-width:1.275591;"/>
    <path clip-path="url(#p1cae45b114)" d="M 432 322.454604 
L 435.24145 322.549879 
L 441.929662 322.74476 
L 448.098783 323.013311 
L 453.405983 323.379471 
L 458.695407 323.864983 
L 463.166874 324.488773 
L 467.140718 325.266312 
L 471.692449 324.897086 
L 477.432963 325.82428 
L 482.65316 326.855208 
L 487.764842 327.960546 
L 493.180428 329.1136 
L 497.018587 330.290593 
L 500.360831 331.470734 
L 502.857538 332.636131 
L 506.15914 333.771586 
L 508.683614 334.864325 
L 511.543936 335.903688 
L 514.215204 336.880804 
L 516.794936 337.788265 
L 518.925128 338.619819 
L 521.415271 339.370076 
L 523.766932 340.034229 
L 526.314143 340.607798 
L 529.352907 340.34222 
L 531.477477 340.874437 
L 532.862665 341.404189 
L 533.80246 341.923566 
L 534.339357 342.425392 
L 534.8394 342.90316 
L 535.538657 343.35095 
L 536.630458 343.76334 
L 538.053627 344.13531 
L 540.079289 344.462141 
L 541.98316 344.739315 
L 544.607251 344.962407 
L 547.6171 345.126976 
L 550.392162 345.228448 
L 552.98104 345.261995 
L 556.012353 345.2224 
L 558.610055 345.103904 
L 561.46205 344.878274 
L 564.51121 344.677916 
L 567.871291 344.399625 
L 571.481665 344.047923 
L 575.151339 343.626892 
L 576 343.482363 
" style="fill:none;stroke:#000000;stroke-opacity:0.7;stroke-width:1.275591;"/>
    <path clip-path="url(#p1cae45b114)" d="M 864 298.030883 
L 868.44117 297.156666 
L 873.859336 296.090621 
L 878.332841 295.017415 
L 882.993589 293.939642 
L 887.674021 292.860082 
L 892.991206 291.781707 
L 898.31285 290.707681 
L 904.502374 289.641366 
L 911.331556 288.586314 
L 917.929257 287.546266 
L 925.020732 286.525148 
L 931.506216 285.527055 
L 935.347263 285.189808 
L 941.790892 284.229455 
L 948.595715 283.318856 
L 954.737947 282.45184 
L 961.147977 281.621727 
L 966.964297 280.821375 
L 972.015273 280.04322 
L 977.329873 279.279309 
L 982.535264 278.521324 
L 982.8 278.482947 
" style="fill:none;stroke:#000000;stroke-opacity:0.7;stroke-width:1.275591;"/>
    <path clip-path="url(#p1cae45b114)" d="M 982.8 276.181538 
L 982.250144 276.262186 
L 977.052712 277.028059 
L 971.739717 277.800019 
L 966.691423 278.586548 
L 960.881686 279.395756 
L 954.4721 280.235359 
L 948.322103 281.112646 
L 941.515198 282.034434 
L 935.066895 283.007024 
L 931.221058 283.344271 
L 924.732548 284.355461 
L 917.641872 285.390215 
L 911.044012 286.44436 
L 904.215501 287.513896 
L 898.020675 288.595012 
L 892.690243 289.684084 
L 887.365447 290.777688 
L 882.67457 291.872597 
L 878.005097 292.965778 
L 873.526669 294.054397 
L 868.1168 295.135804 
L 864 295.959708 
" style="fill:none;stroke:#000000;stroke-opacity:0.7;stroke-width:1.275591;"/>
    <path clip-path="url(#p1cae45b114)" d="M 576 341.985811 
L 575.009975 342.156737 
L 571.340585 342.583235 
L 567.726973 342.938488 
L 564.365235 343.218273 
L 561.316094 343.417912 
L 558.460555 343.643543 
L 555.864389 343.758951 
L 552.839931 343.793147 
L 550.253267 343.752024 
L 547.483832 343.640925 
L 544.479359 343.46479 
L 541.846546 343.228301 
L 539.928852 342.936006 
L 537.894263 342.592438 
L 536.458521 342.202228 
L 535.358159 341.770214 
L 534.65744 341.30155 
L 534.151669 340.801804 
L 533.611464 340.277061 
L 532.669143 339.734014 
L 531.285757 339.180046 
L 529.164439 338.623309 
L 526.142404 338.888886 
L 523.597909 338.289151 
L 521.244621 337.595742 
L 518.748827 336.813232 
L 516.616277 335.946538 
L 514.036049 335.001178 
L 511.364516 333.983564 
L 508.508355 332.901302 
L 505.984108 331.763513 
L 502.672557 330.581173 
L 500.155971 329.367442 
L 496.797478 328.137994 
L 492.943844 326.911297 
L 487.518889 325.708822 
L 482.401403 324.555144 
L 477.17731 323.477863 
L 471.439375 322.507322 
L 466.880016 322.876548 
L 462.890032 322.060061 
L 458.404366 321.402162 
L 453.105321 320.886926 
L 447.789584 320.494843 
L 441.624803 320.203478 
L 434.940149 319.988104 
L 432 319.890555 
" style="fill:none;stroke:#000000;stroke-opacity:0.7;stroke-width:1.275591;"/>
    <path clip-path="url(#p1cae45b114)" d="M 144 265.430421 
L 131.236697 263.842591 
L 77.662895 258.058461 
L 25.2 254.819082 
" style="fill:none;stroke:#000000;stroke-opacity:0.7;stroke-width:1.275591;"/>
    <path clip-path="url(#p1cae45b114)" d="M 25.2 249.358859 
L 77.095126 252.713755 
L 130.573668 258.752469 
L 144 260.497045 
" style="fill:none;stroke:#000000;stroke-opacity:0.7;stroke-width:1.275591;"/>
    <path clip-path="url(#p1cae45b114)" d="M 432 317.328801 
L 434.638849 317.42633 
L 441.319943 317.662195 
L 447.480385 317.976374 
L 452.804659 318.394381 
L 458.113325 318.939342 
L 462.613191 319.631349 
L 466.619314 320.486783 
L 471.186301 320.117557 
L 476.921657 321.131446 
L 482.149645 322.255079 
L 487.272936 323.457099 
L 492.70726 324.708994 
L 496.576369 325.985396 
L 499.951111 327.26415 
L 502.487576 328.526215 
L 505.809075 329.755441 
L 508.333096 330.938278 
L 511.185096 332.063439 
L 513.856894 333.121552 
L 516.437618 334.10481 
L 518.572526 335.006645 
L 521.073972 335.821407 
L 523.428886 336.544074 
L 525.970666 337.169974 
L 528.975971 336.904397 
L 531.094037 337.485656 
L 532.47562 338.063838 
L 533.420467 338.630557 
L 533.963981 339.178217 
L 534.47548 339.699941 
L 535.17766 340.189479 
L 536.286585 340.641115 
L 537.734899 341.049566 
L 539.778416 341.409871 
L 541.709931 341.717287 
L 544.351466 341.967173 
L 547.350565 342.154874 
L 550.114371 342.275601 
L 552.698823 342.324298 
L 555.716426 342.295502 
L 558.311055 342.183181 
L 561.170138 341.957551 
L 564.21926 341.75863 
L 567.582654 341.47735 
L 571.199506 341.118547 
L 574.86861 340.686583 
L 576 340.488601 
" style="fill:none;stroke:#000000;stroke-opacity:0.7;stroke-width:1.275591;"/>
    <path clip-path="url(#p1cae45b114)" d="M 864 293.886455 
L 867.79243 293.114943 
L 873.194003 292.018172 
L 877.677354 290.914142 
L 882.35555 289.805552 
L 887.056872 288.695295 
L 892.38928 287.586461 
L 897.7285 286.482342 
L 903.928628 285.386426 
L 910.756468 284.302405 
L 917.354487 283.234164 
L 924.444364 282.185774 
L 930.935901 281.161487 
L 934.786526 280.82424 
L 941.239503 279.839413 
L 948.048491 278.906436 
L 954.206253 278.018879 
L 960.615396 277.169785 
L 966.41855 276.35172 
L 971.464161 275.556818 
L 976.775551 274.776809 
L 981.965025 274.003048 
L 982.8 273.87915 
" style="fill:none;stroke:#000000;stroke-opacity:0.7;stroke-width:1.275591;"/>
    <path clip-path="url(#p1cae45b114)" d="M 982.8 271.575778 
L 981.679905 271.74391 
L 976.498391 272.525558 
L 971.188604 273.313617 
L 966.145676 274.116893 
L 960.349105 274.943814 
L 953.940407 275.802398 
L 947.774879 276.700226 
L 940.963809 277.644391 
L 934.506158 278.641456 
L 930.650743 278.978703 
L 924.15618 280.016087 
L 917.067102 281.078112 
L 910.468924 282.160451 
L 903.641755 283.258956 
L 897.436325 284.369672 
L 892.088317 285.488839 
L 886.748298 286.612901 
L 882.036531 287.738506 
L 877.34961 288.862505 
L 872.861336 289.981948 
L 867.46806 291.094082 
L 864 291.811111 
" style="fill:none;stroke:#000000;stroke-opacity:0.7;stroke-width:1.275591;"/>
    <path clip-path="url(#p1cae45b114)" d="M 576 338.990735 
L 574.727246 339.216429 
L 571.058426 339.653859 
L 567.438335 340.016213 
L 564.073285 340.298987 
L 561.024183 340.497189 
L 558.161555 340.72282 
L 555.568463 340.832052 
L 552.557715 340.855449 
L 549.975475 340.799177 
L 547.217298 340.668822 
L 544.223574 340.469555 
L 541.573317 340.206273 
L 539.627979 339.883736 
L 537.575535 339.506694 
L 536.114648 339.080003 
L 534.997162 338.608743 
L 534.293519 338.098331 
L 533.776293 337.554629 
L 533.229471 336.984052 
L 532.282098 336.393662 
L 530.902317 335.791266 
L 528.787502 335.185485 
L 525.798927 335.451062 
L 523.259863 334.798996 
L 520.903322 334.047073 
L 518.396224 333.200058 
L 516.258959 332.263083 
L 513.677739 331.241926 
L 511.005676 330.143315 
L 508.157837 328.975255 
L 505.634043 327.747369 
L 502.302595 326.471257 
L 499.746251 325.160858 
L 496.35526 323.832797 
L 492.470675 322.506691 
L 487.026983 321.205376 
L 481.897887 319.955015 
L 476.666005 318.785029 
L 470.933227 317.727793 
L 466.358611 318.097019 
L 462.33635 317.202638 
L 457.822284 316.476521 
L 452.503997 315.901836 
L 447.171186 315.457906 
L 441.015084 315.120912 
L 434.337549 314.864556 
L 432 314.769337 
" style="fill:none;stroke:#000000;stroke-opacity:0.7;stroke-width:1.275591;"/>
    <path clip-path="url(#p1cae45b114)" d="M 144 255.571174 
L 129.910639 253.662348 
L 76.527357 247.36905 
L 25.2 243.901385 
" style="fill:none;stroke:#000000;stroke-opacity:0.7;stroke-width:1.275591;"/>
    <path clip-path="url(#p1cae45b114)" d="M 25.2 238.446675 
L 75.959588 242.024344 
L 129.24761 248.572227 
L 144 250.652831 
" style="fill:none;stroke:#000000;stroke-opacity:0.7;stroke-width:1.275591;"/>
    <path clip-path="url(#p1cae45b114)" d="M 432 312.212159 
L 434.036248 312.302782 
L 440.710224 312.579629 
L 446.861987 312.939438 
L 452.203334 313.409291 
L 457.531243 314.013701 
L 462.059509 314.773926 
L 466.097909 315.707254 
L 470.680153 315.338028 
L 476.410352 316.438612 
L 481.64613 317.654951 
L 486.78103 318.953653 
L 492.234091 320.304388 
L 496.134151 321.680199 
L 499.541391 323.057566 
L 502.117614 324.416298 
L 505.459011 325.739297 
L 507.982578 327.012232 
L 510.826256 328.223191 
L 513.498583 329.3623 
L 516.0803 330.421356 
L 518.219923 331.393471 
L 520.732673 332.272738 
L 523.09084 333.053919 
L 525.627189 333.73215 
L 528.599034 333.466573 
L 530.710596 334.096876 
L 532.088575 334.723487 
L 533.038474 335.337547 
L 533.588606 335.931042 
L 534.111559 336.496721 
L 534.816664 337.028007 
L 535.942711 337.518891 
L 537.416172 337.963822 
L 539.477543 338.357601 
L 541.436703 338.695259 
L 544.095681 338.971938 
L 547.084031 339.182771 
L 549.83658 339.322753 
L 552.416606 339.3866 
L 555.420499 339.368603 
L 558.012055 339.262458 
L 560.878227 339.036828 
L 563.92731 338.839345 
L 567.294016 338.555076 
L 570.917347 338.189171 
L 574.585881 337.746274 
L 576 337.492216 
" style="fill:none;stroke:#000000;stroke-opacity:0.7;stroke-width:1.275591;"/>
    <path clip-path="url(#p1cae45b114)" d="M 864 289.733661 
L 867.14369 289.073221 
L 872.52867 287.945723 
L 877.021867 286.810868 
L 881.717511 285.671461 
L 886.439723 284.530508 
L 891.787354 283.391216 
L 897.144151 282.257002 
L 903.354882 281.131486 
L 910.18138 280.018497 
L 916.779717 278.922061 
L 923.867997 277.8464 
L 930.365586 276.795919 
L 934.225789 276.458672 
L 940.688115 275.44937 
L 947.501267 274.494016 
L 953.67456 273.585918 
L 960.082815 272.717843 
L 965.872802 271.882066 
L 970.913048 271.070415 
L 976.22123 270.274308 
L 981.394785 269.484772 
L 982.8 269.27142 
" style="fill:none;stroke:#000000;stroke-opacity:0.7;stroke-width:1.275591;"/>
    <path clip-path="url(#p1cae45b114)" d="M 982.8 266.96607 
L 981.109665 267.225634 
L 975.94407 268.023057 
L 970.637491 268.827214 
L 965.599928 269.647239 
L 959.816524 270.491872 
L 953.408713 271.369437 
L 947.227655 272.287806 
L 940.412421 273.254349 
L 933.945421 274.275888 
L 930.080428 274.613134 
L 923.579813 275.676713 
L 916.492332 276.76601 
L 909.893836 277.876543 
L 903.06801 279.004016 
L 896.851976 280.144332 
L 891.486391 281.293594 
L 886.131149 282.448114 
L 881.398491 283.604416 
L 876.694123 284.759231 
L 872.196004 285.909499 
L 866.81932 287.05236 
L 864 287.654091 
" style="fill:none;stroke:#000000;stroke-opacity:0.7;stroke-width:1.275591;"/>
    <path clip-path="url(#p1cae45b114)" d="M 576 335.993046 
L 574.444517 336.27612 
L 570.776267 336.724483 
L 567.149697 337.093939 
L 563.781334 337.379702 
L 560.732271 337.576466 
L 557.862555 337.802096 
L 555.272536 337.905154 
L 552.275498 337.917752 
L 549.697684 337.84633 
L 546.950764 337.69672 
L 543.967789 337.47432 
L 541.300088 337.184245 
L 539.327106 336.831467 
L 537.256808 336.42095 
L 535.770775 335.957778 
L 534.636165 335.447272 
L 533.929599 334.895112 
L 533.400918 334.307454 
L 532.847478 333.691042 
L 531.895052 333.053311 
L 530.518876 332.402486 
L 528.410566 331.747661 
L 525.45545 332.013238 
L 522.921817 331.308842 
L 520.562023 330.498404 
L 518.043622 329.586884 
L 515.901642 328.579629 
L 513.319428 327.482674 
L 510.646836 326.303067 
L 507.807319 325.049209 
L 505.283979 323.731224 
L 501.932633 322.36134 
L 499.336531 320.954273 
L 495.913042 319.5276 
L 491.997506 318.102085 
L 486.535077 316.701929 
L 481.394372 315.354886 
L 476.154699 314.092195 
L 470.427079 312.948264 
L 465.837206 313.31749 
L 461.782668 312.345214 
L 457.240202 311.55088 
L 451.902672 310.916746 
L 446.552789 310.42097 
L 440.405365 310.038346 
L 433.734948 309.741008 
L 432 309.657263 
" style="fill:none;stroke:#000000;stroke-opacity:0.7;stroke-width:1.275591;"/>
    <path clip-path="url(#p1cae45b114)" d="M 144 245.742042 
L 128.58458 243.482106 
L 75.391819 236.679639 
L 25.2 232.994743 
" style="fill:none;stroke:#000000;stroke-opacity:0.7;stroke-width:1.275591;"/>
    <path clip-path="url(#p1cae45b114)" d="M 25.2 227.545606 
L 74.82405 231.334933 
L 127.921551 238.391984 
L 144 240.83883 
" style="fill:none;stroke:#000000;stroke-opacity:0.7;stroke-width:1.275591;"/>
    <path clip-path="url(#p1cae45b114)" d="M 432 307.104642 
L 433.433648 307.179234 
L 440.100505 307.497063 
L 446.24359 307.902502 
L 451.60201 308.424202 
L 456.949161 309.08806 
L 461.505827 309.916503 
L 465.576504 310.927725 
L 470.174005 310.558499 
L 475.899046 311.745778 
L 481.142614 313.054822 
L 486.289124 314.450206 
L 491.760922 315.899782 
L 495.691933 317.375001 
L 499.131671 318.850981 
L 501.747651 320.306382 
L 505.108947 321.723152 
L 507.632059 323.086186 
L 510.467416 324.382942 
L 513.140273 325.603048 
L 515.722983 326.737902 
L 517.86732 327.780297 
L 520.391374 328.724069 
L 522.752794 329.563764 
L 525.283712 330.294326 
L 528.222098 330.028749 
L 530.327156 330.708095 
L 531.70153 331.383135 
L 532.656481 332.044537 
L 533.21323 332.683867 
L 533.747639 333.293502 
L 534.455667 333.866536 
L 535.598838 334.396666 
L 537.097444 334.878079 
L 539.17667 335.305332 
L 541.163474 335.67323 
L 543.839896 335.976703 
L 546.817497 336.210669 
L 549.558788 336.369906 
L 552.13439 336.448903 
L 555.124573 336.441704 
L 557.713055 336.341735 
L 560.586316 336.116104 
L 563.635359 335.920059 
L 567.005378 335.632802 
L 570.635188 335.259795 
L 574.303152 334.805966 
L 576 334.493227 
" style="fill:none;stroke:#000000;stroke-opacity:0.7;stroke-width:1.275591;"/>
    <path clip-path="url(#p1cae45b114)" d="M 864 285.572388 
L 866.49495 285.031498 
L 871.863337 283.873274 
L 876.366379 282.707594 
L 881.079472 281.537371 
L 885.822574 280.36572 
L 891.185428 279.195971 
L 896.559801 278.031662 
L 902.781137 276.876546 
L 909.606292 275.734588 
L 916.204947 274.609958 
L 923.291629 273.507027 
L 929.795271 272.43035 
L 933.665052 272.093103 
L 940.136727 271.059328 
L 946.954043 270.081596 
L 953.142866 269.152957 
L 959.550234 268.265901 
L 965.327055 267.412411 
L 970.361935 266.584013 
L 975.666909 265.771807 
L 980.824546 264.966496 
L 982.8 264.659724 
" style="fill:none;stroke:#000000;stroke-opacity:0.7;stroke-width:1.275591;"/>
    <path clip-path="url(#p1cae45b114)" d="M 982.8 262.352379 
L 980.539426 262.707359 
L 975.389749 263.520557 
L 970.086379 264.340812 
L 965.054181 265.177584 
L 959.283943 266.03993 
L 952.877019 266.936476 
L 946.680431 267.875386 
L 939.861033 268.864307 
L 933.384684 269.910319 
L 929.510114 270.247566 
L 923.003445 271.33734 
L 915.917562 272.453907 
L 909.318748 273.592634 
L 902.494264 274.749076 
L 896.267626 275.918992 
L 890.884465 277.098348 
L 885.514 278.283327 
L 880.760452 279.470325 
L 876.038636 280.655957 
L 871.530671 281.83705 
L 866.17058 283.010637 
L 864 283.488536 
" style="fill:none;stroke:#000000;stroke-opacity:0.7;stroke-width:1.275591;"/>
    <path clip-path="url(#p1cae45b114)" d="M 576 332.992761 
L 574.161788 333.335811 
L 570.494108 333.795107 
L 566.86106 334.171665 
L 563.489384 334.460416 
L 560.44036 334.655743 
L 557.563555 334.881373 
L 554.976609 334.978255 
L 551.993281 334.980054 
L 549.419893 334.893482 
L 546.68423 334.724618 
L 543.712004 334.479085 
L 541.026859 334.162216 
L 539.026234 333.779197 
L 536.93808 333.335207 
L 535.426901 332.835554 
L 534.275168 332.285801 
L 533.565678 331.691893 
L 533.025542 331.060279 
L 532.465485 330.398032 
L 531.508007 329.71296 
L 530.135436 329.013705 
L 528.033629 328.309837 
L 525.111973 328.575414 
L 522.583771 327.818687 
L 520.220724 326.949735 
L 517.691019 325.97371 
L 515.544324 324.896174 
L 512.961118 323.723422 
L 510.287996 322.462818 
L 507.4568 321.123162 
L 504.933915 319.71508 
L 501.56267 318.251424 
L 498.926811 316.747689 
L 495.470824 315.222403 
L 491.524337 313.697479 
L 486.043171 312.198483 
L 480.890857 310.754757 
L 475.643393 309.399361 
L 469.920932 308.168735 
L 465.315801 308.537961 
L 461.228985 307.487791 
L 456.65812 306.625239 
L 451.301347 305.931657 
L 445.934391 305.384034 
L 439.795646 304.955781 
L 433.132347 304.61746 
L 432 304.554293 
" style="fill:none;stroke:#000000;stroke-opacity:0.7;stroke-width:1.275591;"/>
    <path clip-path="url(#p1cae45b114)" d="M 144 235.943222 
L 127.258522 233.301863 
L 74.256281 225.990228 
L 25.2 222.099278 
" style="fill:none;stroke:#000000;stroke-opacity:0.7;stroke-width:1.275591;"/>
    <path clip-path="url(#p1cae45b114)" d="M 25.2 216.655775 
L 73.688511 220.645522 
L 126.595493 228.211742 
L 144 231.055242 
" style="fill:none;stroke:#000000;stroke-opacity:0.7;stroke-width:1.275591;"/>
    <path clip-path="url(#p1cae45b114)" d="M 432 302.006211 
L 432.831047 302.055686 
L 439.490786 302.414498 
L 445.625192 302.865566 
L 451.000685 303.439112 
L 456.367079 304.162419 
L 460.952144 305.059079 
L 465.055099 306.148197 
L 469.667858 305.778971 
L 475.387741 307.052944 
L 480.639099 308.454693 
L 485.797218 309.94676 
L 491.287753 311.495177 
L 495.249715 313.069804 
L 498.721951 314.644397 
L 501.377689 316.196466 
L 504.758883 317.707007 
L 507.281541 319.160139 
L 510.108576 320.542694 
L 512.781963 321.843796 
L 515.365665 323.054447 
L 517.514718 324.167122 
L 520.050075 325.1754 
L 522.414748 326.073609 
L 524.940234 326.856503 
L 527.845161 326.590925 
L 529.943715 327.319315 
L 531.314485 328.042784 
L 532.274488 328.751528 
L 532.837854 329.436691 
L 533.383718 330.090283 
L 534.09467 330.705065 
L 535.254965 331.274441 
L 536.778716 331.792335 
L 538.875797 332.253062 
L 540.890245 332.651202 
L 543.584111 332.981468 
L 546.550963 333.238567 
L 549.280997 333.417058 
L 551.852173 333.511205 
L 554.828646 333.514806 
L 557.414055 333.421012 
L 560.294404 333.195381 
L 563.343409 333.000773 
L 566.716741 332.710528 
L 570.353029 332.330419 
L 574.020424 331.865657 
L 576 331.49165 
" style="fill:none;stroke:#000000;stroke-opacity:0.7;stroke-width:1.275591;"/>
    <path clip-path="url(#p1cae45b114)" d="M 864 281.402522 
L 865.84621 280.989776 
L 871.198004 279.800825 
L 875.710892 278.604321 
L 880.441433 277.40328 
L 885.205425 276.200933 
L 890.583502 275.000726 
L 895.975452 273.806322 
L 902.207391 272.621606 
L 909.031204 271.45068 
L 915.630177 270.297856 
L 922.715261 269.167653 
L 929.224956 268.064782 
L 933.104316 267.727535 
L 939.585339 266.669286 
L 946.406819 265.669176 
L 952.611173 264.719996 
L 959.017653 263.813959 
L 964.781307 262.942757 
L 969.810822 262.097611 
L 975.112588 261.269306 
L 980.254306 260.448221 
L 982.8 260.044029 
" style="fill:none;stroke:#000000;stroke-opacity:0.7;stroke-width:1.275591;"/>
    <path clip-path="url(#p1cae45b114)" d="M 982.8 257.734671 
L 979.969186 258.189083 
L 974.835428 259.018056 
L 969.535266 259.85441 
L 964.508434 260.70793 
L 958.751362 261.587987 
L 952.345326 262.503516 
L 946.133207 263.462966 
L 939.309645 264.474264 
L 932.823947 265.544751 
L 928.939799 265.881998 
L 922.427078 266.997966 
L 915.342792 268.141805 
L 908.74366 269.308725 
L 901.920518 270.494136 
L 895.683277 271.693652 
L 890.282539 272.903103 
L 884.896851 274.11854 
L 880.122413 275.336235 
L 875.383149 276.552684 
L 870.865338 277.764601 
L 865.52184 278.968915 
L 864 279.31433 
" style="fill:none;stroke:#000000;stroke-opacity:0.7;stroke-width:1.275591;"/>
    <path clip-path="url(#p1cae45b114)" d="M 576 329.989896 
L 573.879059 330.395502 
L 570.211949 330.865731 
L 566.572422 331.249391 
L 563.197434 331.541131 
L 560.148448 331.73502 
L 557.264555 331.96065 
L 554.680682 332.051357 
L 551.711065 332.042357 
L 549.142101 331.940635 
L 546.417696 331.752515 
L 543.456218 331.483851 
L 540.753631 331.140188 
L 538.725361 330.726927 
L 536.619353 330.249463 
L 535.083028 329.713329 
L 533.914172 329.124329 
L 533.201758 328.488673 
L 532.650167 327.813104 
L 532.083492 327.105023 
L 531.120962 326.372609 
L 529.751995 325.624925 
L 527.656693 324.872013 
L 524.768496 325.137591 
L 522.245726 324.328532 
L 519.879425 323.401066 
L 517.338417 322.360535 
L 515.187006 321.21272 
L 512.602808 319.96417 
L 509.929155 318.62257 
L 507.106282 317.197116 
L 504.583851 315.698935 
L 501.192708 314.141508 
L 498.517092 312.541105 
L 495.028606 310.917206 
L 491.051169 309.292874 
L 485.551265 307.695036 
L 480.387341 306.154629 
L 475.132088 304.706527 
L 469.414784 303.389206 
L 464.794396 303.758432 
L 460.675303 302.630368 
L 456.076038 301.699598 
L 450.700023 300.946567 
L 445.315993 300.347098 
L 439.185926 299.873215 
L 432.529747 299.493911 
L 432 299.460391 
" style="fill:none;stroke:#000000;stroke-opacity:0.7;stroke-width:1.275591;"/>
    <path clip-path="url(#p1cae45b114)" d="M 144 226.174914 
L 125.932464 223.121621 
L 73.120742 215.300816 
L 25.2 211.215114 
" style="fill:none;stroke:#000000;stroke-opacity:0.7;stroke-width:1.275591;"/>
    <path clip-path="url(#p1cae45b114)" d="M 25.2 205.777309 
L 72.552973 209.956111 
L 125.269435 218.0315 
L 144 221.302265 
" style="fill:none;stroke:#000000;stroke-opacity:0.7;stroke-width:1.275591;"/>
    <path clip-path="url(#p1cae45b114)" d="M 432 296.916828 
L 432.228446 296.932137 
L 438.881067 297.331932 
L 445.006794 297.82863 
L 450.399361 298.454022 
L 455.784997 299.236778 
L 460.398462 300.201656 
L 464.533694 301.368668 
L 469.16171 300.999442 
L 474.876435 302.36011 
L 480.135584 303.854564 
L 485.305312 305.443313 
L 490.814584 307.090571 
L 494.807497 308.764607 
L 498.312232 310.437812 
L 501.007727 312.08655 
L 504.408819 313.690863 
L 506.931023 315.234093 
L 509.749735 316.702445 
L 512.423653 318.084545 
L 515.008347 319.370993 
L 517.162115 320.553948 
L 519.708776 321.626731 
L 522.076703 322.583454 
L 524.596757 323.418679 
L 527.468225 323.153102 
L 529.560275 323.930535 
L 530.92744 324.702433 
L 531.892495 325.458518 
L 532.462479 326.189516 
L 533.019798 326.887064 
L 533.733673 327.543594 
L 534.911091 328.152217 
L 536.459989 328.706591 
L 538.574924 329.200792 
L 540.617016 329.629174 
L 543.328326 329.986233 
L 546.284429 330.266464 
L 549.003206 330.464211 
L 551.569957 330.573508 
L 554.532719 330.587907 
L 557.115055 330.500288 
L 560.002493 330.274658 
L 563.051459 330.081488 
L 566.428103 329.788253 
L 570.07087 329.401043 
L 573.737695 328.925348 
L 576 328.487502 
" style="fill:none;stroke:#000000;stroke-opacity:0.7;stroke-width:1.275591;"/>
    <path clip-path="url(#p1cae45b114)" d="M 864 277.223945 
L 865.19747 276.948054 
L 870.532672 275.728376 
L 875.055405 274.501047 
L 879.803394 273.26919 
L 884.588276 272.036146 
L 889.981576 270.805481 
L 895.391102 269.580982 
L 901.633645 268.366666 
L 908.456115 267.166771 
L 915.055408 265.985753 
L 922.138894 264.828279 
L 928.654641 263.699214 
L 932.543579 263.361967 
L 939.033951 262.279243 
L 945.859595 261.256756 
L 952.079479 260.287035 
L 958.485072 259.362016 
L 964.23556 258.473102 
L 969.25971 257.611209 
L 974.558267 256.766805 
L 979.684066 255.929945 
L 982.8 255.4243 
" style="fill:none;stroke:#000000;stroke-opacity:0.7;stroke-width:1.275591;"/>
    <path clip-path="url(#p1cae45b114)" d="M 982.8 253.112913 
L 979.398947 253.670807 
L 974.281106 254.515555 
L 968.984153 255.368007 
L 963.962686 256.238275 
L 958.218781 257.136045 
L 951.813632 258.070555 
L 945.585983 259.050546 
L 938.758257 260.084222 
L 932.26321 261.179182 
L 928.369484 261.516429 
L 921.85071 262.658592 
L 914.768023 263.829702 
L 908.168571 265.024817 
L 901.346772 266.239196 
L 895.098928 267.468313 
L 889.680613 268.707858 
L 884.279702 269.953753 
L 879.484374 271.202145 
L 874.727661 272.44941 
L 870.200005 273.692152 
L 864.8731 274.927192 
L 864 275.131353 
" style="fill:none;stroke:#000000;stroke-opacity:0.7;stroke-width:1.275591;"/>
    <path clip-path="url(#p1cae45b114)" d="M 576 326.98447 
L 573.59633 327.455194 
L 569.92979 327.936355 
L 566.283784 328.327116 
L 562.905483 328.621845 
L 559.856537 328.814296 
L 556.965555 329.039927 
L 554.384756 329.124458 
L 551.428848 329.104659 
L 548.86431 328.987787 
L 546.151162 328.780413 
L 543.200433 328.488616 
L 540.480402 328.11816 
L 538.424488 327.674657 
L 536.300625 327.16372 
L 534.739154 326.591104 
L 533.553175 325.962858 
L 532.837837 325.285454 
L 532.274791 324.565929 
L 531.701499 323.812013 
L 530.733917 323.032257 
L 529.368555 322.236145 
L 527.279757 321.43419 
L 524.425019 321.699767 
L 521.90768 320.838377 
L 519.538126 319.852397 
L 516.985814 318.747361 
L 514.829688 317.529265 
L 512.244498 316.204919 
L 509.570315 314.782321 
L 506.755764 313.27107 
L 504.233786 311.68279 
L 500.822746 310.031591 
L 498.107372 308.33452 
L 494.586388 306.612009 
L 490.578 304.888268 
L 485.059358 303.19159 
L 479.883826 301.5545 
L 474.620782 300.013693 
L 468.908636 298.609677 
L 464.272991 298.978903 
L 460.121621 297.772944 
L 455.493956 296.773958 
L 450.098698 295.961477 
L 444.697595 295.310162 
L 438.576207 294.790649 
L 432 294.374968 
" style="fill:none;stroke:#000000;stroke-opacity:0.7;stroke-width:1.275591;"/>
    <path clip-path="url(#p1cae45b114)" d="M 144 216.437319 
L 124.606406 212.941378 
L 71.985204 204.611405 
L 25.2 200.342377 
" style="fill:none;stroke:#000000;stroke-opacity:0.7;stroke-width:1.275591;"/>
    <path clip-path="url(#p1cae45b114)" d="M 25.2 194.910334 
L 71.417435 199.2667 
L 123.943377 207.851257 
L 144 211.580103 
" style="fill:none;stroke:#000000;stroke-opacity:0.7;stroke-width:1.275591;"/>
    <path clip-path="url(#p1cae45b114)" d="M 432 291.833406 
L 438.271348 292.249366 
L 444.388397 292.791694 
L 449.798036 293.468932 
L 455.202915 294.311137 
L 459.84478 295.344233 
L 464.012289 296.589139 
L 468.655562 296.219913 
L 474.365129 297.667276 
L 479.632068 299.254436 
L 484.813405 300.939867 
L 490.341415 302.685965 
L 494.365279 304.45941 
L 497.902512 306.231228 
L 500.637765 307.976633 
L 504.058754 309.674718 
L 506.580505 311.308046 
L 509.390895 312.862197 
L 512.065343 314.325293 
L 514.651029 315.687538 
L 516.809513 316.940774 
L 519.367477 318.078062 
L 521.738657 319.0933 
L 524.25328 319.980855 
L 527.091288 319.715278 
L 529.176834 320.541754 
L 530.540395 321.362082 
L 531.510503 322.165508 
L 532.087103 322.942341 
L 532.655877 323.683845 
L 533.372676 324.382123 
L 534.567218 325.029992 
L 536.141261 325.620848 
L 538.274051 326.148522 
L 540.343788 326.607146 
L 543.072541 326.990998 
L 546.017895 327.294362 
L 548.725415 327.511364 
L 551.28774 327.63581 
L 554.236792 327.661009 
L 556.816055 327.579565 
L 559.710581 327.353935 
L 562.759508 327.162202 
L 566.139465 326.865979 
L 569.788711 326.471667 
L 573.454966 325.985039 
L 576 325.480801 
" style="fill:none;stroke:#000000;stroke-opacity:0.7;stroke-width:1.275591;"/>
    <path clip-path="url(#p1cae45b114)" d="M 864 273.036539 
L 864.54873 272.906331 
L 869.867339 271.655927 
L 874.399918 270.397773 
L 879.165354 269.135099 
L 883.971127 267.871359 
L 889.37965 266.610235 
L 894.806753 265.355643 
L 901.059899 264.111726 
L 907.881027 262.882863 
L 914.480638 261.673651 
L 921.562526 260.488905 
L 928.084326 259.333645 
L 931.982842 258.996398 
L 938.482563 257.889201 
L 945.312371 256.844337 
L 951.547785 255.854074 
L 957.952491 254.910074 
L 963.689812 254.003448 
L 968.708597 253.124806 
L 974.003946 252.264305 
L 979.113827 251.411669 
L 982.8 250.800504 
" style="fill:none;stroke:#000000;stroke-opacity:0.7;stroke-width:1.275591;"/>
    <path clip-path="url(#p1cae45b114)" d="M 982.8 248.487069 
L 978.828707 249.152531 
L 973.726785 250.013054 
L 968.433041 250.881605 
L 963.416939 251.76862 
L 957.6862 252.684103 
L 951.281938 253.637594 
L 945.038759 254.638127 
L 938.206868 255.69418 
L 931.702473 256.813614 
L 927.799169 257.150861 
L 921.274342 258.319218 
L 914.193253 259.517599 
L 907.593483 260.740908 
L 900.773026 261.984256 
L 894.514578 263.242973 
L 889.078687 264.512613 
L 883.662553 265.788966 
L 878.846335 267.068054 
L 874.072174 268.346136 
L 869.534672 269.619703 
L 864.22436 270.88547 
L 864 270.939487 
" style="fill:none;stroke:#000000;stroke-opacity:0.7;stroke-width:1.275591;"/>
    <path clip-path="url(#p1cae45b114)" d="M 576 323.976498 
L 573.313602 324.514885 
L 569.647631 325.006979 
L 565.995147 325.404842 
L 562.613533 325.702559 
L 559.564626 325.893573 
L 556.666555 326.119204 
L 554.088829 326.197559 
L 551.146632 326.166962 
L 548.586519 326.03494 
L 545.884628 325.808311 
L 542.944648 325.493381 
L 540.207173 325.096132 
L 538.123615 324.622388 
L 535.981897 324.077976 
L 534.395281 323.46888 
L 533.192178 322.801387 
L 532.473917 322.082235 
L 531.899415 321.318754 
L 531.319506 320.519004 
L 530.346872 319.691906 
L 528.985114 318.847364 
L 526.90282 317.996366 
L 524.081542 318.261943 
L 521.569634 317.348222 
L 519.196827 316.303728 
L 516.633212 315.134187 
L 514.472371 313.845811 
L 511.886188 312.445667 
L 509.211475 310.942072 
L 506.405246 309.345023 
L 503.883722 307.666646 
L 500.452784 305.921675 
L 497.697652 304.127936 
L 494.14417 302.306812 
L 490.104831 300.483662 
L 484.567452 298.688143 
L 479.380311 296.954371 
L 474.109477 295.320859 
L 468.402488 293.830148 
L 463.751586 294.199374 
L 459.567938 292.915521 
L 454.911874 291.848317 
L 449.497374 290.976387 
L 444.079198 290.273226 
L 437.966488 289.708084 
L 432 289.293724 
" style="fill:none;stroke:#000000;stroke-opacity:0.7;stroke-width:1.275591;"/>
    <path clip-path="url(#p1cae45b114)" d="M 144 206.730641 
L 123.280348 202.761136 
L 70.849666 193.921994 
L 25.2 189.481196 
" style="fill:none;stroke:#000000;stroke-opacity:0.7;stroke-width:1.275591;"/>
    <path clip-path="url(#p1cae45b114)" d="M 25.2 184.05498 
L 70.281897 188.577289 
L 122.617319 197.671015 
L 144 201.888959 
" style="fill:none;stroke:#000000;stroke-opacity:0.7;stroke-width:1.275591;"/>
    <path clip-path="url(#p1cae45b114)" d="M 432 286.755926 
L 437.661629 287.166801 
L 443.769999 287.754758 
L 449.196711 288.483842 
L 454.620833 289.385496 
L 459.291097 290.486809 
L 463.490884 291.80961 
L 468.149414 291.440384 
L 473.853824 292.974442 
L 479.128553 294.654307 
L 484.321499 296.43642 
L 489.868247 298.281359 
L 493.923062 300.154213 
L 497.492792 302.024644 
L 500.267803 303.866717 
L 503.70869 305.658574 
L 506.229987 307.382 
L 509.032055 309.021948 
L 511.707033 310.566041 
L 514.293712 312.004084 
L 516.45691 313.3276 
L 519.026178 314.529393 
L 521.400611 315.603145 
L 523.909803 316.543031 
L 526.714352 316.277454 
L 528.793394 317.152974 
L 530.153349 318.02173 
L 531.12851 318.872499 
L 531.711727 319.695166 
L 532.291956 320.480625 
L 533.01168 321.220651 
L 534.223344 321.907768 
L 535.822534 322.535104 
L 537.973179 323.096253 
L 540.070559 323.585117 
L 542.816756 323.995763 
L 545.751361 324.322259 
L 548.447623 324.558516 
L 551.005523 324.698113 
L 553.940866 324.73411 
L 556.517055 324.658842 
L 559.41867 324.433212 
L 562.467558 324.242916 
L 565.850828 323.943705 
L 569.506551 323.54229 
L 573.172237 323.044731 
L 576 322.471563 
" style="fill:none;stroke:#000000;stroke-opacity:0.7;stroke-width:1.275591;"/>
    <path clip-path="url(#p1cae45b114)" d="M 864 268.840443 
L 869.202006 267.583478 
L 873.744431 266.2945 
L 878.527315 265.001009 
L 883.353978 263.706572 
L 888.777724 262.41499 
L 894.222403 261.130303 
L 900.486153 259.856786 
L 907.305939 258.598954 
L 913.905868 257.361548 
L 920.986159 256.149532 
L 927.514011 254.968077 
L 931.422105 254.63083 
L 937.931174 253.499159 
L 944.765148 252.431917 
L 951.016092 251.421113 
L 957.41991 250.458132 
L 963.144065 249.533793 
L 968.157484 248.638404 
L 973.449625 247.761804 
L 978.543587 246.893394 
L 982.8 246.172605 
" style="fill:none;stroke:#000000;stroke-opacity:0.7;stroke-width:1.275591;"/>
    <path clip-path="url(#p1cae45b114)" d="M 982.8 243.857105 
L 978.258468 244.634256 
L 973.172464 245.510554 
L 967.881928 246.395203 
L 962.871191 247.298966 
L 957.153619 248.232161 
L 950.750245 249.204633 
L 944.491536 250.225707 
L 937.65548 251.304138 
L 931.141736 252.448046 
L 927.228854 252.785293 
L 920.697975 253.979845 
L 913.618483 255.205497 
L 907.018395 256.457 
L 900.19928 257.729317 
L 893.930229 259.017633 
L 888.476761 260.317368 
L 883.045404 261.624178 
L 878.208296 262.933964 
L 873.416687 264.242863 
L 868.86934 265.547254 
L 864 266.739812 
" style="fill:none;stroke:#000000;stroke-opacity:0.7;stroke-width:1.275591;"/>
    <path clip-path="url(#p1cae45b114)" d="M 576 320.965253 
L 575.935531 320.979212 
L 573.030873 321.574576 
L 569.365472 322.077602 
L 565.706509 322.482568 
L 562.321583 322.783274 
L 559.272714 322.97285 
L 556.367555 323.19848 
L 553.792902 323.270661 
L 550.864415 323.229264 
L 548.308728 323.082092 
L 545.618094 322.836208 
L 542.688863 322.498146 
L 539.933945 322.074103 
L 537.822742 321.570118 
L 535.66317 320.992232 
L 534.051408 320.346655 
L 532.831181 319.639916 
L 532.109996 318.879016 
L 531.52404 318.071579 
L 530.937513 317.225994 
L 529.959827 316.351555 
L 528.601674 315.458584 
L 526.525884 314.558542 
L 523.738065 314.824119 
L 521.231588 313.858067 
L 518.855528 312.755059 
L 516.280609 311.521013 
L 514.115053 310.162357 
L 511.527878 308.686415 
L 508.852635 307.101824 
L 506.054728 305.418977 
L 503.533658 303.650501 
L 500.082821 301.811759 
L 497.287932 299.921351 
L 493.701953 298.001615 
L 489.631662 296.079056 
L 484.075546 294.184697 
L 478.876795 292.354243 
L 473.598171 290.628025 
L 467.89634 289.050619 
L 463.230181 289.419845 
L 459.014256 288.058098 
L 454.329792 286.922676 
L 448.896049 285.991297 
L 443.4608 285.23629 
L 437.356769 284.625518 
L 432 284.220015 
" style="fill:none;stroke:#000000;stroke-opacity:0.7;stroke-width:1.275591;"/>
    <path clip-path="url(#p1cae45b114)" d="M 148.655899 198 
L 121.95429 192.580894 
L 69.714128 183.232583 
L 25.2 178.631701 
" style="fill:none;stroke:#000000;stroke-opacity:0.7;stroke-width:1.275591;"/>
    <path clip-path="url(#p1cae45b114)" d="M 25.2 173.211376 
L 69.146359 177.887877 
L 121.291261 187.490772 
L 168.56544 197.354712 
L 171.351766 198 
" style="fill:none;stroke:#000000;stroke-opacity:0.7;stroke-width:1.275591;"/>
    <path clip-path="url(#p1cae45b114)" d="M 432 281.685993 
L 437.05191 282.084235 
L 443.151601 282.717822 
L 448.595387 283.498752 
L 454.038751 284.459855 
L 458.737415 285.629386 
L 462.969479 287.030081 
L 467.643266 286.660855 
L 473.342518 288.281608 
L 478.625038 290.054178 
L 483.829593 291.932974 
L 489.395078 293.876754 
L 493.480844 295.849016 
L 497.083072 297.818059 
L 499.89784 299.756801 
L 503.358626 301.642429 
L 505.879469 303.455954 
L 508.673215 305.1817 
L 511.348723 306.806789 
L 513.936394 308.320629 
L 516.104308 309.714426 
L 518.684879 310.980724 
L 521.062565 312.11299 
L 523.566326 313.105208 
L 526.337415 312.83963 
L 528.409953 313.764194 
L 529.766304 314.681379 
L 530.746517 315.579489 
L 531.336352 316.447991 
L 531.928036 317.277406 
L 532.650683 318.05918 
L 533.879471 318.785543 
L 535.503806 319.44936 
L 537.672306 320.043983 
L 539.79733 320.563089 
L 542.560971 321.000529 
L 545.484826 321.350157 
L 548.169832 321.605669 
L 550.723307 321.760415 
L 553.644939 321.807212 
L 556.218055 321.738119 
L 559.126759 321.512488 
L 562.175608 321.323631 
L 565.56219 321.021431 
L 569.224392 320.612914 
L 572.889508 320.104422 
L 575.797328 319.501806 
L 576 319.457367 
" style="fill:none;stroke:#000000;stroke-opacity:0.7;stroke-width:1.275591;"/>
    <path clip-path="url(#p1cae45b114)" d="M 864 264.637044 
L 868.536673 263.511029 
L 873.088943 262.191226 
L 877.889276 260.866918 
L 882.736829 259.541785 
L 888.175798 258.219745 
L 893.638054 256.904963 
L 899.912407 255.601847 
L 906.730851 254.315045 
L 913.331098 253.049445 
L 920.409791 251.810158 
L 926.943696 250.602508 
L 930.861368 250.265261 
L 937.379786 249.109116 
L 944.217924 248.019497 
L 950.484398 246.988152 
L 956.887329 246.00619 
L 962.598317 245.064139 
L 967.606372 244.152002 
L 972.895304 243.259303 
L 977.973348 242.375118 
L 982.8 241.540567 
" style="fill:none;stroke:#000000;stroke-opacity:0.7;stroke-width:1.275591;"/>
    <path clip-path="url(#p1cae45b114)" d="M 982.8 239.222985 
L 977.688228 240.11598 
L 972.618143 241.008053 
L 967.330815 241.908801 
L 962.325444 242.829311 
L 956.621038 243.780219 
L 950.218551 244.771672 
L 943.944312 245.813287 
L 937.104092 246.914095 
L 930.580999 248.082477 
L 926.658539 248.419724 
L 920.121607 249.640471 
L 913.043713 250.893394 
L 906.443307 252.173091 
L 899.625534 253.474377 
L 893.345879 254.792293 
L 887.874835 256.122123 
L 882.428255 257.459391 
L 877.570257 258.799873 
L 872.7612 260.139589 
L 868.204007 261.474805 
L 864 262.532131 
" style="fill:none;stroke:#000000;stroke-opacity:0.7;stroke-width:1.275591;"/>
    <path clip-path="url(#p1cae45b114)" d="M 576 317.94872 
L 575.659125 318.0244 
L 572.748144 318.634267 
L 569.083313 319.148226 
L 565.417871 319.560294 
L 562.029632 319.863988 
L 558.980803 320.052127 
L 556.068555 320.277757 
L 553.496976 320.343762 
L 550.582199 320.291567 
L 548.030936 320.129245 
L 545.351559 319.864106 
L 542.433078 319.502911 
L 539.660716 319.052075 
L 537.521869 318.517848 
L 535.344442 317.906489 
L 533.707534 317.224431 
L 532.470184 316.478445 
L 531.746076 315.675796 
L 531.148664 314.824403 
L 530.55552 313.932984 
L 529.572782 313.011204 
L 528.218233 312.069804 
L 526.148947 311.120718 
L 523.394587 311.386296 
L 520.893543 310.367912 
L 518.514229 309.20639 
L 515.928006 307.907838 
L 513.757735 306.478902 
L 511.169568 304.927163 
L 508.493795 303.261575 
L 505.704209 301.49293 
L 503.183594 299.634357 
L 499.712859 297.701842 
L 496.878212 295.714767 
L 493.259735 293.696418 
L 489.158493 291.674451 
L 483.58364 289.68125 
L 478.37328 287.754114 
L 473.086865 285.935191 
L 467.390192 284.27109 
L 462.708776 284.640317 
L 458.460574 283.200674 
L 453.747709 281.997035 
L 448.294725 281.006207 
L 442.842402 280.199354 
L 436.74705 279.542952 
L 432 279.153865 
" style="fill:none;stroke:#000000;stroke-opacity:0.7;stroke-width:1.275591;"/>
    <path clip-path="url(#p1cae45b114)" d="M 190.882334 198 
L 167.850186 192.523611 
L 120.628232 182.400651 
L 68.57859 172.543172 
L 25.2 167.794023 
" style="fill:none;stroke:#000000;stroke-opacity:0.7;stroke-width:1.275591;"/>
    <path clip-path="url(#p1cae45b114)" d="M 25.2 162.379658 
L 68.010821 167.198466 
L 119.965203 177.31053 
L 167.134933 187.692509 
L 209.179338 197.949634 
L 209.352417 198 
" style="fill:none;stroke:#000000;stroke-opacity:0.7;stroke-width:1.275591;"/>
    <path clip-path="url(#p1cae45b114)" d="M 432 276.623632 
L 436.442191 277.00167 
L 442.533203 277.680886 
L 447.994062 278.513662 
L 453.456668 279.534214 
L 458.183733 280.771963 
L 462.448074 282.250552 
L 467.137118 281.881326 
L 472.831213 283.588774 
L 478.121522 285.454049 
L 483.337687 287.429527 
L 488.921909 289.472148 
L 493.038626 291.543819 
L 496.673352 293.611475 
L 499.527878 295.646884 
L 503.008562 297.626284 
L 505.52895 299.529907 
L 508.314375 301.341451 
L 510.990413 303.047537 
L 513.579076 304.637175 
L 515.751705 306.101251 
L 518.34358 307.432055 
L 520.72452 308.622835 
L 523.222849 309.667384 
L 525.960479 309.401807 
L 528.026513 310.375413 
L 529.379259 311.341028 
L 530.364524 312.286479 
L 530.960976 313.200816 
L 531.564115 314.074187 
L 532.289686 314.897709 
L 533.535597 315.663318 
L 535.185078 316.363617 
L 537.371433 316.991713 
L 539.524101 317.541061 
L 542.305185 318.005294 
L 545.218292 318.378055 
L 547.892041 318.652821 
L 550.44109 318.822718 
L 553.349012 318.880313 
L 555.919055 318.817396 
L 558.834847 318.591765 
L 561.883657 318.404345 
L 565.273552 318.099156 
L 568.942233 317.683538 
L 572.606779 317.164113 
L 575.520922 316.546994 
L 576 316.439315 
" style="fill:none;stroke:#000000;stroke-opacity:0.7;stroke-width:1.275591;"/>
    <path clip-path="url(#p1cae45b114)" d="M 864 260.42506 
L 867.87134 259.43858 
L 872.433456 258.087952 
L 877.251237 256.732828 
L 882.11968 255.376998 
L 887.573872 254.0245 
L 893.053705 252.679623 
L 899.338662 251.346907 
L 906.155763 250.031137 
L 912.756328 248.737343 
L 919.833423 247.470784 
L 926.373381 246.23694 
L 930.300631 245.899693 
L 936.828398 244.719074 
L 943.6707 243.607077 
L 949.952704 242.555191 
L 956.354748 241.554248 
L 962.05257 240.594484 
L 967.055259 239.665599 
L 972.340983 238.756802 
L 977.403108 237.856842 
L 982.518556 236.954027 
L 982.8 236.908529 
" style="fill:none;stroke:#000000;stroke-opacity:0.7;stroke-width:1.275591;"/>
    <path clip-path="url(#p1cae45b114)" d="M 982.8 234.593328 
L 982.226081 234.686996 
L 977.117989 235.597704 
L 972.063822 236.505552 
L 966.779703 237.422398 
L 961.779696 238.359657 
L 956.088457 239.328277 
L 949.686858 240.338711 
L 943.397088 241.400867 
L 936.552704 242.524053 
L 930.020263 243.716909 
L 926.088224 244.054156 
L 919.545239 245.301097 
L 912.468943 246.581291 
L 905.868219 247.889183 
L 899.051789 249.219437 
L 892.76153 250.566953 
L 887.272909 251.926877 
L 881.811106 253.294604 
L 876.932218 254.665783 
L 872.105713 256.036315 
L 867.538674 257.402356 
L 864 258.315824 
" style="fill:none;stroke:#000000;stroke-opacity:0.7;stroke-width:1.275591;"/>
    <path clip-path="url(#p1cae45b114)" d="M 576 314.929151 
L 575.38272 315.069588 
L 572.465415 315.693959 
L 568.801154 316.21885 
L 565.129234 316.638019 
L 561.737682 316.944702 
L 558.688892 317.131404 
L 555.769555 317.357034 
L 553.201049 317.416864 
L 550.299982 317.353869 
L 547.753145 317.176398 
L 545.085025 316.892004 
L 542.177293 316.507676 
L 539.387487 316.030047 
L 537.220996 315.465578 
L 535.025715 314.820745 
L 533.363661 314.102206 
L 532.109187 313.316973 
L 531.382155 312.472577 
L 530.773288 311.577228 
L 530.173527 310.639975 
L 529.185737 309.670852 
L 527.834793 308.681023 
L 525.772011 307.682895 
L 523.05111 307.948472 
L 520.555497 306.877758 
L 518.17293 305.657721 
L 515.575404 304.294664 
L 513.400417 302.795448 
L 510.811258 301.167911 
L 508.134955 299.421327 
L 505.353691 297.566884 
L 502.83353 295.618212 
L 499.342897 293.591926 
L 496.468493 291.508183 
L 492.817517 289.39122 
L 488.685324 287.269845 
L 483.091734 285.177804 
L 477.869765 283.153985 
L 472.57556 281.242357 
L 466.884044 279.491562 
L 462.187371 279.860788 
L 457.906891 278.343251 
L 453.165627 277.071394 
L 447.6934 276.021117 
L 442.224005 275.162418 
L 436.137331 274.460387 
L 432 274.095299 
" style="fill:none;stroke:#000000;stroke-opacity:0.7;stroke-width:1.275591;"/>
    <path clip-path="url(#p1cae45b114)" d="M 223.965103 198 
L 208.439368 193.372818 
L 166.419679 182.861408 
L 119.302174 172.220409 
L 67.443052 161.853761 
L 25.2 156.968297 
" style="fill:none;stroke:#000000;stroke-opacity:0.7;stroke-width:1.275591;"/>
    <path clip-path="url(#p1cae45b114)" d="M 25.2 151.559958 
L 66.875283 156.509055 
L 118.639145 167.130288 
L 165.704425 178.030306 
L 207.699398 188.796001 
L 237.870314 198 
" style="fill:none;stroke:#000000;stroke-opacity:0.7;stroke-width:1.275591;"/>
    <path clip-path="url(#p1cae45b114)" d="M 432 271.568867 
L 435.832471 271.919104 
L 441.914806 272.64395 
L 447.392738 273.528572 
L 452.874586 274.608573 
L 457.63005 275.914539 
L 461.926669 277.471023 
L 466.63097 277.101797 
L 472.319907 278.89594 
L 477.618007 280.853921 
L 482.845781 282.926081 
L 488.44874 285.067542 
L 492.596408 287.238622 
L 496.263633 289.40489 
L 499.157916 291.536968 
L 502.658497 293.61014 
L 505.178432 295.603861 
L 507.955534 297.501203 
L 510.632103 299.288286 
L 513.221758 300.95372 
L 515.399103 302.488077 
L 518.002281 303.883386 
L 520.386474 305.13268 
L 522.879372 306.22956 
L 525.583543 305.963983 
L 527.643072 306.986633 
L 528.992214 308.000677 
L 529.982531 308.99347 
L 530.5856 309.953641 
L 531.200195 310.870968 
L 531.928689 311.736238 
L 533.191724 312.541094 
L 534.866351 313.277873 
L 537.07056 313.939443 
L 539.250873 314.519033 
L 542.0494 315.010059 
L 544.951758 315.405952 
L 547.614249 315.699974 
L 550.158874 315.88502 
L 553.053085 315.953414 
L 555.620055 315.896673 
L 558.542936 315.671042 
L 561.591707 315.48506 
L 564.984915 315.176882 
L 568.660074 314.754162 
L 572.324051 314.223804 
L 575.244517 313.592183 
L 576 313.41823 
" style="fill:none;stroke:#000000;stroke-opacity:0.7;stroke-width:1.275591;"/>
    <path clip-path="url(#p1cae45b114)" d="M 864 256.20441 
L 867.206008 255.366131 
L 871.777969 253.984679 
L 876.613198 252.598737 
L 881.502531 251.212211 
L 886.971946 249.829255 
L 892.469355 248.454283 
L 898.764916 247.091967 
L 905.580675 245.747228 
L 912.181558 244.42524 
L 919.257056 243.13141 
L 925.803066 241.871372 
L 929.739894 241.534125 
L 936.27701 240.329032 
L 943.123476 239.194657 
L 949.421011 238.12223 
L 955.822167 237.102306 
L 961.506822 236.12483 
L 966.504146 235.179197 
L 971.786661 234.254302 
L 976.832869 233.338567 
L 981.933607 232.419964 
L 982.8 232.277217 
" style="fill:none;stroke:#000000;stroke-opacity:0.7;stroke-width:1.275591;"/>
   </g>
  </g>
 </g>
 <defs>
  <clipPath id="p1cae45b114">
   <rect height="752.4" width="957.6" x="25.2" y="19.8"/>
  </clipPath>
 </defs>
</svg>
