<?xml version="1.0" encoding="utf-8" ?>
<svg baseProfile="full" height="7in" version="1.1" width="5in" xmlns="http://www.w3.org/2000/svg" xmlns:ev="http://www.w3.org/2001/xml-events" xmlns:xlink="http://www.w3.org/1999/xlink"><defs /><polygon fill="none" points="41.76,36.0 41.76,473.76 36.0,473.76 36.0,36.0 41.76,36.0" stroke="rgb(255, 0, 0)" stroke-width="0.001pt" /><polygon fill="none" points="100.87744640972168,36.0 100.87744640972168,473.76 95.11744640972168,473.76 95.11744640972168,36.0 100.87744640972168,36.0" stroke="rgb(255, 0, 0)" stroke-width="0.001pt" /><polygon fill="none" points="131.3652928930058,36.0 131.3652928930058,473.76 125.60529289300581,473.76 125.60529289300581,36.0 131.3652928930058,36.0" stroke="rgb(255, 0, 0)" stroke-width="0.001pt" /><polygon fill="none" points="156.04478594148966,36.0 156.04478594148966,473.76 150.28478594148967,473.76 150.28478594148967,36.0 156.04478594148966,36.0" stroke="rgb(255, 0, 0)" stroke-width="0.001pt" /><polygon fill="none" points="177.57622688494533,36.0 177.57622688494533,473.76 171.81622688494534,473.76 171.81622688494534,36.0 177.57622688494533,36.0" stroke="rgb(255, 0, 0)" stroke-width="0.001pt" /><polygon fill="none" points="197.03361672048365,36.0 197.03361672048365,473.76 191.27361672048366,473.76 191.27361672048366,36.0 197.03361672048365,36.0" stroke="rgb(255, 0, 0)" stroke-width="0.001pt" /><polygon fill="none" points="214.9833433516105,36.0 214.9833433516105,473.76 209.2233433516105,473.76 209.2233433516105,36.0 214.9833433516105,36.0" stroke="rgb(255, 0, 0)" stroke-width="0.001pt" /><polygon fill="none" points="231.76913915129677,36.0 231.76913915129677,473.76 226.00913915129678,473.76 226.00913915129678,36.0 231.76913915129677,36.0" stroke="rgb(255, 0, 0)" stroke-width="0.001pt" /><polygon fill="none" points="247.61890509044656,36.0 247.61890509044656,473.76 241.85890509044657,473.76 241.85890509044657,36.0 247.61890509044656,36.0" stroke="rgb(255, 0, 0)" stroke-width="0.001pt" /><polygon fill="none" points="262.6932961909577,36.0 262.6932961909577,473.76 256.9332961909577,473.76 256.9332961909577,36.0 262.6932961909577,36.0" stroke="rgb(255, 0, 0)" stroke-width="0.001pt" /><polygon fill="none" points="277.110793205223,36.0 277.110793205223,473.76 271.350793205223,473.76 271.350793205223,36.0 277.110793205223,36.0" stroke="rgb(255, 0, 0)" stroke-width="0.001pt" /><polygon fill="none" points="290.9618588227553,36.0 290.9618588227553,473.76 285.20185882275536,473.76 285.20185882275536,36.0 290.9618588227553,36.0" stroke="rgb(255, 0, 0)" stroke-width="0.001pt" /><polygon fill="none" points="304.31749122435485,36.0 304.31749122435485,473.76 298.55749122435486,473.76 298.55749122435486,36.0 304.31749122435485,36.0" stroke="rgb(255, 0, 0)" stroke-width="0.001pt" /><polygon fill="none" points="317.23467396723095,36.0 317.23467396723095,473.76 311.47467396723096,473.76 311.47467396723096,36.0 317.23467396723095,36.0" stroke="rgb(255, 0, 0)" stroke-width="0.001pt" /><polygon fill="none" points="329.76,36.0 329.76,473.76 324.0,473.76 324.0,36.0 329.76,36.0" stroke="rgb(255, 0, 0)" stroke-width="0.001pt" /></svg>