<?xml version="1.0" encoding="utf-8" ?>
<svg baseProfile="full" height="7in" version="1.1" width="5in" xmlns="http://www.w3.org/2000/svg" xmlns:ev="http://www.w3.org/2001/xml-events" xmlns:xlink="http://www.w3.org/1999/xlink"><defs /><polygon fill="none" points="324.0,36.0 324.0,41.76 36.0,41.76 36.0,36.0 324.0,36.0" stroke="rgb(255, 0, 0)" stroke-width="0.001pt" /><polygon fill="none" points="324.0,124.67616961458253 324.0,130.43616961458252 36.0,130.43616961458252 36.0,124.67616961458253 324.0,124.67616961458253" stroke="rgb(255, 0, 0)" stroke-width="0.001pt" /><polygon fill="none" points="324.0,170.40793933950872 324.0,176.1679393395087 36.0,176.1679393395087 36.0,170.40793933950872 324.0,170.40793933950872" stroke="rgb(255, 0, 0)" stroke-width="0.001pt" /><polygon fill="none" points="324.0,207.42717891223447 324.0,213.18717891223446 36.0,213.18717891223446 36.0,207.42717891223447 324.0,207.42717891223447" stroke="rgb(255, 0, 0)" stroke-width="0.001pt" /><polygon fill="none" points="324.0,239.724340327418 324.0,245.48434032741798 36.0,245.48434032741798 36.0,239.724340327418 324.0,239.724340327418" stroke="rgb(255, 0, 0)" stroke-width="0.001pt" /><polygon fill="none" points="324.0,268.9104250807255 324.0,274.6704250807255 36.0,274.6704250807255 36.0,268.9104250807255 324.0,268.9104250807255" stroke="rgb(255, 0, 0)" stroke-width="0.001pt" /><polygon fill="none" points="324.0,295.8350150274157 324.0,301.59501502741574 36.0,301.59501502741574 36.0,295.8350150274157 324.0,295.8350150274157" stroke="rgb(255, 0, 0)" stroke-width="0.001pt" /><polygon fill="none" points="324.0,321.01370872694514 324.0,326.77370872694513 36.0,326.77370872694513 36.0,321.01370872694514 324.0,321.01370872694514" stroke="rgb(255, 0, 0)" stroke-width="0.001pt" /><polygon fill="none" points="324.0,344.78835763566985 324.0,350.54835763566984 36.0,350.54835763566984 36.0,344.78835763566985 324.0,344.78835763566985" stroke="rgb(255, 0, 0)" stroke-width="0.001pt" /><polygon fill="none" points="324.0,367.3999442864366 324.0,373.1599442864366 36.0,373.1599442864366 36.0,367.3999442864366 324.0,367.3999442864366" stroke="rgb(255, 0, 0)" stroke-width="0.001pt" /><polygon fill="none" points="324.0,389.0261898078345 324.0,394.7861898078345 36.0,394.7861898078345 36.0,389.0261898078345 324.0,389.0261898078345" stroke="rgb(255, 0, 0)" stroke-width="0.001pt" /><polygon fill="none" points="324.0,409.802788234133 324.0,415.56278823413305 36.0,415.56278823413305 36.0,409.802788234133 324.0,409.802788234133" stroke="rgb(255, 0, 0)" stroke-width="0.001pt" /><polygon fill="none" points="324.0,429.8362368365323 324.0,435.5962368365323 36.0,435.5962368365323 36.0,429.8362368365323 324.0,429.8362368365323" stroke="rgb(255, 0, 0)" stroke-width="0.001pt" /><polygon fill="none" points="324.0,449.2120109508464 324.0,454.9720109508464 36.0,454.9720109508464 36.0,449.2120109508464 324.0,449.2120109508464" stroke="rgb(255, 0, 0)" stroke-width="0.001pt" /><polygon fill="none" points="324.0,468.0 324.0,473.76 36.0,473.76 36.0,468.0 324.0,468.0" stroke="rgb(255, 0, 0)" stroke-width="0.001pt" /></svg>