<?xml version="1.0" encoding="utf-8" ?>
<svg baseProfile="full" height="7in" version="1.1" width="5in" xmlns="http://www.w3.org/2000/svg" xmlns:ev="http://www.w3.org/2001/xml-events" xmlns:xlink="http://www.w3.org/1999/xlink"><defs /><polygon fill="none" points="64.8,54.0 64.8,450.0 54.0,450.0 54.0,54.0 64.8,54.0" stroke="rgb(255, 0, 0)" stroke-width="0.001pt" /><polygon fill="none" points="91.6,54.0 91.6,450.0 80.8,450.0 80.8,54.0 91.6,54.0" stroke="rgb(255, 0, 0)" stroke-width="0.001pt" /><polygon fill="none" points="118.39999999999999,54.0 118.39999999999999,450.0 107.6,450.0 107.6,54.0 118.39999999999999,54.0" stroke="rgb(255, 0, 0)" stroke-width="0.001pt" /><polygon fill="none" points="145.2,54.0 145.2,450.0 134.4,450.0 134.4,54.0 145.2,54.0" stroke="rgb(255, 0, 0)" stroke-width="0.001pt" /><polygon fill="none" points="172.0,54.0 172.0,450.0 161.2,450.0 161.2,54.0 172.0,54.0" stroke="rgb(255, 0, 0)" stroke-width="0.001pt" /><polygon fill="none" points="198.8,54.0 198.8,450.0 188.0,450.0 188.0,54.0 198.8,54.0" stroke="rgb(255, 0, 0)" stroke-width="0.001pt" /><polygon fill="none" points="225.6,54.0 225.6,450.0 214.8,450.0 214.8,54.0 225.6,54.0" stroke="rgb(255, 0, 0)" stroke-width="0.001pt" /><polygon fill="none" points="252.39999999999998,54.0 252.39999999999998,450.0 241.59999999999997,450.0 241.59999999999997,54.0 252.39999999999998,54.0" stroke="rgb(255, 0, 0)" stroke-width="0.001pt" /><polygon fill="none" points="279.2,54.0 279.2,450.0 268.4,450.0 268.4,54.0 279.2,54.0" stroke="rgb(255, 0, 0)" stroke-width="0.001pt" /><polygon fill="none" points="306.0,54.0 306.0,450.0 295.2,450.0 295.2,54.0 306.0,54.0" stroke="rgb(255, 0, 0)" stroke-width="0.001pt" /></svg>