<?xml version="1.0" encoding="utf-8" ?>
<svg baseProfile="full" height="7in" version="1.1" width="5in" xmlns="http://www.w3.org/2000/svg" xmlns:ev="http://www.w3.org/2001/xml-events" xmlns:xlink="http://www.w3.org/1999/xlink"><defs /><polygon fill="none" points="324.0,36.0 324.0,90.0 36.0,90.0 36.0,36.0 324.0,36.0" stroke="rgb(255, 0, 0)" stroke-width="0.001pt" /><polygon fill="none" points="324.0,111.60000000000001 324.0,165.6 36.0,165.6 36.0,111.60000000000001 324.0,111.60000000000001" stroke="rgb(255, 0, 0)" stroke-width="0.001pt" /><polygon fill="none" points="324.0,187.20000000000002 324.0,241.20000000000002 36.0,241.20000000000002 36.0,187.20000000000002 324.0,187.20000000000002" stroke="rgb(255, 0, 0)" stroke-width="0.001pt" /><polygon fill="none" points="324.0,262.8 324.0,316.8 36.0,316.8 36.0,262.8 324.0,262.8" stroke="rgb(255, 0, 0)" stroke-width="0.001pt" /><polygon fill="none" points="324.0,338.40000000000003 324.0,392.40000000000003 36.0,392.40000000000003 36.0,338.40000000000003 324.0,338.40000000000003" stroke="rgb(255, 0, 0)" stroke-width="0.001pt" /><polygon fill="none" points="324.0,414.0 324.0,468.0 36.0,468.0 36.0,414.0 324.0,414.0" stroke="rgb(255, 0, 0)" stroke-width="0.001pt" /></svg>