<?xml version="1.0" encoding="utf-8" ?>
<svg baseProfile="tiny" height="1344.0" version="1.2" width="1056.0" xmlns="http://www.w3.org/2000/svg" xmlns:ev="http://www.w3.org/2001/xml-events" xmlns:inkscape="http://www.inkscape.org/namespaces/inkscape" xmlns:xlink="http://www.w3.org/1999/xlink">
  <defs/>
  <g id="layer1" inkscape:groupmode="layer" inkscape:label="1" style="display:inline">
    <path d="M774.2737007628025,1151.9371698855657 L332.64188362956514,301.8213342367632" fill="none" stroke="black"/>
    <path d="M331.29763256880113,304.4545009916822 L770.7554439439316,1151.874427161163" fill="none" stroke="black"/>
    <path d="M767.242037974821,1151.8117718267927 L329.9528091307372,307.0887883301767" fill="none" stroke="black"/>
    <path d="M328.6074133153731,309.7241973584497 L763.7334732839436,1151.7492016700485" fill="none" stroke="black"/>
    <path d="M760.22973934262,1151.6867177971335 L327.2614441655565,312.360730288907" fill="none" stroke="black"/>
    <path d="M325.9149007241344,314.99838601534566 L756.730827536476,1151.6243202080473" fill="none" stroke="black"/>
    <path d="M753.2367263796798,1151.5620077965877 L324.56778394825966,317.6371656439687" fill="none" stroke="black"/>
    <path d="M323.22009288077953,320.277070280979 L749.7474263007045,1151.499781668957" fill="none" stroke="black"/>
    <path d="M746.2629186851761,1151.437640718952 L321.8718265645413,322.9181010325795" fill="none" stroke="black"/>
    <path d="M320.5229859566978,325.56025789877015 L742.7831920472624,1151.3755860527767" fill="none" stroke="black"/>
    <path d="M739.3082368154367,1151.3136154580247 L319.17357010009613,328.20354087955104" fill="none" stroke="black"/>
    <path d="M317.8235780375839,330.84795329353096 L735.8380434181722,1151.2517300408986" fill="none" stroke="black"/>
    <path d="M732.3726032410948,1151.1899286951957 L316.4730107263135,333.49349292830397" fill="none" stroke="black"/>
    <path d="M315.1218662519797,336.14016199627605 L728.9119047983725,1151.128212527119" fill="none" stroke="black"/>
    <path d="M725.4559385184782,1151.0665804304658 L313.77014461458253,338.78796160365005" fill="none" stroke="black"/>
    <path d="M312.417845814122,341.43689064422307 L722.0046957870384,1151.0050335114388" fill="none" stroke="black"/>
    <path d="M718.558167032526,1150.9435695576317 L311.06496985059795,344.0869524366039" fill="none" stroke="black"/>
    <path d="M309.711515766858,346.73814587458963 L715.1163407691088,1150.882189675248" fill="none" stroke="black"/>
    <path d="M711.6792093395654,1150.8208938642879 L308.3574835629018,349.39047206438323" fill="none" stroke="black"/>
    <path d="M307.00287323872965,352.04393100598463 L708.2467622152169,1150.7596821247507" fill="none" stroke="black"/>
    <path d="M704.8189898245357,1150.6985522442305 L305.64768288003603,354.69852491179967" fill="none" stroke="black"/>
    <path d="M304.2919134439736,357.3542537818285 L701.3958825959958,1150.6375064351341" fill="none" stroke="black"/>
    <path d="M697.9774309580698,1150.576543591258 L302.93556397338983,360.0111187222739" fill="none" stroke="black"/>
    <path d="M301.57863446828463,362.66911973313603 L694.5636262963842,1150.515663712602" fill="none" stroke="black"/>
    <path d="M691.1544580822592,1150.4548667991662 L300.22112492865796,365.32825902682055" fill="none" stroke="black"/>
    <path d="M298.8630334402045,367.9885343909218 L687.7499167441681,1150.394151744748" fill="none" stroke="black"/>
    <path d="M684.3499936677372,1150.33351965555 L297.504360960077,370.6499502502514" fill="none" stroke="black"/>
    <path d="M296.14510748827536,373.3125043924036 L680.9546802385917,1150.272969425369" fill="none" stroke="black"/>
    <path d="M677.5639649708999,1150.2125010542059 L294.78527111049425,375.9761990297841" fill="none" stroke="black"/>
    <path d="M293.42485278388637,378.64103416239294 L674.1778402074406,1150.1521145420597" fill="none" stroke="black"/>
    <path d="M670.7962954195341,1150.0918098889315 L292.06385155129914,381.3070108964332" fill="none" stroke="black"/>
    <path d="M290.7022674127323,383.97413033810767 L667.4193219928063,1150.0315870948202" fill="none" stroke="black"/>
    <path d="M664.0469113128831,1149.9714450535234 L289.34009941103346,386.64239248741643" fill="none" stroke="black"/>
    <path d="M287.97734754620234,389.3117984505624 L660.6790528510853,1149.911384871244" fill="none" stroke="black"/>
    <path d="M657.3157379930387,1149.8514054417788 L286.61401181823925,391.9823493337485" fill="none" stroke="black"/>
    <path d="M285.2500912699913,394.6540451369747 L653.9569571672164,1149.7915067651284" fill="none" stroke="black"/>
    <path d="M650.6027017592444,1149.731688841292 L283.88558590145857,397.32688696644396" fill="none" stroke="black"/>
    <path d="M282.5204937983356,400.00087592835933 L647.2529631547486,1149.6719516702706" fill="none" stroke="black"/>
    <path d="M643.9077308250498,1149.6122941458602 L281.1548168749279,402.6760120227206" fill="none" stroke="black"/>
    <path d="M279.78855417408266,405.3522963557309 L640.5669971129264,1149.5527173742644" fill="none" stroke="black"/>
    <path d="M637.2307514896988,1149.49322024928 L278.4217047386473,408.02972892739007" fill="none" stroke="black"/>
    <path d="M277.05426761146913,410.70831195010413 L633.8989853409932,1149.4338038771102" fill="none" stroke="black"/>
    <path d="M630.5716910095884,1149.3744660453485 L275.68624374970074,413.38804542387305" fill="none" stroke="black"/>
    <path d="M274.31763219618966,416.0689304548997 L627.2488579668043,1149.3152089664018" fill="none" stroke="black"/>
    <path d="M623.9304775982673,1149.2560304278636 L272.94843295093557,418.75096704318406" fill="none" stroke="black"/>
    <path d="M271.57864409963344,421.43415629492915 L620.6165403324505,1149.1969315359365" fill="none" stroke="black"/>
    <path d="M617.3070394692852,1149.137912290621 L270.2082675565884,424.11849821013493" fill="none" stroke="black"/>
    <path d="M268.83730140749515,426.8039950012073 L614.0019635229394,1149.078970479511" fill="none" stroke="black"/>
    <path d="M610.7013057933441,1149.0201083150132 L267.4657456523538,429.49064666814627" fill="none" stroke="black"/>
    <path d="M266.0936002911642,432.17845431715466 L607.4050557518203,1148.9613257971264" fill="none" stroke="black"/>
    <path d="M604.1132047839935,1148.9026207134452 L264.7208643667738,434.8674179482326" fill="none" stroke="black"/>
    <path d="M263.3475369220298,437.557538667583 L600.8257452326422,1148.8439930639697" fill="none" stroke="black"/>
    <path d="M597.5426665690875,1148.7854450611053 L261.9736198712377,440.2488164752059" fill="none" stroke="black"/>
    <path d="M260.5991103429393,442.94125468971004 L594.2639620932603,1148.726974492447" fill="none" stroke="black"/>
    <path d="M590.989622233634,1148.6685813579943 L259.22400929428744,445.63485109868947" fill="none" stroke="black"/>
    <path d="M257.8483157681294,448.32960791455025 L587.7196374186817,1148.6102667639498" fill="none" stroke="black"/>
    <path d="M584.4539999911822,1148.552028497908 L256.47202976446505,451.0255251372922" fill="none" stroke="black"/>
    <path d="M255.09515032614183,453.7226038731185 L581.1927003796086,1148.4938687722752" fill="none" stroke="black"/>
    <path d="M577.9357309267393,1148.4357853746446 L253.71767745315975,456.4208463344347" fill="none" stroke="black"/>
    <path d="M252.3396111455188,459.12025030883524 L574.683082061048,1148.3777794112198" fill="none" stroke="black"/>
    <path d="M571.4347461253128,1148.3198508820005 L250.96095140321904,461.8208191149288" fill="none" stroke="black"/>
    <path d="M249.58169631195494,464.5225527527152 L568.19071450516,1148.261997574581" fill="none" stroke="black"/>
    <path d="M564.9509776290627,1148.2042228075702 L248.20184587172662,467.2254512221947" fill="none" stroke="black"/>
    <path d="M246.82140103968675,469.92951562957023 L561.7155278397995,1148.146523262359" fill="none" stroke="black"/>
    <path d="M558.4843565229962,1148.0889000451507 L245.44035990152997,472.63474708104457" fill="none" stroke="black"/>
    <path d="M244.05872245725624,475.34114668282075 L555.2574550642792,1148.0313531559445" fill="none" stroke="black"/>
    <path d="M552.0348148492737,1147.9738825947416 L242.67648966401833,478.04871443489867" fill="none" stroke="black"/>
    <path d="M241.2936586503581,480.7574514434815 L548.8164282207588,1147.9164872553383" fill="none" stroke="black"/>
    <path d="M545.6022856072077,1147.8591682439373 L239.91023133058098,483.4673577085689" fill="none" stroke="black"/>
    <path d="M238.52620579038165,486.1784354425671 L542.3923793513989,1147.8019244543366" fill="none" stroke="black"/>
    <path d="M539.1867008389581,1147.7447558865356 L237.14158298691268,488.89068464547574" fill="none" stroke="black"/>
    <path d="M235.75636100586877,491.6041053172952 L535.9852414555116,1147.687662540534" fill="none" stroke="black"/>
    <path d="M532.7879945009904,1147.630645522535 L234.37053984724992,494.3186996704311" fill="none" stroke="black"/>
    <path d="M232.98412046820886,497.0344665986805 L529.5949494467152,1147.5737026201327" fill="none" stroke="black"/>
    <path d="M526.4060986354646,1147.5168338333278 L231.59710095444012,499.7514094206525" fill="none" stroke="black"/>
    <path d="M230.20948226309645,502.4695270301438 L523.2214344100171,1147.4600402683222" fill="none" stroke="black"/>
    <path d="M520.0409481559989,1147.4033208189135 L228.82126247987253,505.18882053335744" fill="none" stroke="black"/>
    <path d="M227.43244160476831,507.90928993029354 L516.864632216188,1147.3466765913045" fill="none" stroke="black"/>
    <path d="M513.6924770190583,1147.2901064792923 L226.04302059493648,510.6309385395608" fill="none" stroke="black"/>
    <path d="M224.65299753607167,513.3537641487534 L510.52447682169344,1147.233609376674" fill="none" stroke="black"/>
    <path d="M507.36062013826137,1147.1771874958554 L223.26237242817388,516.0777689702771" fill="none" stroke="black"/>
    <path d="M221.87114527124317,518.8029541103351 L504.2009021829986,1147.1208386244307" fill="none" stroke="black"/>
    <path d="M501.0453124272257,1147.0645638686028 L220.47931510812674,521.529319568927" fill="none" stroke="black"/>
    <path d="M219.08688193882472,524.2568664522562 L497.8938441708743,1147.0083621221688" fill="none" stroke="black"/>
    <path d="M494.74648784241714,1146.9522333851287 L217.69384576333704,526.9855958665253" fill="none" stroke="black"/>
    <path d="M216.30020562451108,529.7155078117345 L491.60323769893847,1146.8961787636854" fill="none" stroke="black"/>
    <path d="M488.4640841689115,1146.840196045433 L214.9059605651941,532.4466022878836" fill="none" stroke="black"/>
    <path d="M213.5111115425388,535.1788826135815 L485.32901863796195,1146.7842874427774" fill="none" stroke="black"/>
    <path d="M482.19803440602135,1146.7284507433128 L212.11565664223986,537.9123476826254" fill="none" stroke="black"/>
    <path d="M210.7195968214499,540.6469986012181 L479.07112381586825,1146.672687053242" fill="none" stroke="black"/>
    <path d="M475.94827729597586,1146.6169963725652 L209.3229311230163,543.3828364755624" fill="none" stroke="black"/>
    <path d="M207.92565954693896,546.1198624118615 L472.8294881462752,1146.5613775950787" fill="none" stroke="black"/>
    <path d="M469.7147477523926,1146.5058307207837 L206.52778113606536,548.8580764101152" fill="none" stroke="black"/>
    <path d="M205.1292949332427,551.5974784703237 L466.60404845710633,1146.4503568558825" fill="none" stroke="black"/>
    <path d="M463.49738356034794,1146.3949537879694 L203.73020189562374,554.3380719110958" fill="none" stroke="black"/>
    <path d="M202.33050106605572,557.0798545200254 L460.39474349059054,1146.3396226232467" fill="none" stroke="black"/>
    <path d="M457.2961215477654,1146.2843644679183 L200.93019244453865,559.8228296157214" fill="none" stroke="black"/>
    <path d="M199.52927411676723,562.566996091981 L454.20150911749835,1146.229176003375" fill="none" stroke="black"/>
    <path d="M451.1108994997208,1146.1740605482255 L198.1277479970468,565.31235616121" fill="none" stroke="black"/>
    <path d="M196.72561217107204,568.0589098234083 L448.0242840800585,1146.1190147838606" fill="none" stroke="black"/>
    <path d="M444.9416542441376,1146.0640409226871 L195.32286568169025,570.806657078576" fill="none" stroke="black"/>
    <path d="M193.91950948605404,573.5556012453219 L441.8630042490419,1146.0091378585016" fill="none" stroke="black"/>
    <path d="M438.7883254803974,1145.954305591304 L192.51554262701075,576.3057401112401" fill="none" stroke="black"/>
    <path d="M191.11096510456042,579.0570758887364 L435.7176102809827,1145.8995441210946" fill="none" stroke="black"/>
    <path d="M432.65085195072885,1145.844853447873 L189.70577596155044,581.809609684014" fill="none" stroke="black"/>
    <path d="M188.29997519798064,584.5633426032757 L429.58804091810936,1145.790233571639" fill="none" stroke="black"/>
    <path d="M426.52917048305534,1145.7356833861904 L186.8935628138512,587.3182735403184" fill="none" stroke="black"/>
    <path d="M185.48653689485667,590.0744047075481 L423.4742329883455,1145.681202891527" fill="none" stroke="black"/>
    <path d="M420.42322077675834,1145.6267931938514 L184.0788983981497,592.8317372111677" fill="none" stroke="black"/>
    <path d="M182.67064636657773,595.5902710511774 L417.3761271482252,1145.572452080758" fill="none" stroke="black"/>
    <path d="M414.3329434883719,1145.5181817646526 L181.26177984298795,598.3500073337799" fill="none" stroke="black"/>
    <path d="M179.8522997845331,601.1109460589753 L411.2936630971299,1145.4639811393322" fill="none" stroke="black"/>
    <path d="M408.25827736012496,1145.4098502047968 L178.44220523406057,603.8730894391695" fill="none" stroke="black"/>
    <path d="M177.0314952344176,606.6364363681593 L405.22677957728837,1145.3557878548436" fill="none" stroke="black"/>
    <path d="M402.1991630485514,1145.3017951956754 L175.62017074275684,609.400990164554" fill="none" stroke="black"/>
    <path d="M174.20822984477297,612.1667497221501 L399.17541820238733,1145.2478711210892" fill="none" stroke="black"/>
    <path d="M396.1555402530328,1145.1940156310857 L172.795672540466,614.9337161471511" fill="none" stroke="black"/>
    <path d="M171.38249882983598,617.7018905457595 L393.13951962896095,1145.1402298318667" fill="none" stroke="black"/>
    <path d="M390.1273496301032,1145.0865126172298 L169.96870775573012,620.4712729179755" fill="none" stroke="black"/>
    <path d="M168.55430027530122,623.241865476205 L387.1190225992381,1145.0328639871755" fill="none" stroke="black"/>
    <path d="M384.1145327934494,1144.9792828354998 L167.13927447424385,626.0136682204478" fill="none" stroke="black"/>
    <path d="M165.72362939540534,628.7866822569072 L381.11387064121067,1144.9257713746092" fill="none" stroke="black"/>
    <path d="M378.11703039960565,1144.8723273920982 L164.30736695309105,631.5609075855829" fill="none" stroke="black"/>
    <path d="M162.89048523299562,634.3363453126777 L375.1240034542603,1144.818950887966" fill="none" stroke="black"/>
    <path d="M372.1347840622586,1144.7656429684162 L161.47298327796642,637.1129976505979" fill="none" stroke="black"/>
    <path d="M160.05486300230882,639.8908634931404 L369.149364566379,1144.712402527245" fill="none" stroke="black"/>
    <path d="M366.1677363522476,1144.6592295644537 L158.63612153456472,642.6699439465079" fill="none" stroke="black"/>
    <path d="M157.21675887473407,645.4502401169036 L363.1898936769483,1144.6061240800414" fill="none" stroke="black"/>
    <path d="M360.2158288832597,1144.5530871802107 L155.79677597996965,648.2317531105303" fill="none" stroke="black"/>
    <path d="M154.37617093596612,651.0144840335912 L357.24553431396026,1144.5001155463542" fill="none" stroke="black"/>
    <path d="M354.2790042261341,1144.447212497079 L152.95494469987608,653.798431779883" fill="none" stroke="black"/>
    <path d="M151.5330953573942,656.5835996680148 L351.31623000540714,1144.3943758199803" fill="none" stroke="black"/>
    <path d="M348.35720495171046,1144.3416066212608 L150.11062386567312,659.3699876979864" fill="none" stroke="black"/>
    <path d="M148.68752926756025,662.157594763595 L345.40192140782295,1144.2889037947175" fill="none" stroke="black"/>
    <path d="M342.4503736308282,1144.2362673403504 L147.26381060590285,664.9464241834493" fill="none" stroke="black"/>
    <path d="M145.83946883785376,667.7364759575493 L339.50255396350514,1144.1836972581596" fill="none" stroke="black"/>
    <path d="M336.5584547486321,1144.1311935481453 L144.41450204910728,670.527751192098" fill="none" stroke="black"/>
    <path d="M142.98891119681645,673.3202487808925 L333.6180692861405,1144.078756210307" fill="none" stroke="black"/>
    <path d="M330.68139087596165,1144.026385244645 L141.56269436667566,676.1139720425415" fill="none" stroke="black"/>
    <path d="M140.13585251583788,678.908920977045 L327.7484128180267,1143.974080651159" fill="none" stroke="black"/>
    <path d="M324.8191264979616,1143.9218413236467 L138.70838468715004,681.7050955844032" fill="none" stroke="black"/>
    <path d="M137.28028992345975,684.5024969708188 L321.89352713000306,1143.8696672621077" fill="none" stroke="black"/>
    <path d="M318.9716060997768,1143.8175595727444 L135.85156822476694,687.301126242495" fill="none" stroke="black"/>
    <path d="M134.42222054822417,690.1009845056345 L316.0533567072144,1143.7655171493548" fill="none" stroke="black"/>
    <path d="M313.1387732093995,1143.7135399919384 L132.9922440223736,692.9020717602373" fill="none" stroke="black"/>
    <path d="M131.56163960436788,695.7043902187094 L310.22784699195813,1143.6616281004954" fill="none" stroke="black"/>
    <path d="M307.32057231197433,1143.6097814750256 L130.13040729420686,698.5079387748478" fill="none" stroke="black"/>
    <path d="M128.6985451775853,701.3127196410585 L304.41694246937925,1143.558000115529" fill="none" stroke="black"/>
    <path d="M301.5169498069515,1143.5062829158032 L127.26605516880863,704.1187328173413" fill="none" stroke="black"/>
    <path d="M738.8740273755996,232.98953678362722 L1008.0,633.5281114109523" fill="none" stroke="black"/>
    <path d="M1006.5152149976379,636.8721982889969 L735.9222403104359,233.47215763834345" fill="none" stroke="black"/>
    <path d="M732.9738932519886,233.95421543576464 L1005.0296470443875,640.2180473483205" fill="none" stroke="black"/>
    <path d="M1003.5432970974007,643.5656585889233 L730.0289785430357,234.4357134944994" fill="none" stroke="black"/>
    <path d="M727.0874904406619,234.91664960214212 L1002.056163242373,646.9150342232111" fill="none" stroke="black"/>
    <path d="M1000.5682464364563,650.2661753573868 L724.1494241591033,235.39702707730135" fill="none" stroke="black"/>
    <path d="M721.2147729982914,235.87684591997737 L999.079543808193,653.6190830976537" fill="none" stroke="black"/>
    <path d="M997.5900572718881,656.9737596564172 L718.2835302581575,236.35610834257585" fill="none" stroke="black"/>
    <path d="M715.3556911529379,236.83481323889396 L996.0997839560844,660.3302061398804" fill="none" stroke="black"/>
    <path d="M994.6087248179335,663.6884236542464 L712.4312489825641,237.31296282133746" fill="none" stroke="black"/>
    <path d="M709.5101989612729,237.79055819610943 L993.1168789002838,667.0484133057178" fill="none" stroke="black"/>
    <path d="M991.6242452459817,670.4101773067009 L706.5925334318424,238.26760046941274" fill="none" stroke="black"/>
    <path d="M703.6782485656624,238.74408964124729 L990.1308228978749,673.7737156571953" fill="none" stroke="black"/>
    <path d="M988.6366118559633,677.13903167581 L700.7673367055111,239.22002681781618" fill="none" stroke="black"/>
    <path d="M697.8597930656254,239.69541310532225 L987.1416111630945,680.5061253625452" fill="none" stroke="black"/>
    <path d="M985.6458208192682,683.8749989298063 L694.9556109459365,240.17025071617138" fill="none" stroke="black"/>
    <path d="M692.054785560681,240.64453965036364 L984.1492389101793,687.2456534837968" fill="none" stroke="black"/>
    <path d="M982.6518663929803,690.618091236922 L689.1573102097902,241.11827990789902" fill="none" stroke="black"/>
    <path d="M686.2631791503482,241.59147370118325 L981.1537013533659,693.9923121891824" fill="none" stroke="black"/>
    <path d="M979.6547437913359,697.3683174467805 L683.3723875965911,242.06412213641948" fill="none" stroke="black"/>
    <path d="M680.484927891298,242.53622521360757 L978.1549927497379,700.7461103283254" fill="none" stroke="black"/>
    <path d="M976.6544482285719,704.125690833817 L677.6007962058579,243.0077840389505" fill="none" stroke="black"/>
    <path d="M674.719986797355,243.4787997186512 L975.153109270685,707.5070611756613" fill="none" stroke="black"/>
    <path d="M973.6509749189247,710.8902224600611 L671.8424920085677,243.94927335891265" fill="none" stroke="black"/>
    <path d="M668.9683080108855,244.41920606593754 L972.1480442161385,714.2751757932193" fill="none" stroke="black"/>
    <path d="M970.6443181194786,717.661923387542 L666.0974281042395,244.88859894592923" fill="none" stroke="black"/>
    <path d="M663.2298465457136,245.35745199888754 L969.13979471464,721.050465243029" fill="none" stroke="black"/>
    <path d="M967.63447304447,724.440804678289 L660.365557592392,245.8257663310152" fill="none" stroke="black"/>
    <path d="M657.5045574156636,246.29354304851535 L966.1283531089682,727.8329416933223" fill="none" stroke="black"/>
    <path d="M964.6214349081354,731.2268773943317 L654.6468374011547,246.76078436379396" fill="none" stroke="black"/>
    <path d="M651.7923937202545,247.2274891706478 L963.1137165276657,734.622615099926" fill="none" stroke="black"/>
    <path d="M961.605197967559,738.0201548101053 L648.9412206300467,247.69365857528004" fill="none" stroke="black"/>
    <path d="M646.0933123876157,248.15929589629945 L960.0958782706628,741.4194976310723" fill="none" stroke="black"/>
    <path d="M958.585757436977,744.820646881436 L643.248663250045,248.6243989213001" fill="none" stroke="black"/>
    <path d="M640.4072674744189,249.0889709688908 L957.0748345093491,748.2236014549935" fill="none" stroke="black"/>
    <path d="M955.5631085306266,751.6283657765564 L637.5691202749736,249.55301093286874" fill="none" stroke="black"/>
    <path d="M634.7342149516408,250.01652213184258 L954.0505795008091,755.0349387399218" fill="none" stroke="black"/>
    <path d="M952.5372455055915,758.4433225574958 L631.902546718657,250.47950235340653" fill="none" stroke="black"/>
    <path d="M629.0741098331059,250.9419560223722 L951.0231075021261,761.8535183354808" fill="none" stroke="black"/>
    <path d="M949.5081645332607,765.2655282862834 L626.2488985520718,251.4038809263339" fill="none" stroke="black"/>
    <path d="M623.4269071326385,251.86528038390043 L947.99241468469,768.679353516106" fill="none" stroke="black"/>
    <path d="M946.4758589135658,772.0949962373545 L620.6081307890427,252.32615328886874" fill="none" stroke="black"/>
    <path d="M617.7925637783678,252.78650185364472 L944.9584953055837,775.5124564500293" fill="none" stroke="black"/>
    <path d="M943.4403238607435,778.9317363665358 L614.9802003576985,253.24632718443138" fill="none" stroke="black"/>
    <path d="M612.1710357412712,253.70562817502577 L941.9213445790451,782.3528370930771" fill="none" stroke="black"/>
    <path d="M940.4015555461831,785.7757608420594 L609.3650641861698,254.16440814403666" fill="none" stroke="black"/>
    <path d="M606.5622789923254,254.622667091464 L938.8809567621572,789.200508719685" fill="none" stroke="black"/>
    <path d="M937.3595472698153,792.6270818321575 L603.7626772882802,255.08040501730795" fill="none" stroke="black"/>
    <path d="M600.9662514168128,255.53762413397425 L935.8373261120046,796.0554823918824" fill="none" stroke="black"/>
    <path d="M934.3142942458774,799.4857103988597 L598.1729965921595,255.99432444146294" fill="none" stroke="black"/>
    <path d="M595.3829070714046,256.4505081521799 L932.790448799976,802.9177691716984" fill="none" stroke="black"/>
    <path d="M931.2657907314531,806.3516587103982 L592.5959790259374,256.9061741599222" fill="none" stroke="black"/>
    <path d="M589.8122057556889,257.3613246770957 L929.7403190831558,809.7873812273652" fill="none" stroke="black"/>
    <path d="M928.2140328979317,813.2249378288024 L587.031581517743,257.8159597037004" fill="none" stroke="black"/>
    <path d="M584.2541024834895,258.2700814521422 L926.6869312186277,816.6643307271155" fill="none" stroke="black"/>
    <path d="M925.1590140452442,820.1055599223047 L581.4797619528592,258.7236888162181" fill="none" stroke="black"/>
    <path d="M578.708555140089,259.176784008334 L923.6302813777813,823.5486287329785" fill="none" stroke="black"/>
    <path d="M922.1007303447805,826.9935371591372 L575.9404772594153,259.6293681346929" fill="none" stroke="black"/>
    <path d="M573.1755225679221,260.0814423014977 L920.5703628605474,830.4402874131863" fill="none" stroke="black"/>
    <path d="M919.039176053624,833.8888806013293 L570.4136853226935,260.53300540254537" fill="none" stroke="black"/>
    <path d="M567.6549597808134,260.98406075644493 L917.5071708811631,837.3393178297687" fill="none" stroke="black"/>
    <path d="M915.9743454288591,840.7916024171135 L564.8993430708238,261.4346072569932" fill="none" stroke="black"/>
    <path d="M562.146827535503,261.8846471165963 L914.440699696712,844.2457332571606" fill="none" stroke="black"/>
    <path d="M912.9062336847219,847.701713668519 L559.3974093462405,262.334180335254" fill="none" stroke="black"/>
    <path d="M556.6510818029676,262.78320801916936 L911.3709454785835,851.1595447573916" fill="none" stroke="black"/>
    <path d="M909.8348350782967,854.6192276299812 L553.9078410770737,263.2317312745453" fill="none" stroke="black"/>
    <path d="M551.1676823827952,263.67975010138184 L908.297901526709,858.0807644986937" fill="none" stroke="black"/>
    <path d="M906.7601448238202,861.5441553635293 L548.4305990200635,264.1272667120848" fill="none" stroke="black"/>
    <path d="M545.6965862031152,264.57428110665427 L905.2215640124775,865.0094035430967" fill="none" stroke="black"/>
    <path d="M903.6821581355287,868.4765090373958 L542.9656391461867,265.0207943912931" fill="none" stroke="black"/>
    <path d="M540.2377530635151,265.46680656600125 L902.1419262358206,871.9454751650356" fill="none" stroke="black"/>
    <path d="M900.6008683133534,875.4163008198129 L537.5129212550314,265.9123198431848" fill="none" stroke="black"/>
    <path d="M534.7911408492776,266.35733422284346 L899.0589834109746,878.8889893203367" fill="none" stroke="black"/>
    <path d="M897.5162705715315,882.3635428790129 L532.0724051461848,266.80185081118043" fill="none" stroke="black"/>
    <path d="M529.3567093599897,267.24587071439845 L895.972729795024,885.8399603896386" fill="none" stroke="black"/>
    <path d="M894.4283601242994,889.3182451708223 L526.6440487049292,267.6893939324977" fill="none" stroke="black"/>
    <path d="M523.9344174380869,268.132421571681 L892.8831606022047,892.7983994349701" fill="none" stroke="black"/>
    <path d="M891.3371312287406,896.2804220758791 L521.2278117308524,268.57495584435424" fill="none" stroke="black"/>
    <path d="M518.5242248831566,269.0169956443145 L889.790271046754,899.764317518361" fill="none" stroke="black"/>
    <path d="M888.2425781419395,903.2500857624159 L515.8236530663892,269.45854207776466" fill="none" stroke="black"/>
    <path d="M513.1260905376339,269.8995962509078 L886.6940544286024,906.7377279142466" fill="none" stroke="black"/>
    <path d="M885.1446970352852,910.227246186259 L510.4315325111274,270.34016037614964" fill="none" stroke="black"/>
    <path d="M507.7399742011061,270.7802333472873 L883.5945059619874,913.7186416846561" fill="none" stroke="black"/>
    <path d="M882.0434802515563,917.2119166218434 L505.051410821807,271.2198162705237" fill="none" stroke="black"/>
    <path d="M502.3658366303138,271.65891135826485 L880.4916199039922,920.7070721040245" fill="none" stroke="black"/>
    <path d="M878.9389239621423,924.2041103436048 L499.6832468408632,272.0975175043076" fill="none" stroke="black"/>
    <path d="M497.00363762484443,272.53563692105797 L877.3853924260065,927.7030313405845" fill="none" stroke="black"/>
    <path d="M875.8310233812797,931.2038373073696 L494.32700228218897,272.97327071471886" fill="none" stroke="black"/>
    <path d="M491.6533360271331,273.4104177790873 L874.2758158708089,934.7065304563654" fill="none" stroke="black"/>
    <path d="M872.719770851747,938.2111118937755 L488.9826350310664,273.8470803265692" fill="none" stroke="black"/>
    <path d="M486.31489450822534,274.2832594633674 L871.1628864097886,941.7175827258023" fill="none" stroke="black"/>
    <path d="M869.6051625449336,945.2259440586494 L483.6501077585413,274.7189551894821" fill="none" stroke="black"/>
    <path d="M480.9882719105562,275.15416861111606 L868.0465983000295,948.7361992109247" fill="none" stroke="black"/>
    <path d="M866.4871927179233,952.2483481826292 L478.329381221354,275.5889008344723" fill="none" stroke="black"/>
    <path d="M475.6734299480186,276.0231518595508 L864.9269457986154,955.762393186168" fill="none" stroke="black"/>
    <path d="M863.3658556278003,959.2783353277445 L473.02041426193927,276.4569227925545" fill="none" stroke="black"/>
    <path d="M470.3703293773528,276.89021473968637 L861.8039231626308,962.7961757135612" fill="none" stroke="black"/>
    <path d="M860.2411464888012,966.3159176622274 L467.723169551343,277.3230288071493" fill="none" stroke="black"/>
    <path d="M465.0789309552991,277.7553649949433 L858.6775256063117,969.8375611737429" fill="none" stroke="black"/>
    <path d="M857.1130595580096,973.3611073543103 L462.4376078463053,278.18722440927127" fill="none" stroke="black"/>
    <path d="M459.7991963957506,278.6186081563362 L855.5477473867422,976.8865595225387" fill="none" stroke="black"/>
    <path d="M853.9815890925099,980.4139187846314 L457.1636908607192,279.0495162361381" fill="none" stroke="black"/>
    <path d="M454.53108741260013,279.4799497548799 L852.4145837181593,983.9431851405881" fill="none" stroke="black"/>
    <path d="M850.8467303065383,987.4743619090174 L451.9013803084776,279.90991092496745" fill="none" stroke="black"/>
    <path d="M449.2745657197408,280.3393975339949 L849.278027900494,991.0074490899195" fill="none" stroke="black"/>
    <path d="M847.7084765000266,994.5424500019031 L446.65063694632096,280.768412900571" fill="none" stroke="black"/>
    <path d="M444.02959207391285,281.19695702469585 L846.1380741908299,998.0793646449685" fill="none" stroke="black"/>
    <path d="M844.566821930058,1001.6181952315211 L441.4114234452948,281.62503101257226" fill="none" stroke="black"/>
    <path d="M438.7961291461617,282.0526348642004 L842.9947187605571,1005.1589428677643" fill="none" stroke="black"/>
    <path d="M841.4217627680223,1008.7016108723066 L436.1837024764449,282.479769685783" fill="none" stroke="black"/>
    <path d="M433.5741386503808,282.9064365835232 L839.8479549096062,1012.246198138945" fill="none" stroke="black"/>
    <path d="M838.2732932710035,1015.7927079862887 L430.9674347965113,283.3326355574209" fill="none" stroke="black"/>
    <path d="M428.3635842147681,283.7583688198819 L836.6977768950615,1019.3411415205404" fill="none" stroke="black"/>
    <path d="M835.1214067389328,1022.8915009541059 L425.76258307654,284.1836352647034" fill="none" stroke="black"/>
    <path d="M423.1644275532166,284.6084371042912 L833.5441799311593,1026.4437862869854" fill="none" stroke="black"/>
    <path d="M831.9660974288938,1029.9980008377875 L420.56911094472906,285.03277433864537" fill="none" stroke="black"/>
    <path d="M417.9766303796195,285.45664807396884 L830.3871582749837,1033.5541446065122" fill="none" stroke="black"/>
    <path d="M828.8073615122762,1037.112219805566 L415.38698011497166,285.88005831026146" fill="none" stroke="black"/>
    <path d="M412.8001563221749,286.3030072599293 L827.226706183619,1040.6722286473537" fill="none" stroke="black"/>
    <path d="M825.6451913318585,1044.2341722380793 L410.216154215466,286.72549492297225" fill="none" stroke="black"/>
    <path d="M407.6349690090813,287.14752240559324 L824.0628179141484,1047.7980516839448" fill="none" stroke="black"/>
    <path d="M822.4795830590301,1051.3638703035595 L405.05659591725765,287.56908970779233" fill="none" stroke="black"/>
    <path d="M402.4810301542315,287.99019682956947 L820.8954877236565,1054.9316269907204" fill="none" stroke="black"/>
    <path d="M819.310529993722,1058.5013250640363 L399.9082678913923,288.4108470895335" fill="none" stroke="black"/>
    <path d="M397.33830434297676,288.83103938148145 L817.7247098692269,1062.0729656297103" fill="none" stroke="black"/>
    <path d="M816.1380273501711,1065.6465509001482 L394.7711347232212,289.2507748116163" fill="none" stroke="black"/>
    <path d="M392.20675424636244,289.67005337993805 L814.550480522249,1069.2220808753495" fill="none" stroke="black"/>
    <path d="M812.9620684283082,1072.799558873924 L389.6451590837898,290.08887729885254" fill="none" stroke="black"/>
    <path d="M387.08634444973967,290.5072465683598 L811.372791068349,1076.3789860020738" fill="none" stroke="black"/>
    <path d="M809.7826484423706,1079.9603633660017 L384.53030460129634,290.92516229466275" fill="none" stroke="black"/>
    <path d="M381.9770366670014,291.3426244777614 L808.1916386360683,1083.5436931781146" fill="none" stroke="black"/>
    <path d="M806.5997606922892,1087.1289765446145 L379.42653586109185,291.7596353300616" fill="none" stroke="black"/>
    <path d="M376.87879739780414,292.1761937453604 L805.0070155681858,1090.7162156779077" fill="none" stroke="black"/>
    <path d="M803.4134013494531,1094.3054116841972 L374.3338164913749,292.59230082986085" fill="none" stroke="black"/>
    <path d="M371.7915883560407,293.0079576897658 L801.8189170789383,1097.8965656696855" fill="none" stroke="black"/>
    <path d="M800.2235627566413,1101.489679846779 L369.2521101203435,293.4231654312781" fill="none" stroke="black"/>
    <path d="M366.7153760413674,293.83792516060083 L798.6273374254097,1105.0847564278833" fill="none" stroke="black"/>
    <path d="M797.0302401280903,1108.6817954129983 L364.18138133334884,294.25223577153105" fill="none" stroke="black"/>
    <path d="M361.65012216767724,294.6660994764745 L795.4322708646835,1112.2808001207327" fill="none" stroke="black"/>
    <path d="M793.833427720884,1115.8817716572903 L359.1215947157419,295.07951738163433" fill="none" stroke="black"/>
    <path d="M356.59579419177936,295.4924883808074 L792.233711653844,1119.4847100226702" fill="none" stroke="black"/>
    <path d="M790.6331197921061,1123.0896196416843 L354.0727158100263,295.9050146863997" fill="none" stroke="black"/>
    <path d="M351.5523547847194,296.31709740461406 L789.031654049975,1126.6965005143325" fill="none" stroke="black"/>
    <path d="M787.4293115559935,1130.3053537468186 L349.0347072872477,296.72873542924765" fill="none" stroke="black"/>
    <path d="M346.5197694890009,297.13993097270634 L785.8260923101609,1133.9161815515472" fill="none" stroke="black"/>
    <path d="M784.2219953553249,1137.528986140925 L344.00753564706264,297.55068403499007" fill="none" stroke="black"/>
    <path d="M341.4980028899749,297.9609957223018 L782.6170197343324,1141.1437686211548" fill="none" stroke="black"/>
    <path d="M781.0111664043366,1144.7605312046426 L338.9911664319745,298.3708660346415" fill="none" stroke="black"/>
    <path d="M336.48702053014523,298.7802971844152 L779.4044324938793,1148.379273891388" fill="none" stroke="black"/>
    <path d="M777.7968189601129,1152.0 L333.9855632701817,299.18928917162265" fill="none" stroke="black"/>
    <path d="M127.26605516880863,704.1187328173413 L301.5169498069515,1143.5062829158032" fill="none" stroke="black"/>
    <path d="M301.5169498069515,1143.5062829158032 L777.7968189601129,1152.0" fill="none" stroke="black"/>
    <path d="M777.7968189601129,1152.0 L1008.0,633.5281114109523" fill="none" stroke="black"/>
    <path d="M1008.0,633.5281114109523 L738.8740273755996,232.98953678362722" fill="none" stroke="black"/>
    <path d="M738.8740273755996,232.98953678362722 L333.9855632701817,299.18928917162265" fill="none" stroke="black"/>
    <path d="M333.9855632701817,299.18928917162265 L127.26605516880863,704.1187328173413" fill="none" stroke="black"/>
    <path d="M719.5129794698548,1045.2197028155852 L276.59556750612074,195.62072610861213" fill="none" stroke="black"/>
    <path d="M274.98883359566327,199.2394687953576 L717.0088335680255,1045.629133965359" fill="none" stroke="black"/>
    <path d="M714.5019971100251,1046.0390042776985 L273.3829802656674,202.85623137884534" fill="none" stroke="black"/>
    <path d="M271.77800464467504,206.47101385907513 L711.9924643529373,1046.44931596501" fill="none" stroke="black"/>
    <path d="M709.480230510999,1046.8600690272938 L270.1739076898389,210.08381844845292" fill="none" stroke="black"/>
    <path d="M268.57068844400635,213.69464625318176 L706.9652927127522,1047.2712645707525" fill="none" stroke="black"/>
    <path d="M704.4476452152805,1047.6829025953862 L266.9683459500247,217.3034994856676" fill="none" stroke="black"/>
    <path d="M265.3668802078938,220.910380358316 L701.9272841899738,1048.0949853136003" fill="none" stroke="black"/>
    <path d="M699.4042058082205,1048.5075116191929 L263.7662883461559,224.5152899773302" fill="none" stroke="black"/>
    <path d="M262.16657227911605,228.11822834270993 L696.878405284258,1048.920482618366" fill="none" stroke="black"/>
    <path d="M694.3498778323228,1049.3339005235257 L260.5677291353164,231.71919987926725" fill="none" stroke="black"/>
    <path d="M258.9697598719097,235.31820458700184 L691.818618666651,1049.7477642284694" fill="none" stroke="black"/>
    <path d="M689.2846239586327,1050.1620748393993 L257.3726625745903,238.915243572117" fill="none" stroke="black"/>
    <path d="M255.7764372433586,242.5103201532212 L686.7478898796564,1050.576834568722" fill="none" stroke="black"/>
    <path d="M684.2084116439594,1050.9920423102344 L254.18108292106155,246.10343433031454" fill="none" stroke="black"/>
    <path d="M252.5865986505467,249.69458831580295 L681.6661835086252,1051.4076991701395" fill="none" stroke="black"/>
    <path d="M679.1212026021958,1051.8238062546397 L250.99298443181402,253.28378432209234" fill="none" stroke="black"/>
    <path d="M249.4002393077107,256.87102345538557 L676.5734641389081,1052.2403646699386" fill="none" stroke="black"/>
    <path d="M674.0229633329984,1052.657375522239 L247.80836136393162,260.45630682188556" fill="none" stroke="black"/>
    <path d="M246.21735155762929,264.03963663399827 L671.4696953987036,1053.0748377053374" fill="none" stroke="black"/>
    <path d="M668.9136555502603,1053.4927534316403 L244.627208931651,267.62101399792664" fill="none" stroke="black"/>
    <path d="M243.03793157169156,271.2004411260764 L666.3548409162102,1053.9111227011476" fill="none" stroke="black"/>
    <path d="M663.7932457536374,1054.3299466200624 L241.4495194777508,274.7779191246506" fill="none" stroke="black"/>
    <path d="M239.86197264982889,278.3534490998522 L661.2288652767786,1054.7492251883837" fill="none" stroke="black"/>
    <path d="M658.6616956570231,1055.1689606185187 L238.275290130773,281.92703437028996" fill="none" stroke="black"/>
    <path d="M236.68947000627787,285.4986749359639 L656.0917321086074,1055.589152910467" fill="none" stroke="black"/>
    <path d="M653.5189698457684,1056.0098031704306 L235.10451227634348,289.06837300927987" fill="none" stroke="black"/>
    <path d="M233.52041694096982,292.63612969644083 L650.9434040827423,1056.430910292208" fill="none" stroke="black"/>
    <path d="M648.3650309909185,1056.852477594407 L231.93718208585153,296.20194831605556" fill="none" stroke="black"/>
    <path d="M230.3548086681413,299.7658277619212 L645.7838457845339,1057.2745050770277" fill="none" stroke="black"/>
    <path d="M643.1998436778249,1057.696992740071 L228.7732938163811,303.3277713526465" fill="none" stroke="black"/>
    <path d="M227.19263848772363,306.88778019443436 L640.6130198850283,1058.1199416897389" fill="none" stroke="black"/>
    <path d="M638.0233696203804,1058.5433519260314 L225.61284172501615,310.4458553934878" fill="none" stroke="black"/>
    <path d="M224.03390257110607,314.0019991622127 L635.4308890552707,1058.9672256613549" fill="none" stroke="black"/>
    <path d="M632.8355724467833,1059.3915628957088 L222.4558200688407,317.5562137130148" fill="none" stroke="black"/>
    <path d="M220.8785932610673,321.1084990458943 L630.2374169234599,1059.8163647352967" fill="none" stroke="black"/>
    <path d="M627.6364157852317,1060.2416311801185 L219.30222310493855,324.65885847945987" fill="none" stroke="black"/>
    <path d="M217.72670672899648,328.20729201371154 L625.0325652034885,1060.6673644425791" fill="none" stroke="black"/>
    <path d="M622.4258613496193,1061.093563416477 L216.1520450903937,331.7538018610552" fill="none" stroke="black"/>
    <path d="M214.5782372319776,335.2983891276937 L619.816297523555,1061.5202303142173" fill="none" stroke="black"/>
    <path d="M617.203870853838,1061.9473651357998 L213.0052812394428,338.841057132236" fill="none" stroke="black"/>
    <path d="M211.43317806994202,342.3818047684791 L614.588576554705,1062.374968987428" fill="none" stroke="black"/>
    <path d="M611.9704079260871,1062.8030429753044 L209.8619258091698,345.92063535503183" fill="none" stroke="black"/>
    <path d="M208.2915234999736,349.4575499980971 L609.3493630536789,1063.2315870994294" fill="none" stroke="black"/>
    <path d="M606.7254342802592,1063.6606024660055 L206.721972099506,352.99255091008075" fill="none" stroke="black"/>
    <path d="M205.15326969346165,356.5256380909828 L604.0986196915223,1064.0900890750327" fill="none" stroke="black"/>
    <path d="M601.4689125873997,1064.5200502451203 L203.5854162818406,360.0568148594121" fill="none" stroke="black"/>
    <path d="M202.01841090749014,363.58608121536867 L598.8363091392807,1064.950483763862" fill="none" stroke="black"/>
    <path d="M596.2008036042494,1065.381391843664 L200.4522526132576,367.1134404774612" fill="none" stroke="black"/>
    <path d="M198.8869404419903,370.63889264568985 L593.5623921536946,1065.812775590729" fill="none" stroke="black"/>
    <path d="M590.9210690447007,1066.2446350050568 L197.32247439368825,374.16243882625747" fill="none" stroke="black"/>
    <path d="M195.75885351119882,377.68408233777285 L588.2768304486569,1066.676971192851" fill="none" stroke="black"/>
    <path d="M585.6296706226472,1067.1097852603139 L194.19607683736922,381.203824286439" fill="none" stroke="black"/>
    <path d="M192.63414437219956,384.7216646722558 L582.9795857380605,1067.5430772074455" fill="none" stroke="black"/>
    <path d="M580.3265700519814,1067.9768481404494 L191.07305420138448,388.23760681383226" fill="none" stroke="black"/>
    <path d="M189.5128072820766,391.7516518173711 L577.6706187786458,1068.411099165528" fill="none" stroke="black"/>
    <path d="M575.0117280894437,1068.845831388884 L187.95340169997053,395.2638007890754" fill="none" stroke="black"/>
    <path d="M186.39483745506635,398.774055941351 L572.3498922414585,1069.2810448105183" fill="none" stroke="black"/>
    <path d="M569.6851054917745,1069.7167405366326 L184.8371135902114,402.2824172741978" fill="none" stroke="black"/>
    <path d="M183.280229148253,405.7888881062248 L567.0173649689336,1070.152919673431" fill="none" stroke="black"/>
    <path d="M564.3466639728667,1070.5895822209127 L181.72418412919103,409.2934695436348" fill="none" stroke="black"/>
    <path d="M180.16897661872025,412.7961626926308 L561.6729977178111,1071.0267292852814" fill="none" stroke="black"/>
    <path d="M558.9963623751555,1071.4643630789424 L178.6146075739934,416.2969686594157" fill="none" stroke="black"/>
    <path d="M177.06107603785762,419.7958896563954 L556.3167531591366,1071.9024824956928" fill="none" stroke="black"/>
    <path d="M553.6341633696861,1072.3410886417355 L175.50838009600773,423.2929278959757" fill="none" stroke="black"/>
    <path d="M173.95651974844355,426.7880833781567 L550.9485891781928,1072.7801837294764" fill="none" stroke="black"/>
    <path d="M548.2600257988938,1073.2197666527131 L172.40549403801265,430.28135831534433" fill="none" stroke="black"/>
    <path d="M170.85530296471478,433.7727538137413 L545.5684674888726,1073.6598396238505" fill="none" stroke="black"/>
    <path d="M542.8739094623661,1074.1004037490925 L169.3059455713974,437.2622720857537" fill="none" stroke="black"/>
    <path d="M167.75742185806052,440.7499142375844 L540.1763469336106,1074.5414579222356" fill="none" stroke="black"/>
    <path d="M537.4757751168431,1074.9830043556858 L166.20972895324604,444.2356824816392" fill="none" stroke="black"/>
    <path d="M164.6628687712594,447.7195779241211 L534.7721882691476,1075.425044155646" fill="none" stroke="black"/>
    <path d="M532.0655825619128,1075.8675784283191 L163.11683939779522,451.2016005650301" fill="none" stroke="black"/>
    <path d="M161.57163987570067,454.68175482917803 L529.3559512950708,1076.3106060675027" fill="none" stroke="black"/>
    <path d="M526.64329064001,1076.7541292856017 L160.027270204976,458.1600396103618" fill="none" stroke="black"/>
    <path d="M158.4837294284684,461.6364571209873 L523.9275948538152,1077.19814918882" fill="none" stroke="black"/>
    <path d="M521.2088591507224,1077.6426657771567 L156.94101658902514,465.11101067966354" fill="none" stroke="black"/>
    <path d="M155.3991316866464,468.5836991801873 L518.4870787449686,1078.0876801568156" fill="none" stroke="black"/>
    <path d="M515.7622469364849,1078.5331934339988 L153.85807376417938,472.0545248349647" fill="none" stroke="black"/>
    <path d="M152.31784186447135,475.52349096260446 L513.034360853813,1078.9792056087072" fill="none" stroke="black"/>
    <path d="M510.30341379688474,1079.4257188933461 L150.77843598752236,478.9905964569035" fill="none" stroke="black"/>
    <path d="M149.2398551761798,482.45584463647094 L507.56940097993646,1079.8727332879157" fill="none" stroke="black"/>
    <path d="M504.83231761720475,1080.3202498986184 L147.70209847329102,485.9192355013065" fill="none" stroke="black"/>
    <path d="M146.16516492170325,489.38077237001903 L502.0921589229262,1080.768268725455" fill="none" stroke="black"/>
    <path d="M499.3489181970322,1081.2167919808307 L144.62905452141644,492.84045524260875" fill="none" stroke="black"/>
    <path d="M143.093766315278,496.2982863314812 L496.6025906537595,1081.6658196647463" fill="none" stroke="black"/>
    <path d="M493.85317246449694,1082.1153528834038 L141.559300303288,499.7542667428396" fill="none" stroke="black"/>
    <path d="M140.02565457114088,503.20839758288673 L491.1006569291762,1082.5653927430071" fill="none" stroke="black"/>
    <path d="M488.3450402191865,1083.0159392435553 L138.49282911883682,506.66068217023155" fill="none" stroke="black"/>
    <path d="M136.96082394637585,510.1111193986709 L485.58631467730635,1083.4669945974547" fill="none" stroke="black"/>
    <path d="M482.8244774320777,1083.9185576985024 L135.42963713945244,513.5597125868138" fill="none" stroke="black"/>
    <path d="M133.89926965521937,517.0064628408633 L480.05952274058455,1084.3706318653071" fill="none" stroke="black"/>
    <path d="M477.2914448599109,1084.823215991666 L132.36971862221867,520.4513712670217" fill="none" stroke="black"/>
    <path d="M130.84098595475564,523.8944400776957 L474.5202380471407,1085.2763111837821" fill="none" stroke="black"/>
    <path d="M471.7458975165104,1085.7299185478582 L129.31306878137218,527.3356692728847" fill="none" stroke="black"/>
    <path d="M127.7859671020683,530.7750621711979 L468.9684184822568,1086.1840402962998" fill="none" stroke="black"/>
    <path d="M466.1877942443111,1086.6386753229044 L126.25968091684416,534.212618772635" fill="none" stroke="black"/>
    <path d="M124.73420926854686,537.6483412896021 L463.4040209740626,1087.093825840078" fill="none" stroke="black"/>
    <path d="M460.61709292859524,1087.5494918478203 L123.2095512000239,541.0822308283019" fill="none" stroke="black"/>
    <path d="M121.68570575412252,544.5142896011405 L457.8270034078403,1088.0056755585374" fill="none" stroke="black"/>
    <path d="M455.0337485831872,1088.462375866026 L120.16267388799542,547.9445176081178" fill="none" stroke="black"/>
    <path d="M118.64045273018462,551.3729181678427 L452.2373227117196,1088.9195949826922" fill="none" stroke="black"/>
    <path d="M449.4377210076745,1089.3773329085361 L117.11904323784267,554.7994912803151" fill="none" stroke="black"/>
    <path d="M115.59844445381697,558.2242391579408 L446.63493581383005,1089.8355918559637" fill="none" stroke="black"/>
    <path d="M443.8289642587286,1090.2943718249744 L114.07865542095493,561.647162906923" fill="none" stroke="black"/>
    <path d="M112.55967613925645,565.0682636334644 L441.01979964230117,1090.7536728155687" fill="none" stroke="black"/>
    <path d="M438.207436221632,1091.2134981463555 L111.04150469441612,568.4875435499711" fill="none" stroke="black"/>
    <path d="M109.5241410864341,571.9050037626457 L435.3918692109573,1091.6738467111318" fill="none" stroke="black"/>
    <path d="M432.57309286736137,1092.1347196161 L108.00758531531022,575.3206464838943" fill="none" stroke="black"/>
    <path d="M106.4918354667393,578.7344717137169 L429.7511014479281,1092.5961190736662" fill="none" stroke="black"/>
    <path d="M426.9258901668939,1093.0580439776281 L104.97689249787385,582.1464816645193" fill="none" stroke="black"/>
    <path d="M103.46275449440856,585.5566774425046 L424.0974532813429,1093.5204976465939" fill="none" stroke="black"/>
    <path d="M421.2657850483591,1093.9834778681575 L101.94942049919086,588.9650612600784" fill="none" stroke="black"/>
    <path d="M100.43689146937334,592.3716342234438 L418.4308797250263,1094.4469890671317" fill="none" stroke="black"/>
    <path d="M415.5927325255811,1094.9110290311096 L98.92516549065078,595.7763985450067" fill="none" stroke="black"/>
    <path d="M97.41424256302287,599.1793531185642 L412.7513367499549,1095.3756010787001" fill="none" stroke="black"/>
    <path d="M409.90668761238425,1095.8407041037008 L95.9041217293373,602.5805023689279" fill="none" stroke="black"/>
    <path d="M94.39480203244108,605.979845189895 L407.05877936995313,1096.3063414247204" fill="none" stroke="black"/>
    <path d="M404.20760627974545,1096.7725108293525 L92.88628347233441,609.3773849000743" fill="none" stroke="black"/>
    <path d="M91.37856509186463,612.7731226056685 L401.35316259884513,1097.2392156362062" fill="none" stroke="black"/>
    <path d="M398.4954425843362,1097.706456951485 L89.87164689103162,616.1670583066779" fill="none" stroke="black"/>
    <path d="M88.36552695553002,619.5591953217112 L395.634442407608,1098.1742336689854" fill="none" stroke="black"/>
    <path d="M392.77015345428623,1098.6425480011126 L86.86020528536005,622.9495347569713" fill="none" stroke="black"/>
    <path d="M85.35568188052133,626.3380766124583 L389.90257189576045,1099.111401054071" fill="none" stroke="black"/>
    <path d="M387.03169198911445,1099.5807939340625 L83.85195578386157,629.7248242067809" fill="none" stroke="black"/>
    <path d="M82.34902508107518,633.1097775399392 L384.15750799143217,1100.0507266410877" fill="none" stroke="black"/>
    <path d="M381.28001320264497,1100.5212002813491 L80.84689072931485,636.4929388243389" fill="none" stroke="black"/>
    <path d="M79.34555177142812,639.8743091661831 L378.399203794142,1100.9922159610496" fill="none" stroke="black"/>
    <path d="M375.515072108702,1101.4637747863926 L77.84500725026209,643.2538896716748" fill="none" stroke="black"/>
    <path d="M76.34525620866407,646.6316825532197 L372.6276124034088,1101.9358778635806" fill="none" stroke="black"/>
    <path d="M369.7368208496519,1102.408526298817 L74.84629864663418,650.007687810818" fill="none" stroke="black"/>
    <path d="M73.34813360701969,653.3819087630782 L366.8426897902097,1102.8817200921012" fill="none" stroke="black"/>
    <path d="M363.94521443931893,1103.3554603496364 L71.85076108982065,656.7543465162036" fill="none" stroke="black"/>
    <path d="M70.3541791807317,660.1250010701939 L361.0443890540634,1103.8297492838287" fill="none" stroke="black"/>
    <path d="M358.1402069343745,1104.3045868946783 L68.85838883690542,663.4938746374552" fill="none" stroke="black"/>
    <path d="M67.36338814403655,666.8609683241901 L355.23266329448876,1104.7799731821842" fill="none" stroke="black"/>
    <path d="M352.3217514343376,1105.2559103587528 L65.8691771021251,670.2262843428049" fill="none" stroke="black"/>
    <path d="M64.37575475401832,673.5898226932993 L349.40746656815753,1105.7323995305874" fill="none" stroke="black"/>
    <path d="M346.4898010387272,1106.209441803891 L62.88312109971628,676.9515866942824" fill="none" stroke="black"/>
    <path d="M61.391275182066295,680.3115763457539 L343.5687510174359,1106.6870371786626" fill="none" stroke="black"/>
    <path d="M340.64430884706206,1107.1651867611063 L59.90021604391558,683.6697938601197" fill="none" stroke="black"/>
    <path d="M58.40994272811156,687.026240343583 L337.71646974184256,1107.6438916574243" fill="none" stroke="black"/>
    <path d="M334.7852270017085,1108.1231540800227 L56.92045619180698,690.3809169023466" fill="none" stroke="black"/>
    <path d="M55.43175356354368,693.7338246426134 L331.8505758408965,1108.6029729226989" fill="none" stroke="black"/>
    <path d="M328.91250955933805,1109.0833503978583 L53.94383675762714,697.0849657767892" fill="none" stroke="black"/>
    <path d="M52.456702902599204,700.434341411077 L325.971021456964,1109.564286505501" fill="none" stroke="black"/>
    <path d="M323.0261067480115,1110.0457845642354 L50.97035295561261,703.7819526516798" fill="none" stroke="black"/>
    <path d="M49.484785002361946,707.1278017110034 L320.07775968956406,1110.527842361657" fill="none" stroke="black"/>
    <path d="M317.1259726244005,1111.010463216373 L48.0,710.4718885890479" fill="none" stroke="black"/>
    <path d="M754.4830501930485,200.4937170841971 L928.7339448311914,639.881267182659" fill="none" stroke="black"/>
    <path d="M927.3014548224146,642.6872803589417 L751.5830575306206,200.44199988447104" fill="none" stroke="black"/>
    <path d="M748.6794276880255,200.3902185249746 L925.8695927057931,645.4920612251524" fill="none" stroke="black"/>
    <path d="M924.4383603956321,648.2956097812908 L745.7721530080416,200.3383718995048" fill="none" stroke="black"/>
    <path d="M742.8612267906005,200.28646000806174 L923.0077559776262,651.0979282397628" fill="none" stroke="black"/>
    <path d="M921.5777794517755,653.8990154943657 L739.9466432927857,200.2344828506454" fill="none" stroke="black"/>
    <path d="M737.0283939002231,200.18244042725576 L920.1484317752331,656.6988737575052" fill="none" stroke="black"/>
    <path d="M918.7197100765402,659.4975030291813 L734.1064728699969,200.1303327378928" fill="none" stroke="black"/>
    <path d="M731.1808735020384,200.07815867635355 L917.2916153128499,662.2949044155969" fill="none" stroke="black"/>
    <path d="M915.864147484162,665.0910790229551 L728.2515871819733,200.02591934884106" fill="none" stroke="black"/>
    <path d="M725.3186091240382,199.9736147553553 L914.4373056333243,667.8860279574587" fill="none" stroke="black"/>
    <path d="M913.0110888031834,670.6797512191077 L722.3819307138594,199.92124378969322" fill="none" stroke="black"/>
    <path d="M719.4415452513679,199.86880645185488 L911.5854979508927,673.4722488079021" fill="none" stroke="black"/>
    <path d="M910.1605311621463,676.2635240424511 L716.4974460364949,199.8163027418404" fill="none" stroke="black"/>
    <path d="M713.5496263691716,199.7637326596497 L908.736189394097,679.0535758165511" fill="none" stroke="black"/>
    <path d="M907.3124707324398,681.8424052364053 L710.598078592177,199.71109620528267" fill="none" stroke="black"/>
    <path d="M707.6427950482894,199.6583933787394 L905.8893761343268,684.6300123020138" fill="none" stroke="black"/>
    <path d="M904.4669046426056,687.4164003319854 L704.6837699945927,199.60562418001996" fill="none" stroke="black"/>
    <path d="M701.7209957738658,199.55278750292132 L903.045055300124,690.2015682201171" fill="none" stroke="black"/>
    <path d="M901.623829064034,692.9855159664091 L698.7544656860398,199.49988445364642" fill="none" stroke="black"/>
    <path d="M695.7841711167403,199.44691281978942 L900.2032240200303,695.7682468894698" fill="none" stroke="black"/>
    <path d="M898.7832411252659,698.5497598830966 L692.8101063230517,199.3938759199591" fill="none" stroke="black"/>
    <path d="M689.8322636477524,199.34077043554657 L897.3638784654352,701.3300560534924" fill="none" stroke="black"/>
    <path d="M895.9451369976912,704.1091365068598 L686.8506354336209,199.287597472755" fill="none" stroke="black"/>
    <path d="M683.8652159377414,199.23435703158424 L894.5270167220335,706.8870023494023" fill="none" stroke="black"/>
    <path d="M893.1095147670044,709.6636546873225 L680.8759965457398,199.18104911203426" fill="none" stroke="black"/>
    <path d="M677.8829696003943,199.12767260790218 L891.6926330469089,712.4390924144174" fill="none" stroke="black"/>
    <path d="M890.2763706045946,715.2133177430931 L674.8861293587893,199.07422862539096" fill="none" stroke="black"/>
    <path d="M671.8854672065504,199.02071716450047 L888.8607255257562,717.9863317795524" fill="none" stroke="black"/>
    <path d="M887.4456997246987,720.7581345237952 L668.8809774007618,198.96713601282505" fill="none" stroke="black"/>
    <path d="M665.8726503698967,198.91348738277037 L886.0312922442697,723.5287270820246" fill="none" stroke="black"/>
    <path d="M884.6175011701639,726.2981094542407 L662.8604803710389,198.8597701681336" fill="none" stroke="black"/>
    <path d="M659.8444597469672,198.80598436891466 L883.2043274595339,729.0662838528492" fill="none" stroke="black"/>
    <path d="M881.7917701552271,731.8332502778501 L656.8245817976126,198.7521288789108" fill="none" stroke="black"/>
    <path d="M653.8008369514484,198.6982048043247 L880.379829257243,734.5990098354463" fill="none" stroke="black"/>
    <path d="M878.9685047655823,737.363563631841 L650.7732204227116,198.64421214515653" fill="none" stroke="black"/>
    <path d="M647.741722639875,198.59014979520333 L877.5577947659394,740.1269105608309" fill="none" stroke="black"/>
    <path d="M876.1477002154668,742.8890539410249 L644.7063369028701,198.53601886066798" fill="none" stroke="black"/>
    <path d="M641.6670565116281,198.4818182353476 L874.7382201570119,745.6499926662203" fill="none" stroke="black"/>
    <path d="M873.3293536334222,748.4097289488228 L638.6238728517746,198.4275479192421" fill="none" stroke="black"/>
    <path d="M635.5767792232416,198.37320680614863 L871.9211016018503,751.1682627888325" fill="none" stroke="black"/>
    <path d="M870.5134631051435,753.925595292452 L632.5257670116544,198.31879710847318" fill="none" stroke="black"/>
    <path d="M629.4708295169446,198.26431661380963 L869.1064371861487,756.6817264596818" fill="none" stroke="black"/>
    <path d="M867.7000248020192,759.4366573967246 L626.4119590818905,198.2097664283611" fill="none" stroke="black"/>
    <path d="M623.349148049271,198.15514655212746 L866.2942240384496,762.1903903159862" fill="none" stroke="black"/>
    <path d="M864.8890348954394,764.9429241112638 L620.2823897190174,198.1004558789058" fill="none" stroke="black"/>
    <path d="M617.2116745196024,198.0456944086962 L863.4844573729893,767.6942598887603" fill="none" stroke="black"/>
    <path d="M862.080490513946,770.4443987546783 L614.136995750958,197.99086214149855" fill="none" stroke="black"/>
    <path d="M611.0583457558623,197.93595907731293 L860.6771343183098,773.1933429214242" fill="none" stroke="black"/>
    <path d="M859.2743878289277,775.941090176592 L607.9757159199412,197.88098521613938" fill="none" stroke="black"/>
    <path d="M604.889100500279,197.82593945177496 L857.872252002953,778.6876438387902" fill="none" stroke="black"/>
    <path d="M856.4707258832327,781.4330039080193 L601.7984908825015,197.77082399662532" fill="none" stroke="black"/>
    <path d="M598.7038784522347,197.71563553208193 L855.0698075554615,784.1771703842787" fill="none" stroke="black"/>
    <path d="M853.6694989339442,786.9201454799748 L595.6052565094094,197.66037737675344" fill="none" stroke="black"/>
    <path d="M592.502616439652,197.60504621203103 L852.2697981043762,789.6619280889045" fill="none" stroke="black"/>
    <path d="M850.8707050667572,792.4025215296765 L589.3959515428935,197.54964314411785" fill="none" stroke="black"/>
    <path d="M586.2852522476073,197.49416927921658 L849.4722188639346,795.141923589885" fill="none" stroke="black"/>
    <path d="M848.074340453061,797.8801375881387 L583.1705118537247,197.43862240492143" fill="none" stroke="black"/>
    <path d="M580.0517227040241,197.38300362743541 L846.6770688769836,800.6171635244378" fill="none" stroke="black"/>
    <path d="M845.2804031785502,803.3530013987821 L576.9288761841317,197.3273129467584" fill="none" stroke="black"/>
    <path d="M573.8019655939786,197.2715492566876 L843.8843433577601,806.0876523173749" fill="none" stroke="black"/>
    <path d="M842.4888884574611,808.8211173864187 L570.670981362038,197.2157125572229" fill="none" stroke="black"/>
    <path d="M567.5359158310885,197.15980395456722 L841.0940394348058,811.5533977121166" fill="none" stroke="black"/>
    <path d="M839.6997943754889,814.2844921882659 L564.3967623010615,197.10382123631484" fill="none" stroke="black"/>
    <path d="M561.2535121575827,197.04776661487153 L838.3061542366629,817.014404133475" fill="none" stroke="black"/>
    <path d="M836.9131180611753,819.7431335477442 L558.1061558291256,196.9916378778313" fill="none" stroke="black"/>
    <path d="M554.9546875727742,196.93543613139724 L835.5206848918733,822.4706804310731" fill="none" stroke="black"/>
    <path d="M834.1288547287568,825.1970458896652 L551.7990978170014,196.87916137556937" fill="none" stroke="black"/>
    <path d="M548.6393798617385,196.82281250414474 L832.7376275718261,827.9222310297231" fill="none" stroke="black"/>
    <path d="M831.3470024639282,830.6462358512468 L545.4755231783065,196.76639062332623" fill="none" stroke="black"/>
    <path d="M542.3075229809415,196.70989352070785 L829.9569794050635,833.3690614604394" fill="none" stroke="black"/>
    <path d="M828.5675583952316,836.0907100697068 L539.1353677838117,196.6533234086957" fill="none" stroke="black"/>
    <path d="M535.9590518440011,196.5966791810868 L827.1787375201275,838.8111794666428" fill="none" stroke="black"/>
    <path d="M825.7905177369034,841.5304729698565 L532.7785655899829,196.53995973167804" fill="none" stroke="black"/>
    <path d="M529.5939013645354,196.48316616667256 L824.4028990455597,844.2485905793477" fill="none" stroke="black"/>
    <path d="M823.0158795317911,846.9655334013197 L526.4050505532848,196.42629737986738" fill="none" stroke="black"/>
    <path d="M523.2120054990096,196.36935447746538 L821.62946015275,849.6813003295691" fill="none" stroke="black"/>
    <path d="M820.2436389941313,852.3958946827051 L520.0147585444884,196.31233745946656" fill="none" stroke="black"/>
    <path d="M516.8132991610419,196.2552441134651 L818.8584170130873,855.1093153545245" fill="none" stroke="black"/>
    <path d="M817.4737942096183,857.8215645574332 L513.6076206486011,196.19807554566376" fill="none" stroke="black"/>
    <path d="M510.39771439279224,196.14083175606282 L816.0897686694188,860.5326422914313" fill="none" stroke="black"/>
    <path d="M814.7063413496417,863.2425485565188 L507.18357177924105,196.08351274466202" fill="none" stroke="black"/>
    <path d="M503.9651851507262,196.02611740525867 L813.3235103359816,865.9512855651016" fill="none" stroke="black"/>
    <path d="M811.9412775427436,868.6588533171796 L500.7425449357208,195.96864684405557" fill="none" stroke="black"/>
    <path d="M497.5156434770036,195.91109995484976 L810.55964009847,871.3652529189557" fill="none" stroke="black"/>
    <path d="M809.1785989603131,874.07048437043 L494.28447216020044,195.85347673764124" fill="none" stroke="black"/>
    <path d="M491.04902237093717,195.79577719243002 L807.7981541282734,876.7745487778055" fill="none" stroke="black"/>
    <path d="M806.418303688045,879.477447247285 L487.8092854948399,195.73800242541915" fill="none" stroke="black"/>
    <path d="M484.56525387468713,195.6801491179997 L805.0390485967807,882.1791808850714" fill="none" stroke="black"/>
    <path d="M803.6603888544812,884.879749691165 L481.31691793895203,195.62222058878046" fill="none" stroke="black"/>
    <path d="M478.0642690732605,195.5642146253557 L802.2823225468401,887.5791536655655" fill="none" stroke="black"/>
    <path d="M800.904849673858,890.2773961268817 L474.80729962039135,195.50613122772523" fill="none" stroke="black"/>
    <path d="M471.54600000881777,195.44797150209217 L799.5279702355349,892.974474862708" fill="none" stroke="black"/>
    <path d="M798.1516842318706,895.67039208545 L468.28036258131823,195.38973323605057" fill="none" stroke="black"/>
    <path d="M465.0103777663658,195.33141864200616 L796.7759907057125,898.3651489013108" fill="none" stroke="black"/>
    <path d="M795.4008896570604,901.0587453102902 L461.73603790673957,195.27302550755337" fill="none" stroke="black"/>
    <path d="M458.45733343091234,195.21455493889482 L794.0263801287622,903.7511835247943" fill="none" stroke="black"/>
    <path d="M792.6524630779702,906.4424613324172 L455.1742547673576,195.15600693603074" fill="none" stroke="black"/>
    <path d="M451.88679521600653,195.09737928655522 L791.2791356332261,909.1325820517676" fill="none" stroke="black"/>
    <path d="M789.9063997088356,911.8215456828456 L448.59494424817973,195.03867420287395" fill="none" stroke="black"/>
    <path d="M445.29869420665574,194.9798916849872 L788.5342543476461,914.509353331854" fill="none" stroke="black"/>
    <path d="M787.1626985925047,917.196004998793 L441.99803647706045,194.92102952048884" fill="none" stroke="black"/>
    <path d="M438.69296053071463,194.86208770937913 L785.7917324434115,919.8815017898654" fill="none" stroke="black"/>
    <path d="M784.4213559003665,922.565843705071 L435.3834596675494,194.8030684640637" fill="none" stroke="black"/>
    <path d="M432.0695224017326,194.7439695721368 L783.0515670490643,925.2490329568162" fill="none" stroke="black"/>
    <path d="M781.6823678038102,927.9310695451005 L428.75114203319566,194.68479103359846" fill="none" stroke="black"/>
    <path d="M425.4283089904116,194.62553395465153 L780.3137562502991,930.6119545761272" fill="none" stroke="black"/>
    <path d="M778.9457323885306,933.2916880498959 L422.1010146590066,194.56619612289012" fill="none" stroke="black"/>
    <path d="M418.769248510301,194.50677975072028 L777.5782952613527,935.97027107261" fill="none" stroke="black"/>
    <path d="M776.2114458259173,938.6477036442694 L415.43300288707354,194.4472826257359" fill="none" stroke="black"/>
    <path d="M412.0922691749501,194.38770585414017 L774.845183125072,941.3239879772797" fill="none" stroke="black"/>
    <path d="M773.4795062016642,943.999124071641 L408.7470368452512,194.32804832972982" fill="none" stroke="black"/>
    <path d="M405.39729824075556,194.26831115870817 L772.1144140985414,946.6731130335562" fill="none" stroke="black"/>
    <path d="M770.7499087300087,949.3459548630257 L402.04304283278356,194.20849323487192" fill="none" stroke="black"/>
    <path d="M398.6842620069612,194.14859455822142 L769.3859881817607,952.0176506662517" fill="none" stroke="black"/>
    <path d="M768.0226524537975,954.6882015494378 L395.3209471489146,194.08861512875643" fill="none" stroke="black"/>
    <path d="M391.9530886871168,194.02855494647702 L766.6599005889664,957.3576075125839" fill="none" stroke="black"/>
    <path d="M765.2977325872675,960.0258696618924 L388.5806780071936,193.96841290518017" fill="none" stroke="black"/>
    <path d="M385.20370458046585,193.90819011106896 L763.9361484487008,962.692989103567" fill="none" stroke="black"/>
    <path d="M762.5751472161135,965.3589658376072 L381.82215979255926,193.84788545794044" fill="none" stroke="black"/>
    <path d="M378.43603502909986,193.78749894579443 L761.2147288895057,968.0238009702161" fill="none" stroke="black"/>
    <path d="M759.8548925117245,970.6874956075967 L375.0453197614083,193.7270305746311" fill="none" stroke="black"/>
    <path d="M371.6500063322629,193.66648034445046 L758.4956390399229,973.3500497497488" fill="none" stroke="black"/>
    <path d="M757.1369665597954,976.0114656090783 L368.2500832558317,193.60584825525245" fill="none" stroke="black"/>
    <path d="M364.8455419177406,193.54513320083413 L755.7788750713419,978.6717409731797" fill="none" stroke="black"/>
    <path d="M754.4213655317153,981.3308802668643 L361.43637370361574,193.48433628739838" fill="none" stroke="black"/>
    <path d="M358.02256904193,193.42345640874237 L753.0644360266101,983.9888812777264" fill="none" stroke="black"/>
    <path d="M751.7080865560263,986.6457462181719 L354.60411740400417,193.3624935648661" fill="none" stroke="black"/>
    <path d="M351.1810101754641,193.30144775576952 L750.352317119964,989.3014750882006" fill="none" stroke="black"/>
    <path d="M748.9971267612702,991.9560689940157 L347.75323778478315,193.24031787524967" fill="none" stroke="black"/>
    <path d="M344.3207906604343,193.17910613571257 L747.642516437098,994.6095279356172" fill="none" stroke="black"/>
    <path d="M746.2884842331418,997.2618541254107 L340.88365923089117,193.1178103247521" fill="none" stroke="black"/>
    <path d="M337.441832967474,193.05643044236842 L744.9350301494019,999.9130475633964" fill="none" stroke="black"/>
    <path d="M743.5821541858779,1002.5631093557771 L333.99530421296157,192.99496648856154" fill="none" stroke="black"/>
    <path d="M330.5440614815216,192.9334195695343 L742.2298553854173,1005.2120383963501" fill="none" stroke="black"/>
    <path d="M740.8781337480202,1007.8598380037241 L327.0880952016275,192.871787472881" fill="none" stroke="black"/>
    <path d="M323.62739675890515,192.8100713048044 L739.5269892736865,1010.5065070716963" fill="none" stroke="black"/>
    <path d="M738.176421962416,1013.1520467064692 L320.1619565818277,192.74826995910155" fill="none" stroke="black"/>
    <path d="M316.6917631845633,192.68638454197549 L736.8264298999038,1015.7964591204492" fill="none" stroke="black"/>
    <path d="M735.4770140433022,1018.4397421012301 L313.2168079527375,192.62441394722333" fill="none" stroke="black"/>
    <path d="M309.7370813148238,192.56235928104792 L734.1281734354586,1021.0818989674209" fill="none" stroke="black"/>
    <path d="M732.7799071192203,1023.7229297190212 L306.2525736992953,192.5002183310434" fill="none" stroke="black"/>
    <path d="M302.7632736203201,192.43799220341265 L731.4322160517402,1026.3628343560317" fill="none" stroke="black"/>
    <path d="M730.0850992758656,1029.0016139846543 L299.26917246352394,192.3756797919528" fill="none" stroke="black"/>
    <path d="M295.77026065738005,192.31328220286684 L728.7385558344433,1031.6392697110932" fill="none" stroke="black"/>
    <path d="M727.3925866846268,1034.2758026415504 L292.26652671605643,192.2507983299517" fill="none" stroke="black"/>
    <path d="M288.7579620251789,192.18822817320745 L726.0471908692627,1036.9112116698234" fill="none" stroke="black"/>
    <path d="M724.7023674311988,1039.545499008318 L285.2445560560681,192.12557283883706" fill="none" stroke="black"/>
    <path d="M281.72629923719734,192.06283011443463 L723.3581163704348,1042.178665763237" fill="none" stroke="black"/>
    <path d="M722.0144367298183,1044.8107108283775 L278.20318103988706,192.0000000000001" fill="none" stroke="black"/>
    <path d="M48.0,710.4718885890479 L317.1259726244005,1111.010463216373" fill="none" stroke="black"/>
    <path d="M317.1259726244005,1111.010463216373 L722.0144367298183,1044.8107108283775" fill="none" stroke="black"/>
    <path d="M722.0144367298183,1044.8107108283775 L928.7339448311914,639.881267182659" fill="none" stroke="black"/>
    <path d="M928.7339448311914,639.881267182659 L754.4830501930485,200.4937170841971" fill="none" stroke="black"/>
    <path d="M754.4830501930485,200.4937170841971 L278.20318103988706,192.0000000000001" fill="none" stroke="black"/>
    <path d="M278.20318103988706,192.0000000000001 L48.0,710.4718885890479" fill="none" stroke="black"/>
  </g>
</svg>
