<?xml version="1.0" encoding="utf-8" ?>
<svg baseProfile="full" height="11in" version="1.1" width="17in" xmlns="http://www.w3.org/2000/svg" xmlns:ev="http://www.w3.org/2001/xml-events" xmlns:xlink="http://www.w3.org/1999/xlink"><defs /><polygon fill="none" points="61.70141050417651,1166.318792933882 59.56415200507542,1161.5083089511118 56.09699802786258,1160.6104025233856 56.09699802786258,1166.318792933882 61.70141050417651,1166.318792933882" stroke="rgb(255, 0, 0)" stroke-width="0.1pt" /><polygon fill="none" points="41.48497085320952,1079.6332226418733 43.31329447094602,1073.5457105529806 41.48497085320952,1072.5135340159554 41.48497085320952,1079.6332226418733" stroke="rgb(255, 0, 0)" stroke-width="0.1pt" /><polygon fill="none" points="64.13490739790835,1100.612943116312 67.6020613751212,1101.5108495440381 67.83545126174349,1101.309370798033 70.88248335348668,1096.0352159816157 68.2411606219023,1092.9056444237308 65.96323101564485,1093.359303916546 64.13490739790835,1099.4468160054387 64.13490739790835,1100.612943116312" stroke="rgb(255, 0, 0)" stroke-width="0.1pt" /><polygon fill="none" points="46.20908861687059,427.386611647208 47.55539769367119,427.1566148707161 49.1100349637586,425.2074284340423 47.83625103424125,420.2057464236981 46.20908861687059,419.994291421939 46.20908861687059,427.386611647208" stroke="rgb(255, 0, 0)" stroke-width="0.1pt" /><polygon fill="none" points="649.2803487548802,1164.3675823140863 645.8464824771979,1157.3733428360279 641.577172159285,1162.822005285646 645.9931023519176,1164.3675823140863 649.2803487548802,1164.3675823140863" stroke="rgb(255, 0, 0)" stroke-width="0.1pt" /><polygon fill="none" points="691.3386938375033,1141.3238191033013 694.7725601151856,1148.3180585813602 699.6776639711268,1148.3180585813602 700.7636271471088,1146.18876641709 698.0683421721336,1139.9398065513851 691.690012362467,1139.582940958109 691.3386938375033,1141.3238191033013" stroke="rgb(255, 0, 0)" stroke-width="0.1pt" /><polygon fill="none" points="90.36831032063405,465.44225845055445 93.71411484528602,465.34602653090843 95.38676822775244,463.9024890993127 93.0804774648992,458.9407549150699 88.85373969299621,459.95797471513424 87.2991024229088,461.907161151808 90.36831032063405,465.44225845055445" stroke="rgb(255, 0, 0)" stroke-width="0.1pt" /><polygon fill="none" points="603.1238456346695,763.7286747577731 602.7710420570462,763.525001559032 598.0851376276756,764.9540117841126 598.0725689221965,772.5094197364764 604.7814431201905,770.0337750245134 603.1238456346695,763.7286747577731" stroke="rgb(255, 0, 0)" stroke-width="0.1pt" /><polygon fill="none" points="499.39017601818745,809.9271344387524 503.8941640875754,807.3381012290198 500.2139997785541,800.4627853490518 497.94616111970265,800.7623423705821 499.39017601818745,809.9271344387524" stroke="rgb(255, 0, 0)" stroke-width="0.1pt" /><polygon fill="none" points="736.5439946600604,382.8898211613605 737.40801930507,385.595451703147 740.9135096441272,388.78905680586735 740.9135096441272,382.1448814310603 736.5439946600604,382.8898211613605" stroke="rgb(255, 0, 0)" stroke-width="0.1pt" /><polygon fill="none" points="252.7810184918643,38.00610913006788 252.82773097198304,38.67481217342383 254.9393583016822,38.00610913006788 252.7810184918643,38.00610913006788" stroke="rgb(255, 0, 0)" stroke-width="0.1pt" /><polygon fill="none" points="480.83689428173113,50.05639504189285 480.3769563663774,51.97630232457046 483.55754716630224,54.27707845680804 491.5771959659353,51.47443062472259 491.61967286876575,50.05639504189285 480.83689428173113,50.05639504189285" stroke="rgb(255, 0, 0)" stroke-width="0.1pt" /><polygon fill="none" points="593.6207862861006,50.26510580522917 593.5783093832702,51.6831413880589 595.2571808101761,53.684596476068975 604.1559070060877,53.29130455718963 603.7007866075944,50.26510580522917 593.6207862861006,50.26510580522917" stroke="rgb(255, 0, 0)" stroke-width="0.1pt" /><polygon fill="none" points="342.62412562985685,957.2157538713413 342.94348239626885,955.4577685592257 339.28739067318554,950.0155512681843 337.5604112116225,951.0654106329329 336.78832675148834,954.5107135144726 342.62412562985685,957.2157538713413" stroke="rgb(255, 0, 0)" stroke-width="0.1pt" /><polygon fill="none" points="614.1125331135421,590.8019428099785 612.4730470402855,594.7883044887388 617.6061997972463,599.2194958571617 622.8735412405591,593.3108381422632 622.269890048112,591.9117134193554 614.1125331135421,590.8019428099785" stroke="rgb(255, 0, 0)" stroke-width="0.1pt" /><polygon fill="none" points="545.7655989474702,555.4619669837821 539.7691408771105,552.1996962287421 535.6690600545674,553.1313853641641 543.6827372643476,560.1083627081872 544.1044444540769,559.9456765129031 545.7439305273336,555.9593148341428 545.7655989474702,555.4619669837821" stroke="rgb(255, 0, 0)" stroke-width="0.1pt" /><polygon fill="none" points="557.6322985252845,504.3394484236693 557.9461295403598,508.3743005927413 563.9425876107194,511.6365713477811 565.6974986308575,506.23457189877627 565.6416262481048,505.20540681632156 560.7215811898789,502.97622322191364 557.6322985252845,504.3394484236693" stroke="rgb(255, 0, 0)" stroke-width="0.1pt" /><polygon fill="none" points="707.1055409646632,443.5167453373589 709.629580657875,439.7730287828127 709.629580657875,438.3332046828418 706.1240903188177,435.13959958012146 698.2296681723512,439.9489294325592 697.6286126125352,440.88559538861523 704.136955718378,443.73479810561076 707.1055409646632,443.5167453373589" stroke="rgb(255, 0, 0)" stroke-width="0.1pt" /><polygon fill="none" points="673.3876411761097,778.990945873128 666.3075822589083,773.086565712013 663.4793592024748,773.0575686072867 665.1369566879958,779.3626688740271 668.6394670803909,784.4533143128209 673.3876411761097,778.990945873128" stroke="rgb(255, 0, 0)" stroke-width="0.1pt" /><polygon fill="none" points="721.7827449276366,639.2720698368719 724.0785818584101,642.1460583939609 725.5046679228096,642.4353547307035 728.3852363748127,639.9372997739611 728.3852363748127,635.7025568374916 728.3305307091209,635.6116615526292 723.0815001986556,635.5578652937343 721.7827449276366,639.2720698368719" stroke="rgb(255, 0, 0)" stroke-width="0.1pt" /><polygon fill="none" points="661.045332957806,678.4856527828343 654.1613508054492,678.5729472512575 653.9254623686599,686.3497819532193 654.2782659462831,686.5534551519604 657.1064890027164,686.5824522566866 660.0946600409264,684.9088221226982 663.3411698885794,681.3596413399233 661.045332957806,678.4856527828343" stroke="rgb(255, 0, 0)" stroke-width="0.1pt" /><polygon fill="none" points="669.3822792508084,624.004698897518 670.6810345218274,620.2904943543804 670.4611968354309,619.7884089957563 667.5716079528512,617.8988066328918 662.3042665095384,623.8074643477904 662.4982970984516,624.0919933659411 669.3822792508084,624.004698897518" stroke="rgb(255, 0, 0)" stroke-width="0.1pt" /><polygon fill="none" points="742.400200655031,1121.237586231373 741.7003252714948,1120.6497571842986 739.2989719228492,1121.1814285697499 738.3609650450567,1122.0354731179182 741.0562500200319,1128.2844329836228 742.400200655031,1128.0074152494333 742.400200655031,1121.237586231373" stroke="rgb(255, 0, 0)" stroke-width="0.1pt" /><polygon fill="none" points="753.1506999353195,1090.7232926699007 753.8505753188557,1091.311121716975 753.8505753188557,1090.3587250497737 753.6914434584145,1090.3307000085167 753.1506999353195,1090.7232926699007" stroke="rgb(255, 0, 0)" stroke-width="0.1pt" /><polygon fill="none" points="752.7889694885422,870.3355132868132 751.7186259847228,871.3662630205492 752.7889694885422,872.0926683941582 752.7889694885422,870.3355132868132" stroke="rgb(255, 0, 0)" stroke-width="0.1pt" /><polygon fill="none" points="617.5289199948862,1183.3632689146775 613.1129898022534,1181.8176918862368 611.195370418763,1183.3632689146775 617.5289199948862,1183.3632689146775" stroke="rgb(255, 0, 0)" stroke-width="0.1pt" /><polygon fill="none" points="602.0233139851157,1129.3765334598777 603.9409333686061,1127.8309564314368 608.210243686519,1122.382293981819 608.5615622114827,1120.6414158366265 606.3007583287298,1117.5329793240976 599.7076325878314,1119.8869380480605 600.869632871619,1128.4069659964232 601.446861916166,1129.3765334598777 602.0233139851157,1129.3765334598777" stroke="rgb(255, 0, 0)" stroke-width="0.1pt" /><polygon fill="none" points="552.6773482164583,1136.4501134434036 556.9357672955612,1139.1062697573466 555.7737670117734,1130.586241808984 554.3099514765761,1130.3903243928787 552.6773482164583,1136.4501134434036" stroke="rgb(255, 0, 0)" stroke-width="0.1pt" /><polygon fill="none" points="58.26973290354548,687.6841205470563 55.03483429954165,686.2310906317763 53.81845054647654,686.6790587456036 53.81845054647654,689.5104008488079 57.1222540533664,690.5838708629321 58.26973290354548,687.6841205470563" stroke="rgb(255, 0, 0)" stroke-width="0.1pt" /><polygon fill="none" points="63.16592450647137,1027.4314190590076 58.7482138228577,1027.2958547352996 58.7482138228577,1031.551828109037 60.57653744059421,1032.584004646062 62.85446704685165,1032.130345153247 64.55232604630356,1028.610115799078 63.16592450647137,1027.4314190590076" stroke="rgb(255, 0, 0)" stroke-width="0.1pt" /><polygon fill="none" points="228.50041100496665,896.3983700498397 230.86908265721516,899.9310927280267 233.91754931528942,894.3898617979827 233.92794171109878,894.2657582662764 232.17813073334057,891.1050264557401 231.3028018012384,891.4069006358214 228.50041100496665,896.3983700498397" stroke="rgb(255, 0, 0)" stroke-width="0.1pt" /><polygon fill="none" points="256.4987336165801,918.2858575842802 256.64569906029544,918.8487182913425 262.38165939121455,916.3564992081749 262.336703237366,913.8672982411384 259.5472002746544,912.7446266542363 256.4987336165801,918.2858575842802" stroke="rgb(255, 0, 0)" stroke-width="0.1pt" /><polygon fill="none" points="106.02365255828502,535.7082172170616 103.31668352955566,535.6349887142247 103.83617715751242,538.4827629700296 104.01426306493833,538.5043147382544 106.06159423521544,535.7962671914095 106.02365255828502,535.7082172170616" stroke="rgb(255, 0, 0)" stroke-width="0.1pt" /><polygon fill="none" points="100.05946948645973,511.14676571189574 99.39264013536096,507.64456778291265 96.046835610709,507.74079970255866 95.32079827261043,509.86073192937727 97.35250045773036,511.0735372090589 100.05946948645973,511.14676571189574" stroke="rgb(255, 0, 0)" stroke-width="0.1pt" /><polygon fill="none" points="76.48835010850932,537.801602941276 77.9223688797454,539.4893934185403 80.65087358743723,539.4338774228879 80.13137995948045,536.586103167083 78.09967777436053,535.3732978874013 76.48835010850932,537.801602941276" stroke="rgb(255, 0, 0)" stroke-width="0.1pt" /><polygon fill="none" points="51.423945094031424,503.2894803135662 53.50209706460752,503.39333401935716 55.11342473045872,500.96502896548253 55.839462068557296,498.8450967386639 52.77025417083203,495.3099994399175 51.423945094031424,495.53999621640935 51.423945094031424,503.2894803135662" stroke="rgb(255, 0, 0)" stroke-width="0.1pt" /><polygon fill="none" points="92.29892540554322,578.2205974054768 93.16349925663323,574.2611639047313 92.09072504777357,572.9574988778331 91.91263914034766,572.9359471096084 89.18413443265584,572.9914631052608 88.95546007947152,574.7965636118555 92.29892540554322,578.2205974054768" stroke="rgb(255, 0, 0)" stroke-width="0.1pt" /><polygon fill="none" points="118.98174634824775,548.1114448996814 117.92792059104627,547.6755645552762 115.88058942076917,550.3836121021212 116.95336362962884,551.6872771290193 118.3698491764561,551.6545729687438 118.98174634824775,548.1114448996814" stroke="rgb(255, 0, 0)" stroke-width="0.1pt" /><polygon fill="none" points="148.55283255335425,552.2118077818735 148.22577353093249,550.9461700682899 144.61402750342512,550.2899585253683 144.00213033163345,553.8330865944308 146.3645695352169,554.4088463069897 148.55283255335425,552.2118077818735" stroke="rgb(255, 0, 0)" stroke-width="0.1pt" /><polygon fill="none" points="528.6325223526253,916.5537197893541 537.9137910462699,915.5747562615041 538.3806069554255,912.8854834577102 533.7178576881279,911.2354977122471 528.6218272332073,912.3495083317836 528.5357086297761,916.376573578808 528.6325223526253,916.5537197893541" stroke="rgb(255, 0, 0)" stroke-width="0.1pt" /><polygon fill="none" points="609.8757650639524,918.1365817840577 609.4089491547968,920.8258545878517 611.0902084694983,924.3759062437407 615.8289667454196,922.8799958933906 613.8138547091936,914.4188414268688 612.5725263257197,914.537018977474 609.8757650639524,918.1365817840577" stroke="rgb(255, 0, 0)" stroke-width="0.1pt" /><polygon fill="none" points="567.1011806594742,666.4950836517256 570.9087560356611,676.346680734613 572.8948050081957,676.9401849861297 577.5807094375663,675.5111747610492 577.8165978743556,667.7343400590873 577.6225672854423,667.4498110409367 572.4894145284813,663.0186196725138 572.0677073387521,663.1813058677978 567.1011806594742,666.4950836517256" stroke="rgb(255, 0, 0)" stroke-width="0.1pt" /><polygon fill="none" points="562.2868999330844,841.8792866459503 559.0473610798709,842.5093229435008 559.7041537628422,846.9180458031379 564.7807003692354,844.8298252660858 562.2868999330844,841.8792866459503" stroke="rgb(255, 0, 0)" stroke-width="0.1pt" /><polygon fill="none" points="515.9098813713393,862.1228532175029 515.6275553496649,862.1063209199436 511.123567280277,864.6953541296762 509.8533293020533,866.4241900351612 510.996046171466,869.1907280672539 516.0920766263864,868.0767174477174 516.5666740543106,866.5315760771399 515.9098813713393,862.1228532175029" stroke="rgb(255, 0, 0)" stroke-width="0.1pt" /><polygon fill="none" points="579.0071465186213,874.1383318566503 573.930599912228,876.2265523937025 573.4560024843038,877.7716937642799 578.1187517516015,879.421679509743 580.8155130133687,875.8221167031593 579.0071465186213,874.1383318566503" stroke="rgb(255, 0, 0)" stroke-width="0.1pt" /><polygon fill="none" points="545.48729712254,782.3385933464268 545.6864432027384,781.6286278054964 545.6990119082175,774.0732198531326 543.7129629356829,773.4797156016159 539.403060965518,775.3841404940957 538.2852679386308,776.0767814664501 541.965432247652,782.9520973464182 542.2477582693265,782.9686296439775 545.48729712254,782.3385933464268" stroke="rgb(255, 0, 0)" stroke-width="0.1pt" /><polygon fill="none" points="618.1970510539406,828.7964733899191 620.6908514900917,831.7470120100547 622.4992179848392,833.4307968565636 623.7405463683132,833.3126193059585 628.4184516249219,831.6224727389706 628.6075817245281,830.7015085758196 625.1050713321331,825.6108631370258 618.396197134139,828.0865078489888 618.1970510539406,828.7964733899191" stroke="rgb(255, 0, 0)" stroke-width="0.1pt" /><polygon fill="none" points="496.0965251888504,508.6322036642995 496.5037226869481,509.48132899108475 497.41678646186887,509.7317036283579 501.516867284412,508.80001449293604 501.2030362693366,504.7651623238641 499.7506057358248,504.7478744659117 496.1891141419354,506.9664051766753 496.0965251888504,508.6322036642995" stroke="rgb(255, 0, 0)" stroke-width="0.1pt" /><polygon fill="none" points="736.7121438727442,350.83061653342617 736.8499961974317,351.1456149171038 741.2195111814983,350.40067518680354 741.2195111814983,347.4247243196835 740.9824442451967,347.2841099494827 740.8796430655983,347.29964652205865 736.7121438727442,350.83061653342617" stroke="rgb(255, 0, 0)" stroke-width="0.1pt" /><polygon fill="none" points="679.996700409974,391.05057720517743 679.4902870992897,390.65321859385756 673.2662961927671,392.6309447474001 673.1041552332047,398.88053598307926 680.9985773796711,394.0712061306415 680.1345527346616,391.36557558885505 679.996700409974,391.05057720517743" stroke="rgb(255, 0, 0)" stroke-width="0.1pt" /><polygon fill="none" points="730.8173455644799,286.11106699280754 728.7110196572496,286.4540299009965 726.6743323883045,289.80564445080813 730.4665337223076,289.28050161332214 731.1804750455692,286.6154206824918 730.8173455644799,286.11106699280754" stroke="rgb(255, 0, 0)" stroke-width="0.1pt" /><polygon fill="none" points="694.1420681466714,282.90318111969975 696.1787554156165,279.55156656988805 691.1261764098998,276.15302152376626 691.5306924368153,283.77331033537644 692.3731440187872,284.34786427933363 694.1420681466714,282.90318111969975" stroke="rgb(255, 0, 0)" stroke-width="0.1pt" /><polygon fill="none" points="717.5533405112844,325.01002785518 715.7844163834002,326.4547110148139 717.773042249325,330.2578274720857 718.2794555600095,330.65518608340557 722.4469547528637,327.1242160720381 721.3455418452876,324.48488501769395 717.5533405112844,325.01002785518" stroke="rgb(255, 0, 0)" stroke-width="0.1pt" /><polygon fill="none" points="751.1040541683473,296.9111445876419 750.3767144681326,296.61043616132775 749.6627731448712,299.2755170921581 750.7641860524473,301.9148481465022 750.8669872320457,301.89931157392624 751.1040541683473,301.671514864165 751.1040541683473,296.9111445876419" stroke="rgb(255, 0, 0)" stroke-width="0.1pt" /><polygon fill="none" points="612.1552231056852,275.721870205972 612.8015394342725,271.3774171445581 608.4394431898436,270.97169527705563 612.1552231056852,275.721870205972" stroke="rgb(255, 0, 0)" stroke-width="0.1pt" /><polygon fill="none" points="591.9283714105882,280.42753228082705 588.2125914947466,275.67735735191064 586.0840502496822,275.24096863852515 585.1959957890849,276.2059700291418 591.8482342959908,281.67446018377655 591.9283714105882,280.42753228082705" stroke="rgb(255, 0, 0)" stroke-width="0.1pt" /><polygon fill="none" points="264.9285556613577,59.82614177732976 266.8507114791684,55.45568451140546 264.14557878473556,55.45568451140546 262.0339514550364,56.12438755476141 260.64803886015886,59.51723696077548 264.9285556613577,59.82614177732976" stroke="rgb(255, 0, 0)" stroke-width="0.1pt" /><polygon fill="none" points="203.29333086705103,51.87775832544515 204.13107659937805,55.17022409082933 209.82095806828897,55.99748050624632 209.90902119414352,55.93931077481517 211.29493378902106,52.546461368801104 211.24822130890232,51.87775832544515 203.29333086705103,51.87775832544515" stroke="rgb(255, 0, 0)" stroke-width="0.1pt" /><polygon fill="none" points="312.2440569610681,62.00545807947237 317.57984585392217,58.51709448633667 317.16151239787973,57.64648565521376 314.61485933436256,56.78997201640955 311.3414449287415,56.78997201640955 309.4192891109309,61.16042928233386 312.2440569610681,62.00545807947237" stroke="rgb(255, 0, 0)" stroke-width="0.1pt" /><polygon fill="none" points="48.13161111607867,52.75604276609869 48.274538734368974,52.840001421078036 51.77526588443587,49.48031420035886 51.17310703290496,48.91943905078144 49.634506539949044,48.91943905078144 48.13161111607867,49.25674952106587 48.13161111607867,52.75604276609869" stroke="rgb(255, 0, 0)" stroke-width="0.1pt" /><polygon fill="none" points="691.0070676137291,54.62152112678886 690.2155511918893,54.72227971138062 686.0086627226416,57.874913911201475 686.1649143071999,58.172847281877345 687.785975428607,59.04266945924203 692.7315099249017,56.1409001860541 692.3469754787125,54.62152112678886 691.0070676137291,54.62152112678886" stroke="rgb(255, 0, 0)" stroke-width="0.1pt" /><polygon fill="none" points="722.9896535027173,83.81908730439767 719.5214176153786,80.67112197825209 714.5758831190838,83.57289125144003 719.7290886987378,87.05041826752326 722.9896535027173,85.45489611088135 722.9896535027173,83.81908730439767" stroke="rgb(255, 0, 0)" stroke-width="0.1pt" /><polygon fill="none" points="524.5791225836018,90.93243985754532 524.7420853563214,90.65037302708107 524.90901642617,85.8558691121535 523.230144999264,83.85441402414344 515.210496199631,86.65706185622889 515.6283064355856,89.35532562139825 524.5791225836018,90.93243985754532" stroke="rgb(255, 0, 0)" stroke-width="0.1pt" /><polygon fill="none" points="398.5099097228465,983.7303576168019 403.42777209957296,986.642367914982 404.18172723499333,986.1105613514176 403.6152085805169,977.6247767500649 402.4045470535199,977.2552298053596 398.69683154044105,980.9399115071819 398.37747477402905,982.6978968192977 398.5099097228465,983.7303576168019" stroke="rgb(255, 0, 0)" stroke-width="0.1pt" /><polygon fill="none" points="123.7426641290605,1155.0473782589397 123.45183941931266,1154.6136275443816 114.37105375875615,1155.49398965299 114.13766387213384,1155.6954683989952 116.27492237123494,1160.5059523817654 120.35635093324849,1160.5059523817654 121.99126563375728,1159.2228583312622 123.7426641290605,1155.0473782589397" stroke="rgb(255, 0, 0)" stroke-width="0.1pt" /><polygon fill="none" points="122.29894644862762,1114.6718730324317 118.74097280031955,1111.0973481119559 116.5011644701534,1111.1387740586244 113.45413237841022,1116.4129288750416 122.53491803896674,1115.5325667664333 122.29894644862762,1114.6718730324317" stroke="rgb(255, 0, 0)" stroke-width="0.1pt" /><polygon fill="none" points="372.39221187159103,1044.1853674321649 374.8749329660844,1048.131326699622 380.9036311962774,1045.7557376196344 380.9655929211018,1042.1493858966924 376.0477305443753,1039.2373755985125 374.0959821616206,1040.53543828262 372.39221187159103,1044.1853674321649" stroke="rgb(255, 0, 0)" stroke-width="0.1pt" /><polygon fill="none" points="318.56546907200516,989.0897832751837 326.5432863804806,990.9706067534372 328.49503476323537,989.6725440693298 328.36259981441793,988.6400832718256 322.5268009360494,985.9350429149569 318.56546907200516,989.0897832751837" stroke="rgb(255, 0, 0)" stroke-width="0.1pt" /><polygon fill="none" points="518.036864444144,450.5933405442953 517.3828296706585,452.097931313547 518.9384589199224,455.9385215772325 520.3908894534342,455.95580943518496 523.4801721180286,454.5925842334293 521.8716273763499,450.7067799176086 518.036864444144,450.5933405442953" stroke="rgb(255, 0, 0)" stroke-width="0.1pt" /><polygon fill="none" points="468.56202697328956,333.8880595547514 465.7148885017498,333.8870815558059 464.0396946749097,337.3690572989781 464.8083764033309,339.94871662031005 469.39191633756576,341.3142453767286 474.06511885700945,337.62474501550656 474.11421013811685,337.1205831734959 474.0121775837573,336.7554611858254 468.56202697328956,333.8880595547514" stroke="rgb(255, 0, 0)" stroke-width="0.1pt" /><polygon fill="none" points="516.6038497152347,383.9243949563844 511.9306471957908,387.6138953176065 511.90018929598887,389.8436921061184 514.0355015068307,392.76953285320803 517.8702644390365,392.8829722265213 519.9650082741914,388.35713384887276 516.6038497152347,383.9243949563844" stroke="rgb(255, 0, 0)" stroke-width="0.1pt" /><polygon fill="none" points="559.3241993983828,305.48649425254865 569.0223621864393,303.77758084881316 568.979800727758,303.62910649094266 562.3275622208519,298.160616336308 560.9358393801732,298.93554129512154 559.2221668440233,305.1213722648781 559.3241993983828,305.48649425254865" stroke="rgb(255, 0, 0)" stroke-width="0.1pt" /><polygon fill="none" points="499.96383644401425,283.16265247265744 505.41398705448194,286.0300541037314 507.1276595906318,279.8442231339748 501.9782847903735,275.9634818318956 501.5196949070755,275.9603544880844 499.96383644401425,283.16265247265744" stroke="rgb(255, 0, 0)" stroke-width="0.1pt" /><polygon fill="none" points="400.80011874592225,298.80710040001213 399.27066247502216,296.48083670143774 393.8821616328062,294.76252544037726 391.8331460305005,296.5626968277405 394.50471568575267,301.2288639623197 399.1249249190822,302.2890761431843 400.80011874592225,298.80710040001213" stroke="rgb(255, 0, 0)" stroke-width="0.1pt" /><polygon fill="none" points="458.2127136076583,270.118671163813 459.76857207071953,262.91637317924005 457.9133921322441,262.2411888529076 453.83611886521834,267.7914294662931 455.3655751361185,270.11769316486755 458.2127136076583,270.118671163813" stroke="rgb(255, 0, 0)" stroke-width="0.1pt" /><polygon fill="none" points="605.3262606703257,363.18571847564976 599.7844558521133,368.65045987597506 601.4811278659705,369.56501075602375 606.3353085845736,366.9830984224863 605.3262606703257,363.18571847564976" stroke="rgb(255, 0, 0)" stroke-width="0.1pt" /><polygon fill="none" points="622.4059709302347,403.9803604731095 617.5517902116314,406.56227280664694 621.9408315155541,412.5181090672051 622.8159186720427,412.11978574598686 623.4169742318588,411.18311978993086 623.579115191421,404.9335285542518 622.4059709302347,403.9803604731095" stroke="rgb(255, 0, 0)" stroke-width="0.1pt" /><polygon fill="none" points="577.499990381272,433.2963837352382 576.574449121502,433.1106153979271 574.4797052863471,437.63645377557566 576.0882500280258,441.52225809139634 581.0082950862516,443.75144168580425 583.5857036990518,440.1667708758451 579.1966623951292,434.21093461528693 577.499990381272,433.2963837352382" stroke="rgb(255, 0, 0)" stroke-width="0.1pt" /><polygon fill="none" points="577.1310725844753,345.03531724614567 577.2337486611559,343.83795573651656 577.0498220166997,343.6684761709254 567.3516592286434,345.3773895746609 567.302567947536,345.88155141667147 570.6637265064928,350.31429030915984 571.589267766263,350.5000586464709 577.1310725844753,345.03531724614567" stroke="rgb(255, 0, 0)" stroke-width="0.1pt" /><polygon fill="none" points="655.9942427378688,342.6696524884577 657.0032906521168,346.46703243529424 658.1764349133031,347.42020051643647 664.4004258198258,345.4424743628939 662.411799953901,341.6393579056221 661.5693483719292,341.0648039616649 656.0969188145493,341.4722909788286 655.9942427378688,342.6696524884577" stroke="rgb(255, 0, 0)" stroke-width="0.1pt" /><polygon fill="none" points="634.7840823017311,540.5129941632626 634.0603471822062,537.9808042744057 627.2788701279912,535.4265347239306 625.5239591078532,540.8285341729354 625.5022906877167,541.3258820232962 633.6596476222865,542.435652632673 634.7840823017311,540.5129941632626" stroke="rgb(255, 0, 0)" stroke-width="0.1pt" /><polygon fill="none" points="653.109935019312,490.9974634414939 655.3110877479072,487.02192226569537 648.8027446420645,484.17271954869983 647.9276574855759,484.5710428699181 645.3502488727756,488.15571367987724 645.4061212555283,489.1848787623319 652.1875983097433,491.73914831280695 653.109935019312,490.9974634414939" stroke="rgb(255, 0, 0)" stroke-width="0.1pt" /><polygon fill="none" points="696.3687408868985,569.4865942691767 691.7567454842092,569.4739548759165 690.6323108047646,571.396613345327 691.2359619972119,572.7957380682349 694.1255508797916,574.6853404310992 696.3687408868985,569.4865942691767" stroke="rgb(255, 0, 0)" stroke-width="0.1pt" /><polygon fill="none" points="742.5745642091625,526.3274124641741 740.3896097232135,524.5872974552199 739.2925065719126,529.0265819691733 739.3758728599888,530.7501653542834 742.5745642091625,532.036745628996 742.5745642091625,526.3274124641741" stroke="rgb(255, 0, 0)" stroke-width="0.1pt" /><polygon fill="none" points="711.5450501108604,506.4776346029297 712.6421532621615,502.03835008897624 712.3030680548986,500.7740355565546 709.3344828086134,500.99208832480656 707.1333300800183,504.967629500605 711.5450501108604,506.4776346029297" stroke="rgb(255, 0, 0)" stroke-width="0.1pt" /><polygon fill="none" points="747.6864112852376,472.04564919462206 745.1623715920258,475.7893657491682 745.5014567992887,477.05368028158983 747.6864112852376,478.79379529054404 747.6864112852376,472.04564919462206" stroke="rgb(255, 0, 0)" stroke-width="0.1pt" /><polygon fill="none" points="731.235604487072,580.9950453240984 731.153911980799,581.0479709900942 728.910721973692,586.2467171520166 729.1305596600886,586.7488025106406 734.3795901705539,586.8025987695356 734.4342958362457,586.5142262377572 734.4342958362457,582.2816255988112 731.235604487072,580.9950453240984" stroke="rgb(255, 0, 0)" stroke-width="0.1pt" /><polygon fill="none" points="698.6749033296343,537.0172035946523 694.263183298792,535.5071984923276 693.3408465892232,536.2488833636406 694.0645817087482,538.7810732524977 698.6765771114375,538.7937126457579 698.7582696177104,538.7407869797623 698.6749033296343,537.0172035946523" stroke="rgb(255, 0, 0)" stroke-width="0.1pt" /><polygon fill="none" points="720.9543978533318,831.6646161390163 720.0824671977608,832.0202064116246 715.3342931020419,837.4825748513174 715.1451630024358,838.4035390144684 718.4344242953925,842.0839030704001 722.4734001790057,840.7210383033915 723.5437436828249,839.6902885696554 723.5437436828249,834.5977445025308 721.9169969935109,832.3897734171619 720.9543978533318,831.6646161390163" stroke="rgb(255, 0, 0)" stroke-width="0.1pt" /><polygon fill="none" points="751.1197599320582,795.8440867008458 749.4930132427442,795.7807051493194 751.1197599320582,797.9886762346882 751.1197599320582,795.8440867008458" stroke="rgb(255, 0, 0)" stroke-width="0.1pt" /><polygon fill="none" points="543.8548254426862,1007.8904951028438 543.3147535577586,1005.9670354194069 533.3850105670089,1005.3319366222648 532.9228793069691,1006.5067724855853 535.698649637776,1011.7158987088068 543.8548254426862,1007.8904951028438" stroke="rgb(255, 0, 0)" stroke-width="0.1pt" /><polygon fill="none" points="574.8162362269071,1050.392605733041 566.6600604219971,1054.218009339004 566.9455494658979,1057.5295803769077 569.9919704380546,1058.6914898662717 571.4557859732521,1058.887407282377 578.0489117141504,1056.533448558414 578.1289789610931,1055.093468174784 574.8162362269071,1050.392605733041" stroke="rgb(255, 0, 0)" stroke-width="0.1pt" /><polygon fill="none" points="470.64175160418057,1046.880228672649 464.5461315522109,1049.7088725522385 463.79217641679054,1050.240679115803 463.7302146919661,1053.8470308387448 465.382182193606,1056.2266052282653 469.6644187866752,1058.1437993298928 473.70301097888847,1055.400925933774 473.4175219349876,1052.0893548958707 470.64175160418057,1046.880228672649" stroke="rgb(255, 0, 0)" stroke-width="0.1pt" /><polygon fill="none" points="457.82690500941015,975.2814854446553 458.2890362694499,974.1066495813349 457.90723574972486,969.8361586000575 457.8104220268757,969.6590123895113 451.16476630296404,969.6243447228924 451.7312849574405,978.1101293242448 457.82690500941015,975.2814854446553" stroke="rgb(255, 0, 0)" stroke-width="0.1pt" /><polygon fill="none" points="548.6135703266507,963.3964884445179 549.2645548245221,961.0619867941375 547.5832955098205,957.5119351382484 538.3020268161758,958.4908986660985 538.6838273359009,962.7613896473758 548.6135703266507,963.3964884445179" stroke="rgb(255, 0, 0)" stroke-width="0.1pt" /><polygon fill="none" points="470.0815429402016,1173.6539549634804 470.25527599977573,1171.7861181448422 469.68661821894636,1170.155932362919 468.9891859227916,1169.4520042257996 464.4540395618584,1172.3224543874876 464.90804098909643,1173.6539549634804 470.0815429402016,1173.6539549634804" stroke="rgb(255, 0, 0)" stroke-width="0.1pt" /><polygon fill="none" points="509.43580750413963,1122.202477925502 513.9645153890162,1122.074776748666 515.5971186491339,1116.0149876981413 512.5506976769772,1114.853078208777 508.51210548476394,1117.5959516048958 508.73837520798486,1121.4985497883827 509.43580750413963,1122.202477925502" stroke="rgb(255, 0, 0)" stroke-width="0.1pt" /><polygon fill="none" points="527.36848402421,1170.425380428744 531.0394679610848,1172.293217247382 536.1641822519069,1172.293217247382 535.58695320736,1171.3236497839277 531.3285341282573,1168.6674934699845 526.7998262433807,1168.7951946468208 527.36848402421,1170.425380428744" stroke="rgb(255, 0, 0)" stroke-width="0.1pt" /><polygon fill="none" points="506.8830971422336,1182.3964895440854 503.21211320535883,1180.5286527254473 503.0383801457847,1182.3964895440854 506.8830971422336,1182.3964895440854" stroke="rgb(255, 0, 0)" stroke-width="0.1pt" /><polygon fill="none" points="688.805309164546,1021.5092610423488 683.7546087457997,1017.7394861775081 680.112617078463,1023.397125629689 688.4936431498494,1021.9988799445355 688.805309164546,1021.5092610423488" stroke="rgb(255, 0, 0)" stroke-width="0.1pt" /><polygon fill="none" points="687.0923197515585,1065.377744552402 678.7112936801723,1066.7759902375558 677.5155608464858,1067.7910378503593 677.435493599543,1069.2310182339893 679.6962974822958,1072.3394547465182 686.0746272919623,1072.6963203397943 687.0126341697551,1071.8422757916262 687.0923197515585,1065.377744552402" stroke="rgb(255, 0, 0)" stroke-width="0.1pt" /><polygon fill="none" points="715.8958701879915,942.365954756274 723.2416710478124,944.1296348359592 723.2416710478124,939.7119907206586 718.1495518094522,934.9115123779327 715.5155712330259,941.6127089074943 715.8958701879915,942.365954756274" stroke="rgb(255, 0, 0)" stroke-width="0.1pt" /><polygon fill="none" points="742.6090569589612,1050.3647521641317 739.8991798232797,1052.160101884916 739.5875138085831,1052.6497207871028 739.5078282267795,1059.1142520263268 741.909181575425,1058.5825806408752 742.44992509852,1058.1899879794912 742.6090569589612,1057.9888154163107 742.6090569589612,1050.3647521641317" stroke="rgb(255, 0, 0)" stroke-width="0.1pt" /><polygon fill="none" points="715.6145065461249,988.8692865422413 715.199729851518,991.5204945600171 720.2504302702641,995.2902694248579 722.9603074059456,993.4949197040736 722.9603074059456,990.6329666219264 715.6145065461249,988.8692865422413" stroke="rgb(255, 0, 0)" stroke-width="0.1pt" /><polygon fill="none" points="739.9485225935547,895.7766376555073 738.8781790897353,895.0502322818984 734.8392032061222,896.4130970489069 734.8564033551945,896.5604306912935 739.9485225935547,901.3609090340194 739.9485225935547,895.7766376555073" stroke="rgb(255, 0, 0)" stroke-width="0.1pt" /><polygon fill="none" points="665.7946101822201,905.6743795867283 668.4285907586466,898.9731830571667 668.4113906095743,898.8258494147801 665.1221293166176,895.1454853588485 660.4442240600088,896.8356319258364 662.4593360962349,905.2967863923583 665.7946101822201,905.6743795867283" stroke="rgb(255, 0, 0)" stroke-width="0.1pt" /><polygon fill="none" points="640.8272293652989,990.4085287199086 640.4469304103332,989.6552828711289 637.1116563243479,989.2776896767588 632.3728980484264,990.7736000271088 631.7219135505552,993.1081016774893 632.2619854354828,995.0315613609262 635.5747281696687,999.732423802669 636.7704610033552,998.7173761898655 640.4124526706921,993.0597367376847 640.8272293652989,990.4085287199086" stroke="rgb(255, 0, 0)" stroke-width="0.1pt" /><polygon fill="none" points="45.129377317304346,769.4911282253679 46.66573212111969,770.7869418133206 47.73331752881193,768.3166149833401 45.129377317304346,764.5227518087868 45.129377317304346,769.4911282253679" stroke="rgb(255, 0, 0)" stroke-width="0.1pt" /><polygon fill="none" points="61.09629961593849,731.3157510225637 59.69255150468355,730.0718414180766 56.3887479977937,728.9983714039523 56.3887479977937,732.2932026282273 58.992688209301285,736.0870658027806 60.14505941301355,734.8052651184976 60.88979197329753,733.2240132313684 61.09629961593849,731.3157510225637" stroke="rgb(255, 0, 0)" stroke-width="0.1pt" /><polygon fill="none" points="90.379660789094,700.1173963098433 89.48559020042322,695.4899338221633 87.85646294786069,697.0033873139074 86.70898409768162,699.9031376297833 88.11273220893655,701.1470472342704 90.379660789094,700.1173963098433" stroke="rgb(255, 0, 0)" stroke-width="0.1pt" /><polygon fill="none" points="293.316587159905,739.4246216649974 303.15779109667574,736.4292049100947 303.18232843104005,734.9953344648015 296.8407459284003,733.6883912053935 293.316587159905,739.4246216649974" stroke="rgb(255, 0, 0)" stroke-width="0.1pt" /><polygon fill="none" points="422.63194994044704,837.4145191130715 418.4944173023024,845.8603728302799 419.4935611182555,846.4868611691656 428.46423071356304,845.9588006471242 422.63194994044704,837.4145191130715" stroke="rgb(255, 0, 0)" stroke-width="0.1pt" /><polygon fill="none" points="372.18471207538533,911.1881434044519 369.8536906866694,911.264429061199 368.02410105755536,915.9298931584782 371.68019278063866,921.3721104495196 375.3879082937175,917.6874287476971 373.18385589133845,911.8146317433377 372.18471207538533,911.1881434044519" stroke="rgb(255, 0, 0)" stroke-width="0.1pt" /><polygon fill="none" points="445.9625467576035,900.727132746861 436.9918771622959,901.2551932689024 439.19592956467494,907.1279902732618 440.4065910916719,907.4975372179672 447.0522468155836,907.5322048845862 447.13836541901486,903.5051396375618 445.99564854960215,900.7386016054693 445.9625467576035,900.727132746861" stroke="rgb(255, 0, 0)" stroke-width="0.1pt" /><polygon fill="none" points="455.57670612988306,803.3309830927776 461.4089869029991,811.8752646268305 461.44208869499784,811.8867334854388 462.71232667322147,810.1578975799537 461.2683117747367,800.9931055117835 459.5362408232003,800.6156123246369 458.57890975360965,800.7254687309668 455.5806082113664,803.2583407729664 455.57670612988306,803.3309830927776" stroke="rgb(255, 0, 0)" stroke-width="0.1pt" /><polygon fill="none" points="109.10864549699569,970.9666300347269 114.31664206479643,977.754374235576 117.58348731607411,977.1037288745919 113.59094256818128,971.1401564964226 109.10864549699569,970.9666300347269" stroke="rgb(255, 0, 0)" stroke-width="0.1pt" /><polygon fill="none" points="314.7439644344979,817.2574170684125 314.7715154132321,817.3661968634834 318.7880659020492,821.3563338011872 319.39162085624884,821.7157719123749 321.9227763704237,822.4295466661638 322.68020621243863,813.6175610204463 314.7439644344979,817.2574170684125" stroke="rgb(255, 0, 0)" stroke-width="0.1pt" /><polygon fill="none" points="371.02875064511915,810.5959872710208 370.2713208031042,819.4079729167382 371.3599913614932,820.2365731106095 373.69101275020915,820.1602874538623 377.82854538835375,811.714433736654 377.83244746983706,811.6417914168428 371.7617690689177,809.482813207268 371.02875064511915,810.5959872710208" stroke="rgb(255, 0, 0)" stroke-width="0.1pt" /><polygon fill="none" points="318.0929091640906,888.5863223578065 314.9307848553532,892.866365523912 314.9757410092018,895.3555664909486 318.1561661459774,895.8440207674944 319.88314560754037,894.7941614027458 321.71273523665445,890.1286973054666 320.6240646782654,889.3000971115954 318.0929091640906,888.5863223578065" stroke="rgb(255, 0, 0)" stroke-width="0.1pt" /><polygon fill="none" points="290.58111475669,873.4086810080096 285.24343483524996,876.8013871666943 285.2330424394406,876.9254906984006 288.0225454021523,878.0481622853027 291.18466971088964,873.7681191191971 290.58111475669,873.4086810080096" stroke="rgb(255, 0, 0)" stroke-width="0.1pt" /><polygon fill="none" points="272.19970431200073,845.2500612003502 269.1287639016196,849.4721724862026 270.8785748793778,852.6329042967388 276.2162548008178,849.2401981380541 272.19970431200073,845.2500612003502" stroke="rgb(255, 0, 0)" stroke-width="0.1pt" /><polygon fill="none" points="298.8095039340969,776.0744919483079 306.7457457120377,772.4346359003417 307.4787641358363,771.3214618365889 306.3993800431119,768.8799469988314 296.5581761063411,771.8753637537342 296.1450448052307,772.2075671199896 298.8095039340969,776.0744919483079" stroke="rgb(255, 0, 0)" stroke-width="0.1pt" /><polygon fill="none" points="186.41628747004165,841.5893227301344 186.86581724615823,846.6742771315496 190.3073647092393,843.5821854363153 187.455365181908,839.546516611053 186.41628747004165,841.5893227301344" stroke="rgb(255, 0, 0)" stroke-width="0.1pt" /><polygon fill="none" points="223.82534089604425,810.5117135706071 226.67734042337554,814.5473823958694 228.67190446544853,815.3920606382609 229.5472333975507,815.0901864581797 232.6181738079319,810.8680751723273 232.5906228291976,810.7592953772562 229.92616370033136,806.8923705489378 228.01614978575196,806.308810223628 223.82559001218212,810.5094186087631 223.82534089604425,810.5117135706071" stroke="rgb(255, 0, 0)" stroke-width="0.1pt" /><polygon fill="none" points="200.48371048259128,876.282700836301 200.27705548663835,877.3066389011976 203.1174311914736,879.0267567974765 205.91982198774537,874.0352873834584 203.92525794567234,873.1906091410668 200.48371048259128,876.282700836301" stroke="rgb(255, 0, 0)" stroke-width="0.1pt" /><polygon fill="none" points="164.64178873182044,854.657883447436 162.79476680829853,855.515151852974 161.72830385334828,857.4763893690736 164.39266811357967,860.8518078037238 164.88466351198412,860.7667759137477 165.09131850793702,859.7428378488511 164.64178873182044,854.657883447436" stroke="rgb(255, 0, 0)" stroke-width="0.1pt" /><polygon fill="none" points="47.91801396605219,601.3672790862425 48.14770045266364,601.8418065946341 49.82258213205471,601.7113699203352 50.820189750061765,597.787654623663 50.47851732837622,597.8599721479511 47.91801396605219,599.5661151671724 47.91801396605219,601.3672790862425" stroke="rgb(255, 0, 0)" stroke-width="0.1pt" /><polygon fill="none" points="46.24201344929614,583.0896881874667 43.68151008697211,583.0372190028146 43.68151008697211,584.7958312066879 46.24201344929614,583.0896881874667" stroke="rgb(255, 0, 0)" stroke-width="0.1pt" /><polygon fill="none" points="36.689059459834354,617.7431356806446 36.91874594644581,617.438208916837 36.689059459834354,616.9636814084454 36.689059459834354,617.7431356806446" stroke="rgb(255, 0, 0)" stroke-width="0.1pt" /><polygon fill="none" points="53.041248078575805,560.7740840324581 53.422568683194086,560.3724518009915 53.65124303637839,558.5673512943968 52.21722426514232,556.8795608171324 50.139072294566226,556.7757071113415 50.139072294566226,560.7939323720941 52.69957565689026,560.8464015567462 53.041248078575805,560.7740840324581" stroke="rgb(255, 0, 0)" stroke-width="0.1pt" /><polygon fill="none" points="97.5502181858535,631.4756391399517 93.64575612667332,632.6533714156959 94.53533781079952,635.8246729225033 97.2280824780443,636.6201703942272 101.15698264785968,634.4005503861467 97.5502181858535,631.4756391399517" stroke="rgb(255, 0, 0)" stroke-width="0.1pt" /><polygon fill="none" points="78.03961230202617,665.1889472986763 75.34686763478138,664.3934498269525 72.93858825552128,665.9402967522985 76.17348685952511,667.3933266675785 77.80261411208764,665.8798731758345 78.03961230202617,665.1889472986763" stroke="rgb(255, 0, 0)" stroke-width="0.1pt" /><polygon fill="none" points="52.186478483236876,639.7123978877538 51.35596520104038,639.3825571905688 49.681083521649306,639.5129938648678 49.45139703503786,639.8179206286754 49.45139703503786,644.8785144337346 50.66778078810296,644.4305463199073 53.07606016736307,642.8836993945612 52.186478483236876,639.7123978877538" stroke="rgb(255, 0, 0)" stroke-width="0.1pt" /><polygon fill="none" points="77.50456335006956,601.2032172900575 77.49198155738992,601.1497951340993 74.14851623131824,597.725761340478 73.76719562669994,598.1273935719445 72.76958800869289,602.0511088686168 73.60010129088938,602.3809495658018 77.50456335006956,601.2032172900575" stroke="rgb(255, 0, 0)" stroke-width="0.1pt" /><polygon fill="none" points="139.87894750479978,675.6447672785282 135.95004733498442,677.8643872866088 135.7130491450459,678.5553131637669 136.60711973371667,683.1827756514468 142.25174046468928,683.2567431439242 144.40396903513076,682.0968737719817 144.3449343258335,679.6475206437158 143.1639150719453,677.4993588715629 140.0860716084505,675.668746655353 139.87894750479978,675.6447672785282" stroke="rgb(255, 0, 0)" stroke-width="0.1pt" /><polygon fill="none" points="124.44760370988365,598.7210104163621 128.05436817188985,601.645921662557 128.26149227554055,601.6699010393818 129.0785205187047,595.2512103119418 126.71608131512129,594.6754505993829 125.29959576829403,594.7081547596583 124.435021917204,598.6675882604039 124.44760370988365,598.7210104163621" stroke="rgb(255, 0, 0)" stroke-width="0.1pt" /><polygon fill="none" points="231.71615371607555,682.2876318198738 230.65193109334925,679.3336743795854 229.2952814757144,678.4283520099622 227.36980881547458,678.850989852465 222.64457272163082,680.8896089682468 222.7036074309281,683.3389620965127 223.22601236494856,683.9111705940466 231.71615371607555,682.2876318198738" stroke="rgb(255, 0, 0)" stroke-width="0.1pt" /><polygon fill="none" points="243.65248395914645,723.1948586098534 242.9878870358255,722.7269281061249 234.49774568469854,724.3504668802977 238.11204694735608,730.115845904286 240.02206086193544,730.6994062295959 240.4351921630459,730.3672028633405 243.95935093154122,724.6309724037366 243.65248395914645,723.1948586098534" stroke="rgb(255, 0, 0)" stroke-width="0.1pt" /><polygon fill="none" points="207.09136942639952,501.89739402063 207.20989164037272,501.3107482896945 199.58526815540762,500.42705530114245 200.0895720934966,504.00221821198795 205.40749954969658,504.00073762774343 206.86515055760157,502.3041319563823 207.09136942639952,501.89739402063" stroke="rgb(255, 0, 0)" stroke-width="0.1pt" /><polygon fill="none" points="147.92754973214417,508.0351811790131 147.4232457940552,504.4600182681675 147.1540061400599,504.01712236421815 143.61743064087005,503.88893399634276 141.94477725840363,505.3324714279386 142.61160660950242,508.8346693569216 142.64954828643283,508.9227193312695 143.7033740436343,509.35859967567455 147.31512007114165,510.01481121859615 147.92754973214417,508.0351811790131" stroke="rgb(255, 0, 0)" stroke-width="0.1pt" /><polygon fill="none" points="238.80778918687392,533.409335150135 237.3501381789689,535.1059408214962 236.91397724631904,538.9632738867936 240.5214216020043,539.0758712324999 238.80778918687392,533.409335150135" stroke="rgb(255, 0, 0)" stroke-width="0.1pt" /><polygon fill="none" points="195.3545811163863,591.8727281353895 194.83275274732887,589.2119324664972 191.36241109949754,588.0255277066078 191.648193474392,596.6315164586803 195.3545811163863,591.8727281353895" stroke="rgb(255, 0, 0)" stroke-width="0.1pt" /><polygon fill="none" points="199.52083711934267,542.508094840149 200.6200590854747,541.5572587994527 201.05622001812458,537.6999257341554 195.7382925619246,537.7014063183999 195.12586290092213,539.681036357983 195.45292192334387,540.9466740715666 196.05049547151128,541.3216900802597 199.52083711934267,542.508094840149" stroke="rgb(255, 0, 0)" stroke-width="0.1pt" /><polygon fill="none" points="164.1173068374905,610.053831915489 163.83152446259604,601.4478431634167 163.23395091442862,601.0728271547235 161.04568789629124,603.2698656798397 160.2286596531271,609.6885564072796 163.30650311662185,611.5191686234896 164.1173068374905,610.053831915489" stroke="rgb(255, 0, 0)" stroke-width="0.1pt" /><polygon fill="none" points="208.569254563126,633.0487777267554 204.8628669211317,637.8075660500463 204.05206320026306,639.2729027580468 205.2330824541513,641.4210645301997 209.95831854799505,639.3824454144179 210.6634842675862,633.7694548708982 208.569254563126,633.0487777267554" stroke="rgb(255, 0, 0)" stroke-width="0.1pt" /><polygon fill="none" points="482.5469885399061,722.7232547098172 481.328653642269,725.5624649235792 480.030165804764,731.2642396132198 481.7622367563003,731.6417328003664 484.0300754151519,731.3421757788361 485.1478684420391,730.6495348064816 482.5469885399061,722.7232547098172" stroke="rgb(255, 0, 0)" stroke-width="0.1pt" /><polygon fill="none" points="746.7831553780558,208.7537051575123 746.2673493183107,208.5822629227872 743.8150476110661,213.17538020117743 746.2618162528662,214.50352464709454 746.7831553780558,214.24733829713043 746.7831553780558,208.7537051575123" stroke="rgb(255, 0, 0)" stroke-width="0.1pt" /><polygon fill="none" points="751.7502333477235,255.797464094005 751.1811032916089,258.9193659510975 751.5442327726984,259.42371964078177 752.271572472913,259.7244280670959 752.271572472913,255.54127774404085 751.7502333477235,255.797464094005" stroke="rgb(255, 0, 0)" stroke-width="0.1pt" /><polygon fill="none" points="713.5543169669083,194.3068890191485 718.01356205983,195.0582901311732 720.4658637670746,190.46517285278296 716.8127409255383,187.7080594613085 716.6536263487199,187.85246874449751 713.5543169669083,194.3068890191485" stroke="rgb(255, 0, 0)" stroke-width="0.1pt" /><polygon fill="none" points="607.606408730963,197.85872280894702 605.7894315855171,193.73460921010215 600.2142362499644,194.0921129873554 599.8314222725467,198.02791860342762 600.1408306994373,198.94205984407137 607.606408730963,197.85872280894702" stroke="rgb(255, 0, 0)" stroke-width="0.1pt" /><polygon fill="none" points="616.0652056599738,234.71098890320383 614.5289101911901,233.45017352033804 607.0633321596642,234.53351055546239 606.1965317384817,237.37247720058411 608.3250729835461,237.80886591396958 612.687169227975,238.21458778147206 616.0652056599738,234.71098890320383" stroke="rgb(255, 0, 0)" stroke-width="0.1pt" /><polygon fill="none" points="708.8197978110732,240.90924290376591 709.33224714101,242.1845810361548 714.3848261467266,245.58312608227664 716.491152053957,245.24016317408768 717.0602821100714,242.11826131699513 714.6135134682712,240.79011687107803 710.1542683753498,240.03871575905333 708.8197978110732,240.90924290376591" stroke="rgb(255, 0, 0)" stroke-width="0.1pt" /><polygon fill="none" points="653.0887259655653,273.25594244265375 652.4112635370841,273.14612263772324 649.0332271050853,276.6497215159915 648.3869107764979,280.99417457740543 648.3067736619006,282.24110248035487 648.3493351205819,282.38957683822537 648.533261765038,282.5590564038165 654.0056913224178,282.1515693866528 653.6011752955022,274.5312805750426 653.0887259655653,273.25594244265375" stroke="rgb(255, 0, 0)" stroke-width="0.1pt" /><polygon fill="none" points="344.3084846769896,330.30509749845993 346.4935040532649,324.32913626169363 343.8219343980127,319.6629691271144 339.6176506027203,320.31712305027725 340.50407476845174,325.27021884996486 344.3084846769896,330.30509749845993" stroke="rgb(255, 0, 0)" stroke-width="0.1pt" /><polygon fill="none" points="386.15244211549486,370.09260339570335 386.45451075155603,372.2732754247499 388.26227261770987,373.27723364067043 393.72635245352086,367.7565136611336 392.95767072509966,365.17685433980165 388.33746149177017,364.11664215893705 386.15244211549486,370.09260339570335" stroke="rgb(255, 0, 0)" stroke-width="0.1pt" /><polygon fill="none" points="333.0322563205391,221.38036157053392 332.8663528642576,231.58393455209122 333.6918845893784,231.85022856487865 337.8961683846708,231.19607464171585 339.94518398697653,229.39590325435256 341.02222178892134,224.00135771126287 338.32821056113744,220.02508076131267 335.5303686901909,219.977908270157 333.0322563205391,221.38036157053392" stroke="rgb(255, 0, 0)" stroke-width="0.1pt" /><polygon fill="none" points="340.3551778062932,112.0357854557608 342.54779006921103,116.69800337671246 345.3456319401575,116.7451758678681 347.5534130753216,113.354579826231 348.03953174745357,106.81461070674533 345.59772076434416,105.31630632590836 340.26193187149005,108.80466991904407 340.3551778062932,112.0357854557608" stroke="rgb(255, 0, 0)" stroke-width="0.1pt" /><polygon fill="none" points="265.39737086439095,104.30503771917694 271.7226389641349,103.60453716902985 271.6293930293317,100.37342163231312 268.80462517919443,99.5283928351746 264.5241083779956,99.21948801862032 264.43604525214107,99.27765775005146 265.39737086439095,104.30503771917694" stroke="rgb(255, 0, 0)" stroke-width="0.1pt" /><polygon fill="none" points="75.92577251480832,99.56558955026743 75.86696345147563,99.9866050747593 79.36639681116986,101.76980059079797 80.68751611758988,98.75345087378051 80.66663181553005,97.08997162513688 80.57818067396518,97.04391380204385 75.92577251480832,99.56558955026743" stroke="rgb(255, 0, 0)" stroke-width="0.1pt" /><polygon fill="none" points="98.74929834546343,121.39767062705428 100.69733182571383,123.7780855340855 101.68574568727473,122.18128461896056 100.07041765188343,118.38132091003683 98.74929834546343,121.39767062705428" stroke="rgb(255, 0, 0)" stroke-width="0.1pt" /><polygon fill="none" points="123.7719367636927,93.47312687255416 123.7928210657525,95.13660612119779 125.4081491011438,98.93656983012151 130.3461654391936,94.63700651544823 130.54146223000959,93.8186679948713 123.7719367636927,93.47312687255416" stroke="rgb(255, 0, 0)" stroke-width="0.1pt" /><polygon fill="none" points="127.05679617275568,54.3105332011663 126.37215766206843,55.08803428117561 127.70398443542547,58.21820758993186 127.79243557699034,58.26426541302491 134.56196104330724,58.60980653534206 135.46089621000746,57.60299896655048 134.6231504776804,54.3105332011663 127.05679617275568,54.3105332011663" stroke="rgb(255, 0, 0)" stroke-width="0.1pt" /><polygon fill="none" points="65.97404615476648,73.65637808742935 70.62645431392335,71.13470233920575 69.29462754056632,68.00452903044949 68.12757940418135,67.78790310001762 64.62685225411445,71.14759032073678 65.97404615476648,73.65637808742935" stroke="rgb(255, 0, 0)" stroke-width="0.1pt" /><polygon fill="none" points="64.91283768043583,163.20254306206897 64.35842532839166,164.0181930999164 63.48152522482618,170.8381231908215 63.48152522482618,176.82165190242972 70.09129155955118,172.2888455782456 70.36030452038045,167.36615348513885 68.41227104013007,164.98573857810763 64.91283768043583,163.20254306206897" stroke="rgb(255, 0, 0)" stroke-width="0.1pt" /><polygon fill="none" points="475.58474112050607,162.81770140865052 471.18055276444136,159.8797510721944 469.3981410535343,161.7561596611278 468.93361114848415,167.26188460644138 469.3039887446913,167.56193718045967 475.58474112050607,162.81770140865052" stroke="rgb(255, 0, 0)" stroke-width="0.1pt" /><polygon fill="none" points="409.6946869169466,168.70452367917534 402.31969214807106,167.40882532037327 400.111911012907,170.79942136201038 402.8059222406909,174.7756983119606 409.2301570118963,174.2102486244889 409.6946869169466,168.70452367917534" stroke="rgb(255, 0, 0)" stroke-width="0.1pt" /><polygon fill="none" points="418.61667230748026,233.18693682825463 418.2462947112731,232.88688425423635 411.8220599400677,233.45233394170805 410.74502213812286,238.8468794847977 416.1335229803388,240.5651907458582 420.21079624736456,235.01495013247273 418.61667230748026,233.18693682825463" stroke="rgb(255, 0, 0)" stroke-width="0.1pt" /><polygon fill="none" points="428.00468075936874,104.74307508685152 428.1550737648683,102.47733652681765 427.7372635289137,99.7790727616483 424.5566727289888,97.4782966294107 419.33339295171817,98.78381619749717 418.84727427958614,105.32378531698285 426.2222690484616,106.61948367578492 428.00468075936874,104.74307508685152" stroke="rgb(255, 0, 0)" stroke-width="0.1pt" /><polygon fill="none" points="513.0762664248164,133.67714720061997 513.8286754205963,133.95433711841957 516.9734401883221,132.61258498159384 517.7732872222675,130.05057254027705 508.82247107425127,128.47345830413 508.6720780687517,130.73919686416386 513.0762664248164,133.67714720061997" stroke="rgb(255, 0, 0)" stroke-width="0.1pt" /><polygon fill="none" points="523.9355674619744,205.4441344002237 529.9794082551916,205.2011506965887 525.4057201282133,202.81359132569293 523.9355674619744,205.4441344002237" stroke="rgb(255, 0, 0)" stroke-width="0.1pt" /><polygon fill="none" points="531.3844819280088,232.50608851551954 530.1080113439525,234.07281386479283 535.2573861442108,237.95355516687206 536.6491089848896,237.1786302080585 537.5371634454868,236.21362881744187 538.4039638666694,233.37466217232014 538.0945554397788,232.4605209316764 537.4283227212259,232.26310481188457 531.3844819280088,232.50608851551954" stroke="rgb(255, 0, 0)" stroke-width="0.1pt" /><polygon fill="none" points="543.1925676310366,179.95944259719172 547.766255758015,182.34700196808754 548.4324884765678,182.54441808787936 548.8153024539856,178.60861247180713 546.7159767584044,175.8415880557988 543.5712119906785,177.18334019262457 543.1925676310366,179.95944259719172" stroke="rgb(255, 0, 0)" stroke-width="0.1pt" /><polygon fill="none" points="489.9195011382229,198.41273703841867 491.3896538044618,195.7821939638879 491.7682981641037,193.00609155932068 491.0158891683238,192.72890164152108 484.735136792509,197.47313741333022 486.32926073239327,199.30115071754832 488.18444067086875,199.97633504388077 488.6430305541667,199.97946238769194 489.9195011382229,198.41273703841867" stroke="rgb(255, 0, 0)" stroke-width="0.1pt" /><polygon fill="none" points="152.39901792022442,1079.6095723926612 150.32965062990664,1083.5613002258044 153.8876242782147,1087.1358251462802 155.7028643455347,1083.5388418267135 152.39901792022442,1079.6095723926612" stroke="rgb(255, 0, 0)" stroke-width="0.1pt" /><polygon fill="none" points="152.14081924710536,965.3140593817732 156.40761936983617,964.3834337614426 150.54778555387603,955.4942735779273 148.1029420322091,959.3370462974822 152.09548678010194,965.3006186756514 152.14081924710536,965.3140593817732" stroke="rgb(255, 0, 0)" stroke-width="0.1pt" /><polygon fill="none" points="119.78337378017471,1044.1100872217078 120.56266569241282,1039.960366449099 120.51733322540943,1039.9469257429773 117.25048797413173,1040.5975711039616 114.53073442755831,1041.4534400894656 112.83287542810642,1044.9736694436347 115.47419815969079,1048.1032410015196 117.71400648985691,1048.061815054851 119.78337378017471,1044.1100872217078" stroke="rgb(255, 0, 0)" stroke-width="0.1pt" /><polygon fill="none" points="747.8164043872304,757.6788076499791 746.3500608981593,759.9347208689428 745.2841598596267,762.8323300034065 747.8164043872304,762.4099319705005 747.8164043872304,757.6788076499791" stroke="rgb(255, 0, 0)" stroke-width="0.1pt" /><polygon fill="none" points="703.3496695337204,749.0691494111027 704.415570572253,746.1715402766389 698.3287496972684,741.9631644752319 695.3405786590586,743.6367946092201 702.42063757626,749.5411747703353 703.292568231831,749.1855844977268 703.3496695337204,749.0691494111027" stroke="rgb(255, 0, 0)" stroke-width="0.1pt" /><polygon fill="none" points="725.2738540853711,712.880234541202 722.393285633368,708.0984443874618 720.9671995689685,707.8091480507192 717.7206897213155,711.3583288334942 723.8075105963001,715.566704634901 725.2738540853711,713.3107914159375 725.2738540853711,712.880234541202" stroke="rgb(255, 0, 0)" stroke-width="0.1pt" /><polygon fill="none" points="746.674726065536,782.6519574101318 744.1424815379323,783.0743554430379 744.0853802360429,783.1907905296621 745.047979376222,783.9159478078077 746.674726065536,783.979329359334 746.674726065536,782.6519574101318" stroke="rgb(255, 0, 0)" stroke-width="0.1pt" /><polygon fill="none" points="747.3582946439909,681.2451804061554 744.4777261919878,683.743235362898 747.3582946439909,688.525025516638 747.3582946439909,681.2451804061554" stroke="rgb(255, 0, 0)" stroke-width="0.1pt" /><polygon fill="none" points="105.57885118809581,828.4104249793987 100.17447621589534,830.5633661282253 103.24993230705162,834.869029392297 104.96886878091487,834.0394450719617 106.85718968464883,831.7346308831648 105.57885118809581,828.4104249793987" stroke="rgb(255, 0, 0)" stroke-width="0.1pt" /><polygon fill="none" points="132.06413776975347,875.5628787581377 130.3452012958902,876.392463078473 130.43118514469757,877.1120780524241 134.40925915333673,880.3781880270683 137.57991339088844,878.8645210562272 134.91554913065704,875.4891026215771 132.06413776975347,875.5628787581377" stroke="rgb(255, 0, 0)" stroke-width="0.1pt" /><polygon fill="none" points="135.92813578798064,844.8140341646664 134.03981488424668,847.1188483534634 136.89122624515025,847.0450722169027 137.95768920010053,845.083834700803 135.92813578798064,844.8140341646664" stroke="rgb(255, 0, 0)" stroke-width="0.1pt" /><polygon fill="none" points="143.6494726215362,783.9367118813522 148.86047020896575,784.9322852426977 144.81230105777357,779.3856091452416 144.312808478309,779.9296798187365 143.57249704568542,781.9487648542979 143.6494726215362,783.9367118813522" stroke="rgb(255, 0, 0)" stroke-width="0.1pt" /><polygon fill="none" points="89.83934699374491,790.7974078520326 89.76237141789414,788.8094608249783 84.56293347349352,787.0057277530615 83.41056226978125,788.2875284373445 82.34297686208902,790.757855267325 82.46435869719333,792.7807658947878 83.92548234869864,793.40016095528 89.32985732089911,791.2472198064534 89.83934699374491,790.7974078520326" stroke="rgb(255, 0, 0)" stroke-width="0.1pt" /><polygon fill="none" points="107.06360404022918,758.0839592650722 101.86858722348896,756.7180593415875 101.123854663205,758.2993112287168 106.32329260760561,760.1030443006334 107.06360404022918,758.0839592650722" stroke="rgb(255, 0, 0)" stroke-width="0.1pt" /><polygon fill="none" points="121.17266254036231,733.0846815100881 123.59621009792852,729.398906619344 117.95158936695594,729.3249391268666 115.68466078679847,730.3545900512937 115.4781531441575,732.2628522600985 120.67316996089771,733.6287521835831 121.17266254036231,733.0846815100881" stroke="rgb(255, 0, 0)" stroke-width="0.1pt" /><polygon fill="none" points="180.68890316603662,759.3984797339608 181.16265656596033,759.5443552804752 185.35321633953018,755.3437468953401 181.73891507687264,749.5783678713519 181.21651014285214,749.0061593738179 179.06428157241066,750.1660287457604 176.64073401484444,753.8518036365047 180.68890316603662,759.3984797339608" stroke="rgb(255, 0, 0)" stroke-width="0.1pt" /><polygon fill="none" points="147.99843020794336,813.8207115806197 147.48894053509758,814.2705235350404 148.76727903165056,817.5947294388066 150.79683244377048,817.8645299749431 152.6438543672924,817.0072615694052 153.68293207915875,814.9644554503237 153.6831811952966,814.9621604884798 153.2094277953729,814.8162849419653 147.99843020794336,813.8207115806197" stroke="rgb(255, 0, 0)" stroke-width="0.1pt" /><polygon fill="none" points="62.65386982854541,911.609112763823 65.61089074667835,905.0318043740751 59.64673990912895,906.8240315462576 59.64673990912895,907.9449311305647 61.04658866766026,911.6015364416589 62.348695911457014,911.7112353579013 62.65386982854541,911.609112763823" stroke="rgb(255, 0, 0)" stroke-width="0.1pt" /><polygon fill="none" points="64.29615869114043,858.280618245266 64.61230808397963,857.9000139399593 64.5263242351723,857.1803989660083 61.450868144016,852.8747357019366 59.98974449251072,852.2553406414445 58.33200785359104,853.2834354497141 58.33200785359104,860.0728454174485 64.29615869114043,858.280618245266" stroke="rgb(255, 0, 0)" stroke-width="0.1pt" /><polygon fill="none" points="40.19954627559398,934.383733415921 41.599395034125294,933.4666093656373 40.19954627559398,929.8100040545429 40.19954627559398,934.383733415921" stroke="rgb(255, 0, 0)" stroke-width="0.1pt" /><polygon fill="none" points="98.93325551440859,916.8203677513517 99.24199479721068,916.8647544707812 103.72429186839626,917.038280932477 106.16913539006318,913.195508212922 106.1844998340199,913.1285650309414 102.20642582538073,909.8624550562972 101.89027643254151,910.2430593616039 98.93325551440859,916.8203677513517" stroke="rgb(255, 0, 0)" stroke-width="0.1pt" /><polygon fill="none" points="52.65435103049922,980.380255182184 57.07206171411289,980.5158195058918 55.356307032827296,974.1086389342578 54.054199789030534,973.9989400180154 52.65435103049922,974.9160640682993 52.65435103049922,980.380255182184" stroke="rgb(255, 0, 0)" stroke-width="0.1pt" /><polygon fill="none" points="86.66518661762221,982.4235641237408 86.36001270053383,982.5256867178191 88.07576738181942,988.9328672894532 89.4621689216516,990.1115640295236 92.18192246822503,989.2556950440195 86.9739259004243,982.4679508431703 86.66518661762221,982.4235641237408" stroke="rgb(255, 0, 0)" stroke-width="0.1pt" /><polygon fill="none" points="244.11816993438808,627.9425671501064 243.2538701586939,627.9029102176273 242.54870443910275,633.5159007611471 244.47417709934257,633.0932629186443 245.51110447594095,631.2767852976805 244.11816993438808,627.9425671501064" stroke="rgb(255, 0, 0)" stroke-width="0.1pt" /><polygon fill="none" points="439.42789339856915,670.3733013064582 444.37087360559315,666.3948355284173 445.2258765719071,664.4025430550164 445.01392754685503,664.3016087882 436.45718785251023,666.6224247702971 434.8683336414534,669.3042665950402 437.33317689319813,671.3957141987964 439.42789339856915,670.3733013064582" stroke="rgb(255, 0, 0)" stroke-width="0.1pt" /><polygon fill="none" points="463.17021027764656,683.622495246952 466.48670889356026,684.2636009591604 467.7050437911974,681.4243907453983 468.11319048467055,679.6440294689111 463.17021027764656,683.622495246952" stroke="rgb(255, 0, 0)" stroke-width="0.1pt" /><polygon fill="none" points="512.1518903779812,687.4830346965832 511.29688741166717,689.4753271699842 510.888740718194,691.2556884464714 513.4896206203271,699.1819685431359 517.7995225904918,697.2775436506561 513.9919472143049,687.4259465677687 512.1518903779812,687.4830346965832" stroke="rgb(255, 0, 0)" stroke-width="0.1pt" /><polygon fill="none" points="501.52317977544203,591.7997548823311 503.36323661176584,591.7426667535165 508.32976329104383,588.4288889695888 500.3160860812636,581.4519116255656 499.4030223063429,581.2015369882923 497.5617292852783,586.9714224400593 501.31123075039,591.6988206155147 501.52317977544203,591.7997548823311" stroke="rgb(255, 0, 0)" stroke-width="0.1pt" /><polygon fill="none" points="395.7685041086165,732.196803909561 393.3036608568718,730.1053563058048 391.8396933897886,730.47203989193 389.77120115079083,731.6438168526086 388.80007362128293,734.1256363747759 388.77553628691857,735.559506820069 389.854920379643,738.0010216578265 395.92559878056227,740.1599998674014 398.9239003228056,737.6271278254017 395.7685041086165,732.196803909561" stroke="rgb(255, 0, 0)" stroke-width="0.1pt" /><polygon fill="none" points="445.69138315843094,718.1997290527931 443.5966666530599,719.2221419451314 446.75206286724904,724.652465860972 447.70939393683966,724.5426094546422 449.0078817743447,718.8408347650015 445.69138315843094,718.1997290527931" stroke="rgb(255, 0, 0)" stroke-width="0.1pt" /><polygon fill="none" points="435.6385635332609,620.5448979836863 436.6186273185841,623.4855598294602 445.175367012929,621.1647438473631 441.4258655478173,616.4373456719077 438.2214990472818,615.9902289336727 435.6385635332609,620.5448979836863" stroke="rgb(255, 0, 0)" stroke-width="0.1pt" /><polygon fill="none" points="380.04537599070227,644.3362380524854 377.8250318925291,644.6908902020541 380.5470478040576,651.5475609175569 382.01101527114076,651.1808773314317 383.5998694821976,648.4990355066886 382.6198056968744,645.5583736609148 380.04537599070227,644.3362380524854" stroke="rgb(255, 0, 0)" stroke-width="0.1pt" /><polygon fill="none" points="274.44322105218004,475.01137744384727 275.97382599971536,469.6488770300365 275.94686787704023,469.47151382745903 270.2589288471024,472.28576497971153 270.2499467189299,474.61198358778825 274.44322105218004,475.01137744384727" stroke="rgb(255, 0, 0)" stroke-width="0.1pt" /><polygon fill="none" points="275.2996531194318,514.5079685768574 277.4972785671892,510.98096194357936 275.8705869292055,509.86686103011056 271.67731259595536,509.46746717405154 271.6602425711689,509.4918828092192 271.54172035719574,510.07852854015465 275.2996531194318,514.5079685768574" stroke="rgb(255, 0, 0)" stroke-width="0.1pt" /><polygon fill="none" points="432.9777742270991,551.858114084582 435.42628380683504,553.8936180682317 438.63065030737056,554.3407348064667 440.47194332843515,548.5708493546997 440.0647458303375,547.7217240279144 433.2975402408664,548.5817185936343 432.9777742270991,551.858114084582" stroke="rgb(255, 0, 0)" stroke-width="0.1pt" /><polygon fill="none" points="395.44616947241843,590.6961672198097 394.0909445521153,595.5566169919571 396.6653742582874,596.7787526003865 399.2483097723083,592.224083550373 396.7998001925723,590.1885795667233 395.44616947241843,590.6961672198097" stroke="rgb(255, 0, 0)" stroke-width="0.1pt" /><polygon fill="none" points="311.4281530396218,486.56012229973504 311.4599126413844,486.52705935355965 307.98186731807795,480.0683763781403 306.4512623705426,485.43087679195105 308.07795400852626,486.5449777054199 311.4281530396218,486.56012229973504" stroke="rgb(255, 0, 0)" stroke-width="0.1pt" /><polygon fill="none" points="146.9745367156279,431.69866702967136 144.6534535854447,435.1248439225998 146.95974434829793,440.0865781068425 150.49631984748777,440.2147664747179 153.3619818214949,433.565190390576 146.9745367156279,431.69866702967136" stroke="rgb(255, 0, 0)" stroke-width="0.1pt" /><polygon fill="none" points="91.98697173312577,388.2291018396661 86.88590227097716,393.10636065231154 88.15968620049452,398.1080426626558 92.38642397239751,397.09082286259144 94.7075071025807,393.66464596966296 91.98697173312577,388.2291018396661" stroke="rgb(255, 0, 0)" stroke-width="0.1pt" /><polygon fill="none" points="111.35396787645377,251.8599220013689 118.08226725864094,258.4242015302095 124.08836490841364,257.5342048036098 127.52921321459176,251.68113782211677 125.54269247079507,249.53716375256434 118.94538377061289,246.78726709450842 117.96373421117877,246.8758799822137 111.35396787645377,251.4086863063978 111.35396787645377,251.8599220013689" stroke="rgb(255, 0, 0)" stroke-width="0.1pt" /><polygon fill="none" points="59.691187486362026,329.39477054728695 61.318349903732695,329.60622554904603 66.41941936588131,324.7289667364006 66.41948686854919,321.87939237239493 59.691187486362026,315.3151128435544 59.691187486362026,329.39477054728695" stroke="rgb(255, 0, 0)" stroke-width="0.1pt" /><polygon fill="none" points="279.7986678331897,153.59991064891597 284.07295667485187,153.96661572764316 286.57106904450376,152.56416242726633 284.378456781586,147.90194450631466 278.053188681842,148.60244505646173 277.8601323601189,150.33939314352932 279.7986678331897,153.59991064891597" stroke="rgb(255, 0, 0)" stroke-width="0.1pt" /><polygon fill="none" points="278.0543105209366,222.48104743362973 279.85553361086636,231.57039796012162 280.95571951612055,232.4964506475351 282.79925749044133,232.2409546190366 282.9651609467228,222.03738163747929 278.6908721050605,221.67067655875206 278.0543105209366,222.48104743362973" stroke="rgb(255, 0, 0)" stroke-width="0.1pt" /><polygon fill="none" points="241.5717818673271,229.54071977282703 238.1638940649433,234.22332105958455 244.78924808007892,237.6227729921133 242.98802499014917,228.5334224656214 241.5717818673271,229.54071977282703" stroke="rgb(255, 0, 0)" stroke-width="0.1pt" /><polygon fill="none" points="139.06661962553312,145.4280162027365 140.17092466602156,143.12862876773448 139.40624988290617,138.33913513592995 134.46823354485636,142.63869845060321 133.47981968329543,144.23549936572817 133.21080672246617,149.15819145883492 134.19245628190026,149.06957857112963 139.06661962553312,145.4280162027365" stroke="rgb(255, 0, 0)" stroke-width="0.1pt" /><polygon fill="none" points="204.27228133370704,112.96242517985928 206.80822939423223,112.49816090025081 207.00128571595536,110.7612128131832 206.0399601037055,105.73383284405773 200.35007863479458,104.90657642864076 199.45114346809436,105.91338399743233 199.2558466772784,106.73172251800926 200.0205214603938,111.52121614981382 204.27228133370704,112.96242517985928" stroke="rgb(255, 0, 0)" stroke-width="0.1pt" /><polygon fill="none" points="646.2808054036016,125.64086630186885 645.708070931394,130.19086874164952 645.7856450833366,130.47860778752562 649.3165530338209,129.37622416545491 647.8921975358635,122.67403682158806 646.2808054036016,125.64086630186885" stroke="rgb(255, 0, 0)" stroke-width="0.1pt" /><polygon fill="none" points="667.6188384169856,177.79861817970755 664.0879304665011,178.90100180177822 663.8031639687975,180.0459605111054 665.6201411142436,184.1700741099503 667.1564365830272,185.43088949281605 667.8338990115085,185.54070929774656 669.168369575785,184.670182153034 672.2676789575966,178.215761878383 667.6188384169856,177.79861817970755" stroke="rgb(255, 0, 0)" stroke-width="0.1pt" /><polygon fill="none" points="591.4647841749552,150.79597979126837 586.5523297260359,147.44881810737937 584.545880604725,146.97507763593555 584.3829178320054,147.2571444663998 583.5830707980601,149.81915690771658 585.6823964936414,152.58618132372487 591.2575918291941,152.22867754647163 591.5423583268978,151.08371883714446 591.4647841749552,150.79597979126837" stroke="rgb(255, 0, 0)" stroke-width="0.1pt" /><polygon fill="none" points="617.6999133306958,128.10747260021233 612.214724409569,129.310313356104 617.1271788584883,132.657475039993 617.6999133306958,128.10747260021233" stroke="rgb(255, 0, 0)" stroke-width="0.1pt" /><polygon fill="none" points="682.1659843063582,113.9256578814597 683.5903398043157,120.62784522532655 688.2391803449266,121.04498892400198 688.3982949217451,120.90057964081298 689.306659019047,117.30626840895734 684.153453439393,113.82874139287411 682.5323923179859,112.95891921550944 682.1659843063582,113.9256578814597" stroke="rgb(255, 0, 0)" stroke-width="0.1pt" /><polygon fill="none" points="606.6407120250898,93.91735579312186 608.2521041573517,90.95052631284108 608.6185121689795,89.98378764689082 608.4622605844211,89.68585427621494 608.2147312484122,89.45866024376278 599.3160050525006,89.85195216264212 599.1490739826521,94.6464560775697 601.155523103963,95.12019654901351 606.6407120250898,93.91735579312186" stroke="rgb(255, 0, 0)" stroke-width="0.1pt" /><polygon fill="none" points="434.9103530302898,1137.933960615354 438.7977225887633,1138.6612034075702 443.33286894969643,1135.7907532458823 443.1065992264755,1131.8881550623955 438.82436263340634,1129.970960960768 434.9707391296924,1135.7944055634728 434.9103530302898,1137.933960615354" stroke="rgb(255, 0, 0)" stroke-width="0.1pt" /><polygon fill="none" points="391.2168263482853,1100.4202712015322 395.5765137199685,1105.0741586059332 399.4301372236824,1099.2507140032285 397.7781697220425,1096.8711396137078 391.7494714918495,1099.2467286936956 391.2168263482853,1100.4202712015322" stroke="rgb(255, 0, 0)" stroke-width="0.1pt" /><polygon fill="none" points="151.98459617198608,1184.1507178484908 150.06415045069866,1182.8676237979878 148.4292357501899,1184.1507178484908 151.98459617198608,1184.1507178484908" stroke="rgb(255, 0, 0)" stroke-width="0.1pt" /><polygon fill="none" points="186.8478759908598,1159.3485746901215 181.82466007475452,1158.7251323429778 180.0732615794513,1162.9006124153 181.99370730073872,1164.183706465803 185.4611423326506,1164.183706465803 186.8478759908598,1159.3485746901215" stroke="rgb(255, 0, 0)" stroke-width="0.1pt" /><polygon fill="none" points="242.3239154002108,1033.2171741636155 242.50539662807742,1032.6296269993036 239.79078704230244,1026.4322559004465 236.406515562589,1024.883352110042 234.0805974831897,1026.2539900794454 234.89744035352194,1032.9912258292966 235.7870928928526,1033.9401879209838 242.3239154002108,1033.2171741636155" stroke="rgb(255, 0, 0)" stroke-width="0.1pt" /><polygon fill="none" points="190.4730814622019,943.5480944568021 192.79899954160118,942.1774564873987 193.3024170282032,938.8230052207247 193.15545158448788,938.2601445136625 190.78677993223937,934.7274218354755 187.94640422740412,933.0073039391965 187.45440882899968,933.0923358291725 184.28375459144797,934.6060028000136 184.26839014749126,934.6729459819943 190.1282239634514,943.5621061655097 190.4730814622019,943.5480944568021" stroke="rgb(255, 0, 0)" stroke-width="0.1pt" /><polygon fill="none" points="268.76714519497494,961.647041477855 270.06926034537986,961.3399648559216 274.03059220942407,958.1852244956948 274.8026766695583,954.739921614155 271.6222515327827,954.2514673376091 265.8862912018635,956.7436864207768 265.3828737152615,960.0981376874508 268.76714519497494,961.647041477855" stroke="rgb(255, 0, 0)" stroke-width="0.1pt" /><polygon fill="none" points="182.21087065213192,1038.865442382231 181.3940277817997,1032.1282066323802 181.04917028304922,1032.1422183410878 176.78237016031838,1033.0728439614181 176.00307824808027,1037.222564734027 179.3069246733905,1041.1518341680792 182.21087065213192,1038.865442382231" stroke="rgb(255, 0, 0)" stroke-width="0.1pt" /><polygon fill="none" points="300.92308687114985,1027.6653399126237 305.7846394542256,1026.6916448196314 307.4884097442552,1023.0417156700864 299.51059243577976,1021.1608921918329 298.2084772853749,1021.4679688137664 300.92308687114985,1027.6653399126237" stroke="rgb(255, 0, 0)" stroke-width="0.1pt" /><polygon fill="none" points="201.6453645504223,1104.124374507078 200.75571201109165,1103.1754124153908 197.85176603235027,1105.4618042012391 196.03652596503028,1109.0587875208057 196.2724975553694,1109.9194812548074 196.56332226511725,1110.3532319693654 201.58653818122252,1110.9766743165096 203.4927684136547,1110.545068642857 201.6453645504223,1104.124374507078" stroke="rgb(255, 0, 0)" stroke-width="0.1pt" /><polygon fill="none" points="255.1556364818759,1093.5832960606276 248.61881397451768,1094.3063098179955 250.46621783775007,1100.7270039537746 252.56172999698362,1101.2370511718916 255.26331272960263,1096.191622547737 255.1556364818759,1093.5832960606276" stroke="rgb(255, 0, 0)" stroke-width="0.1pt" /><polygon fill="none" points="294.09890705814536,668.1041768091668 293.30050597673716,665.0494881363591 292.26307769792976,665.8259436488855 293.5044252153916,668.3063591320223 294.09890705814536,668.1041768091668" stroke="rgb(255, 0, 0)" stroke-width="0.1pt" /><polygon fill="none" points="281.1177487541669,676.5772124472171 279.876401236705,674.0967969640803 277.85086646870093,674.4585716244176 278.9150890914272,677.412529064706 279.5796860147482,677.8804595684344 281.1177487541669,676.5772124472171" stroke="rgb(255, 0, 0)" stroke-width="0.1pt" /><polygon fill="none" points="310.6833270151304,661.1470632568341 313.72242708353645,660.8004686142759 311.8782735305116,655.7615026029785 309.8849259337223,658.0923745840262 310.6833270151304,661.1470632568341" stroke="rgb(255, 0, 0)" stroke-width="0.1pt" /><polygon fill="none" points="317.98133739802734,698.0697882145437 317.3868555552736,698.271970537399 315.8487928158549,699.5752176586163 316.1556597882497,701.0113314524995 322.4972422908894,702.3182747119075 323.4683698203973,699.8364551897401 321.02043746643335,697.7231935719856 317.98133739802734,698.0697882145437" stroke="rgb(255, 0, 0)" stroke-width="0.1pt" /><polygon fill="none" points="300.1225100179953,581.9371462890722 300.317881695256,581.9707623862665 300.93158540258105,581.5181431531507 302.18646737647,577.2405816504295 296.9813840523564,575.3855917159891 295.44312970763053,576.7382403511992 295.80155659142656,579.306188616639 300.1225100179953,581.9371462890722" stroke="rgb(255, 0, 0)" stroke-width="0.1pt" /><polygon fill="none" points="277.7337724767303,610.6745857808894 273.4128190501616,608.0436281084562 271.1169943897818,609.4895626702781 272.5099289313347,612.8237808178524 277.7337724767303,610.6745857808894" stroke="rgb(255, 0, 0)" stroke-width="0.1pt" /><polygon fill="none" points="242.66268180151297,576.2442285918786 241.95159249753473,575.9987429786366 238.34414814184947,575.8861456329303 237.24492617571738,576.8369816736265 237.7667545447748,579.4977773425188 239.860984249235,580.2184544866616 240.72528402492915,580.2581114191404 243.021108685309,578.8121768573185 242.66268180151297,576.2442285918786" stroke="rgb(255, 0, 0)" stroke-width="0.1pt" /><polygon fill="none" points="262.8529460889835,535.4959437542822 262.87412165618304,534.9592727948358 259.11618889394697,530.5298327581329 258.889970025149,530.9365706938853 260.6036024402794,536.6031067762502 261.31469174425763,536.8485923894922 262.8529460889835,535.4959437542822" stroke="rgb(255, 0, 0)" stroke-width="0.1pt" /><polygon fill="none" points="315.45765734251887,537.7046662611838 315.6187063146603,537.5335657379189 315.82157406445776,531.8011433283341 312.4713750333623,531.785998734019 310.27374958560483,535.313005367297 310.2525740184053,535.8496763267434 315.45765734251887,537.7046662611838" stroke="rgb(255, 0, 0)" stroke-width="0.1pt" /><polygon fill="none" points="349.7501311602533,592.1226118889695 352.7318073493673,593.0672878514004 354.9521514475405,592.7126357018316 356.3073763678436,587.852185929684 351.1660621062837,587.6739498629834 351.00501313414225,587.8450503862483 349.7501311602533,592.1226118889695" stroke="rgb(255, 0, 0)" stroke-width="0.1pt" /><polygon fill="none" points="340.8334905909594,649.0566004903824 340.7903082529404,650.4248772668266 342.63446180596526,655.4638432781243 345.0823941599292,657.577104895879 347.150886398927,656.4053279352003 344.4288704873985,649.5486572196974 341.4471942982845,648.6039812572667 340.8334905909594,649.0566004903824" stroke="rgb(255, 0, 0)" stroke-width="0.1pt" /><polygon fill="none" points="285.5990858061741,636.8482988281768 280.37524226077846,638.9974938651397 279.3383148841801,640.8139714861036 280.6949645018149,641.7192938557268 282.720499269819,641.3575191953896 283.7579275486265,640.5810636828631 285.7512751454158,638.2501917018154 285.7944574834348,636.8819149253711 285.5990858061741,636.8482988281768" stroke="rgb(255, 0, 0)" stroke-width="0.1pt" /><polygon fill="none" points="414.7395643090731,477.7301282144198 412.2873191313022,476.0196865209586 409.2732491422286,475.5911540404977 407.71864172391486,480.036811652084 410.0516679543019,483.40097095746376 415.6664551562378,479.3928643574982 414.7395643090731,477.7301282144198" stroke="rgb(255, 0, 0)" stroke-width="0.1pt" /><polygon fill="none" points="370.4660673933043,531.3516688482435 368.1330411629172,527.9875095428638 364.24833562247534,529.8762107884362 364.2165760207128,529.9092737346116 364.01370827091534,535.6416961441964 369.1550225324752,535.819932210897 370.50865325262913,535.3123445578108 370.82841926639645,532.035949066863 370.4660673933043,531.3516688482435" stroke="rgb(255, 0, 0)" stroke-width="0.1pt" /><polygon fill="none" points="351.60030658571884,451.10586668480386 350.1082948504659,448.51001271086113 348.30053298431193,447.5060544949406 343.58833723461447,448.4208081981641 342.6559901809816,450.80417936396566 342.68294830365676,450.9815425665431 346.1609936269632,457.44022554196255 350.0456991674051,455.55152429639 351.60030658571884,451.10586668480386" stroke="rgb(255, 0, 0)" stroke-width="0.1pt" /><polygon fill="none" points="442.42097857957873,506.55034789132344 436.8061913776429,510.558454491289 437.16854325073507,511.2427347099085 443.9357488402061,510.38274014418863 444.0283377932911,508.7169416565646 442.42097857957873,506.55034789132344" stroke="rgb(255, 0, 0)" stroke-width="0.1pt" /><polygon fill="none" points="427.18693028676887,409.6144742410243 432.69801043268615,404.6646933520145 432.7284683324881,402.4348965635026 428.14492839825334,401.069367807084 422.68084856244235,406.5900877866208 424.1728602976953,409.1859417605634 427.18693028676887,409.6144742410243" stroke="rgb(255, 0, 0)" stroke-width="0.1pt" /><polygon fill="none" points="461.2537686219458,437.74005631562926 465.7938810274482,435.51026524949964 466.44791580093386,434.00567448024793 464.31260359009207,431.0798337331583 458.8015234441748,436.0296146221681 461.2537686219458,437.74005631562926" stroke="rgb(255, 0, 0)" stroke-width="0.1pt" /><polygon fill="none" points="474.6090576601025,471.901693411992 475.5359485072671,473.56442955507043 477.14330772097946,475.7310233203115 480.70479931486886,473.5124926095479 479.14917006560495,469.67190234586235 474.6090576601025,471.901693411992" stroke="rgb(255, 0, 0)" stroke-width="0.1pt" /><polygon fill="none" points="165.38662154524212,360.0174234836106 165.85281780969933,353.112665344912 160.88833105239615,349.503283666025 154.88223340262346,350.39328039262466 154.8821658999556,353.2428547566303 157.60270126941052,358.67839888662724 163.99014637527753,360.544922247532 165.38662154524212,360.0174234836106" stroke="rgb(255, 0, 0)" stroke-width="0.1pt" /><polygon fill="none" points="207.10789346838283,452.4084806112525 205.7114182984182,452.9359793751739 202.84575632441107,459.58555545931574 203.11499597840634,460.0284513632651 210.73961946337144,460.91214435181723 210.7566894881579,460.8877287166496 210.7656716163304,458.5615101085729 207.11777310748568,452.4129291135866 207.10789346838283,452.4084806112525" stroke="rgb(255, 0, 0)" stroke-width="0.1pt" /><polygon fill="none" points="202.35858322843745,178.02878800838192 201.7558140611323,175.55317187008268 200.21466183093554,177.07581702236317 200.41418705731536,177.86401555678975 202.35858322843745,178.02878800838192" stroke="rgb(255, 0, 0)" stroke-width="0.1pt" /><polygon fill="none" points="187.8308915789057,155.80881246541256 188.69859543751747,154.56809406147113 184.44683556420424,153.12688503142564 183.3425305237158,155.42627246642766 186.28973934870893,157.33145761769305 187.8308915789057,155.80881246541256" stroke="rgb(255, 0, 0)" stroke-width="0.1pt" /><polygon fill="none" points="162.120201371101,189.47735264054106 161.9206761447212,188.68915410611447 158.973467319728,186.78396895484912 154.09930397609517,190.4255313232422 160.69661267627737,193.17542798129813 162.120201371101,189.47735264054106" stroke="rgb(255, 0, 0)" stroke-width="0.1pt" /><polygon fill="none" points="229.01849014773808,171.95830005122656 231.7051036656947,172.85588691684734 233.12134678851677,171.84858960964172 233.7579083726407,171.03821873476403 231.81937289956988,167.77770122937739 229.2834248390447,168.24196550898586 228.41572098043292,169.4826839129273 229.01849014773808,171.95830005122656" stroke="rgb(255, 0, 0)" stroke-width="0.1pt" /><polygon fill="none" points="205.41291028651585,208.50675285391844 203.46851411539376,208.34198040232627 202.04492542057014,212.04005574308334 204.03144616436683,214.18402981263577 204.69163600208864,214.0869410062968 208.09952380447245,209.40433971953922 205.41291028651585,208.50675285391844" stroke="rgb(255, 0, 0)" stroke-width="0.1pt" /><polygon fill="none" points="322.1658271421193,1079.5901260156193 322.7932862557521,1079.1641724481883 323.32593139931623,1077.990629940352 320.8432103048229,1074.0446706728949 315.9816577217472,1075.018365765887 315.8001764938805,1075.605912930199 315.9078527416073,1078.2142394173086 321.8008656667784,1079.6611482682854 322.1658271421193,1079.5901260156193" stroke="rgb(255, 0, 0)" stroke-width="0.1pt" /><polygon fill="none" points="334.811611256701,1167.9379470957779 330.93321997599446,1165.2848130807279 325.2702175117519,1166.4989132416738 324.09654501320716,1167.137801759075 324.25423874384967,1168.0832025429218 334.78261773435065,1167.9958878723658 334.811611256701,1167.9379470957779" stroke="rgb(255, 0, 0)" stroke-width="0.1pt" /><polygon fill="none" points="244.99577853593314,1165.9044295411927 242.87757852778216,1163.1310117394546 240.7820663685486,1162.6209645213378 238.87583613611648,1163.0525701949905 237.48910247790727,1167.8877019706717 245.1581424086957,1167.8877019706717 245.1534722665757,1166.849830325039 244.99577853593314,1165.9044295411927" stroke="rgb(255, 0, 0)" stroke-width="0.1pt" /><polygon fill="none" points="337.3140479280834,1183.1080742914191 337.60800567564473,1181.9828879752304 327.07962668514375,1182.0702026457864 327.0842968272638,1183.1080742914191 337.3140479280834,1183.1080742914191" stroke="rgb(255, 0, 0)" stroke-width="0.1pt" /><polygon fill="none" points="293.74371870586936,1128.8750614500416 299.0464418569638,1123.142012392528 293.15342893179263,1121.695103541551 290.45184619917364,1126.7405321657054 292.5700462073246,1129.513949967443 293.74371870586936,1128.8750614500416" stroke="rgb(255, 0, 0)" stroke-width="0.1pt" /><polygon fill="none" points="329.4779748097097,1138.6701613195671 329.4826569719025,1134.0801901703333 329.1176954965615,1134.1512124229994 323.81497234546714,1139.884261480513 329.4779748097097,1138.6701613195671" stroke="rgb(255, 0, 0)" stroke-width="0.1pt" /><polygon fill="none" points="370.71844049941063,1144.304186371598 371.7714917668102,1143.4285700961655 371.83187786621284,1141.2890150442843 367.4721904945296,1136.6351276398832 366.8447313808969,1137.0610812073141 366.8400492187041,1141.651052356548 370.71844049941063,1144.304186371598" stroke="rgb(255, 0, 0)" stroke-width="0.1pt" /><polygon fill="none" points="412.51746943953844,1180.5287020449023 412.0634680123004,1179.1972014689093 408.17609845382697,1178.469958676693 407.12304718642736,1179.3455749521258 407.094053664077,1179.4035157287135 406.8000959165157,1180.5287020449023 412.51746943953844,1180.5287020449023" stroke="rgb(255, 0, 0)" stroke-width="0.1pt" /><polygon fill="none" points="221.4407052969728,294.2775630308097 223.1934593703863,293.15482019169053 225.5722365092479,290.39167756123726 224.47205060399364,289.4656248738238 217.84669658885798,286.066172941295 217.1865067511362,286.163261747634 213.74565844495805,292.016328729127 218.71014520226123,295.625710408014 221.4407052969728,294.2775630308097" stroke="rgb(255, 0, 0)" stroke-width="0.1pt" /><polygon fill="none" points="321.18973635698694,385.2284163590212 322.0267532261873,385.77027060405106 326.73894897588474,384.8555169008276 326.4368803398237,382.6748448717811 322.6324704312858,377.639966223286 320.2436054374401,380.7657219020863 321.18973635698694,385.2284163590212" stroke="rgb(255, 0, 0)" stroke-width="0.1pt" /><polygon fill="none" points="259.30574807711196,426.63003049775614 254.91426942115,427.1080572461661 258.56216792999476,433.25663824115236 264.2501069599326,430.4423870888998 265.18245401356546,428.0590159230982 264.3454371443652,427.5171616780683 259.30574807711196,426.63003049775614" stroke="rgb(255, 0, 0)" stroke-width="0.1pt" /><polygon fill="none" points="237.18053950852516,369.8155348198676 234.6682376523005,365.1685928540496 231.93767755758898,366.51674023125395 231.47148129313177,373.4214983699526 231.48136093223462,373.42594687228666 235.8728395881966,372.9479201238767 237.18053950852516,369.8155348198676" stroke="rgb(255, 0, 0)" stroke-width="0.1pt" /><polygon fill="none" points="273.59514279747145,357.7121902351976 275.37912989744257,357.0330016817984 273.7802450080825,354.60514802252703 273.59514279747145,357.7121902351976" stroke="rgb(255, 0, 0)" stroke-width="0.1pt" /><polygon fill="none" points="258.89916330673395,341.61865178502507 259.08426551734493,338.5116095723545 257.91257377754954,336.0450479933016 256.15981970413594,337.1677908324208 258.6721215603606,341.81473279823877 258.89916330673395,341.61865178502507" stroke="rgb(255, 0, 0)" stroke-width="0.1pt" /><polygon fill="none" points="289.66267742689735,325.45581822270117 290.43750680793073,325.8879098167005 292.8263718017764,322.76215413790027 291.93994763604496,317.8090583382126 291.11441591092415,317.54276432542514 289.2708779366035,317.7982603539237 286.8921007977419,320.56140298437697 288.06379253753727,323.02796456342986 289.66267742689735,325.45581822270117" stroke="rgb(255, 0, 0)" stroke-width="0.1pt" /><polygon fill="none" points="278.26697097300473,386.5211334136775 278.0399292266314,386.71721442689113 276.7322293063028,389.84959973090025 281.771918373556,390.7367309112124 280.8257874540092,386.2740364542775 280.0509580729758,385.8419448602782 278.26697097300473,386.5211334136775" stroke="rgb(255, 0, 0)" stroke-width="0.1pt" /></svg>