<?xml version="1.0" encoding="utf-8" ?>
<svg baseProfile="full" height="11in" version="1.1" width="17in" xmlns="http://www.w3.org/2000/svg" xmlns:ev="http://www.w3.org/2001/xml-events" xmlns:xlink="http://www.w3.org/1999/xlink"><defs /><polygon fill="none" points="66.42138827779294,1169.691425144167 61.291967879950334,1158.1462635855182 52.97079833463951,1155.991288158976 52.97079833463951,1169.691425144167 66.42138827779294,1169.691425144167" stroke="rgb(255, 0, 0)" stroke-width="0.1pt" /><polygon fill="none" points="40.631753164932476,1085.7965829754517 45.019729847500095,1071.186553962109 40.631753164932476,1068.7093302732487 40.631753164932476,1085.7965829754517" stroke="rgb(255, 0, 0)" stroke-width="0.1pt" /><polygon fill="none" points="59.75836624712261,1105.3267668818917 68.07953579243342,1107.4817423084341 68.63967152032694,1106.9981933180218 75.95254854051058,1094.3402217586204 69.61337398470809,1086.829250019697 64.14634292969022,1087.9180328024531 59.75836624712261,1102.5280618157958 59.75836624712261,1105.3267668818917" stroke="rgb(255, 0, 0)" stroke-width="0.1pt" /><polygon fill="none" points="44.62100816535738,432.44843136446474 47.85214994967883,431.89643910088427 51.58327939788863,427.2183916528672 48.526197967046976,415.21435482804094 44.62100816535738,414.70686282381916 44.62100816535738,432.44843136446474" stroke="rgb(255, 0, 0)" stroke-width="0.1pt" /><polygon fill="none" points="654.4711559111311,1168.0437361763397 646.2298768446934,1151.2575614289985 635.9835320817028,1164.3343513080818 646.581764544021,1168.0437361763397 654.4711559111311,1168.0437361763397" stroke="rgb(255, 0, 0)" stroke-width="0.1pt" /><polygon fill="none" points="684.6455219933957,1137.7046302769188 692.8868010598335,1154.4908050242598 704.6590503140922,1154.4908050242598 707.2653619364489,1149.3805038300113 700.7966779965085,1134.38300015232 685.4886864533087,1133.526522728457 684.6455219933957,1137.7046302769188" stroke="rgb(255, 0, 0)" stroke-width="0.1pt" /><polygon fill="none" points="88.77959956446455,469.72557836635326 96.80953042362927,469.4946217592029 100.82389854154869,466.03013192337295 95.28880071070093,454.12196988119024 85.14463005813373,456.56329740134476 81.41350060992391,461.24134484936184 88.77959956446455,469.72557836635326" stroke="rgb(255, 0, 0)" stroke-width="0.1pt" /><polygon fill="none" points="606.1074898224114,757.8500016104293 605.2607612361155,757.3611859334508 594.0145906056262,760.790810473644 593.9844257124761,778.9237895593172 610.0857237876618,772.9822422506061 606.1074898224114,757.8500016104293" stroke="rgb(255, 0, 0)" stroke-width="0.1pt" /><polygon fill="none" points="497.8581843332419,816.607086253368 508.6677556997729,810.3934065500099 499.835361358122,793.8926484380868 494.3925485768783,794.6115852897594 497.8581843332419,816.607086253368" stroke="rgb(255, 0, 0)" stroke-width="0.1pt" /><polygon fill="none" points="732.7734610710584,380.1816230611913 734.8471202190814,386.67513636147896 743.2602970328186,394.3397886080077 743.2602970328186,378.3937677084708 732.7734610710584,380.1816230611913" stroke="rgb(255, 0, 0)" stroke-width="0.1pt" /><polygon fill="none" points="251.7519940898939,37.69404770983509 251.86410404217884,39.29893501388939 256.93200963345686,37.69404770983509 251.7519940898939,37.69404770983509" stroke="rgb(255, 0, 0)" stroke-width="0.1pt" /><polygon fill="none" points="474.2410258093718,47.869844702042855 473.13717481252274,52.47762218046911 480.77059273234244,57.99948489783931 500.01774985146164,51.27313010083422 500.11969441825477,47.869844702042855 474.2410258093718,47.869844702042855" stroke="rgb(255, 0, 0)" stroke-width="0.1pt" /><polygon fill="none" points="586.2539679706708,48.04608934663796 586.1520234038777,51.44937474542934 590.181314828452,56.252866956653506 611.5382576986398,55.30896635134308 610.4459687422561,48.04608934663796 586.2539679706708,48.04608934663796" stroke="rgb(255, 0, 0)" stroke-width="0.1pt" /><polygon fill="none" points="346.660362961209,962.0788629098902 347.4268192005977,957.8596981608124 338.65219906519786,944.7983766623129 334.5074483574466,947.3180391377098 332.6544456531245,955.5867660534049 346.660362961209,962.0788629098902" stroke="rgb(255, 0, 0)" stroke-width="0.1pt" /><polygon fill="none" points="609.4685399392017,585.8722880184567 605.5337733633855,595.4395560474816 617.8533399800917,606.0744153316965 630.4949594440426,591.89363681594 629.0461965821692,588.5357374809612 609.4685399392017,585.8722880184567" stroke="rgb(255, 0, 0)" stroke-width="0.1pt" /><polygon fill="none" points="551.7870575191756,555.2559895535518 537.3955581503126,547.4265397414562 527.555364176209,549.6625936664686 546.7881894796815,566.4073392921241 547.8002867350316,566.0168924234424 551.7350533108479,556.4496243944176 551.7870575191756,555.2559895535518" stroke="rgb(255, 0, 0)" stroke-width="0.1pt" /><polygon fill="none" points="551.9918208075421,500.73478266528264 552.745015243723,510.41842787105537 567.136514612586,518.2478776831509 571.3483010609173,505.2830790055394 571.2142073423108,502.8130828076482 559.4060992025687,497.46304218106906 551.9918208075421,500.73478266528264" stroke="rgb(255, 0, 0)" stroke-width="0.1pt" /><polygon fill="none" points="710.7850617362752,448.6175666082937 716.8427569999832,439.63264687738285 716.8427569999832,436.17706903745284 708.429580186246,428.51241679092414 689.4829670347267,440.05480843677464 688.040433691168,442.3028067313089 703.6604571451905,449.14089325209835 710.7850617362752,448.6175666082937" stroke="rgb(255, 0, 0)" stroke-width="0.1pt" /><polygon fill="none" points="680.8542446830595,779.9678396324822 663.8621032817762,765.7973272458062 657.0743679463359,765.7277341944632 661.0526019115864,780.8599748346398 669.4586268533343,793.077523887745 680.8542446830595,779.9678396324822" stroke="rgb(255, 0, 0)" stroke-width="0.1pt" /><polygon fill="none" points="716.8348867988412,640.203398214139 722.3448954326976,647.1009707511528 725.7675019872568,647.7952819593347 732.6808662720641,641.7999500631529 732.6808662720641,631.6365670156263 732.5495726744035,631.4184183319567 719.951899449287,631.2893073106088 716.8348867988412,640.203398214139" stroke="rgb(255, 0, 0)" stroke-width="0.1pt" /><polygon fill="none" points="665.5455166909842,673.3170904796186 649.0239595253281,673.5265972038337 648.4578272770336,692.1910004885422 649.3045558633295,692.6798161655208 656.0922911987697,692.7494092168637 663.2639016904736,688.7326968952918 671.0555253248407,680.2146630166321 665.5455166909842,673.3170904796186" stroke="rgb(255, 0, 0)" stroke-width="0.1pt" /><polygon fill="none" points="672.585604671742,627.3109516431291 675.7026173221877,618.3968607395988 675.175006874836,617.1918558789009 668.2399935566448,612.6568102080263 655.5983740926939,626.8375887237828 656.0640475060859,627.5204583673443 672.585604671742,627.3109516431291" stroke="rgb(255, 0, 0)" stroke-width="0.1pt" /><polygon fill="none" points="744.5157249975816,1117.348856725239 742.8360240770949,1115.9380670122605 737.0727760403456,1117.2140783373438 734.8215595336435,1119.2637852529476 741.290243473584,1134.261288930639 744.5157249975816,1133.5964463685837 744.5157249975816,1117.348856725239" stroke="rgb(255, 0, 0)" stroke-width="0.1pt" /><polygon fill="none" points="752.5052293487693,1090.6668303112135 754.1849302692559,1092.0776200241921 754.1849302692559,1089.7918680229088 753.8030138041971,1089.7246079238919 752.5052293487693,1090.6668303112135" stroke="rgb(255, 0, 0)" stroke-width="0.1pt" /><polygon fill="none" points="753.2884631236578,869.034491027642 750.7196387144916,871.5082903886087 753.2884631236578,873.25166328527 753.2884631236578,869.034491027642" stroke="rgb(255, 0, 0)" stroke-width="0.1pt" /><polygon fill="none" points="622.5453438869722,1184.0845381946167 611.9471114246539,1180.3751533263587 607.3448249042767,1184.0845381946167 622.5453438869722,1184.0845381946167" stroke="rgb(255, 0, 0)" stroke-width="0.1pt" /><polygon fill="none" points="599.5995328047522,1138.4957393661189 604.2018193251295,1134.7863544978609 614.4481640881202,1121.709564618778 615.291328548033,1117.5314570703163 609.865399229426,1110.071209440247 594.0418974512701,1115.7207103777578 596.8306981323603,1136.1687774538284 598.216047839273,1138.4957393661189 599.5995328047522,1138.4957393661189" stroke="rgb(255, 0, 0)" stroke-width="0.1pt" /><polygon fill="none" points="549.5107836338425,1138.8289699206998 559.7309894236893,1145.2037450741636 556.9421887425989,1124.755677998093 553.429031458125,1124.2854761994406 549.5107836338425,1138.8289699206998" stroke="rgb(255, 0, 0)" stroke-width="0.1pt" /><polygon fill="none" points="61.729769229545646,686.7459205503246 53.96601257993645,683.258648753653 51.04669157258019,684.3337722268384 51.04669157258019,691.1289932745286 58.97581998911585,693.7053213084267 61.729769229545646,686.7459205503246" stroke="rgb(255, 0, 0)" stroke-width="0.1pt" /><polygon fill="none" points="65.8121084244193,1024.2304635651135 55.2096027837465,1023.9051091882146 55.2096027837465,1034.1194452851842 59.59757946631411,1036.5966689740444 65.06461052133199,1035.5078861912882 69.13947212001655,1027.059335741283 65.8121084244193,1024.2304635651135" stroke="rgb(255, 0, 0)" stroke-width="0.1pt" /><polygon fill="none" points="224.6291908616905,897.9008204118994 230.3140028270869,906.3793548395481 237.63032280646516,893.0804006074428 237.65526455640767,892.7825521313476 233.45571820978793,885.1967957860604 231.35492877274274,885.9212938182555 224.6291908616905,897.9008204118994" stroke="rgb(255, 0, 0)" stroke-width="0.1pt" /><polygon fill="none" points="251.9568191927729,921.8789340514955 252.30953625768967,923.229799748445 266.07584105189557,917.2484739488427 265.9679462826591,911.2743916279551 259.27313917215116,908.5799798193902 251.9568191927729,921.8789340514955" stroke="rgb(255, 0, 0)" stroke-width="0.1pt" /><polygon fill="none" points="108.24154126075982,534.3594462281503 101.74481559180931,534.1836978213419 102.9916002989056,541.0183560352738 103.41900647672779,541.070080279013 108.3326012853928,534.5707661665851 108.24154126075982,534.3594462281503" stroke="rgb(255, 0, 0)" stroke-width="0.1pt" /><polygon fill="none" points="103.20512000010739,513.6186649571214 101.60472955747034,505.21338992756205 93.57479869830564,505.4443465347124 91.83230908686906,510.5321838790771 96.70839433115685,513.4429165503129 103.20512000010739,513.6186649571214" stroke="rgb(255, 0, 0)" stroke-width="0.1pt" /><polygon fill="none" points="73.42284315697069,537.904060595152 76.86448820793726,541.9547577405864 83.41289950639766,541.8215193510207 82.16611479930137,534.9868611370888 77.29002955501358,532.0761284658529 73.42284315697069,537.904060595152" stroke="rgb(255, 0, 0)" stroke-width="0.1pt" /><polygon fill="none" points="49.02466474607098,508.5989401671889 54.012229475453594,508.8481890610872 57.879415873496484,503.02025693178814 59.62190548493307,497.93241958742345 52.25580653039244,489.448186070432 49.02466474607098,490.0001783340125 49.02466474607098,508.5989401671889" stroke="rgb(255, 0, 0)" stroke-width="0.1pt" /><polygon fill="none" points="93.84992189865802,582.7953166854464 95.92489914127405,573.2926762836573 93.35024104001087,570.1638802191018 92.92283486218868,570.1121559753625 86.37442356372829,570.2453943649281 85.82560511608597,574.5776355807554 93.84992189865802,582.7953166854464" stroke="rgb(255, 0, 0)" stroke-width="0.1pt" /><polygon fill="none" points="120.88223646982244,545.6482856559783 118.35305465253887,544.6021728294061 113.43945984387383,551.1014869418339 116.01411794513702,554.2302830063894 119.41368325752245,554.151793021728 120.88223646982244,545.6482856559783" stroke="rgb(255, 0, 0)" stroke-width="0.1pt" /><polygon fill="none" points="151.98040600957984,552.1003575999487 151.19546435576763,549.062827087348 142.52727388974998,547.4879193843362 141.05872067745,555.991426750086 146.72857476605017,557.3732500602275 151.98040600957984,552.1003575999487" stroke="rgb(255, 0, 0)" stroke-width="0.1pt" /><polygon fill="none" points="522.3699919210446,920.1800022752179 544.6450367857917,917.8304898083778 545.7653949677651,911.3762350792722 534.5747967262507,907.4162692901609 522.3443236344418,910.0898947770485 522.1376389862068,919.754851369907 522.3699919210446,920.1800022752179" stroke="rgb(255, 0, 0)" stroke-width="0.1pt" /><polygon fill="none" points="606.1390840371879,915.810495888188 605.0187258552144,922.2647506172937 609.0537482104982,930.7848745914272 620.4267680727095,927.1946897505871 615.5904991857668,906.8879190309348 612.6113110654293,907.1715451523872 606.1390840371879,915.810495888188" stroke="rgb(255, 0, 0)" stroke-width="0.1pt" /><polygon fill="none" points="558.8380557344668,661.3997801972222 567.9762366373154,685.0436131961517 572.7427541713987,686.4680233997918 583.9889248018881,683.0383988595985 584.5550570501825,664.3739955748902 584.0893836367906,663.6911259313287 571.7698170200844,653.0562666471136 570.7577197647341,653.4467135157954 558.8380557344668,661.3997801972222" stroke="rgb(255, 0, 0)" stroke-width="0.1pt" /><polygon fill="none" points="563.455633552473,838.6071791243203 555.6807403047605,840.1192662384416 557.2570427438917,850.7002011015707 569.4407545992353,845.6884718126456 563.455633552473,838.6071791243203" stroke="rgb(255, 0, 0)" stroke-width="0.1pt" /><polygon fill="none" points="519.2535352175561,856.6818029142654 518.5759527655375,856.6421254001233 507.76638139900643,862.8558051034814 504.7178102512696,867.0050112766455 507.4603307378601,873.6447025536678 519.6908038296691,870.9710770667803 520.8298376566873,867.2627377773945 519.2535352175561,856.6818029142654" stroke="rgb(255, 0, 0)" stroke-width="0.1pt" /><polygon fill="none" points="581.4541980142724,870.4378773780112 569.2704861589286,875.4496066669361 568.1314523319104,879.157945956322 579.3220505734248,883.1179117454333 585.7942776016664,874.4789610096325 581.4541980142724,870.4378773780112" stroke="rgb(255, 0, 0)" stroke-width="0.1pt" /><polygon fill="none" points="549.2693022902355,788.3283714491671 549.7472528827116,786.6244541509342 549.7774177758615,768.4914750652609 545.0109002417782,767.0670648616208 534.6671355133827,771.6376846035723 531.9844322488533,773.3000229372232 540.8168265905043,789.8007810491463 541.494409042523,789.8404585632885 549.2693022902355,788.3283714491671" stroke="rgb(255, 0, 0)" stroke-width="0.1pt" /><polygon fill="none" points="610.6686500545294,827.5594701525608 616.6537711012918,834.6407628408862 620.9938506886858,838.6818464725075 623.9730388090233,838.398220351055 635.2000114248841,834.341868590284 635.653923663939,832.1315545987218 627.247898722191,819.9140055456166 611.1466006470055,825.8555528543278 610.6686500545294,827.5594701525608" stroke="rgb(255, 0, 0)" stroke-width="0.1pt" /><polygon fill="none" points="492.0848171982416,510.3751736202698 493.06209119367605,512.4130744045544 495.2534442534856,513.0139735340101 505.0936382275893,510.77791960899765 504.3404437914084,501.0942744032249 500.85461051098,501.0527835441391 492.3070306856455,506.377257249972 492.0848171982416,510.3751736202698" stroke="rgb(255, 0, 0)" stroke-width="0.1pt" /><polygon fill="none" points="732.7010167900329,352.61940833410387 733.0318623692829,353.37540445493005 743.518698331043,351.58754910220955 743.518698331043,344.44526702112154 742.9497376839194,344.1077925326395 742.7030148528831,344.145080306822 732.7010167900329,352.61940833410387" stroke="rgb(255, 0, 0)" stroke-width="0.1pt" /><polygon fill="none" points="684.8079756436938,386.58293067913837 683.5925836980512,385.6292700119707 668.6550055223967,390.3758127804728 668.2658672194474,405.3748317461027 687.2124803709667,393.83244010025214 685.1388212229438,387.3389267999645 684.8079756436938,386.58293067913837" stroke="rgb(255, 0, 0)" stroke-width="0.1pt" /><polygon fill="none" points="733.0383619724213,283.43886654345187 727.9831797950685,284.2619775231054 723.0951303496005,292.3058524426534 732.1964135512081,291.04550963268696 733.9098727270357,284.6493153986941 733.0383619724213,283.43886654345187" stroke="rgb(255, 0, 0)" stroke-width="0.1pt" /><polygon fill="none" points="695.6234405455548,286.4771056297174 700.5114899910228,278.43323071016937 688.385300377303,270.2767225994769 689.3561388419004,288.56541574734143 691.3780226386324,289.94434521283875 695.6234405455548,286.4771056297174" stroke="rgb(255, 0, 0)" stroke-width="0.1pt" /><polygon fill="none" points="715.392959431228,322.0339984285674 711.1475415243058,325.5012380116887 715.9202436025255,334.6287175091411 717.1356355481681,335.5823781763087 727.1376336110184,327.1080501490268 724.4942426328356,320.7736556186009 715.392959431228,322.0339984285674" stroke="rgb(255, 0, 0)" stroke-width="0.1pt" /><polygon fill="none" points="751.8656457421598,293.81125091508727 750.1200304616448,293.08955069193337 748.4065712858173,299.48574492592616 751.0499622639999,305.820139456352 751.2966850950361,305.7828516821697 751.8656457421598,305.2361395787427 751.8656457421598,293.81125091508727" stroke="rgb(255, 0, 0)" stroke-width="0.1pt" /><polygon fill="none" points="613.5876394464037,279.96602993479286 615.1387986350136,269.53934258739935 604.6697676483839,268.5656101053935 613.5876394464037,279.96602993479286" stroke="rgb(255, 0, 0)" stroke-width="0.1pt" /><polygon fill="none" points="596.5071869038774,283.93970013133713 587.5893151058576,272.53928030193777 582.480816117703,271.49194738981254 580.3494854122696,273.8079507272925 596.3148578288439,286.9323270984158 596.5071869038774,283.93970013133713" stroke="rgb(255, 0, 0)" stroke-width="0.1pt" /><polygon fill="none" points="266.58529587859505,62.9183421367385 271.1984698413407,52.429244698520165 264.7061513747019,52.429244698520165 259.63824578342394,54.03413200257446 256.31205555571785,62.17697057700823 266.58529587859505,62.9183421367385" stroke="rgb(255, 0, 0)" stroke-width="0.1pt" /><polygon fill="none" points="197.58811718606066,49.40788480815368 199.5987069436456,57.30980264507571 213.25442246903174,59.295218042076485 213.46577397108265,59.155610686641744 216.7919641987887,51.012772112207976 216.6798542465038,49.40788480815368 197.58811718606066,49.40788480815368" stroke="rgb(255, 0, 0)" stroke-width="0.1pt" /><polygon fill="none" points="310.93469140967505,66.07314292076327 323.7405847525249,57.70107029723759 322.7365844580229,55.61160910254261 316.62461710558176,53.55597636941251 308.76842253209134,53.55597636941251 304.1552485693456,64.04507380763086 310.93469140967505,66.07314292076327" stroke="rgb(255, 0, 0)" stroke-width="0.1pt" /><polygon fill="none" points="46.24447160913309,56.1175974485324 46.587497893029834,56.31909822048281 54.98924305319037,48.25584889075682 53.544061809516194,46.909748531770994 49.851420626421984,46.909748531770994 46.24447160913309,47.71929366045364 46.24447160913309,56.1175974485324" stroke="rgb(255, 0, 0)" stroke-width="0.1pt" /><polygon fill="none" points="693.0395798983537,51.7248400626217 691.139940485938,51.96666066564193 681.0434081597436,59.53298274521197 681.4184119626836,60.24802283483407 685.3089586540608,62.335596060509296 697.1782414451682,55.37134980485826 696.2553587743139,51.7248400626217 693.0395798983537,51.7248400626217" stroke="rgb(255, 0, 0)" stroke-width="0.1pt" /><polygon fill="none" points="728.1245962911835,83.64087610101926 719.800830161571,76.08575931826991 707.9315473704635,83.05000557392094 720.2992407616329,91.39607041252071 728.1245962911835,87.56681723658016 728.1245962911835,83.64087610101926" stroke="rgb(255, 0, 0)" stroke-width="0.1pt" /><polygon fill="none" points="529.98445301535,95.603489193843 530.3755636698769,94.92652880072882 530.7761982375135,83.41971940490266 526.7469068129393,78.6162271936785 507.49974969382004,85.34258199068357 508.502494260111,91.81841502709004 529.98445301535,95.603489193843" stroke="rgb(255, 0, 0)" stroke-width="0.1pt" /><polygon fill="none" points="394.05881278233846,986.0750228688412 405.8616824864819,993.063847584473 407.67117481149086,991.7875118319184 406.31153004074736,971.4216287886726 403.40594237595457,970.5347161213795 394.5074251445654,979.3779522057532 393.74096890517666,983.597116954831 394.05881278233846,986.0750228688412" stroke="rgb(255, 0, 0)" stroke-width="0.1pt" /><polygon fill="none" points="130.42826740653473,1151.6822263387096 129.7302881031399,1150.6412246237703 107.93640251780428,1152.75409368443 107.37626678991077,1153.2376426748424 112.5056871877534,1164.7828042334907 122.30111573658593,1164.7828042334907 126.22491101780702,1161.7033785122835 130.42826740653473,1151.6822263387096" stroke="rgb(255, 0, 0)" stroke-width="0.1pt" /><polygon fill="none" points="128.3896671207006,1115.5737750052322 119.85053036476123,1106.99491519609 114.47499037236247,1107.0943374680944 107.16211335217884,1119.7523090274958 128.95599893751447,1117.639439966836 128.3896671207006,1115.5737750052322" stroke="rgb(255, 0, 0)" stroke-width="0.1pt" /><polygon fill="none" points="366.31750555028043,1044.8227962319402 372.2760361770643,1054.2930984738373 386.74491192952763,1048.5916846818668 386.89362006910625,1039.9364405468064 375.09075036496284,1032.9476158311745 370.4065542463514,1036.062966273032 366.31750555028043,1044.8227962319402" stroke="rgb(255, 0, 0)" stroke-width="0.1pt" /><polygon fill="none" points="311.10418293526993,989.6942433005804 330.25094447561094,994.208219648389 334.9351405942224,991.0928692065314 334.61729671706064,988.6149632925213 320.61137940897606,982.122866436036 311.10418293526993,989.6942433005804" stroke="rgb(255, 0, 0)" stroke-width="0.1pt" /><polygon fill="none" points="514.8938597912389,447.0075621813165 513.3241763348734,450.6185800275204 517.0576865331068,459.8359966603656 520.5435198135352,459.8774875194514 527.9577982085618,456.60574703523787 524.097290828533,447.2798166772684 514.8938597912389,447.0075621813165" stroke="rgb(255, 0, 0)" stroke-width="0.1pt" /><polygon fill="none" points="468.54995132091483,328.88471078946793 461.7168189892193,328.88236359199874 457.6963538048032,337.23910537561187 459.54118995301405,343.4302877468086 470.54168579517756,346.70755676221324 481.75737184184254,337.85275589528027 481.8751909165002,336.64276747445484 481.6303127860374,335.76647470404555 468.54995132091483,328.88471078946793" stroke="rgb(255, 0, 0)" stroke-width="0.1pt" /><polygon fill="none" points="517.6789667887882,376.9502380675772 506.46328074212323,385.80503893451015 506.3901817825985,391.15655122693875 511.51493108861865,398.1785690199539 520.7183621259128,398.45082351590577 525.7457473302844,387.5888114095493 517.6789667887882,376.9502380675772" stroke="rgb(255, 0, 0)" stroke-width="0.1pt" /><polygon fill="none" points="553.8302929585026,309.9295368300994 577.105883649838,305.82814466113416 577.0037361490027,305.471806202245 561.0383637324284,292.3474298311217 557.6982289147995,294.2072497322743 553.5854148280398,309.05324405969 553.8302929585026,309.9295368300994" stroke="rgb(255, 0, 0)" stroke-width="0.1pt" /><polygon fill="none" points="495.0670348739712,286.04992258681085 508.14739633909363,292.93168650138836 512.2602104258534,278.0856921739727 499.9017109052334,268.7719130489824 498.8010951853181,268.7644074238356 495.0670348739712,286.04992258681085" stroke="rgb(255, 0, 0)" stroke-width="0.1pt" /><polygon fill="none" points="406.8999023065206,299.2592683937729 403.2292072563602,293.6762355171942 390.2968052350419,289.5522884906491 385.3791677895082,293.872699820321 391.7909349621135,305.071500943311 402.8794371221043,307.616010177386 406.8999023065206,299.2592683937729" stroke="rgb(255, 0, 0)" stroke-width="0.1pt" /><polygon fill="none" points="459.81053114549286,275.03500503711996 463.54459145683984,257.74948987414484 459.09215960449876,256.12904749094696 449.306703763637,269.4496249630721 452.9773988137974,275.03265783965077 459.81053114549286,275.03500503711996" stroke="rgb(255, 0, 0)" stroke-width="0.1pt" /><polygon fill="none" points="607.8888988083265,358.1212136630277 594.5885672446168,371.2365930238084 598.6605800778738,373.43151513592534 610.3106138025214,367.2349255354354 607.8888988083265,358.1212136630277" stroke="rgb(255, 0, 0)" stroke-width="0.1pt" /><polygon fill="none" points="623.8813953388573,398.4770579337394 612.2313616142096,404.6736475342293 622.765060743624,418.9676545595689 624.8652699191965,418.011678588645 626.3078032627552,415.7636802941107 626.6969415657046,400.7646613284808 623.8813953388573,398.4770579337394" stroke="rgb(255, 0, 0)" stroke-width="0.1pt" /><polygon fill="none" points="575.7705741803506,425.8264842827417 573.5492751569022,425.3806402731951 568.5218899525306,436.2426523795516 572.3823973325593,445.56858273752107 584.1905054723015,450.9186233641002 590.3762861430221,442.31541342019824 579.8425870136078,428.0214063948586 575.7705741803506,425.8264842827417" stroke="rgb(255, 0, 0)" stroke-width="0.1pt" /><polygon fill="none" points="584.0796288691638,342.7942081803353 584.3260514531969,339.92054055722554 583.8846275065025,339.51378959980667 560.6090368151671,343.61518176877183 560.4912177405095,344.82517018959726 568.5579982820057,355.4637435315694 570.7792973054542,355.90958754111597 584.0796288691638,342.7942081803353" stroke="rgb(255, 0, 0)" stroke-width="0.1pt" /><polygon fill="none" points="650.675194776474,340.79653571828777 653.0969097706688,349.9102475906954 655.9124559975162,352.19785098543684 670.8500341731707,347.4513082169347 666.0773320949507,338.3238287194823 664.0554482982186,336.944899253985 650.9216173605068,337.92286809517793 650.675194776474,340.79653571828777" stroke="rgb(255, 0, 0)" stroke-width="0.1pt" /><polygon fill="none" points="641.3628573199171,542.1415724900667 639.6258930330573,536.0643167568098 623.3503481029413,529.9340698356697 619.1385616546102,542.8988685132813 619.0865574462824,544.0925033541472 638.66421408925,546.7559528166515 641.3628573199171,542.1415724900667" stroke="rgb(255, 0, 0)" stroke-width="0.1pt" /><polygon fill="none" points="657.1469576437203,495.2357635869751 662.4297241923485,485.6944647650587 646.809700738326,478.8563782442693 644.7094915627534,479.81235421519324 638.523710892033,488.4155641590952 638.6578046106392,490.88556035698645 654.9333495407552,497.01580727812654 657.1469576437203,495.2357635869751" stroke="rgb(255, 0, 0)" stroke-width="0.1pt" /><polygon fill="none" points="700.5418951960193,566.6278294134656 689.4731062295654,566.5974948696411 686.7744629988981,571.211875196226 688.2232258607715,574.5697745312048 695.1582391789627,579.1048202020794 700.5418951960193,566.6278294134656" stroke="rgb(255, 0, 0)" stroke-width="0.1pt" /><polygon fill="none" points="744.6629653321816,523.2201314686334 739.4190745659042,519.0438554471434 736.7860270027819,529.6981382806317 736.9861060941647,533.8347384048958 744.6629653321816,536.9225310642059 744.6629653321816,523.2201314686334" stroke="rgb(255, 0, 0)" stroke-width="0.1pt" /><polygon fill="none" points="713.3548415467824,510.6568049491371 715.9878891099046,500.00252211564884 715.174084612474,496.96816723783684 708.0494800213893,497.4914938816415 702.766713472761,507.0327927035579 713.3548415467824,510.6568049491371" stroke="rgb(255, 0, 0)" stroke-width="0.1pt" /><polygon fill="none" points="748.9796361964228,466.8850818917997 742.9219409327147,475.87000162271056 743.7357454301454,478.90435650052245 748.9796361964228,483.08063252201254 748.9796361964228,466.8850818917997" stroke="rgb(255, 0, 0)" stroke-width="0.1pt" /><polygon fill="none" points="730.1121016903684,576.2637481571842 729.9160396753131,576.3907697555736 724.5323836582564,588.8677605441875 725.0599941056083,590.0727654048852 737.6576673307247,590.2018764262332 737.7889609283852,589.509782349965 737.7889609283852,579.3515408164942 730.1121016903684,576.2637481571842" stroke="rgb(255, 0, 0)" stroke-width="0.1pt" /><polygon fill="none" points="702.4867175981913,536.4457743199249 691.8985895241701,532.8217620743458 689.684981421205,534.6018057654971 691.4219457080648,540.679061498754 702.4907346745189,540.7093960425785 702.6867966895742,540.5823744441891 702.4867175981913,536.4457743199249" stroke="rgb(255, 0, 0)" stroke-width="0.1pt" /><polygon fill="none" points="722.3780646747132,823.8946874329524 720.2854311013426,824.7481040872124 708.8898132716174,837.8577883424753 708.4359010325625,840.0681023340376 716.3301281356587,848.9009760682734 726.0236702563302,845.630100627453 728.5924946654966,843.1563012664866 728.5924946654966,830.934195505387 724.688302611143,825.6350649005019 722.3780646747132,823.8946874329524" stroke="rgb(255, 0, 0)" stroke-width="0.1pt" /><polygon fill="none" points="751.8789083870713,794.8728563090983 747.9747163327177,794.7207405854351 751.8789083870713,800.0198711903201 751.8789083870713,794.8728563090983" stroke="rgb(255, 0, 0)" stroke-width="0.1pt" /><polygon fill="none" points="552.1046718121665,1007.9318005917191 550.8084992883404,1003.3154973514705 526.9771161105409,1001.7912602383296 525.8680010864454,1004.6108663102988 532.5298498803822,1017.1127692460304 552.1046718121665,1007.9318005917191" stroke="rgb(255, 0, 0)" stroke-width="0.1pt" /><polygon fill="none" points="578.2498631410642,1043.8224717905523 558.6750412092798,1053.0034404448636 559.360214914642,1060.9512109358323 566.6716252478182,1063.7397937103058 570.1847825322919,1064.2099955089582 586.0082843104481,1058.5604945714474 586.2004457031105,1055.104541650735 578.2498631410642,1043.8224717905523" stroke="rgb(255, 0, 0)" stroke-width="0.1pt" /><polygon fill="none" points="473.2750488040906,1038.704007090486 458.6455606793634,1045.4927524015006 456.83606835435455,1046.7690881540552 456.687360214776,1055.4243322891155 460.6520822187117,1061.135310823965 470.9294500420777,1065.7365766678708 480.6220713033896,1059.1536805171863 479.93689759802743,1051.2059100262177 473.2750488040906,1038.704007090486" stroke="rgb(255, 0, 0)" stroke-width="0.1pt" /><polygon fill="none" points="462.4536227907289,978.2428461424023 463.56273781482446,975.4232400704332 462.64641656748427,965.1740617153675 462.4140636326464,964.7489108100565 446.4644898952583,964.6657084101711 447.8241346660018,985.031591453417 462.4536227907289,978.2428461424023" stroke="rgb(255, 0, 0)" stroke-width="0.1pt" /><polygon fill="none" points="555.2830556709603,967.3670354615642 556.8454184658515,961.7642315006511 552.8103961105677,953.2441075265176 530.5353512458206,955.5936199933577 531.4516724931608,965.8427983484233 555.2830556709603,967.3670354615642" stroke="rgb(255, 0, 0)" stroke-width="0.1pt" /><polygon fill="none" points="473.3328853682593,1175.885561969161 473.7498447112373,1171.4027536044296 472.38506603724676,1167.4903077278138 470.71122852647534,1165.8008801987273 459.8268772602357,1172.6899605867782 460.91648068560687,1175.885561969161 473.3328853682593,1175.885561969161" stroke="rgb(255, 0, 0)" stroke-width="0.1pt" /><polygon fill="none" points="505.95104810029886,1126.9962795362173 516.8199470240025,1126.6897967118105 520.738194848285,1112.1463029905512 513.4267845151089,1109.3577202160777 503.73416325379713,1115.940616366762 504.2772105895274,1125.3068520071308 505.95104810029886,1126.9962795362173" stroke="rgb(255, 0, 0)" stroke-width="0.1pt" /><polygon fill="none" points="521.9787759318708,1170.2536861997246 530.7891373803702,1174.736494564456 543.0884516783432,1174.736494564456 541.7031019714307,1172.4095326521654 531.4828961815839,1166.0347574987015 520.6139972578802,1166.3412403231084 521.9787759318708,1170.2536861997246" stroke="rgb(255, 0, 0)" stroke-width="0.1pt" /><polygon fill="none" points="510.3904242444514,1183.2681467261168 501.5800627959519,1178.7853383613854 501.1631034529739,1183.2681467261168 510.3904242444514,1183.2681467261168" stroke="rgb(255, 0, 0)" stroke-width="0.1pt" /><polygon fill="none" points="695.0424521945566,1022.2289033164556 682.9207711895658,1013.1814436408375 674.1799911879575,1026.7597783260717 694.2944537592847,1023.4039886817031 695.0424521945566,1022.2289033164556" stroke="rgb(255, 0, 0)" stroke-width="0.1pt" /><polygon fill="none" points="693.1111140007281,1060.035029906124 672.9966514294009,1063.3908195504928 670.1268926285533,1065.8269338212208 669.9347312358905,1069.2828867419335 675.3606605544974,1076.7431343720025 690.6686520976972,1077.5996117958655 692.9198686043994,1075.5499048802617 693.1111140007281,1060.035029906124" stroke="rgb(255, 0, 0)" stroke-width="0.1pt" /><polygon fill="none" points="710.7074890434718,945.408582413033 728.3374111070415,949.6414146042771 728.3374111070415,939.0390687275558 716.1163249349775,927.5179207050135 709.794771551554,943.6007923759614 710.7074890434718,945.408582413033" stroke="rgb(255, 0, 0)" stroke-width="0.1pt" /><polygon fill="none" points="744.6920925431226,1043.8029962536298 738.1883874174873,1048.1118355835124 737.4403889822154,1049.2869209487599 737.2491435858867,1064.8017959228976 743.012391622636,1063.5257845978142 744.3101760780639,1062.5835622104928 744.6920925431226,1062.100748058859 744.6920925431226,1043.8029962536298" stroke="rgb(255, 0, 0)" stroke-width="0.1pt" /><polygon fill="none" points="710.4698930792288,984.6780625878497 709.4744290121724,991.040961830512 721.5961100171631,1000.08842150613 728.0998151427985,995.7795821762472 728.0998151427985,988.9108947790938 710.4698930792288,984.6780625878497" stroke="rgb(255, 0, 0)" stroke-width="0.1pt" /><polygon fill="none" points="742.4454190790017,893.2514595504093 739.8765946698354,891.508086653748 730.1830525491637,894.7789620945682 730.2243329069374,895.132562836296 742.4454190790017,906.6537108588383 742.4454190790017,893.2514595504093" stroke="rgb(255, 0, 0)" stroke-width="0.1pt" /><polygon fill="none" points="667.8081822197626,913.2528698384257 674.1297356031861,897.1699981674778 674.0884552454122,896.81639742575 666.194228142316,887.9835236915142 654.9672555264553,892.0398754522852 659.803524413398,912.3466461719374 667.8081822197626,913.2528698384257" stroke="rgb(255, 0, 0)" stroke-width="0.1pt" /><polygon fill="none" points="647.3161923487535,985.9778670934355 646.4034748568357,984.1700770563639 638.3988170504709,983.2638533898756 627.0257971882596,986.8540382307158 625.4634343933685,992.456842191629 626.7596069171947,997.0731454318775 634.7101894792411,1008.3552152920602 637.5799482800888,1005.9191010213319 646.320728281697,992.3407663360978 647.3161923487535,985.9778670934355" stroke="rgb(255, 0, 0)" stroke-width="0.1pt" /><polygon fill="none" points="43.70925195683478,771.5221527227334 47.396503485991616,774.6321053338198 49.95870846445298,768.7033209418667 43.70925195683478,759.5980493229386 43.70925195683478,771.5221527227334" stroke="rgb(255, 0, 0)" stroke-width="0.1pt" /><polygon fill="none" points="64.51528885946219,730.0361017168734 61.14629339245034,727.0507186661044 53.21716497591468,724.4743906322062 53.21716497591468,732.3819855704661 59.46662148353289,741.4872571893942 62.23231237244234,738.4109355471148 64.01967051712387,734.6159310180051 64.51528885946219,730.0361017168734" stroke="rgb(255, 0, 0)" stroke-width="0.1pt" /><polygon fill="none" points="92.76979386370512,702.0891451881342 90.6240244508952,690.9832352177023 86.71411904474516,694.6155235978879 83.96016980431536,701.57492435599 87.32916527132721,704.560307406759 92.76979386370512,702.0891451881342" stroke="rgb(255, 0, 0)" stroke-width="0.1pt" /><polygon fill="none" points="286.31584390938406,743.8422017564376 309.9347333576338,736.6532015446712 309.99362296010827,733.2119124759677 294.7738249537729,730.0752486533884 286.31584390938406,743.8422017564376" stroke="rgb(255, 0, 0)" stroke-width="0.1pt" /><polygon fill="none" points="421.940272577957,829.1990107760746 412.0101942464098,849.4690596973749 414.40813940469735,850.972631710701 435.93774643343545,849.7052864578014 421.940272577957,829.1990107760746" stroke="rgb(255, 0, 0)" stroke-width="0.1pt" /><polygon fill="none" points="372.9042209436799,904.6347326266757 367.3097696107616,904.8178182028689 362.918754500888,916.014932036339 371.6933746362878,929.0762535348383 380.591891867677,920.2330174504646 375.3021661019674,906.1383046400018 372.9042209436799,904.6347326266757" stroke="rgb(255, 0, 0)" stroke-width="0.1pt" /><polygon fill="none" points="450.7141022039585,895.9541002309124 429.1844951752204,897.2214454838119 434.4742209409299,911.3161582942746 437.3798086057227,912.2030709615677 453.32938234311075,912.2862733614531 453.5360669913459,902.6213167685945 450.79354650475534,895.9816254915723 450.7141022039585,895.9541002309124" stroke="rgb(255, 0, 0)" stroke-width="0.1pt" /><polygon fill="none" points="449.760288915703,800.4173581367154 463.75776277118155,820.9236338184422 463.8372070719784,820.9511590791021 466.8857782197151,816.801952905938 463.4201424633515,794.8064519423294 459.2631721796643,793.9004682931778 456.96557761264677,794.1641236683695 449.7696539112628,800.243016569169 449.760288915703,800.4173581367154" stroke="rgb(255, 0, 0)" stroke-width="0.1pt" /><polygon fill="none" points="102.894208289803,966.4925494726144 115.39340005252471,982.7831355546526 123.23382865559117,981.2215866882904 113.6517212606484,966.9090129806843 102.894208289803,966.4925494726144" stroke="rgb(255, 0, 0)" stroke-width="0.1pt" /><polygon fill="none" points="307.9121391177715,816.0996506219917 307.9782614667337,816.3607221301622 317.6179826398947,825.9370507806514 319.0665145299739,826.7997022475016 325.1412877639935,828.512761656595 326.9591193848294,807.3639961068731 307.9121391177715,816.0996506219917" stroke="rgb(255, 0, 0)" stroke-width="0.1pt" /><polygon fill="none" points="367.7867791279818,804.8124449406916 365.96894750714586,825.9612104904135 368.5817568472794,827.9498509557043 374.1762081801977,827.7667653795112 384.1062865117448,807.496716458211 384.1156515073047,807.3223748906645 369.5460233450983,802.1408271876846 367.7867791279818,804.8124449406916" stroke="rgb(255, 0, 0)" stroke-width="0.1pt" /><polygon fill="none" points="317.9698246565958,883.2681670680884 310.3807263156261,893.5402706667417 310.4886210848626,899.5143529876293 318.12164141312405,900.6866432513394 322.26639212087525,898.1669807759426 326.65740723074896,886.9698669424725 324.0445978906153,884.9812264771817 317.9698246565958,883.2681670680884" stroke="rgb(255, 0, 0)" stroke-width="0.1pt" /><polygon fill="none" points="293.7987794504802,869.8923661997458 280.98834763902425,878.0348609805894 280.96340588908174,878.3327094566845 287.6582129995897,881.0271212652493 295.2473113405594,870.7550176665959 293.7987794504802,869.8923661997458" stroke="rgb(255, 0, 0)" stroke-width="0.1pt" /><polygon fill="none" points="272.0287320923606,839.9070964590719 264.6584751074457,850.0401635451176 268.8580214540655,857.6259198904048 281.66845326552146,849.4834251095612 272.0287320923606,839.9070964590719" stroke="rgb(255, 0, 0)" stroke-width="0.1pt" /><polygon fill="none" points="294.4563724729885,781.322958298348 313.50335274004635,772.5873037832292 315.2625969571629,769.9156860302223 312.6720751346244,764.0560504196046 289.0531856863746,771.245050631371 288.0616705637095,772.0423387103841 294.4563724729885,781.322958298348" stroke="rgb(255, 0, 0)" stroke-width="0.1pt" /><polygon fill="none" points="184.2953191222,839.4391643334517 185.3741905848798,851.643054896848 193.63390449627443,844.2220348282859 186.7891056306793,834.5364296476563 184.2953191222,839.4391643334517" stroke="rgb(255, 0, 0)" stroke-width="0.1pt" /><polygon fill="none" points="217.50152956706103,810.0181515246131 224.34632843265615,819.7037567052428 229.13328213363135,821.7309844869823 231.2340715706765,821.0064864547871 238.6043285555913,810.8734193687416 238.53820620662907,810.612347860571 232.14350429735012,801.331728272607 227.5594709023595,799.9311834918632 217.50212744579193,810.0126436161873 217.50152956706103,810.0181515246131" stroke="rgb(255, 0, 0)" stroke-width="0.1pt" /><polygon fill="none" points="196.87374487342325,876.6457238030827 196.3777728831363,879.1031751588343 203.19467457474082,883.231458109904 209.92041248579307,871.2519315162601 205.13345878481783,869.2247037345206 196.87374487342325,876.6457238030827" stroke="rgb(255, 0, 0)" stroke-width="0.1pt" /><polygon fill="none" points="165.9079646321466,850.4748378280617 161.47511201569404,852.5322820013532 158.91560092381337,857.239252039992 165.31007514836872,865.3402562831525 166.49086410453938,865.1361797472099 166.98683609482634,862.6787283914582 165.9079646321466,850.4748378280617" stroke="rgb(255, 0, 0)" stroke-width="0.1pt" /><polygon fill="none" points="46.06410068244407,603.2081946165318 46.615348250311555,604.3470606366715 50.63506428085013,604.034012618354 53.02932256406706,594.6170959063409 52.209308752021755,594.7906579646325 46.06410068244407,598.8854012107632 46.06410068244407,603.2081946165318" stroke="rgb(255, 0, 0)" stroke-width="0.1pt" /><polygon fill="none" points="48.631816587465245,582.3179737313344 42.486608517887554,582.1920476881695 42.486608517887554,586.4127169774652 48.631816587465245,582.3179737313344" stroke="rgb(255, 0, 0)" stroke-width="0.1pt" /><polygon fill="none" points="36.58187243274901,618.2491801641144 37.133120000616486,617.517355930976 36.58187243274901,616.3784899108365 36.58187243274901,618.2491801641144" stroke="rgb(255, 0, 0)" stroke-width="0.1pt" /><polygon fill="none" points="54.904882930367805,563.3611918515455 55.82005238145169,562.3972744960258 56.368870829094014,558.0650332801986 52.92722577812743,554.0143361347642 47.93966104874481,553.7650872408659 47.93966104874481,563.4088278666721 54.0848691183225,563.5347539098371 54.904882930367805,563.3611918515455" stroke="rgb(255, 0, 0)" stroke-width="0.1pt" /><polygon fill="none" points="98.30391859064392,627.8493419482713 88.93320964861151,630.6758994100575 91.06820569051438,638.2870230263952 97.53079289190184,640.1962169585324 106.96015329945875,634.8691289391394 98.30391859064392,627.8493419482713" stroke="rgb(255, 0, 0)" stroke-width="0.1pt" /><polygon fill="none" points="81.32719585437542,664.3209619000672 74.86460865298795,662.41176796793 69.08473814276368,666.1242005887607 76.84849479237289,669.6114723854323 80.75840019852293,665.9791840052468 81.32719585437542,664.3209619000672" stroke="rgb(255, 0, 0)" stroke-width="0.1pt" /><polygon fill="none" points="53.923152971931835,636.636855097573 51.929921094660244,635.8452374243291 47.91020506412167,636.1582854426465 47.358957496254185,636.8901096757849 47.358957496254185,649.0355348079268 50.278278503610444,647.9604113347414 56.05814901383471,644.2479787139107 53.923152971931835,636.636855097573" stroke="rgb(255, 0, 0)" stroke-width="0.1pt" /><polygon fill="none" points="81.37647672931526,602.2859634972496 81.34628042688412,602.1577503229499 73.32196364431208,593.9400692182588 72.4067941932282,594.9039865737786 70.01253591001125,604.3209032857917 72.00576778728285,605.1125209590357 81.37647672931526,602.2859634972496" stroke="rgb(255, 0, 0)" stroke-width="0.1pt" /><polygon fill="none" points="139.65870140087486,669.6975787593726 130.22934099331792,675.0246667787655 129.66054533746546,676.6828888839453 131.80631475027536,687.7887988543771 145.35340450460959,687.9663208363226 150.51875307366913,685.1826343436609 150.3770697713557,679.3041868358227 147.54262356202403,674.148598582656 140.15579924963657,669.7551292637518 139.65870140087486,669.6975787593726" stroke="rgb(255, 0, 0)" stroke-width="0.1pt" /><polygon fill="none" points="121.0172663664916,600.1898776927957 129.67350107530643,607.2096646836637 130.17059892406817,607.2672151880428 132.1314667076621,591.862357442187 126.46161261906192,590.4805341320456 123.0620473066765,590.559024116707 120.98707006406045,600.0616645184961 121.0172663664916,600.1898776927957" stroke="rgb(255, 0, 0)" stroke-width="0.1pt" /><polygon fill="none" points="238.26855880336302,683.7083162648869 235.71442450881992,676.618818408195 232.45846542649625,674.4460447210992 227.8373310419207,675.4603755431059 216.4967644166957,680.3530614209823 216.63844771900912,686.2315089288203 217.89221956065825,687.6048093229017 238.26855880336302,683.7083162648869" stroke="rgb(255, 0, 0)" stroke-width="0.1pt" /><polygon fill="none" points="249.38194400045543,718.9800885600032 247.78691138448517,717.8570553510544 227.41057214178045,721.7535484090693 236.0848951721585,735.590458066641 240.66892856714907,736.9910028473848 241.66044368981414,736.1937147683718 250.11842473420296,722.4267616653226 249.38194400045543,718.9800885600032" stroke="rgb(255, 0, 0)" stroke-width="0.1pt" /><polygon fill="none" points="212.74854288023715,501.29026517674896 213.03299619377276,499.8823154225039 194.73389982985654,497.7614522499788 195.94422928127008,506.34184323600823 208.70725517615008,506.33828983382136 212.205617595122,502.26643622255466 212.74854288023715,501.29026517674896" stroke="rgb(255, 0, 0)" stroke-width="0.1pt" /><polygon fill="none" points="151.89629928723915,509.74745640816275 150.6859698358256,501.1670654221333 150.03979466623693,500.10411525265505 141.55201346818137,499.79646316975396 137.53764535026193,503.26095300558393 139.13803579289896,511.6662280351432 139.22909581753197,511.8775479735781 141.75827763481553,512.9236608001504 150.42646810083315,514.498568503162 151.89629928723915,509.74745640816275" stroke="rgb(255, 0, 0)" stroke-width="0.1pt" /><polygon fill="none" points="239.1794013265075,528.5330522528348 235.6810389075356,532.6049058641014 234.63425266917588,541.8625052208149 243.29211912282054,542.1327388505103 239.1794013265075,528.5330522528348" stroke="rgb(255, 0, 0)" stroke-width="0.1pt" /><polygon fill="none" points="198.64148367511652,592.1596936901004 197.3890955893788,585.7737840847591 189.06027563458355,582.9264126610249 189.74615333433027,603.5807856659985 198.64148367511652,592.1596936901004" stroke="rgb(255, 0, 0)" stroke-width="0.1pt" /><polygon fill="none" points="201.3479223924126,546.3349878669541 203.98605511112956,544.0529813692827 205.03284134948927,534.7953820125692 192.26981545460927,534.7989354147561 190.7999842682033,539.5500475097554 191.58492592201551,542.5875780223562 193.01910243761736,543.4876164432197 201.3479223924126,546.3349878669541" stroke="rgb(255, 0, 0)" stroke-width="0.1pt" /><polygon fill="none" points="166.49784906316899,614.9151853850814 165.81197136342226,594.2608123801076 164.3777948478204,593.3607739592442 159.12596360429077,598.6336664195228 157.16509582069682,614.0385241653787 164.55192013308425,618.4319934842828 166.49784906316899,614.9151853850814" stroke="rgb(255, 0, 0)" stroke-width="0.1pt" /><polygon fill="none" points="209.80054125236336,626.9305800116983 200.90521091157711,638.3516719875964 198.95928198149235,641.868480086798 201.79372819082408,647.0240683399647 213.13429481604908,642.1313824620884 214.82669254306788,628.660205157641 209.80054125236336,626.9305800116983" stroke="rgb(255, 0, 0)" stroke-width="0.1pt" /><polygon fill="none" points="482.6095278395481,714.838723124259 479.68552408521896,721.6528276372882 476.569153275207,735.3370868924258 480.72612355889413,736.2430705415774 486.1689363401378,735.5241336899047 488.85163960466724,733.8617953562539 482.6095278395481,714.838723124259" stroke="rgb(255, 0, 0)" stroke-width="0.1pt" /><polygon fill="none" points="748.2168867636915,204.3144166765973 746.9789522203034,203.90295531325705 741.0934281229163,214.9264367813937 746.9656728632368,218.11398345159472 748.2168867636915,217.49913621168088 748.2168867636915,204.3144166765973" stroke="rgb(255, 0, 0)" stroke-width="0.1pt" /><polygon fill="none" points="751.6003361877829,252.98442120676353 750.2344240531082,260.4769856637856 751.1059348077226,261.6874345190279 752.8515500882377,262.4091347421818 752.8515500882377,252.36957396684966 751.6003361877829,252.98442120676353" stroke="rgb(255, 0, 0)" stroke-width="0.1pt" /><polygon fill="none" points="708.6033187677499,197.8241980534197 719.3055069907614,199.62756072227901 725.1910310881485,188.60407925414233 716.4235362684616,181.98700711460367 716.0416612840974,182.33358939425727 708.6033187677499,197.8241980534197" stroke="rgb(255, 0, 0)" stroke-width="0.1pt" /><polygon fill="none" points="613.6167297616645,200.0455785200083 609.2559846125943,190.14770588278057 595.8755158072677,191.00571494818828 594.9567622614649,200.45164842676172 595.6993424860025,202.6455874043067 613.6167297616645,200.0455785200083" stroke="rgb(255, 0, 0)" stroke-width="0.1pt" /><polygon fill="none" points="623.1495067864928,233.12653826183853 619.4623976614117,230.10058134296068 601.5450103857497,232.70059022725908 599.4646893749115,239.51411017555117 604.573188363066,240.5614430876764 615.0422193496958,241.53517556968225 623.1495067864928,233.12653826183853" stroke="rgb(255, 0, 0)" stroke-width="0.1pt" /><polygon fill="none" points="702.529437269503,238.5314502255384 703.7593156613517,241.5922617432717 715.8855052750715,249.74876985396418 720.9406874524242,248.92565887431064 722.306599587099,241.43309441728857 716.4343548467784,238.24554774708753 705.7321666237667,236.44218507822825 702.529437269503,238.5314502255384" stroke="rgb(255, 0, 0)" stroke-width="0.1pt" /><polygon fill="none" points="655.4676432666297,265.8464409472659 653.8417334382744,265.5828734154327 645.7344460014775,273.9915107232764 644.1832868128678,284.4181980706699 643.9909577378343,287.4108250377486 644.0931052386696,287.76716349663775 644.5345291853639,288.17391445405656 657.6683601230757,287.19594561286374 656.6975216584783,268.9072524649992 655.4676432666297,265.8464409472659" stroke="rgb(255, 0, 0)" stroke-width="0.1pt" /><polygon fill="none" points="346.004087524952,338.9207045199104 351.2481340280127,324.57839755167123 344.8363668554074,313.37959642868117 334.7460857467056,314.9495658442719 336.87350374446123,326.8369957635222 346.004087524952,338.9207045199104" stroke="rgb(255, 0, 0)" stroke-width="0.1pt" /><polygon fill="none" points="381.33898491746754,372.5190428331382 382.06394964401426,377.75265570284984 386.4025781227837,380.1621554210592 399.51636972872996,366.91242747017077 397.6715335805191,360.72124509897407 386.58303142052824,358.17673586489906 381.33898491746754,372.5190428331382" stroke="rgb(255, 0, 0)" stroke-width="0.1pt" /><polygon fill="none" points="328.15899771244705,215.11650749239678 327.7608294173716,239.60508264813427 329.74210555766143,240.2441882788242 339.83238666636316,238.67421886323348 344.7500241118969,234.3538075335616 347.3349148365645,221.40689823014634 340.86928788988314,211.86383355026578 334.15446739961146,211.75061957149225 328.15899771244705,215.11650749239678" stroke="rgb(255, 0, 0)" stroke-width="0.1pt" /><polygon fill="none" points="334.81802046644805,113.34715465118845 340.08028989745065,124.53647766147242 346.7951103877223,124.64969164024595 352.09378511211594,116.5122611403169 353.2604699252327,100.81633525355129 347.4001235657701,97.22040473954256 334.59423022292026,105.59247736306827 334.81802046644805,113.34715465118845" stroke="rgb(255, 0, 0)" stroke-width="0.1pt" /><polygon fill="none" points="261.6810108936843,107.90863519607974 276.86165433306985,106.22743387572676 276.6378640895421,98.47275658760657 269.8584212492127,96.44468747447414 259.5851809263355,95.70331591474387 259.3738294242846,95.84292327017862 261.6810108936843,107.90863519607974" stroke="rgb(255, 0, 0)" stroke-width="0.1pt" /><polygon fill="none" points="72.03306359752621,99.67882027776454 71.89192184552778,100.689257536545 80.29056190879395,104.96892677503783 83.46124824420195,97.72968745419594 83.41112591925838,93.73733725745122 83.19884317950269,93.62679848202791 72.03306359752621,99.67882027776454" stroke="rgb(255, 0, 0)" stroke-width="0.1pt" /><polygon fill="none" points="96.65834542664183,121.54357258343204 101.33362577924278,127.25656836030696 103.70581904698896,123.4242461640071 99.82903176204985,114.30433326259015 96.65834542664183,121.54357258343204" stroke="rgb(255, 0, 0)" stroke-width="0.1pt" /><polygon fill="none" points="119.81116120881796,90.68311279971469 119.86128353376154,94.6754629964594 123.73807081870065,103.79537589787634 135.5893100300202,93.47642394266049 136.05802232797848,91.51241149327583 119.81116120881796,90.68311279971469" stroke="rgb(255, 0, 0)" stroke-width="0.1pt" /><polygon fill="none" points="121.44071452543949,51.462228036540424 119.79758209979008,53.32823062856277 122.99396635584694,60.84064656957778 123.20624909560263,60.95118534500109 139.45311021476314,61.78048403856225 141.61055461484372,59.36414587346246 139.5999648572588,51.462228036540424 121.44071452543949,51.462228036540424" stroke="rgb(255, 0, 0)" stroke-width="0.1pt" /><polygon fill="none" points="63.62938356015756,77.79993059803459 74.79516314213404,71.74790880229796 71.59877888607718,64.23549286128294 68.79786335875322,63.715590628246424 60.39611819859269,71.77883995797241 63.62938356015756,77.79993059803459" stroke="rgb(255, 0, 0)" stroke-width="0.1pt" /><polygon fill="none" points="62.64177119442749,154.07160517027316 61.311181549521486,156.029165261107 59.20662130096432,172.3969974792793 59.20662130096432,186.75746638713898 75.07006050430435,175.87873120909708 75.71569161029458,164.0642701856409 71.04041125769365,158.351274408766 62.64177119442749,154.07160517027316" stroke="rgb(255, 0, 0)" stroke-width="0.1pt" /><polygon fill="none" points="481.30494298381194,161.94793730864305 470.73489092925666,154.8968565011484 466.4571028230797,159.4002371145885 465.34223105095924,172.61397698334113 466.23113728185643,173.33410316098502 481.30494298381194,161.94793730864305" stroke="rgb(255, 0, 0)" stroke-width="0.1pt" /><polygon fill="none" points="416.04085266329446,165.2677445076064 398.3408652179932,162.15806844648148 393.04219049359955,170.29549894641053 399.507817440281,179.8385636262911 414.925980891174,178.48148437635905 416.04085266329446,165.2677445076064" stroke="rgb(255, 0, 0)" stroke-width="0.1pt" /><polygon fill="none" points="423.428514512656,228.7507695302341 422.53960828175883,228.03064335259023 407.1214448308658,229.38772260252227 404.5365541061982,242.3346319059375 417.4689561275165,246.45857893248265 427.25441196837824,233.13800146035751 423.428514512656,228.7507695302341" stroke="rgb(255, 0, 0)" stroke-width="0.1pt" /><polygon fill="none" points="434.2752656805287,108.33699678019218 434.6362088937276,102.89922423611088 433.6334643274366,96.42339119970441 426.0000464076169,90.90152848233421 413.46417494216735,94.03477544574174 412.2974901290505,109.73070133250735 429.99747757435176,112.84037739363227 434.2752656805287,108.33699678019218" stroke="rgb(255, 0, 0)" stroke-width="0.1pt" /><polygon fill="none" points="512.9644532407851,137.3403581996395 514.7702348306568,138.00561400235856 522.3176702731988,134.7854088739768 524.2373031546676,128.63657901481648 502.7553443994287,124.85150484806353 502.39440118622986,130.28927739214484 512.9644532407851,137.3403581996395" stroke="rgb(255, 0, 0)" stroke-width="0.1pt" /><polygon fill="none" points="520.429037180895,206.78511356336764 534.9342550846162,206.20195267464374 523.9574035798681,200.47181018449385 520.429037180895,206.78511356336764" stroke="rgb(255, 0, 0)" stroke-width="0.1pt" /><polygon fill="none" points="526.7192316188795,229.6374303718397 523.6557022171446,233.3975712100956 536.0142017377647,242.71135033508585 539.3543365553935,240.85153043393325 541.4856672608269,238.53552709645328 543.5659882716652,231.7220071481612 542.8234080471276,229.52806817061622 541.2244495226007,229.0542694831158 526.7192316188795,229.6374303718397" stroke="rgb(255, 0, 0)" stroke-width="0.1pt" /><polygon fill="none" points="538.9774081378079,181.17275125820402 549.9542596425558,186.9028937483539 551.5532181670828,187.3766924358543 552.4719717128855,177.93075895728086 547.4335900434905,171.289900358861 539.8861546009485,174.51010548724275 538.9774081378079,181.17275125820402" stroke="rgb(255, 0, 0)" stroke-width="0.1pt" /><polygon fill="none" points="491.7043589519493,200.8474891245101 495.2327253509224,194.53418574563628 496.14147181406315,187.87153997467502 494.33569022419135,187.20628417195596 479.26188452223585,198.59245002429793 483.087781977958,202.97968195442132 487.54021383029914,204.60012433761918 488.6408295502144,204.60762996276597 491.7043589519493,200.8474891245101" stroke="rgb(255, 0, 0)" stroke-width="0.1pt" /><polygon fill="none" points="151.49189536206413,1074.2581057371294 146.5254138653014,1083.7422525366733 155.06455062124078,1092.3211123458154 159.42112678280876,1083.6883523788554 151.49189536206413,1074.2581057371294" stroke="rgb(255, 0, 0)" stroke-width="0.1pt" /><polygon fill="none" points="152.48609279046727,971.2867735483218 162.72641308502128,969.0532720595286 148.66281192671693,947.7192876190917 142.79518747471636,956.9419421460235 152.37729486965912,971.2545158536295 152.48609279046727,971.2867735483218" stroke="rgb(255, 0, 0)" stroke-width="0.1pt" /><polygon fill="none" points="123.94979586602216,1044.2807627038799 125.82009645539361,1034.321432849619 125.71129853458544,1034.2891751549269 117.870869931519,1035.8507240212891 111.34346141974281,1037.9048095864991 107.26859982105823,1046.3533600365045 113.60777437686073,1053.864331775428 118.98331436925945,1053.7649095034235 123.94979586602216,1044.2807627038799" stroke="rgb(255, 0, 0)" stroke-width="0.1pt" /><polygon fill="none" points="749.0894081492168,753.220070913241 745.5701837754465,758.6342626387537 743.0120212829681,765.5885245614666 749.0894081492168,764.5747692824921 749.0894081492168,753.220070913241" stroke="rgb(255, 0, 0)" stroke-width="0.1pt" /><polygon fill="none" points="707.6006738966471,753.96628317241 710.1588363891257,747.0120212496972 695.5504662891625,736.9119193263202 688.3788557974585,740.9286316478922 705.3709971987419,755.099144034568 707.4636307721124,754.2457273803082 707.6006738966471,753.96628317241" stroke="rgb(255, 0, 0)" stroke-width="0.1pt" /><polygon fill="none" points="730.0534767832021,714.7204095940182 723.140112498395,703.2441132250417 719.7175059438358,702.5498020168596 711.9258823094689,711.0678358955194 726.5342524094319,721.1679378188963 730.0534767832021,715.7537460933836 730.0534767832021,714.7204095940182" stroke="rgb(255, 0, 0)" stroke-width="0.1pt" /><polygon fill="none" points="748.1253242331192,781.668035209292 742.0479373668705,782.6817904882665 741.9108942423358,782.9612346961645 744.2211321787656,784.7016121637141 748.1253242331192,784.8537278873773 748.1253242331192,781.668035209292" stroke="rgb(255, 0, 0)" stroke-width="0.1pt" /><polygon fill="none" points="748.7025599215924,676.6821603747837 741.7891956367852,682.6774922709657 748.7025599215924,694.1537886399421 748.7025599215924,676.6821603747837" stroke="rgb(255, 0, 0)" stroke-width="0.1pt" /><polygon fill="none" points="108.01384030069826,824.0531692904856 95.04334036741713,829.2202280476693 102.42443498619222,839.5538198814414 106.549882523464,837.5628175126366 111.08185269242549,832.0312634595239 108.01384030069826,824.0531692904856" stroke="rgb(255, 0, 0)" stroke-width="0.1pt" /><polygon fill="none" points="129.4303318918166,872.6270504031852 125.3048843545448,874.61805277199 125.51124559168241,876.3451287094724 135.05862321241642,884.1837926486185 142.66819338254055,880.5509919185998 136.27371915798523,872.4499876754394 129.4303318918166,872.6270504031852" stroke="rgb(255, 0, 0)" stroke-width="0.1pt" /><polygon fill="none" points="135.6306516241279,843.0760928972362 131.09868145516643,848.607646950349 137.94206872133506,848.4305842226032 140.50157981321567,843.7236141839642 135.6306516241279,843.0760928972362" stroke="rgb(255, 0, 0)" stroke-width="0.1pt" /><polygon fill="none" points="140.95490455780805,785.7978818563695 153.46129876763894,788.1872579235988 143.74569280477778,774.8752352897039 142.54691061406274,776.1810049060919 140.7701631757662,781.0268089914389 140.95490455780805,785.7978818563695" stroke="rgb(255, 0, 0)" stroke-width="0.1pt" /><polygon fill="none" points="95.51524291656207,791.5913584538329 95.33050153452024,786.8202855889023 82.85185046795876,782.491326216302 80.08615957904931,785.5676478585813 77.52395460058793,791.4964322505347 77.81527100483832,796.3514177564452 81.32196776845103,797.8379659016264 94.29246770173215,792.6709071444427 95.51524291656207,791.5913584538329" stroke="rgb(255, 0, 0)" stroke-width="0.1pt" /><polygon fill="none" points="111.09202686635092,757.733507549664 98.62398650617442,754.4553477333011 96.83662836149287,758.2503522624108 109.31527942805435,762.5793116350111 111.09202686635092,757.733507549664" stroke="rgb(255, 0, 0)" stroke-width="0.1pt" /><polygon fill="none" points="123.7833313900749,735.7766741755744 129.59984552823383,726.9308144377882 116.05275577389963,726.7532924558428 110.61212718152171,729.2244546744678 110.11650883918341,733.8042839755992 122.58454919935991,737.0824437919623 123.7833313900749,735.7766741755744" stroke="rgb(255, 0, 0)" stroke-width="0.1pt" /><polygon fill="none" points="180.3386421536099,766.6253777162208 181.4756503134268,766.9754790278554 191.5329937699944,756.8940189035313 182.85867073961634,743.0571092459595 181.60489889796722,741.6838088518782 176.43955032890767,744.4674953445399 170.6230361907487,753.3133550823261 180.3386421536099,766.6253777162208" stroke="rgb(255, 0, 0)" stroke-width="0.1pt" /><polygon fill="none" points="144.6273576307741,811.0332593801955 143.4045824159442,812.1128080708053 146.4725948076714,820.0909022398437 151.34352299675922,820.7384235265716 155.77637561321177,818.6809793532805 158.27016212169102,813.7782446674851 158.27076000042192,813.7727367590592 157.13375184060502,813.4226354474248 144.6273576307741,811.0332593801955" stroke="rgb(255, 0, 0)" stroke-width="0.1pt" /><polygon fill="none" points="63.18546995208618,916.2993777691829 70.28232015560522,900.5138376337881 55.96835814548666,904.8151828470262 55.96835814548666,907.5053418493629 59.32799516596184,916.2811945959895 62.45305255107405,916.5444719949708 63.18546995208618,916.2993777691829" stroke="rgb(255, 0, 0)" stroke-width="0.1pt" /><polygon fill="none" points="69.17210197537322,861.035058236127 69.9308605181873,860.1216079033911 69.72449928104967,858.3945319659088 62.34340466227458,848.0609401321365 58.836707898661885,846.5743919869553 54.85813996525465,849.0418195268024 54.85813996525465,865.3364034493652 69.17210197537322,861.035058236127" stroke="rgb(255, 0, 0)" stroke-width="0.1pt" /><polygon fill="none" points="39.546283521612686,936.9461316746966 42.90592054208786,934.7450339540156 39.546283521612686,925.969181207389 39.546283521612686,936.9461316746966" stroke="rgb(255, 0, 0)" stroke-width="0.1pt" /><polygon fill="none" points="93.82139564237065,920.699993091985 94.56236992109565,920.8065212186158 105.31988289194105,921.2229847266858 111.18750734394165,912.000330199754 111.22438200943778,911.8396665630002 101.67700438870376,904.0010026238541 100.91824584588969,904.91445295659 93.82139564237065,920.699993091985" stroke="rgb(255, 0, 0)" stroke-width="0.1pt" /><polygon fill="none" points="50.06367420353268,984.287491787806 60.66617984420549,984.6128461647048 56.54836860912007,969.2356127927831 53.423311224007854,968.9723353938017 50.06367420353268,971.1734331144828 50.06367420353268,984.287491787806" stroke="rgb(255, 0, 0)" stroke-width="0.1pt" /><polygon fill="none" points="83.46169301841772,976.0982478064468 82.72927561740558,976.3433420322347 86.847086852491,991.7205754041564 90.17445054808823,994.5494475803257 96.70185905986445,992.4953620151159 84.20266729714271,976.2047759330776 83.46169301841772,976.0982478064468" stroke="rgb(255, 0, 0)" stroke-width="0.1pt" /><polygon fill="none" points="244.42178231278035,623.8014107550505 242.3474628511144,623.7062341171012 240.6550651240956,637.1774114215485 245.27619950867117,636.1630805995418 247.76482521250728,631.8035343092286 244.42178231278035,623.8014107550505" stroke="rgb(255, 0, 0)" stroke-width="0.1pt" /><polygon fill="none" points="439.143662032451,674.0513694749509 451.00681452930866,664.5030516076524 453.0588216484622,659.7215496714905 452.5501439883372,659.4793074311312 432.0139687219096,665.0492657881642 428.2007186153732,671.4856861675474 434.1163424195607,676.5051604165625 439.143662032451,674.0513694749509" stroke="rgb(255, 0, 0)" stroke-width="0.1pt" /><polygon fill="none" points="459.1927296192275,685.2395776913677 467.1523262974206,686.7782314006677 470.07633005174966,679.9641268876385 471.05588211608523,675.6912598240694 459.1927296192275,685.2395776913677" stroke="rgb(255, 0, 0)" stroke-width="0.1pt" /><polygon fill="none" points="509.57412219581363,679.2117426132579 507.5221150766601,683.9932445494201 506.54256301232454,688.2661116129891 512.7846747774437,707.289183844984 523.1284395058392,702.7185641030325 513.9902586029906,679.0747311041029 509.57412219581363,679.2117426132579" stroke="rgb(255, 0, 0)" stroke-width="0.1pt" /><polygon fill="none" points="500.5987665758918,598.4125285478895 505.01490298306874,598.2755170387343 516.934567013336,590.3224503573076 497.70174170986354,573.577704731652 495.51038865005387,572.9768056021965 491.09128539949876,586.8245306864374 500.0900889157668,598.1702863075302 500.5987665758918,598.4125285478895" stroke="rgb(255, 0, 0)" stroke-width="0.1pt" /><polygon fill="none" points="399.0172854014695,727.8483028389858 393.10166159728203,722.8288285899707 389.5881396762826,723.7088691966712 384.62375830268786,726.5211339023001 382.2930522318688,732.4775007555016 382.23416262939446,735.9187898242051 384.82468445193297,741.7784254348229 399.3943126141393,746.9599731378028 406.59023631552327,740.8810802370034 399.0172854014695,727.8483028389858" stroke="rgb(255, 0, 0)" stroke-width="0.1pt" /><polygon fill="none" points="444.43283116300097,714.438130682967 439.40551155011065,716.8919216245787 446.9784624641644,729.9246990225962 449.276057031182,729.6610436474044 452.39242784119403,715.9767843922668 444.43283116300097,714.438130682967" stroke="rgb(255, 0, 0)" stroke-width="0.1pt" /><polygon fill="none" points="429.7981422973741,621.5649914082667 432.1502953821498,628.6225798381241 452.6864706485774,623.052621481091 443.68766713230946,611.7068658599982 435.9971875310243,610.6337856882343 429.7981422973741,621.5649914082667" stroke="rgb(255, 0, 0)" stroke-width="0.1pt" /><polygon fill="none" points="378.8481154962791,639.7543565199178 373.51928966066345,640.6055216788827 380.0521278483319,657.0615313960895 383.56564976933146,656.181490789389 387.37889987586783,649.745070410006 385.02674679109214,642.6874819801485 378.8481154962791,639.7543565199178" stroke="rgb(255, 0, 0)" stroke-width="0.1pt" /><polygon fill="none" points="276.35723225402256,478.25725727406393 280.03068412810745,465.387256280918 279.9659846336871,464.9615845947321 266.31493096183624,471.7157873601382 266.2933738542222,477.29871201952227 276.35723225402256,478.25725727406393" stroke="rgb(255, 0, 0)" stroke-width="0.1pt" /><polygon fill="none" points="276.1923222956093,518.829434859101 281.4666233702271,510.36461893923354 277.5625634390663,507.69077674690834 267.49870503926593,506.73223149236674 267.4577369797784,506.7908290167691 267.1732836662428,508.1987787710142 276.1923222956093,518.829434859101" stroke="rgb(255, 0, 0)" stroke-width="0.1pt" /><polygon fill="none" points="427.7603605588362,553.3114380633247 433.63678355020255,558.196647624084 441.3272631514877,559.269727795848 445.74636640204284,545.4220027116071 444.76909240660837,543.3841019273225 428.5277989918779,545.4480888850501 427.7603605588362,553.3114380633247" stroke="rgb(255, 0, 0)" stroke-width="0.1pt" /><polygon fill="none" points="393.9613576457553,586.8975970600956 390.70881783702794,598.5626765132497 396.887449131841,601.4958019734803 403.0864943654911,590.5645962534478 397.21007137412477,585.6793866926886 393.9613576457553,586.8975970600956" stroke="rgb(255, 0, 0)" stroke-width="0.1pt" /><polygon fill="none" points="315.33078252865226,489.76613483114414 315.40700557288244,489.6867837603233 307.0596967969469,474.1859446193167 303.3862449228621,487.0559456124626 307.2903048540229,489.7297878047878 315.33078252865226,489.76613483114414" stroke="rgb(255, 0, 0)" stroke-width="0.1pt" /><polygon fill="none" points="144.4099133916012,425.7879316111873 138.83931387916155,434.0107561542155 144.3744117100093,445.9189181963982 152.86219290806488,446.2265702792992 159.73978164568211,430.2675876773586 144.4099133916012,425.7879316111873" stroke="rgb(255, 0, 0)" stroke-width="0.1pt" /><polygon fill="none" points="93.74402572055844,380.6250079151877 81.50145901140175,392.33042906553675 84.55854044224341,404.334465890363 94.7027110948106,401.8931383702085 100.27331060725027,393.6703138271803 93.74402572055844,380.6250079151877" stroke="rgb(255, 0, 0)" stroke-width="0.1pt" /><polygon fill="none" points="99.63223954011653,250.82503888508705 115.78015805736572,266.5793097543044 130.1947924168202,264.4433176104652 138.45282835164772,250.39595685488197 133.68517856653565,245.25041908795617 117.85163768609839,238.65066710862195 115.49567874345655,238.8633380391146 99.63223954011653,249.7420732171565 99.63223954011653,250.82503888508705" stroke="rgb(255, 0, 0)" stroke-width="0.1pt" /><polygon fill="none" points="56.00589165515016,338.20060075189076 59.91108145683975,338.70809275611253 72.15364816599646,327.0026716057635 72.15381017239936,320.16369313214994 56.00589165515016,304.4094222629326 56.00589165515016,338.20060075189076" stroke="rgb(255, 0, 0)" stroke-width="0.1pt" /><polygon fill="none" points="276.55729590276627,157.3092521472326 286.8155891227556,158.18934433617795 292.81105880992015,154.82345641527345 287.5487893789175,143.63413340498948 272.36814593953187,145.31533472534244 271.9048107673963,149.48401013430467 276.55729590276627,157.3092521472326" stroke="rgb(255, 0, 0)" stroke-width="0.1pt" /><polygon fill="none" points="274.0940761526709,216.73612234857842 278.41701156850223,238.55056361215892 281.05745774111244,240.7730900619513 285.4819488794822,240.15989959355483 285.88011717455765,215.6713244378173 275.6218239545683,214.79123224887198 274.0940761526709,216.73612234857842" stroke="rgb(255, 0, 0)" stroke-width="0.1pt" /><polygon fill="none" points="241.08356265412186,224.26453035733158 232.90463192840073,235.50277344554965 248.8054815647262,243.66145808361858 244.48254614889487,221.84701682003808 241.08356265412186,224.26453035733158" stroke="rgb(255, 0, 0)" stroke-width="0.1pt" /><polygon fill="none" points="142.42493538701547,147.39375822695854 145.07526748418772,141.87522838295374 143.2400480047108,130.38044366662282 131.38880879339123,140.69939562183868 129.01661552564505,144.53171781813853 128.37098441965477,156.34617884159474 130.72694336229665,156.13350791110204 142.42493538701547,147.39375822695854" stroke="rgb(255, 0, 0)" stroke-width="0.1pt" /><polygon fill="none" points="205.81915069538715,118.64342606659649 211.90542604064757,117.52919179553615 212.3687612127831,113.36051638657392 210.0615797433835,101.2948044606728 196.40586421799728,99.30938906367203 194.24841981791673,101.72572722877182 193.7797075199584,103.68973967815646 195.61492699943537,115.18452439448738 205.81915069538715,118.64342606659649" stroke="rgb(255, 0, 0)" stroke-width="0.1pt" /><polygon fill="none" points="644.6619197758167,123.33990045696409 643.2873570425186,134.2599063124377 643.4735350071808,134.9504800225403 651.9477140883432,132.30475932957066 648.5292608932455,116.21950970429023 644.6619197758167,123.33990045696409" stroke="rgb(255, 0, 0)" stroke-width="0.1pt" /><polygon fill="none" points="667.4029773007933,173.19478094160618 658.928798219631,175.84050163457584 658.245358625142,178.58840253696107 662.6061037742123,188.4862751741888 666.2932128992933,191.51223209306664 667.9191227276485,191.77579962489983 671.1218520819123,189.68653447758965 678.5601945982597,174.19592581842727 667.4029773007933,173.19478094160618" stroke="rgb(255, 0, 0)" stroke-width="0.1pt" /><polygon fill="none" points="597.4819148926368,151.65977786544917 585.6920242152306,143.62658982411554 580.8765463240844,142.48961269265038 580.4854356695575,143.16657308576455 578.5658027880886,149.31540294492487 583.6041844574836,155.95626154334474 596.9846532628103,155.09825247793702 597.6680928572991,152.35035157555177 597.4819148926368,151.65977786544917" stroke="rgb(255, 0, 0)" stroke-width="0.1pt" /><polygon fill="none" points="620.5269442475852,125.4228124422319 607.3624908368809,128.3096302563719 619.1523815142871,136.34281829770552 620.5269442475852,125.4228124422319" stroke="rgb(255, 0, 0)" stroke-width="0.1pt" /><polygon fill="none" points="677.4715697216632,108.83198971040405 680.8900229167609,124.91723933568446 692.0472402142275,125.91838421250553 692.4291151985917,125.57180193285191 694.6091890321161,116.9454549763984 682.2414956409467,108.59939013779861 678.3509489495697,106.51181691212336 677.4715697216632,108.83198971040405" stroke="rgb(255, 0, 0)" stroke-width="0.1pt" /><polygon fill="none" points="611.1880631450734,96.55115824957774 615.0554042625022,89.43076749690388 615.9347834904087,87.1105946986232 615.5597796874686,86.39555460900112 614.9657092810472,85.85028893111597 593.6087664108594,86.79418953642639 593.2081318432228,98.30099893225254 598.023609734369,99.43797606371771 611.1880631450734,96.55115824957774" stroke="rgb(255, 0, 0)" stroke-width="0.1pt" /><polygon fill="none" points="428.83185598706336,1142.5195215024182 438.16154292739975,1144.264904203737 449.04589419363936,1137.375823815686 448.50284685790905,1128.0095881753173 438.22547903454307,1123.4083223314115 428.97678262562965,1137.3845893779032 428.83185598706336,1142.5195215024182" stroke="rgb(255, 0, 0)" stroke-width="0.1pt" /><polygon fill="none" points="385.2472981431565,1100.2737177320848 395.71054783519617,1111.4430475026477 404.9592442441095,1097.4667804561561 400.9945222401738,1091.7558019213066 386.52564648771045,1097.4572157132773 385.2472981431565,1100.2737177320848" stroke="rgb(255, 0, 0)" stroke-width="0.1pt" /><polygon fill="none" points="154.53997237209177,1184.749495072059 149.93090264100195,1181.6700693508515 146.0071073597809,1184.749495072059 154.53997237209177,1184.749495072059" stroke="rgb(255, 0, 0)" stroke-width="0.1pt" /><polygon fill="none" points="191.53100440377352,1156.2841469761538 179.4752862051208,1154.787885343008 175.27192981639308,1164.8090375165818 179.88099954748287,1167.888463237789 188.20284362407142,1167.888463237789 191.53100440377352,1156.2841469761538" stroke="rgb(255, 0, 0)" stroke-width="0.1pt" /><polygon fill="none" points="248.63733593520448,1037.9893654276384 249.07289088208438,1036.5792522332895 242.5578278762245,1021.7055615960322 234.4355763249122,1017.9881924990619 228.8533729343539,1021.2777236256303 230.81379582315128,1037.4470894252725 232.94896191754486,1039.7245984453216 248.63733593520448,1037.9893654276384" stroke="rgb(255, 0, 0)" stroke-width="0.1pt" /><polygon fill="none" points="192.02924829440866,951.437189544287 197.61145168496694,948.1476584177186 198.81965365281178,940.0969753777011 198.46693658789502,938.7461096807517 192.78212462249863,930.267575253103 185.96522293089404,926.1392923020334 184.7844339747234,926.343368837976 177.1748638045993,929.9761695679947 177.13798913910315,930.1368332047484 191.20159029740748,951.4708176451853 192.02924829440866,951.437189544287" stroke="rgb(255, 0, 0)" stroke-width="0.1pt" /><polygon fill="none" points="267.0267525384812,966.9980471947329 270.15182889945294,966.2610633020923 279.6590253731591,958.689686437548 281.5120280774812,950.4209595218529 273.87900774921974,949.2486692581427 260.1127029550138,955.2299950577451 258.904500987169,963.2806780977626 267.0267525384812,966.9980471947329" stroke="rgb(255, 0, 0)" stroke-width="0.1pt" /><polygon fill="none" points="186.32291474197746,1042.4075389588618 184.36249185318013,1026.2381731592195 183.53483385617895,1026.2718012601179 173.29451356162497,1028.505302748911 171.42421297225349,1038.4646326031716 179.35344439299814,1047.8948792448975 186.32291474197746,1042.4075389588618" stroke="rgb(255, 0, 0)" stroke-width="0.1pt" /><polygon fill="none" points="298.40338486512337,1032.3871875823154 310.07111106450526,1030.0503193591342 314.1601597605762,1021.2904894002261 295.01339822023516,1016.7765130524175 291.8883218592635,1017.513496945058 298.40338486512337,1032.3871875823154" stroke="rgb(255, 0, 0)" stroke-width="0.1pt" /><polygon fill="none" points="204.1181690950482,1098.9912448958012 201.9830030006546,1096.713735875752 195.01353265167526,1102.201076161788 190.6569564901073,1110.8338361287479 191.22328830692118,1112.8995010903518 191.921267610316,1113.940502805291 203.97698580896872,1115.4367644384372 208.55193836680587,1114.4009108216708 204.1181690950482,1098.9912448958012" stroke="rgb(255, 0, 0)" stroke-width="0.1pt" /><polygon fill="none" points="259.4730115152772,1088.9652016962261 243.7846374976176,1090.7004347139095 248.21840676937526,1106.110100639779 253.24763595153584,1107.3342139632598 259.7314345098215,1095.2251852652894 259.4730115152772,1088.9652016962261" stroke="rgb(255, 0, 0)" stroke-width="0.1pt" /><polygon fill="none" points="295.2984373007673,670.1172892375325 293.3822747053878,662.7860364227935 290.8924468362498,664.649529652857 293.8716808781583,670.6025268123853 295.2984373007673,670.1172892375325" stroke="rgb(255, 0, 0)" stroke-width="0.1pt" /><polygon fill="none" points="283.4118207553463,677.5868029452166 280.43258671343784,671.6338057856883 275.571303270228,672.5020649704977 278.1254375647711,679.5915628271896 279.72047018074136,680.7145960361382 283.4118207553463,677.5868029452166" stroke="rgb(255, 0, 0)" stroke-width="0.1pt" /><polygon fill="none" points="309.3030585977769,664.2423933488959 316.59689876195137,663.4105662067564 312.1709302346917,651.3170477796422 307.38689600239735,656.911140534157 309.3030585977769,664.2423933488959" stroke="rgb(255, 0, 0)" stroke-width="0.1pt" /><polygon fill="none" points="315.4658229211121,695.4215833131841 314.0390664985031,695.906820888037 310.34771592389814,699.0346139789585 311.08419665764563,702.4812870842779 326.30399466398103,705.6179509068572 328.6347007348,699.6615840536557 322.75966308528655,694.5897561710444 315.4658229211121,695.4215833131841" stroke="rgb(255, 0, 0)" stroke-width="0.1pt" /><polygon fill="none" points="302.0071020741908,586.7957579777948 302.4759940996165,586.8764366110612 303.94888299719673,585.7901504515833 306.96059973453015,575.5240028450522 294.4683997566576,571.0720270023954 290.77658932931547,574.3183837268996 291.636813850426,580.481459563955 302.0071020741908,586.7957579777948" stroke="rgb(255, 0, 0)" stroke-width="0.1pt" /><polygon fill="none" points="283.1010570393449,611.0629291042181 272.73076881558006,604.7486306903785 267.2207896306684,608.2188736387512 270.56383253039536,616.2209971929293 283.1010570393449,611.0629291042181" stroke="rgb(255, 0, 0)" stroke-width="0.1pt" /><polygon fill="none" points="246.2064333197051,573.9012182412512 244.49981899015734,573.3120527694703 235.8419525365127,573.0418191397748 233.20381981779573,575.3238256374461 234.45620790353348,581.7097352427875 239.48235919423797,583.43936038873 241.55667865590394,583.5345370266793 247.0666578408156,580.0642940783067 246.2064333197051,573.9012182412512" stroke="rgb(255, 0, 0)" stroke-width="0.1pt" /><polygon fill="none" points="265.6488299209205,537.3874353902872 265.6996512821992,536.0994250876159 256.68061265283274,525.4687689995292 256.1376873677176,526.4449400453349 260.2504051640306,540.0446266430106 261.9570194935784,540.6337921147915 265.6488299209205,537.3874353902872" stroke="rgb(255, 0, 0)" stroke-width="0.1pt" /><polygon fill="none" points="318.167382372527,542.138118738578 318.5538999056665,541.7274774827424 319.0407825051804,527.9696636997389 311.00030483055104,527.9333166733826 305.7260037559332,536.3981325932499 305.6751823946545,537.6861428959212 318.167382372527,542.138118738578" stroke="rgb(255, 0, 0)" stroke-width="0.1pt" /><polygon fill="none" points="345.1734327481199,594.7450351618303 352.3294556019935,597.0122574716639 357.6582814376091,596.161092312699 360.9108212463365,584.496012859545 348.57166701859285,584.0682462994636 348.1851494854534,584.4788875552993 345.1734327481199,594.7450351618303" stroke="rgb(255, 0, 0)" stroke-width="0.1pt" /><polygon fill="none" points="336.6891749448772,643.5266998989813 336.58553733363146,646.8105641624475 341.01150586089125,658.9040825895617 346.88654351040475,663.9759104721728 351.8509248839994,661.1636457665439 345.3180866963309,644.7076360493371 338.16206384245737,642.4404137395034 336.6891749448772,643.5266998989813" stroke="rgb(255, 0, 0)" stroke-width="0.1pt" /><polygon fill="none" points="289.74287718420845,633.165175677483 277.20565267525893,638.3232437661942 274.7170269714228,642.6827900565074 277.97298605374647,644.8555637436034 282.8342694969563,643.987304558794 285.32409736609424,642.1238113287303 290.1081315983886,636.5297185742156 290.2117692096342,633.2458543107495 289.74287718420845,633.165175677483" stroke="rgb(255, 0, 0)" stroke-width="0.1pt" /><polygon fill="none" points="419.5852440654199,475.7321101800147 413.6998556387695,471.62705011570785 406.4660876649929,470.5985721626019 402.73502986103983,481.26815043040875 408.3342928139688,489.34213276332025 421.80978209861496,479.7226769234028 419.5852440654199,475.7321101800147" stroke="rgb(255, 0, 0)" stroke-width="0.1pt" /><polygon fill="none" points="374.9064523402375,529.8338332044232 369.30718938730854,521.7598508715117 359.9838960902482,526.2927338608857 359.907673046018,526.3720849317067 359.420790446504,540.1298987147102 371.75994467424766,540.5576652747917 375.00865840261713,539.3394549073846 375.77609683565873,531.47610572911 374.9064523402375,529.8338332044232" stroke="rgb(255, 0, 0)" stroke-width="0.1pt" /><polygon fill="none" points="357.7644917283847,449.92210728446037 354.1836635637777,443.692057746998 349.84503508500825,441.2825580287886 338.53576528573427,443.4779669165251 336.29813235701545,449.1980577144488 336.3628318514357,449.6237294006347 344.7101406273713,465.12456854164134 354.0334339244316,460.5916855522673 357.7644917283847,449.92210728446037" stroke="rgb(255, 0, 0)" stroke-width="0.1pt" /><polygon fill="none" points="444.402490767214,502.655663018633 430.9270014825678,512.2751188585505 431.79664597798904,513.9173913832373 448.03793939271964,511.85340442550955 448.26015288012354,507.85548805521177 444.402490767214,502.655663018633" stroke="rgb(255, 0, 0)" stroke-width="0.1pt" /><polygon fill="none" points="426.28174950338587,415.55153752376344 439.50834185358735,403.6720633901399 439.58144081311207,398.3205510977113 428.5809449709485,395.0432820823066 415.4671533650023,408.293010033195 419.0479815296093,414.5230595706574 426.28174950338587,415.55153752376344" stroke="rgb(255, 0, 0)" stroke-width="0.1pt" /><polygon fill="none" points="458.863905485179,441.9627161321472 469.7601752583847,436.61121757343597 471.32985871475023,433.00019972723203 466.20510940873015,425.97818193421693 452.9785170585286,437.8576560678404 458.863905485179,441.9627161321472" stroke="rgb(255, 0, 0)" stroke-width="0.1pt" /><polygon fill="none" points="470.14170511740025,470.81032079129795 472.3662431505953,474.800887534686 476.22390526350483,480.0007125712648 484.77148508883937,474.67623886543197 481.03797489060594,465.4588222325867 470.14170511740025,470.81032079129795" stroke="rgb(255, 0, 0)" stroke-width="0.1pt" /><polygon fill="none" points="172.0662165656802,367.3400308787102 173.18508760037747,350.76861134583345 161.2703193828499,342.1060953165047 146.8556850233954,344.24208746034395 146.8555230169925,351.0810659339575 153.38480790368433,364.1263718459501 168.71467615776518,368.60602791212136 172.0662165656802,367.3400308787102" stroke="rgb(255, 0, 0)" stroke-width="0.1pt" /><polygon fill="none" points="207.29751285633236,445.3591457864967 203.94597244841734,446.6251428199079 197.06838371080013,462.5841254218485 197.7145588803888,463.6470755913268 216.013655244305,465.76793876385193 216.0546233037925,465.7093412394495 216.07618041140654,460.1264165800655 207.3212239901792,445.36982219209835 207.29751285633236,445.3591457864967" stroke="rgb(255, 0, 0)" stroke-width="0.1pt" /><polygon fill="none" points="203.791018331127,179.36931952083447 202.34437232959465,173.42784078891628 198.64560697712247,177.08218915438948 199.12446752043397,178.97386563701323 203.791018331127,179.36931952083447" stroke="rgb(255, 0, 0)" stroke-width="0.1pt" /><polygon fill="none" points="190.58554890015884,156.7548261805282 192.66803816082708,153.77710201106873 182.4638144648753,150.31820033895963 179.81348236770307,155.83673018296443 186.88678354768666,160.4091745460014 190.58554890015884,156.7548261805282" stroke="rgb(255, 0, 0)" stroke-width="0.1pt" /><polygon fill="none" points="166.78732405207512,188.78068361884763 166.30846350876365,186.8890071362239 159.23516232878006,182.31656277318692 147.5371703040612,191.05631245733045 163.37071118449848,197.65606443666468 166.78732405207512,188.78068361884763" stroke="rgb(255, 0, 0)" stroke-width="0.1pt" /><polygon fill="none" points="226.30382861853644,174.2431296903477 232.75170106163228,176.39733816783763 236.15068455640528,173.9798246305441 237.6784323583027,172.03493453083763 233.02594722293279,164.2096925179097 226.93967187767234,165.32392678897006 224.85718261700407,168.30165095842952 226.30382861853644,174.2431296903477" stroke="rgb(255, 0, 0)" stroke-width="0.1pt" /><polygon fill="none" points="206.37022784683765,205.10626761262085 201.7036770361446,204.7108137287996 198.2870641685679,213.58619454661664 203.05471395368,218.73173231354244 204.63916956421232,218.49871917832883 212.81810028993348,207.26047609011079 206.37022784683765,205.10626761262085" stroke="rgb(255, 0, 0)" stroke-width="0.1pt" /><polygon fill="none" points="325.96151797007656,1083.3464117910955 327.4674198427951,1082.3241232292614 328.7457681873491,1079.5076212104536 322.78723756056513,1070.0373189685565 311.1195113611833,1072.3741871917377 310.6839564143034,1073.7843003860867 310.94237940884767,1080.0442839551497 325.0856104292583,1083.5168651974943 325.96151797007656,1083.3464117910955" stroke="rgb(255, 0, 0)" stroke-width="0.1pt" /><polygon fill="none" points="342.66594985118905,1169.2182909587823 333.35781077749346,1162.8507693226622 319.7666048633113,1165.7646097089323 316.9497908668039,1167.297942150696 317.328255820346,1169.5669040319272 342.59636539754825,1169.357348822593 342.66594985118905,1169.2182909587823" stroke="rgb(255, 0, 0)" stroke-width="0.1pt" /><polygon fill="none" points="250.1535880637725,1166.2564278333728 245.06990804421017,1159.6002251092023 240.04067886204962,1158.3761117857216 235.46572630421247,1159.4119654024878 232.1375655245104,1171.016281664123 250.54326135840267,1171.016281664123 250.53205301731458,1168.525389714604 250.1535880637725,1166.2564278333728" stroke="rgb(255, 0, 0)" stroke-width="0.1pt" /><polygon fill="none" points="344.2767499538272,1183.869040512754 344.9822485479743,1181.1685933539009 319.71413897077207,1181.378148563235 319.72534731186016,1183.869040512754 344.2767499538272,1183.869040512754" stroke="rgb(255, 0, 0)" stroke-width="0.1pt" /><polygon fill="none" points="293.14422809389936,1133.9933570848875 305.8707636565259,1120.2340393468544 291.7275326361153,1116.7614581045098 285.24373407782963,1128.8704868024804 290.32741409739197,1135.526689526651 293.14422809389936,1133.9933570848875" stroke="rgb(255, 0, 0)" stroke-width="0.1pt" /><polygon fill="none" points="332.1289370815196,1140.3761745021266 332.1401742707823,1129.360243743965 331.2642667299641,1129.5306971503637 318.5377311673374,1143.2900148883969 332.1289370815196,1140.3761745021266" stroke="rgb(255, 0, 0)" stroke-width="0.1pt" /><polygon fill="none" points="372.9872723228105,1149.2608930139193 375.51459536456946,1147.159413952881 375.65952200313586,1142.0244818283663 365.1962723110962,1130.8551520578035 363.6903704383776,1131.8774406196376 363.679133249115,1142.8933713777992 372.9872723228105,1149.2608930139193" stroke="rgb(255, 0, 0)" stroke-width="0.1pt" /><polygon fill="none" points="416.6755535993134,1181.6909039490288 415.58595017394225,1178.495302566646 406.25626323360586,1176.7499198653268 403.72894019184685,1178.851398926365 403.659355738206,1178.9904567901754 402.953857144059,1181.6909039490288 416.6755535993134,1181.6909039490288" stroke="rgb(255, 0, 0)" stroke-width="0.1pt" /><polygon fill="none" points="224.37350829251523,298.9885179160515 228.58011806870775,296.29393510216545 234.2891832019755,289.6623927890776 231.64873702936526,287.4398663392852 215.74788739303978,279.28118170121627 214.16343178250742,279.51419483642985 205.90539584767993,293.5615555920131 217.82016406520754,302.2240716213418 224.37350829251523,298.9885179160515" stroke="rgb(255, 0, 0)" stroke-width="0.1pt" /><polygon fill="none" points="318.31936497031495,389.2726183156467 320.3282054563957,390.57306850371845 331.63747525566976,388.3776596159821 330.912510529123,383.1440467462704 321.78192674863215,371.0603379898823 316.0486507634025,378.562151619003 318.31936497031495,389.2726183156467" stroke="rgb(255, 0, 0)" stroke-width="0.1pt" /><polygon fill="none" points="258.2222585404711,422.85399953009284 247.6827097661624,424.0012637262766 256.43766618738977,438.75785811424373 270.08871985924065,432.0036553488376 272.3263527879595,426.2835645509138 270.3175123018787,424.98311436284206 258.2222585404711,422.85399953009284" stroke="rgb(255, 0, 0)" stroke-width="0.1pt" /><polygon fill="none" points="241.57294895862006,370.004714929195 235.54342450368085,358.8520542112318 228.9900802763732,362.0876079165222 227.8712092416759,378.659027449399 227.89492037552273,378.6697038550006 238.43446914983144,377.52243965881684 241.57294895862006,370.004714929195" stroke="rgb(255, 0, 0)" stroke-width="0.1pt" /><polygon fill="none" points="272.6762344525332,359.47909792603014 276.95780349246377,357.849045397872 273.1204797579996,352.0221966156209 272.6762344525332,359.47909792603014" stroke="rgb(255, 0, 0)" stroke-width="0.1pt" /><polygon fill="none" points="260.26629621591036,345.8889987903289 260.71054152137674,338.43209747991966 257.89848134586776,332.5123496901926 253.69187156967524,335.2069325040786 259.7213960246144,346.3595932220418 260.26629621591036,345.8889987903289" stroke="rgb(255, 0, 0)" stroke-width="0.1pt" /><polygon fill="none" points="289.0194658506701,331.1838682546344 290.8790563651502,332.2208880802328 296.6123323503798,324.71907445111214 294.4849143526243,312.83164453186174 292.5036382123344,312.19253890117193 288.0791470739647,312.8057293695684 282.370081940697,319.4372716826562 285.1821421162059,325.3570194723833 289.0194658506701,331.1838682546344" stroke="rgb(255, 0, 0)" stroke-width="0.1pt" /><polygon fill="none" points="276.62133380076125,383.80664994341316 276.07643360946537,384.27724437512603 272.9379538006767,391.79496910474785 285.0332075620844,393.924083937497 282.76249335517196,383.21361724085335 280.9029028406918,382.176597415255 276.62133380076125,383.80664994341316" stroke="rgb(255, 0, 0)" stroke-width="0.1pt" /></svg>