<?xml version="1.0" encoding="utf-8" ?>
<svg baseProfile="full" height="11in" version="1.1" width="17in" xmlns="http://www.w3.org/2000/svg" xmlns:ev="http://www.w3.org/2001/xml-events" xmlns:xlink="http://www.w3.org/1999/xlink"><defs /><polygon fill="none" points="85.30129937225865,1183.181953985307 68.20323137944997,1144.6980821231455 40.46599956174724,1137.5148307013374 40.46599956174724,1183.181953985307 85.30129937225865,1183.181953985307" stroke="rgb(255, 0, 0)" stroke-width="0.1pt" /><polygon fill="none" points="37.21888241182433,1110.4500243097648 51.84547135371638,1061.7499275986224 37.21888241182433,1053.492515302422 37.21888241182433,1110.4500243097648" stroke="rgb(255, 0, 0)" stroke-width="0.1pt" /><polygon fill="none" points="42.25220164397963,1124.18206194421 69.98943346168237,1131.3653133660182 71.85655255466074,1129.7534833979773 96.2328092886062,1087.5602448666393 75.10222743593127,1062.5236724035606 56.87879058587168,1066.1529483460815 42.25220164397963,1114.8530450572239 42.25220164397963,1124.18206194421" stroke="rgb(255, 0, 0)" stroke-width="0.1pt" /><polygon fill="none" points="38.268686359304574,452.6957102334917 49.03915897370942,450.85573602155665 61.476257134408776,435.2622445281664 51.28598569826992,395.2487884454124 38.268686359304574,393.5571484313399 38.268686359304574,452.6957102334917" stroke="rgb(255, 0, 0)" stroke-width="0.1pt" /><polygon fill="none" points="675.2343845361344,1182.7483516253528 647.763454314676,1126.7944358008826 613.6089717713735,1170.383735397826 648.9364133124344,1182.7483516253528 675.2343845361344,1182.7483516253528" stroke="rgb(255, 0, 0)" stroke-width="0.1pt" /><polygon fill="none" points="657.872834616966,1123.2278749713878 685.3437648384244,1179.1817907958578 724.5845956859538,1179.1817907958578 733.2723010938096,1162.147453481696 711.710021294008,1112.1557745560585 660.6833828166755,1109.3008498098488 657.872834616966,1123.2278749713878" stroke="rgb(255, 0, 0)" stroke-width="0.1pt" /><polygon fill="none" points="82.42475653978656,486.85885802954857 109.19119273700223,486.0890026723808 122.57241979673367,474.5407032196142 104.1220936939078,434.8468297456721 70.3081915186838,442.9845881461868 57.87109335798444,458.5780796395771 82.42475653978656,486.85885802954857" stroke="rgb(255, 0, 0)" stroke-width="0.1pt" /><polygon fill="none" points="618.0420665733787,734.3353090210542 615.219637952393,732.7059234311256 577.7324025174282,744.1380052317699 577.6318528735951,804.5812688506804 631.3028464575473,784.7761111549764 618.0420665733787,734.3353090210542" stroke="rgb(255, 0, 0)" stroke-width="0.1pt" /><polygon fill="none" points="491.7302175934599,843.3268935118308 527.7621221485632,822.6146278339704 498.3208076763934,767.6121007942264 480.17809840558107,770.0085569664687 491.7302175934599,843.3268935118308" stroke="rgb(255, 0, 0)" stroke-width="0.1pt" /><polygon fill="none" points="717.69132671505,369.34883066051475 724.6035238751264,390.99387499480684 752.6474465875839,416.5427158165694 752.6474465875839,363.389312818113 717.69132671505,369.34883066051475" stroke="rgb(255, 0, 0)" stroke-width="0.1pt" /><polygon fill="none" points="247.63589648201227,36.44580202890397 248.00959632296204,41.79542637575164 264.9026149605553,36.44580202890397 247.63589648201227,36.44580202890397" stroke="rgb(255, 0, 0)" stroke-width="0.1pt" /><polygon fill="none" points="447.85755191993445,39.12364334264286 444.17804859710435,54.48290160406374 469.62277499650327,72.88911066196438 533.7799653935674,50.46792800528076 534.1197806162112,39.12364334264286 447.85755191993445,39.12364334264286" stroke="rgb(255, 0, 0)" stroke-width="0.1pt" /><polygon fill="none" points="556.7866947089523,39.17002351227315 556.4468794863085,50.514308174911044 569.8778509015558,66.5259488789916 641.0676604688485,63.37961352795688 637.4266972809032,39.17002351227315 556.7866947089523,39.17002351227315" stroke="rgb(255, 0, 0)" stroke-width="0.1pt" /><polygon fill="none" points="362.8053122866176,981.531299064085 365.3601664179134,967.4674165671589 336.1114326332472,923.9296782388276 322.295596940743,932.328553156817 316.1189212596692,959.8909762091344 362.8053122866176,981.531299064085" stroke="rgb(255, 0, 0)" stroke-width="0.1pt" /><polygon fill="none" points="590.8925672418399,566.1536688523695 577.7766786557856,598.0445622824521 618.8419007114733,633.4940932298352 660.980632257976,586.2248315106468 656.1514227183981,575.0318337273842 590.8925672418399,566.1536688523695" stroke="rgb(255, 0, 0)" stroke-width="0.1pt" /><polygon fill="none" points="575.8728918059969,554.432079832631 527.9012272431202,528.3339137923122 495.10058066277475,535.7874268756871 559.2099983410164,591.6032456278722 562.5836558588505,590.3017560655998 575.6995444449046,558.4108626355171 575.8728918059969,554.432079832631" stroke="rgb(255, 0, 0)" stroke-width="0.1pt" /><polygon fill="none" points="529.4299099365726,486.31611963173617 531.9405580571755,518.594936984312 579.9122226200523,544.6931030246308 593.9515107811565,501.4771074325919 593.5045317191353,493.24378677295454 554.1441712533281,475.41031801769094 529.4299099365726,486.31611963173617" stroke="rgb(255, 0, 0)" stroke-width="0.1pt" /><polygon fill="none" points="725.5031448227231,469.02085169203343 745.6954623684167,439.07111925566386 745.6954623684167,427.55252645589707 717.6515396559591,402.0036856341345 654.4961624842281,440.47832445363633 649.687718005699,447.97165210208414 701.7544628524408,470.7652738380487 725.5031448227231,469.02085169203343" stroke="rgb(255, 0, 0)" stroke-width="0.1pt" /><polygon fill="none" points="710.7206587108587,783.8754146698982 654.0801873732474,736.6403733809785 631.45440292178,736.4083965431685 644.7151828059484,786.8491986770906 672.7352659451082,827.5743621874412 710.7206587108587,783.8754146698982" stroke="rgb(255, 0, 0)" stroke-width="0.1pt" /><polygon fill="none" points="697.0434542836603,643.9287117232078 715.4101497298482,666.9206201799198 726.8188382450453,669.2349908738599 749.8633858610696,649.2505512199203 749.8633858610696,615.3726077281653 749.4257405355346,614.6454454492662 707.4334964518127,614.2150753781067 697.0434542836603,643.9287117232078" stroke="rgb(255, 0, 0)" stroke-width="0.1pt" /><polygon fill="none" points="683.5462516236979,652.6428412667551 628.4743944048439,653.3411970141392 626.5872869105292,715.5558746298339 629.4097155315151,717.1852602197625 652.0354999829826,717.4172370575726 675.9408682886624,704.0281959856661 701.9129470698857,675.6347497234668 683.5462516236979,652.6428412667551" stroke="rgb(255, 0, 0)" stroke-width="0.1pt" /><polygon fill="none" points="685.3989063554761,640.5359626255737 695.7889485236287,610.8223262804725 694.030247032456,606.8056434114799 670.9135359718186,591.6888245085644 628.7748044253159,638.9580862277529 630.3270491366223,641.2343183729577 685.3989063554761,640.5359626255737" stroke="rgb(255, 0, 0)" stroke-width="0.1pt" /><polygon fill="none" points="752.9778223677846,1101.793938700704 747.3788192994956,1097.091306324109 728.1679925103314,1101.3446774077197 720.6639374879909,1108.1770337930657 742.2262172877926,1158.1687127187033 752.9778223677846,1155.952570845186 752.9778223677846,1101.793938700704" stroke="rgb(255, 0, 0)" stroke-width="0.1pt" /><polygon fill="none" points="749.9233470025678,1090.440980876465 755.5223500708569,1095.1436132530603 755.5223500708569,1087.524439915449 754.2492951873277,1087.3002395853932 749.9233470025678,1090.440980876465" stroke="rgb(255, 0, 0)" stroke-width="0.1pt" /><polygon fill="none" points="755.2864376641205,863.8304019909573 746.7236896335662,872.0763998608459 755.2864376641205,877.887642849717 755.2864376641205,863.8304019909573" stroke="rgb(255, 0, 0)" stroke-width="0.1pt" /><polygon fill="none" points="642.6110394553162,1186.969615314373 607.2835979142553,1174.6049990868462 591.9426428463312,1186.969615314373 642.6110394553162,1186.969615314373" stroke="rgb(255, 0, 0)" stroke-width="0.1pt" /><polygon fill="none" points="589.9044080832983,1174.972562991084 605.2453631512227,1162.6079467635573 639.3998456945249,1119.0186471666138 642.2103938942345,1105.091622005075 624.1239628322114,1080.2241299048442 571.3789569050248,1099.0557996965467 580.674959175326,1167.2160232834487 585.2927915317009,1174.972562991084 589.9044080832983,1174.972562991084" stroke="rgb(255, 0, 0)" stroke-width="0.1pt" /><polygon fill="none" points="536.8445253033797,1148.3443958298858 570.9118779362019,1169.5936463414318 561.6158756659007,1101.4334227545298 549.9053513843212,1099.8660834256884 536.8445253033797,1148.3443958298858" stroke="rgb(255, 0, 0)" stroke-width="0.1pt" /><polygon fill="none" points="75.56991453354632,682.9931205633986 49.69072570151564,671.3688812411598 39.959655676994785,674.9526261517781 39.959655676994785,697.6033629774117 66.39008373211367,706.1911230904057 75.56991453354632,682.9931205633986" stroke="rgb(255, 0, 0)" stroke-width="0.1pt" /><polygon fill="none" points="76.3968440962111,1011.4266415895378 41.05515862730171,1010.3421269998748 41.05515862730171,1044.3899139897735 55.68174756919375,1052.647326285974 73.90518441925335,1049.018050343453 87.48805641486857,1020.8562155101022 76.3968440962111,1011.4266415895378" stroke="rgb(255, 0, 0)" stroke-width="0.1pt" /><polygon fill="none" points="209.144310288586,903.9106218601382 228.0936835065741,932.1724032856342 252.48141677116826,887.8425558452827 252.56455593764326,886.8497275916325 238.5660681155774,861.5638731073417 231.56343665876014,863.9788665479922 209.144310288586,903.9106218601382" stroke="rgb(255, 0, 0)" stroke-width="0.1pt" /><polygon fill="none" points="233.7891614975441,936.2512399203572 234.96488504726662,940.754125576855 280.85256769461967,920.8163729115139 280.4929184638314,900.9027651752218 258.17689476213826,891.9213924800058 233.7891614975441,936.2512399203572" stroke="rgb(255, 0, 0)" stroke-width="0.1pt" /><polygon fill="none" points="117.11309607065908,528.964362272505 95.45734384082402,528.3785342498104 99.61329286447827,551.16072829625 101.0379801238856,551.3331424420476 117.41662948610235,529.6687620672882 117.11309607065908,528.964362272505" stroke="rgb(255, 0, 0)" stroke-width="0.1pt" /><polygon fill="none" points="115.78772205469791,523.5062619380237 110.45308724590778,495.4886785061595 83.68665104869211,496.2585338633273 77.87835234390347,513.2179916778763 94.13196982486285,522.9204339153291 115.78772205469791,523.5062619380237" stroke="rgb(255, 0, 0)" stroke-width="0.1pt" /><polygon fill="none" points="61.16081535081611,538.3138912106564 72.63296552070473,551.8162150287708 94.46100318223934,551.3720870635518 90.3050541585851,528.5898930171122 74.05143667762573,518.8874507796595 61.16081535081611,538.3138912106564" stroke="rgb(255, 0, 0)" stroke-width="0.1pt" /><polygon fill="none" points="39.42754335422921,529.83677958168 56.05275911883793,530.6676092280078 68.94338044564755,511.24116879701086 74.75167915043619,494.2817109824618 50.19801596863405,466.0009325924903 39.42754335422921,467.84090680442534 39.42754335422921,529.83677958168" stroke="rgb(255, 0, 0)" stroke-width="0.1pt" /><polygon fill="none" points="100.05390787111723,601.0941938053252 106.97049867983736,569.4187257993615 98.38830500896009,558.9894055841761 96.96361774955277,558.8169914383786 75.13558008801816,559.2611194035975 73.30618526254374,573.7019234563551 100.05390787111723,601.0941938053252" stroke="rgb(255, 0, 0)" stroke-width="0.1pt" /><polygon fill="none" points="128.4841969561211,535.7956486811659 120.0535908985092,532.3086059259251 103.67494153629244,553.9729863006845 112.25713520716971,564.4023065158699 123.5890195817878,564.1406732336653 128.4841969561211,535.7956486811659" stroke="rgb(255, 0, 0)" stroke-width="0.1pt" /><polygon fill="none" points="165.6906998344823,551.6545568722489 163.07422765510825,541.5294551635798 134.1802594350494,536.2797628202076 129.2850820607161,564.6247873727069 148.18459568938337,569.2308650731784 165.6906998344823,551.6545568722489" stroke="rgb(255, 0, 0)" stroke-width="0.1pt" /><polygon fill="none" points="497.3198701947218,934.6851322186734 571.570019743879,926.8534239958731 575.3045470171237,905.3392415655211 538.0025528787422,892.1393556018166 497.2343092393792,901.0514405581084 496.54536041192887,933.2679625343036 497.3198701947218,934.6851322186734" stroke="rgb(255, 0, 0)" stroke-width="0.1pt" /><polygon fill="none" points="591.1923599301298,906.5061523047095 587.4578326568851,928.0203347350614 600.9079071744975,956.4207479821735 638.8179733818688,944.453465179373 622.6970770920597,876.7642294471985 612.766450024268,877.70964985204 591.1923599301298,906.5061523047095" stroke="rgb(255, 0, 0)" stroke-width="0.1pt" /><polygon fill="none" points="525.7855560344378,641.0185663792081 556.2461590439331,719.8313430423067 572.1345508242104,724.5793770544403 609.6217862591751,713.1472952537961 611.5088937534898,650.9326176381014 609.9566490421836,648.6563854928964 568.891426986496,613.2068545455132 565.517769468662,614.5083441077857 525.7855560344378,641.0185663792081" stroke="rgb(255, 0, 0)" stroke-width="0.1pt" /><polygon fill="none" points="568.1305680300273,825.5187490378001 542.2142572043192,830.5590394182045 547.4685986680897,865.8288222953012 588.0809715192354,849.1230579988845 568.1305680300273,825.5187490378001" stroke="rgb(255, 0, 0)" stroke-width="0.1pt" /><polygon fill="none" points="532.6281506024233,834.917601701316 530.3695424290275,834.7853433208425 494.3376378739242,855.4976089987027 484.175734048135,869.3282962425833 493.3174690034366,891.460600499324 534.0857126427998,882.5485155430322 537.8824920661938,870.1873845784127 532.6281506024233,834.917601701316" stroke="rgb(255, 0, 0)" stroke-width="0.1pt" /><polygon fill="none" points="591.2424039968766,855.6360594634544 550.630031145731,872.3418237598712 546.8332517223369,884.7029547244906 584.1352458607184,897.9028406881952 605.7093359548567,869.1063382355256 591.2424039968766,855.6360594634544" stroke="rgb(255, 0, 0)" stroke-width="0.1pt" /><polygon fill="none" points="564.3973229610174,812.2874838601283 565.9904916026044,806.607759532685 566.0910412464375,746.1644959137744 550.2026494661601,741.4164619016407 515.7234337048417,756.6518610414789 506.78108948974375,762.192988820315 536.2224039619136,817.1955158600591 538.4810121353092,817.3277742405328 564.3973229610174,812.2874838601283" stroke="rgb(255, 0, 0)" stroke-width="0.1pt" /><polygon fill="none" points="580.5550460568843,822.6114572031266 600.5054495460922,846.215766164211 614.9723815040724,859.6860449362822 624.9030085718641,858.7406245314407 662.3262506247332,845.2194519955374 663.839291421583,837.8517386903297 635.8192082824235,797.1265751799792 582.1482146984712,816.9317328756833 580.5550460568843,822.6114572031266" stroke="rgb(255, 0, 0)" stroke-width="0.1pt" /><polygon fill="none" points="476.0379852358059,517.3470534441512 479.2955652205875,524.1400560584335 486.6000754199529,526.143053156619 519.4007220002983,518.6895400732442 516.8900738796954,486.41072272066833 505.27062961160067,486.27241985704904 476.7786968604856,504.02066554315854 476.0379852358059,517.3470534441512" stroke="rgb(255, 0, 0)" stroke-width="0.1pt" /><polygon fill="none" points="716.656508459188,359.7745755368149 717.759327056688,362.2945626062355 752.7154469292219,356.33504476383376 752.7154469292219,332.5274378268736 750.8189114388092,331.4025228652671 749.9965020020221,331.5268154458752 716.656508459188,359.7745755368149" stroke="rgb(255, 0, 0)" stroke-width="0.1pt" /><polygon fill="none" points="704.0530765785725,368.71234457498184 700.0017700930973,365.53347568442297 650.2098428409156,381.35528491276347 648.9127151644176,431.3520147981963 712.0680923361488,392.8773759786945 705.1558951760724,371.2323316444024 704.0530765785725,368.71234457498184" stroke="rgb(255, 0, 0)" stroke-width="0.1pt" /><polygon fill="none" points="741.9224276041871,272.7500647460292 725.0718203463447,275.4937680115409 708.7783221947843,302.30668441003434 739.11593286681,298.105541710146 744.8274634529018,276.7848942635033 741.9224276041871,272.7500647460292" stroke="rgb(255, 0, 0)" stroke-width="0.1pt" /><polygon fill="none" points="701.5489301410881,300.77280366978795 717.8424282926485,273.9598872712946 677.4217962469156,246.77152690231972 680.6579244622401,307.7338373952013 687.3975371180138,312.330268946859 701.5489301410881,300.77280366978795" stroke="rgb(255, 0, 0)" stroke-width="0.1pt" /><polygon fill="none" points="706.7514351110021,310.129880722117 692.6000420879278,321.6873459991879 708.5090490153275,352.1122776573626 712.5603555008024,355.2911465479214 745.9003490436367,327.0433864569817 737.0890457830277,305.9287380222286 706.7514351110021,310.129880722117" stroke="rgb(255, 0, 0)" stroke-width="0.1pt" /><polygon fill="none" points="754.9120120374105,281.41167622486876 749.0932944356937,279.0060088143557 743.3817638496018,300.3266562609984 752.1930671102108,321.44130469575146 753.0154765469979,321.3170121151434 754.9120120374105,319.4946384370536 754.9120120374105,281.41167622486876" stroke="rgb(255, 0, 0)" stroke-width="0.1pt" /><polygon fill="none" points="619.317304809278,296.9426688500762 624.4878354379774,262.18704435876447 589.5910654825454,258.941269418745 619.317304809278,296.9426688500762" stroke="rgb(255, 0, 0)" stroke-width="0.1pt" /><polygon fill="none" points="614.8224488770343,297.9883715333773 585.0962095503018,259.98697210204614 568.0678795897862,256.4958623949621 560.9634439050083,264.2158735198953 614.181351960256,307.96379475697296 614.8224488770343,297.9883715333773" stroke="rgb(255, 0, 0)" stroke-width="0.1pt" /><polygon fill="none" points="273.21225674754425,75.28714357437345 288.5895032900299,40.32348544697899 266.9484417345672,40.32348544697899 250.0554230969739,45.673109793826654 238.96812233795376,72.8159050419392 273.21225674754425,75.28714357437345" stroke="rgb(255, 0, 0)" stroke-width="0.1pt" /><polygon fill="none" points="174.76726246209924,39.52839073898781 181.46922832071556,65.86811686206127 226.98828007200285,72.48616818539715 227.6927850788392,72.020810333948 238.78008583785936,44.87801508583548 238.4063859969096,39.52839073898781 174.76726246209924,39.52839073898781" stroke="rgb(255, 0, 0)" stroke-width="0.1pt" /><polygon fill="none" points="305.6972292041029,82.34388228592688 348.3835403469357,54.43697354084127 345.03687269859586,47.472102891857986 324.6636481904586,40.61999378142434 298.4763329454906,40.61999378142434 283.0990864030049,75.58365190881878 305.6972292041029,82.34388228592688" stroke="rgb(255, 0, 0)" stroke-width="0.1pt" /><polygon fill="none" points="38.695913581350815,69.5638161782672 39.839334527673266,70.23548541810193 67.84515172820839,43.35798765234864 63.02788091596115,38.87098645572921 50.71907697231379,38.87098645572921 38.695913581350815,41.56947021800468 38.695913581350815,69.5638161782672" stroke="rgb(255, 0, 0)" stroke-width="0.1pt" /><polygon fill="none" points="701.169629036852,40.13811580595308 694.8374976621333,40.94418448268716 661.1823899081518,66.16525808125397 662.4324025846188,68.54872504666096 675.4008915558757,75.5073024655784 714.9651675262342,52.293148280074924 711.8888919567196,40.13811580595308 701.169629036852,40.13811580595308" stroke="rgb(255, 0, 0)" stroke-width="0.1pt" /><polygon fill="none" points="748.6643674450482,82.92803128750569 720.9184803463401,57.74430867834115 681.3542043759818,80.95846286384463 722.579849013213,108.77867899251054 748.6643674450482,96.01450173937535 748.6643674450482,82.92803128750569" stroke="rgb(255, 0, 0)" stroke-width="0.1pt" /><polygon fill="none" points="551.6057747423431,114.28768653903376 552.9094769240991,112.0311518953198 554.2449254828878,73.67512057589927 540.8139540676405,57.66347987181872 476.6567636705763,80.08466252850235 479.99924555821303,101.67077264985723 551.6057747423431,114.28768653903376" stroke="rgb(255, 0, 0)" stroke-width="0.1pt" /><polygon fill="none" points="376.25442502030637,995.453683876998 415.5973240341179,1018.7497662624374 421.6289651174809,1014.4953137539222 417.09681588166916,946.6090369431024 407.41152366569344,943.6526613854589 377.74979956106273,973.1301150000381 375.194945429767,987.1939974969642 376.25442502030637,995.453683876998" stroke="rgb(255, 0, 0)" stroke-width="0.1pt" /><polygon fill="none" points="157.17068051643167,1138.2216186577887 154.844082838449,1134.751612941324 82.19779755399688,1141.79450981019 80.33067846101851,1143.4063397782309 97.42874645382719,1181.8902116403924 130.0801749499357,1181.8902116403924 143.15949255400596,1171.625459236368 157.17068051643167,1138.2216186577887" stroke="rgb(255, 0, 0)" stroke-width="0.1pt" /><polygon fill="none" points="152.75254980899254,1119.181382896434 124.28876062252795,1090.5851835326264 106.37029398119881,1090.9165911059745 81.99403724725333,1133.1098296373127 154.64032253170546,1126.0669327684468 152.75254980899254,1119.181382896434" stroke="rgb(255, 0, 0)" stroke-width="0.1pt" /><polygon fill="none" points="342.01868026503803,1047.3725114310412 361.88044902098466,1078.9401855706988 410.110034862529,1059.9354729307963 410.6057286611243,1031.084659147262 371.2628296473128,1007.7885767618227 355.64884258527456,1018.1730782346814 342.01868026503803,1047.3725114310412" stroke="rgb(255, 0, 0)" stroke-width="0.1pt" /><polygon fill="none" points="281.25903838832886,992.1120834021675 345.08157685613236,1007.1586712281962 360.69556391817054,996.7741697553375 359.6360843276312,988.5144833753038 312.9496933006828,966.874160520353 281.25903838832886,992.1120834021675" stroke="rgb(255, 0, 0)" stroke-width="0.1pt" /><polygon fill="none" points="502.32184117961833,432.6644487294008 497.08956299173326,444.7011748834141 509.5345969858446,475.4258969928981 521.1540412539392,475.56419985651735 545.8683025706948,464.6583982424722 532.9999446372655,433.5719637159072 502.32184117961833,432.6644487294008" stroke="rgb(255, 0, 0)" stroke-width="0.1pt" /><polygon fill="none" points="468.50164871141584,308.87131572833414 445.72454093909755,308.8634917367701 432.322990324377,336.71929768214716 438.4724441517466,357.3565722528028 475.140763625625,368.2808023041518 512.526383781175,338.76479941437515 512.9191140300336,334.7315046782904 512.1028535951575,331.81052877692593 468.50164871141584,308.87131572833414" stroke="rgb(255, 0, 0)" stroke-width="0.1pt" /><polygon fill="none" points="521.9794350830027,349.05361051234803 484.5938149274528,378.5696134021246 484.3501517290371,396.40798771021997 501.43264941577087,419.814713686937 532.1107528734179,420.7222286734434 548.8687035546569,384.5155216522551 521.9794350830027,349.05361051234803" stroke="rgb(255, 0, 0)" stroke-width="0.1pt" /><polygon fill="none" points="531.8546671989816,327.701707140302 609.4399695034332,314.03039991041805 609.099477833982,312.8426050474543 555.8815697787343,269.09468381037664 544.7477870533047,275.2940834808852 531.0384067641055,324.7807312389376 531.8546671989816,327.701707140302" stroke="rgb(255, 0, 0)" stroke-width="0.1pt" /><polygon fill="none" points="475.4798285937991,297.5990030434243 519.0810334775408,320.5382160920161 532.79041376674,271.05156833396376 491.59541536467333,240.00563791732964 487.926696298289,239.98061916684034 475.4798285937991,297.5990030434243" stroke="rgb(255, 0, 0)" stroke-width="0.1pt" /><polygon fill="none" points="431.2990365489136,301.0679403688159 419.06338638171246,282.4578307802203 375.95537964398477,268.71134069173655 359.56325482553916,283.11271179064283 380.93581206755687,320.44204886727624 417.897485934193,328.92374631419295 431.2990365489136,301.0679403688159" stroke="rgb(255, 0, 0)" stroke-width="0.1pt" /><polygon fill="none" points="466.2018012968311,294.70034053034783 478.648669001321,237.08195665376383 463.80722949351735,231.68048204310438 431.1890433573116,276.08240695018816 443.4246935245128,294.69251653878376 466.2018012968311,294.70034053034783" stroke="rgb(255, 0, 0)" stroke-width="0.1pt" /><polygon fill="none" points="618.139451360329,337.8631944125395 573.80501281463,381.5811256151417 587.378388925487,388.89753265553145 626.211834674312,368.2422339872317 618.139451360329,337.8631944125395" stroke="rgb(255, 0, 0)" stroke-width="0.1pt" /><polygon fill="none" points="629.7830929733478,376.4638477762591 590.9496472245227,397.11914644455885 626.0619776559037,444.76583652902417 633.0626749078118,441.5792499592779 637.8711193863408,434.08592231083003 639.1682470628388,384.0891924253972 629.7830929733478,376.4638477762591" stroke="rgb(255, 0, 0)" stroke-width="0.1pt" /><polygon fill="none" points="568.8529093766653,395.94688647275575 561.4485792985037,394.46073977426715 544.6906286172648,430.6674467954555 557.558986550694,461.7538813220204 596.9193470165014,479.587350077284 617.5386159189031,450.90998359761085 582.4262854875223,403.2632935131455 568.8529093766653,395.94688647275575" stroke="rgb(255, 0, 0)" stroke-width="0.1pt" /><polygon fill="none" points="611.8738540079178,333.82977191709404 612.6952626213612,324.2508798400614 611.2238494657133,322.8950433153319 533.6385471612617,336.56635054521587 533.245816912403,340.5996452813007 560.1350853840572,376.06155642120774 567.5394154622188,377.54770311969634 611.8738540079178,333.82977191709404" stroke="rgb(255, 0, 0)" stroke-width="0.1pt" /><polygon fill="none" points="629.3990029308941,333.30406863760794 637.4713862448771,363.68310821230017 646.856540334368,371.30845286143824 696.6484675865499,355.48664363309774 680.7394606591504,325.0617119749231 673.9998480033764,320.4652804232654 630.2204115443374,323.72517656057516 629.3990029308941,333.30406863760794" stroke="rgb(255, 0, 0)" stroke-width="0.1pt" /><polygon fill="none" points="667.6779573926608,548.6558857972828 661.8880764364615,528.3983666864267 607.6362600027417,507.96421028262614 593.5969718416377,551.180205874665 593.4236244805453,555.1589886775513 658.6824799571035,564.0371535525659 667.6779573926608,548.6558857972828" stroke="rgb(255, 0, 0)" stroke-width="0.1pt" /><polygon fill="none" points="673.295048141353,512.1889641688998 690.904269970114,480.3846347625119 638.8375251233722,457.5910130265474 631.8368278714642,460.77759959629367 611.2175589690622,489.4549660759668 611.6645380310833,497.68828673560415 665.9163544648029,518.1224431394047 673.295048141353,512.1889641688998" stroke="rgb(255, 0, 0)" stroke-width="0.1pt" /><polygon fill="none" points="717.2345124325026,555.192769990621 680.3385492109893,555.0916548445392 671.343071775432,570.4729225998224 676.17228131501,581.6659203830851 699.2889923756472,596.7827392860006 717.2345124325026,555.192769990621" stroke="rgb(255, 0, 0)" stroke-width="0.1pt" /><polygon fill="none" points="753.0165698242583,510.791007486471 735.536933936667,496.8700874148375 726.7601087262594,532.3843635264651 727.4270390308686,546.1730306073455 753.0165698242583,556.4656728050459 753.0165698242583,510.791007486471" stroke="rgb(255, 0, 0)" stroke-width="0.1pt" /><polygon fill="none" points="720.59400729047,527.3734863339665 729.3708325008777,491.8592102223389 726.6581508427754,481.7446939629658 702.9094688724931,483.4891161089811 685.3002470437323,515.293445515369 720.59400729047,527.3734863339665" stroke="rgb(255, 0, 0)" stroke-width="0.1pt" /><polygon fill="none" points="754.1525358411639,446.2428126805104 733.9602182954704,476.1925451168799 736.6728999535725,486.307061376253 754.1525358411639,500.2279814478865 754.1525358411639,446.2428126805104" stroke="rgb(255, 0, 0)" stroke-width="0.1pt" /><polygon fill="none" points="725.6180905035537,557.3385594895266 724.9645504533694,557.7619648174915 707.019030396514,599.351934112871 708.7777318876867,603.3686169818636 750.7699759714085,603.7989870530232 751.2076212969434,601.4920067987962 751.2076212969434,567.631201687227 725.6180905035537,557.3385594895266" stroke="rgb(255, 0, 0)" stroke-width="0.1pt" /><polygon fill="none" points="717.7339746724198,534.1600572210159 682.4402144256819,522.0800164024183 675.0615207491318,528.0134953729233 680.8514017053313,548.2710144837795 717.7473649268446,548.3721296298612 718.400904977029,547.9487243018963 717.7339746724198,534.1600572210159" stroke="rgb(255, 0, 0)" stroke-width="0.1pt" /><polygon fill="none" points="728.0727319602383,792.8149726086974 721.0972867156701,795.6596947895641 683.1118939499195,839.3586423071071 681.5988531530696,846.7263556123147 707.9129434967236,876.1692680597675 740.2247505656289,865.2663499236999 748.7874985961832,857.0203520538113 748.7874985961832,816.2799995168131 735.7735250816716,798.6162308338623 728.0727319602383,792.8149726086974" stroke="rgb(255, 0, 0)" stroke-width="0.1pt" /><polygon fill="none" points="754.9155022071241,790.9879347421083 741.9015286926121,790.4808823298973 754.9155022071241,808.144651012848 754.9155022071241,790.9879347421083" stroke="rgb(255, 0, 0)" stroke-width="0.1pt" /><polygon fill="none" points="585.1040572900877,1008.0970225472204 580.7834822106672,992.7093450797252 501.34553828466886,987.6285547025886 497.6484882043505,997.0272416091524 519.8546508508067,1038.7002513949244 585.1040572900877,1008.0970225472204" stroke="rgb(255, 0, 0)" stroke-width="0.1pt" /><polygon fill="none" points="591.9843707976922,1017.5419360205976 526.7349643584114,1048.1451648683017 529.0188767096183,1074.6377331715305 553.390244486872,1083.9330090864426 565.1007687684515,1085.500348415284 617.8457746956383,1066.6686786235812 618.4863126711804,1055.1488355545396 591.9843707976922,1017.5419360205976" stroke="rgb(255, 0, 0)" stroke-width="0.1pt" /><polygon fill="none" points="483.80823760373084,1005.9991207618333 435.0432771879737,1028.6282717985493 429.0116361046107,1032.8827243070643 428.5159423060154,1061.7335380905988 441.7316823191345,1080.7701332067634 475.9895750636879,1096.1076860197827 508.29831260139406,1074.1646988508342 506.014400250187,1047.6721305476053 483.80823760373084,1005.9991207618333" stroke="rgb(255, 0, 0)" stroke-width="0.1pt" /><polygon fill="none" points="480.960493916004,990.0882889333902 484.6575439963224,980.6896020268265 481.60313983852166,946.5256741766075 480.82863005572875,945.1085044922377 427.6633842644352,944.8311631592863 432.1955335002469,1012.7174399701062 480.960493916004,990.0882889333902" stroke="rgb(255, 0, 0)" stroke-width="0.1pt" /><polygon fill="none" points="581.9609970481987,983.2492235297499 587.1688730311694,964.573210326706 573.718798513557,936.1727970795939 499.4686489643997,944.0045053023943 502.5230531222004,978.1684331526133 581.9609970481987,983.2492235297499" stroke="rgb(255, 0, 0)" stroke-width="0.1pt" /><polygon fill="none" points="486.33825508049,1184.8119899918847 487.7281195570835,1169.8692954427795 483.17885731044834,1156.8278091873935 477.5993989412101,1151.196384090438 441.3182280537446,1174.1599853839414 444.9502394716487,1184.8119899918847 486.33825508049,1184.8119899918847" stroke="rgb(255, 0, 0)" stroke-width="0.1pt" /><polygon fill="none" points="492.01201048493573,1146.1714859790786 528.2416735639481,1145.1498765643885 541.3024996448896,1096.6715641601913 516.9311318676359,1087.3762882452793 484.6223943299298,1109.3192754142278 486.4325521156975,1140.540060882123 492.01201048493573,1146.1714859790786" stroke="rgb(255, 0, 0)" stroke-width="0.1pt" /><polygon fill="none" points="500.41994356251337,1169.5669092836465 529.7878150575116,1184.5096038327517 570.7855293840879,1184.5096038327517 566.1676970277128,1176.7530641251165 532.1003443948906,1155.5038136135704 495.8706813158782,1156.5254230282603 500.41994356251337,1169.5669092836465" stroke="rgb(255, 0, 0)" stroke-width="0.1pt" /><polygon fill="none" points="524.4197326533224,1186.754775454241 495.0518611583242,1171.8120809051363 493.66199668173067,1186.754775454241 524.4197326533224,1186.754775454241" stroke="rgb(255, 0, 0)" stroke-width="0.1pt" /><polygon fill="none" points="719.9910243145994,1025.1074724128823 679.58542096463,994.9492734941558 650.4494876259358,1040.210389111603 717.4976961970262,1029.024423630374 719.9910243145994,1025.1074724128823" stroke="rgb(255, 0, 0)" stroke-width="0.1pt" /><polygon fill="none" points="717.1862909974061,1038.664171321011 650.1380824263157,1049.85013680224 640.5722197568233,1057.9705177046676 639.9316817812811,1069.490360773709 658.0181128433042,1094.35785287394 709.0447513206366,1097.2127776201494 716.5488063429771,1090.3804212348034 717.1862909974061,1038.664171321011" stroke="rgb(255, 0, 0)" stroke-width="0.1pt" /><polygon fill="none" points="689.9539644653923,957.5790930400689 748.7203713439583,971.6885336775491 748.7203713439583,936.3473807551446 707.9834174370778,897.9435540133368 686.9115728256666,951.5531262498298 689.9539644653923,957.5790930400689" stroke="rgb(255, 0, 0)" stroke-width="0.1pt" /><polygon fill="none" points="753.0242348797691,1017.5559726116214 731.3452177943179,1031.918770377897 728.8518896767448,1035.835721595389 728.2144050223159,1087.5519715091812 747.42523181148,1083.2986004255704 751.7511799962399,1080.1578591344985 753.0242348797691,1078.5484786290526 753.0242348797691,1017.5559726116214" stroke="rgb(255, 0, 0)" stroke-width="0.1pt" /><polygon fill="none" points="689.8914392116443,967.9131667702839 686.5732256547897,989.1228309124912 726.9788290047591,1019.2810298312177 748.6578460902101,1004.9182320649419 748.6578460902101,982.0226074077641 689.8914392116443,967.9131667702839" stroke="rgb(255, 0, 0)" stroke-width="0.1pt" /><polygon fill="none" points="752.43300502079,883.1507471300168 743.8702569902357,877.3395041411457 711.5584499213304,888.2424222772134 711.6960511139094,889.4210914163059 752.43300502079,927.8249181581136 752.43300502079,883.1507471300168" stroke="rgb(255, 0, 0)" stroke-width="0.1pt" /><polygon fill="none" points="675.862470369932,943.5668308452152 696.9343149813433,889.9572586087221 696.7967137887641,888.7785894696297 670.4826234451101,859.3356770221768 633.059381392241,872.8568495580802 649.1802776820498,940.5460852902545 675.862470369932,943.5668308452152" stroke="rgb(255, 0, 0)" stroke-width="0.1pt" /><polygon fill="none" points="673.2720442825718,968.2552205875431 670.2296526428458,962.2292537973042 643.5474599549638,959.2085082423436 605.6373937475926,971.175791045144 600.4295177646219,989.8518042481879 604.7500928440425,1005.2394817156832 631.2520347175306,1042.8463812496252 640.8178973870229,1034.7260003471977 669.9538307257171,989.4648847297506 673.2720442825718,968.2552205875431" stroke="rgb(255, 0, 0)" stroke-width="0.1pt" /><polygon fill="none" points="38.02875051495652,779.6462507121954 50.31958894547929,790.0127594158166 58.860272207017225,770.2501447759724 38.02875051495652,739.8992393795455 38.02875051495652,779.6462507121954" stroke="rgb(255, 0, 0)" stroke-width="0.1pt" /><polygon fill="none" points="78.19124583355695,724.9175044941126 66.96126094351749,714.9662276582156 40.5308328883986,706.3784675452217 40.5308328883986,732.7371173394213 61.362354580459304,763.0880227358482 70.58132421015745,752.8336172615838 76.53918469242925,740.1836021645511 78.19124583355695,724.9175044941126" stroke="rgb(255, 0, 0)" stroke-width="0.1pt" /><polygon fill="none" points="102.33032616214956,709.9761407012978 95.17776145278322,672.9564407998586 82.14474343228304,685.06406873381 72.96491263085038,708.2620712608172 84.19489752088984,718.2133480967141 102.33032616214956,709.9761407012978" stroke="rgb(255, 0, 0)" stroke-width="0.1pt" /><polygon fill="none" points="258.3128709073003,761.512522122199 337.0425024014662,737.5491880829776 337.2388010763809,726.0782245206327 286.506141055263,715.6226784453681 258.3128709073003,761.512522122199" stroke="rgb(255, 0, 0)" stroke-width="0.1pt" /><polygon fill="none" points="419.1735631279967,796.336977428088 386.07330202283947,863.9038071657553 394.06645255046465,868.9157138768421 465.8318093129251,864.6912297005106 419.1735631279967,796.336977428088" stroke="rgb(255, 0, 0)" stroke-width="0.1pt" /><polygon fill="none" points="375.7822564168579,878.4210895155713 357.1340853071303,879.0313747695484 342.4973682742182,916.3550875477817 371.7461020588844,959.8928258761132 401.4078261635151,930.415372261534 383.77540694448305,883.4329962266581 375.7822564168579,878.4210895155713" stroke="rgb(255, 0, 0)" stroke-width="0.1pt" /><polygon fill="none" points="469.7203239893785,876.8619701671187 397.95496722691803,881.0864543434502 415.58738644595013,928.0688303783261 425.27267866192585,931.0252059359696 478.43792445321947,931.302547268921 479.12687328066977,899.0860252927258 469.9851383253681,876.9537210359852 469.7203239893785,876.8619701671187" stroke="rgb(255, 0, 0)" stroke-width="0.1pt" /><polygon fill="none" points="426.49462005898243,788.7628583124671 473.1528662439108,857.1171105848897 473.41768057990043,857.2088614537562 483.5795844056897,843.3781742098756 472.0274652178109,770.0598376645136 458.1708976055203,767.0398921673415 450.5122490487951,767.9187434179807 426.52583671084864,788.1817197539788 426.49462005898243,788.7628583124671" stroke="rgb(255, 0, 0)" stroke-width="0.1pt" /><polygon fill="none" points="78.03645946103224,948.5962272241643 119.70043200343797,1002.8981808309586 145.83519401365947,997.6930179430842 113.89483603051688,949.9844389177308 78.03645946103224,948.5962272241643" stroke="rgb(255, 0, 0)" stroke-width="0.1pt" /><polygon fill="none" points="280.584837850866,811.4685848363094 280.8052456807402,812.3388231968778 312.93764959127657,844.2599186985083 317.76608922487395,847.135423588009 338.0153333382725,852.8456216183201 344.0747720743924,782.3497364525804 280.584837850866,811.4685848363094" stroke="rgb(255, 0, 0)" stroke-width="0.1pt" /><polygon fill="none" points="354.8188930594324,781.6782756193747 348.7594543233126,852.1741607851144 357.4688187904245,858.8029623360842 376.1169899001521,858.192677082107 409.21725100530927,790.6258473444396 409.24846765717547,790.0447087859513 360.68304044982074,772.7728831093516 354.8188930594324,781.6782756193747" stroke="rgb(255, 0, 0)" stroke-width="0.1pt" /><polygon fill="none" points="317.47748662661655,861.9955459092159 292.1804921567175,896.2358912380604 292.54014138750574,916.1494989743525 317.98354248171074,920.0571331867195 331.79937817421484,911.6582582687302 346.436095207127,874.3345454904968 337.7267307400151,867.705743939527 317.47748662661655,861.9955459092159" stroke="rgb(255, 0, 0)" stroke-width="0.1pt" /><polygon fill="none" points="306.66943822564116,855.827106966691 263.96799885412133,882.9687562361697 263.8848596876463,883.9615844898201 286.20088338933954,892.9429571850361 311.49787785923854,858.7026118561917 306.66943822564116,855.827106966691" stroke="rgb(255, 0, 0)" stroke-width="0.1pt" /><polygon fill="none" points="271.34484321379983,818.5352374939592 246.7773199307505,852.3121277807777 260.7758077528164,877.5979822650685 303.47724712433626,850.4563329955898 271.34484321379983,818.5352374939592" stroke="rgb(255, 0, 0)" stroke-width="0.1pt" /><polygon fill="none" points="277.04384662855466,802.3168236985083 340.533780852081,773.1979753147792 346.39792824246933,764.2925828047562 337.7628555006743,744.7604641026968 259.03322400650836,768.7237981419182 255.7281735976248,771.3814250719618 277.04384662855466,802.3168236985083" stroke="rgb(255, 0, 0)" stroke-width="0.1pt" /><polygon fill="none" points="175.8114457308335,830.8385307467205 179.40768393976617,871.5181659580419 206.94006364441486,846.7814323961682 184.12406742576442,814.4960817940696 175.8114457308335,830.8385307467205" stroke="rgb(255, 0, 0)" stroke-width="0.1pt" /><polygon fill="none" points="192.20628425112804,808.0439033406371 215.02228046977845,840.3292539427358 230.9787928063624,847.0866798818677 237.98142426317966,844.671686441217 262.548947546229,810.8947961543986 262.32853971635484,810.0245577938302 241.01286668542497,779.0891591672837 225.73275536878967,774.4206765648044 192.20827718023105,808.0255436458845 192.20628425112804,808.0439033406371" stroke="rgb(255, 0, 0)" stroke-width="0.1pt" /><polygon fill="none" points="182.43388243675128,878.0978156702089 180.78064246912794,886.2893201893811 203.5036481078098,900.050263359613 225.92277447798392,860.118508047467 209.96626214139997,853.3610821083353 182.43388243675128,878.0978156702089" stroke="rgb(255, 0, 0)" stroke-width="0.1pt" /><polygon fill="none" points="170.97266823345103,833.7426553505653 156.19649284527586,840.6008025948697 147.66478920567377,856.2907027236661 168.97970328752487,883.2940502008676 172.91566647476034,882.6137950810589 174.56890644238368,874.4222905618866 170.97266823345103,833.7426553505653" stroke="rgb(255, 0, 0)" stroke-width="0.1pt" /><polygon fill="none" points="38.648447548011596,610.571856737689 40.48593944090321,614.3680768048206 53.88499287603179,613.3245834104293 61.86585382008824,581.9348610370521 59.13247444660389,582.5134012313575 38.648447548011596,596.1625453851268 38.648447548011596,610.571856737689" stroke="rgb(255, 0, 0)" stroke-width="0.1pt" /><polygon fill="none" points="58.19102914014165,579.2311159068055 37.707002241549354,578.8113624295888 37.707002241549354,592.8802600605748 58.19102914014165,579.2311159068055" stroke="rgb(255, 0, 0)" stroke-width="0.1pt" /><polygon fill="none" points="36.153124324407635,620.2733580979937 37.99061621729924,617.8339439875323 36.153124324407635,614.0377239204007 36.153124324407635,620.2733580979937" stroke="rgb(255, 0, 0)" stroke-width="0.1pt" /><polygon fill="none" points="62.359422337535804,573.7096231278955 65.40998717448208,570.4965652761631 67.2393819999565,556.0557612234055 55.767231830067885,542.5534374052911 39.14201606545916,541.7226077589635 39.14201606545916,573.8684098449843 59.62604296405145,574.288163322201 62.359422337535804,573.7096231278955" stroke="rgb(255, 0, 0)" stroke-width="0.1pt" /><polygon fill="none" points="101.3187202098056,613.3441531815502 70.08302373636424,622.7660113875038 77.19967720937382,648.1364234419626 98.74163454733203,654.5004032157532 130.17283590585507,636.7434431511099 101.3187202098056,613.3441531815502" stroke="rgb(255, 0, 0)" stroke-width="0.1pt" /><polygon fill="none" points="94.47753006377243,660.8490203056307 72.93557272581424,654.4850405318401 53.66933769173333,666.8598159346092 79.54852652376402,678.484055256848 92.5815445442642,666.3764273228965 94.47753006377243,660.8490203056307" stroke="rgb(255, 0, 0)" stroke-width="0.1pt" /><polygon fill="none" points="60.86985092671169,624.3346839368498 54.225744669139715,621.6959583593703 40.82669123401113,622.7394517537614 38.98919934111952,625.1788658642228 38.98919934111952,665.663616304696 48.72026936564038,662.0798713940778 67.98650439972127,649.7050959913088 60.86985092671169,624.3346839368498" stroke="rgb(255, 0, 0)" stroke-width="0.1pt" /><polygon fill="none" points="96.86413024629806,606.616948326018 96.76347590486095,606.1895710783524 70.01575329628746,578.7973007293823 66.96518845934116,582.0103585811147 58.98432751528472,613.400080954492 65.6284337728567,616.0388065319717 96.86413024629806,606.616948326018" stroke="rgb(255, 0, 0)" stroke-width="0.1pt" /><polygon fill="none" points="138.7777169851751,645.9088246827503 107.34651562665205,663.6657847473934 105.45053010714382,669.1931917646592 112.60309481651015,706.2128916660986 157.76006066429085,706.8046316059166 174.97788922782271,697.5256766303773 174.50561155344465,677.9308516042504 165.05745752233898,660.7455574270277 140.43470981438088,646.1006596973474 138.7777169851751,645.9088246827503" stroke="rgb(255, 0, 0)" stroke-width="0.1pt" /><polygon fill="none" points="107.29591699292341,606.0653467985302 136.15003268897286,629.46463676809 137.80702551817865,629.656471782687 144.34325146349178,578.3069459631678 125.4437378348245,573.7008682626963 114.11185346020642,573.9625015449009 107.19526265148629,605.6379695508646 107.29591699292341,606.0653467985302" stroke="rgb(255, 0, 0)" stroke-width="0.1pt" /><polygon fill="none" points="264.4781791525129,689.3910540449394 255.96439817070262,665.7593945226334 245.11120122962376,658.5168155656469 229.70741994770518,661.8979183056696 191.90553119695514,678.206871231924 192.37780887133323,697.8016962580509 196.55704834349703,702.3793642383221 264.4781791525129,689.3910540449394" stroke="rgb(255, 0, 0)" stroke-width="0.1pt" /><polygon fill="none" points="272.2997841656915,702.1210083606018 266.983008779124,698.3775643307731 199.06187797010813,711.3658745241556 227.97628807136832,757.4889067160616 243.25639938800362,762.157389318541 246.56144979688716,759.4997623884974 274.75471994484985,713.6099187116665 272.2997841656915,702.1210083606018" stroke="rgb(255, 0, 0)" stroke-width="0.1pt" /><polygon fill="none" points="235.37723669558756,498.86174980122485 236.32541440737296,494.1685839537413 175.3284265276523,487.0990400453243 179.36285803236416,515.700343332089 221.90627768196399,515.6884986581329 233.56748574520378,502.1156532872436 235.37723669558756,498.86174980122485" stroke="rgb(255, 0, 0)" stroke-width="0.1pt" /><polygon fill="none" points="167.77129750761915,516.5965573247612 163.73686600290733,487.9952540379965 161.58294877094505,484.4520868064022 133.29034477742647,483.4265798633986 119.90911771769504,494.97487931616524 125.24375252648515,522.9924627480294 125.54728594192844,523.6968625428126 133.97789199954033,527.1839052980533 162.8718602195992,532.4335976414255 167.77129750761915,516.5965573247612" stroke="rgb(255, 0, 0)" stroke-width="0.1pt" /><polygon fill="none" points="240.6658498850421,509.0279206636331 229.00464182180227,522.6007660345223 225.51535436060325,553.4594305569008 254.37490920608548,554.360209322552 240.6658498850421,509.0279206636331" stroke="rgb(255, 0, 0)" stroke-width="0.1pt" /><polygon fill="none" points="211.7890939100374,593.3075559089442 207.61446695757826,572.0211905578067 179.85173377492748,562.5299524786923 182.13799277408327,631.3778624952712 211.7890939100374,593.3075559089442" stroke="rgb(255, 0, 0)" stroke-width="0.1pt" /><polygon fill="none" points="208.65626348469243,561.6425599741738 217.450039213749,554.0358716486028 220.939326674948,523.1772071262244 178.39590702534812,523.1890518001806 173.4964697373282,539.0260921168448 176.11294191670223,549.1511938255139 180.89353030204165,552.1513218950593 208.65626348469243,561.6425599741738" stroke="rgb(255, 0, 0)" stroke-width="0.1pt" /><polygon fill="none" points="176.02001796588294,634.3605992634509 173.73375896672715,565.512689246872 168.9531705813877,562.5125611773267 151.4470664362888,580.088869378256 144.9108404909757,631.4383951977755 169.53358819893378,646.0832929274559 176.02001796588294,634.3605992634509" stroke="rgb(255, 0, 0)" stroke-width="0.1pt" /><polygon fill="none" points="214.72568800931288,602.4577891514699 185.07458687335875,640.528095737797 178.5881571064096,652.250789401802 188.03631113751527,669.4360835790246 225.83819988826528,653.1271306527702 231.47952564499457,608.223206304612 214.72568800931288,602.4577891514699" stroke="rgb(255, 0, 0)" stroke-width="0.1pt" /><polygon fill="none" points="482.85968503811597,683.3005967820262 473.11300585701906,706.0142784921233 462.7251031569789,751.6284760092487 476.5816707692695,754.6484215064208 494.72438004008177,752.2519653341785 503.66672425517976,746.7108375553423 482.85968503811597,683.3005967820262" stroke="rgb(255, 0, 0)" stroke-width="0.1pt" /><polygon fill="none" points="753.9518123062346,186.55726275293728 749.8253638282744,185.18572487513651 730.2069501703172,221.93066310225868 749.7810993047187,232.55581866959545 753.9518123062346,230.5063278698825 753.9518123062346,186.55726275293728" stroke="rgb(255, 0, 0)" stroke-width="0.1pt" /><polygon fill="none" points="751.0007475480204,241.73224965779778 746.4477070991046,266.70746451453806 749.3527429478195,270.7422940320122 755.1714605495362,273.14796144252523 755.1714605495362,239.6827588580848 751.0007475480204,241.73224965779778" stroke="rgb(255, 0, 0)" stroke-width="0.1pt" /><polygon fill="none" points="688.7993259711151,211.8934341905045 724.4732867144869,217.90464308670215 744.091700372444,181.15970485958002 714.8667176401541,159.1027977277845 713.5938010256068,160.2580719932965 688.7993259711151,211.8934341905045" stroke="rgb(255, 0, 0)" stroke-width="0.1pt" /><polygon fill="none" points="637.6580138844699,208.79300136425326 623.1221967209026,175.8000925734941 578.5206340364804,178.6601227915199 575.4581222171381,210.14656772009795 577.9333896322635,217.45969764524793 637.6580138844699,208.79300136425326" stroke="rgb(255, 0, 0)" stroke-width="0.1pt" /><polygon fill="none" points="651.486711292568,226.78873569637736 639.1963475422981,216.70221263345127 579.4717232900917,225.36890891444594 572.5373199206306,248.0806420754196 589.5656498811461,251.57175178250367 624.462419836578,254.81752672252316 651.486711292568,226.78873569637736" stroke="rgb(255, 0, 0)" stroke-width="0.1pt" /><polygon fill="none" points="677.3679951032227,229.02027951262843 681.4675897427179,239.22298457173943 721.8882217884508,266.4113449407143 738.7388290462931,263.66764167520256 743.2918694952089,238.69242681846225 723.7177203608072,228.06727125112548 688.0437596174353,222.0560623549278 677.3679951032227,229.02027951262843" stroke="rgb(255, 0, 0)" stroke-width="0.1pt" /><polygon fill="none" points="664.9833124708875,236.2084349657146 659.5636130430369,235.32987652627057 632.539321587047,263.35866755241636 627.3687909583475,298.114292043728 626.7276940415693,308.08971526732364 627.0681857110203,309.2775101302875 628.5395988666683,310.6333466550169 672.3190353257073,307.37345051770717 669.0829071103828,246.4111400248256 664.9833124708875,236.2084349657146" stroke="rgb(255, 0, 0)" stroke-width="0.1pt" /><polygon fill="none" points="352.7864989168018,373.3831326057119 370.26665392700403,325.5754427115816 348.8940966849863,288.2461056349482 315.25982632264703,293.4793370202505 322.351219648499,333.10410341775173 352.7864989168018,373.3831326057119" stroke="rgb(255, 0, 0)" stroke-width="0.1pt" /><polygon fill="none" points="362.0851561253585,382.2248005828771 364.5017052138476,399.67017681524936 378.96380014307897,407.7018425426139 422.6764388295665,363.5360827063191 416.52698500219697,342.89880813566344 379.56531113556076,334.4171106887468 362.0851561253585,382.2248005828771" stroke="rgb(255, 0, 0)" stroke-width="0.1pt" /><polygon fill="none" points="308.66596328007864,190.06109117984838 307.33873562982717,271.68967503230675 313.9429894307933,273.8200271346064 347.5772597931326,268.5867957493041 363.9693846115782,254.18542465039772 372.58568702713694,211.02906030568022 351.0335972048656,179.21884470607836 328.65086223729367,178.8414647768333 308.66596328007864,190.06109117984838" stroke="rgb(255, 0, 0)" stroke-width="0.1pt" /><polygon fill="none" points="312.6693911070671,118.59263143289903 330.2102892104092,155.8903748005123 352.59302417798114,156.26775472975734 370.2552732592933,129.1429863966605 374.14422263634935,76.82323344077514 354.609734771474,64.83679839407942 311.92342362864116,92.74370713916502 312.6693911070671,118.59263143289903" stroke="rgb(255, 0, 0)" stroke-width="0.1pt" /><polygon fill="none" points="246.8155710108576,122.32302510369097 297.41771580880965,116.71902070251438 296.6717483303837,90.8700964087804 274.0736055292857,84.10986603167231 239.82947111969523,81.63862749923805 239.12496611285886,82.1039853506872 246.8155710108576,122.32302510369097" stroke="rgb(255, 0, 0)" stroke-width="0.1pt" /><polygon fill="none" points="56.46222792839781,100.13174318775292 55.99175542173634,103.4998673836878 83.98722229929022,117.7654315119972 94.55617675065031,93.63463377585761 94.38910233417172,80.3267997867085 93.68149320165276,79.95833720196411 56.46222792839781,100.13174318775292" stroke="rgb(255, 0, 0)" stroke-width="0.1pt" /><polygon fill="none" points="88.29453375135544,122.12718040894306 103.8788015933586,141.17049966519278 111.7861124858459,128.39609234419325 98.86348820271553,97.99638267280345 88.29453375135544,122.12718040894306" stroke="rgb(255, 0, 0)" stroke-width="0.1pt" /><polygon fill="none" points="103.96805898931896,79.52305650835679 104.13513340579755,92.83089049750589 117.05775768892792,123.23060016889568 156.5618883933264,88.83409365150946 158.12426271985407,82.28738548689397 103.96805898931896,79.52305650835679" stroke="rgb(255, 0, 0)" stroke-width="0.1pt" /><polygon fill="none" points="98.97638793617466,40.06900737803696 93.49927985067663,46.28901601811145 104.15389403753281,71.33040248816145 104.86150317005178,71.69886507290585 159.01770690058686,74.46319405144303 166.20918823418882,66.4087335011104 159.5072223755724,40.06900737803696 98.97638793617466,40.06900737803696" stroke="rgb(255, 0, 0)" stroke-width="0.1pt" /><polygon fill="none" points="54.25073318172185,94.37414064045556 91.46999845497679,74.20073465466676 80.81538426812061,49.15934818461675 71.47899917704072,47.42634074116169 43.4731819765056,74.30383850691499 54.25073318172185,94.37414064045556" stroke="rgb(255, 0, 0)" stroke-width="0.1pt" /><polygon fill="none" points="53.557505250394165,117.54785360308995 49.1222064340408,124.07305390586941 42.107005605516925,178.63249463311044 42.107005605516925,226.50072432597605 94.98513628331705,190.2382737325031 97.1372399699512,150.85673698764907 81.55297212794804,131.81341773139937 53.557505250394165,117.54785360308995" stroke="rgb(255, 0, 0)" stroke-width="0.1pt" /><polygon fill="none" points="504.1857504370354,158.46888090861313 468.9522435885179,134.96527821696432 454.6929499012613,149.97654692843133 450.9767106608598,194.02234649094012 453.93973143051704,196.42276708308634 504.1857504370354,158.46888090861313" stroke="rgb(255, 0, 0)" stroke-width="0.1pt" /><polygon fill="none" points="441.4255156486862,151.52062782133075 382.42555749768206,141.15504095091433 364.7633084163699,168.27980928401115 386.3153982386413,200.09002488361304 437.7092764082848,195.56642738383957 441.4255156486862,151.52062782133075" stroke="rgb(255, 0, 0)" stroke-width="0.1pt" /><polygon fill="none" points="442.675883333359,211.0061003381519 439.71286256370183,208.60567974600568 388.31898439405836,213.12927724577915 379.7026819784996,256.28564159049665 422.8106887162273,270.0321316789804 455.428874852433,225.6302067718966 442.675883333359,211.0061003381519" stroke="rgb(255, 0, 0)" stroke-width="0.1pt" /><polygon fill="none" points="459.35760536516847,122.7126835535548 460.5607494091647,104.58677507328376 457.218267521528,83.00066495192887 431.7735411221291,64.59445589402823 389.9873029039637,75.03861243872001 386.09835352690766,127.35836539460534 445.0983116779118,137.7239522650218 459.35760536516847,122.7126835535548" stroke="rgb(255, 0, 0)" stroke-width="0.1pt" /><polygon fill="none" points="512.5172005046599,151.9932021957175 518.5364724708991,154.21072153811437 543.6945906127056,143.47670444350848 550.0933668842688,122.98060491297413 478.48683770013866,110.36369102379761 477.2836936561424,128.48959950406865 512.5172005046599,151.9932021957175" stroke="rgb(255, 0, 0)" stroke-width="0.1pt" /><polygon fill="none" points="506.40291605657717,212.14903021594372 554.7536424023143,210.20516058686394 518.1641373864877,191.10468561969765 506.40291605657717,212.14903021594372" stroke="rgb(255, 0, 0)" stroke-width="0.1pt" /><polygon fill="none" points="508.0582303823626,218.16279779712056 497.84646570991305,230.6966005913068 539.0414641119797,261.7425310079409 550.1752468374093,255.54313133743233 557.2796825221872,247.8231202124991 564.2140858916483,225.11138705152544 561.738818476523,217.79825712637546 556.4089567280997,216.21892816804078 508.0582303823626,218.16279779712056" stroke="rgb(255, 0, 0)" stroke-width="0.1pt" /><polygon fill="none" points="522.116770164893,186.02598590225296 558.7062751807196,205.12646086941925 564.0361369291428,206.70578982775393 567.0986487484851,175.21934489917587 550.304043183835,153.0831495711096 525.1459250420285,163.8171666657155 522.116770164893,186.02598590225296" stroke="rgb(255, 0, 0)" stroke-width="0.1pt" /><polygon fill="none" points="498.84379020685464,210.5864974688759 510.6050115367652,189.54215287262986 513.6341664139007,167.3333336360924 507.6148944476615,165.11581429369548 457.3688754411432,203.0697004681687 470.1218669602172,217.6938069019134 484.96330646802085,223.09528151257285 488.6320255344051,223.12030026306215 498.84379020685464,210.5864974688759" stroke="rgb(255, 0, 0)" stroke-width="0.1pt" /><polygon fill="none" points="147.86340512942294,1052.852239115003 131.30846680688063,1084.4660617801483 159.77225599334523,1113.0622611439558 174.29417653190512,1084.2863945874224 147.86340512942294,1052.852239115003" stroke="rgb(255, 0, 0)" stroke-width="0.1pt" /><polygon fill="none" points="153.86718696391512,995.1776302145161 188.0015879457617,987.7326252518722 141.12291741808062,916.6193437837492 121.5641692447453,947.3615255401886 153.50452722788788,995.070104565542 153.86718696391512,995.1776302145161" stroke="rgb(255, 0, 0)" stroke-width="0.1pt" /><polygon fill="none" points="140.6154842094119,1044.9634646325687 146.84981950731677,1011.7656984516996 146.48715977128958,1011.6581728027255 120.35239776106805,1016.8633356905998 98.59436938848073,1023.7102875746326 85.01149739286551,1051.8721224079836 106.14207924554044,1076.9086948710622 124.06054588686958,1076.577287297714 140.6154842094119,1044.9634646325687" stroke="rgb(255, 0, 0)" stroke-width="0.1pt" /><polygon fill="none" points="754.1814231971623,735.3851239662886 742.4506752845949,753.4324297179977 733.9234669763334,776.6133027937071 754.1814231971623,773.234118530459 754.1814231971623,735.3851239662886" stroke="rgb(255, 0, 0)" stroke-width="0.1pt" /><polygon fill="none" points="724.6046913483542,773.5548182176396 733.1318996566157,750.3739451419302 684.4373326567385,716.7069387306736 660.5319643510587,730.0959798025801 717.1724356886699,777.3310210914998 724.1478809332383,774.4862989106331 724.6046913483542,773.5548182176396" stroke="rgb(255, 0, 0)" stroke-width="0.1pt" /><polygon fill="none" points="749.1719675745269,722.0811098052835 726.1274199585026,683.8267885753618 714.7187314433055,681.5124178814215 688.7466526620822,709.9058641436208 737.4412196619594,743.5728705548773 749.1719675745269,725.5255648031682 749.1719675745269,722.0811098052835" stroke="rgb(255, 0, 0)" stroke-width="0.1pt" /><polygon fill="none" points="753.9277169034524,777.7323464059326 733.6697606826235,781.1115306691809 733.2129502675076,782.0430113621743 740.9137433889406,787.8442695873391 753.9277169034524,788.3513219995501 753.9277169034524,777.7323464059326" stroke="rgb(255, 0, 0)" stroke-width="0.1pt" /><polygon fill="none" points="754.079621031998,658.4300802492969 731.0350734159738,678.4145199032365 754.079621031998,716.6688411331583 754.079621031998,658.4300802492969" stroke="rgb(255, 0, 0)" stroke-width="0.1pt" /><polygon fill="none" points="117.75379675110807,806.6241465348324 74.5187969735043,823.8476757254448 99.12244570275462,858.2929818380187 112.8739374936606,851.6563072753362 127.9805047235322,833.2177937649602 117.75379675110807,806.6241465348324" stroke="rgb(255, 0, 0)" stroke-width="0.1pt" /><polygon fill="none" points="118.89510838006919,860.8837369833752 105.1436165891632,867.5204115460576 105.83148737962193,873.2773313376657 137.6560794487353,899.4062111348193 163.02131334914904,887.2968753680905 141.70639926729794,860.2935278908891 118.89510838006919,860.8837369833752" stroke="rgb(255, 0, 0)" stroke-width="0.1pt" /><polygon fill="none" points="134.44071496871706,836.1243278275161 119.33414773884545,854.5628413378921 142.14543862607422,853.972632245406 150.67714226567628,838.2827321166096 134.44071496871706,836.1243278275161" stroke="rgb(255, 0, 0)" stroke-width="0.1pt" /><polygon fill="none" points="130.17663230289548,793.2425617564384 171.86461300233185,801.2071486472028 139.47925979279455,756.8337398675534 135.48331915707783,761.1863052555128 129.56082769608935,777.3389855400031 130.17663230289548,793.2425617564384" stroke="rgb(255, 0, 0)" stroke-width="0.1pt" /><polygon fill="none" points="118.21882660783075,794.7671608610341 117.60302200102461,778.8635846445987 76.00751844581967,764.4337200692646 66.78854881612152,774.688125543529 58.24786555458359,794.4507401833732 59.21892023541825,810.6340252030753 70.90790944746058,815.5891856870124 114.14290922506437,798.3656564964001 118.21882660783075,794.7671608610341" stroke="rgb(255, 0, 0)" stroke-width="0.1pt" /><polygon fill="none" points="127.20571817083788,756.3317006880318 85.64558363691621,745.4045013001553 79.68772315464443,758.054516397188 121.28322670984939,772.4843809725221 127.20571817083788,756.3317006880318" stroke="rgb(255, 0, 0)" stroke-width="0.1pt" /><polygon fill="none" points="134.22600678892536,746.5446448375193 153.61438724945512,717.0584457115655 108.45742140167442,716.4667057717475 90.32199276041472,724.7039131671636 88.66993161928698,739.9700108376021 130.23006615320867,750.8972102254787 134.22600678892536,746.5446448375193" stroke="rgb(255, 0, 0)" stroke-width="0.1pt" /><polygon fill="none" points="178.93759810390313,795.5329696452613 182.72762530329285,796.6999740173761 216.25210349185147,763.0951069362959 187.33769339059128,716.9720747443899 183.15845391842745,712.3944067641189 165.9406253548956,721.673361739658 146.55224489436583,751.1595608656119 178.93759810390313,795.5329696452613" stroke="rgb(255, 0, 0)" stroke-width="0.1pt" /><polygon fill="none" points="131.14306732209707,799.8834505784978 127.06714993933068,803.4819462138639 137.29385791175483,830.0755934439917 153.53028520871405,832.2339977330851 168.30646059688922,825.3758504887807 176.61908229182012,809.0334015361298 176.62107522092316,809.0150418413771 172.83104802153343,807.8480374692622 131.14306732209707,799.8834505784978" stroke="rgb(255, 0, 0)" stroke-width="0.1pt" /><polygon fill="none" points="65.31187044624927,935.0604377906229 88.96803779131275,882.4419706726401 41.25483109091754,896.7797880501005 41.25483109091754,905.7469847245562 52.45362115916814,934.9998272133114 62.87047910954218,935.8774185432491 65.31187044624927,935.0604377906229" stroke="rgb(255, 0, 0)" stroke-width="0.1pt" /><polygon fill="none" points="88.67587511230434,872.0528181995714 91.20507025501794,869.007983757118 90.51719946455921,863.2510639655101 65.91355073530889,828.8057578529362 54.22456152326655,823.850597368999 40.962668411909114,832.0753558351562 40.962668411909114,886.390635577032 88.67587511230434,872.0528181995714" stroke="rgb(255, 0, 0)" stroke-width="0.1pt" /><polygon fill="none" points="36.93323250568755,947.195724709799 48.132022573938144,939.8587323075287 36.93323250568755,910.6058898187737 36.93323250568755,947.195724709799" stroke="rgb(255, 0, 0)" stroke-width="0.1pt" /><polygon fill="none" points="73.37395615421886,936.2184944545181 75.84387041663557,936.5735882099542 111.70224698612022,937.9617999035207 131.26099515945555,907.2196181470813 131.38391071110934,906.6840726912355 99.55931864199596,880.555192894082 97.03012349928235,883.6000273365353 73.37395615421886,936.2184944545181" stroke="rgb(255, 0, 0)" stroke-width="0.1pt" /><polygon fill="none" points="39.7009668956665,999.9164382102936 75.04265236457587,1001.0009527999565 61.31661491429114,949.7435082268839 50.899756963917085,948.8659168969461 39.7009668956665,956.2029092992165 39.7009668956665,999.9164382102936" stroke="rgb(255, 0, 0)" stroke-width="0.1pt" /><polygon fill="none" points="70.64771862159968,950.7969825372713 68.20632728489258,951.6139632898976 81.93236473517732,1002.87140786297 93.0235770538348,1012.3009817835344 114.78160542642212,1005.4540298995016 73.11763288401637,951.1520762927073 70.64771862159968,950.7969825372713" stroke="rgb(255, 0, 0)" stroke-width="0.1pt" /><polygon fill="none" points="245.63623182634947,607.2367851748277 238.7218336207963,606.9195297149963 233.08050786406702,651.8234540631545 248.48428914598557,648.4423513231318 256.7797081587726,633.910530355421 245.63623182634947,607.2367851748277" stroke="rgb(255, 0, 0)" stroke-width="0.1pt" /><polygon fill="none" points="438.0067365679787,688.7636421489209 477.5505782241708,656.9359159245931 484.39060195468267,640.9975761373861 482.695009754266,640.1901020028552 414.2410921995073,658.7566298596323 401.53025851105264,680.211364457576 421.24900452501083,696.9429452876265 438.0067365679787,688.7636421489209" stroke="rgb(255, 0, 0)" stroke-width="0.1pt" /><polygon fill="none" points="443.2828069855514,691.7079074690305 469.81479591286154,696.8367531666969 479.5614750939585,674.1230714565999 482.82664864174353,659.880181244703 443.2828069855514,691.7079074690305" stroke="rgb(255, 0, 0)" stroke-width="0.1pt" /><polygon fill="none" points="499.2630494671436,646.1265742799565 492.4230257366317,662.0649140671635 489.1578521888467,676.3078042790605 509.9648914059104,739.7180450523767 544.4441071672288,724.4826459125384 513.9835041577336,645.6698692494399 499.2630494671436,646.1265742799565" stroke="rgb(255, 0, 0)" stroke-width="0.1pt" /><polygon fill="none" points="496.90111377769045,624.8636232101228 511.62156846828043,624.406918179606 551.3537819025046,597.8966959081836 487.2443642242629,542.0808771559985 479.9398540248975,540.077880057813 465.2095098563804,586.2369636719491 495.20552157727377,624.0561490755919 496.90111377769045,624.8636232101228" stroke="rgb(255, 0, 0)" stroke-width="0.1pt" /><polygon fill="none" points="412.01241057288166,710.4542985566853 392.2936645589234,693.7227177266349 380.5819248222585,696.6561864156364 364.0339869102761,706.0304021010659 356.2649666742127,725.8849582784047 356.068667999298,737.3559218407496 364.70374074109304,756.888040542809 413.2691679484478,774.1598662194087 437.25558028639426,753.8968898834106 412.01241057288166,710.4542985566853" stroke="rgb(255, 0, 0)" stroke-width="0.1pt" /><polygon fill="none" points="439.3986231812813,699.3917372036619 422.64089113831346,707.5710403423675 447.8840608518261,751.013631669093 455.54270940855133,750.1347804184537 465.93061210859145,704.5205829013282 439.3986231812813,699.3917372036619" stroke="rgb(255, 0, 0)" stroke-width="0.1pt" /><polygon fill="none" points="406.43645735382694,625.645365106588 414.2769676364126,649.1706598727797 482.7308851911713,630.6041320160027 452.7348734702779,592.7849466123598 427.09994146599394,589.2080127064802 406.43645735382694,625.645365106588" stroke="rgb(255, 0, 0)" stroke-width="0.1pt" /><polygon fill="none" points="374.0590735185864,621.4268303896479 356.2963207332009,624.2640475861975 378.0724480254293,679.1174133102203 389.7841877620943,676.1839446212186 402.49502145054896,654.7292100232748 394.6545111679633,631.2039152570832 374.0590735185864,621.4268303896479" stroke="rgb(255, 0, 0)" stroke-width="0.1pt" /><polygon fill="none" points="284.01327706139267,491.24077659493014 296.2581166416756,448.34077328444386 296.0424516602744,446.9218676638241 250.53893942077156,469.43587688184465 250.46708239539151,488.045625746458 284.01327706139267,491.24077659493014" stroke="rgb(255, 0, 0)" stroke-width="0.1pt" /><polygon fill="none" points="279.7629990003195,536.1152999880749 297.34400258237895,507.89924692185036 284.3304694785095,498.98643961409965 250.7842748125083,495.79128876562754 250.64771461421654,495.9866138469689 249.69953690243116,500.67977969445246 279.7629990003195,536.1152999880749" stroke="rgb(255, 0, 0)" stroke-width="0.1pt" /><polygon fill="none" points="406.89070588578477,559.1247339782955 426.47878252367246,575.4087658474933 452.1137145279564,578.985699753373 466.8440586964735,532.8266161392369 463.58647871169194,526.0336135249545 409.4488339959235,532.9135700507136 406.89070588578477,559.1247339782955" stroke="rgb(255, 0, 0)" stroke-width="0.1pt" /><polygon fill="none" points="388.0221103391029,571.7033164212393 377.1803109766782,610.5869145984194 397.77574862605513,620.3639994658547 418.43923273822213,583.9266470657469 398.8511561003344,567.6426151965492 388.0221103391029,571.7033164212393" stroke="rgb(255, 0, 0)" stroke-width="0.1pt" /><polygon fill="none" points="330.94130048477393,502.5901849567807 331.1953772988746,502.32568138737776 303.37101471242283,450.65621758402244 291.12617513213996,493.5562208945087 304.13970823600937,502.4690282022594 330.94130048477393,502.5901849567807" stroke="rgb(255, 0, 0)" stroke-width="0.1pt" /><polygon fill="none" points="134.15142009549456,402.1449899372512 115.58275505402901,429.55440508067875 134.03308115685488,469.2482785546208 162.32568515037343,470.2737854976244 185.2509809424308,417.07717682448896 134.15142009549456,402.1449899372512" stroke="rgb(255, 0, 0)" stroke-width="0.1pt" /><polygon fill="none" points="100.77224167028908,350.20863221727416 59.96368597310011,389.2267027184376 70.15395740923897,429.2401588011916 103.96785958446297,421.1024004006769 122.53652462592854,393.69298525724935 100.77224167028908,350.20863221727416" stroke="rgb(255, 0, 0)" stroke-width="0.1pt" /><polygon fill="none" points="52.74532619476751,246.6855064199596 106.57172125226484,299.19974265068424 154.62050245044654,292.07976883788683 182.14728889987148,245.25523298594274 166.25512294949795,228.10344042952343 113.47665334804043,206.10426716507592 105.62345687256762,206.81317026671823 52.74532619476751,243.07562086019115 52.74532619476751,246.6855064199596" stroke="rgb(255, 0, 0)" stroke-width="0.1pt" /><polygon fill="none" points="41.26470833030267,373.4239215703061 54.28200766926801,375.1155615843786 95.09056336645696,336.0974910832152 95.0911033878,313.3008961711698 41.26470833030267,260.7866599404453 41.26470833030267,373.4239215703061" stroke="rgb(255, 0, 0)" stroke-width="0.1pt" /><polygon fill="none" points="263.5918081810726,172.14661814049924 297.78611891437043,175.0802587703171 317.7710178715854,163.86063236730206 300.2301197682433,126.56288899968878 249.6279749702912,132.16689340086538 248.08352439650616,146.06247809740614 263.5918081810726,172.14661814049924" stroke="rgb(255, 0, 0)" stroke-width="0.1pt" /><polygon fill="none" points="258.253138679608,193.75642200837325 272.66292339904584,266.47122622030827 281.46441064107995,273.87964771961623 296.21271443564575,271.83567949162796 297.5399420858973,190.20709563916958 263.34563135259947,187.2734550093517 258.253138679608,193.75642200837325" stroke="rgb(255, 0, 0)" stroke-width="0.1pt" /><polygon fill="none" points="239.1306858013009,203.1597726953498 211.86758338223038,240.62058298940994 264.8704155033153,267.8161984496398 250.46063078387752,195.10139423770474 239.1306858013009,203.1597726953498" stroke="rgb(255, 0, 0)" stroke-width="0.1pt" /><polygon fill="none" points="155.85819843294485,155.2567263238467 164.69263875685232,136.8616268438307 158.57524049192918,98.54567778939429 119.07110978753073,132.94218430678052 111.16379889504341,145.71659162778002 109.01169520840926,185.09812837263408 116.86489168388208,184.38922527099177 155.85819843294485,155.2567263238467" stroke="rgb(255, 0, 0)" stroke-width="0.1pt" /><polygon fill="none" points="212.00662814210767,141.36742961354537 232.2942126263091,137.65331537667757 233.83866320009417,123.75773068013679 226.14805830209542,83.53869092713302 180.62900655080816,76.92063960379713 173.4375252172062,84.97510015412976 171.87515089067858,91.52180831874523 177.99254915560172,129.83775737318166 212.00662814210767,141.36742961354537" stroke="rgb(255, 0, 0)" stroke-width="0.1pt" /><polygon fill="none" points="638.1863772646774,114.13603707734502 633.6045014870169,150.5360565955904 634.2250947025576,152.8379689625991 662.4723583064324,144.01889998603355 651.0775143227731,90.40140123509883 638.1863772646774,114.13603707734502" stroke="rgb(255, 0, 0)" stroke-width="0.1pt" /><polygon fill="none" points="666.5395328360244,154.7794319892008 638.2922692321497,163.59850096576633 636.0141372505203,172.75817064038372 650.5499544140878,205.75107943114287 662.8403181643575,215.83760249406896 668.2600175922083,216.716160933513 678.9357821064209,209.75194377581238 703.7302571609127,158.11658157860438 666.5395328360244,154.7794319892008" stroke="rgb(255, 0, 0)" stroke-width="0.1pt" /><polygon fill="none" points="621.5504377633638,155.11497016217237 582.2508021720096,128.33767669106024 566.1992092015221,124.54775291950968 564.8955070197661,126.80428756322364 558.4967307482029,147.300387093758 575.2913363128531,169.43658242182426 619.8928989972752,166.57655220379846 622.1710309789046,157.41688252918107 621.5504377633638,155.11497016217237" stroke="rgb(255, 0, 0)" stroke-width="0.1pt" /><polygon fill="none" points="631.8350679151426,114.68417181031023 587.9535565461281,124.30689785744347 627.2531921374823,151.08419132855562 631.8350679151426,114.68417181031023" stroke="rgb(255, 0, 0)" stroke-width="0.1pt" /><polygon fill="none" points="658.6939113828831,88.45731702618141 670.0887553665423,142.07481577711616 707.2794796914304,145.41196536651972 708.5523963059779,144.2566911010077 715.8193090843928,115.50220124616256 674.5936644471616,87.68198511749665 661.6251754759045,80.72340769857921 658.6939113828831,88.45731702618141" stroke="rgb(255, 0, 0)" stroke-width="0.1pt" /><polygon fill="none" points="629.377467625008,107.08636807540124 642.2686046831038,83.35173223315505 645.1998687761253,75.61782290555284 643.9498560996583,73.23435594014583 641.9696214115874,71.41680368052869 570.7798118442946,74.5631390315634 569.4443632855059,112.91917035098392 585.4959562559935,116.70909412253448 629.377467625008,107.08636807540124" stroke="rgb(255, 0, 0)" stroke-width="0.1pt" /><polygon fill="none" points="404.51786781415757,1160.8617650506744 435.61682428194564,1166.679707388404 471.89799516941116,1143.7161060949006 470.08783738364343,1112.4953206270054 435.82994463909006,1097.157767813986 405.0009566093787,1143.7453246356247 404.51786781415757,1160.8617650506744" stroke="rgb(255, 0, 0)" stroke-width="0.1pt" /><polygon fill="none" points="361.3691853226413,1099.687503854296 396.24668429610676,1136.918603089505 427.0756723258181,1090.3310462678662 413.85993231269896,1071.2944511517017 365.6303464711546,1090.299163791604 361.3691853226413,1099.687503854296" stroke="rgb(255, 0, 0)" stroke-width="0.1pt" /><polygon fill="none" points="164.76147717251453,1187.1446039663315 149.3979114022152,1176.8798515623068 136.3185937981449,1187.1446039663315 164.76147717251453,1187.1446039663315" stroke="rgb(255, 0, 0)" stroke-width="0.1pt" /><polygon fill="none" points="210.26351805542834,1144.0264361202833 170.07779072658593,1139.0388973431302 156.06660276416022,1172.4427379217095 171.43016853445957,1182.707490325734 199.16964878975472,1182.707490325734 210.26351805542834,1144.0264361202833" stroke="rgb(255, 0, 0)" stroke-width="0.1pt" /><polygon fill="none" points="273.8910180751793,1057.0781304837294 275.34286789811244,1052.3777531692333 253.62599121191266,1002.7987843783756 226.55181937420502,990.4075540551414 207.9444747390107,1001.3726578103691 214.47921770166857,1055.2705438091764 221.59643801631395,1062.862240542674 273.8910180751793,1057.0781304837294" stroke="rgb(255, 0, 0)" stroke-width="0.1pt" /><polygon fill="none" points="198.25391562323563,982.9935698942261 216.86126025842998,972.0284661389985 220.88860015124615,945.1928560056066 219.71287660152362,940.6899703491088 200.76350338353552,912.4281889236128 178.04049774485367,898.6672457533808 174.1045345576182,899.3475008731895 148.73930065720447,911.4568366399183 148.61638510555068,911.9923820957641 195.49505563323174,983.1056635638871 198.25391562323563,982.9935698942261" stroke="rgb(255, 0, 0)" stroke-width="0.1pt" /><polygon fill="none" points="260.06518191250655,988.4020700622442 270.4821031157455,985.9454570867761 302.17275802809934,960.7075342049615 308.3494337091732,933.1451111526442 282.9060326149682,929.2374769402771 237.0183499676151,949.1752296056183 232.99101007479894,976.0108397390102 260.06518191250655,988.4020700622442" stroke="rgb(255, 0, 0)" stroke-width="0.1pt" /><polygon fill="none" points="202.77109110135967,1056.5759252653843 196.23634813870183,1002.6780392665769 193.47748814869794,1002.7901329362378 159.34308716685135,1010.2351378988817 153.10875186894646,1043.4329040797509 179.5395232714286,1074.8670595521703 202.77109110135967,1056.5759252653843" stroke="rgb(255, 0, 0)" stroke-width="0.1pt" /><polygon fill="none" points="288.32457684101746,1051.274578261082 327.21699750562357,1043.4850175171448 340.8471598258601,1014.2855843207849 277.02462135805655,999.2389964947562 266.6077001548177,1001.6956094702244 288.32457684101746,1051.274578261082" stroke="rgb(255, 0, 0)" stroke-width="0.1pt" /><polygon fill="none" points="214.00938727355168,1078.458726450695 206.89216695890627,1070.8670297171973 183.66059912897524,1089.1581640039835 169.13867859041534,1117.934030560517 171.02645131312826,1124.8195804325296 173.35304899111097,1128.2895861489942 213.5387763199534,1133.2771249261473 228.7886181794106,1129.8242795369263 214.00938727355168,1078.458726450695" stroke="rgb(255, 0, 0)" stroke-width="0.1pt" /><polygon fill="none" points="276.7425116488826,1070.4928242386209 224.4479315900173,1076.2769342975655 239.22716249587623,1127.6424873837968 255.99125976974472,1131.7228651287328 277.6039216306969,1091.359436135498 276.7425116488826,1070.4928242386209" stroke="rgb(255, 0, 0)" stroke-width="0.1pt" /><polygon fill="none" points="300.0965582712551,678.1697389509949 293.7093496199899,653.7322295685317 285.40992338953015,659.9438736687437 295.3407035292251,679.787197533838 300.0965582712551,678.1697389509949" stroke="rgb(255, 0, 0)" stroke-width="0.1pt" /><polygon fill="none" points="292.5881087600641,681.6251649372147 282.6573286203691,661.7818410721203 266.45305047633633,664.6760383548184 274.9668314581466,688.3076978771244 280.2836068447141,692.0511419069531 292.5881087600641,681.6251649372147" stroke="rgb(255, 0, 0)" stroke-width="0.1pt" /><polygon fill="none" points="303.7819849283628,676.6237137171431 328.09478547561105,673.850956576678 313.341557051412,633.5392284862974 297.3947762770978,652.18620433468 303.7819849283628,676.6237137171431" stroke="rgb(255, 0, 0)" stroke-width="0.1pt" /><polygon fill="none" points="305.40376501345105,684.8287637077453 300.6479102714211,686.4462222905885 288.34340835607117,696.872199260327 290.7983441352295,708.3611096113916 341.5310041563474,718.8166556866563 349.3000243924108,698.9620995093175 329.7165655606992,682.0560065672802 305.40376501345105,684.8287637077453" stroke="rgb(255, 0, 0)" stroke-width="0.1pt" /><polygon fill="none" points="309.54547029897293,606.2302047326849 311.1084437170588,606.4991335102397 316.01807337565947,602.8781796453136 326.0571291667709,568.6576876235432 284.4164625738624,553.8177681480205 272.11042781605533,564.6389572297012 274.9778428864236,585.1825433532194 309.54547029897293,606.2302047326849" stroke="rgb(255, 0, 0)" stroke-width="0.1pt" /><polygon fill="none" points="304.57019528980294,612.6163023975331 270.0025678772536,591.5686410180676 251.63597059421474,603.1361175126435 262.7794469266379,629.8098626932369 304.57019528980294,612.6163023975331" stroke="rgb(255, 0, 0)" stroke-width="0.1pt" /><polygon fill="none" points="260.3814393924737,564.529176838741 254.69272496064778,562.5652919328047 225.8331701151656,561.6645131671534 217.03939438610902,569.2712014927243 221.21402133856816,590.5575668438619 237.96785897424985,596.3229839970039 244.88225717980305,596.6402394568352 263.2488544628419,585.0727629622593 260.3814393924737,564.529176838741" stroke="rgb(255, 0, 0)" stroke-width="0.1pt" /><polygon fill="none" points="276.83236524866845,544.9534019343079 277.0017697862642,540.6600342587368 246.9383076883759,505.2245139651144 245.1285567379921,508.47841745113317 258.8376160590355,553.8107061100521 264.52633049086137,555.7745910159884 276.83236524866845,544.9534019343079" stroke="rgb(255, 0, 0)" stroke-width="0.1pt" /><polygon fill="none" points="329.0062824925595,559.8719286481553 330.29467426969103,558.5031244620366 331.9176162680708,512.6437451853583 305.1160240193062,512.522588430837 287.5350204372468,540.7386414970614 287.36561589965106,545.0320091726326 329.0062824925595,559.8719286481553" stroke="rgb(255, 0, 0)" stroke-width="0.1pt" /><polygon fill="none" points="326.8666390995866,605.2347282532733 350.7200486124983,612.7921359527188 368.48280139788375,609.9549187561693 379.32460076030844,571.0713205789891 338.19408666782954,569.6454320453843 336.905694890698,571.014236231503 326.8666390995866,605.2347282532733" stroke="rgb(255, 0, 0)" stroke-width="0.1pt" /><polygon fill="none" points="320.1119123605484,621.4070975333767 319.7664536563962,632.3533117449305 334.51968208059526,672.6650398353108 354.10314091230686,689.5711327773483 370.6510788242892,680.1969170919187 348.8749515320608,625.343551367896 325.02154201914914,617.7861436684503 320.1119123605484,621.4070975333767" stroke="rgb(255, 0, 0)" stroke-width="0.1pt" /><polygon fill="none" points="306.318042696346,618.4326830747082 264.5272943331809,635.6262433704119 256.2318753203939,650.1580643381229 267.08507226147276,657.4006432951094 283.28935040550556,654.5064460124113 291.5887766359653,648.2948019121994 307.53555741027964,629.6478260638168 307.8810161144318,618.7016118522631 306.318042696346,618.4326830747082" stroke="rgb(255, 0, 0)" stroke-width="0.1pt" /><polygon fill="none" points="438.9679630908068,467.7400380423945 419.35000166863904,454.05650449470505 395.23744175605043,450.62824465101835 382.8005824095401,486.193505543708 401.4647922526366,513.1067799867463 446.3830898681239,481.0419271870215 438.9679630908068,467.7400380423945" stroke="rgb(255, 0, 0)" stroke-width="0.1pt" /><polygon fill="none" points="392.6679921279704,523.7624906291419 374.0037822848739,496.8492161861035 342.92613796133924,511.95882615068365 342.67206114723865,512.2233297200866 341.0491191488588,558.082708996765 382.1796332413377,559.5085975303698 393.00867900256924,555.4478963056796 395.5668071127079,529.2367323780977 392.6679921279704,523.7624906291419" stroke="rgb(255, 0, 0)" stroke-width="0.1pt" /><polygon fill="none" points="382.4212322990482,445.1870696830864 370.4851384170247,424.4202378915452 356.0230434877933,416.38857216418063 318.32547749021313,423.70660178996854 310.86670106115037,442.77357111638116 311.0823660425514,444.19247673700085 338.90672862900317,495.86194054035616 369.9843729525379,480.752330575776 382.4212322990482,445.1870696830864" stroke="rgb(255, 0, 0)" stroke-width="0.1pt" /><polygon fill="none" points="452.3285395177552,487.07692352787154 407.4102419022679,519.1417763275964 410.3090568870054,524.6160180765523 464.4467016027738,517.7360615507932 465.18741322745353,504.40967364980065 452.3285395177552,487.07692352787154" stroke="rgb(255, 0, 0)" stroke-width="0.1pt" /><polygon fill="none" points="422.6610263698538,439.2997906547197 466.74966753719207,399.70154354264133 466.99333073560774,381.863169234546 430.3250112617293,370.938939183197 386.6123725752417,415.1046990194918 398.5484664572652,435.871530811033 422.6610263698538,439.2997906547197" stroke="rgb(255, 0, 0)" stroke-width="0.1pt" /><polygon fill="none" points="449.30445293811175,458.8533553982188 485.625352182131,441.0150268691814 490.85763037001607,428.9783007151681 473.77513268328227,405.57157473845103 429.686491515944,445.1698218505294 449.30445293811175,458.8533553982188" stroke="rgb(255, 0, 0)" stroke-width="0.1pt" /><polygon fill="none" points="452.27229494659105,466.4448303085216 459.68742172390813,479.7467194531486 472.5462954336065,497.0794695750777 501.03822818472156,479.33122388896817 488.59319419061023,448.6065017794842 452.27229494659105,466.4448303085216" stroke="rgb(255, 0, 0)" stroke-width="0.1pt" /><polygon fill="none" points="198.78459664743258,396.6304604591086 202.51416676309015,341.3923953495193 162.79827270466484,312.5173419184236 114.74949150648315,319.63731573122084 114.74895148514014,342.4339106432662 136.5132344407796,385.9182636832414 187.61279528771584,400.8504505704791 198.78459664743258,396.6304604591086" stroke="rgb(255, 0, 0)" stroke-width="0.1pt" /><polygon fill="none" points="208.0559904081305,417.1618064874734 196.88418904841376,421.38179659884395 173.95889325635642,474.57840527197936 176.11281048831867,478.12157250357376 237.10979836803935,485.1911164119907 237.24635856633108,484.99579133064935 237.31821559171112,466.38604246603603 208.1350275209533,417.19739450614554 208.0559904081305,417.1618064874734" stroke="rgb(255, 0, 0)" stroke-width="0.1pt" /><polygon fill="none" points="209.52075874188517,184.73144557064464 204.69860540344396,164.9265164642507 192.36938756187004,177.10767768249463 193.9655893729084,183.41326595790719 209.52075874188517,184.73144557064464" stroke="rgb(255, 0, 0)" stroke-width="0.1pt" /><polygon fill="none" points="201.60417818517138,160.53888104099067 208.54580905406553,150.6131338094591 174.53173006755955,139.0834615690954 165.69728974365208,157.47856104911142 189.27496034359746,172.72004225923462 201.60417818517138,160.53888104099067" stroke="rgb(255, 0, 0)" stroke-width="0.1pt" /><polygon fill="none" points="185.45581477597185,185.99400753207414 183.8596129649335,179.6884192566616 160.28194236498814,164.4469380465384 121.28863561592539,193.57943699368346 174.06710521738293,215.57861025813096 185.45581477597185,185.99400753207414" stroke="rgb(255, 0, 0)" stroke-width="0.1pt" /><polygon fill="none" points="215.44518250172976,183.38244824683235 236.9380906453826,190.56314317179877 248.26803562795922,182.5047647141537 253.36052830095065,176.02179771513212 237.85224451638416,149.93765767203902 217.5646600321827,153.65177190890682 210.62302916328855,163.57751914043843 215.44518250172976,183.38244824683235" stroke="rgb(255, 0, 0)" stroke-width="0.1pt" /><polygon fill="none" points="210.19949808812478,191.50432664743056 194.644328719148,190.18614703469305 183.2556191605591,219.77074976074988 199.1477851109326,236.92254231716922 204.4293038127071,236.1458318664571 231.69240623177762,198.68502157239695 210.19949808812478,191.50432664743056" stroke="rgb(255, 0, 0)" stroke-width="0.1pt" /><polygon fill="none" points="341.14428128190536,1098.3715548929997 346.1639541909673,1094.9639263535528 350.4251153394806,1085.5755862908609 330.563346583534,1054.0079121512033 291.67092591892794,1061.7974728951406 290.2190760959948,1066.497850209637 291.0804860778091,1087.3644621065139 338.224589479178,1098.939732914329 341.14428128190536,1098.3715548929997" stroke="rgb(255, 0, 0)" stroke-width="0.1pt" /><polygon fill="none" points="374.0833042291413,1174.3396664108002 343.05617398348954,1153.1145942903995 297.75215426954884,1162.8273955779666 288.36277428119075,1167.9385037171783 289.62432412633103,1175.501709987949 373.8513560503385,1174.8031926235017 374.0833042291413,1174.3396664108002" stroke="rgb(255, 0, 0)" stroke-width="0.1pt" /><polygon fill="none" points="270.7848261751298,1167.6644210020931 253.83922610992218,1145.4770785881913 237.0751288360537,1141.3967008432553 221.82528697659646,1144.8495462324763 210.73141771092284,1183.530600437927 272.0837371572304,1183.530600437927 272.04637602027015,1175.227627272864 270.7848261751298,1167.6644210020931" stroke="rgb(255, 0, 0)" stroke-width="0.1pt" /><polygon fill="none" points="372.1275580568026,1186.9129053980932 374.4792200372927,1177.9114148685828 290.25218811328534,1178.6099322330301 290.28954925024556,1186.9129053980932 372.1275580568026,1186.9129053980932" stroke="rgb(255, 0, 0)" stroke-width="0.1pt" /><polygon fill="none" points="290.74626564601937,1154.4665396242706 333.16805085477466,1108.6021471641604 286.0239474534058,1097.0268763563456 264.4112855924536,1137.3903053495803 281.3568856576613,1159.5776477634822 290.74626564601937,1154.4665396242706" stroke="rgb(255, 0, 0)" stroke-width="0.1pt" /><polygon fill="none" points="342.7327861687595,1147.2002272323637 342.7702434663016,1110.4804580384919 339.85055166357415,1111.0486360598209 297.42876645481886,1156.913028519931 342.7327861687595,1147.2002272323637" stroke="rgb(255, 0, 0)" stroke-width="0.1pt" /><polygon fill="none" points="382.06259961641007,1169.0877195832047 390.4870097556066,1162.0827893797439 390.97009855082774,1144.9663489646941 356.09259957736225,1107.735249729485 351.0729266683004,1111.142878268932 351.0354693707583,1147.8626474628038 382.06259961641007,1169.0877195832047" stroke="rgb(255, 0, 0)" stroke-width="0.1pt" /><polygon fill="none" points="433.30789023841356,1186.339711565534 429.67587882050947,1175.6877069575908 398.57692235272145,1169.8697646198611 390.1525122135249,1176.874694823322 389.92056403472213,1177.3382210360232 387.56890205423196,1186.339711565534 433.30789023841356,1186.339711565534" stroke="rgb(255, 0, 0)" stroke-width="0.1pt" /><polygon fill="none" points="236.1047202746851,317.83233745701864 250.12675286199362,308.8503947440651 269.15696997288603,286.7452537004389 260.35548273085186,279.33683220113096 207.35265060976695,252.14121674090114 202.07113190799245,252.91792719161327 174.54434545856748,299.7424630435574 214.26023951699278,328.6175164746531 236.1047202746851,317.83233745701864" stroke="rgb(255, 0, 0)" stroke-width="0.1pt" /><polygon fill="none" points="306.8378794236268,405.44942614214864 313.53401437722937,409.78426010238786 351.23158037480954,402.4662304766 348.81503128632045,385.0208542442277 318.37975201801765,344.7418250562675 299.26883206725216,369.7478704866696 306.8378794236268,405.44942614214864" stroke="rgb(255, 0, 0)" stroke-width="0.1pt" /><polygon fill="none" points="253.88830039390768,407.74987565943957 218.75647114621202,411.5740896467188 247.93965921696986,460.7627376066093 293.4431714564728,438.24872838858875 300.9019478855356,419.1817590621762 294.2058129319331,414.8469251019369 253.88830039390768,407.74987565943957" stroke="rgb(255, 0, 0)" stroke-width="0.1pt" /><polygon fill="none" points="259.14258675899964,370.76143536650466 239.04417190920236,333.58589963996087 217.19969115151008,344.3710786575953 213.4701210358525,399.6091437671846 213.54915814867528,399.6447317858567 248.68098739637097,395.8205177985775 259.14258675899964,370.76143536650466" stroke="rgb(255, 0, 0)" stroke-width="0.1pt" /><polygon fill="none" points="269.00060107278006,366.5467286893604 283.2724978725486,361.1132202621665 270.481418757668,341.6903909879961 269.00060107278006,366.5467286893604" stroke="rgb(255, 0, 0)" stroke-width="0.1pt" /><polygon fill="none" points="265.73482785261615,362.9703868115443 267.2156455375041,338.11404911018 257.842111619141,318.3815564777565 243.82007903183248,327.36349919071 263.9184938816298,364.53903491725373 265.73482785261615,362.9703868115443" stroke="rgb(255, 0, 0)" stroke-width="0.1pt" /><polygon fill="none" points="286.44661954576077,354.0960683823671 292.6452545940279,357.5528011343617 311.7561745447934,332.5467557039595 304.66478121894147,292.9219893064584 298.0605274179754,290.79163720415875 283.3122236234095,292.835605432147 264.2820065125171,314.9407464757732 273.6555404308802,334.67323910819675 286.44661954576077,354.0960683823671" stroke="rgb(255, 0, 0)" stroke-width="0.1pt" /><polygon fill="none" points="270.03878511178743,372.9487160623559 268.22245114080107,374.51736416806546 257.76085177817237,399.5764466001383 298.07836431619774,406.6734960426356 290.5093169598231,370.97194038715656 284.310681911556,367.515207635162 270.03878511178743,372.9487160623559" stroke="rgb(255, 0, 0)" stroke-width="0.1pt" /></svg>