<?xml version="1.0" encoding="utf-8" ?>
<svg baseProfile="full" height="11in" version="1.1" width="17in" xmlns="http://www.w3.org/2000/svg" xmlns:ev="http://www.w3.org/2001/xml-events" xmlns:xlink="http://www.w3.org/1999/xlink"><defs /><polygon fill="none" points="75.86134382502581,1176.436689564737 64.74759962970016,1151.422172854332 46.718398948193375,1146.7530594301568 46.718398948193375,1176.436689564737 75.86134382502581,1176.436689564737" stroke="rgb(255, 0, 0)" stroke-width="0.1pt" /><polygon fill="none" points="38.92531778837841,1098.1233036426083 48.43260060060824,1066.4682407803657 38.92531778837841,1061.1009227878353 38.92531778837841,1098.1233036426083" stroke="rgb(255, 0, 0)" stroke-width="0.1pt" /><polygon fill="none" points="51.00528394555111,1114.7544144130509 69.0344846270579,1119.4235278372262 70.24811203749384,1118.3758383579998 86.09267891455839,1090.9502333126297 72.35780071031968,1074.6764612116285 60.51256675778095,1077.0354905742674 51.00528394555111,1108.6905534365098 51.00528394555111,1114.7544144130509" stroke="rgb(255, 0, 0)" stroke-width="0.1pt" /><polygon fill="none" points="41.44484726233098,442.5720707989782 48.44565446169413,441.3760875612204 56.52976826614871,431.2403180905168 49.90609183265845,405.23157163672664 41.44484726233098,404.1320056275796 41.44484726233098,442.5720707989782" stroke="rgb(255, 0, 0)" stroke-width="0.1pt" /><polygon fill="none" points="664.8527702236327,1175.396043900846 646.9966655796846,1139.0259986149406 624.7962519265382,1167.359043352954 647.7590889282277,1175.396043900846 664.8527702236327,1175.396043900846" stroke="rgb(255, 0, 0)" stroke-width="0.1pt" /><polygon fill="none" points="671.2591783051807,1130.4662526241532 689.1152829491288,1166.8362979100584 714.621823000023,1166.8362979100584 720.2688315151292,1155.7639786558539 706.2533496452581,1123.269387354189 673.086034634992,1121.413686269153 671.2591783051807,1130.4662526241532" stroke="rgb(255, 0, 0)" stroke-width="0.1pt" /><polygon fill="none" points="85.60217805212555,478.29221819795094 103.00036158031574,477.79181221579177 111.69815916914116,470.2854175714936 99.70544720230436,444.48439981343125 77.72641078840876,449.7739427737658 69.64229698395418,459.90971224446946 85.60217805212555,478.29221819795094" stroke="rgb(255, 0, 0)" stroke-width="0.1pt" /><polygon fill="none" points="612.0747781978951,746.0926553157418 610.2401995942541,745.0335546822882 585.8734965615271,752.4644078527069 585.8081392930357,791.7525292049988 620.6942851226047,778.8791767027911 612.0747781978951,746.0926553157418" stroke="rgb(255, 0, 0)" stroke-width="0.1pt" /><polygon fill="none" points="494.79420096335093,829.9669898825995 518.2149389241681,816.5040171919902 499.07808451725765,780.7523746161565 487.2853234912297,782.3100711281143 494.79420096335093,829.9669898825995" stroke="rgb(255, 0, 0)" stroke-width="0.1pt" /><polygon fill="none" points="725.2323938930541,374.765226860853 729.7253220471038,388.83450567814293 747.9538718102012,405.44125221228853 747.9538718102012,370.891540263292 725.2323938930541,374.765226860853" stroke="rgb(255, 0, 0)" stroke-width="0.1pt" /><polygon fill="none" points="249.69394528595308,37.06992486936954 249.93685018257042,40.54718069482052 260.91731229700605,37.06992486936954 249.69394528595308,37.06992486936954" stroke="rgb(255, 0, 0)" stroke-width="0.1pt" /><polygon fill="none" points="461.04928886465314,43.49674402234285 458.6576117048136,53.48026189226643 475.1966838644228,65.44429777990185 516.8988576225146,50.87052905305749 517.119737517233,43.49674402234285 461.04928886465314,43.49674402234285" stroke="rgb(255, 0, 0)" stroke-width="0.1pt" /><polygon fill="none" points="571.5203313398116,43.60805642945555 571.2994514450932,50.981841460170195 580.0295828650038,61.38940791782256 626.3029590837442,59.34428993964998 623.9363330115797,43.60805642945555 571.5203313398116,43.60805642945555" stroke="rgb(255, 0, 0)" stroke-width="0.1pt" /><polygon fill="none" points="354.7328376239134,971.8050809869876 356.3934928092556,962.6635573639855 337.3818158492225,934.3640274505703 328.4015226490949,939.8232961472634 324.38668345639684,957.7388711312697 354.7328376239134,971.8050809869876" stroke="rgb(255, 0, 0)" stroke-width="0.1pt" /><polygon fill="none" points="600.1805535905207,576.0129784354132 591.6552260095856,596.7420591649668 618.3476203457825,619.7842542807659 645.7377958510093,589.0592341632935 642.5988096502836,581.7837856041727 600.1805535905207,576.0129784354132" stroke="rgb(255, 0, 0)" stroke-width="0.1pt" /><polygon fill="none" points="563.8299746625862,554.8440346930913 532.6483926967163,537.8802267668842 511.32797241949186,542.7250102710778 552.999093910349,579.0052924599981 555.1919712969411,578.1593242445211 563.7172988778763,557.4302435149674 563.8299746625862,554.8440346930913" stroke="rgb(255, 0, 0)" stroke-width="0.1pt" /><polygon fill="none" points="540.7108653720574,493.5254511485094 542.3427866504493,514.5066824276837 573.5243686163192,531.4704903538908 582.6499059210369,503.3800932190656 582.359369530723,498.02843479030133 556.7751352279485,486.43668009938 540.7108653720574,493.5254511485094" stroke="rgb(255, 0, 0)" stroke-width="0.1pt" /><polygon fill="none" points="718.1441032794992,458.8192091501636 731.2691096842,439.35188306652344 731.2691096842,431.864797746675 713.0405599211024,415.25805121252927 671.9895647594772,440.2665664452055 668.8640758484336,445.1372294166965 702.7074599988157,459.9530835450735 718.1441032794992,458.8192091501636" stroke="rgb(255, 0, 0)" stroke-width="0.1pt" /><polygon fill="none" points="695.787451696959,781.9216271511903 658.9711453275119,751.2188503133923 644.2643854340579,751.0680653688157 652.8838923587674,783.8545867558652 671.0969463992211,810.325943037593 695.787451696959,781.9216271511903" stroke="rgb(255, 0, 0)" stroke-width="0.1pt" /><polygon fill="none" points="706.9391705412509,642.0660549686734 718.877522581273,657.0107954655361 726.293170116151,658.5151364165973 741.2721260665667,645.5252506415366 741.2721260665667,623.5045873718959 740.9876566049691,623.0319318906114 713.6926979505499,622.7521913443577 706.9391705412509,642.0660549686734" stroke="rgb(255, 0, 0)" stroke-width="0.1pt" /><polygon fill="none" points="674.5458841573411,662.9799658731868 638.749176965086,663.4338971089866 637.5225570937814,703.8734375591881 639.3571356974223,704.9325381926417 654.0638955908762,705.0833231372181 669.602384989568,696.3804464404791 686.4842361973632,677.9247063700494 674.5458841573411,662.9799658731868" stroke="rgb(255, 0, 0)" stroke-width="0.1pt" /><polygon fill="none" points="678.992255513609,633.9234571343513 685.7457829229082,614.6095935100356 684.602626953646,611.9987496451905 669.5767647642317,602.1728173582953 642.186589259005,632.8978374757678 643.195548321354,634.3773883701512 678.992255513609,633.9234571343513" stroke="rgb(255, 0, 0)" stroke-width="0.1pt" /><polygon fill="none" points="748.7467736826832,1109.5713977129717 745.1074216882953,1106.5146866681846 732.6203842753386,1109.2793778725318 727.7427485108173,1113.7204095230068 741.7582303806884,1146.2150008246713 748.7467736826832,1144.7745086068849 748.7467736826832,1109.5713977129717" stroke="rgb(255, 0, 0)" stroke-width="0.1pt" /><polygon fill="none" points="751.2142881756685,1090.5539055938393 754.8536401700563,1093.6106166386262 754.8536401700563,1088.6581539691788 754.0261544957624,1088.5124237546424 751.2142881756685,1090.5539055938393" stroke="rgb(255, 0, 0)" stroke-width="0.1pt" /><polygon fill="none" points="754.2874503938891,866.4324465092998 748.7216641740289,871.7923451247271 754.2874503938891,875.5696530674935 754.2874503938891,866.4324465092998" stroke="rgb(255, 0, 0)" stroke-width="0.1pt" /><polygon fill="none" points="632.578191671144,1185.5270767544946 609.6153546694546,1177.4900762066025 599.6437338753037,1185.5270767544946 632.578191671144,1185.5270767544946" stroke="rgb(255, 0, 0)" stroke-width="0.1pt" /><polygon fill="none" points="594.7519704440252,1156.7341511786015 604.7235912381759,1148.697150630709 626.9240048913225,1120.3641058926958 628.7508612211337,1111.3115395376956 616.9946810308188,1095.1476696725454 582.7104271781473,1107.3882550371522 588.7528286538432,1151.6924003686386 591.7544196854869,1156.7341511786015 594.7519704440252,1156.7341511786015" stroke="rgb(255, 0, 0)" stroke-width="0.1pt" /><polygon fill="none" points="543.1776544686112,1143.5866828752928 565.3214336799456,1157.3986957077977 559.2790322042498,1113.0945503763114 551.6671914212232,1112.0757798125646 543.1776544686112,1143.5866828752928" stroke="rgb(255, 0, 0)" stroke-width="0.1pt" /><polygon fill="none" points="68.649841881546,684.8695205568616 51.82836914072604,677.3137649974065 45.50317362478749,679.6431991893082 45.50317362478749,694.3661781259704 62.682951860614764,699.9482221994163 68.649841881546,684.8695205568616" stroke="rgb(255, 0, 0)" stroke-width="0.1pt" /><polygon fill="none" points="71.1044762603152,1017.8285525773256 48.132380705524106,1017.1236180940447 48.132380705524106,1039.2546796374788 57.63966351775394,1044.6219976300092 69.48489747029268,1042.2629682673705 78.31376426744256,1023.9577756256924 71.1044762603152,1017.8285525773256" stroke="rgb(255, 0, 0)" stroke-width="0.1pt" /><polygon fill="none" points="216.88675057513825,900.9057211360188 229.2038431668305,919.2758790625911 245.05586978881672,890.4614782263628 245.10991024702545,889.81613986149 236.01089316268266,873.3803344467011 231.4591827157514,874.9500801831239 216.88675057513825,900.9057211360188" stroke="rgb(255, 0, 0)" stroke-width="0.1pt" /><polygon fill="none" points="242.87299034515848,929.0650869859264 243.63721065247816,931.9919626626502 273.4642043732576,919.0324234301781 273.23043237324526,906.0885784015884 258.7250169671447,900.250686149698 242.87299034515848,929.0650869859264" stroke="rgb(255, 0, 0)" stroke-width="0.1pt" /><polygon fill="none" points="112.67731866570946,531.6619042503277 98.60107971631668,531.2811160355761 101.30244658169194,546.0895421657618 102.2284933003067,546.2016113605303 112.87461538574757,532.1197641169367 112.67731866570946,531.6619042503277" stroke="rgb(255, 0, 0)" stroke-width="0.1pt" /><polygon fill="none" points="109.49642102740263,518.5624634475726 106.02890840168905,500.3510342168608 88.63072487349886,500.8514401990198 84.85533071538626,511.8750877784767 95.42018207800984,518.181675232821 109.49642102740263,518.5624634475726" stroke="rgb(255, 0, 0)" stroke-width="0.1pt" /><polygon fill="none" points="67.2918292538934,538.1089759029043 74.74872686432099,546.8854863846786 88.93695134431849,546.5968032072863 86.23558447894322,531.7883770771006 75.67073311631965,525.4817896227563 67.2918292538934,538.1089759029043" stroke="rgb(255, 0, 0)" stroke-width="0.1pt" /><polygon fill="none" points="44.22610405015009,519.2178598744345 55.03249429714576,519.7578991445475 63.41139815957201,507.1307128643995 67.18679231768462,496.1070652849426 51.22691124951324,477.72455933146114 44.22610405015009,478.9205425692189 44.22610405015009,519.2178598744345" stroke="rgb(255, 0, 0)" stroke-width="0.1pt" /><polygon fill="none" points="96.95191488488763,591.9447552453857 101.4476989105557,571.3557010415093 95.86927302448548,564.5766429016389 94.94322630587072,564.4645737068705 80.75500182587322,564.7532568842628 79.56589518931486,574.1397795185553 96.95191488488763,591.9447552453857" stroke="rgb(255, 0, 0)" stroke-width="0.1pt" /><polygon fill="none" points="124.68321671297177,540.7219671685721 119.20332277552403,538.4553893776656 108.55720069008314,552.5372366212591 114.13562657615336,559.3162947611297 121.50135141965511,559.1462331276966 124.68321671297177,540.7219671685721" stroke="rgb(255, 0, 0)" stroke-width="0.1pt" /><polygon fill="none" points="158.83555292203107,551.8774572360987 157.13484600543796,545.2961411254638 138.3537666623997,541.8838411022718 135.17190136908303,560.3081070613964 147.4565852277168,563.3020575667028 158.83555292203107,551.8774572360987" stroke="rgb(255, 0, 0)" stroke-width="0.1pt" /><polygon fill="none" points="509.8449310578832,927.4325672469456 558.1075282648354,922.3419569021255 560.5349709924444,908.3577383223967 536.2886748024965,899.7778124459888 509.78931643691044,905.5706676675784 509.34149969906775,926.5114069521053 509.8449310578832,927.4325672469456" stroke="rgb(255, 0, 0)" stroke-width="0.1pt" /><polygon fill="none" points="598.6657219836587,911.1583240964487 596.2382792560499,925.1425426761774 604.9808276924978,943.6028112868003 629.6223707272891,935.82407746498 619.1437881389132,891.8260742390667 612.6888805448486,892.4405975022136 598.6657219836587,911.1583240964487" stroke="rgb(255, 0, 0)" stroke-width="0.1pt" /><polygon fill="none" points="542.3118058844524,651.2091732882152 562.1111978406242,702.4374781192294 572.4386524978045,705.5237002271161 596.8053555305316,698.0928470566973 598.0319754018362,657.6533066064958 597.0230163394871,656.1737557121126 570.3306220032902,633.1315605963134 568.137744616698,633.9775288117905 542.3118058844524,651.2091732882152" stroke="rgb(255, 0, 0)" stroke-width="0.1pt" /><polygon fill="none" points="565.7931007912501,832.0629640810603 548.9474987545399,835.339152828323 552.3628207059908,858.264511698436 578.7608630592354,847.405764905765 565.7931007912501,832.0629640810603" stroke="rgb(255, 0, 0)" stroke-width="0.1pt" /><polygon fill="none" points="525.9408429099897,845.7997023077908 524.4727475972825,845.7137343604828 501.0520096364653,859.1767070510922 494.4467721497024,868.1666537596145 500.38889987064834,882.552651526496 526.8882582362344,876.7597963049063 529.3561648614404,868.7250611779036 525.9408429099897,845.7997023077908" stroke="rgb(255, 0, 0)" stroke-width="0.1pt" /><polygon fill="none" points="586.3483010055745,863.0369684207327 559.9502586523298,873.8957152134036 557.4823520271236,881.9304503404064 581.7286482170716,890.5103762168142 595.7518067782614,871.792649622579 586.3483010055745,863.0369684207327" stroke="rgb(255, 0, 0)" stroke-width="0.1pt" /><polygon fill="none" points="556.8333126256265,800.3079276546476 557.868872242658,796.6161068418096 557.9342295111495,757.3279854895177 547.6067748539692,754.2417633816308 525.1952846091123,764.1447728225256 519.3827608692986,767.7465058787691 538.519615276209,803.4981484546026 539.9877105889162,803.5841164019106 556.8333126256265,800.3079276546476" stroke="rgb(255, 0, 0)" stroke-width="0.1pt" /><polygon fill="none" points="595.611848055707,825.0854636778437 608.579610323692,840.4282645025484 617.9831160963791,849.1839457043947 624.4380236904439,848.5694224412479 648.7631310248088,839.7806602929107 649.7466075427611,834.9916466445258 631.5335535023074,808.5202903627978 596.6474076727384,821.3936428650056 595.611848055707,825.0854636778437" stroke="rgb(255, 0, 0)" stroke-width="0.1pt" /><polygon fill="none" points="484.0614012170238,513.8611135322105 486.1788282071318,518.2765652314939 490.9267598367193,519.5785133453145 512.2471801139438,514.733729841121 510.6152588355519,493.7524985619466 503.06262006129043,493.6626017005941 484.54286377306556,505.19896139656527 484.0614012170238,513.8611135322105" stroke="rgb(255, 0, 0)" stroke-width="0.1pt" /><polygon fill="none" points="724.6787626246104,356.19699193545944 725.3955947129853,357.8349835305828 748.1170726301324,353.9612969330217 748.1170726301324,338.4863524239975 746.8843245613642,337.7551576989533 746.3497584274527,337.8359478763486 724.6787626246104,356.19699193545944" stroke="rgb(255, 0, 0)" stroke-width="0.1pt" /><polygon fill="none" points="694.4305261111331,377.6476376270601 691.7971768955744,375.5813728481968 659.4324241816563,385.86554884661814 658.5892911919325,418.3634232721495 699.6402863535577,393.35490803947334 695.1473581995082,379.2856292221835 694.4305261111331,377.6476376270601" stroke="rgb(255, 0, 0)" stroke-width="0.1pt" /><polygon fill="none" points="737.4803947883042,278.0944656447405 726.5275000707067,279.87787276732314 715.9367262721925,297.3062684263439 735.6561732090091,294.5755256714165 739.3686680899688,280.7171048310987 737.4803947883042,278.0944656447405" stroke="rgb(255, 0, 0)" stroke-width="0.1pt" /><polygon fill="none" points="698.5861853433215,293.6249546497527 709.1769591418357,276.19655899073194 682.9035483121093,258.52412475089835 685.0070316520703,298.1496265712713 689.3877798783233,301.1373070798488 698.5861853433215,293.6249546497527" stroke="rgb(255, 0, 0)" stroke-width="0.1pt" /><polygon fill="none" points="711.072197271115,316.0819395753422 701.8737918061167,323.5942920054383 712.2146463089264,343.37049758325185 714.8479955244852,345.43676236211513 736.5189913273276,327.0757183030043 730.7916442079317,313.35119682041477 711.072197271115,316.0819395753422" stroke="rgb(255, 0, 0)" stroke-width="0.1pt" /><polygon fill="none" points="753.3888288897851,287.611463569978 749.6066624486693,286.04777975314454 745.8941675677097,299.9062005934623 751.6215146871053,313.6307220760518 752.156080821017,313.54993189865655 753.3888288897851,312.3653890078982 753.3888288897851,287.611463569978" stroke="rgb(255, 0, 0)" stroke-width="0.1pt" /><polygon fill="none" points="616.4524721278409,288.4543493924345 619.8133170364954,265.86319347308194 597.1304165654647,263.75343976206926 616.4524721278409,288.4543493924345" stroke="rgb(255, 0, 0)" stroke-width="0.1pt" /><polygon fill="none" points="605.664817890456,290.9640358323571 586.3427623280795,266.2631262019919 575.2743478537446,263.99390489238726 570.6564646586389,269.0119121235939 605.2481048945499,297.44806092769437 605.664817890456,290.9640358323571" stroke="rgb(255, 0, 0)" stroke-width="0.1pt" /><polygon fill="none" points="269.8987763130696,69.10274285555597 279.8939865656853,46.37636507274958 265.82729655463453,46.37636507274958 254.8468344401989,49.85362089820056 247.64008894683576,67.4964378094737 269.8987763130696,69.10274285555597" stroke="rgb(255, 0, 0)" stroke-width="0.1pt" /><polygon fill="none" points="186.17768982407995,44.468137773570746 190.53396763218058,61.58895975356849 220.12135127051732,65.89069311373682 220.57927952496095,65.58821051029487 227.78602501832404,47.94539359902173 227.5431201217067,44.468137773570746 186.17768982407995,44.468137773570746" stroke="rgb(255, 0, 0)" stroke-width="0.1pt" /><polygon fill="none" points="308.315960306889,74.20851260334508 336.06206254973034,56.06902191903943 333.88672857830943,51.541855997200294 320.6441326480203,47.08798507541842 303.622377738791,47.08798507541842 293.6271674861753,69.81436285822481 308.315960306889,74.20851260334508" stroke="rgb(255, 0, 0)" stroke-width="0.1pt" /><polygon fill="none" points="42.47019259524196,62.8407068133998 43.213416210351554,63.27729181929237 61.41719739069939,45.80691827155273 58.28597136273868,42.8903674937501 50.285248799367906,42.8903674937501 42.47019259524196,44.644381939229156 42.47019259524196,62.8407068133998" stroke="rgb(255, 0, 0)" stroke-width="0.1pt" /><polygon fill="none" points="697.1046044676029,45.93147793428739 692.9887190740357,46.45542257416455 671.1128990339477,62.84912041323297 671.9254072736511,64.39837394074752 680.3549251049684,68.92144926304385 706.0717044857013,53.83224904246659 704.0721253655167,45.93147793428739 697.1046044676029,45.93147793428739" stroke="rgb(255, 0, 0)" stroke-width="0.1pt" /><polygon fill="none" points="738.3944818681158,83.28445369426248 720.3596552539555,66.91503399830553 694.6428758732227,82.00423421888279 721.4395448874229,100.08737470251562 738.3944818681158,91.79065948797776 738.3944818681158,83.28445369426248" stroke="rgb(255, 0, 0)" stroke-width="0.1pt" /><polygon fill="none" points="540.7951138788467,104.94558786643839 541.642520296988,103.4788403480243 542.5105618602006,78.54741999040098 533.7804304402898,68.13985353274862 492.0782566821981,82.71362225959297 494.250869909162,96.74459383847365 540.7951138788467,104.94558786643839" stroke="rgb(255, 0, 0)" stroke-width="0.1pt" /><polygon fill="none" points="385.1566189013224,990.7643533729195 410.7295032602999,1005.9068069234554 414.65006996448585,1003.1414127929204 411.7041729612083,959.0153328658876 405.40873302082406,957.0936887534192 386.128612352814,976.2540336028957 384.4679571674718,985.3955572258976 385.1566189013224,990.7643533729195" stroke="rgb(255, 0, 0)" stroke-width="0.1pt" /><polygon fill="none" points="143.79947396148322,1144.9519224982491 142.28718547079444,1142.6964187825472 95.0671000359006,1147.2743017473101 93.85347262546465,1148.3219912265365 104.9672168207903,1173.3365079369416 126.19064534326083,1173.3365079369416 134.69220178590652,1166.6644188743255 143.79947396148322,1144.9519224982491" stroke="rgb(255, 0, 0)" stroke-width="0.1pt" /><polygon fill="none" points="140.5711084648466,1117.3775789508331 122.06964549364459,1098.7900493643583 110.42264217678066,1099.0054642870346 94.57807529971609,1126.4310693324044 141.79816073460998,1121.8531863676415 140.5711084648466,1117.3775789508331" stroke="rgb(255, 0, 0)" stroke-width="0.1pt" /><polygon fill="none" points="354.16809290765923,1046.0976538314906 367.0782425990245,1066.616642022268 398.4274733960283,1054.2635788063315 398.7496743651153,1035.5105498470343 373.1767900061378,1020.3680962964985 363.02769841581295,1027.118022253857 354.16809290765923,1046.0976538314906" stroke="rgb(255, 0, 0)" stroke-width="0.1pt" /><polygon fill="none" points="296.18161066179937,990.9031633513739 337.66626066587173,1000.6834454382927 347.81535225619643,993.9335194809344 347.1266905223459,988.5647233339124 316.78053635482945,974.4985134781946 296.18161066179937,990.9031633513739" stroke="rgb(255, 0, 0)" stroke-width="0.1pt" /><polygon fill="none" points="508.6078504854287,439.83600545535865 505.2068696633033,447.6598774554672 513.2961417594757,467.6309468266319 520.8487805337372,467.72084368798437 536.9130503896283,460.632072638855 528.5486177328993,440.4258901965877 508.6078504854287,439.83600545535865" stroke="rgb(255, 0, 0)" stroke-width="0.1pt" /><polygon fill="none" points="468.52580001616536,318.87801325890103 453.7206799641585,318.8729276643844 445.00967206459006,336.9792015288795 449.00681705238037,350.39342999980573 472.8412247104013,357.4941795331825 497.1418778115087,338.30877765482774 497.39715247326694,335.6871360763726 496.86658319059745,333.7885017404857 468.52580001616536,318.87801325890103" stroke="rgb(255, 0, 0)" stroke-width="0.1pt" /><polygon fill="none" points="519.8292009358954,363.0019242899626 495.5285478347881,382.1873261683173 495.3701667558178,393.7822694685794 506.47379025219476,408.99664135344545 526.4145574996654,409.5865260946746 537.3072254424708,386.0521665309021 519.8292009358954,363.0019242899626" stroke="rgb(255, 0, 0)" stroke-width="0.1pt" /><polygon fill="none" points="542.8424800787421,318.81562198520066 593.2729265766355,309.92927228577616 593.0516069914923,309.15720562484967 558.4599667555813,280.7210568207492 551.2230079840521,284.7506666065798 542.3119107960727,316.91698764931385 542.8424800787421,318.81562198520066" stroke="rgb(255, 0, 0)" stroke-width="0.1pt" /><polygon fill="none" points="485.27343173388516,291.82446281511756 513.6142149083172,306.73495129670226 522.5253120962967,274.5686302539682 495.7485631349534,254.388775483156 493.3638957418036,254.37251329533797 485.27343173388516,291.82446281511756" stroke="rgb(255, 0, 0)" stroke-width="0.1pt" /><polygon fill="none" points="419.0994694277171,300.1636043812944 411.14629681903637,288.0670331487072 383.1260924395133,279.13181459119284 372.4712113075237,288.49270580548193 386.3633735148352,312.7567749052937 410.3884615281487,318.26987824578947 419.0994694277171,300.1636043812944" stroke="rgb(255, 0, 0)" stroke-width="0.1pt" /><polygon fill="none" points="463.00616622116195,284.8676727837339 471.09663022908046,247.4157232639543 461.44969454900803,243.90476476702568 440.2478735604743,272.7660159566301 448.2010461691551,284.86258718921727 463.00616622116195,284.8676727837339" stroke="rgb(255, 0, 0)" stroke-width="0.1pt" /><polygon fill="none" points="613.0141750843276,347.99220403778367 584.1967900296233,376.408859319475 593.0194845016803,381.1645238957284 618.2612242384166,367.73857976133354 613.0141750843276,347.99220403778367" stroke="rgb(255, 0, 0)" stroke-width="0.1pt" /><polygon fill="none" points="626.8322441561024,387.4704528549992 601.5905044193663,400.89639698939413 624.4135191997639,431.8667455442966 628.9639724135042,429.79546427396144 632.089461324548,424.9248013024704 632.9325943142717,392.4269268769391 626.8322441561024,387.4704528549992" stroke="rgb(255, 0, 0)" stroke-width="0.1pt" /><polygon fill="none" points="572.3117417785079,410.8866853777488 567.498927227703,409.9206900237311 556.6062592848976,433.45504958750354 564.9706919416267,453.66123202977076 590.5549262444014,465.2529867206921 603.9574510309626,446.61269850890454 581.134436250565,415.64234995400216 572.3117417785079,410.8866853777488" stroke="rgb(255, 0, 0)" stroke-width="0.1pt" /><polygon fill="none" points="597.9767414385408,338.3119900487148 598.510657037279,332.0857101986434 597.5542384861079,331.2044164575693 547.1237919882143,340.0907661569939 546.8685173264562,342.71240773544906 564.3465418330314,365.7626499763886 569.1593563838364,366.72864533040615 597.9767414385408,338.3119900487148" stroke="rgb(255, 0, 0)" stroke-width="0.1pt" /><polygon fill="none" points="640.037098853684,337.05030217794786 645.2841480077728,356.7966779014978 651.3844981659422,361.75315192343754 683.7492508798603,351.46897592501625 673.4083963770505,331.69277034720267 669.0276481507976,328.7050898386252 640.5710144524222,330.8240223278766 640.037098853684,337.05030217794786" stroke="rgb(255, 0, 0)" stroke-width="0.1pt" /><polygon fill="none" points="654.520407356289,545.3987291436747 650.7569847347594,532.2313417216183 615.4933040528415,518.9491400591479 606.3677667481238,547.0395371939732 606.2550909634137,549.6257460158492 648.6733470231767,555.3965531846088 654.520407356289,545.3987291436747" stroke="rgb(255, 0, 0)" stroke-width="0.1pt" /><polygon fill="none" points="665.2210028925367,503.71236387793743 676.6669970812313,483.03954976378526 642.8236129308491,468.2236956354084 638.2731597171089,470.29497690574345 624.8706349305476,488.935265117531 625.1611713208614,494.28692354629527 660.4248520027791,507.5691252087656 665.2210028925367,503.71236387793743" stroke="rgb(255, 0, 0)" stroke-width="0.1pt" /><polygon fill="none" points="708.888203814261,560.9102997020433 684.9058277202772,560.8445748570902 679.0587673871651,570.8423988980242 682.1977535878908,578.1178474571448 697.223615777305,587.9437797440401 708.888203814261,560.9102997020433" stroke="rgb(255, 0, 0)" stroke-width="0.1pt" /><polygon fill="none" points="748.8397675782201,517.0055694775523 737.4780042512856,507.95697143099045 731.7730678645207,531.0412509035484 732.2065725625167,540.0038845061207 748.8397675782201,546.6941019346259 748.8397675782201,517.0055694775523" stroke="rgb(255, 0, 0)" stroke-width="0.1pt" /><polygon fill="none" points="716.9744244186262,519.0151456415518 722.6793608053911,495.9308661689939 720.9161177276249,489.3564306004013 705.4794744469411,490.49030499531125 694.0334802582465,511.16311910946337 716.9744244186262,519.0151456415518" stroke="rgb(255, 0, 0)" stroke-width="0.1pt" /><polygon fill="none" points="751.5660860187934,456.56394728615504 738.4410796140926,476.0312733697952 740.2043226918589,482.60570893838775 751.5660860187934,491.6543069849496 751.5660860187934,456.56394728615504" stroke="rgb(255, 0, 0)" stroke-width="0.1pt" /><polygon fill="none" points="727.8650960969611,566.8011538233553 727.4402950643412,567.0763672865326 715.7757070273852,594.1098473285294 716.9188629966475,596.7206911933745 744.2138216510666,597.0004317396282 744.4982911126644,595.5008945743806 744.4982911126644,573.4913712518605 727.8650960969611,566.8011538233553" stroke="rgb(255, 0, 0)" stroke-width="0.1pt" /><polygon fill="none" points="710.1103461353056,535.3029157704705 687.1694019749261,527.450889238382 682.3732510851684,531.3076505692103 686.136673706698,544.4750379912667 710.1190498006818,544.54076283622 710.5438508333016,544.2655493730427 710.1103461353056,535.3029157704705" stroke="rgb(255, 0, 0)" stroke-width="0.1pt" /><polygon fill="none" points="725.2253983174759,808.3548300208249 720.6913589085063,810.2038994383882 696.0008536107684,838.6082153247911 695.0173770928161,843.3972289731762 712.1215358161912,862.5351220640205 733.1242104109797,855.4482252755763 738.6899966308399,850.0883266601489 738.6899966308399,823.6070975111002 730.2309138464072,812.125647867182 725.2253983174759,808.3548300208249" stroke="rgb(255, 0, 0)" stroke-width="0.1pt" /><polygon fill="none" points="753.3972052970976,792.9303955256033 744.938122512665,792.600811457666 753.3972052970976,804.0822611015842 753.3972052970976,792.9303955256033" stroke="rgb(255, 0, 0)" stroke-width="0.1pt" /><polygon fill="none" points="568.6043645511271,1008.0144115694698 565.7959907495037,998.0124212155978 514.1613271976048,994.7099074704591 511.7582446453979,1000.8190539597255 526.1922503655944,1027.9065103204773 568.6043645511271,1008.0144115694698" stroke="rgb(255, 0, 0)" stroke-width="0.1pt" /><polygon fill="none" points="585.1171169693782,1030.682203905575 542.7050027838455,1050.5743026565826 544.1895458121301,1067.7944720536814 560.0309348673451,1073.8364013983742 567.6427756503717,1074.855171962121 601.9270295030431,1062.6145865975143 602.3433791871455,1055.1266886026374 585.1171169693782,1030.682203905575" stroke="rgb(255, 0, 0)" stroke-width="0.1pt" /><polygon fill="none" points="478.5416432039108,1022.3515639261595 446.8444189336686,1037.0605121000249 442.92385222948263,1039.8259062305597 442.60165126039567,1058.578935189857 451.19188226892317,1070.952722015364 473.4595125528828,1080.9221313438268 494.46019195239177,1066.65918968401 492.97564892410725,1049.4390202869115 478.5416432039108,1022.3515639261595" stroke="rgb(255, 0, 0)" stroke-width="0.1pt" /><polygon fill="none" points="471.7070583533665,984.1655675378963 474.1101409055734,978.0564210486298 472.12477820300296,955.8498679459874 471.62134684418754,954.9287076511471 437.0639370798467,954.7484357847287 440.00983408312436,998.8745157117615 471.7070583533665,984.1655675378963" stroke="rgb(255, 0, 0)" stroke-width="0.1pt" /><polygon fill="none" points="568.6220263595794,975.3081294956571 572.0071457485104,963.1687209136785 563.2645973120624,944.7084523030558 515.0020001051101,949.7990626478759 516.9873628076806,972.0056157505182 568.6220263595794,975.3081294956571" stroke="rgb(255, 0, 0)" stroke-width="0.1pt" /><polygon fill="none" points="479.8355702243746,1180.3487759805228 480.7389821341604,1170.6360245236046 477.78196167384755,1162.1590584576038 474.15531373384266,1158.4986321445826 450.57255265699007,1173.4249729853595 452.93336007862774,1180.3487759805228 479.8355702243746,1180.3487759805228" stroke="rgb(255, 0, 0)" stroke-width="0.1pt" /><polygon fill="none" points="498.9815292926173,1136.583882757648 522.5308102939754,1135.9198366380995 531.0203472465873,1104.4089335753713 515.1789581913724,1098.3670042306785 494.1782787918634,1112.629945890495 495.3548813526124,1132.923456444627 498.9815292926173,1136.583882757648" stroke="rgb(255, 0, 0)" stroke-width="0.1pt" /><polygon fill="none" points="511.1993597471921,1169.9102977416856 530.288476218941,1179.6230491986037 556.9369905312155,1179.6230491986037 553.9353994995718,1174.5812983886408 531.7916202882373,1160.7692855561359 508.2423392868792,1161.4333316756845 511.1993597471921,1169.9102977416856" stroke="rgb(255, 0, 0)" stroke-width="0.1pt" /><polygon fill="none" points="517.4050784488869,1185.0114610901787 498.31596197713804,1175.2987096332608 497.41255006735224,1185.0114610901787 517.4050784488869,1185.0114610901787" stroke="rgb(255, 0, 0)" stroke-width="0.1pt" /><polygon fill="none" points="707.516738254578,1023.6681878646689 681.253096077098,1004.0653585674968 662.3147394069467,1033.4850837188374 705.8960749781554,1026.2142061560385 707.516738254578,1023.6681878646689" stroke="rgb(255, 0, 0)" stroke-width="0.1pt" /><polygon fill="none" points="705.148702499067,1049.3496006135674 661.5673669278582,1056.6204781763663 655.3495561926882,1061.8987257629442 654.9332065085857,1069.386623757821 666.6893866989008,1085.550493622971 699.8567017091668,1087.4061947080074 704.7343374736884,1082.9651630575324 705.148702499067,1049.3496006135674" stroke="rgb(255, 0, 0)" stroke-width="0.1pt" /><polygon fill="none" points="700.330726754432,951.493837726551 738.5288912254999,960.6649741409132 738.5288912254999,937.6932247413501 712.0498711860275,912.730737359175 698.3531721886103,947.5769593128956 700.330726754432,951.493837726551" stroke="rgb(255, 0, 0)" stroke-width="0.1pt" /><polygon fill="none" points="748.858163711446,1030.6794844326255 734.7668026059027,1040.0153029807047 733.1461393294802,1042.5613212720743 732.7317743041014,1076.1768837160394 745.2188117170581,1073.4121925116924 748.030678037152,1071.3707106724955 748.858163711446,1070.324613343956 748.858163711446,1030.6794844326255" stroke="rgb(255, 0, 0)" stroke-width="0.1pt" /><polygon fill="none" points="700.1806661454365,976.2956146790667 698.0238273334809,990.0818963715014 724.287469510961,1009.6847256686738 738.3788306165044,1000.3489071205945 738.3788306165044,985.4667510934289 700.1806661454365,976.2956146790667" stroke="rgb(255, 0, 0)" stroke-width="0.1pt" /><polygon fill="none" points="747.4392120498957,888.2011033402132 741.8734258300356,884.4237953974468 720.8707512352471,891.5106921858909 720.9601920104235,892.276827126301 747.4392120498957,917.2393145084761 747.4392120498957,888.2011033402132" stroke="rgb(255, 0, 0)" stroke-width="0.1pt" /><polygon fill="none" points="671.8353262948474,928.4098503418205 685.5320252922646,893.5636283880999 685.4425845170882,892.7974934476899 668.3384257937132,873.6596003568457 644.0133184593482,882.4483625051828 654.4919010477239,926.4463657310961 671.8353262948474,928.4098503418205" stroke="rgb(255, 0, 0)" stroke-width="0.1pt" /><polygon fill="none" points="660.2941183156627,977.1165438404894 658.3165637498407,973.1996654268341 640.9731385027175,971.2361808161097 616.3315954679261,979.01491463793 612.9464760789953,991.1543232199085 615.7548498806186,1001.1563135737804 632.9811120983858,1025.6007982708427 639.1989228335559,1020.3225506842648 658.1372795037071,990.9028255329242 660.2941183156627,977.1165438404894" stroke="rgb(255, 0, 0)" stroke-width="0.1pt" /><polygon fill="none" points="40.869001235895645,775.5842017174643 48.85804621573544,782.3224323748182 54.409490335735114,769.4767328589194 40.869001235895645,749.748644351242 40.869001235895645,775.5842017174643" stroke="rgb(255, 0, 0)" stroke-width="0.1pt" /><polygon fill="none" points="71.35326734650957,727.4768031054931 64.05377716798391,721.00847316216 46.87399893215663,715.426429088714 46.87399893215663,732.5595514549437 60.4144880319961,752.2876399626211 66.4068182912999,745.6222764043493 70.27942760477654,737.3997665912781 71.35326734650957,727.4768031054931" stroke="rgb(255, 0, 0)" stroke-width="0.1pt" /><polygon fill="none" points="97.55006001292733,706.032642944716 92.90089295183923,681.9698380087805 84.4294312385141,689.839796165849 78.46254121758288,704.9184978084035 85.76203139610851,711.3868277517365 97.55006001292733,706.032642944716" stroke="rgb(255, 0, 0)" stroke-width="0.1pt" /><polygon fill="none" points="272.3143574083422,752.6773619393182 323.4886178795501,737.1011948138243 323.6162120182446,729.6450684983001 290.6399830045179,722.8489635493783 272.3143574083422,752.6773619393182" stroke="rgb(255, 0, 0)" stroke-width="0.1pt" /><polygon fill="none" points="420.55691785297677,812.7679941020813 399.0417481346246,856.6864334315651 404.2372959775809,859.9441727937715 450.88477787318027,857.198258079156 420.55691785297677,812.7679941020813" stroke="rgb(255, 0, 0)" stroke-width="0.1pt" /><polygon fill="none" points="374.3432386802689,891.5279110711235 362.22192745894597,891.9245964862087 352.7080613875531,916.1850097920603 371.71973834758614,944.4845397054759 390.99985901559603,925.3241948559992 379.5387865232252,894.7856504333299 374.3432386802689,891.5279110711235" stroke="rgb(255, 0, 0)" stroke-width="0.1pt" /><polygon fill="none" points="460.21721309666844,886.4080351990156 413.5697312010692,889.1539499136309 425.03080369344,919.6924943363005 431.3262436338242,921.6141384487687 465.88365339816505,921.7944103151871 466.3314701360078,900.8536710306602 460.3893424150617,886.4676732637787 460.21721309666844,886.4080351990156" stroke="rgb(255, 0, 0)" stroke-width="0.1pt" /><polygon fill="none" points="438.12745448734273,794.5901082245913 468.4553145075461,839.020372201666 468.6274438259394,839.0800102664292 475.2326813127024,830.0900635579068 467.7238038405812,782.4331448034216 458.71703489259227,780.4701802302596 453.7389133307209,781.0414335431751 438.1477453110557,794.2123681615739 438.12745448734273,794.5901082245913" stroke="rgb(255, 0, 0)" stroke-width="0.1pt" /><polygon fill="none" points="90.46533387541763,957.5443883483895 117.54691602798135,992.8406581928056 134.53451133462534,989.4573023156872 113.77327864558265,958.4467259492077 90.46533387541763,957.5443883483895" stroke="rgb(255, 0, 0)" stroke-width="0.1pt" /><polygon fill="none" points="294.2484884843187,813.7841177291506 294.391753573737,814.3497726635201 315.27781611558555,835.0984847395798 318.4163018774239,836.9675629177553 331.578310551133,840.6791916374576 335.5169457296109,794.8568662797267 294.2484884843187,813.7841177291506" stroke="rgb(255, 0, 0)" stroke-width="0.1pt" /><polygon fill="none" points="361.3028360937071,793.2453602800331 357.3642009152292,839.0676856377639 363.025287818852,843.3764066458943 375.14659904017486,842.9797212308091 396.66176875852705,799.0612819013253 396.6820595822401,798.683541838308 365.1145318974595,787.4568551485181 361.3028360937071,793.2453602800331" stroke="rgb(255, 0, 0)" stroke-width="0.1pt" /><polygon fill="none" points="317.7236556416062,872.6318564886521 301.2806092361718,894.888080952401 301.51438123618414,907.8319259809908 318.0525919474174,910.3718882190295 327.0328851475451,904.9126195223365 336.54675121893797,880.6522062164848 330.88566431531524,876.3434852083544 317.7236556416062,872.6318564886521" stroke="rgb(255, 0, 0)" stroke-width="0.1pt" /><polygon fill="none" points="300.23410883806065,862.8597365832184 272.4781732465728,880.5018086083794 272.4241327883641,881.1471469732521 286.9295481944646,886.9850392251427 303.372594599899,864.7288147613938 300.23410883806065,862.8597365832184" stroke="rgb(255, 0, 0)" stroke-width="0.1pt" /><polygon fill="none" points="271.6867876530803,829.2211669765156 255.71789751909816,851.1761456629476 264.816914603441,867.6119510777365 292.57285019492883,849.9698790525755 271.6867876530803,829.2211669765156" stroke="rgb(255, 0, 0)" stroke-width="0.1pt" /><polygon fill="none" points="285.7501095507716,791.8198909984283 327.0185667960637,772.8926395490043 330.8302625998161,767.1041344174894 325.2174653176493,754.4082572611507 274.0432048464415,769.9844243866445 271.89492208066713,771.7118818911729 285.7501095507716,791.8198909984283" stroke="rgb(255, 0, 0)" stroke-width="0.1pt" /><polygon fill="none" points="180.05338242651678,835.1388475400861 182.390937262323,861.580610427445 200.2869840703446,845.5017336122271 185.45658652822186,824.5162557208629 180.05338242651678,835.1388475400861" stroke="rgb(255, 0, 0)" stroke-width="0.1pt" /><polygon fill="none" points="204.85390690909452,809.0310274326253 219.6843044512173,830.0165053239892 230.05603746999682,834.4088321844249 234.60774791692808,832.839086448002 250.57663805091016,810.8841077615701 250.4333729614919,810.3184528272006 236.5781854913875,790.2104437199454 226.64611313557458,787.1759300283338 204.8552023130115,809.019093631036 204.85390690909452,809.0310274326253" stroke="rgb(255, 0, 0)" stroke-width="0.1pt" /><polygon fill="none" points="189.65381365508728,877.3717697366457 188.5792076761321,882.6962476741078 203.3491613412753,891.6408607347585 217.92159348188846,865.6852197818636 207.5498604631089,861.2928929214279 189.65381365508728,877.3717697366457" stroke="rgb(255, 0, 0)" stroke-width="0.1pt" /><polygon fill="none" points="168.4403164327988,842.1087465893137 158.83580243048493,846.5665422981115 153.29019506474356,856.7649773818291 167.14488921794683,874.3171532420099 169.70326528964986,873.8749874141344 170.77787126860503,868.5505094766723 168.4403164327988,842.1087465893137" stroke="rgb(255, 0, 0)" stroke-width="0.1pt" /><polygon fill="none" points="42.35627411522783,606.8900256771105 43.55064384560738,609.357568720746 52.26002857844096,608.6792980143916 57.447588192077646,588.2759784716966 55.67089159931282,588.652029597995 42.35627411522783,597.5239732979451 42.35627411522783,606.8900256771105" stroke="rgb(255, 0, 0)" stroke-width="0.1pt" /><polygon fill="none" points="53.41142286380344,580.77454481907 40.09680537971846,580.5017050588791 40.09680537971846,589.64648851902 53.41142286380344,580.77454481907" stroke="rgb(255, 0, 0)" stroke-width="0.1pt" /><polygon fill="none" points="36.36749837857832,619.2612691310542 37.56186810895787,617.6756499592542 36.36749837857832,615.2081069156186 36.36749837857832,619.2612691310542" stroke="rgb(255, 0, 0)" stroke-width="0.1pt" /><polygon fill="none" points="58.6321526339518,568.5354074897206 60.615019777966886,566.4469198860944 61.80412641452526,557.060397251802 54.347228804097654,548.2838867700276 43.540838557101985,547.7438474999146 43.540838557101985,568.6386188558282 56.85545604118697,568.911458616019 58.6321526339518,568.5354074897206" stroke="rgb(255, 0, 0)" stroke-width="0.1pt" /><polygon fill="none" points="99.81131940022476,620.5967475649106 79.50811669248787,626.7209553987807 84.1339414499441,643.2117232341789 98.13621371961693,647.3483100871427 118.5664946026569,635.8062860451247 99.81131940022476,620.5967475649106" stroke="rgb(255, 0, 0)" stroke-width="0.1pt" /><polygon fill="none" points="87.90236295907393,662.584991102849 73.90009068940108,658.448404249885 61.37703791724851,666.492008261685 78.19851065806846,674.0477638211402 86.66997237139358,666.1778056640718 87.90236295907393,662.584991102849" stroke="rgb(255, 0, 0)" stroke-width="0.1pt" /><polygon fill="none" points="57.39650194932177,630.4857695172115 53.07783288189998,628.7705978918497 44.3684481490664,629.448868598204 43.174078418686854,631.0344877700038 43.174078418686854,657.3495755563114 49.49927393462541,655.0201413644096 62.02232670677799,646.9765373526097 57.39650194932177,630.4857695172115" stroke="rgb(255, 0, 0)" stroke-width="0.1pt" /><polygon fill="none" points="89.12030348780665,604.4514559116338 89.05487816587254,604.1736607006511 71.66885847029975,586.3686849738207 69.68599132628468,588.4571725774467 64.49843171264799,608.860492120142 68.81710078006978,610.5756637455038 89.12030348780665,604.4514559116338" stroke="rgb(255, 0, 0)" stroke-width="0.1pt" /><polygon fill="none" points="139.21820919302496,657.8032017210614 118.787928309985,669.3452257630795 117.55553772230465,672.9380403243023 122.20470478339277,697.000845260238 151.55673258445023,697.3854762211197 162.74832115074594,691.354155487019 162.44134066240017,678.6175192200366 156.30004054218153,667.4470780048418 140.29525453200876,657.9278944805496 139.21820919302496,657.8032017210614" stroke="rgb(255, 0, 0)" stroke-width="0.1pt" /><polygon fill="none" points="114.15659167970749,603.127612245663 132.91176688213966,618.3371507258768 133.98881222112342,618.461843485365 138.23735908557694,585.0846517026773 125.9526752269432,582.090701197371 118.58695038344145,582.2607628308039 114.09116635777337,602.8498170346803 114.15659167970749,603.127612245663" stroke="rgb(255, 0, 0)" stroke-width="0.1pt" /><polygon fill="none" points="251.37336897793796,686.5496851549132 245.83941133976126,671.1891064654142 238.78483332806002,666.481430143373 228.77237549481293,668.6791469243877 204.20114780682542,679.279966326453 204.50812829517116,692.0166025934356 207.22463395207765,694.9920867806119 251.37336897793796,686.5496851549132" stroke="rgb(255, 0, 0)" stroke-width="0.1pt" /><polygon fill="none" points="260.8408640830735,710.5505484603025 257.3849600818046,708.1173098409138 213.23622505594432,716.5597114666125 232.03059162176342,746.5396823913513 241.96266397757637,749.574196082963 244.11094674335067,747.8467385784346 262.4365723395264,718.0183401884947 260.8408640830735,710.5505484603025" stroke="rgb(255, 0, 0)" stroke-width="0.1pt" /><polygon fill="none" points="224.06288978791235,500.0760074889869 224.67920530057285,497.0254496881226 185.03116317875447,492.43024614765153 187.6535436568171,511.02109328404856 215.306766429057,511.0133942459771 222.8865516701629,502.1910447548991 224.06288978791235,500.0760074889869" stroke="rgb(255, 0, 0)" stroke-width="0.1pt" /><polygon fill="none" points="159.83379839742915,513.172006866462 157.21141791936648,494.58115973006494 155.81137171859098,492.27810102952856 137.4211791228039,491.6115215165763 128.72338153397848,499.11791616087453 132.19089415969205,517.3293453915863 132.3881908797302,517.7872052581953 137.8680848171779,520.0537830491019 156.64916416021617,523.4660830722938 159.83379839742915,513.172006866462" stroke="rgb(255, 0, 0)" stroke-width="0.1pt" /><polygon fill="none" points="239.9226256057748,518.7804864582339 232.34284036466897,527.602835949312 230.0748035148896,547.6609678888578 248.83351416445302,548.2464740865313 239.9226256057748,518.7804864582339" stroke="rgb(255, 0, 0)" stroke-width="0.1pt" /><polygon fill="none" points="205.21528879257696,592.7336247995222 202.50178127347854,578.8974873212828 184.45600470475551,572.7281825698585 185.9420730542068,617.4793240806349 205.21528879257696,592.7336247995222" stroke="rgb(255, 0, 0)" stroke-width="0.1pt" /><polygon fill="none" points="205.00209293855252,553.988773920564 210.71804716243923,549.0444265089427 212.9860840122186,528.9862945693968 185.3328612399787,528.9939936074683 182.14822700276574,539.2880698133001 183.84893391935884,545.869385923935 186.9563163698295,547.8194691691394 205.00209293855252,553.988773920564" stroke="rgb(255, 0, 0)" stroke-width="0.1pt" /><polygon fill="none" points="171.258933514526,624.6378923242662 169.7728651650747,579.8867508134897 166.66548271460408,577.9366675682853 155.28651502028978,589.3612678988895 151.03796815583624,622.7384596815771 167.042754166009,632.2576432058694 171.258933514526,624.6378923242662" stroke="rgb(255, 0, 0)" stroke-width="0.1pt" /><polygon fill="none" points="212.26311463083817,614.6941845815841 192.98989889246798,639.4398838626968 188.773719543951,647.0596347443 194.9150196641697,658.2300759594946 219.48624735215722,647.6292565574292 223.15310909403127,618.4417057311265 212.26311463083817,614.6941845815841" stroke="rgb(255, 0, 0)" stroke-width="0.1pt" /><polygon fill="none" points="482.7346064388321,699.0696599531427 476.399264971119,713.8335530647057 469.64712821609294,743.4827814508371 478.6538971640818,745.4457460239992 490.44665819010976,743.8880495120417 496.25918192992344,740.2863164557982 482.7346064388321,699.0696599531427" stroke="rgb(255, 0, 0)" stroke-width="0.1pt" /><polygon fill="none" points="751.0843495349632,195.4358397147673 748.4021580242888,194.5443400941968 735.6501891466168,218.4285499418262 748.3733860839778,225.3349010605951 751.0843495349632,224.00273204078167 751.0843495349632,195.4358397147673" stroke="rgb(255, 0, 0)" stroke-width="0.1pt" /><polygon fill="none" points="751.3005418679015,247.35833543228068 748.3410655761065,263.59222508916184 750.2293388777709,266.21486427552003 754.0115053188869,267.7785480923535 754.0115053188869,246.02616641246723 751.3005418679015,247.35833543228068" stroke="rgb(255, 0, 0)" stroke-width="0.1pt" /><polygon fill="none" points="698.7013223694323,204.85881612196212 721.8893968526241,208.76610190449057 734.6413657302962,184.8818920568612 715.6451269543079,170.5449024211941 714.8177311548519,171.2958306937769 698.7013223694323,204.85881612196212" stroke="rgb(255, 0, 0)" stroke-width="0.1pt" /><polygon fill="none" points="625.6373718230672,204.41928994213077 616.1890906667484,182.97389922813733 587.198074921874,184.83291886985413 585.2074422393015,205.2991080734298 586.8163660591331,210.0526425247773 625.6373718230672,204.41928994213077" stroke="rgb(255, 0, 0)" stroke-width="0.1pt" /><polygon fill="none" points="637.3181090395302,229.95763697910797 629.3293726018549,223.401396988206 590.5083668379208,229.03474957085248 586.001004647771,243.7973761254854 597.069419122106,246.06659743509005 619.7523195931369,248.17635114610272 637.3181090395302,229.95763697910797" stroke="rgb(255, 0, 0)" stroke-width="0.1pt" /><polygon fill="none" points="689.9487161863628,233.77586486908342 692.6134527020348,240.4076231575056 718.886863531761,258.0800573973392 729.8397582493586,256.2966502747566 732.7992345411539,240.0627606178754 720.0760376037929,233.1564094991065 696.8879631206011,229.24912371657803 689.9487161863628,233.77586486908342" stroke="rgb(255, 0, 0)" stroke-width="0.1pt" /><polygon fill="none" points="660.2254778687587,251.02743795649025 656.7026732406558,250.4563749708516 639.1368837942622,268.6750891378464 635.7760388856077,291.266245057199 635.3593258897018,297.75027015253613 635.580645474845,298.5223368134626 636.5370640260162,299.40363055453673 664.9936977243916,297.28469806528545 662.8902143844305,257.65919624491244 660.2254778687587,251.02743795649025" stroke="rgb(255, 0, 0)" stroke-width="0.1pt" /><polygon fill="none" points="349.39529322087685,356.1519185628111 360.7573939775084,325.07692013162637 346.8652317701969,300.8128510318147 325.00295603467634,304.21445143226117 329.6123616964801,329.97054959063695 349.39529322087685,356.1519185628111" stroke="rgb(255, 0, 0)" stroke-width="0.1pt" /><polygon fill="none" points="371.712070521413,377.3719217080076 373.2828274289309,388.7114162590496 382.6831891329313,393.9319989818366 411.0964042791483,365.224255088245 407.099259291358,351.81002661731884 383.0741712780445,346.29692327682295 371.712070521413,377.3719217080076" stroke="rgb(255, 0, 0)" stroke-width="0.1pt" /><polygon fill="none" points="318.41248049626284,202.58879933612258 317.5497825235994,255.64737884022048 321.8425474942274,257.03210770671524 343.7048232297479,253.63050730626878 354.35970436173756,244.26961609197966 359.9603009318507,216.21797926791328 345.9514425473743,195.54133912817207 331.40266481845254,195.29604217416278 318.41248049626284,202.58879933612258" stroke="rgb(255, 0, 0)" stroke-width="0.1pt" /><polygon fill="none" points="323.7437057867576,115.96989304204375 335.14528955392996,140.21342623099235 349.69406728285173,140.45872318500165 361.1745291857046,122.82762376848868 363.70234628079106,88.81978434716322 351.0049291686221,81.02860156681099 323.2588269257807,99.16809225111665 323.7437057867576,115.96989304204375" stroke="rgb(255, 0, 0)" stroke-width="0.1pt" /><polygon fill="none" points="254.24829095227093,115.11583014988535 287.1396850709398,111.47322728912059 286.65480620996294,94.67142649819348 271.9660133892492,90.27727675307322 249.70732602301538,88.67097170699095 249.24939776857178,88.97345431043288 254.24829095227093,115.11583014988535" stroke="rgb(255, 0, 0)" stroke-width="0.1pt" /><polygon fill="none" points="64.24764576296201,99.90528173275872 63.94183863363205,102.0945624601164 82.13889210404207,111.36717914351752 89.00871249742613,95.68216061502677 88.90011412671504,87.03206852207987 88.44016819057774,86.792567841996 64.24764576296201,99.90528173275872" stroke="rgb(255, 0, 0)" stroke-width="0.1pt" /><polygon fill="none" points="92.47643958899862,121.83537649618754 102.60621368630068,134.21353401274988 107.74596576641744,125.91016925410018 99.34625998238269,106.15035796769679 92.47643958899862,121.83537649618754" stroke="rgb(255, 0, 0)" stroke-width="0.1pt" /><polygon fill="none" points="111.88961009906846,85.10308465403574 111.99820846977956,93.75317674698265 120.39791425381429,113.51298803338602 146.0755992116733,91.15525879708497 147.0911425239163,86.8998984900849 111.88961009906846,85.10308465403574" stroke="rgb(255, 0, 0)" stroke-width="0.1pt" /><polygon fill="none" points="110.20855123080707,45.7656177072887 106.64843097523335,49.808623323337116 113.57393019668987,66.08552452886963 114.0338761328272,66.32502520895348 149.23540855767502,68.12183904500264 153.90987142451624,62.88643968728644 149.5535936164156,45.7656177072887 110.20855123080707,45.7656177072887" stroke="rgb(255, 0, 0)" stroke-width="0.1pt" /><polygon fill="none" points="58.9400583709397,86.08703561924509 83.13258079855542,72.97432172848235 76.20708157709888,56.69742052294985 70.13843126789698,55.570965684704056 51.934650087549144,73.0413392324437 58.9400583709397,86.08703561924509" stroke="rgb(255, 0, 0)" stroke-width="0.1pt" /><polygon fill="none" points="58.09963822241083,135.80972938668157 55.21669399178115,140.05110958348823 50.65681345324062,175.51474605619487 50.65681345324062,206.6290953565575 85.02759839381069,183.05850247080014 86.4264657901229,157.460503586645 76.29669169282084,145.08234607008265 58.09963822241083,135.80972938668157" stroke="rgb(255, 0, 0)" stroke-width="0.1pt" /><polygon fill="none" points="492.74534671042363,160.20840910862808 469.8435672588873,144.93106735905636 460.5750263621705,154.6883920215099 458.15947085590955,183.31816173714063 460.08543435618674,184.87843512203565 492.74534671042363,160.20840910862808" stroke="rgb(255, 0, 0)" stroke-width="0.1pt" /><polygon fill="none" points="428.73318415599033,158.39418616446858 390.38321135783764,151.6565546986979 378.9027494549848,169.28765411521087 392.9116078394611,189.96429425495208 426.31762864972944,187.02395588009932 428.73318415599033,158.39418616446858" stroke="rgb(255, 0, 0)" stroke-width="0.1pt" /><polygon fill="none" points="433.0521989230075,219.87843493419297 431.12623542273036,218.31816154929797 397.7202146124621,221.25849992415073 392.11961804234886,249.3101367482171 420.13982242187194,258.24535530573155 441.34164341040565,229.38410411612705 433.0521989230075,219.87843493419297" stroke="rgb(255, 0, 0)" stroke-width="0.1pt" /><polygon fill="none" points="446.81643552284856,115.52484016687349 447.5984791514461,103.74299965469731 445.42586592448225,89.71202807581665 428.88679376487295,77.74799218818121 401.72573892306553,84.53669394223088 399.1979218279791,118.54453336355634 437.5478946261317,125.28216482932703 446.81643552284856,115.52484016687349" stroke="rgb(255, 0, 0)" stroke-width="0.1pt" /><polygon fill="none" points="512.7408268727226,144.66678019767846 516.653353650778,146.1081677702365 533.0061304429522,139.13105665874264 537.1653350194683,125.80859196389531 490.62109104978373,117.60759793593057 489.8390474211862,129.38943844810674 512.7408268727226,144.66678019767846" stroke="rgb(255, 0, 0)" stroke-width="0.1pt" /><polygon fill="none" points="513.4159766187361,209.4670718896557 544.8439487434653,208.20355663075384 521.060770483178,195.78824790209578 513.4159766187361,209.4670718896557" stroke="rgb(255, 0, 0)" stroke-width="0.1pt" /><polygon fill="none" points="517.3887310006211,223.90011408448015 510.75108396352886,232.04708590070123 537.5278329248722,252.2269406715134 544.7647916964014,248.19733088568285 549.3826748915071,243.17932365447618 553.8900370816568,228.4166970998433 552.2811132618253,223.66316264849584 548.8167031253502,222.6365988255783 517.3887310006211,223.90011408448015" stroke="rgb(255, 0, 0)" stroke-width="0.1pt" /><polygon fill="none" points="530.5470891513504,183.5993685802285 554.3302674116377,196.01467730888655 557.7946775481128,197.0412411318041 559.7853102306852,176.5750519282284 548.8688166136628,162.18652496498532 532.5160398214884,169.16363607647915 530.5470891513504,183.5993685802285" stroke="rgb(255, 0, 0)" stroke-width="0.1pt" /><polygon fill="none" points="495.27407457940194,205.71699329669298 502.9188684438438,192.03816930913308 504.8878191139819,177.60243680538372 500.97529233592644,176.16104923282572 468.3153799816895,200.8310752462333 476.6048244690876,210.33674442816735 486.25176014916,213.84770292509603 488.6364275423097,213.86396511291406 495.27407457940194,205.71699329669298" stroke="rgb(255, 0, 0)" stroke-width="0.1pt" /><polygon fill="none" points="149.67765024574354,1063.5551724260663 138.91694033609102,1084.1041571584105 157.418403307293,1102.6916867448854 166.85765165735697,1083.987373483139 149.67765024574354,1063.5551724260663" stroke="rgb(255, 0, 0)" stroke-width="0.1pt" /><polygon fill="none" points="153.1766398771912,983.2322018814189 175.36400051539147,978.3929486557005 144.8928646723988,932.1693157014206 132.17967835973081,952.1517338431062 152.9409110487735,983.1623102095857 153.1766398771912,983.2322018814189" stroke="rgb(255, 0, 0)" stroke-width="0.1pt" /><polygon fill="none" points="132.28264003771704,1044.6221136682243 136.33495798135522,1023.0435656506594 136.0992291529375,1022.9736739788261 119.11163384629353,1026.3570298559446 104.96891540411177,1030.807548580566 96.14004860696188,1049.112741222244 109.87492681120058,1065.386513323245 121.52193012806451,1065.1710984005688 132.28264003771704,1044.6221136682243" stroke="rgb(255, 0, 0)" stroke-width="0.1pt" /><polygon fill="none" points="751.6354156731894,744.3025974397649 744.0104295300207,756.0333461783757 738.4677441296507,771.100913677587 751.6354156731894,768.9044439064755 751.6354156731894,744.3025974397649" stroke="rgb(255, 0, 0)" stroke-width="0.1pt" /><polygon fill="none" points="716.1026826225007,763.7605506950249 721.6453680228706,748.6929831958138 689.9938994729504,726.8094290284969 674.4554100742586,735.512305725236 711.2717164437058,766.215082563034 715.8057558526754,764.3660131454704 716.1026826225007,763.7605506950249" stroke="rgb(255, 0, 0)" stroke-width="0.1pt" /><polygon fill="none" points="739.6127221788646,718.400759699651 724.6337662284488,693.5354509002017 717.2181186935707,692.0311099491405 700.3362674857756,710.48685001957 731.9877360356959,732.3704041868868 739.6127221788646,720.639655448276 739.6127221788646,718.400759699651" stroke="rgb(255, 0, 0)" stroke-width="0.1pt" /><polygon fill="none" points="751.0265205682858,779.7001908076123 737.858849024747,781.8966605787236 737.5619222549217,782.5021230291694 742.567437783853,786.2729408755265 751.0265205682858,786.6025249434637 751.0265205682858,779.7001908076123" stroke="rgb(255, 0, 0)" stroke-width="0.1pt" /><polygon fill="none" points="751.3910904767951,667.5561203120403 736.4121345263794,680.546006087101 751.3910904767951,705.4113148865503 751.3910904767951,667.5561203120403" stroke="rgb(255, 0, 0)" stroke-width="0.1pt" /><polygon fill="none" points="112.88381852590318,815.3386579126588 84.78106867046071,826.5339518865569 100.77344034447341,848.92340085973 109.71191000856231,844.6095623939863 119.53117870797885,832.624528612242 112.88381852590318,815.3386579126588" stroke="rgb(255, 0, 0)" stroke-width="0.1pt" /><polygon fill="none" points="124.16272013594289,866.7553936932802 115.22425047185399,871.0692321590238 115.67136648565217,874.811230023569 136.35735133057588,891.7950018917189 152.8447533658448,883.9239336433452 138.9900592126416,866.3717577831642 124.16272013594289,866.7553936932802" stroke="rgb(255, 0, 0)" stroke-width="0.1pt" /><polygon fill="none" points="135.03568329642246,839.6002103623762 125.21641459700592,851.5852441441206 140.04375367370463,851.2016082340045 145.58936103944595,841.0031731502869 135.03568329642246,839.6002103623762" stroke="rgb(255, 0, 0)" stroke-width="0.1pt" /><polygon fill="none" points="135.56576843035177,789.5202218064039 162.6629558849854,794.6972032854007 141.61247629878616,765.8544875786288 139.0151148855703,768.6836550808023 135.16549543592777,779.1828972657211 135.56576843035177,789.5202218064039" stroke="rgb(255, 0, 0)" stroke-width="0.1pt" /><polygon fill="none" points="106.8670347621964,793.1792596574335 106.46676176777243,782.8419351167505 79.4296844568892,773.4625231427832 73.4373541975854,780.1278867010551 67.88591007758575,792.9735862169539 68.51709562012829,803.4927214797601 76.1149386079558,806.7135757943195 104.21768846339828,795.5182818204214 106.8670347621964,793.1792596574335" stroke="rgb(255, 0, 0)" stroke-width="0.1pt" /><polygon fill="none" points="119.1488725185944,757.032604118848 92.13478507154531,749.9299245167281 88.26217575806868,758.1524343297995 115.29925306895187,767.5318463037667 119.1488725185944,757.032604118848" stroke="rgb(255, 0, 0)" stroke-width="0.1pt" /><polygon fill="none" points="129.00466908950014,741.1606595065468 141.60711638884447,721.9946300746769 112.25508858778704,721.6099991137953 100.46705997096822,726.9641839208157 99.3932202292352,736.8871474066007 126.40730767628429,743.9898270087205 129.00466908950014,741.1606595065468" stroke="rgb(255, 0, 0)" stroke-width="0.1pt" /><polygon fill="none" points="179.63812012875653,781.0791736807411 182.10163780835984,781.8377265226156 203.89254863092293,759.9945629199135 185.09818206510386,730.0145919951747 182.38167640819734,727.0391078079983 171.19008784190163,733.0704285420991 158.58764054255727,752.236457973969 179.63812012875653,781.0791736807411" stroke="rgb(255, 0, 0)" stroke-width="0.1pt" /><polygon fill="none" points="137.88521247643558,805.4583549793467 135.23586617763743,807.7973771423345 141.88322635971312,825.0832478419175 152.43690410273663,826.4862106298283 162.04141810505047,822.0284149210305 167.4446222067556,811.4058231018073 167.44591761067255,811.393889300218 164.9823999310692,810.6353364583434 137.88521247643558,805.4583549793467" stroke="rgb(255, 0, 0)" stroke-width="0.1pt" /><polygon fill="none" points="64.24867019916773,925.6799077799029 79.62517897345899,891.4779041532141 48.611594618202105,900.7974854485633 48.611594618202105,906.6261632869596 55.89080816256499,925.6405109046503 62.66176583030811,926.21094526911 64.24867019916773,925.6799077799029" stroke="rgb(255, 0, 0)" stroke-width="0.1pt" /><polygon fill="none" points="78.92398854383879,866.5439382178492 80.56796538660262,864.5647958302545 80.12084937280444,860.8227979657094 64.12847769879174,838.4333489925363 56.530634710964215,835.2124946779771 47.910404188581886,840.5585876809794 47.910404188581886,875.8635195131985 78.92398854383879,866.5439382178492" stroke="rgb(255, 0, 0)" stroke-width="0.1pt" /><polygon fill="none" points="38.23975801365012,942.070928192248 45.51897155801301,937.3018831307721 38.23975801365012,918.2875355130813 38.23975801365012,942.070928192248" stroke="rgb(255, 0, 0)" stroke-width="0.1pt" /><polygon fill="none" points="83.59767589829477,928.4592437732516 85.2031201688656,928.690054714285 108.51106493903063,929.5923923151032 121.2242512516986,909.6099741734176 121.30414636027356,909.2618696271179 100.61816151534987,892.278097758968 98.974184672586,894.2572401465627 83.59767589829477,928.4592437732516" stroke="rgb(255, 0, 0)" stroke-width="0.1pt" /><polygon fill="none" points="44.88232054959958,992.1019649990498 67.85441610439068,992.8068994823307 58.9324917617056,959.4895605098335 52.16153409396247,958.919126145374 44.88232054959958,963.6881712068497 44.88232054959958,992.1019649990498" stroke="rgb(255, 0, 0)" stroke-width="0.1pt" /><polygon fill="none" points="77.05470582000869,963.4476151718591 75.46780145114907,963.978652661066 84.38972579383415,997.2959916335632 91.59901380096153,1003.4252146819301 105.74173224314326,998.9746959573088 78.66015009057953,963.6784261128925 77.05470582000869,963.4476151718591" stroke="rgb(255, 0, 0)" stroke-width="0.1pt" /><polygon fill="none" points="245.0290070695649,615.5190979649391 240.53464823595533,615.3128819160488 236.86778649408132,644.5004327423516 246.8802443273284,642.3027159613367 252.27226668563998,632.8570323323247 245.0290070695649,615.5190979649391" stroke="rgb(255, 0, 0)" stroke-width="0.1pt" /><polygon fill="none" points="438.5751993002149,681.4075058119357 464.2786963767398,660.7194837661228 468.72471180157254,650.3595629044382 467.62257687130165,649.8347047169932 423.1275304607085,661.9029478238982 414.8654885632129,675.8485253125616 427.6826734722857,686.7240528520945 438.5751993002149,681.4075058119357" stroke="rgb(255, 0, 0)" stroke-width="0.1pt" /><polygon fill="none" points="451.2377683023895,688.4737425801991 468.483561105141,691.8074922836822 474.8189025728541,677.0435991721192 476.94126537891435,667.7857205343861 451.2377683023895,688.4737425801991" stroke="rgb(255, 0, 0)" stroke-width="0.1pt" /><polygon fill="none" points="504.4185858314786,662.6691584466072 499.97257040664584,673.0290793082918 497.85020760058563,682.2869579460249 511.374783091677,723.5036144486804 533.786273336534,713.6006050077856 513.9868813803621,662.3723001767714 504.4185858314786,662.6691584466072" stroke="rgb(255, 0, 0)" stroke-width="0.1pt" /><polygon fill="none" points="498.74994017679114,611.638075879006 508.3182357256745,611.3412176091704 534.1441744579203,594.1095731327457 492.47305296706315,557.8292909438253 487.7251213374756,556.5273428300047 478.1503976279396,586.5307471791932 497.64780524652025,611.1132176915611 498.74994017679114,611.638075879006" stroke="rgb(255, 0, 0)" stroke-width="0.1pt" /><polygon fill="none" points="405.51484798717553,719.1513006978356 392.6976630781027,708.2757731583029 385.0850322492705,710.1825278061539 374.328872606482,716.275768001683 369.27900945304077,729.1812295169532 369.1514153143462,736.6373558324774 374.76421259651306,749.333232988816 406.3317402812935,760.5599196786059 421.92290830095874,747.3889850602071 405.51484798717553,719.1513006978356" stroke="rgb(255, 0, 0)" stroke-width="0.1pt" /><polygon fill="none" points="441.9157271721412,706.9149339433144 431.0232013442121,712.2314809834733 447.4312616579953,740.4691653458447 452.40938321986664,739.8979120329292 459.1615199748927,710.2486836467974 441.9157271721412,706.9149339433144" stroke="rgb(255, 0, 0)" stroke-width="0.1pt" /><polygon fill="none" points="418.1172998256005,623.6051782574273 423.21363150928124,638.896619855452 467.7086779198744,626.8283767485467 448.21127030129367,602.2459062361789 431.5485644985091,599.9208991973572 418.1172998256005,623.6051782574273" stroke="rgb(255, 0, 0)" stroke-width="0.1pt" /><polygon fill="none" points="376.45359450743274,630.590593454783 364.90780519693226,632.4347846325401 379.0622879368807,668.089472353155 386.67491876571285,666.182717705304 394.9369606632084,652.2371402166405 389.8406289795277,636.9456986186158 376.45359450743274,630.590593454783" stroke="rgb(255, 0, 0)" stroke-width="0.1pt" /><polygon fill="none" points="280.1852546577076,484.749016934497 288.14440038489147,456.8640147826809 288.00421814698075,455.9417261292781 258.4269351913039,470.5758321209914 258.3802281248069,482.6721688829901 280.1852546577076,484.749016934497" stroke="rgb(255, 0, 0)" stroke-width="0.1pt" /><polygon fill="none" points="277.9776606479644,527.4723674235879 289.4053129763031,509.13193293054195 280.9465164587879,503.33860818050397 259.14148992588713,501.26176012899714 259.0527257969975,501.3887214318691 258.436410284337,504.4392792327333 277.9776606479644,527.4723674235879" stroke="rgb(255, 0, 0)" stroke-width="0.1pt" /><polygon fill="none" points="417.32553322231047,556.2180860208101 430.0577830369375,566.8027067357887 446.7204888397221,569.1277137746104 456.29521254925817,539.124309425422 454.17778555915015,534.7088577261385 418.98831649390064,539.1808294678818 417.32553322231047,556.2180860208101" stroke="rgb(255, 0, 0)" stroke-width="0.1pt" /><polygon fill="none" points="390.9917339924291,579.3004567406675 383.9445644068531,604.5747955558345 397.33159887894806,610.9299007196674 410.7628635518566,587.2456216595974 398.0306137372296,576.6610009446189 390.9917339924291,579.3004567406675" stroke="rgb(255, 0, 0)" stroke-width="0.1pt" /><polygon fill="none" points="323.1360415067131,496.17815989396246 323.30119143587854,496.0062325738505 305.2153557546848,462.4210811016696 297.256210027501,490.3060832534856 305.7150065450162,496.09940800352354 323.1360415067131,496.17815989396246" stroke="rgb(255, 0, 0)" stroke-width="0.1pt" /><polygon fill="none" points="139.2806667435479,413.96646077421923 127.21103446659528,431.78258061744714 139.2037464334321,457.5835983755095 157.59393902921917,458.25017788846174 172.49538129405644,423.67238225092376 139.2806667435479,413.96646077421923" stroke="rgb(255, 0, 0)" stroke-width="0.1pt" /><polygon fill="none" points="97.25813369542377,365.4168200662309 70.73257249225094,390.7785658919871 77.35624892574118,416.7873123457773 99.33528533963678,411.4977693854427 111.4049176165894,393.6816495422148 97.25813369542377,365.4168200662309" stroke="rgb(255, 0, 0)" stroke-width="0.1pt" /><polygon fill="none" points="76.18878286744201,248.75527265252333 111.17593965481527,282.88952620249427 142.40764743363337,278.261543224176 160.3000586257596,247.82559492041239 149.97015075801679,236.6769297587398 115.66414551706941,222.37746713684896 110.55956780801208,222.83825415291645 76.18878286744201,246.40884703867383 76.18878286744201,248.75527265252333" stroke="rgb(255, 0, 0)" stroke-width="0.1pt" /><polygon fill="none" points="48.63529999272642,355.8122611610985 57.09654456305388,356.91182717024554 83.62210576622671,331.55008134448934 83.62245678009967,316.7322946516599 48.63529999272642,282.5980411016889 48.63529999272642,355.8122611610985" stroke="rgb(255, 0, 0)" stroke-width="0.1pt" /><polygon fill="none" points="270.07455204191945,164.72793514386592 292.300854018563,166.63480155324754 305.2910383407528,159.34204439128774 293.8894545735804,135.09851120233913 260.9980604549115,138.7411140631039 259.9941675819512,147.77324411585542 270.07455204191945,164.72793514386592" stroke="rgb(255, 0, 0)" stroke-width="0.1pt" /><polygon fill="none" points="266.1736074161395,205.24627217847583 275.53996748377403,252.51089491623364 281.26093419109617,257.3263688907837 290.847331657564,255.9977895425914 291.71002963022744,202.93921003849343 269.4837276535839,201.03234362911184 266.1736074161395,205.24627217847583" stroke="rgb(255, 0, 0)" stroke-width="0.1pt" /><polygon fill="none" points="240.10712422771138,213.7121515263407 222.38610765531556,238.0616782174798 256.83794853402077,255.73882826662918 247.47158846638615,208.47420552887138 240.10712422771138,213.7121515263407" stroke="rgb(255, 0, 0)" stroke-width="0.1pt" /><polygon fill="none" points="149.14156690998013,151.32524227540262 154.88395312052003,139.3684276133922 150.90764424831997,114.46306072800853 125.22995929046097,136.8207899643096 120.09020721034423,145.12415472295928 118.69133981403202,170.72215360711442 123.79591752308936,170.26136659104694 149.14156690998013,151.32524227540262" stroke="rgb(255, 0, 0)" stroke-width="0.1pt" /><polygon fill="none" points="208.9128894187474,130.00542784007092 222.09981933347834,127.59125358610686 223.10371220643864,118.55912353335536 218.10481902273946,92.41674769390292 188.51743538440272,88.11501433373459 183.84297251756146,93.35041369145078 182.8274292053185,97.60577399845086 186.80373807751855,122.51114088383453 208.9128894187474,130.00542784007092" stroke="rgb(255, 0, 0)" stroke-width="0.1pt" /><polygon fill="none" points="641.424148520247,118.73796876715456 638.4459292647678,142.39798145401403 638.8493148548692,143.8942244925697 657.2100361973878,138.16182965780212 649.8033876080093,103.31045546969452 641.424148520247,118.73796876715456" stroke="rgb(255, 0, 0)" stroke-width="0.1pt" /><polygon fill="none" points="666.9712550684089,163.98710646540349 648.6105337258904,169.7195013001711 647.1297479378312,175.67328658867237 656.5780290941501,197.11867730266587 664.5667655318255,203.6749172935678 668.0895701599284,204.2459802792064 675.0288170941667,199.719239126701 691.1452258795863,166.1562536985158 666.9712550684089,163.98710646540349" stroke="rgb(255, 0, 0)" stroke-width="0.1pt" /><polygon fill="none" points="609.5161763280005,153.38737401381076 583.9714131936202,135.9821332575879 573.5378777628032,133.51868280608 572.6904713446618,134.9854303244941 568.5312667681458,148.30789501934143 579.4477603851683,162.69642198258452 608.4387761300427,160.8374023408677 609.9195619181017,154.8836170523664 609.5161763280005,153.38737401381076" stroke="rgb(255, 0, 0)" stroke-width="0.1pt" /><polygon fill="none" points="626.181006081364,120.05349212627107 597.6580236915045,126.30826405690767 623.2027868258848,143.71350481313056 626.181006081364,120.05349212627107" stroke="rgb(255, 0, 0)" stroke-width="0.1pt" /><polygon fill="none" points="668.0827405522731,98.64465336829272 675.4893891416515,133.4960275564003 699.6633599528288,135.66517478951266 700.4907557522847,134.91424651692984 705.2142490582545,116.22382811128045 678.4175800440541,98.14068762764764 669.988062212737,93.6176123053513 668.0827405522731,98.64465336829272" stroke="rgb(255, 0, 0)" stroke-width="0.1pt" /><polygon fill="none" points="620.2827653850409,101.81876316248949 628.6620044728031,86.39124986502945 630.5673261332669,81.36420880208803 629.7548178935634,79.81495527457348 628.4676653463173,78.63354630582232 582.1942891275769,80.6786642839949 581.3262475643643,105.61008464161824 591.7597829951812,108.0735350931261 620.2827653850409,101.81876316248949" stroke="rgb(255, 0, 0)" stroke-width="0.1pt" /><polygon fill="none" points="416.6748619006105,1151.6906432765463 436.8891836046726,1155.4723057960707 460.47194468152526,1140.5459649552934 459.2953421207763,1120.2524544011612 437.0277118368166,1110.283045072699 416.98886961750424,1140.5649570067642 416.6748619006105,1151.6906432765463" stroke="rgb(255, 0, 0)" stroke-width="0.1pt" /><polygon fill="none" points="373.30824173289886,1099.9806107931904 395.9786160656514,1124.1808252960764 416.0174582849638,1093.8989133620112 407.4272272764364,1081.525126536504 376.0779964794326,1093.8781897524407 373.30824173289886,1099.9806107931904" stroke="rgb(255, 0, 0)" stroke-width="0.1pt" /><polygon fill="none" points="159.65072477230314,1185.9470495191952 149.66440702160855,1179.2749604565793 141.1628505789629,1185.9470495191952 159.65072477230314,1185.9470495191952" stroke="rgb(255, 0, 0)" stroke-width="0.1pt" /><polygon fill="none" points="200.89726122960093,1150.1552915482184 174.77653846585332,1146.9133913430692 165.66926629027665,1168.6258877191458 175.65558404097123,1175.2979767817615 193.68624620691307,1175.2979767817615 200.89726122960093,1150.1552915482184" stroke="rgb(255, 0, 0)" stroke-width="0.1pt" /><polygon fill="none" points="261.2641770051919,1047.5337479556838 262.2078793900984,1044.4785027012615 248.09190954406859,1012.2521729872038 230.49369784955866,1004.1978732771016 218.3989238366823,1011.3251907179997 222.6465067624099,1046.3588166172244 227.27269996692942,1051.2934194939978 261.2641770051919,1047.5337479556838" stroke="rgb(255, 0, 0)" stroke-width="0.1pt" /><polygon fill="none" points="195.14158195882212,967.2153797192566 207.23635597169846,960.0880622783586 209.85412690202898,942.6449156916538 209.0899065947093,939.7180400149302 196.77281400301706,921.3478820883578 182.00286033787384,912.4032690277071 179.4444842661708,912.8454348555827 162.95708223090188,920.7165031039564 162.87718712232692,921.0646076502562 193.3483229653196,967.2882406045362 195.14158195882212,967.2153797192566" stroke="rgb(255, 0, 0)" stroke-width="0.1pt" /><polygon fill="none" points="263.5459672254939,977.7000586284886 270.3169660075992,976.1032601944343 290.91589170062923,959.6986103212547 294.9307308933272,941.7830353372484 278.3925201820939,939.2430730992098 248.56552646131448,952.2026123316816 245.94775553098395,969.6457589183864 263.5459672254939,977.7000586284886" stroke="rgb(255, 0, 0)" stroke-width="0.1pt" /><polygon fill="none" points="194.54700292166856,1049.491732112123 190.29941999594095,1014.4581062128982 188.50616100243843,1014.5309670981778 166.31880036423817,1019.3702203238962 162.2664824206,1040.9487683414613 179.4464838322134,1061.3809693985338 194.54700292166856,1049.491732112123" stroke="rgb(255, 0, 0)" stroke-width="0.1pt" /><polygon fill="none" points="293.36398085307036,1041.8308829216987 318.6440542850644,1036.7676684381395 327.50365979321816,1017.7880368605056 286.01900978914585,1008.007754773587 279.24801100704053,1009.6045532076413 293.36398085307036,1041.8308829216987" stroke="rgb(255, 0, 0)" stroke-width="0.1pt" /><polygon fill="none" points="209.0637781842999,1088.724985673248 204.4375849797804,1083.790382796475 189.33706589032525,1095.6796200828858 179.8978175402613,1114.3839333446324 181.12486981002473,1118.859540761441 182.63715830071345,1121.1150444771429 208.75788106446103,1124.3569446822921 218.67027827310824,1122.1125951792985 209.0637781842999,1088.724985673248" stroke="rgb(255, 0, 0)" stroke-width="0.1pt" /><polygon fill="none" points="268.10776158207995,1079.7290129674236 234.11628454381747,1083.4886845057376 243.72278463262577,1116.876294011788 254.6194478606403,1119.5285395459964 268.6676780702592,1093.292310700394 268.10776158207995,1079.7290129674236" stroke="rgb(255, 0, 0)" stroke-width="0.1pt" /><polygon fill="none" points="297.6974977860111,674.1435140942638 293.54581216268883,658.2591329956628 288.15118511289,662.2967016608003 294.60619220369165,675.1948621731117 297.6974977860111,674.1435140942638" stroke="rgb(255, 0, 0)" stroke-width="0.1pt" /><polygon fill="none" points="287.9999647577052,679.6059839412156 281.54495766690354,666.7078234289042 271.01217687328216,668.589051662658 276.5461345114589,683.949630352157 280.0020385127277,686.3828689715456 287.9999647577052,679.6059839412156" stroke="rgb(255, 0, 0)" stroke-width="0.1pt" /><polygon fill="none" points="306.5425217630699,670.4330535330196 322.3458421187812,668.6307613917172 312.7562436430518,642.4281381329698 302.39083613974753,654.5486724344186 306.5425217630699,670.4330535330196" stroke="rgb(255, 0, 0)" stroke-width="0.1pt" /><polygon fill="none" points="310.4347939672815,690.1251735104646 307.3434883849621,691.1765215893126 299.3455621399846,697.9534066196427 300.9412703964376,705.4211983478348 333.9174994101642,712.2173032967569 338.9673625636055,699.3118417814866 326.23811432299294,688.3228813691622 310.4347939672815,690.1251735104646" stroke="rgb(255, 0, 0)" stroke-width="0.1pt" /><polygon fill="none" points="305.7762861865819,596.5129813552398 306.79221890833765,596.6877850606504 309.98347818642816,594.3341650484484 316.50886445065055,572.0908452342977 289.4424311652601,562.444897575208 281.44350857268546,569.4786704783004 283.3073283684248,582.8320014585872 305.7762861865819,596.5129813552398" stroke="rgb(255, 0, 0)" stroke-width="0.1pt" /><polygon fill="none" points="293.8356261645739,611.8396157508757 271.3666683464168,598.1586358542231 259.4283801124416,605.6774955756975 266.6716397285166,623.0154299430832 293.8356261645739,611.8396157508757" stroke="rgb(255, 0, 0)" stroke-width="0.1pt" /><polygon fill="none" points="253.29393635608938,569.2151975399961 249.59627197540257,567.9386723511375 230.8375613258391,567.3531661534641 225.1216071019524,572.2975135650853 227.83511462105082,586.1336510433247 238.7251090842439,589.8811721928669 243.2194679178535,590.0873882417575 255.15775615182875,582.5685285202829 253.29393635608938,569.2151975399961" stroke="rgb(255, 0, 0)" stroke-width="0.1pt" /><polygon fill="none" points="271.2405975847945,541.1704186622976 271.3507105342318,538.3797296731764 251.80946017060432,515.3466414823218 250.63312205285484,517.461678748234 259.54401061153305,546.9276663765314 263.2416749922199,548.2041915653899 271.2405975847945,541.1704186622976" stroke="rgb(255, 0, 0)" stroke-width="0.1pt" /><polygon fill="none" points="323.58683243254325,551.0050236933666 324.42428708767875,550.1153009723895 325.4791993866256,520.3067044425486 308.0581644249287,520.2279525521097 296.63051209659005,538.5683870451556 296.5203991471528,541.359076034277 323.58683243254325,551.0050236933666" stroke="rgb(255, 0, 0)" stroke-width="0.1pt" /><polygon fill="none" points="336.02003592385336,599.9898817075518 351.5247521072459,604.9021967121914 363.0705414177464,603.0580055344342 370.1177110033225,577.7836667192671 343.3828768432112,576.856839172424 342.5454221880757,577.7465618934011 336.02003592385336,599.9898817075518" stroke="rgb(255, 0, 0)" stroke-width="0.1pt" /><polygon fill="none" points="328.40054365271277,632.466898716179 328.1759954950139,639.5819379536889 337.7655939707432,665.7845612124363 350.49484221135583,676.7735216247604 361.2510018541443,670.6802814292314 347.09651911419587,635.0255937086165 331.5918029308033,630.1132787039769 328.40054365271277,632.466898716179" stroke="rgb(255, 0, 0)" stroke-width="0.1pt" /><polygon fill="none" points="298.03045994027724,625.7989293760955 270.8664735042199,636.9747435683031 265.47445114590835,646.420427197315 272.5290291576096,651.1281035193565 283.06180995123094,649.2468752856025 288.4564370010298,645.209306620465 298.8218445043341,633.0887723190162 299.046392662033,625.9737330815063 298.03045994027724,625.7989293760955" stroke="rgb(255, 0, 0)" stroke-width="0.1pt" /><polygon fill="none" points="429.2766035781133,471.7360741112046 416.52492865370425,462.8417773052065 400.8517647105216,460.61340840681015 392.76780613528996,483.7308279870584 404.8995425333027,501.22445637503336 434.09643598336936,480.3823020552121 429.2766035781133,471.7360741112046" stroke="rgb(255, 0, 0)" stroke-width="0.1pt" /><polygon fill="none" points="383.78722223410404,526.7981619167825 371.65548583609126,509.3045335288076 351.4550170257937,519.1257800057847 351.2898670966283,519.2977073258967 350.2349547976814,549.1063038557376 376.9697889577927,550.0331314025807 384.0086687025932,547.393675606532 385.6714519741834,530.3564190536039 383.78722223410404,526.7981619167825" stroke="rgb(255, 0, 0)" stroke-width="0.1pt" /><polygon fill="none" points="370.09286201371646,447.5545884837734 362.33440099040115,434.0561478192716 352.9340392864008,428.83556509648463 328.4306213879737,433.5922843532468 323.58241670908285,445.98581441541495 323.72259894699357,446.90810306881775 341.80843462818723,480.49325454099875 362.0089034384848,470.6720080640216 370.09286201371646,447.5545884837734" stroke="rgb(255, 0, 0)" stroke-width="0.1pt" /><polygon fill="none" points="448.36551514248464,494.86629327325227 419.1686216924179,515.7084475930735 421.0528514324973,519.2667047298947 456.24232049774673,514.7947329881514 456.7237830537885,506.1325808525062 448.36551514248464,494.86629327325227" stroke="rgb(255, 0, 0)" stroke-width="0.1pt" /><polygon fill="none" points="424.47138793661986,427.42566408924154 453.1290046953897,401.6868034663906 453.28738577435996,390.0918601661286 429.4529781163389,382.9911106327518 401.039762970122,411.69885452634344 408.79822399343726,425.1972951908452 424.47138793661986,427.42566408924154" stroke="rgb(255, 0, 0)" stroke-width="0.1pt" /><polygon fill="none" points="454.0841792116454,450.408035765183 477.69276372025786,438.81312222130873 481.09374454238315,430.98925022120005 469.9901210460062,415.774878336334 441.3325042872363,441.51373895918493 454.0841792116454,450.408035765183" stroke="rgb(255, 0, 0)" stroke-width="0.1pt" /><polygon fill="none" points="461.2070000319957,468.6275755499098 466.02683243725176,477.27380349391734 474.3851003485557,488.5400910731712 492.9048566367805,477.00373137720004 484.8155845406081,457.0326620060354 461.2070000319957,468.6275755499098" stroke="rgb(255, 0, 0)" stroke-width="0.1pt" /><polygon fill="none" points="185.4254066065564,381.9852456689094 187.8496271817338,346.08050334767637 162.03429604375737,327.3117186174641 130.80258826493926,331.9397015957824 130.80223725106632,346.75748828861185 144.94902117223197,375.0223177645957 178.1637357227405,384.72823924130023 185.4254066065564,381.9852456689094" stroke="rgb(255, 0, 0)" stroke-width="0.1pt" /><polygon fill="none" points="207.67675163223146,431.2604761369852 200.4150807484156,434.00346970937596 185.5136384835783,468.581265346914 186.91368468435377,470.88432404745026 226.56172680617217,475.47952758792144 226.6504909350618,475.3525662850495 226.69719800155886,463.2562295230508 207.72812575556625,431.283608349122 207.67675163223146,431.2604761369852" stroke="rgb(255, 0, 0)" stroke-width="0.1pt" /><polygon fill="none" points="206.65588853650607,182.05038254573958 203.5214888665193,169.17717862658347 195.50749726949624,177.09493341844205 196.54502844667118,181.19356579746017 206.65588853650607,182.05038254573958" stroke="rgb(255, 0, 0)" stroke-width="0.1pt" /><polygon fill="none" points="196.0948635426651,158.64685361075945 200.6069236074463,152.19511791026392 178.49777226621742,144.70083095402748 172.75538605567755,156.6576456160379 188.08087194564206,166.56460840261798 196.0948635426651,158.64685361075945" stroke="rgb(255, 0, 0)" stroke-width="0.1pt" /><polygon fill="none" points="176.1215694140235,187.3873455754609 175.08403823684858,183.28871319644276 159.75855234688407,173.38175040986266 134.4129029599933,192.31787472550698 168.7189082009407,206.61733734739784 176.1215694140235,187.3873455754609" stroke="rgb(255, 0, 0)" stroke-width="0.1pt" /><polygon fill="none" points="220.87450556013306,178.81278896859004 234.84489585350744,183.4802406698182 242.20936009218224,178.2422946723489 245.51948032962665,174.02836612298486 235.43909586965844,157.07367509497436 222.25216595492753,159.48784934893843 217.7401058901463,165.93958504943396 220.87450556013306,178.81278896859004" stroke="rgb(255, 0, 0)" stroke-width="0.1pt" /><polygon fill="none" points="208.28486296748125,198.3052971300257 198.17400287764633,197.44848038174632 190.7713416645635,216.67847215368326 201.10124953230633,227.82713731535586 204.53423668845974,227.32227552239294 222.25525326085557,202.97274883125385 208.28486296748125,198.3052971300257" stroke="rgb(255, 0, 0)" stroke-width="0.1pt" /><polygon fill="none" points="333.5528996259909,1090.8589833420476 336.81568701688116,1088.644024791407 339.58544176341485,1082.5416037506573 326.67529207204956,1062.0226155598798 301.3952186400556,1067.0858300434393 300.4515162551491,1070.1410752978618 301.0114327433283,1083.704373030832 331.65509995421814,1091.2282990559115 333.5528996259909,1090.8589833420476" stroke="rgb(255, 0, 0)" stroke-width="0.1pt" /><polygon fill="none" points="358.37462704016514,1171.7789786847914 338.2069923804915,1157.9826818065308 308.7593795664301,1164.2960026434494 302.6562825739973,1167.618222933937 303.4762899733385,1172.5343070099382 358.22386072394335,1172.0802707230473 358.37462704016514,1171.7789786847914" stroke="rgb(255, 0, 0)" stroke-width="0.1pt" /><polygon fill="none" points="260.46920711945114,1166.9604244177328 249.45456707706617,1152.5386518486966 238.55790384905163,1149.8864063144883 228.64550664040445,1152.130755817482 221.4344916177166,1177.2734410510247 261.31349925781655,1177.2734410510247 261.28921451879233,1171.876508493734 260.46920711945114,1166.9604244177328" stroke="rgb(255, 0, 0)" stroke-width="0.1pt" /><polygon fill="none" points="358.2021540053149,1185.3909729554236 359.7307342926335,1179.5400041112416 304.9831635420287,1179.9940403981325 305.0074482810529,1185.3909729554236 358.2021540053149,1185.3909729554236" stroke="rgb(255, 0, 0)" stroke-width="0.1pt" /><polygon fill="none" points="291.94524686995936,1144.229948354579 319.5194072556503,1114.4180932555075 288.87574004476056,1106.894167230428 274.82750983514165,1133.1303960760304 285.8421498775266,1147.5521686450666 291.94524686995936,1144.229948354579" stroke="rgb(255, 0, 0)" stroke-width="0.1pt" /><polygon fill="none" points="337.4308616251396,1143.788200867245 337.45520886854194,1119.9203508912283 335.5574091967692,1120.2896666050922 307.9832488110781,1150.1015217041638 337.4308616251396,1143.788200867245" stroke="rgb(255, 0, 0)" stroke-width="0.1pt" /><polygon fill="none" points="377.5249359696103,1159.174306298562 383.000802560088,1154.6211016663124 383.31481027698175,1143.4954153965302 360.6444359442292,1119.2952008936443 357.38164855333895,1121.5101594442847 357.3573013099366,1145.3780094203014 377.5249359696103,1159.174306298562" stroke="rgb(255, 0, 0)" stroke-width="0.1pt" /><polygon fill="none" points="424.99172191886345,1184.015307757281 422.6309144972258,1177.0915047621183 402.41659279316366,1173.309842242594 396.9407262026858,1177.8630468748436 396.78995988646403,1178.1643389130995 395.2613795991454,1184.015307757281 424.99172191886345,1184.015307757281" stroke="rgb(255, 0, 0)" stroke-width="0.1pt" /><polygon fill="none" points="230.23911428360014,308.41042768653506 239.35343546535069,302.5721649231153 251.72307658743077,288.20382324475827 246.0021098801086,283.3883492702081 211.5502690014034,265.7111992210587 208.11728184524998,266.2160610140216 190.22487065312373,296.6520093177852 216.04020179110017,315.42079404799745 230.23911428360014,308.41042768653506" stroke="rgb(255, 0, 0)" stroke-width="0.1pt" /><polygon fill="none" points="312.5786221969709,397.36102222889764 316.93110991681255,400.17866430305315 341.4345278152397,395.42194504629106 339.86377090772174,384.0824504952491 320.080839383325,357.9010815230749 307.65874141532737,374.1550110528363 312.5786221969709,397.36102222889764" stroke="rgb(255, 0, 0)" stroke-width="0.1pt" /><polygon fill="none" points="256.0552794671894,415.30193759476623 233.21959045618726,417.7876766864977 252.1886627021798,449.7602978604265 281.7659456578567,435.12619186871314 286.61415033674757,422.732661806545 282.26166261690594,419.9150197323895 256.0552794671894,415.30193759476623" stroke="rgb(255, 0, 0)" stroke-width="0.1pt" /><polygon fill="none" points="250.35776785880986,370.3830751478498 237.29379820644164,346.2189769255964 223.09488571394164,353.2293432870588 220.6706651387642,389.1340856082918 220.72203926209903,389.1572178204287 243.5577282731012,386.67147872869714 250.35776785880986,370.3830751478498" stroke="rgb(255, 0, 0)" stroke-width="0.1pt" /><polygon fill="none" points="270.8384177626566,363.01291330769527 280.11515068250617,359.48113283001913 271.8009492578338,346.8562938018084 270.8384177626566,363.01291330769527" stroke="rgb(255, 0, 0)" stroke-width="0.1pt" /><polygon fill="none" points="263.0005620342632,354.4296928009366 263.9630935294404,338.27307329504976 257.8702964825044,325.44695308397456 248.75597530075385,331.2852158473943 261.8199449531221,355.4493140696477 263.0005620342632,354.4296928009366" stroke="rgb(255, 0, 0)" stroke-width="0.1pt" /><polygon fill="none" points="287.7330426982154,342.6399683185007 291.762155479589,344.88684460729723 304.1842534475866,328.6329150775358 299.5748477857828,302.8768169191601 295.2820828151549,301.4920880526653 285.69568534868705,302.82066740085764 273.326044226607,317.18900907921477 279.418841273543,330.01512929029 287.7330426982154,342.6399683185007" stroke="rgb(255, 0, 0)" stroke-width="0.1pt" /><polygon fill="none" points="273.33005945627434,378.37768300288457 272.14944237513316,379.39730427159566 265.3494027894246,395.68570785244304 291.55578593914106,400.2987899900663 286.6359051574975,377.092778814005 282.6067923761239,374.84590252520843 273.33005945627434,378.37768300288457" stroke="rgb(255, 0, 0)" stroke-width="0.1pt" /></svg>