<?xml version="1.0" encoding="utf-8" ?>
<svg baseProfile="full" height="11in" version="1.1" width="17in" xmlns="http://www.w3.org/2000/svg" xmlns:ev="http://www.w3.org/2001/xml-events" xmlns:xlink="http://www.w3.org/1999/xlink"><defs /><polygon fill="none" points="80.58132159864223,1179.809321775022 66.47541550457507,1148.0601274887388 43.59219925497032,1142.1339450657472 43.59219925497032,1179.809321775022 80.58132159864223,1179.809321775022" stroke="rgb(255, 0, 0)" stroke-width="0.1pt" /><polygon fill="none" points="38.07210010010138,1104.2866639761867 50.13903597716231,1064.109084189494 38.07210010010138,1057.2967190451286 38.07210010010138,1104.2866639761867" stroke="rgb(255, 0, 0)" stroke-width="0.1pt" /><polygon fill="none" points="46.62874279476538,1119.4682381786306 69.51195904437013,1125.3944206016222 71.05233229607728,1124.0646608779884 91.1627441015823,1089.2552390896344 73.73001407312547,1068.6000668075947 58.695678671826315,1071.5942194601744 46.62874279476538,1111.771799246867 46.62874279476538,1119.4682381786306" stroke="rgb(255, 0, 0)" stroke-width="0.1pt" /><polygon fill="none" points="39.856766810817774,447.63389051623494 48.74240671770178,446.11591179138844 59.003012700278745,433.2512813093416 50.596038765464186,400.24018004106944 39.856766810817774,398.8445770294597 39.856766810817774,447.63389051623494" stroke="rgb(255, 0, 0)" stroke-width="0.1pt" /><polygon fill="none" points="670.0435773798836,1179.0721977630997 647.3800599471804,1132.9102172079115 619.2026118489558,1168.87138937539 648.347751120331,1179.0721977630997 670.0435773798836,1179.0721977630997" stroke="rgb(255, 0, 0)" stroke-width="0.1pt" /><polygon fill="none" points="664.5660064610735,1126.8470637977705 687.2295238937766,1173.0090443529584 719.6032093429884,1173.0090443529584 726.7705663044695,1158.9557160687748 708.981685469633,1117.712580955124 666.8847087258339,1115.357268039501 664.5660064610735,1126.8470637977705" stroke="rgb(255, 0, 0)" stroke-width="0.1pt" /><polygon fill="none" points="84.01346729595608,482.57553811374976 106.09577715865896,481.94040744408636 117.1352894829374,472.4130603955539 101.91377044810608,439.6656147795517 74.01730115354628,446.3792654599763 63.756695170969316,459.24389594202324 84.01346729595608,482.57553811374976" stroke="rgb(255, 0, 0)" stroke-width="0.1pt" /><polygon fill="none" points="615.0584223856367,740.213982168398 612.7299187733236,738.8697390567069 581.8029495394776,748.3012065422384 581.7199960833153,798.1668990278397 625.998565790076,781.8276439288838 615.0584223856367,740.213982168398" stroke="rgb(255, 0, 0)" stroke-width="0.1pt" /><polygon fill="none" points="493.26220927840546,836.6469416972152 522.9885305363657,819.5593225129803 498.69944609682557,774.1822377051915 483.7317109484054,776.1593140472916 493.26220927840546,836.6469416972152" stroke="rgb(255, 0, 0)" stroke-width="0.1pt" /><polygon fill="none" points="721.461860304052,372.05702876068386 727.1644229611151,389.9141903364749 750.3006591988925,410.99198401442897 750.3006591988925,367.1404265407025 721.461860304052,372.05702876068386" stroke="rgb(255, 0, 0)" stroke-width="0.1pt" /><polygon fill="none" points="248.6649208839827,36.75786344913675 248.97322325276625,41.17130353528607 262.9099636287807,36.75786344913675 248.6649208839827,36.75786344913675" stroke="rgb(255, 0, 0)" stroke-width="0.1pt" /><polygon fill="none" points="454.4534203922938,41.31019368249286 451.41783015095893,53.981581748165084 472.409729430463,69.16670422093311 525.3394115080409,50.669228529169125 525.6197590667222,41.31019368249286 454.4534203922938,41.31019368249286" stroke="rgb(255, 0, 0)" stroke-width="0.1pt" /><polygon fill="none" points="564.1535130243819,41.38903997086435 563.8731654657008,50.74807481754062 574.9537168832799,63.95767839840708 633.6853097762964,61.36195173380342 630.6815151462415,41.38903997086435 564.1535130243819,41.38903997086435" stroke="rgb(255, 0, 0)" stroke-width="0.1pt" /><polygon fill="none" points="358.76907495526547,976.6681900255362 360.8768296135844,965.0654869655723 336.74662424123477,929.1468528446989 325.3485597949189,936.0759246520402 320.252802358033,958.8149236702019 358.76907495526547,976.6681900255362" stroke="rgb(255, 0, 0)" stroke-width="0.1pt" /><polygon fill="none" points="595.5365604161802,571.0833236438913 584.7159523326857,597.3933107237095 618.594760528628,626.6391737553007 653.3592140544927,587.6420328369702 649.3751161843409,578.4078096657785 595.5365604161802,571.0833236438913" stroke="rgb(255, 0, 0)" stroke-width="0.1pt" /><polygon fill="none" points="569.8514332342916,554.6380572628611 530.2748099699182,533.1070702795981 503.21427654113336,539.2562185733824 556.1045461256828,585.3042690439352 558.8878135778958,584.2305401550603 569.7084216613904,557.9205530752422 569.8514332342916,554.6380572628611" stroke="rgb(255, 0, 0)" stroke-width="0.1pt" /><polygon fill="none" points="535.070387654315,489.9207853901228 537.1416723538124,516.5508097059978 576.7182956181858,538.0817966892607 588.3007083510967,502.4286003258287 587.9319506249293,495.63611078162785 555.4596532406383,480.9234990585354 535.070387654315,489.9207853901228" stroke="rgb(255, 0, 0)" stroke-width="0.1pt" /><polygon fill="none" points="721.8236240511111,463.9200304210985 738.4822860263082,439.2115011610936 738.4822860263082,429.70866210128605 715.3460497885309,408.63086842333195 663.2428636218526,440.37244544942087 659.2758969270662,446.55444075939033 702.2309614256283,465.3591786915611 721.8236240511111,463.9200304210985" stroke="rgb(255, 0, 0)" stroke-width="0.1pt" /><polygon fill="none" points="703.2540552039089,782.8985209105441 656.5256663503797,743.9296118471854 637.8593941779191,743.7382309559921 648.799537582358,785.3518927164778 671.9161061721646,818.9501526125171 703.2540552039089,782.8985209105441" stroke="rgb(255, 0, 0)" stroke-width="0.1pt" /><polygon fill="none" points="701.9913124124555,642.9973833459408 717.1438361555605,661.9657078227281 726.5560041805982,663.8750636452287 745.5677559638182,647.3879009307284 745.5677559638182,619.4385975500306 745.2066985702518,618.838688669939 710.5630972011814,618.4836333612323 701.9913124124555,642.9973833459408" stroke="rgb(255, 0, 0)" stroke-width="0.1pt" /><polygon fill="none" points="679.0460678905195,657.8114035699709 633.6117856849651,658.3875470615628 632.0549220021553,709.7146560945109 634.3834256144687,711.0588992062022 653.0496977869295,711.2502800973955 672.7716266391153,700.2043212130727 694.1985916336246,676.7797280467582 679.0460678905195,657.8114035699709" stroke="rgb(255, 0, 0)" stroke-width="0.1pt" /><polygon fill="none" points="682.1955809345427,637.2297098799625 690.7673657232685,612.715959895254 689.316436993051,609.4021965283353 670.2451503680252,596.9308209334299 635.4806968421606,635.9279618517604 636.7612987289882,637.8058533715545 682.1955809345427,637.2297098799625" stroke="rgb(255, 0, 0)" stroke-width="0.1pt" /><polygon fill="none" points="750.8622980252339,1105.6826682068377 746.2431204938954,1101.8029964961468 730.3941883928351,1105.3120276401257 724.2033429994041,1110.9487216580362 741.9922238342406,1152.191856771687 750.8622980252339,1150.3635397260355 750.8622980252339,1105.6826682068377" stroke="rgb(255, 0, 0)" stroke-width="0.1pt" /><polygon fill="none" points="750.5688175891182,1090.497443235152 755.1879951204567,1094.377114945843 755.1879951204567,1088.0912969423139 754.137724841545,1087.9063316700178 750.5688175891182,1090.497443235152" stroke="rgb(255, 0, 0)" stroke-width="0.1pt" /><polygon fill="none" points="754.7869440290049,865.1314242501286 747.7226769037976,871.9343724927867 754.7869440290049,876.7286479586053 754.7869440290049,865.1314242501286" stroke="rgb(255, 0, 0)" stroke-width="0.1pt" /><polygon fill="none" points="637.5946155632301,1186.2483460344338 608.449476291855,1176.0475376467243 595.7931883608176,1186.2483460344338 637.5946155632301,1186.2483460344338" stroke="rgb(255, 0, 0)" stroke-width="0.1pt" /><polygon fill="none" points="592.3281892636618,1165.8533570848426 604.9844771946994,1155.6525486971332 633.1619252929238,1119.691376529655 635.4806275576841,1108.2015807713854 620.5593219315151,1087.6858997886948 577.044692041586,1103.2220273668497 584.7138939145846,1159.4542118260438 588.5236056085939,1165.8533570848426 592.3281892636618,1165.8533570848426" stroke="rgb(255, 0, 0)" stroke-width="0.1pt" /><polygon fill="none" points="540.0110898859955,1145.9655393525893 568.1166558080738,1163.4961710246148 560.4474539350753,1107.2639865654207 550.7862714027722,1105.9709316191268 540.0110898859955,1145.9655393525893" stroke="rgb(255, 0, 0)" stroke-width="0.1pt" /><polygon fill="none" points="72.10987820754615,683.9313205601302 50.75954742112084,674.3413231192831 42.73141465089113,677.2979126705432 42.73141465089113,695.9847705516911 64.53651779636422,703.069672644911 72.10987820754615,683.9313205601302" stroke="rgb(255, 0, 0)" stroke-width="0.1pt" /><polygon fill="none" points="73.75066017826315,1014.6275970834316 44.59376966641291,1013.7328725469597 44.59376966641291,1041.822296813626 56.660705543473846,1048.6346619579915 71.69504094477301,1045.6405093054118 82.90091034115555,1022.4069955678973 73.75066017826315,1014.6275970834316" stroke="rgb(255, 0, 0)" stroke-width="0.1pt" /><polygon fill="none" points="213.01553043186215,902.4081714980784 228.6487633367023,925.7241411741126 248.7686432799925,889.1520170358228 248.83723309233437,888.3329337265611 237.28848063913003,867.4721037770213 231.5113096872558,869.4644733655581 213.01553043186215,902.4081714980784" stroke="rgb(255, 0, 0)" stroke-width="0.1pt" /><polygon fill="none" points="238.33107592135127,932.6581634531417 239.30104784987236,936.3730441197525 277.15838603393865,919.9243981708461 276.86167541853837,903.4956717884052 258.45095586464146,896.0860393148519 238.33107592135127,932.6581634531417" stroke="rgb(255, 0, 0)" stroke-width="0.1pt" /><polygon fill="none" points="114.89520736818426,530.3131332614163 97.02921177857036,529.8298251426933 100.45786972308511,548.625135231006 101.63323671209615,548.7673769012889 115.14562243592496,530.8942630921124 114.89520736818426,530.3131332614163" stroke="rgb(255, 0, 0)" stroke-width="0.1pt" /><polygon fill="none" points="112.64207154105027,521.0343626927981 108.24099782379841,497.91985636151014 86.1586879610955,498.5549870311736 81.36684152964489,512.5465397281766 94.77607595143635,520.5510545740751 112.64207154105027,521.0343626927981" stroke="rgb(255, 0, 0)" stroke-width="0.1pt" /><polygon fill="none" points="64.22632230235475,538.2114335567803 73.69084619251286,549.3508507067247 91.6989772632789,548.984445135419 88.27031931876415,530.1891350471064 74.86108489697267,522.1846202012078 64.22632230235475,538.2114335567803" stroke="rgb(255, 0, 0)" stroke-width="0.1pt" /><polygon fill="none" points="41.82682370218964,524.5273197280573 55.54262670799184,525.2127541862776 66.17738930260978,509.1859408307052 70.9692357340604,495.19438813370215 50.71246360907365,471.86274596197563 41.82682370218964,473.3807246868221 41.82682370218964,524.5273197280573" stroke="rgb(255, 0, 0)" stroke-width="0.1pt" /><polygon fill="none" points="98.50291137800244,596.5194745253555 104.20909879519652,570.3872134204354 97.12878901672279,561.7830242429075 95.95342202771174,561.6407825726245 77.94529095694568,562.0071881439302 76.4360402259293,573.9208514874551 98.50291137800244,596.5194745253555" stroke="rgb(255, 0, 0)" stroke-width="0.1pt" /><polygon fill="none" points="126.58370683454645,538.258807924869 119.62845683701661,535.3819976517954 106.1160711131878,553.2551114609719 113.19638089166153,561.8593006384997 122.54518550072146,561.643453180681 126.58370683454645,538.258807924869" stroke="rgb(255, 0, 0)" stroke-width="0.1pt" /><polygon fill="none" points="162.2631263782567,551.7660070541738 160.10453683027308,543.4127981445217 136.26701304872455,539.0818019612396 132.22849171489958,562.4664472170517 147.82059045855007,566.2664613199406 162.2631263782567,551.7660070541738" stroke="rgb(255, 0, 0)" stroke-width="0.1pt" /><polygon fill="none" points="503.5824006263025,931.0588497328094 564.8387740043572,924.5976904489993 567.919759004784,906.848489943959 537.1456138406194,895.9585840239029 503.51181283814475,903.3110541128434 502.9434300554983,929.8896847432045 503.5824006263025,931.0588497328094" stroke="rgb(255, 0, 0)" stroke-width="0.1pt" /><polygon fill="none" points="594.9290409568943,908.832238200579 591.8480559564673,926.5814387056193 602.9443674334976,950.0117796344869 634.2201720545788,940.1387713221764 620.9204326154866,884.2951518431325 612.7276652845583,885.0751236771266 594.9290409568943,908.832238200579" stroke="rgb(255, 0, 0)" stroke-width="0.1pt" /><polygon fill="none" points="534.048680959445,646.1138698337116 559.1786784422787,711.134410580768 572.2866016610075,715.0515386407782 603.2135708948533,705.6200711552467 604.770434577663,654.2929621222986 603.4898326908353,652.4150706025044 569.6110244948931,623.1692075709133 566.82775704268,624.2429364597881 534.048680959445,646.1138698337116" stroke="rgb(255, 0, 0)" stroke-width="0.1pt" /><polygon fill="none" points="566.9618344106387,828.7908565594302 545.5808779794295,832.9490961232639 549.9157096870402,862.0466669968685 583.4209172892354,848.2644114523248 566.9618344106387,828.7908565594302" stroke="rgb(255, 0, 0)" stroke-width="0.1pt" /><polygon fill="none" points="529.2844967562064,840.3586520045534 527.4211450131551,840.2495388406626 497.69482375519476,857.3371580248975 489.3112530989186,868.7474750010989 496.85318443704244,887.0066260129099 530.4869854395171,879.6541559239693 533.6193284638172,869.4562228781582 529.2844967562064,840.3586520045534" stroke="rgb(255, 0, 0)" stroke-width="0.1pt" /><polygon fill="none" points="588.7953525012256,859.3365139420935 555.2901448990303,873.1187694866372 552.1578018747302,883.3167025324485 582.931947038895,894.2066084525046 600.7305713665589,870.4494939290522 588.7953525012256,859.3365139420935" stroke="rgb(255, 0, 0)" stroke-width="0.1pt" /><polygon fill="none" points="560.615317793322,806.2977057573879 561.9296819226312,801.6119331872472 562.0126353787934,751.7462407016461 548.9047121600647,747.8291126416357 520.459359156977,760.3983169320022 513.0819251795211,764.9697473495419 537.3710096190613,810.3468321573309 539.2343613621127,810.4559453212215 560.615317793322,806.2977057573879" stroke="rgb(255, 0, 0)" stroke-width="0.1pt" /><polygon fill="none" points="588.0834470562955,823.8484604404852 604.5425299348922,843.3220153333797 616.4777488002258,854.4349953203384 624.6705161311538,853.6550234863442 655.544690824771,842.5000561442241 656.792949482172,836.4216926674276 633.6763808923653,802.8234327713885 589.3978111856047,819.1626878703444 588.0834470562955,823.8484604404852" stroke="rgb(255, 0, 0)" stroke-width="0.1pt" /><polygon fill="none" points="480.04969322641483,515.6040834881809 482.73719671385965,521.2083106449637 488.7634176283361,522.8607832509668 515.823951057121,516.7116349571826 513.7526663576236,490.0816106413075 504.1666248364455,489.9675107788216 480.6607803167756,504.609813469862 480.04969322641483,515.6040834881809" stroke="rgb(255, 0, 0)" stroke-width="0.1pt" /><polygon fill="none" points="720.6676355418991,357.98578373613714 721.5774608848367,360.0647730684091 750.416259779677,355.14817084842775 750.416259779677,335.50689512543556 748.8516180000868,334.5788402821102 748.1731302147374,334.68138166111186 720.6676355418991,357.98578373613714" stroke="rgb(255, 0, 0)" stroke-width="0.1pt" /><polygon fill="none" points="699.2418013448527,373.17999110102096 695.8994734943359,370.5574242663099 654.8211335112858,383.61041687969083 653.7510031781751,424.8577190351729 705.8541893448532,393.11614200908394 700.1516266877902,375.258980433293 699.2418013448527,373.17999110102096" stroke="rgb(255, 0, 0)" stroke-width="0.1pt" /><polygon fill="none" points="739.7014111962457,275.4222651953848 725.7996602085257,277.685820389432 712.3575242334883,299.8064764181891 737.3860530379096,296.3405336907813 742.0980657714354,278.750999547301 739.7014111962457,275.4222651953848" stroke="rgb(255, 0, 0)" stroke-width="0.1pt" /><polygon fill="none" points="700.0675577422047,297.1988791597703 713.509693717242,275.07822313101326 680.1626722795124,252.64782582660902 682.8324780571551,302.94173198323637 688.3926584981685,306.7337880133539 700.0675577422047,297.1988791597703" stroke="rgb(255, 0, 0)" stroke-width="0.1pt" /><polygon fill="none" points="708.9118161910585,313.1059101487296 697.2369169470223,322.64081900231315 710.361847662127,347.74138762030725 713.7041755126438,350.36395445501824 741.2096701854821,327.05955237999297 733.9403449954797,309.6399674213217 708.9118161910585,313.1059101487296" stroke="rgb(255, 0, 0)" stroke-width="0.1pt" /><polygon fill="none" points="754.1504204635978,284.5115698974234 749.3499784421815,282.52689428375015 744.6379657086558,300.11642842723035 751.9072908986582,317.53601338590164 752.5857786840074,317.43347200689993 754.1504204635978,315.9300137224759 754.1504204635978,284.5115698974234" stroke="rgb(255, 0, 0)" stroke-width="0.1pt" /><polygon fill="none" points="617.8848884685596,292.69850912125526 622.1505762372365,264.0251189159232 593.360741024005,261.3473545904071 617.8848884685596,292.69850912125526" stroke="rgb(255, 0, 0)" stroke-width="0.1pt" /><polygon fill="none" points="610.243633383745,294.4762036828672 585.7194859391906,263.1250491520191 571.6711137217653,260.2448836436747 565.8099542818236,266.6138928217446 609.714728427403,302.70592784233367 610.243633383745,294.4762036828672" stroke="rgb(255, 0, 0)" stroke-width="0.1pt" /><polygon fill="none" points="271.55551653030693,72.19494321496472 284.2417449278576,43.349925259864285 266.38786914460087,43.349925259864285 252.45112876858641,47.76336534601361 243.30410564239477,70.15617142570645 271.55551653030693,72.19494321496472" stroke="rgb(255, 0, 0)" stroke-width="0.1pt" /><polygon fill="none" points="180.47247614308958,41.99826425627927 186.0015979764481,63.72853830781487 223.5548156712601,69.18843064956698 224.13603230190006,68.80451042212144 233.28305542809173,46.4117043424286 232.97475305930817,41.99826425627927 180.47247614308958,41.99826425627927" stroke="rgb(255, 0, 0)" stroke-width="0.1pt" /><polygon fill="none" points="307.00659475549594,78.276197444636 342.22280144833303,55.25299772994036 339.4618006384526,49.50697944452915 322.6538904192395,43.853989428421386 301.04935534214076,43.853989428421386 288.36312694459,72.69900738352182 307.00659475549594,78.276197444636" stroke="rgb(255, 0, 0)" stroke-width="0.1pt" /><polygon fill="none" points="40.58305308829638,66.2022614958335 41.526375369012406,66.75638861869714 64.63117455945388,44.58245296195068 60.656926139349906,40.88067697473966 50.502162885840846,40.88067697473966 40.58305308829638,43.106926078616915 40.58305308829638,66.2022614958335" stroke="rgb(255, 0, 0)" stroke-width="0.1pt" /><polygon fill="none" points="699.1371167522276,43.03479687012023 693.9131083680844,43.69980352842586 666.1476444710497,64.50718924724347 667.178904929135,66.47354949370424 677.8779083304221,72.21437586431112 710.5184360059677,53.06269866127076 707.9805086611182,43.03479687012023 699.1371167522276,43.03479687012023" stroke="rgb(255, 0, 0)" stroke-width="0.1pt" /><polygon fill="none" points="743.5294246565821,83.10624249088409 720.6390678001478,62.329671338323344 687.9985401246022,81.4813485413637 722.0096969503181,104.4330268475131 743.5294246565821,93.90258061367656 743.5294246565821,83.10624249088409" stroke="rgb(255, 0, 0)" stroke-width="0.1pt" /><polygon fill="none" points="546.2004443105949,109.61663720273609 547.2759986105435,107.75499612167205 548.3777436715443,76.11127028315013 537.2971922539651,62.90166670228367 484.3675101763872,81.39914239404766 487.1250577336875,99.20768324416544 546.2004443105949,109.61663720273609" stroke="rgb(255, 0, 0)" stroke-width="0.1pt" /><polygon fill="none" points="380.70552196081434,993.1090186249588 413.1634136472089,1012.3282865929465 418.1395175409833,1008.8183632734213 414.4004944214388,952.812184904495 406.4101283432587,950.3731750694391 381.93920595693834,974.6920743014671 379.8314512986194,986.294777361431 380.70552196081434,993.1090186249588" stroke="rgb(255, 0, 0)" stroke-width="0.1pt" /><polygon fill="none" points="150.48507723895744,1141.5867705780188 148.5656341546217,1138.7240158619356 88.63244879494873,1144.53440577875 87.09207554324159,1145.8641655023837 101.19798163730874,1177.6133597886667 128.13541014659828,1177.6133597886667 138.92584716995623,1169.1449390553466 150.48507723895744,1141.5867705780188" stroke="rgb(255, 0, 0)" stroke-width="0.1pt" /><polygon fill="none" points="146.66182913691952,1118.2794809236334 123.17920305808624,1094.6876164484922 108.39646807898971,1094.9610276965045 88.28605627348472,1129.7704494848585 148.2192416331577,1123.960059568044 146.66182913691952,1118.2794809236334" stroke="rgb(255, 0, 0)" stroke-width="0.1pt" /><polygon fill="none" points="348.09338658634863,1046.7350826312659 364.4793458100046,1072.7784137964834 404.26875412927865,1057.099525868564 404.6777015131198,1033.2976044971483 372.2198098267253,1014.0783365291605 359.3382705005438,1022.6455502442692 348.09338658634863,1046.7350826312659" stroke="rgb(255, 0, 0)" stroke-width="0.1pt" /><polygon fill="none" points="288.7203245250641,991.5076233767708 341.373918761002,1003.9210583332446 354.2554580871835,995.353844618136 353.38138742498853,988.5396033546081 314.8651148277561,970.6863369992737 288.7203245250641,991.5076233767708" stroke="rgb(255, 0, 0)" stroke-width="0.1pt" /><polygon fill="none" points="505.46484583252345,436.25022709237976 501.14821632751824,446.18052616944067 511.4153693726601,471.52842190976503 521.0014108938382,471.6425217722509 541.3906764801616,462.64523544066355 530.7742811850824,436.9989269562475 505.46484583252345,436.25022709237976" stroke="rgb(255, 0, 0)" stroke-width="0.1pt" /><polygon fill="none" points="468.51372436379063,313.8746644936175 449.72261045162793,313.8682097005772 438.66633119448346,336.84924960551336 443.7396306020634,353.87500112630426 473.9909941680131,362.88749091866714 504.8341307963418,338.5367885346014 505.1581332516502,335.20932037733144 504.4847183928774,332.7995152587058 468.51372436379063,313.8746644936175" stroke="rgb(255, 0, 0)" stroke-width="0.1pt" /><polygon fill="none" points="520.9043180094491,356.02776740115524 490.06118138112043,380.378469785221 489.86015924242747,395.0951285893997 503.9532198339828,414.40567752019126 529.2626551865417,415.154377384059 543.0879644985638,385.2838440915786 520.9043180094491,356.02776740115524" stroke="rgb(255, 0, 0)" stroke-width="0.1pt" /><polygon fill="none" points="537.3485736388619,323.2586645627514 601.3564480400344,311.9798360980971 601.0755424127371,310.9999053361519 557.1707682671579,274.90787031556295 547.9853975186784,280.0223750437325 536.6751587800891,320.8488594441257 537.3485736388619,323.2586645627514" stroke="rgb(255, 0, 0)" stroke-width="0.1pt" /><polygon fill="none" points="480.37663016384215,294.7117329292709 516.347624192929,313.6365836943592 527.6578629315183,272.81009929396595 493.6719892498133,247.19720670024282 490.64529602004626,247.17656623108914 480.37663016384215,294.7117329292709" stroke="rgb(255, 0, 0)" stroke-width="0.1pt" /><polygon fill="none" points="425.1992529883153,300.6157723750551 415.1048416003744,285.26243196446376 379.5407360417491,273.9215776414647 366.01723306653145,285.8027087980624 383.6495927911961,316.59941188628494 414.1429737311709,323.59681227999124 425.1992529883153,300.6157723750551" stroke="rgb(255, 0, 0)" stroke-width="0.1pt" /><polygon fill="none" points="464.6039837589966,289.7840066570408 474.8726496152007,242.24883995885904 462.6284620212627,237.792623405065 435.718458458893,274.42421145340916 445.8128698468339,289.7775518640005 464.6039837589966,289.7840066570408" stroke="rgb(255, 0, 0)" stroke-width="0.1pt" /><polygon fill="none" points="615.5768132223284,342.9276992251616 579.0009014221268,378.99499246730835 590.1989367135836,385.0310282756299 622.2365294563643,367.9904068742826 615.5768132223284,342.9276992251616" stroke="rgb(255, 0, 0)" stroke-width="0.1pt" /><polygon fill="none" points="628.3076685647251,381.96715031562917 596.2700758219444,399.00777171697655 625.2377484278338,438.31629103666035 631.013323660658,435.68735711661964 634.9802903554444,429.50536180665017 636.0504206885552,388.25805965116814 628.3076685647251,381.96715031562917" stroke="rgb(255, 0, 0)" stroke-width="0.1pt" /><polygon fill="none" points="570.5823255775866,403.4167859252522 564.4737532631034,402.1907148989992 550.6484439510813,432.0612481914795 561.2648392461605,457.7075566758956 593.7371366304513,472.420168398988 610.748033474933,448.7613410532577 581.7803608690436,409.4528217335738 570.5823255775866,403.4167859252522" stroke="rgb(255, 0, 0)" stroke-width="0.1pt" /><polygon fill="none" points="604.9252977232294,336.07088098290444 605.6029598293202,328.1682950193524 604.3890439759106,327.0497298864507 540.381169574738,338.32855835110485 540.0571671194297,341.6560265083748 562.2408136085444,370.91210319879815 568.3493859230276,372.1381742250512 604.9252977232294,336.07088098290444" stroke="rgb(255, 0, 0)" stroke-width="0.1pt" /><polygon fill="none" points="634.718050892289,335.17718540777787 641.377767126325,360.239893056899 649.1205192501551,366.530802392438 690.1988592332051,353.477809779057 677.0739285181003,328.37724116106295 671.513748077087,324.5851851309454 635.3957129983798,327.2745994442259 634.718050892289,335.17718540777787" stroke="rgb(255, 0, 0)" stroke-width="0.1pt" /><polygon fill="none" points="661.0991823744748,547.0273074704788 656.3225305856104,530.3148542040225 611.5647820277917,513.456675170887 599.9823692948808,549.109871534319 599.8393577219796,552.3923673467002 653.6779134901401,559.7168533685874 661.0991823744748,547.0273074704788" stroke="rgb(255, 0, 0)" stroke-width="0.1pt" /><polygon fill="none" points="669.2580255169448,507.9506640234186 683.7856335256727,481.71209226314863 640.8305690271106,462.9073543309779 635.0549937942866,465.5362882510186 618.0440969498048,489.1951155967489 618.4128546759722,495.98760514094977 663.170603233791,512.8457841740852 669.2580255169448,507.9506640234186" stroke="rgb(255, 0, 0)" stroke-width="0.1pt" /><polygon fill="none" points="713.0613581233819,558.0515348463321 682.6221884656331,557.9681148508147 675.2009195812985,570.6576607489233 679.1850174514503,579.891883920115 698.2563040764761,592.3632595150202 713.0613581233819,558.0515348463321" stroke="rgb(255, 0, 0)" stroke-width="0.1pt" /><polygon fill="none" points="750.9281687012391,513.8982884820116 736.5074690939762,502.4135294229139 729.2665882953901,531.7128072150068 729.8168057966927,543.088457556733 750.9281687012391,551.5798873698358 750.9281687012391,513.8982884820116" stroke="rgb(255, 0, 0)" stroke-width="0.1pt" /><polygon fill="none" points="718.7842158545482,523.1943159877592 726.0250966531345,493.89503819566636 723.7871342852002,485.5505622816836 704.1944716597171,486.9897105521462 689.6668636509894,513.2282823124161 718.7842158545482,523.1943159877592" stroke="rgb(255, 0, 0)" stroke-width="0.1pt" /><polygon fill="none" points="752.8593109299786,451.40337998333274 736.2006489547815,476.1119092433376 738.4386113227157,484.45638515732037 752.8593109299786,495.9411442164181 752.8593109299786,451.40337998333274" stroke="rgb(255, 0, 0)" stroke-width="0.1pt" /><polygon fill="none" points="726.7415933002574,562.069856656441 726.2024227588553,562.419166052012 711.3973687119496,596.7308907207002 712.8482974421671,600.044654087619 747.4918988112377,600.3997093963258 747.852956204804,598.4964506865882 747.852956204804,570.5612864695437 726.7415933002574,562.069856656441" stroke="rgb(255, 0, 0)" stroke-width="0.1pt" /><polygon fill="none" points="713.9221604038627,534.7314864957432 684.8048082003039,524.7654528204002 678.7173859171501,529.6605729710668 683.4940377060146,546.3730262375232 713.9332073637631,546.4564462330405 714.4723779051653,546.1071368374695 713.9221604038627,534.7314864957432" stroke="rgb(255, 0, 0)" stroke-width="0.1pt" /><polygon fill="none" points="726.649065138857,800.584901314761 720.8943228120883,802.9317971139761 689.5563737803438,838.9834288159491 688.3081151229429,845.0617922927454 710.0172396564574,869.352195061894 736.6744804883044,860.3572875996381 743.7387476135117,853.5543393569801 743.7387476135117,819.9435485139566 733.0022194640394,805.3709393505221 726.649065138857,800.584901314761" stroke="rgb(255, 0, 0)" stroke-width="0.1pt" /><polygon fill="none" points="754.1563537521108,791.9591651338558 743.4198256026385,791.5408468937817 754.1563537521108,806.1134560572161 754.1563537521108,791.9591651338558" stroke="rgb(255, 0, 0)" stroke-width="0.1pt" /><polygon fill="none" points="576.8542109206074,1008.0557170583451 573.2897364800855,995.3608831476615 507.7534327411368,991.169231086524 504.7033664248742,998.9231477844389 523.0234506082005,1033.303380857701 576.8542109206074,1008.0557170583451" stroke="rgb(255, 0, 0)" stroke-width="0.1pt" /><polygon fill="none" points="588.5507438835352,1024.1120699630862 534.7199835711284,1049.3597337624421 536.6042112608742,1071.216102612606 556.7105896771085,1078.8847052424085 566.3717722094116,1080.1777601887025 609.8864020993407,1064.6416326105477 610.414845929163,1055.1377620785884 588.5507438835352,1024.1120699630862" stroke="rgb(255, 0, 0)" stroke-width="0.1pt" /><polygon fill="none" points="481.17494040382076,1014.1753423439964 440.9438480608211,1032.844391949287 435.9677441670467,1036.3543152688121 435.5587967832055,1060.156236640228 446.4617822940288,1075.8614276110638 474.7245438082853,1088.5149086818046 501.3792522768929,1070.4119442674223 499.4950245871471,1048.5555754172583 481.17494040382076,1014.1753423439964" stroke="rgb(255, 0, 0)" stroke-width="0.1pt" /><polygon fill="none" points="476.33377613468525,987.1269282356433 479.3838424509479,979.3730115377282 476.8639590207623,951.1877710612974 476.2249884499581,950.0186060716924 432.363660672141,949.7897994720075 436.1026837916856,1005.7959778409338 476.33377613468525,987.1269282356433" stroke="rgb(255, 0, 0)" stroke-width="0.1pt" /><polygon fill="none" points="575.2915117038891,979.2786765127036 579.58800938984,963.8709656201922 568.4916979128096,940.440624691325 507.2353245347549,946.9017839751351 509.75520796494044,975.0870244515659 575.2915117038891,979.2786765127036" stroke="rgb(255, 0, 0)" stroke-width="0.1pt" /><polygon fill="none" points="483.08691265243226,1182.5803829862036 484.23355084562195,1170.2526599831922 480.4804094921479,1159.4934338224987 475.8773563375263,1154.8475081175102 445.9453903553673,1173.7924791846506 448.9417997751382,1182.5803829862036 483.08691265243226,1182.5803829862036" stroke="rgb(255, 0, 0)" stroke-width="0.1pt" /><polygon fill="none" points="495.49676988877644,1141.3776843683634 525.3862419289618,1140.534856601244 536.1614234457385,1100.5402488677814 516.0550450295042,1092.871646237979 489.4003365608966,1110.9746106523612 490.8937167341549,1136.731758663375 495.49676988877644,1141.3776843683634" stroke="rgb(255, 0, 0)" stroke-width="0.1pt" /><polygon fill="none" points="505.8096516548527,1169.738603512666 530.0381456382262,1182.0663265156777 563.8612599576517,1182.0663265156777 560.0515482636423,1175.6671812568786 531.9459823415639,1158.1365495848531 502.05651030137864,1158.9793773519723 505.8096516548527,1169.738603512666" stroke="rgb(255, 0, 0)" stroke-width="0.1pt" /><polygon fill="none" points="520.9124055511047,1185.88311827221 496.6839115677312,1173.5553952691985 495.5372733745415,1185.88311827221 520.9124055511047,1185.88311827221" stroke="rgb(255, 0, 0)" stroke-width="0.1pt" /><polygon fill="none" points="713.7538812845887,1024.3878301387756 680.419258520864,999.5073160308262 656.3821135164412,1036.8477364152202 711.6968855875909,1027.6193148932061 713.7538812845887,1024.3878301387756" stroke="rgb(255, 0, 0)" stroke-width="0.1pt" /><polygon fill="none" points="711.1674967482367,1044.0068859672892 655.8527246770869,1053.235307489303 647.9608879747557,1059.934621733806 647.4324441449335,1069.438492265765 662.3537497711025,1089.9541732484556 704.4507265149016,1092.3094861640784 710.6415719083327,1086.672792146168 711.1674967482367,1044.0068859672892" stroke="rgb(255, 0, 0)" stroke-width="0.1pt" /><polygon fill="none" points="695.1423456099122,954.5364653833099 743.624631284729,966.1767539092311 743.624631284729,937.0203027482474 710.0166443115528,905.3371456862559 692.6323725071384,949.5650427813628 695.1423456099122,954.5364653833099" stroke="rgb(255, 0, 0)" stroke-width="0.1pt" /><polygon fill="none" points="750.9411992956075,1024.1177285221236 733.0560102001103,1035.967036679301 730.9990145031124,1039.1985214337315 730.4730896632086,1081.8644276126101 746.322021764269,1078.3553964686312 749.890929016696,1075.764284903497 750.9411992956075,1074.4365459865041 750.9411992956075,1024.1177285221236" stroke="rgb(255, 0, 0)" stroke-width="0.1pt" /><polygon fill="none" points="695.0360526785404,972.1043907246752 692.2985264941353,989.6023636419964 725.6331492578599,1014.4828777499456 743.5183383533572,1002.6335695927683 743.5183383533572,983.7446792505966 695.0360526785404,972.1043907246752" stroke="rgb(255, 0, 0)" stroke-width="0.1pt" /><polygon fill="none" points="749.9361085353428,885.675925235115 742.8718414101356,880.8816497692964 716.2146005782886,889.8765572315522 716.3281215621665,890.8489592713034 749.9361085353428,922.532116333295 749.9361085353428,885.675925235115" stroke="rgb(255, 0, 0)" stroke-width="0.1pt" /><polygon fill="none" points="673.8488983323897,935.9883405935179 691.233170136804,891.7604434984111 691.1196491529262,890.7880414586598 669.4105246194115,866.4976386895112 638.5363499257946,877.6526060316315 651.8360893648868,933.4962255106753 673.8488983323897,935.9883405935179" stroke="rgb(255, 0, 0)" stroke-width="0.1pt" /><polygon fill="none" points="666.7830812991173,972.6858822140161 664.2731081963434,967.7144596120692 642.2602992288405,965.2223445292266 610.9844946077594,975.095352841537 606.6879969218086,990.5030637340482 610.2524713623305,1003.1978976447317 632.1165734079582,1034.2235897602338 640.0084101102893,1027.5242755157312 664.0455551147122,990.1838551313373 666.7830812991173,972.6858822140161" stroke="rgb(255, 0, 0)" stroke-width="0.1pt" /><polygon fill="none" points="39.44887587542609,777.6152262148298 49.588817580607376,786.1675958953174 56.634881271376166,769.863438817446 39.44887587542609,744.8239418653939 39.44887587542609,777.6152262148298" stroke="rgb(255, 0, 0)" stroke-width="0.1pt" /><polygon fill="none" points="74.77225659003325,726.1971537998028 65.50751905575069,717.9873504101879 43.70241591027761,710.9024483169678 43.70241591027761,732.6483343971826 60.8884213062277,757.6878313492347 68.49407125072867,749.2279468329666 73.4093061486029,738.7916843779145 74.77225659003325,726.1971537998028" stroke="rgb(255, 0, 0)" stroke-width="0.1pt" /><polygon fill="none" points="99.94019308753846,708.0043918230069 94.03932720231121,677.4631394043195 83.28708733539857,687.4519324498294 75.71372692421664,706.5902845346103 84.97846445849919,714.8000879242253 99.94019308753846,708.0043918230069" stroke="rgb(255, 0, 0)" stroke-width="0.1pt" /><polygon fill="none" points="265.31361415782123,757.0949420307586 330.26556014050817,737.3251914484009 330.42750654731276,727.8616465094664 288.5730620298904,719.2358209973731 265.31361415782123,757.0949420307586" stroke="rgb(255, 0, 0)" stroke-width="0.1pt" /><polygon fill="none" points="419.8652404904867,804.5524857650846 392.55752507873206,860.2951202986602 399.1518742640228,864.4299433353067 458.3582935930526,860.9447438898334 419.8652404904867,804.5524857650846" stroke="rgb(255, 0, 0)" stroke-width="0.1pt" /><polygon fill="none" points="375.0627475485634,884.9745002933473 359.6780063830381,885.4779856278785 347.60271483088565,916.270048669921 371.73292020323527,952.1886827907945 396.2038425895556,927.8697835587666 381.65709673385413,889.1093233299939 375.0627475485634,884.9745002933473" stroke="rgb(255, 0, 0)" stroke-width="0.1pt" /><polygon fill="none" points="464.96876854302343,881.6350026830672 405.7623492139936,885.1202021285405 420.30909506969505,923.8806623573132 428.2994611478751,926.3196721923691 472.1607889256922,926.548478792054 472.7291717083387,899.969848161693 465.18724037021485,881.710697149882 464.96876854302343,881.6350026830672" stroke="rgb(255, 0, 0)" stroke-width="0.1pt" /><polygon fill="none" points="432.3110372731626,791.6764832685292 470.8040903757285,848.0687413932778 471.0225622029199,848.1444358600927 479.4061328591961,836.7341188838913 469.8756345291961,776.2464912339676 458.4439662490563,773.7550361988003 452.12558118975807,774.4800884805778 432.3367910109522,791.1970439577764 432.3110372731626,791.6764832685292" stroke="rgb(255, 0, 0)" stroke-width="0.1pt" /><polygon fill="none" points="84.25089666822493,953.0703077862769 118.62367401570967,997.8694195118821 140.1848526741424,993.5751601293857 113.83405733804977,954.2155824334693 84.25089666822493,953.0703077862769" stroke="rgb(255, 0, 0)" stroke-width="0.1pt" /><polygon fill="none" points="287.41666316759233,812.62635128273 287.5984996272386,813.3442979301988 314.10773285343106,839.679201719044 318.09119555114887,842.051493252882 334.7968219447027,846.7624066278887 339.79585890200167,788.6033013661535 287.41666316759233,812.62635128273" stroke="rgb(255, 0, 0)" stroke-width="0.1pt" /><polygon fill="none" points="358.06086457656977,787.4618179497038 353.0618276192709,845.6209232114392 360.24705330463826,851.0896844909893 375.63179447016347,850.5861991564581 402.9395098819181,794.8435646228825 402.9652636197077,794.3641253121297 362.89878617364013,780.1148691289349 358.06086457656977,787.4618179497038" stroke="rgb(255, 0, 0)" stroke-width="0.1pt" /><polygon fill="none" points="317.6005711341114,867.313701198934 296.73055069644465,895.5619860952307 297.027261311845,911.9907124776717 318.0180672145641,915.2145107028745 329.41613166088,908.2854388955333 341.4914232130325,877.4933758534908 334.30619752766523,872.0246145739408 317.6005711341114,867.313701198934" stroke="rgb(255, 0, 0)" stroke-width="0.1pt" /><polygon fill="none" points="303.4517735318509,859.3434217749548 268.22308605034704,881.7352824222746 268.15449623800515,882.5543657315362 286.56521579190206,889.9639982050894 307.4352362295688,861.7157133087927 303.4517735318509,859.3434217749548" stroke="rgb(255, 0, 0)" stroke-width="0.1pt" /><polygon fill="none" points="271.5158154334401,823.8782022352375 251.24760872492433,851.7441367218627 262.7963611781287,872.6049666714025 298.02504865963255,850.2131060240827 271.5158154334401,823.8782022352375" stroke="rgb(255, 0, 0)" stroke-width="0.1pt" /><polygon fill="none" points="281.3969780896631,797.0683573484682 333.7761738240724,773.0453074318918 338.6140954211427,765.6983586111228 331.4901604091618,749.5843606819238 266.5382144264749,769.3541112642815 263.81154783914593,771.5466534815675 281.3969780896631,797.0683573484682" stroke="rgb(255, 0, 0)" stroke-width="0.1pt" /><polygon fill="none" points="177.93241407867512,832.9886891434033 180.8993106010446,866.5493881927433 203.61352385737973,846.1415830041976 184.79032697699313,819.5061687574663 177.93241407867512,832.9886891434033" stroke="rgb(255, 0, 0)" stroke-width="0.1pt" /><polygon fill="none" points="198.5300955801113,808.5374653866311 217.3532924604979,835.1728796333625 230.51741513817964,840.7477560331463 236.29458609005385,838.7553864446096 256.5627927985696,810.8894519579843 256.38095633892334,810.1715053105154 238.7955260884062,784.6498014436146 226.1894342521821,780.798303296569 198.53173974662127,808.5223186384603 198.5300955801113,808.5374653866311" stroke="rgb(255, 0, 0)" stroke-width="0.1pt" /><polygon fill="none" points="186.04384804591928,877.7347927034274 184.67992507263,884.4927839317444 203.42640472454255,895.8455620471858 221.9221839799362,862.9018639146653 208.75806130225445,857.3269875148816 186.04384804591928,877.7347927034274" stroke="rgb(255, 0, 0)" stroke-width="0.1pt" /><polygon fill="none" points="169.7064923331249,837.9257009699395 157.5161476378804,843.5836724464906 150.47749213520868,856.5278400527477 168.06229625273585,878.8056017214388 171.3094658822051,878.2443912475967 172.67338885549438,871.4864000192796 169.7064923331249,837.9257009699395" stroke="rgb(255, 0, 0)" stroke-width="0.1pt" /><polygon fill="none" points="40.50236083161972,608.7309412073996 42.01829164325529,611.8628227627834 53.072510727236384,611.0019407124106 59.65672100608295,585.1054197543745 57.401683022958345,585.5827154146763 40.50236083161972,596.8432593415359 40.50236083161972,608.7309412073996" stroke="rgb(255, 0, 0)" stroke-width="0.1pt" /><polygon fill="none" points="55.801226001972545,580.0028303629379 38.901903810633904,579.656533744234 38.901903810633904,591.2633742897974 55.801226001972545,580.0028303629379" stroke="rgb(255, 0, 0)" stroke-width="0.1pt" /><polygon fill="none" points="36.26031135149298,619.7673136145239 37.77624216312856,617.7547969733934 36.26031135149298,614.6229154180096 36.26031135149298,619.7673136145239" stroke="rgb(255, 0, 0)" stroke-width="0.1pt" /><polygon fill="none" points="60.495787485743804,571.122515308808 63.01250347622449,568.4717425811289 64.52175420724087,556.5580792376038 55.05723031708277,545.4186620876594 41.341427311280576,544.7332276294392 41.341427311280576,571.2535143504062 58.24074950261921,571.59981096911 60.495787485743804,571.122515308808" stroke="rgb(255, 0, 0)" stroke-width="0.1pt" /><polygon fill="none" points="100.56501980501517,616.9704503732305 74.79557021442605,624.7434833931422 80.66680932965896,645.6740733380708 98.43892413347447,650.924356651448 124.36966525425598,636.2748645981173 100.56501980501517,616.9704503732305" stroke="rgb(255, 0, 0)" stroke-width="0.1pt" /><polygon fill="none" points="91.18994651142317,661.7170057042398 73.41783170760766,656.4667223908625 57.523187804490924,666.675912098147 78.87351859091623,676.265909538994 89.62575845782888,666.277116493484 91.18994651142317,661.7170057042398" stroke="rgb(255, 0, 0)" stroke-width="0.1pt" /><polygon fill="none" points="59.133176438016726,627.4102267270307 53.651788775519854,625.2332781256099 42.597569691538766,626.0941601759827 41.08163887990319,628.1066768171133 41.08163887990319,661.5065959305037 49.10977165013289,658.5500063792438 65.00441555324963,648.3408166719593 59.133176438016726,627.4102267270307" stroke="rgb(255, 0, 0)" stroke-width="0.1pt" /><polygon fill="none" points="92.99221686705235,605.5342021188259 92.90917703536674,605.1816158895018 70.8423058832936,582.5829928516014 68.32558989281293,585.2337655792808 61.74137961396636,611.130286537317 67.22276727646323,613.3072351387376 92.99221686705235,605.5342021188259" stroke="rgb(255, 0, 0)" stroke-width="0.1pt" /><polygon fill="none" points="138.99796308910004,651.856013201906 113.06722196831853,666.5055052552366 111.50303391472423,671.0656160444807 117.40389979995146,701.6068684631682 154.65839662437054,702.0950539135181 168.8631051892843,694.4399160586981 168.4734761079224,678.2741854121434 160.6787490322602,664.0963177159348 140.36498217319482,652.0142770889483 138.99796308910004,651.856013201906" stroke="rgb(255, 0, 0)" stroke-width="0.1pt" /><polygon fill="none" points="110.72625433631545,604.5964795220966 134.53089978555627,623.9008937469833 135.89791886965102,624.0591576340261 141.29030527453438,581.6957988329225 125.69820653088385,577.8957847300336 116.34940192182393,578.1116321878524 110.64321450462984,604.2438932927724 110.72625433631545,604.5964795220966" stroke="rgb(255, 0, 0)" stroke-width="0.1pt" /><polygon fill="none" points="257.9257740652254,687.9703695999264 250.90190475523195,668.4742504940237 241.94801727884186,662.49912285451 229.23989772125907,665.2885326150287 198.0533395018903,678.7434187791885 198.4429685832522,694.9091494257432 201.89084114778734,698.6857255094669 257.9257740652254,687.9703695999264" stroke="rgb(255, 0, 0)" stroke-width="0.1pt" /><polygon fill="none" points="266.57032412438247,706.3357784104521 262.1839844304643,703.2474370858433 206.1490515130262,713.962792995384 230.00343984656587,752.0142945537065 242.60953168278996,755.865792700752 245.33619827011893,753.673250483466 268.5956461421881,715.8141294500806 266.57032412438247,706.3357784104521" stroke="rgb(255, 0, 0)" stroke-width="0.1pt" /><polygon fill="none" points="229.72006324174995,499.46887864510586 230.5023098539729,495.59701682093197 180.1797948532034,489.764643096488 183.50820084459062,513.3607183080688 218.6065220555105,513.350946452055 228.22701870768333,502.1533490210714 229.72006324174995,499.46887864510586" stroke="rgb(255, 0, 0)" stroke-width="0.1pt" /><polygon fill="none" points="163.80254795252412,514.8842820956116 160.4741419611369,491.2882068840308 158.697160244768,488.3650939179654 135.35576195011518,487.51905068998747 124.31624962583675,497.04639773851994 128.71732334308862,520.1609040698079 128.9677384108293,520.742033900504 135.92298840835915,523.6188441735776 159.76051218990767,527.9498403568597 163.80254795252412,514.8842820956116" stroke="rgb(255, 0, 0)" stroke-width="0.1pt" /><polygon fill="none" points="240.29423774540842,513.9042035609335 230.6737410932356,525.1018009919171 227.79507893774644,550.5601992228793 251.60421168526923,551.3033417045417 240.29423774540842,513.9042035609335" stroke="rgb(255, 0, 0)" stroke-width="0.1pt" /><polygon fill="none" points="208.50219135130718,593.0205903542333 205.0581241155284,575.4593389395448 182.15386923984147,567.6290675242753 184.04003291414503,624.428593287953 208.50219135130718,593.0205903542333" stroke="rgb(255, 0, 0)" stroke-width="0.1pt" /><polygon fill="none" points="206.8291782116225,557.8156669473689 214.0840431880941,551.5401490787727 216.96270534358328,526.0817508478106 181.86438413266342,526.0915227038245 177.82234837004694,539.1570809650725 179.98093791803052,547.5102898747245 183.92492333593557,549.9853955320993 206.8291782116225,557.8156669473689" stroke="rgb(255, 0, 0)" stroke-width="0.1pt" /><polygon fill="none" points="173.63947574020446,629.4992457938584 171.75331206590093,572.6997200301809 167.80932664799587,570.2246143728061 153.36679072828932,584.7250686385729 147.97440432340596,627.0884274396764 168.28817118247142,639.1704680666626 173.63947574020446,629.4992457938584" stroke="rgb(255, 0, 0)" stroke-width="0.1pt" /><polygon fill="none" points="213.49440132007553,608.575986866527 189.03224288291335,639.9839898002468 183.6809383251803,649.655212073051 191.47566540084244,663.8330797692596 222.66222362021125,650.3781936050998 227.3163173695129,613.3324560178693 213.49440132007553,608.575986866527" stroke="rgb(255, 0, 0)" stroke-width="0.1pt" /><polygon fill="none" points="482.797145738474,691.1851283675844 474.75613541406904,709.9239157784145 466.1861156865359,747.5556287300428 477.61778396667563,750.0470837652101 492.58551911509574,748.07000742311 499.96295309255163,743.4985770055703 482.797145738474,691.1851283675844" stroke="rgb(255, 0, 0)" stroke-width="0.1pt" /><polygon fill="none" points="752.5180809205989,190.99655123385224 749.1137609262817,189.86503248466667 732.928569658467,220.1796065220424 749.0772426943481,228.94535986509527 752.5180809205989,227.25452995533206 752.5180809205989,190.99655123385224" stroke="rgb(255, 0, 0)" stroke-width="0.1pt" /><polygon fill="none" points="751.150644707961,244.54529254503922 747.3943863376055,265.14984480184995 749.7910409127952,268.4785791537661 754.5914829342116,270.46325476743937 754.5914829342116,242.854462635276 751.150644707961,244.54529254503922" stroke="rgb(255, 0, 0)" stroke-width="0.1pt" /><polygon fill="none" points="693.7503241702736,208.37612515623331 723.1813417835556,213.33537249559637 739.3665330513701,183.0207984582206 715.255922297231,164.8238500744893 714.2057660902294,165.77695134353672 693.7503241702736,208.37612515623331" stroke="rgb(255, 0, 0)" stroke-width="0.1pt" /><polygon fill="none" points="631.6476928537684,206.60614565319204 619.6556436938255,179.38699590081575 582.8593544791771,181.74652083068702 580.3327822282198,207.7228378967639 582.3748778456983,213.7561700850126 631.6476928537684,206.60614565319204" stroke="rgb(255, 0, 0)" stroke-width="0.1pt" /><polygon fill="none" points="644.4024101660491,228.37318633774265 634.2628600720765,220.05180481082863 584.9900450640063,227.2018292426492 579.2691622842008,245.9390091004525 593.3175345016261,248.81917460879689 622.1073697148576,251.49693893431294 644.4024101660491,228.37318633774265" stroke="rgb(255, 0, 0)" stroke-width="0.1pt" /><polygon fill="none" points="683.6583556447928,231.3980721908559 687.0405212223764,239.81530386462248 720.387542660106,262.24570116902674 734.2892936478258,259.9821459749795 738.0455520181813,239.3775937181688 721.8968789823001,230.61184037511597 692.4658613690182,225.65259303575291 683.6583556447928,231.3980721908559" stroke="rgb(255, 0, 0)" stroke-width="0.1pt" /><polygon fill="none" points="662.6043951698231,243.61793646110243 658.1331431418462,242.8931257485611 635.8381026906546,266.0168783451314 631.5724149219776,294.69026855046343 631.0435099656354,302.91999270992994 631.3244155929328,303.8999234718751 632.5383314463422,305.0184886047768 668.6563665250493,302.32907429149634 665.9865607474067,252.035168134869 662.6043951698231,243.61793646110243" stroke="rgb(255, 0, 0)" stroke-width="0.1pt" /><polygon fill="none" points="351.09089606883936,364.76752558426153 365.5120239522563,325.326181421604 347.8796642275916,294.52947833338146 320.1313911786617,298.8468942262558 325.9817906724895,331.5373265041943 351.09089606883936,364.76752558426153" stroke="rgb(255, 0, 0)" stroke-width="0.1pt" /><polygon fill="none" points="366.89861332338575,379.7983611454424 368.89226632138923,394.19079653714954 380.8234946380052,400.8169207622252 416.8864215543574,364.38016889728203 411.81312214677746,347.35441737649114 381.3197412068027,340.3570169827849 366.89861332338575,379.7983611454424" stroke="rgb(255, 0, 0)" stroke-width="0.1pt" /><polygon fill="none" points="313.5392218881708,196.32494525798546 312.4442590767133,263.6685269362636 317.89276846251033,265.42606742066084 345.6410415114402,261.10865152778644 359.16454448665786,249.22752037118872 366.27299397949383,213.62351978679675 348.49251987612,187.38009191712524 330.0267635278732,187.06875347549806 313.5392218881708,196.32494525798546" stroke="rgb(255, 0, 0)" stroke-width="0.1pt" /><polygon fill="none" points="318.2065484469123,117.2812622374714 332.6777893821696,148.05190051575235 351.14354573041646,148.3632389573795 365.71490122249895,125.9853050825746 368.9232844585702,82.8215088939692 352.8073319700479,72.93269998044521 317.59112527721095,95.95589969514084 318.2065484469123,117.2812622374714" stroke="rgb(255, 0, 0)" stroke-width="0.1pt" /><polygon fill="none" points="250.5319309815643,118.71942762678815 292.27870043987474,114.09612399581749 291.66327727017335,92.77076145348694 273.01980945926744,87.19357139237276 244.7683985713553,85.1547996031145 244.18718194071533,85.53871983056004 250.5319309815643,118.71942762678815" stroke="rgb(255, 0, 0)" stroke-width="0.1pt" /><polygon fill="none" points="60.35493684567991,100.01851246025583 59.9667970276842,102.79721492190211 83.06305720166614,114.56630532775738 91.78244462403823,94.65839719544218 91.64460823044338,83.67943415439417 91.06083069611525,83.37545252198007 60.35493684567991,100.01851246025583" stroke="rgb(255, 0, 0)" stroke-width="0.1pt" /><polygon fill="none" points="90.38548667017703,121.9812784525653 103.24250763982965,137.6920168389713 109.76603912613167,127.15313079914672 99.10487409254912,102.07337032025012 90.38548667017703,121.9812784525653" stroke="rgb(255, 0, 0)" stroke-width="0.1pt" /><polygon fill="none" points="107.92883454419373,82.31307058119626 108.06667093778856,93.29203362224428 118.72783597137112,118.37179410114086 151.31874380249985,89.99467622429721 152.60770262188515,84.59364198848942 107.92883454419373,82.31307058119626" stroke="rgb(255, 0, 0)" stroke-width="0.1pt" /><polygon fill="none" points="104.59246958349087,42.91731254266283 100.07385541295497,48.048819670724285 108.86391211711135,68.70796350851555 109.44768965143948,69.01194514092965 154.12655772913092,71.29251654822284 160.05952982935253,64.64758659419842 154.53040799599404,42.91731254266283 104.59246958349087,42.91731254266283" stroke="rgb(255, 0, 0)" stroke-width="0.1pt" /><polygon fill="none" points="56.59539577633077,90.23058812985033 87.3012896267661,73.58752819157456 78.51123292260974,52.92838435378331 70.80871522246885,51.49865321293288 47.703916032027365,73.67258886967934 56.59539577633077,90.23058812985033" stroke="rgb(255, 0, 0)" stroke-width="0.1pt" /><polygon fill="none" points="55.828571736402495,126.67879149488576 52.16945021291098,132.0620817446788 46.381909529378774,177.07362034465262 46.381909529378774,216.56490984126677 90.00636733856386,186.64838810165162 91.78185288003704,154.15862028714702 78.92483191038444,138.447881900741 55.828571736402495,126.67879149488576" stroke="rgb(255, 0, 0)" stroke-width="0.1pt" /><polygon fill="none" points="498.4655485737295,159.33864500862063 469.3979054237026,139.94817278801037 457.6339881317159,152.33246947497062 454.5680907583847,188.67025411404038 457.01258289335186,190.650601102561 498.4655485737295,159.33864500862063" stroke="rgb(255, 0, 0)" stroke-width="0.1pt" /><polygon fill="none" points="435.07934990233827,154.95740699289968 386.40438442775985,146.4057978248061 371.83302893567736,168.78373169961102 389.61350303905124,195.02715956928256 432.01345252900705,191.29519163196946 435.07934990233827,154.95740699289968" stroke="rgb(255, 0, 0)" stroke-width="0.1pt" /><polygon fill="none" points="437.86404112818326,215.4422676361724 435.41954899321604,213.4619206476518 393.0195995032602,217.1938885849649 385.9111500104242,252.79788916935686 421.47525556904964,264.13874349235596 448.38525913141933,227.5071554440118 437.86404112818326,215.4422676361724" stroke="rgb(255, 0, 0)" stroke-width="0.1pt" /><polygon fill="none" points="453.0870204440085,119.11876186021415 454.0796142803054,104.16488736399054 451.3220667230051,86.35634651387277 430.330167443501,71.17122404110472 395.85652091351466,79.78765319047544 392.6481376774434,122.95144937908086 441.3231031520218,131.50305854717442 453.0870204440085,119.11876186021415" stroke="rgb(255, 0, 0)" stroke-width="0.1pt" /><polygon fill="none" points="512.6290136886912,148.329991196698 517.5949130608385,150.15944465417545 538.3503605278289,141.30388055112556 543.6293509518684,124.39459843843474 484.5539643749612,113.9856444798641 483.5613705386643,128.9395189760877 512.6290136886912,148.329991196698" stroke="rgb(255, 0, 0)" stroke-width="0.1pt" /><polygon fill="none" points="509.9094463376566,210.8080510527997 549.7987955728898,209.2043586088089 519.6124539348328,193.44646676089673 509.9094463376566,210.8080510527997" stroke="rgb(255, 0, 0)" stroke-width="0.1pt" /><polygon fill="none" points="512.7234806914918,221.03145594080036 504.29877483672095,231.371843246004 538.2846485184259,256.98473583972714 547.4700192669054,251.8702311115576 553.3311787068471,245.50122193348764 559.0520614866526,226.76404207568436 557.0099658691742,220.73070988743567 552.612829926725,219.42776349680955 512.7234806914918,221.03145594080036" stroke="rgb(255, 0, 0)" stroke-width="0.1pt" /><polygon fill="none" points="526.3319296581216,184.81267724124072 556.5182712961786,200.57056908915288 560.9154072386277,201.87351547977903 563.4419794895852,175.89719841370214 549.5864298987489,157.63483726804742 528.8309824317585,166.4904013710973 526.3319296581216,184.81267724124072" stroke="rgb(255, 0, 0)" stroke-width="0.1pt" /><polygon fill="none" points="497.0589323931282,208.15174538278447 506.7619399903044,190.7901610908815 509.2609927639413,172.46788522073808 504.29509339179396,170.63843176326063 462.8421277114163,201.95038785720098 473.3633457146523,214.01527566504038 485.6075333085904,218.4714922188344 488.6342265383574,218.4921326879881 497.0589323931282,208.15174538278447" stroke="rgb(255, 0, 0)" stroke-width="0.1pt" /><polygon fill="none" points="148.77052768758324,1058.2037057705347 135.1127035714858,1084.2851094692794 158.59532965031912,1107.8769739444206 170.575914094631,1084.1368840352804 148.77052768758324,1058.2037057705347" stroke="rgb(255, 0, 0)" stroke-width="0.1pt" /><polygon fill="none" points="153.52191342055315,989.2049160479675 181.68279423057658,983.0627869537864 143.00789104523972,924.3943297425849 126.87192380223806,949.7566296916473 153.22271913833072,989.1162073875638 153.52191342055315,989.2049160479675" stroke="rgb(255, 0, 0)" stroke-width="0.1pt" /><polygon fill="none" points="136.44906212356446,1044.7927891503966 141.59238874433598,1017.4046320511794 141.29319446211355,1017.3159233907758 119.73201580368078,1021.6101827732722 101.78164239629626,1027.2589180775994 90.57577299991371,1050.4924318151138 108.00850302837053,1071.1476040971536 122.79123800746704,1070.8741928491415 136.44906212356446,1044.7927891503966" stroke="rgb(255, 0, 0)" stroke-width="0.1pt" /><polygon fill="none" points="752.9084194351759,739.8438607030266 743.2305524073079,754.7328879481869 736.195605552992,773.857108235647 752.9084194351759,771.0692812184673 752.9084194351759,739.8438607030266" stroke="rgb(255, 0, 0)" stroke-width="0.1pt" /><polygon fill="none" points="720.3536869854274,768.6576844563323 727.3886338397433,749.5334641688721 687.2156160648444,721.7581838795852 667.4936872126588,732.804142763908 714.2220760661878,771.7730518272668 719.9768183929568,769.4261560280519 720.3536869854274,768.6576844563323" stroke="rgb(255, 0, 0)" stroke-width="0.1pt" /><polygon fill="none" points="744.3923448766958,720.2409347524672 725.3805930934758,688.6811197377817 715.9684250684381,686.7717639152811 694.5414600739289,710.1963570815955 734.7144778488278,737.9716373708823 744.3923448766958,723.0826101257221 744.3923448766958,720.2409347524672" stroke="rgb(255, 0, 0)" stroke-width="0.1pt" /><polygon fill="none" points="752.4771187358692,778.7162686067725 735.7643048536853,781.5040956239523 735.3874362612146,782.2725671956717 741.7405905863968,787.0586052314329 752.4771187358692,787.476923471507 752.4771187358692,778.7162686067725" stroke="rgb(255, 0, 0)" stroke-width="0.1pt" /><polygon fill="none" points="752.7353557543966,662.9931002806686 733.7236039711767,679.4802629951687 752.7353557543966,711.0400780098541 752.7353557543966,662.9931002806686" stroke="rgb(255, 0, 0)" stroke-width="0.1pt" /><polygon fill="none" points="115.31880763850562,810.9814022237456 79.6499328219825,825.190813806001 99.94794302361403,853.6081913488742 111.29292375111146,848.1329348346612 123.75584171575552,832.921161188601 115.31880763850562,810.9814022237456" stroke="rgb(255, 0, 0)" stroke-width="0.1pt" /><polygon fill="none" points="121.52891425800603,863.8195653383277 110.1839335305086,869.2948218525407 110.75142693263705,874.0442806806172 137.00671538965557,895.6006065132691 157.93303335749692,885.6104045057178 140.34822923996975,863.3326428370268 121.52891425800603,863.8195653383277" stroke="rgb(255, 0, 0)" stroke-width="0.1pt" /><polygon fill="none" points="134.73819913256975,837.8622690949462 122.27528116792568,853.0740427410062 141.0945961498894,852.5871202397053 148.13325165256114,839.6429526334482 134.73819913256975,837.8622690949462" stroke="rgb(255, 0, 0)" stroke-width="0.1pt" /><polygon fill="none" points="132.8712003666236,791.3813917814211 167.2637844436586,797.9521759663019 140.54586804579034,761.344113723091 137.24921702132409,764.9349801681576 132.36316156600856,778.260941402862 132.8712003666236,791.3813917814211" stroke="rgb(255, 0, 0)" stroke-width="0.1pt" /><polygon fill="none" points="112.54293068501356,793.9732102592337 112.03489188439852,780.8527598806745 77.71860145135443,768.948121606024 70.11295150685346,777.408006122292 63.066887816084666,793.7121632001634 63.86800792777326,807.0633733414178 73.5114240277082,811.151380740666 109.1802988442313,796.9419691584106 112.54293068501356,793.9732102592337" stroke="rgb(255, 0, 0)" stroke-width="0.1pt" /><polygon fill="none" points="123.17729534471614,756.68215240344 88.89018435423078,747.6672129084417 83.97494945635655,758.1034753634938 118.29123988940063,770.0081136381444 123.17729534471614,756.68215240344" stroke="rgb(255, 0, 0)" stroke-width="0.1pt" /><polygon fill="none" points="131.61533793921276,743.8526521720331 147.6107518191498,719.5265378931211 110.35625499473073,719.0383524427714 95.39452636569148,725.8340485439896 94.03157592426109,738.4285791221014 128.31868691474648,747.4435186170997 131.61533793921276,743.8526521720331" stroke="rgb(255, 0, 0)" stroke-width="0.1pt" /><polygon fill="none" points="179.28785911632983,788.3060716630013 182.41463155582636,789.2688502699959 210.07232606138723,761.5448349281048 186.21793772784753,723.4933333697822 182.77006516331238,719.7167572860586 168.56535659839864,727.3718951408786 152.56994271846156,751.6980094197904 179.28785911632983,788.3060716630013" stroke="rgb(255, 0, 0)" stroke-width="0.1pt" /><polygon fill="none" points="134.51413989926633,802.6709027789221 131.15150805848407,805.6396616780993 139.58854213573397,827.5794206429547 152.98359465572534,829.3601041814568 165.17393935096987,823.7021327049056 172.03185224928788,810.2196123189685 172.03349641579786,810.2044655707977 168.9067239763013,809.2416869638029 134.51413989926633,802.6709027789221" stroke="rgb(255, 0, 0)" stroke-width="0.1pt" /><polygon fill="none" points="64.78027032270852,930.3701727852629 84.29660838238588,886.9599374129269 44.93321285455983,898.788636749332 44.93321285455983,906.1865740057578 54.17221466086656,930.3201690589808 62.76612246992515,931.0441819061796 64.78027032270852,930.3701727852629" stroke="rgb(255, 0, 0)" stroke-width="0.1pt" /><polygon fill="none" points="83.79993182807156,869.2983782087102 85.88651782081028,866.7863897936863 85.31902441868183,862.0369309656096 65.02101421705032,833.6195534227362 55.37759811711539,829.5315460234881 44.43653630024551,836.3169717580678 44.43653630024551,881.1270775451152 83.79993182807156,869.2983782087102" stroke="rgb(255, 0, 0)" stroke-width="0.1pt" /><polygon fill="none" points="37.58649525966884,944.6333264510235 46.825497065975576,938.5803077191505 37.58649525966884,914.4467126659274 37.58649525966884,944.6333264510235" stroke="rgb(255, 0, 0)" stroke-width="0.1pt" /><polygon fill="none" points="78.48581602625681,932.3388691138849 80.52349529275058,932.6318214621197 110.10665596257545,933.777096109312 126.24262320557708,908.4147961602496 126.34402853569145,907.9729711591767 100.0887400786729,886.416645326525 98.00215408593421,888.928633741549 78.48581602625681,932.3388691138849" stroke="rgb(255, 0, 0)" stroke-width="0.1pt" /><polygon fill="none" points="42.29164372263304,996.0092016046717 71.44853423448328,996.9039261411436 60.12455333799836,954.6165343683588 51.53064552893977,953.8925215211601 42.29164372263304,959.9455402530332 42.29164372263304,996.0092016046717" stroke="rgb(255, 0, 0)" stroke-width="0.1pt" /><polygon fill="none" points="73.85121222080419,957.1222988545652 71.83706436802083,957.7963079754819 83.16104526450573,1000.0836997482668 92.31129542739816,1007.8630982327325 110.26166883478268,1002.2143629284053 75.88889148729795,957.4152512028 73.85121222080419,957.1222988545652" stroke="rgb(255, 0, 0)" stroke-width="0.1pt" /><polygon fill="none" points="245.3326194479572,611.3779415698834 239.62824092837582,611.1162058155226 234.97414717907415,648.1619434027531 247.68226673665697,645.3725336422344 254.5259874222063,633.3837813438729 245.3326194479572,611.3779415698834" stroke="rgb(255, 0, 0)" stroke-width="0.1pt" /><polygon fill="none" points="438.2909679340968,685.0855739804283 470.9146373004553,658.827699845358 476.5576568781276,645.6785695209121 475.15879331278376,645.0124033599242 418.6843113301079,660.3297888417652 408.1978735371328,678.029944885069 424.46583899864834,691.8334990698605 438.2909679340968,685.0855739804283" stroke="rgb(255, 0, 0)" stroke-width="0.1pt" /><polygon fill="none" points="447.2602876439705,690.0908250246149 469.14917850900133,694.3221227251895 477.1901888334063,675.5833353143596 479.883957010329,663.8329508895445 447.2602876439705,690.0908250246149" stroke="rgb(255, 0, 0)" stroke-width="0.1pt" /><polygon fill="none" points="501.84081764931113,654.3978663632818 496.19779807163883,667.5469966877276 493.50402989471615,679.2973811125426 510.6698372487937,731.6108297505284 539.1151902518815,719.041625460162 513.9851927690478,654.0210847131058 501.84081764931113,654.3978663632818" stroke="rgb(255, 0, 0)" stroke-width="0.1pt" /><polygon fill="none" points="497.82552697724077,618.2508495445643 509.9699020969775,617.8740678943883 542.7489781802124,596.0031345204646 489.858708595663,549.9550840499119 483.83248768118654,548.3026114439089 471.67995374215997,586.3838554255711 496.426663411897,617.5846833835765 497.82552697724077,618.2508495445643" stroke="rgb(255, 0, 0)" stroke-width="0.1pt" /><polygon fill="none" points="408.76362928002857,714.8027996272605 392.4956638185131,700.9992454424688 382.83347853576447,703.4193571108951 369.18142975837907,711.1530850513744 362.77198806362674,727.5330938976789 362.6100416568221,736.9966388366134 369.73397666880305,753.1106367658126 409.8004541148706,767.3598929490073 429.5892442936765,750.6429374718089 408.76362928002857,714.8027996272605" stroke="rgb(255, 0, 0)" stroke-width="0.1pt" /><polygon fill="none" points="440.6571751767112,703.1533355734882 426.8320462412628,709.9012606629203 447.65766125491064,745.7413985074688 453.97604631420893,745.0163462256913 462.54606604174205,707.3846332740629 440.6571751767112,703.1533355734882" stroke="rgb(255, 0, 0)" stroke-width="0.1pt" /><polygon fill="none" points="412.27687858971376,624.6252716820077 418.745299572847,644.0336398641157 475.2197815555228,628.7162543822747 450.47307188578577,597.5154264242693 429.32425298225155,594.5644559519186 412.27687858971376,624.6252716820077" stroke="rgb(255, 0, 0)" stroke-width="0.1pt" /><polygon fill="none" points="375.25633401300956,626.0087119222153 360.6020629650666,628.3494161093689 378.5673679811549,673.6034428316876 388.2295532639036,671.1833311632613 398.7159910568787,653.4831751199577 392.2475700737455,634.0748069378496 375.25633401300956,626.0087119222153" stroke="rgb(255, 0, 0)" stroke-width="0.1pt" /><polygon fill="none" points="282.09926585955014,487.99489676471353 292.20125851328356,452.6023940335624 292.02333490362764,451.4317968965511 254.48293730603777,470.00585450141796 254.4236552600992,485.358897314724 282.09926585955014,487.99489676471353" stroke="rgb(255, 0, 0)" stroke-width="0.1pt" /><polygon fill="none" points="278.870329824142,531.7938337058314 293.37465777934096,508.5155899261962 282.6384929686487,501.16252389730187 254.96288236919773,498.52652444731234 254.85022020560703,498.68766763941903 254.0679735933841,502.55952946359287 278.870329824142,531.7938337058314" stroke="rgb(255, 0, 0)" stroke-width="0.1pt" /><polygon fill="none" points="412.1081195540476,557.6714099995528 428.26828278030496,571.1057362916409 449.4171016838392,574.0567067639917 461.5696356228658,535.9754627823294 458.88213213542105,530.3712356255465 414.218575244912,536.0471997592978 412.1081195540476,557.6714099995528" stroke="rgb(255, 0, 0)" stroke-width="0.1pt" /><polygon fill="none" points="389.50692216576596,575.5018865809534 380.5624376917656,607.5808550771269 397.55367375250154,615.646950092761 414.6010481450393,585.5861343626722 398.440884918782,572.151808070584 389.50692216576596,575.5018865809534" stroke="rgb(255, 0, 0)" stroke-width="0.1pt" /><polygon fill="none" points="327.0386709957436,499.3841724253716 327.2482843673765,499.16595698061417 304.29318523355386,456.538649342846 294.1911925798205,491.93115207399717 304.9273573905127,499.2842181028915 327.0386709957436,499.3841724253716" stroke="rgb(255, 0, 0)" stroke-width="0.1pt" /><polygon fill="none" points="136.71604341952124,408.05572535573526 121.39689476031214,430.668492849063 136.61841379514348,463.4159384650652 159.95981208979632,464.261981693043 178.87318111824362,420.3747795377063 136.71604341952124,408.05572535573526" stroke="rgb(255, 0, 0)" stroke-width="0.1pt" /><polygon fill="none" points="99.0151876828564,357.8127261417526 65.34812923267552,390.0026343052123 73.75510316749008,423.0137355734845 101.65157246204988,416.30008489305976 116.97072112125896,393.687317399732 99.0151876828564,357.8127261417526" stroke="rgb(255, 0, 0)" stroke-width="0.1pt" /><polygon fill="none" points="64.46705453110475,247.72038953624147 108.87383045354004,291.04463442658925 148.51407494203997,285.1706560310314 171.22367376281554,246.54041395317756 158.11263685375738,232.3901850941316 114.57039943255491,214.24086715096243 108.09151234028985,214.8257122098173 64.46705453110475,244.7422339494325 64.46705453110475,247.72038953624147" stroke="rgb(255, 0, 0)" stroke-width="0.1pt" /><polygon fill="none" points="44.95000416151455,364.61809136570224 55.689276116160954,366.01369437731205 89.35633456634184,333.82378621385226 89.35678008394984,315.01659541141487 44.95000416151455,271.6923505210671 44.95000416151455,364.61809136570224" stroke="rgb(255, 0, 0)" stroke-width="0.1pt" /><polygon fill="none" points="266.83318011149606,168.43727664218258 295.04348646646673,170.85753016178234 311.5310281061691,161.60133837929487 297.0597871709118,130.83070010101395 255.31301771260138,135.4540037319846 254.03884598922872,146.91786110663077 266.83318011149606,168.43727664218258" stroke="rgb(255, 0, 0)" stroke-width="0.1pt" /><polygon fill="none" points="262.2133730478738,199.50134709342456 274.10144544140996,259.491060568271 281.3626724160881,265.6030083052 293.53002304660487,263.91673451710966 294.62498585806236,196.5731528388315 266.41467950309175,194.15289931923178 262.2133730478738,199.50134709342456" stroke="rgb(255, 0, 0)" stroke-width="0.1pt" /><polygon fill="none" points="239.6189050145061,208.43596211084525 217.12684551877297,239.34113060344487 260.85418201866804,261.7775133581345 248.96610962513188,201.78779988328807 239.6189050145061,208.43596211084525" stroke="rgb(255, 0, 0)" stroke-width="0.1pt" /><polygon fill="none" points="152.49988267146247,153.29098429962465 159.78829593868616,138.11502722861144 154.74144237012456,106.5043692587014 122.15053453899584,134.88148713554506 115.62700305269382,145.42037317536966 113.85151751122064,177.91014098987424 120.3304046034857,177.32529593101935 152.49988267146247,153.29098429962465" stroke="rgb(255, 0, 0)" stroke-width="0.1pt" /><polygon fill="none" points="210.45975878042756,135.68642872680815 227.19701597989376,132.6222844813922 228.47118770326642,121.15842710674607 222.12643866241743,87.97771931051797 184.57322096760544,82.51782696876586 178.64024886738383,89.16275692279028 177.35129004799853,94.56379115859804 182.39814361656013,126.17444912850809 210.45975878042756,135.68642872680815" stroke="rgb(255, 0, 0)" stroke-width="0.1pt" /><polygon fill="none" points="639.8052628924622,116.43700292224979 636.0252153758922,146.4670190248022 636.5372047787134,148.3660967275844 659.84119725191,141.09036482191783 650.4404509653913,96.85592835239667 639.8052628924622,116.43700292224979" stroke="rgb(255, 0, 0)" stroke-width="0.1pt" /><polygon fill="none" points="666.7553939522167,159.38326922730215 643.4514014790201,166.65900113296868 641.5719425941758,174.21572861452805 653.5639917541188,201.43487836690434 663.7035418480914,209.7562598938184 668.1747938760683,210.48107060635974 676.9822996002938,204.73559145125668 697.4377415202496,162.13641763856012 666.7553939522167,159.38326922730215" stroke="rgb(255, 0, 0)" stroke-width="0.1pt" /><polygon fill="none" points="615.5333070456821,154.25117208799156 583.1111076828149,132.15990497432406 569.8685434821626,129.03321786279486 568.792989182214,130.89485894385888 563.5139987581745,147.80414105654972 577.3695483490106,166.06650220220436 614.165837563659,163.7069772723331 616.0452964485032,156.15024979077373 615.5333070456821,154.25117208799156" stroke="rgb(255, 0, 0)" stroke-width="0.1pt" /><polygon fill="none" points="629.0080369982534,117.36883196829066 592.8057901188163,125.30758095717559 625.2279894816836,147.3988480708431 629.0080369982534,117.36883196829066" stroke="rgb(255, 0, 0)" stroke-width="0.1pt" /><polygon fill="none" points="663.3883259675781,93.55098519723707 672.7890722540967,137.78542166675823 703.4714198221296,140.5385700780162 704.5215760291312,139.58546880896876 710.5167790713236,115.86301467872153 676.5056222456078,92.91133637257215 665.8066188443207,87.17051000196525 663.3883259675781,93.55098519723707" stroke="rgb(255, 0, 0)" stroke-width="0.1pt" /><polygon fill="none" points="624.8301165050244,104.45256561894539 635.4653045779535,84.87149104909226 637.8835974546962,78.49101585382044 636.8523369966109,76.52465560735966 635.2186433789523,75.02517499317551 576.4870504859358,77.62090165777916 575.3853054249352,109.26462749630106 588.6278696255873,112.39131460783028 624.8301165050244,104.45256561894539" stroke="rgb(255, 0, 0)" stroke-width="0.1pt" /><polygon fill="none" points="410.596364857384,1156.2762041636104 436.2530039433091,1161.0760065922375 466.1849699254681,1142.131035525097 464.69158975220984,1116.3738875140834 436.4288282379533,1103.7204064433427 410.9949131134415,1142.1551408211944 410.596364857384,1156.2762041636104" stroke="rgb(255, 0, 0)" stroke-width="0.1pt" /><polygon fill="none" points="367.3387135277701,1099.834057323743 396.1126501808791,1130.5497141927906 421.546565305391,1092.1149798149388 410.64357979456764,1076.4097888441029 370.85417147529364,1092.0886767720222 367.3387135277701,1099.834057323743" stroke="rgb(255, 0, 0)" stroke-width="0.1pt" /><polygon fill="none" points="162.20610097240885,1186.5458267427632 149.53115921191187,1178.077406009443 138.7407221885539,1186.5458267427632 162.20610097240885,1186.5458267427632" stroke="rgb(255, 0, 0)" stroke-width="0.1pt" /><polygon fill="none" points="205.58038964251463,1147.090863834251 172.42716459621963,1142.9761443430998 160.8679345272184,1170.5343128204274 173.54287628771542,1179.0027335537477 196.42794749833388,1179.0027335537477 205.58038964251463,1147.090863834251" stroke="rgb(255, 0, 0)" stroke-width="0.1pt" /><polygon fill="none" points="267.5775975401856,1052.3059392197065 268.77537364410546,1048.4281279352474 250.8589503779906,1007.5254786827898 228.5227586118818,997.3027136661216 213.17169928784654,1006.3489242641845 218.56286223203924,1050.8146802132005 224.43456899162166,1057.0778300183358 267.5775975401856,1052.3059392197065" stroke="rgb(255, 0, 0)" stroke-width="0.1pt" /><polygon fill="none" points="196.69774879102889,975.1044748067413 212.0488081150642,966.0582642086786 215.37136352663754,943.9188858486302 214.40139159811645,940.2040051820194 198.7681586932763,916.8880355059854 180.02167904136374,905.5352573905438 176.77450941189448,906.0964678643861 155.84819144405316,916.0866698719374 155.7467861139388,916.5284948730102 194.42168929927567,975.1969520842117 196.69774879102889,975.1044748067413" stroke="rgb(255, 0, 0)" stroke-width="0.1pt" /><polygon fill="none" points="261.8055745690002,983.0510643453665 270.39953456167234,981.0243586406051 296.5443248643643,960.2030722631082 301.6400823012502,937.4640732449463 280.6492763985311,934.2402750197435 242.7919382144648,950.68892096865 239.46938280289143,972.8282993286982 261.8055745690002,983.0510643453665" stroke="rgb(255, 0, 0)" stroke-width="0.1pt" /><polygon fill="none" points="198.65904701151413,1053.0338286887536 193.2678840673214,1008.5680727397374 190.9918245755682,1008.6605500172077 162.83094376554476,1014.8026791113889 157.68761714477324,1042.190836210606 179.49300355182103,1068.124014475352 198.65904701151413,1053.0338286887536" stroke="rgb(255, 0, 0)" stroke-width="0.1pt" /><polygon fill="none" points="290.84427884704394,1046.5527305913904 322.9305258953439,1040.1263429776423 334.175409809539,1016.0368105906454 281.5218155736012,1003.6233756341716 272.9278555809291,1005.650081338933 290.84427884704394,1046.5527305913904" stroke="rgb(255, 0, 0)" stroke-width="0.1pt" /><polygon fill="none" points="211.53658272892577,1083.5918560619716 205.66487596934334,1077.328706256836 186.4988325096502,1092.4188920434347 174.5182480653383,1116.1589819525748 176.07566056157648,1121.8395605969854 177.9951036459122,1124.7023153130685 211.1483286922072,1128.8170348042197 223.72944822625942,1125.9684373581126 211.53658272892577,1083.5918560619716" stroke="rgb(255, 0, 0)" stroke-width="0.1pt" /><polygon fill="none" points="272.4251366154813,1075.1109186030221 229.28210806691735,1079.8828094016515 241.474973564251,1122.2593906977925 255.3053538151925,1125.6257023373646 273.13579985047807,1092.325873417946 272.4251366154813,1075.1109186030221" stroke="rgb(255, 0, 0)" stroke-width="0.1pt" /><polygon fill="none" points="298.89702802863314,676.1566265226293 293.62758089133933,655.9956812820973 286.7805542512101,661.120287664772 294.97344786645834,677.4910298534749 298.89702802863314,676.1566265226293" stroke="rgb(255, 0, 0)" stroke-width="0.1pt" /><polygon fill="none" points="290.29403675888466,680.6155744392152 282.1011431436363,664.2448322505122 268.7326136748093,666.6325450087382 275.75648298480274,686.1286641146406 280.1428226787209,689.2170054392494 290.29403675888466,680.6155744392152" stroke="rgb(255, 0, 0)" stroke-width="0.1pt" /><polygon fill="none" points="305.16225334571635,673.5283836250813 325.2203137971961,671.2408589841976 313.0489003472319,637.9836833096336 299.8928062084226,653.3674383845492 305.16225334571635,673.5283836250813" stroke="rgb(255, 0, 0)" stroke-width="0.1pt" /><polygon fill="none" points="307.9192794903663,687.476968609105 303.9956993281916,688.8113719399506 293.84448524802787,697.4128029399848 295.8698072658335,706.8911539796134 337.7242517832558,715.5169794917065 344.1336934780081,699.136970645402 327.97733994184614,685.1894439682212 307.9192794903663,687.476968609105" stroke="rgb(255, 0, 0)" stroke-width="0.1pt" /><polygon fill="none" points="307.66087824277736,601.3715930439623 308.95033131269815,601.5934592854451 313.00077578104384,598.606172346881 321.28299680871066,570.3742664289205 286.9294468695612,558.1313328616143 276.7769681943704,567.0588138540007 279.1425856274242,584.0072724059033 307.66087824277736,601.3715930439623" stroke="rgb(255, 0, 0)" stroke-width="0.1pt" /><polygon fill="none" points="299.20291072718845,612.2279590742044 270.6846181118352,594.8636384361454 255.53217535332817,604.4068065441706 264.72554332757727,626.4126463181599 299.20291072718845,612.2279590742044" stroke="rgb(255, 0, 0)" stroke-width="0.1pt" /><polygon fill="none" points="256.8376878742815,566.8721871893686 252.14449846802518,565.2519821419711 228.33536572050235,564.5088396603087 221.0805007440307,570.7843575289048 224.5245679798095,588.3456089435933 238.34648402924688,593.1020780949355 244.05086254882826,593.3638138492963 259.2033053073353,583.820645741271 256.8376878742815,566.8721871893686" stroke="rgb(255, 0, 0)" stroke-width="0.1pt" /><polygon fill="none" points="274.0364814167315,543.0619102983028 274.17624016024797,539.5198819659565 249.3738839294901,510.28557772371806 247.88083939542346,512.9700480996836 259.1908133352843,550.3691862432918 263.8840027415406,551.9893912906892 274.0364814167315,543.0619102983028" stroke="rgb(255, 0, 0)" stroke-width="0.1pt" /><polygon fill="none" points="326.29655746255133,555.438476170761 327.35948067868486,554.3092127172131 328.69840782734826,516.4752248139536 306.58709422211746,516.3752704914734 292.08276626691844,539.6535142711086 291.94300752340195,543.1955426034548 326.29655746255133,555.438476170761" stroke="rgb(255, 0, 0)" stroke-width="0.1pt" /><polygon fill="none" points="331.44333751172,602.6123049804124 351.12240035987213,608.8471663324551 365.7766714078151,606.5064621453018 374.7211558818155,574.4274936491282 340.78848175552037,573.2511356089041 339.7255585393869,574.380399062452 331.44333751172,602.6123049804124" stroke="rgb(255, 0, 0)" stroke-width="0.1pt" /><polygon fill="none" points="324.2562280066305,626.9369981247778 323.971224575705,635.9676248493097 336.14263802566927,669.2248005238735 352.2989915618313,683.1723272010544 365.9510403392168,675.4385992605751 347.98573532312827,630.1845725382562 328.3066724749762,623.9497111862136 324.2562280066305,626.9369981247778" stroke="rgb(255, 0, 0)" stroke-width="0.1pt" /><polygon fill="none" points="302.1742513183116,622.1158062254018 267.69688391870045,636.3004934693574 260.8531632331511,648.289245767719 269.8070507095412,654.2643734072328 283.17558017836825,651.8766606490069 290.0226068184975,646.7520542663323 303.17870095730683,631.3682991914164 303.4637043882324,622.3376724668847 302.1742513183116,622.1158062254018" stroke="rgb(255, 0, 0)" stroke-width="0.1pt" /><polygon fill="none" points="434.12228333446006,469.73805607679947 417.9374651611716,458.4491408999558 398.04460323328607,455.6208265289143 387.784194272415,484.96216676538313 403.18216739296963,507.16561818088985 440.2397629257467,480.71211462111677 434.12228333446006,469.73805607679947" stroke="rgb(255, 0, 0)" stroke-width="0.1pt" /><polygon fill="none" points="388.22760718103723,525.2803262729623 372.82963406048265,503.07687485745555 347.1905774935665,515.5423030782342 346.9809641219335,515.7605185229917 345.64203697327014,553.5945064262513 379.5747110995652,554.7708644664754 388.5086738525812,551.420785956106 390.61912954344564,529.7965757158508 388.22760718103723,525.2803262729623" stroke="rgb(255, 0, 0)" stroke-width="0.1pt" /><polygon fill="none" points="376.2570471563824,446.3708290834299 366.409769703713,429.23819285540844 354.47854138709715,422.6120686303326 323.37804943909345,428.64944307160766 317.2245588851166,444.379692765898 317.4024824947726,445.55028990290936 340.35758162859526,488.1775975406775 365.99663819551137,475.71216931989875 376.2570471563824,446.3708290834299" stroke="rgb(255, 0, 0)" stroke-width="0.1pt" /><polygon fill="none" points="450.3470273301199,490.9716084005619 413.2894317973429,517.425111960335 415.6809541597514,521.9413614032236 460.34451105026034,516.2653972694724 460.955598140621,505.2711272511535 450.3470273301199,490.9716084005619" stroke="rgb(255, 0, 0)" stroke-width="0.1pt" /><polygon fill="none" points="423.5662071532368,433.3627273719806 459.93933611629086,400.694173504516 460.1403582549838,385.97751470033734 429.8889946890341,376.9650249079744 393.8260677726819,413.40177677291763 403.6733452253513,430.53441300093914 423.5662071532368,433.3627273719806" stroke="rgb(255, 0, 0)" stroke-width="0.1pt" /><polygon fill="none" points="451.6943160748786,454.6306955817009 481.6590579511944,439.914074545245 485.9756874561996,429.9837754681841 471.88262686464424,410.67322653739257 435.5094979015902,443.3417804048572 451.6943160748786,454.6306955817009" stroke="rgb(255, 0, 0)" stroke-width="0.1pt" /><polygon fill="none" points="456.7396474892933,467.5362029292157 462.8571270805799,478.510261473533 473.46569789108105,492.8097803241245 496.971542410751,478.1674776330841 486.70438936560913,452.81958189275974 456.7396474892933,467.5362029292157" stroke="rgb(255, 0, 0)" stroke-width="0.1pt" /><polygon fill="none" points="192.1050016269945,389.307853064009 195.181896972412,343.7364493485979 162.41628437421113,319.91453026794386 122.77603988571121,325.78850866350166 122.77559436810323,344.59569946593905 140.73112780650578,380.4702907239186 182.88826550522816,392.7893449058897 192.1050016269945,389.307853064009" stroke="rgb(255, 0, 0)" stroke-width="0.1pt" /><polygon fill="none" points="207.866371020181,424.2111413122293 198.6496348984147,427.69263315411 179.73626586996733,471.5798353094467 181.51324758633626,474.5029482755121 231.83576258710576,480.3353219999561 231.94842475069646,480.1741788078494 232.007706796635,464.8211359945434 207.9315766382598,424.24050142763383 207.866371020181,424.2111413122293" stroke="rgb(255, 0, 0)" stroke-width="0.1pt" /><polygon fill="none" points="208.0883236391956,183.3909140581921 204.1100471349816,167.05184754541713 193.93844241568314,177.10130555046837 195.2553089097898,182.30341587768368 208.0883236391956,183.3909140581921" stroke="rgb(255, 0, 0)" stroke-width="0.1pt" /><polygon fill="none" points="198.84952086391826,159.5928673258751 204.57636633075595,151.4041258598615 176.51475116688852,141.89214626156144 169.22633789966483,157.06810333257468 188.6779161446198,169.64232533092633 198.84952086391826,159.5928673258751" stroke="rgb(255, 0, 0)" stroke-width="0.1pt" /><polygon fill="none" points="180.78869209499769,186.6906765537675 179.47182560089107,181.48856622655217 160.02024735593614,168.91434422820052 127.85076928795934,192.9486558595952 171.3930067091618,211.0979738027644 180.78869209499769,186.6906765537675" stroke="rgb(255, 0, 0)" stroke-width="0.1pt" /><polygon fill="none" points="218.15984403093145,181.09761860771118 235.891493249445,187.02169192080845 245.23869786007074,180.3735296932513 249.4400043152887,175.0250819190585 236.64567019302132,153.50566638350668 219.90841299355515,156.56981062892262 214.18156752671743,164.75855209493616 218.15984403093145,181.09761860771118" stroke="rgb(255, 0, 0)" stroke-width="0.1pt" /><polygon fill="none" points="209.24218052780301,194.90481188872812 196.4091657983972,193.81731370821967 187.01348041256134,218.22461095721658 200.12451732161946,232.37483981626255 204.48177025058342,231.734053694425 226.97382974631657,200.82888520182541 209.24218052780301,194.90481188872812" stroke="rgb(255, 0, 0)" stroke-width="0.1pt" /><polygon fill="none" points="337.3485904539482,1094.6152691175237 341.4898206039242,1091.80397557248 345.00527855144776,1084.0585950207592 328.61931932779174,1058.0152638555417 296.53307227949176,1064.44165146929 295.3352961755719,1068.3194627537493 296.0459594105687,1085.534417568673 334.9398447166981,1095.0840159851202 337.3485904539482,1094.6152691175237" stroke="rgb(255, 0, 0)" stroke-width="0.1pt" /><polygon fill="none" points="366.22896563465315,1173.0593225477955 340.63158318199044,1155.548638048465 303.2557669179894,1163.5616991107083 295.50952842759403,1167.7783633255578 296.5503070498348,1174.0180084989436 366.0376083871409,1173.4417316732745 366.22896563465315,1173.0593225477955" stroke="rgb(255, 0, 0)" stroke-width="0.1pt" /><polygon fill="none" points="265.62701664729053,1167.3124227099129 251.64689659349418,1149.007865218444 237.8165163425527,1145.641553578872 225.23539680850047,1148.4901510249792 216.08295466431974,1180.402020744476 266.6986182075235,1180.402020744476 266.66779526953127,1173.5520678832993 265.62701664729053,1167.3124227099129" stroke="rgb(255, 0, 0)" stroke-width="0.1pt" /><polygon fill="none" points="365.1648560310588,1186.1519391767583 367.1049771649631,1178.725709489912 297.617675827657,1179.3019863155812 297.6484987656492,1186.1519391767583 365.1648560310588,1186.1519391767583" stroke="rgb(255, 0, 0)" stroke-width="0.1pt" /><polygon fill="none" points="291.34575625798936,1149.3482439894249 326.3437290552125,1111.510120209834 287.4498437490832,1101.9605217933868 269.61939771379764,1135.2603507128053 283.59951776759397,1153.5649082042744 291.34575625798936,1149.3482439894249" stroke="rgb(255, 0, 0)" stroke-width="0.1pt" /><polygon fill="none" points="340.0818238969495,1145.4942140498042 340.1127261674218,1115.20040446486 337.70398043017167,1115.6691513324567 302.7060076329485,1153.5072751120474 340.0818238969495,1145.4942140498042" stroke="rgb(255, 0, 0)" stroke-width="0.1pt" /><polygon fill="none" points="379.7937677930102,1164.1310129408832 386.74390615784733,1158.351945523028 387.1424544139047,1144.230882180612 358.3685177607957,1113.5152253115646 354.2272876108197,1116.3265188566083 354.19638534034743,1146.6203284415526 379.7937677930102,1164.1310129408832" stroke="rgb(255, 0, 0)" stroke-width="0.1pt" /><polygon fill="none" points="429.1498060786385,1185.1775096614074 426.15339665886756,1176.3896058598543 400.49675757294256,1171.5898034312274 393.5466192081053,1177.3688708490824 393.355261960593,1177.7512799745614 391.4151408266887,1185.1775096614074 429.1498060786385,1185.1775096614074" stroke="rgb(255, 0, 0)" stroke-width="0.1pt" /><polygon fill="none" points="233.1719172791426,313.12138257177685 244.74009416367215,305.7112798335902 260.44002328015836,287.47453847259857 253.17879630548026,281.3625907356695 209.4514598055852,258.9262079809799 205.0942068766212,259.56699410281743 182.38460805584563,298.19723618067127 215.15022065404648,322.0191552613253 233.1719172791426,313.12138257177685" stroke="rgb(255, 0, 0)" stroke-width="0.1pt" /><polygon fill="none" points="309.7082508102989,401.40522418552314 315.23256214702093,404.98146220272054 346.3330540950246,398.94408776144553 344.3394010970211,384.5516523697384 319.2302957006713,351.3214532896712 303.4637867412897,371.95144076975305 309.7082508102989,401.40522418552314" stroke="rgb(255, 0, 0)" stroke-width="0.1pt" /><polygon fill="none" points="254.97178993054857,411.5259066271029 225.9880308011996,414.6808831666082 250.06416095957485,455.26151773351785 287.60455855716475,436.68746012865097 293.75804911114153,420.9572104343606 288.2337377744195,417.3809724171632 254.97178993054857,411.5259066271029" stroke="rgb(255, 0, 0)" stroke-width="0.1pt" /><polygon fill="none" points="254.7501773089048,370.5722552571772 238.168985057822,339.90243828277863 220.14728843272584,348.800210972327 217.0703930873084,394.3716146877382 217.1355987053872,394.4009748031427 246.1193578347361,391.2459982636374 254.7501773089048,370.5722552571772" stroke="rgb(255, 0, 0)" stroke-width="0.1pt" /><polygon fill="none" points="269.91950941771836,364.77982099852784 281.69382427752737,360.2971765460928 271.1411840077509,344.2733423949023 269.91950941771836,364.77982099852784" stroke="rgb(255, 0, 0)" stroke-width="0.1pt" /><polygon fill="none" points="264.3676949434397,358.70003980624045 265.5893695334723,338.19356120261494 257.8562040508227,321.91425478086546 246.28802716629318,329.32435751905217 262.869219417376,359.99417449345077 264.3676949434397,358.70003980624045" stroke="rgb(255, 0, 0)" stroke-width="0.1pt" /><polygon fill="none" points="287.0898311219881,348.3680183504339 292.20370503680846,351.2198228708295 307.97021399618995,330.5898353907477 302.11981450236215,297.8994031128092 296.6713051165651,296.141862628412 284.50395448604826,297.82813641650233 268.80402536956205,316.06487777749396 276.5371908522116,332.34418419924344 287.0898311219881,348.3680183504339" stroke="rgb(255, 0, 0)" stroke-width="0.1pt" /><polygon fill="none" points="271.68442228403086,375.66319953262024 270.18594675796714,376.95733421983056 261.55512728379847,397.6310772262907 294.8170751276694,403.486143016351 288.5726110586603,374.03235960058083 283.4587371438399,371.18055508018523 271.68442228403086,375.66319953262024" stroke="rgb(255, 0, 0)" stroke-width="0.1pt" /></svg>