<?xml version="1.0" encoding="utf-8" ?>
<svg baseProfile="full" height="11in" version="1.1" width="17in" xmlns="http://www.w3.org/2000/svg" xmlns:ev="http://www.w3.org/2001/xml-events" xmlns:xlink="http://www.w3.org/1999/xlink"><defs /><polygon fill="none" points="71.14136605140938,1173.064057354452 63.01978375482524,1154.7842182199252 49.84459864141644,1151.3721737945666 49.84459864141644,1173.064057354452 71.14136605140938,1173.064057354452" stroke="rgb(255, 0, 0)" stroke-width="0.1pt" /><polygon fill="none" points="39.77853547665544,1091.95994330903 46.726165224054164,1068.8273973712373 39.77853547665544,1064.9051265305422 39.77853547665544,1091.95994330903" stroke="rgb(255, 0, 0)" stroke-width="0.1pt" /><polygon fill="none" points="55.381825096336854,1110.0405906474712 68.55701020974566,1113.45263507283 69.44389177891038,1112.6870158380107 81.02261372753448,1092.645227535625 70.98558734751388,1080.7528556156626 62.329454843735576,1082.47676168836 55.381825096336854,1105.609307626153 55.381825096336854,1110.0405906474712" stroke="rgb(255, 0, 0)" stroke-width="0.1pt" /><polygon fill="none" points="43.03292771384418,437.51025108172144 48.14890220568648,436.6362633310523 54.05652383201867,429.2293548716919 49.21614489985272,410.2229632323838 43.03292771384418,409.4194342256994 43.03292771384418,437.51025108172144" stroke="rgb(255, 0, 0)" stroke-width="0.1pt" /><polygon fill="none" points="659.6619630673819,1171.719890038593 646.6132712121891,1145.1417800219697 630.3898920041205,1165.8466973305178 647.1704267361243,1171.719890038593 659.6619630673819,1171.719890038593" stroke="rgb(255, 0, 0)" stroke-width="0.1pt" /><polygon fill="none" points="677.9523501492883,1134.085441450536 691.0010420044811,1160.663551467159 709.6404366570575,1160.663551467159 713.7670967257891,1152.5722412429325 703.5250138208833,1128.8261937532545 679.2873605441504,1127.470104498805 677.9523501492883,1134.085441450536" stroke="rgb(255, 0, 0)" stroke-width="0.1pt" /><polygon fill="none" points="87.19088880829507,474.00889828215213 99.9049460019725,473.64321698749734 106.26102885534493,468.1577747474332 97.49712395650265,449.3031848473108 81.43552042327124,453.1686200875552 75.52789879693906,460.5755285469156 87.19088880829507,474.00889828215213" stroke="rgb(255, 0, 0)" stroke-width="0.1pt" /><polygon fill="none" points="609.0911340101532,751.9713284630857 607.7504804151848,751.1973703078695 589.9440435835766,756.6276091631755 589.8962825027559,785.3381593821581 615.3900044551332,775.9307094766986 609.0911340101532,751.9713284630857" stroke="rgb(255, 0, 0)" stroke-width="0.1pt" /><polygon fill="none" points="496.32619264829646,823.2870380679836 513.4413473119705,813.4487118710001 499.4567229376898,787.3225115271216 490.838936034054,788.4608282089368 496.32619264829646,823.2870380679836" stroke="rgb(255, 0, 0)" stroke-width="0.1pt" /><polygon fill="none" points="729.0029274820563,377.4734249610222 732.2862211330926,387.7548210198109 745.6070844215099,399.89052041014816 745.6070844215099,374.64265398588134 729.0029274820563,377.4734249610222" stroke="rgb(255, 0, 0)" stroke-width="0.1pt" /><polygon fill="none" points="250.7229696879235,37.38198628960231 250.90047711237466,39.92305785435495 258.92466096523145,37.38198628960231 250.7229696879235,37.38198628960231" stroke="rgb(255, 0, 0)" stroke-width="0.1pt" /><polygon fill="none" points="467.64515733701245,45.683294362192854 465.89739325866816,52.97894203636777 477.98363829838263,61.721891338870584 508.4583037369881,51.07182957694585 508.6197159677439,45.683294362192854 467.64515733701245,45.683294362192854" stroke="rgb(255, 0, 0)" stroke-width="0.1pt" /><polygon fill="none" points="578.8871496552413,45.82707288804676 578.7257374244855,51.21560810279976 585.1054488467279,58.82113743723802 618.9206083911921,57.32662814549653 617.191150876918,45.82707288804676 578.8871496552413,45.82707288804676" stroke="rgb(255, 0, 0)" stroke-width="0.1pt" /><polygon fill="none" points="350.6966002925612,966.941971948439 351.91015600492665,960.261627762399 338.0170074572102,939.5812020564417 331.45448550327075,943.5706676424866 328.52056455476065,956.6628185923373 350.6966002925612,966.941971948439" stroke="rgb(255, 0, 0)" stroke-width="0.1pt" /><polygon fill="none" points="604.8245467648612,580.9426332269348 598.5944996864855,596.0908076062242 618.1004801629372,612.9293348062312 638.116377647526,590.4764354896166 635.8225031162264,585.1597615425669 604.8245467648612,580.9426332269348" stroke="rgb(255, 0, 0)" stroke-width="0.1pt" /><polygon fill="none" points="557.8085160908809,555.0500121233216 535.0219754235144,542.6533832541702 519.4416682978504,546.1938019687733 549.8936416950152,572.7063158760611 551.4961290159863,572.0881083339817 557.726176094362,556.9399339546926 557.8085160908809,555.0500121233216" stroke="rgb(255, 0, 0)" stroke-width="0.1pt" /><polygon fill="none" points="546.3513430897997,497.13011690689603 547.5439009470861,512.4625551493696 570.3304416144525,524.859184018521 576.999103490977,504.3315861123025 576.786788436517,500.42075879897476 558.0906172152586,491.9498611402246 546.3513430897997,497.13011690689603" stroke="rgb(255, 0, 0)" stroke-width="0.1pt" /><polygon fill="none" points="714.4645825078873,453.71838787922866 724.0559333420916,439.49226497195315 724.0559333420916,434.0209333920639 710.7350700536742,421.8852340017267 680.7362658971019,440.16068744099005 678.4522547698007,443.7200180740027 703.183958572003,454.546988398586 714.4645825078873,453.71838787922866" stroke="rgb(255, 0, 0)" stroke-width="0.1pt" /><polygon fill="none" points="688.3208481900093,780.944733391836 661.4166243046441,758.5080887795992 650.6693766901968,758.3978997816395 656.968247135177,782.3572807952524 670.2777866262778,801.7017334626689 688.3208481900093,780.944733391836" stroke="rgb(255, 0, 0)" stroke-width="0.1pt" /><polygon fill="none" points="711.887028670046,641.1347265914064 720.6112090069852,652.0558831083445 726.0303360517039,653.1552091879661 736.9764961693154,643.6626003523447 736.9764961693154,627.5705771937611 736.7686146396862,627.2251751112842 716.8222986999185,627.0207493274833 711.887028670046,641.1347265914064" stroke="rgb(255, 0, 0)" stroke-width="0.1pt" /><polygon fill="none" points="670.0457004241626,668.1485281764027 643.8865682452072,668.4802471564102 642.9901921854075,698.0322190238651 644.3308457803759,698.8061771790813 655.078093394823,698.916366177041 666.4331433400208,692.5565716678855 678.769880761102,679.0696846933408 670.0457004241626,668.1485281764027" stroke="rgb(255, 0, 0)" stroke-width="0.1pt" /><polygon fill="none" points="675.7889300926755,630.6172043887402 680.724200122548,616.5032271248173 679.888816914241,614.5953027620458 668.9083791604382,607.4148137831609 648.8924816758495,629.8677130997753 649.6297979137199,630.9489233687477 675.7889300926755,630.6172043887402" stroke="rgb(255, 0, 0)" stroke-width="0.1pt" /><polygon fill="none" points="746.6312493401324,1113.4601272191053 743.9717228826951,1111.2263768402227 734.8465801578421,1113.2467281049378 731.2821540222303,1116.492097387977 741.5242369271363,1140.238144877655 746.6312493401324,1139.1854774877343 746.6312493401324,1113.4601272191053" stroke="rgb(255, 0, 0)" stroke-width="0.1pt" /><polygon fill="none" points="751.8597587622189,1090.6103679525263 754.5192852196562,1092.8441183314092 754.5192852196562,1089.2250109960437 753.9145841499799,1089.1185158392673 751.8597587622189,1090.6103679525263" stroke="rgb(255, 0, 0)" stroke-width="0.1pt" /><polygon fill="none" points="753.7879567587735,867.7334687684709 749.7206514442603,871.6503177566678 753.7879567587735,874.4106581763817 753.7879567587735,867.7334687684709" stroke="rgb(255, 0, 0)" stroke-width="0.1pt" /><polygon fill="none" points="627.5617677790583,1184.8058074745559 610.7812330470542,1178.9326147664804 603.4942793897902,1184.8058074745559 627.5617677790583,1184.8058074745559" stroke="rgb(255, 0, 0)" stroke-width="0.1pt" /><polygon fill="none" points="597.1757516243887,1147.61494527236 604.4627052816527,1141.741752564285 620.6860844897213,1121.0368352557368 622.0210948845835,1114.4214983040058 613.4300401301224,1102.6094395563962 588.3761623147087,1111.554482707455 592.7917633931019,1143.9305889112334 594.98523376238,1147.61494527236 597.1757516243887,1147.61494527236" stroke="rgb(255, 0, 0)" stroke-width="0.1pt" /><polygon fill="none" points="546.3442190512269,1141.2078263979963 562.5262115518175,1151.3012203909807 558.1106104734243,1118.9251141872023 552.5481114396741,1118.1806280060027 546.3442190512269,1141.2078263979963" stroke="rgb(255, 0, 0)" stroke-width="0.1pt" /><polygon fill="none" points="65.18980555554582,685.8077205535931 52.89719086033124,680.2862068755297 48.27493259868384,681.9884857080733 48.27493259868384,692.7475857002494 60.82938592486531,696.8267717539215 65.18980555554582,685.8077205535931" stroke="rgb(255, 0, 0)" stroke-width="0.1pt" /><polygon fill="none" points="68.45829234236726,1021.0295080712195 51.6709917446353,1020.5143636411296 51.6709917446353,1036.6870624613314 58.618621492034016,1040.6093333020267 67.27475399581233,1038.8854272293293 73.72661819372955,1025.5085556834877 68.45829234236726,1021.0295080712195" stroke="rgb(255, 0, 0)" stroke-width="0.1pt" /><polygon fill="none" points="220.75797071841438,899.4032707739591 229.75892299695874,912.8276169510697 241.34309629764095,891.7709394169028 241.38258740171656,891.2993459964189 234.7333056862353,879.2885651163807 231.4070557442471,880.4356870006898 220.75797071841438,899.4032707739591" stroke="rgb(255, 0, 0)" stroke-width="0.1pt" /><polygon fill="none" points="247.4149047689657,925.4720105187109 247.9733734550839,927.6108812055476 269.7700227125766,918.1404486895104 269.59918932795216,908.6814850147717 258.9990780696479,904.4153329845442 247.4149047689657,925.4720105187109" stroke="rgb(255, 0, 0)" stroke-width="0.1pt" /><polygon fill="none" points="110.45942996323464,533.0106752392389 100.172947654063,532.732406928459 102.14702344029877,543.5539491005178 102.82374988851724,543.6358458197716 110.6036083355702,533.3452651417609 110.45942996323464,533.0106752392389" stroke="rgb(255, 0, 0)" stroke-width="0.1pt" /><polygon fill="none" points="106.35077051375501,516.090564202347 103.8168189795797,502.78221207221145 91.10276178590226,503.1478933668661 88.34381990112766,511.2036358287769 96.06428820458335,515.812295891567 106.35077051375501,516.090564202347" stroke="rgb(255, 0, 0)" stroke-width="0.1pt" /><polygon fill="none" points="70.35733620543203,538.0065182490281 75.80660753612912,544.4201220626325 86.17492542535808,544.2091612791535 84.20084963912231,533.3876191070947 76.48038133566659,528.7789590443045 70.35733620543203,538.0065182490281" stroke="rgb(255, 0, 0)" stroke-width="0.1pt" /><polygon fill="none" points="46.62538439811054,513.9084000208118 54.52236188629968,514.3030441028174 60.64540701653424,505.07548489809386 63.40434890130884,497.01974243618304 51.74135888995284,483.5863727009466 46.62538439811054,484.46036045161577 46.62538439811054,513.9084000208118" stroke="rgb(255, 0, 0)" stroke-width="0.1pt" /><polygon fill="none" points="95.40091839177282,587.3700359654163 98.68629902591486,572.3241886625834 94.60975703224818,567.3702615603704 93.9330305840297,567.2883648411165 83.56471269480076,567.4993256245956 82.69575015270041,574.3587075496554 95.40091839177282,587.3700359654163" stroke="rgb(255, 0, 0)" stroke-width="0.1pt" /><polygon fill="none" points="122.78272659139708,543.1851264122752 118.77818871403144,541.5287811035358 110.99833026697848,551.8193617815466 115.07487226064518,556.7732888837596 120.45751733858876,556.6490130747123 122.78272659139708,543.1851264122752" stroke="rgb(255, 0, 0)" stroke-width="0.1pt" /><polygon fill="none" points="155.40797946580548,551.9889074180237 154.1651551806028,547.1794841064059 140.44052027607484,544.685880243304 138.11531102326651,558.1497669057412 147.09257999688347,560.3376538134652 155.40797946580548,551.9889074180237" stroke="rgb(255, 0, 0)" stroke-width="0.1pt" /><polygon fill="none" points="516.1074614894638,923.8062847610818 551.3762825253136,920.0862233552517 553.1501829801048,909.8669867008346 535.4317357643736,903.5970408680748 516.0668200356762,907.8302812223136 515.7395693426372,923.1331291610063 516.1074614894638,923.8062847610818" stroke="rgb(255, 0, 0)" stroke-width="0.1pt" /><polygon fill="none" points="602.4024030104233,913.4844099923184 600.628502555632,923.7036466467356 607.017287951498,937.1938429391139 625.0245693999993,931.5093836077835 617.36714366234,899.3569966350008 612.6500958051389,899.8060713273005 602.4024030104233,913.4844099923184" stroke="rgb(255, 0, 0)" stroke-width="0.1pt" /><polygon fill="none" points="550.5749308094596,656.3044767427186 565.0437172389699,693.7405456576905 572.5907033346016,695.995861813454 590.3971401662097,690.565622958148 591.2935162260094,661.013651090693 590.5561999881388,659.9324408217205 571.0502195116871,643.0939136217136 569.447732190716,643.712121163793 550.5749308094596,656.3044767427186" stroke="rgb(255, 0, 0)" stroke-width="0.1pt" /><polygon fill="none" points="564.6243671718616,835.3350716026903 552.3141195296503,837.7292095333823 554.8099317249412,854.4823564000031 574.1008088292355,846.5471183592052 564.6243671718616,835.3350716026903" stroke="rgb(255, 0, 0)" stroke-width="0.1pt" /><polygon fill="none" points="522.5971890637729,851.2407526110281 521.5243501814099,851.1779298803032 504.40919551773584,861.0162560772867 499.58229120048594,867.58583251813 503.9246153042542,878.0986770400818 523.2895310329517,873.8654366858434 525.0930012590638,867.993899477649 522.5971890637729,851.2407526110281" stroke="rgb(255, 0, 0)" stroke-width="0.1pt" /><polygon fill="none" points="583.9012495099234,866.737422899372 564.6103724056292,874.67266094017 562.806902179517,880.5441981483642 580.5253493952482,886.8141439811238 590.7730421899639,873.1358053161058 583.9012495099234,866.737422899372" stroke="rgb(255, 0, 0)" stroke-width="0.1pt" /><polygon fill="none" points="553.051307457931,794.3181495519074 553.8080625626848,791.6202804963718 553.8558236435055,762.9097302773894 546.3088375478738,760.6544141216258 529.9312100612475,767.891228713049 525.683596559076,770.5232644079961 539.6682209333567,796.6494647518745 540.7410598157196,796.7122874825995 553.051307457931,794.3181495519074" stroke="rgb(255, 0, 0)" stroke-width="0.1pt" /><polygon fill="none" points="603.1402490551181,826.3224669152023 612.616690712492,837.5345136717171 619.4884833925324,843.9328960884511 624.2055312497336,843.4838213961515 641.9815712248463,837.0612644415974 642.70026560335,833.5616006216237 629.3907261122492,814.2171479542072 603.8970041598719,823.6245978596667 603.1402490551181,826.3224669152023" stroke="rgb(255, 0, 0)" stroke-width="0.1pt" /><polygon fill="none" points="488.0731092076327,512.1181435762401 489.62045970040396,515.3448198180241 493.09010204510247,516.2962434396624 508.67040917076656,512.7558247250593 507.4778513134802,497.4233864825857 501.9586152861352,497.3576926223666 488.42494722935555,505.78810932326866 488.0731092076327,512.1181435762401" stroke="rgb(255, 0, 0)" stroke-width="0.1pt" /><polygon fill="none" points="728.6898897073215,354.4082001347816 729.2137285411342,355.6051939927565 745.8178854805877,352.7744230176156 745.8178854805877,341.4658097225595 744.9170311226417,340.9314751157964 744.5263866401679,340.9905140915853 728.6898897073215,354.4082001347816" stroke="rgb(255, 0, 0)" stroke-width="0.1pt" /><polygon fill="none" points="689.6192508774134,382.1152841530992 687.6948802968128,380.60532143008373 664.0437148520265,388.1206808135455 663.4275792056899,411.8691275091261 693.4263833622622,393.59367406986274 690.1430897112259,383.312278011074 689.6192508774134,382.1152841530992" stroke="rgb(255, 0, 0)" stroke-width="0.1pt" /><polygon fill="none" points="735.2593783803627,280.7666660940962 727.2553399328875,282.06992514521426 719.5159283108965,294.8060604344986 733.9262933801086,292.81051765205166 736.6392704085023,282.6832101148964 735.2593783803627,280.7666660940962" stroke="rgb(255, 0, 0)" stroke-width="0.1pt" /><polygon fill="none" points="697.1048129444381,290.051030139735 704.8442245664293,277.3148948504507 685.6444243447062,264.40042367518765 687.1815852469853,293.35752115930643 690.3829012584778,295.54082614634376 697.1048129444381,290.051030139735" stroke="rgb(255, 0, 0)" stroke-width="0.1pt" /><polygon fill="none" points="713.2325783511715,319.05796900195475 706.5106666652113,324.5477650085635 714.0674449557259,338.99960754619644 715.9918155363267,340.5095702692119 731.8283124691729,327.0918842260155 727.6429434203836,317.0624262195078 713.2325783511715,319.05796900195475" stroke="rgb(255, 0, 0)" stroke-width="0.1pt" /><polygon fill="none" points="752.6272373159726,290.71135724253264 749.8633464551572,289.5686652225389 747.1503694267635,299.6959727596942 751.3357384755527,309.72543076620195 751.7263829580265,309.66639179041306 752.6272373159726,308.8007642933204 752.6272373159726,290.71135724253264" stroke="rgb(255, 0, 0)" stroke-width="0.1pt" /><polygon fill="none" points="615.0200557871223,284.2101896636137 617.4760578357545,267.7012680302406 600.9000921069244,266.1595249337314 615.0200557871223,284.2101896636137" stroke="rgb(255, 0, 0)" stroke-width="0.1pt" /><polygon fill="none" points="601.0860023971667,287.45186798184716 586.9660387169686,269.40120325196483 578.8775819857237,267.74292614109993 575.5029750354543,271.40993142544323 600.7814813616969,292.1901940130551 601.0860023971667,287.45186798184716" stroke="rgb(255, 0, 0)" stroke-width="0.1pt" /><polygon fill="none" points="268.24203609583225,66.01054249614724 275.54622820351295,49.40280488563488 265.26672396466824,49.40280488563488 257.24254011181137,51.94387645038751 251.9760722512768,64.83670419324096 268.24203609583225,66.01054249614724" stroke="rgb(255, 0, 0)" stroke-width="0.1pt" /><polygon fill="none" points="191.88290350507032,46.938011290862214 195.0663372879131,59.449381199322104 216.68788686977453,62.59295557790666 217.0225267480218,62.371910598468304 222.28899460855638,49.479082855614855 222.11148718410524,46.938011290862214 191.88290350507032,46.938011290862214" stroke="rgb(255, 0, 0)" stroke-width="0.1pt" /><polygon fill="none" points="309.625325858282,70.14082776205417 329.9013236511276,56.88504610813851 328.31165651816616,53.576732549871444 318.634374876801,50.32198072241546 306.19540013544116,50.32198072241546 298.89120802776046,66.92971833292783 309.625325858282,70.14082776205417" stroke="rgb(255, 0, 0)" stroke-width="0.1pt" /><polygon fill="none" points="44.35733210218753,59.4791521309661 44.900457051690694,59.79819501988759 58.203220221944875,47.03138358115477 55.91501658612743,44.900058012760546 50.06833471289495,44.900058012760546 44.35733210218753,46.18183779984139 44.35733210218753,59.4791521309661" stroke="rgb(255, 0, 0)" stroke-width="0.1pt" /><polygon fill="none" points="695.0720921829783,48.82815899845455 692.0643297799869,49.21104161990324 676.0781535968456,61.191051579222474 676.6719096181673,62.3231983877908 682.8319418795146,65.62852266177657 701.6249729654348,54.60179942366243 700.1637420699153,48.82815899845455 695.0720921829783,48.82815899845455" stroke="rgb(255, 0, 0)" stroke-width="0.1pt" /><polygon fill="none" points="733.2595390796496,83.46266489764088 720.0802427077631,71.50039665828773 701.287211621843,82.52711989640187 720.8693928245278,95.74172255751817 733.2595390796496,89.67873836227896 733.2595390796496,83.46266489764088" stroke="rgb(255, 0, 0)" stroke-width="0.1pt" /><polygon fill="none" points="535.3897834470984,100.27453853014069 536.0090419834324,99.20268457437656 536.643380048857,80.9835696976518 530.2636686266146,73.37804036321356 499.789003188009,84.02810212513828 501.3766820846365,94.28150443278184 535.3897834470984,100.27453853014069" stroke="rgb(255, 0, 0)" stroke-width="0.1pt" /><polygon fill="none" points="389.60771584183044,988.4196881208804 408.29559287339094,999.4853272539642 411.1606223879883,997.4644623124195 409.00785150097784,965.21848082728 404.40733769838926,963.8142024373994 390.3180187486897,977.8159929043245 389.10446303632426,984.4963370903645 389.60771584183044,988.4196881208804" stroke="rgb(255, 0, 0)" stroke-width="0.1pt" /><polygon fill="none" points="137.113870684009,1148.3170744184793 136.0087367869672,1146.6688217031588 101.50175127685246,1150.01419771587 100.61486970768773,1150.7798169506893 108.73645200427185,1169.059656085216 124.2458805399234,1169.059656085216 130.45855640185675,1164.1838986933044 137.113870684009,1148.3170744184793" stroke="rgb(255, 0, 0)" stroke-width="0.1pt" /><polygon fill="none" points="134.48038779277357,1116.4756769780324 120.96008792920288,1102.892482280224 112.44881627457154,1103.0499008775644 100.87009432594746,1123.09168917995 135.3770798360622,1119.7463131672387 134.48038779277357,1116.4756769780324" stroke="rgb(255, 0, 0)" stroke-width="0.1pt" /><polygon fill="none" points="360.24279922896983,1045.4602250317153 369.67713938804445,1060.4548702480527 392.586192662778,1051.427631744099 392.8216472171108,1037.7234951969203 374.1337701855503,1026.6578560638366 366.71712633108217,1031.5904942634445 360.24279922896983,1045.4602250317153" stroke="rgb(255, 0, 0)" stroke-width="0.1pt" /><polygon fill="none" points="303.64289679853465,990.2987033259772 333.95860257074133,997.4458325433409 341.3752464252094,992.5131943437328 340.87199361970323,988.5898433132169 318.69595788190276,978.3106899571153 303.64289679853465,990.2987033259772" stroke="rgb(255, 0, 0)" stroke-width="0.1pt" /><polygon fill="none" points="511.7508551383338,443.42178381833753 509.2655229990884,449.13922874149387 515.1769141462912,463.73347174349874 520.6961501736363,463.7991656037179 532.4354242990951,458.61890983704643 526.3229542807162,443.8528534369281 511.7508551383338,443.42178381833753" stroke="rgb(255, 0, 0)" stroke-width="0.1pt" /><polygon fill="none" points="468.5378756685401,323.8813620241845 457.7187494766889,323.87764562819154 451.35301293469666,337.1091534522457 454.2740035026972,346.91185887330715 471.6914552527895,352.1008681476979 489.44962482667574,338.080766775054 489.63617169488356,336.1649517754138 489.2484479883175,334.7774882222657 468.5378756685401,323.8813620241845" stroke="rgb(255, 0, 0)" stroke-width="0.1pt" /><polygon fill="none" points="518.7540838623419,369.97608117876985 500.9959142884557,383.99618255141377 500.8801742692082,392.46941034775904 508.99436067040676,403.58760518669965 523.5664598127892,404.0186748052902 531.5264863863777,386.8204889702257 518.7540838623419,369.97608117876985" stroke="rgb(255, 0, 0)" stroke-width="0.1pt" /><polygon fill="none" points="548.3363865186222,314.37257940765005 585.1894051132368,307.8787084734551 585.0276715702474,307.31450591354735 559.7491652440049,286.53424332593545 554.4606184494257,289.478958169427 547.9486628120562,312.9851158545019 548.3363865186222,314.37257940765005" stroke="rgb(255, 0, 0)" stroke-width="0.1pt" /><polygon fill="none" points="490.17023330392817,288.93719270096415 510.88080562370556,299.83331889904525 517.3927612610751,276.3271612139704 497.8251370200934,261.58034426606923 496.0824954635609,261.56846035958677 490.17023330392817,288.93719270096415" stroke="rgb(255, 0, 0)" stroke-width="0.1pt" /><polygon fill="none" points="412.9996858671188,299.7114363875336 407.18775203769826,290.87163433295075 386.7114488372776,284.342051540921 378.9251895485159,291.1827028129014 389.07715423847435,308.91413792430234 406.63394932512654,312.94294421158776 412.9996858671188,299.7114363875336" stroke="rgb(255, 0, 0)" stroke-width="0.1pt" /><polygon fill="none" points="461.4083486833274,279.95133891042695 467.3206108429601,252.58260656904955 460.27092707675337,250.01690612898634 444.7772886620557,271.10782045985115 450.5892224914762,279.94762251443404 461.4083486833274,279.95133891042695" stroke="rgb(255, 0, 0)" stroke-width="0.1pt" /><polygon fill="none" points="610.451536946327,353.0567088504057 589.39267863712,373.82272617164176 595.840032289777,377.29801951582687 614.2859190204689,367.4867526483845 610.451536946327,353.0567088504057" stroke="rgb(255, 0, 0)" stroke-width="0.1pt" /><polygon fill="none" points="625.3568197474799,392.9737553943693 606.910933016788,402.7850222618118 623.589289971694,425.41720005193275 626.9146211663503,423.90357143130325 629.1986322936516,420.34424079829046 629.8147679399882,396.59579410270993 625.3568197474799,392.9737553943693" stroke="rgb(255, 0, 0)" stroke-width="0.1pt" /><polygon fill="none" points="574.0411579794294,418.35658483024525 570.5241011923026,417.65066514846313 562.5640746187141,434.8488509835276 568.6765446370931,449.6149073836459 587.3727158583515,458.08580504239615 597.1668685869923,444.4640559645514 580.4885116320864,421.83187817443036 574.0411579794294,418.35658483024525" stroke="rgb(255, 0, 0)" stroke-width="0.1pt" /><polygon fill="none" points="591.0281851538523,340.553099114525 591.4183542452379,336.00312537793445 590.7194329963052,335.35910302868797 553.8664144016907,341.85297396288286 553.6798675334828,343.76878896252316 566.4522700575185,360.61319675397897 569.9693268446453,361.3191164357611 591.0281851538523,340.553099114525" stroke="rgb(255, 0, 0)" stroke-width="0.1pt" /><polygon fill="none" points="645.356146815079,338.9234189481178 649.190528889221,353.3534627460966 653.6484770817292,356.9755014544372 677.2996425265155,349.4601420709755 669.7428642360006,335.0082995333425 666.5415482245081,332.82499454630516 645.7463159064646,334.37344521152727 645.356146815079,338.9234189481178" stroke="rgb(255, 0, 0)" stroke-width="0.1pt" /><polygon fill="none" points="647.9416323381031,543.7701508168708 645.1914388839083,534.1478292392142 619.4218260778914,524.4416049474088 612.7531642013671,544.9692028536273 612.6708242048481,546.8591246849983 643.6687805562134,551.0762530006302 647.9416323381031,543.7701508168708" stroke="rgb(255, 0, 0)" stroke-width="0.1pt" /><polygon fill="none" points="661.1839802681284,499.4740637324562 669.5483606367899,484.36700726442194 644.8166568345874,473.54003693983884 641.4913256399311,475.05366556046835 631.6971729112903,488.6754146383131 631.9094879657503,492.58624195164083 657.6791007717671,502.29246624344603 661.1839802681284,499.4740637324562" stroke="rgb(255, 0, 0)" stroke-width="0.1pt" /><polygon fill="none" points="704.7150495051402,563.7690645577545 687.1894669749213,563.7210348633657 682.9166151930316,571.0271370471252 685.2104897243311,576.3438109941749 696.1909274781337,583.5242999730598 704.7150495051402,563.7690645577545" stroke="rgb(255, 0, 0)" stroke-width="0.1pt" /><polygon fill="none" points="746.7513664552008,520.1128504730929 738.448539408595,513.5004134390668 734.2795474336514,530.36969459209 734.5963393283408,536.9193114555083 746.7513664552008,541.8083164994158 746.7513664552008,520.1128504730929" stroke="rgb(255, 0, 0)" stroke-width="0.1pt" /><polygon fill="none" points="715.1646329827043,514.8359752953445 719.3336249576478,497.96669414232133 718.0451011700493,493.1622989191191 706.7644772341653,493.9908994384764 698.4000968655039,509.0979559065106 715.1646329827043,514.8359752953445" stroke="rgb(255, 0, 0)" stroke-width="0.1pt" /><polygon fill="none" points="750.272861107608,461.7245145889774 740.6815102734038,475.9506374962529 741.9700340610023,480.75503271945513 750.272861107608,487.36746975348103 750.272861107608,461.7245145889774" stroke="rgb(255, 0, 0)" stroke-width="0.1pt" /><polygon fill="none" points="728.9885988936647,571.5324509902697 728.6781673698272,571.733568521053 720.1540453428208,591.4888039363583 720.989428551128,593.3967282991298 740.9357444908958,593.6011540829306 741.1436260205248,592.5053384621727 741.1436260205248,576.4214560341774 728.9885988936647,571.5324509902697" stroke="rgb(255, 0, 0)" stroke-width="0.1pt" /><polygon fill="none" points="706.2985318667485,535.8743450451977 689.533995749548,530.1363256563639 686.0291162531867,532.9547281673538 688.7793097073815,542.5770497450104 706.3048922376004,542.6250794393992 706.6153237614378,542.4239619086159 706.2985318667485,535.8743450451977" stroke="rgb(255, 0, 0)" stroke-width="0.1pt" /><polygon fill="none" points="723.8017314960944,816.1247587268887 720.4883950049244,817.4760017628004 702.4453334411929,838.2330018336331 701.7266390626893,841.732665653607 714.225831975925,855.7180490661469 729.573940333655,850.5391629515149 733.6412456481683,846.6223139633178 733.6412456481683,827.2706465082437 727.4596082287751,818.8803563838421 723.8017314960944,816.1247587268887" stroke="rgb(255, 0, 0)" stroke-width="0.1pt" /><polygon fill="none" points="752.6380568420844,793.9016259173508 746.4564194226913,793.6607760215506 752.6380568420844,802.0510661459523 752.6380568420844,793.9016259173508" stroke="rgb(255, 0, 0)" stroke-width="0.1pt" /><polygon fill="none" points="560.3545181816468,1007.9731060805944 558.302245018922,1000.6639592835342 520.5692216540729,998.2505838543943 518.8131228659216,1002.7149601350121 529.3610501229883,1022.5096397832539 560.3545181816468,1007.9731060805944" stroke="rgb(255, 0, 0)" stroke-width="0.1pt" /><polygon fill="none" points="581.6834900552212,1037.2523378480637 550.6900219965628,1051.788871550723 551.774880363386,1064.3728414947568 563.3512800575817,1068.78809755434 568.9137790913319,1069.5325837355394 593.9676569067456,1060.5875405844808 594.2719124451281,1055.1156151266862 581.6834900552212,1037.2523378480637" stroke="rgb(255, 0, 0)" stroke-width="0.1pt" /><polygon fill="none" points="475.9083460040007,1030.5277855083227 452.74498980651606,1041.2766322507628 449.8799602919187,1043.2974971923074 449.64450573758586,1057.0016337394861 455.9219822438174,1066.0440164196646 472.19448129748025,1073.3293540058487 487.5411316278907,1062.9064351005982 486.4562732610674,1050.3224651565645 475.9083460040007,1030.5277855083227" stroke="rgb(255, 0, 0)" stroke-width="0.1pt" /><polygon fill="none" points="467.0803405720477,981.2042068401494 468.8364393601989,976.7398305595316 467.3855973852435,960.5119648306775 467.0177052384169,959.8388092306019 441.76421348755247,959.7070720974499 443.916984374563,991.9530535825895 467.0803405720477,981.2042068401494" stroke="rgb(255, 0, 0)" stroke-width="0.1pt" /><polygon fill="none" points="561.9525410152698,971.3375824786106 564.426282107181,962.4664762071648 558.037496711315,948.9762799147866 522.7686756754654,952.6963413206167 524.2195176504207,968.9242070494709 561.9525410152698,971.3375824786106" stroke="rgb(255, 0, 0)" stroke-width="0.1pt" /><polygon fill="none" points="476.58422779631695,1178.117168974842 477.2444134226989,1171.019389064017 475.0835138555472,1164.8246830927087 472.433271130159,1162.149756171655 455.19971495861296,1173.057466786069 456.92492038211736,1178.117168974842 476.58422779631695,1178.117168974842" stroke="rgb(255, 0, 0)" stroke-width="0.1pt" /><polygon fill="none" points="502.46628869645815,1131.7900811469326 519.675378658989,1131.304816674955 525.8792710474363,1108.2776182829612 514.3028713532407,1103.862362223378 498.9562210228303,1114.2852811286286 499.8160459710699,1129.1151542258788 502.46628869645815,1131.7900811469326" stroke="rgb(255, 0, 0)" stroke-width="0.1pt" /><polygon fill="none" points="516.5890678395314,1170.081991970705 530.5388067996556,1177.17977188153 550.0127211047793,1177.17977188153 547.8192507355012,1173.4954155204032 531.6372582349106,1163.402021527419 514.4281682723797,1163.8872859993967 516.5890678395314,1170.081991970705" stroke="rgb(255, 0, 0)" stroke-width="0.1pt" /><polygon fill="none" points="513.8977513466691,1184.139803908148 499.94801238654503,1177.0420239973232 499.287826760163,1184.139803908148 513.8977513466691,1184.139803908148" stroke="rgb(255, 0, 0)" stroke-width="0.1pt" /><polygon fill="none" points="701.2795952245673,1022.9485455905623 682.0869336333318,1008.6234011041672 668.2473652974521,1030.1224310224545 700.0952643687201,1024.8090974188708 701.2795952245673,1022.9485455905623" stroke="rgb(255, 0, 0)" stroke-width="0.1pt" /><polygon fill="none" points="699.1299082498977,1054.6923152598456 667.2820091786297,1060.0056488634293 662.7382244106208,1063.8628297920825 662.4339688722382,1069.3347552498772 671.0250236266991,1081.1468139974868 695.2626769034321,1082.5029032519365 698.8271030390438,1079.257533968897 699.1299082498977,1054.6923152598456" stroke="rgb(255, 0, 0)" stroke-width="0.1pt" /><polygon fill="none" points="705.5191078989519,948.4512100697921 733.4331511662708,955.1531943725952 733.4331511662708,938.366146734453 714.0830980605025,920.1243290320945 704.0739718700821,945.5888758444285 705.5191078989519,948.4512100697921" stroke="rgb(255, 0, 0)" stroke-width="0.1pt" /><polygon fill="none" points="746.7751281272843,1037.2412403431276 736.477595011695,1044.0635692821086 735.2932641558479,1045.9241211104172 734.990458944994,1070.4893398194686 744.1156016698471,1068.4689885547534 746.170427057608,1066.9771364414942 746.7751281272843,1066.2126807014074 746.7751281272843,1037.2412403431276" stroke="rgb(255, 0, 0)" stroke-width="0.1pt" /><polygon fill="none" points="705.3252796123326,980.4868386334582 703.7491281728267,990.5614291010068 722.9417897640622,1004.8865735874018 733.2393228796515,998.0642446484209 733.2393228796515,987.1888229362614 705.3252796123326,980.4868386334582" stroke="rgb(255, 0, 0)" stroke-width="0.1pt" /><polygon fill="none" points="744.9423155644487,890.7262814453112 740.8750102499354,887.9659410255974 725.5269018922054,893.1448271402297 725.5922624586804,893.7046949812985 744.9423155644487,911.9465126836571 744.9423155644487,890.7262814453112" stroke="rgb(255, 0, 0)" stroke-width="0.1pt" /><polygon fill="none" points="669.821754257305,920.831360090123 679.8308804477255,895.3668132777889 679.7655198812503,894.80694543672 667.2663269680146,880.8215620241798 649.4902869929018,887.2441189787339 657.1477127305609,919.3965059515167 669.821754257305,920.831360090123" stroke="rgb(255, 0, 0)" stroke-width="0.1pt" /><polygon fill="none" points="653.805155332208,981.5472054669624 652.3600193033384,978.6848712415989 639.6859777765942,977.2500171029926 621.6786963280929,982.9344764343228 619.2049552361818,991.8055827057686 621.2572283989066,999.1147295028289 633.8456507888135,1016.9780067814514 638.3894355568224,1013.1208258527982 652.229003892702,991.6217959345109 653.805155332208,981.5472054669624" stroke="rgb(255, 0, 0)" stroke-width="0.1pt" /><polygon fill="none" points="42.289126596365215,773.553177220099 48.12727485086353,778.4772688543189 52.18409940009404,769.090026900393 42.289126596365215,754.6733468370902 42.289126596365215,773.553177220099" stroke="rgb(255, 0, 0)" stroke-width="0.1pt" /><polygon fill="none" points="67.93427810298587,728.7564524111832 62.600035280217135,724.0295959141322 50.045581954035654,719.9504098604601 50.045581954035654,732.4707685127048 59.940554757764495,746.8874485760076 64.31956533187112,742.0166059757321 67.1495490609502,736.0078488046415 67.93427810298587,728.7564524111832" stroke="rgb(255, 0, 0)" stroke-width="0.1pt" /><polygon fill="none" points="95.15992693831623,704.0608940664251 91.76245870136721,686.4765366132415 85.57177514162962,692.2276598818685 81.21135551094912,703.2467110821967 86.54559833371786,707.9735675792477 95.15992693831623,704.0608940664251" stroke="rgb(255, 0, 0)" stroke-width="0.1pt" /><polygon fill="none" points="279.3151006588631,748.259781847878 316.7116756185919,736.8771981792479 316.8049174891764,731.4284904871339 292.7069039791454,726.4621061013834 279.3151006588631,748.259781847878" stroke="rgb(255, 0, 0)" stroke-width="0.1pt" /><polygon fill="none" points="421.2485952154668,820.983502439078 405.5259711905172,853.07774656447 409.3227176911392,855.4584022522363 443.41126215330786,853.4517722684789 421.2485952154668,820.983502439078" stroke="rgb(255, 0, 0)" stroke-width="0.1pt" /><polygon fill="none" points="373.6237298119744,898.0813218488996 364.7658485348538,898.3712073445388 357.81340794422056,916.0999709141996 371.706556491937,936.780396620157 385.7958754416366,922.7786061532319 377.4204763125963,900.4619775366657 373.6237298119744,898.0813218488996" stroke="rgb(255, 0, 0)" stroke-width="0.1pt" /><polygon fill="none" points="455.4656576503135,891.1810677149641 421.3771131881448,893.1876976987215 429.752512317185,915.5043263152877 434.3530261197735,916.9086047051682 459.60651787063796,917.0403418383202 459.93376856367684,901.7374938996275 455.59144445990853,891.2246493776756 455.4656576503135,891.1810677149641" stroke="rgb(255, 0, 0)" stroke-width="0.1pt" /><polygon fill="none" points="443.94387170152277,797.5037331806534 466.1065386393638,829.9720030100541 466.2323254489588,830.0155846727657 471.0592297662088,823.4460082319224 465.57197315196635,788.6197983728755 458.99010353612823,787.1853242617185 455.35224547168383,787.6027786057723 443.95869961115926,797.2276923653714 443.94387170152277,797.5037331806534" stroke="rgb(255, 0, 0)" stroke-width="0.1pt" /><polygon fill="none" points="96.67977108261032,962.0184689105017 116.47015804025304,987.811896873729 128.88416999510827,985.3394445019887 113.71249995311553,962.6778694649458 96.67977108261032,962.0184689105017" stroke="rgb(255, 0, 0)" stroke-width="0.1pt" /><polygon fill="none" points="301.0803138010451,814.9418841755711 301.18500752023533,815.3552473968412 316.4478993777401,830.5177677601156 318.74140820369894,831.8836325826284 328.3597991575632,834.5959766470262 331.23803255722015,801.1104311932997 301.0803138010451,814.9418841755711" stroke="rgb(255, 0, 0)" stroke-width="0.1pt" /><polygon fill="none" points="364.5448076108445,799.0289026103625 361.66657421118754,832.5144480640887 365.8035223330657,835.6631288007993 374.66140361018626,835.3732433051603 390.38402763513596,803.2789991797681 390.3988555447724,803.0029583644863 367.3302776212789,794.7988411681015 364.5448076108445,799.0289026103625" stroke="rgb(255, 0, 0)" stroke-width="0.1pt" /><polygon fill="none" points="317.846740149101,877.9500117783703 305.830667775899,894.2141758095714 306.0015011605234,903.6731394843102 318.0871166802707,905.5292657351845 324.64963863421025,901.5398001491396 331.60207922484346,883.8110365794787 327.4651311029653,880.6623558427681 317.846740149101,877.9500117783703" stroke="rgb(255, 0, 0)" stroke-width="0.1pt" /><polygon fill="none" points="297.0164441442704,866.376051391482 276.7332604427985,879.2683347944843 276.69376933872286,879.7399282149684 287.2938805970271,884.006080245196 299.3099529702291,867.7419162139947 297.0164441442704,866.376051391482" stroke="rgb(255, 0, 0)" stroke-width="0.1pt" /><polygon fill="none" points="271.8577598727204,834.5641317177939 260.188186313272,850.6081546040326 266.8374680287533,862.6189354840706 287.1206517302252,849.7266520810683 271.8577598727204,834.5641317177939" stroke="rgb(255, 0, 0)" stroke-width="0.1pt" /><polygon fill="none" points="290.10324101188,786.5714246483881 320.26095976805505,772.7399716661168 323.04642977848954,768.5099102238559 318.9447702261368,759.2321538403777 281.548195266408,770.6147375090078 279.9782963221883,771.8771103007786 290.10324101188,786.5714246483881" stroke="rgb(255, 0, 0)" stroke-width="0.1pt" /><polygon fill="none" points="182.1743507743584,837.2890059367688 183.8825639236014,856.6118326621465 196.96044428330953,844.8618842202566 186.12284607945057,829.5263426842596 182.1743507743584,837.2890059367688" stroke="rgb(255, 0, 0)" stroke-width="0.1pt" /><polygon fill="none" points="211.1777182380778,809.524589478619 222.01531644193676,824.860131014616 229.5946598018141,828.0699083357036 232.9209097438023,826.9227864513946 244.59048330325075,810.8787635651559 244.48578958406048,810.4654003438859 234.3608448943688,795.7710859962762 227.10279201896705,793.5535567600986 211.1786648794017,809.5158686236116 211.1777182380778,809.524589478619" stroke="rgb(255, 0, 0)" stroke-width="0.1pt" /><polygon fill="none" points="193.26377926425528,877.0087467698642 192.4784902796342,880.899711416471 203.27191795800806,887.4361594223312 213.92100298384074,868.4685756490619 206.3416596239634,865.2587983279741 193.26377926425528,877.0087467698642" stroke="rgb(255, 0, 0)" stroke-width="0.1pt" /><polygon fill="none" points="167.1741405324727,846.2917922086876 160.15545722308948,849.5494121497323 156.10289799427852,857.0021147109106 166.22748218315778,869.8287047625812 168.09706469709462,869.5055835806721 168.8823536817157,865.6146189340653 167.1741405324727,846.2917922086876" stroke="rgb(255, 0, 0)" stroke-width="0.1pt" /><polygon fill="none" points="44.210187398835956,605.0491101468211 45.08299604795947,606.8523146787087 51.44754642964554,606.3566553163729 55.23845537807236,591.4465371890187 53.94010017566729,591.7213437813139 44.210187398835956,598.2046872543541 44.210187398835956,605.0491101468211" stroke="rgb(255, 0, 0)" stroke-width="0.1pt" /><polygon fill="none" points="51.021619725634345,581.5462592752023 41.291706948803004,581.3468763735243 41.291706948803004,588.0296027482425 51.021619725634345,581.5462592752023" stroke="rgb(255, 0, 0)" stroke-width="0.1pt" /><polygon fill="none" points="36.47468540566367,618.7552246475842 37.34749405478718,617.596502945115 36.47468540566367,615.7932984132275 36.47468540566367,618.7552246475842" stroke="rgb(255, 0, 0)" stroke-width="0.1pt" /><polygon fill="none" points="56.768517782159805,565.948299670633 58.21753607970929,564.4220971910601 59.08649862180964,557.5627152660003 53.637227291112545,551.1491114523959 45.7402498029234,550.7544673703903 45.7402498029234,566.0237233612502 55.470162579754735,566.2231062629281 56.768517782159805,565.948299670633" stroke="rgb(255, 0, 0)" stroke-width="0.1pt" /><polygon fill="none" points="99.05761899543434,624.2230447565912 84.22066317054968,628.698427404419 87.60107357022923,640.749373130287 97.8335033057594,643.7722635228376 112.76332395105783,635.337707492132 99.05761899543434,624.2230447565912" stroke="rgb(255, 0, 0)" stroke-width="0.1pt" /><polygon fill="none" points="84.61477940672468,663.4529765014581 74.38234967119453,660.4300861089075 65.2308880300061,666.3081044252228 77.52350272522067,671.8296181032862 83.71418628495826,666.0784948346593 84.61477940672468,663.4529765014581" stroke="rgb(255, 0, 0)" stroke-width="0.1pt" /><polygon fill="none" points="55.6598274606268,633.5613123073923 52.50387698828011,632.3079176580894 46.13932660659404,632.8035770204252 45.26651795747051,633.9622987228945 45.26651795747051,653.1925551821191 49.88877621911793,651.4902763495754 59.04023786030635,645.6122580332602 55.6598274606268,633.5613123073923" stroke="rgb(255, 0, 0)" stroke-width="0.1pt" /><polygon fill="none" points="85.24839010856095,603.3687097044417 85.20057929637834,603.1657055118006 72.49541105730592,590.1543770960398 71.04639275975644,591.6805795756127 67.25548381132963,606.590697702967 70.41143428367631,607.8440923522696 85.24839010856095,603.3687097044417" stroke="rgb(255, 0, 0)" stroke-width="0.1pt" /><polygon fill="none" points="139.4384552969499,663.750390240217 124.50863465165146,672.1849462709226 123.60804152988507,674.8104646041238 127.00550976683407,692.3948220573075 148.4550685445299,692.6758985287211 156.63353711220753,688.26839491534 156.40920521687795,678.9608530279296 151.92133205210274,670.7978382937488 140.22552689082266,663.8415118721506 139.4384552969499,663.750390240217" stroke="rgb(255, 0, 0)" stroke-width="0.1pt" /><polygon fill="none" points="117.58692902309954,601.6587449692294 131.29263397872302,612.7734077047702 132.0797055725958,612.8645293367038 135.18441289661953,588.473504572432 126.20714392300258,586.2856176647082 120.82449884505897,586.4098934737553 117.53911821091693,601.4557407765881 117.58692902309954,601.6587449692294" stroke="rgb(255, 0, 0)" stroke-width="0.1pt" /><polygon fill="none" points="244.82096389065046,685.1290007099001 240.77691792429061,673.9039624368047 235.62164937727815,670.463737432236 228.30485326836686,672.0697612337468 210.34895611176054,679.8165138737177 210.57328800709013,689.124055761128 212.55842675636796,691.2984480517568 244.82096389065046,685.1290007099001" stroke="rgb(255, 0, 0)" stroke-width="0.1pt" /><polygon fill="none" points="255.11140404176444,714.7653185101528 252.5859357331449,712.9871825959841 220.32339859886235,719.1566299378408 234.05774339696092,741.0650702289962 241.31579627236272,743.2825994651739 242.8856952165824,742.0202266734032 256.27749853686464,720.2225509269085 255.11140404176444,714.7653185101528" stroke="rgb(255, 0, 0)" stroke-width="0.1pt" /><polygon fill="none" points="218.40571633407475,500.6831363328679 218.85610074717283,498.4538825553132 189.8825315043055,495.09584919881513 191.79888646904362,508.68146826002834 212.00701080260356,508.6758420398992 217.54608463264245,502.2287404887268 218.40571633407475,500.6831363328679" stroke="rgb(255, 0, 0)" stroke-width="0.1pt" /><polygon fill="none" points="155.86504884233415,511.45973163731236 153.94869387759604,497.8741125760991 152.92558319241394,496.1911081410917 139.48659629549263,495.7039923431651 133.13051344212022,501.18943458322923 135.6644649762955,514.4977867133647 135.80864334863105,514.8323766158867 139.81318122599671,516.488721924626 153.53781613052467,518.9823257877279 155.86504884233415,511.45973163731236" stroke="rgb(255, 0, 0)" stroke-width="0.1pt" /><polygon fill="none" points="239.55101346614117,523.6567693555343 234.01193963610226,530.1038709067067 232.3545280920327,544.7617365548364 246.06281664363675,545.1896064685208 239.55101346614117,523.6567693555343" stroke="rgb(255, 0, 0)" stroke-width="0.1pt" /><polygon fill="none" points="201.9283862338467,592.4466592448113 199.94543843142864,582.3356357030209 186.75814016966953,577.8272976154416 187.84411319426852,610.5300548733165 201.9283862338467,592.4466592448113" stroke="rgb(255, 0, 0)" stroke-width="0.1pt" /><polygon fill="none" points="203.17500766548255,550.161880893759 207.3520511367844,546.5487039391127 209.00946268085391,531.890838290983 188.801338347294,531.8964645111122 186.47410563548453,539.4190586615277 187.71692992068716,544.2284819731456 189.98770940372344,545.6535428061795 203.17500766548255,550.161880893759" stroke="rgb(255, 0, 0)" stroke-width="0.1pt" /><polygon fill="none" points="168.8783912888475,619.7765388546738 167.79241826424848,587.0737815967988 165.5216387812123,585.6487207637647 157.20623931229028,593.9974671592062 154.10153198826652,618.3884919234779 165.79733714954665,625.3448183450761 168.8783912888475,619.7765388546738" stroke="rgb(255, 0, 0)" stroke-width="0.1pt" /><polygon fill="none" points="211.03182794160074,620.8123822966413 196.94755490202255,638.8957779251466 193.8665007627217,644.464057415549 198.35437392749688,652.6270721497298 216.31027108410314,644.8803195097588 218.98990081854953,623.5509554443838 211.03182794160074,620.8123822966413" stroke="rgb(255, 0, 0)" stroke-width="0.1pt" /><polygon fill="none" points="482.67206713919,706.9541915387008 478.042394528169,717.7431903509969 473.1081407456499,739.4099341716314 479.690010361488,740.8444082827882 488.3077972651238,739.7060916009731 492.5554107672953,737.0740559060259 482.67206713919,706.9541915387008" stroke="rgb(255, 0, 0)" stroke-width="0.1pt" /><polygon fill="none" points="749.6506181493272,199.8751281956823 747.6905551222961,199.2236477037269 738.3718086347665,216.67749336160995 747.6695294736073,221.7244422560949 749.6506181493272,220.75093412623124 749.6506181493272,199.8751281956823" stroke="rgb(255, 0, 0)" stroke-width="0.1pt" /><polygon fill="none" points="751.4504390278423,250.1713783195221 749.2877448146073,262.03460537647373 750.6676368427469,263.9511493972739 753.4315277035623,265.09384141726764 753.4315277035623,249.19787018965846 751.4504390278423,250.1713783195221" stroke="rgb(255, 0, 0)" stroke-width="0.1pt" /><polygon fill="none" points="703.6523205685911,201.3415070876909 720.5974519216927,204.1968313133848 729.9161984092223,186.74298565550177 716.0343316113846,176.2659547678989 715.4296962194745,176.81471004401712 703.6523205685911,201.3415070876909" stroke="rgb(255, 0, 0)" stroke-width="0.1pt" /><polygon fill="none" points="619.6270507923658,202.23243423106953 612.7225376396714,186.56080255545893 591.5367953645708,187.9193169090212 590.0821022503832,202.87537825009576 591.2578542725678,206.349114964542 619.6270507923658,202.23243423106953" stroke="rgb(255, 0, 0)" stroke-width="0.1pt" /><polygon fill="none" points="630.2338079130114,231.54208762047324 624.3958851316333,226.75098916558335 596.0266886118353,230.86766989905578 592.7328470113413,241.6557431505183 600.8213037425861,243.31402026138323 617.3972694714163,244.8557633578925 630.2338079130114,231.54208762047324" stroke="rgb(255, 0, 0)" stroke-width="0.1pt" /><polygon fill="none" points="696.2390767279329,236.15365754731096 698.1863841816931,240.99994245038866 717.3861844034163,253.91441362565172 725.3902228508913,252.61115457453366 727.5529170641264,240.747927517582 718.2551962252855,235.70097862309703 701.310064872184,232.84565439740314 696.2390767279329,236.15365754731096" stroke="rgb(255, 0, 0)" stroke-width="0.1pt" /><polygon fill="none" points="657.8465605676944,258.4369394518781 655.2722033394651,258.01962419314214 642.43566489787,271.33329993056145 639.9796628492377,287.84222156393446 639.675141813768,292.5805475951424 639.8368753567573,293.1447501550502 640.53579660569,293.7887725042967 661.3310289237336,292.24032183907457 659.7938680214545,263.2832243549558 657.8465605676944,258.4369394518781" stroke="rgb(255, 0, 0)" stroke-width="0.1pt" /><polygon fill="none" points="347.69969037291446,347.5363115413607 356.00276400276056,324.8276588416488 345.8507993128021,307.0962237302479 329.874520890691,309.58200863826653 333.2429327204706,328.4037726770796 347.69969037291446,347.5363115413607" stroke="rgb(255, 0, 0)" stroke-width="0.1pt" /><polygon fill="none" points="376.5255277194403,374.9454822705729 377.67338853647266,383.2320359809497 384.5428836278575,387.04707720144785 405.3063870039391,366.06834127920786 402.38539643593856,356.2656358581464 384.8286013492864,352.236829570861 376.5255277194403,374.9454822705729" stroke="rgb(255, 0, 0)" stroke-width="0.1pt" /><polygon fill="none" points="323.2857391043549,208.85265341425966 322.6553059704855,247.62623074417743 325.79232652594436,248.63814799276972 341.7686049480555,246.15236308475113 349.5548642368172,239.31171181277062 353.64760788420756,218.8124387490298 343.4103652186287,203.70258633921895 332.778566109032,203.52333087282753 323.2857391043549,208.85265341425966" stroke="rgb(255, 0, 0)" stroke-width="0.1pt" /><polygon fill="none" points="329.2808631266028,114.6585238466161 337.61278972569033,132.3749519462324 348.244588835287,132.5542074126238 356.6341571489103,119.66994245440279 358.48140810301186,94.81805980035725 349.20252636719607,89.12450315317679 328.9265285743504,102.38028480709245 329.2808631266028,114.6585238466161" stroke="rgb(255, 0, 0)" stroke-width="0.1pt" /><polygon fill="none" points="257.9646509229776,111.51223267298255 282.0006697020048,108.85033058242368 281.6463351497525,96.57209154290003 270.91221731923093,93.36098211377367 254.64625347467546,92.18714381086741 254.3116135964282,92.40818879030576 257.9646509229776,111.51223267298255" stroke="rgb(255, 0, 0)" stroke-width="0.1pt" /><polygon fill="none" points="68.14035468024412,99.79205100526163 67.91688023957992,101.3919099983307 81.214727006418,108.16805295927767 86.23498037081404,96.70592403461134 86.15562002298672,90.38470288976553 85.81950568504021,90.20968316201194 68.14035468024412,99.79205100526163" stroke="rgb(255, 0, 0)" stroke-width="0.1pt" /><polygon fill="none" points="94.56739250782024,121.6894745398098 101.96991973277173,130.7350511865284 105.7258924067032,124.66720770905363 99.58764587221629,110.22734561514348 94.56739250782024,121.6894745398098" stroke="rgb(255, 0, 0)" stroke-width="0.1pt" /><polygon fill="none" points="115.85038565394319,87.89309872687521 115.92974600177054,94.21431987172103 122.06799253625746,108.65418196563117 140.83245462084673,92.31584136987273 141.57458242594737,89.20615499168036 115.85038565394319,87.89309872687521" stroke="rgb(255, 0, 0)" stroke-width="0.1pt" /><polygon fill="none" points="115.82463287812327,48.61392287191456 113.22300653751171,51.56842697594995 118.2839482762684,63.4630855492237 118.6200626142149,63.638105276977285 144.34425938621908,64.95116154178244 147.76021301967998,61.12529278037445 144.5767792368372,48.61392287191456 115.82463287812327,48.61392287191456" stroke="rgb(255, 0, 0)" stroke-width="0.1pt" /><polygon fill="none" points="61.28472096554863,81.94348310863984 78.96387197034474,72.36111526539014 73.90293023158804,60.466456692116395 69.46814731332509,59.64327815647524 56.16538414307091,72.41008959520805 61.28472096554863,81.94348310863984" stroke="rgb(255, 0, 0)" stroke-width="0.1pt" /><polygon fill="none" points="60.37070470841916,144.94066727847735 58.26393777065131,148.0401374222976 54.931717377102466,173.9558717677371 54.931717377102466,196.69328087184826 80.04882944905754,179.46861683994862 81.07107870020874,160.76238688614293 73.66855147525725,151.71681023942432 60.37070470841916,144.94066727847735" stroke="rgb(255, 0, 0)" stroke-width="0.1pt" /><polygon fill="none" points="487.02514484711776,161.0781732086356 470.28922909407197,149.9139619301024 463.5160645926251,157.0443145680492 461.7508509534344,177.96606936024088 463.1582858190216,179.10626914151035 487.02514484711776,161.0781732086356" stroke="rgb(255, 0, 0)" stroke-width="0.1pt" /><polygon fill="none" points="422.3870184096424,161.8309653360375 394.3620382879154,156.90731157258972 385.97246997429215,169.7915765308107 396.20971263987104,184.90142894062157 420.6218047704517,182.75272012822916 422.3870184096424,161.8309653360375" stroke="rgb(255, 0, 0)" stroke-width="0.1pt" /><polygon fill="none" points="428.2403567178318,224.31460223221353 426.8329218522446,223.1744024509441 402.42082972166395,225.3231112633365 398.32808607427353,245.82238432707726 418.80438927469424,252.3519671191071 434.298027689392,231.26105278824227 428.2403567178318,224.31460223221353" stroke="rgb(255, 0, 0)" stroke-width="0.1pt" /><polygon fill="none" points="440.5458506016886,111.93091847353284 441.11734402258685,103.3211119454041 439.5296651259594,93.06770963776052 427.443420086245,84.32476033525772 407.5949569326164,89.28573469398631 405.7477059785148,114.13761734803184 433.77268610024174,119.06127111147966 440.5458506016886,111.93091847353284" stroke="rgb(255, 0, 0)" stroke-width="0.1pt" /><polygon fill="none" points="512.8526400567538,141.00356919865897 515.7117942407175,142.05689088629748 527.6619003580755,136.95823276635969 530.7013190870681,127.2225854893559 496.68821772460626,121.22955139199703 496.11672430370805,129.8393579201258 512.8526400567538,141.00356919865897" stroke="rgb(255, 0, 0)" stroke-width="0.1pt" /><polygon fill="none" points="516.9225068998155,208.1260927265117 539.8891019140406,207.20275465269881 522.509087031523,198.13002904329483 516.9225068998155,208.1260927265117" stroke="rgb(255, 0, 0)" stroke-width="0.1pt" /><polygon fill="none" points="522.0539813097503,226.76877222815995 517.2033930903367,232.7223285553984 536.7710173313184,247.46914550329961 542.0595641258975,244.52443065980805 545.434171076167,240.85742537546474 548.728012676661,230.06935212400225 547.5522606544765,226.59561540955602 545.0205763239753,225.84543415434706 522.0539813097503,226.76877222815995" stroke="rgb(255, 0, 0)" stroke-width="0.1pt" /><polygon fill="none" points="534.7622486445791,182.38605991921625 552.1422635270967,191.4587855286202 554.6739478575978,192.2089667838292 556.1286409717854,177.25290544275464 548.1512033285767,166.73821266192314 536.2010972112186,171.83687078186094 534.7622486445791,182.38605991921625" stroke="rgb(255, 0, 0)" stroke-width="0.1pt" /><polygon fill="none" points="493.48921676567556,203.28224121060154 499.07579689738304,193.2861775273847 500.51464546402246,182.73698839002938 497.6554912800588,181.68366670239087 473.78863225196267,199.71176263526564 479.8463032235228,206.65821319129435 486.8959869897295,209.22391363135756 488.638628546262,209.23579753784 493.48921676567556,203.28224121060154" stroke="rgb(255, 0, 0)" stroke-width="0.1pt" /><polygon fill="none" points="150.58477280390383,1068.9066390815979 142.72117710069622,1083.923204847542 156.24147696426692,1097.5063995453504 163.13938922008285,1083.8378629309973 150.58477280390383,1068.9066390815979" stroke="rgb(255, 0, 0)" stroke-width="0.1pt" /><polygon fill="none" points="152.83136633382924,977.2594877148704 169.04520680020636,973.7231103576145 146.77783829955786,939.9443016602561 137.48743291722357,954.5468379945648 152.6591029592163,977.2084130316076 152.83136633382924,977.2594877148704" stroke="rgb(255, 0, 0)" stroke-width="0.1pt" /><polygon fill="none" points="128.1162179518696,1044.4514381860522 131.07752721837443,1028.6824992501392 130.90526384376147,1028.6314245668764 118.49125188890628,1031.1038769386168 108.15618841192729,1034.3561790835324 101.70432421401007,1047.733050629374 111.74135059403065,1059.6254225493365 120.252622248662,1059.468003951996 128.1162179518696,1044.4514381860522" stroke="rgb(255, 0, 0)" stroke-width="0.1pt" /><polygon fill="none" points="750.3624119112031,748.7613341765029 744.7903066527336,757.3338044085648 740.7398827063093,768.3447191195269 750.3624119112031,766.7396065944839 750.3624119112031,748.7613341765029" stroke="rgb(255, 0, 0)" stroke-width="0.1pt" /><polygon fill="none" points="711.8516782595739,758.8634169337174 715.9021022059982,747.8525022227554 692.7721828810564,731.8606741774086 681.4171329358585,738.2204686865641 708.3213568212238,760.657113298801 711.6346933123939,759.3058702628894 711.8516782595739,758.8634169337174" stroke="rgb(255, 0, 0)" stroke-width="0.1pt" /><polygon fill="none" points="734.8330994810334,716.5605846468346 723.8869393634219,698.3897820626216 718.4678123187033,697.2904559830001 706.1310748976222,710.7773429575448 729.260994222564,726.7691710028917 734.8330994810334,718.1967007708298 734.8330994810334,716.5605846468346" stroke="rgb(255, 0, 0)" stroke-width="0.1pt" /><polygon fill="none" points="749.5759224007027,780.6841130084521 739.9533931958089,782.289225533495 739.7364082486288,782.7316788626667 743.3942849813095,785.4872765196202 749.5759224007027,785.7281264154204 749.5759224007027,780.6841130084521" stroke="rgb(255, 0, 0)" stroke-width="0.1pt" /><polygon fill="none" points="750.0468251991938,672.119140343412 739.1006650815823,681.6117491790334 750.0468251991938,699.7825517632461 750.0468251991938,672.119140343412" stroke="rgb(255, 0, 0)" stroke-width="0.1pt" /><polygon fill="none" points="110.44882941330071,819.6959136015722 89.91220451893892,827.8770899671131 101.59893766533283,844.2386103705857 108.13089626601317,841.0861899533114 115.30651570020218,832.3278960358829 110.44882941330071,819.6959136015722" stroke="rgb(255, 0, 0)" stroke-width="0.1pt" /><polygon fill="none" points="126.79652601387976,869.6912220482327 120.26456741319939,872.843642465507 120.5913060386673,875.5781793665208 135.70798727149617,887.9893972701688 147.7564733741927,882.2374627809725 137.6318891853134,869.4108727293019 126.79652601387976,869.6912220482327" stroke="rgb(255, 0, 0)" stroke-width="0.1pt" /><polygon fill="none" points="135.33316746027518,841.3381516298064 128.1575480260862,850.0964455472348 138.99291119751985,849.816096228304 143.0454704263308,842.3633936671257 135.33316746027518,841.3381516298064" stroke="rgb(255, 0, 0)" stroke-width="0.1pt" /><polygon fill="none" points="138.2603364940799,787.6590518313867 158.06212732631218,791.4422306044997 142.67908455178195,770.3648614341664 140.78101274981654,772.4323299934471 137.96782930584698,780.10485312858 138.2603364940799,787.6590518313867" stroke="rgb(255, 0, 0)" stroke-width="0.1pt" /><polygon fill="none" points="101.19113883937924,792.3853090556331 100.89863165114633,784.8311103528264 81.14076746242398,777.9769246795428 76.76175688831736,782.8477672798182 72.70493233908684,792.2350092337442 73.1661833124833,799.9220696181027 78.71845318820343,802.2757708479728 99.2550780825652,794.0945944824321 101.19113883937924,792.3853090556331" stroke="rgb(255, 0, 0)" stroke-width="0.1pt" /><polygon fill="none" points="115.12044969247266,757.383055834256 95.37938578885986,752.1926361250147 92.54940205978077,758.2013932961053 112.30726624850311,765.0555789693889 115.12044969247266,757.383055834256" stroke="rgb(255, 0, 0)" stroke-width="0.1pt" /><polygon fill="none" points="126.39400023978754,738.4686668410607 135.60348095853917,724.4627222562325 114.15392218084334,724.1816457848191 105.53959357624497,728.0943192976417 104.7548645342093,735.3457156910999 124.49592843782209,740.5361354003413 126.39400023978754,738.4686668410607" stroke="rgb(255, 0, 0)" stroke-width="0.1pt" /><polygon fill="none" points="179.98838114118325,773.852275698481 181.78864406089338,774.4066027752356 197.71277120045866,758.4442909117224 183.97842640236007,736.5358506205671 181.9932876530823,734.3614583299384 173.81481908540465,738.7689619433195 164.605338366653,752.7749065281475 179.98838114118325,773.852275698481" stroke="rgb(255, 0, 0)" stroke-width="0.1pt" /><polygon fill="none" points="141.25628505360484,808.245807179771 139.3202242967908,809.9550926065699 144.17791058369227,822.5870750408806 151.89021354974793,823.6123170782 158.90889685913115,820.3546971371553 162.8573921642233,812.5920338846461 162.85833880554725,812.5833130296386 161.05807588583713,812.0289859528841 141.25628505360484,808.245807179771" stroke="rgb(255, 0, 0)" stroke-width="0.1pt" /><polygon fill="none" points="63.717070075626964,920.9896427745429 74.95374956453213,895.9958708935011 52.28997638184438,902.8063341477948 52.28997638184438,907.0657525681612 57.609401664263416,920.9608527503199 62.55740919069108,921.3777086320405 63.717070075626964,920.9896427745429" stroke="rgb(255, 0, 0)" stroke-width="0.1pt" /><polygon fill="none" points="74.048045259606,863.789498226988 75.24941295239496,862.3432018668227 74.92267432692705,859.6086649658089 63.23594118053316,843.2471445623364 57.683671304813046,840.8934433324663 51.38427207691826,844.800203603891 51.38427207691826,870.5999614812818 74.048045259606,863.789498226988" stroke="rgb(255, 0, 0)" stroke-width="0.1pt" /><polygon fill="none" points="38.8930207676314,939.5085299334723 44.21244605005043,936.0234585423939 38.8930207676314,922.1283583602352 38.8930207676314,939.5085299334723" stroke="rgb(255, 0, 0)" stroke-width="0.1pt" /><polygon fill="none" points="88.7095357703327,924.5796184326182 89.88274504498064,924.7482879664504 106.91547391548583,925.4076885208945 116.2058792978201,910.8051521865859 116.26426418485566,910.550768095059 101.14758295202682,898.1395501914111 99.94621525923785,899.5858465515764 88.7095357703327,924.5796184326182" stroke="rgb(255, 0, 0)" stroke-width="0.1pt" /><polygon fill="none" points="47.47299737656613,988.1947283934279 64.26029797429808,988.7098728235177 57.740430185412826,964.3625866513083 52.79242265898515,963.9457307695877 47.47299737656613,967.4308021606662 47.47299737656613,988.1947283934279" stroke="rgb(255, 0, 0)" stroke-width="0.1pt" /><polygon fill="none" points="80.25819941921321,969.772931489153 79.09853853427732,970.1609973466504 85.61840632316257,994.5082835188599 90.88673217452488,998.987331131128 101.22179565150385,995.7350289862125 81.43140869386113,969.9416010229851 80.25819941921321,969.772931489153" stroke="rgb(255, 0, 0)" stroke-width="0.1pt" /><polygon fill="none" points="244.72539469117265,619.6602543599948 241.44105554353484,619.509558016575 238.76142580908845,640.83892208195 246.07822191799974,639.2328982804394 250.0185459490736,632.3302833207766 244.72539469117265,619.6602543599948" stroke="rgb(255, 0, 0)" stroke-width="0.1pt" /><polygon fill="none" points="438.8594306663329,677.7294376434432 457.64275545302417,662.6112676868876 460.89176672501736,655.0405562879643 460.0863604298194,654.6570060740622 427.5707495913091,663.4761068060313 421.5331035892931,673.6671057400546 430.89950794592323,681.6146066343284 438.8594306663329,677.7294376434432" stroke="rgb(255, 0, 0)" stroke-width="0.1pt" /><polygon fill="none" points="455.2152489608085,686.8566601357835 467.8179437012808,689.2928618421751 472.44761631230176,678.503863029879 473.99857374749973,671.7384901792278 455.2152489608085,686.8566601357835" stroke="rgb(255, 0, 0)" stroke-width="0.1pt" /><polygon fill="none" points="506.99635401364617,670.9404505299325 503.74734274165303,678.5111619288559 502.19638530645506,685.276534779507 512.0797289345603,715.3963991468322 528.4573564211867,708.159584555409 513.9885699916764,670.7235156404372 506.99635401364617,670.9404505299325" stroke="rgb(255, 0, 0)" stroke-width="0.1pt" /><polygon fill="none" points="499.67435337634146,605.0253022134477 506.6665693543717,604.8083673239523 525.5393707356282,592.2160117450267 495.08739733846323,565.7034978377387 491.6177549937647,564.7520742161006 484.6208415137191,586.6776389328153 498.86894708114346,604.6417519995456 499.67435337634146,605.0253022134477" stroke="rgb(255, 0, 0)" stroke-width="0.1pt" /><polygon fill="none" points="402.2660666943226,723.4998017684107 392.89966233769235,715.5523008741368 387.33658596277655,716.9456985014125 379.47631545458495,721.3984509519915 375.78603084245486,730.8293651362275 375.69278897187036,736.2780728283414 379.794448524223,745.5558292118195 402.8630264477165,753.7599464082044 414.25657230824106,744.1350326486053 402.2660666943226,723.4998017684107" stroke="rgb(255, 0, 0)" stroke-width="0.1pt" /><polygon fill="none" points="443.17427916757106,710.6765323131408 435.2143564471614,714.561701304026 447.20486206107984,735.1969321842205 450.8427201255243,734.7794778401667 455.7769739080434,713.1127340195322 443.17427916757106,710.6765323131408" stroke="rgb(255, 0, 0)" stroke-width="0.1pt" /><polygon fill="none" points="423.95772106148735,622.585084832847 427.6819634457156,633.759599846788 460.1975742842259,624.9404991148189 445.94946871680156,606.9763860480886 433.77287601476667,605.2773424427958 423.95772106148735,622.585084832847" stroke="rgb(255, 0, 0)" stroke-width="0.1pt" /><polygon fill="none" points="377.6508550018559,635.1724749873504 369.2135474287979,636.5201531557113 379.5572078926063,662.5755018746222 385.1202842675222,661.1821042473464 391.15793026953816,650.9911053133231 387.43368788530995,639.8165902993821 377.6508550018559,635.1724749873504" stroke="rgb(255, 0, 0)" stroke-width="0.1pt" /><polygon fill="none" points="278.2712434558651,481.5031371042804 284.08754225649943,461.1256355317995 283.9851013903339,460.45165536200517 262.37093307657005,471.1458097405649 262.33680098951453,479.98544045125624 278.2712434558651,481.5031371042804" stroke="rgb(255, 0, 0)" stroke-width="0.1pt" /><polygon fill="none" points="277.0849914717869,523.1509011413443 285.4359681732651,509.7482759348877 279.2545399489271,505.5146924637061 263.32009748257656,503.99699581068194 263.255231388388,504.0897752243191 262.8048469752899,506.3190290018738 277.0849914717869,523.1509011413443" stroke="rgb(255, 0, 0)" stroke-width="0.1pt" /><polygon fill="none" points="422.5429468905734,554.7647620420674 431.84728329357,562.4996771799363 444.0238759956049,564.1987207852292 451.02078947565053,542.2731560685146 449.4734389828792,539.0464798267304 423.75805774288926,542.314459176466 422.5429468905734,554.7647620420674" stroke="rgb(255, 0, 0)" stroke-width="0.1pt" /><polygon fill="none" points="392.47654581909217,583.0990269003814 387.3266911219405,601.5687360345421 397.1095240053945,606.2128513465738 406.9246789586738,588.9051089565227 397.6203425556772,581.1701938186536 392.47654581909217,583.0990269003814" stroke="rgb(255, 0, 0)" stroke-width="0.1pt" /><polygon fill="none" points="319.2334120176827,492.9721473625533 319.3540985043805,492.8465081670869 306.13752627581596,468.30351286049313 300.32122747518156,488.681014432974 306.5026556995195,492.9145979041556 319.2334120176827,492.9721473625533" stroke="rgb(255, 0, 0)" stroke-width="0.1pt" /><polygon fill="none" points="141.84529006757458,419.8771961927032 133.02517417287842,432.8966683858313 141.78907907172072,451.75125828595384 155.22806596864203,452.23837408388044 166.11758146986926,426.96998496414113 141.84529006757458,419.8771961927032" stroke="rgb(255, 0, 0)" stroke-width="0.1pt" /><polygon fill="none" points="95.50107970799111,373.02091399070935 76.11701575182634,391.55449747876196 80.95739468399229,410.5608891180701 97.0189982172237,406.6954538778256 105.83911411191984,393.6759816846975 95.50107970799111,373.02091399070935" stroke="rgb(255, 0, 0)" stroke-width="0.1pt" /><polygon fill="none" points="87.91051120377925,249.7901557688052 113.47804885609048,274.7344179783994 136.3012199252268,271.35243041732065 149.37644348870367,249.11077588764718 141.82766466227622,240.96367442334798 116.75789160158389,230.5140671227354 113.0276232757343,230.85079609601553 87.91051120377925,248.07546012791516 87.91051120377925,249.7901557688052" stroke="rgb(255, 0, 0)" stroke-width="0.1pt" /><polygon fill="none" points="52.32059582393828,347.0064309564946 58.503813009946825,347.8099599631791 77.88787696611158,329.2763764751264 77.88813347624952,318.44799389190496 52.32059582393828,293.5037316823108 52.32059582393828,347.0064309564946" stroke="rgb(255, 0, 0)" stroke-width="0.1pt" /><polygon fill="none" points="273.31592397234283,161.01859364554926 289.55822157065927,162.41207294471275 299.05104857533644,157.0827504032806 290.7191219762489,139.36632230366428 266.68310319722167,142.02822439422317 265.94948917467383,148.62862712508004 273.31592397234283,161.01859364554926" stroke="rgb(255, 0, 0)" stroke-width="0.1pt" /><polygon fill="none" points="270.13384178440515,210.99119726352714 276.9784895261381,245.5307292641963 281.1591959661043,249.04972947636756 288.1646402685231,248.07884456807312 288.7950734023926,209.3052672381554 272.55277580407613,207.91178793899192 270.13384178440515,210.99119726352714" stroke="rgb(255, 0, 0)" stroke-width="0.1pt" /><polygon fill="none" points="240.5953434409166,218.98834094183619 227.64536979185812,236.78222583151472 252.82171504937347,249.7001431751239 245.97706730764054,215.16061117445474 240.5953434409166,218.98834094183619" stroke="rgb(255, 0, 0)" stroke-width="0.1pt" /><polygon fill="none" points="145.7832511484978,149.35950025118058 149.97961030235385,140.621827998173 147.07384612651538,122.42175219731567 128.3093840419261,138.76009279307414 124.55341136799464,144.8279362705489 123.53116211684343,163.53416622435458 127.26143044269301,163.19743725107446 145.7832511484978,149.35950025118058" stroke="rgb(255, 0, 0)" stroke-width="0.1pt" /><polygon fill="none" points="207.36602005706732,124.32442695333371 217.00262268706302,122.5602226908215 217.73623670961086,115.95981995996463 214.08319938306147,96.85577607728786 192.46164980120002,93.71220169870331 189.0456961677391,97.5380704601113 188.3035683626385,100.64775683830366 191.20933253847696,118.84783263916094 207.36602005706732,124.32442695333371" stroke="rgb(255, 0, 0)" stroke-width="0.1pt" /><polygon fill="none" points="643.0430341480319,121.03893461205932 640.8666431536433,138.3289438832259 641.1614249310251,139.422352257555 654.5788751428655,135.23329449368637 649.1663242506274,109.76498258699237 643.0430341480319,121.03893461205932" stroke="rgb(255, 0, 0)" stroke-width="0.1pt" /><polygon fill="none" points="667.1871161846011,168.59094370350482 653.7696659727607,172.78000146737347 652.6875532814865,177.13084456281675 659.5920664341811,192.80247623842732 665.4299892155593,197.59357469331724 668.0043464437883,198.01088995205313 673.0753345880395,194.70288680214537 684.8527102389229,170.17608975847153 667.1871161846011,168.59094370350482" stroke="rgb(255, 0, 0)" stroke-width="0.1pt" /><polygon fill="none" points="603.4990456103187,152.52357593962995 584.8317187044254,139.8043615408517 577.2072120434439,138.0041477493652 576.5879535071098,139.07600170512933 573.5485347781173,148.81164898213314 581.525972421326,159.32634176296463 602.7117146964265,157.96782740940233 603.7938273877005,153.61698431395908 603.4990456103187,152.52357593962995" stroke="rgb(255, 0, 0)" stroke-width="0.1pt" /><polygon fill="none" points="623.3539751644745,122.73815228425148 602.5102572641925,127.30894715663977 621.1775841700859,140.02816155541805 623.3539751644745,122.73815228425148" stroke="rgb(255, 0, 0)" stroke-width="0.1pt" /><polygon fill="none" points="672.7771551369681,103.73832153934838 678.1897060292063,129.20663344604236 695.8553000835283,130.7917795010091 696.4599354754382,130.24302422489086 699.9117190451852,116.58464154383942 680.3295378425004,103.37003888272312 674.1695055811533,100.06471460873733 672.7771551369681,103.73832153934838" stroke="rgb(255, 0, 0)" stroke-width="0.1pt" /><polygon fill="none" points="615.7354142650571,99.1849607060336 621.8587043676526,87.91100868096666 623.2510548118378,84.23740175035563 622.657298790516,83.10525494178731 621.7166873136823,82.24191761846916 587.9015277692181,83.73642691021064 587.2671897037936,101.95554178693538 594.8916963647752,103.7557555784219 615.7354142650571,99.1849607060336" stroke="rgb(255, 0, 0)" stroke-width="0.1pt" /><polygon fill="none" points="422.7533589438369,1147.1050823894823 437.52536326603615,1149.868604999904 454.75891943758234,1138.9608943854896 453.89909448934264,1124.1310212882395 437.6265954356798,1116.8456837020553 422.9828261215669,1138.9747731923337 422.7533589438369,1147.1050823894823" stroke="rgb(255, 0, 0)" stroke-width="0.1pt" /><polygon fill="none" points="379.2777699380277,1100.1271642626377 395.8445819504238,1117.811936399362 410.48835126453673,1095.6828469090835 404.21087475830507,1086.640464228905 381.30182148357153,1095.667702732859 379.2777699380277,1100.1271642626377" stroke="rgb(255, 0, 0)" stroke-width="0.1pt" /><polygon fill="none" points="157.09534857219745,1185.348272295627 149.79765483130524,1180.4725149037154 143.5849789693719,1185.348272295627 157.09534857219745,1185.348272295627" stroke="rgb(255, 0, 0)" stroke-width="0.1pt" /><polygon fill="none" points="196.21413281668723,1153.2197192621866 177.12591233548704,1150.8506383430388 170.47059805333484,1166.7174626178637 177.76829179422705,1171.5932200097755 190.94454491549226,1171.5932200097755 196.21413281668723,1153.2197192621866" stroke="rgb(255, 0, 0)" stroke-width="0.1pt" /><polygon fill="none" points="254.95075647019817,1042.761556691661 255.6403851360914,1040.5288774672754 245.32486871014652,1016.978867291618 232.4646370872354,1011.0930328880819 223.6261483855181,1016.301457171815 226.7301512927806,1041.9029530212485 230.11083094223713,1045.5090089696598 254.95075647019817,1042.761556691661" stroke="rgb(255, 0, 0)" stroke-width="0.1pt" /><polygon fill="none" points="193.58541512661537,959.3262846317717 202.42390382833267,954.1178603480387 204.33689027742037,941.3709455346775 203.7784215913022,939.2320748478409 194.77746931275783,925.8077286707303 183.98404163438394,919.2712806648702 182.1144591204471,919.5944018467794 170.0659730177506,925.3463363359755 170.00758813071505,925.6007204275022 192.27495663136355,959.3795291248607 193.58541512661537,959.3262846317717" stroke="rgb(255, 0, 0)" stroke-width="0.1pt" /><polygon fill="none" points="265.2863598819876,972.3490529116108 270.2343974535261,971.1821617482633 285.2874585368942,959.1941483794014 288.2213794854042,946.1019974295507 276.13576396565685,944.2458711786765 254.33911470816417,953.7163036947134 252.42612825907648,966.4632185080745 265.2863598819876,972.3490529116108" stroke="rgb(255, 0, 0)" stroke-width="0.1pt" /><polygon fill="none" points="190.43495883182305,1045.9496355354922 187.33095592456056,1020.3481396860589 186.02049742930873,1020.4013841791477 169.80665696293158,1023.9377615364036 166.84534769642676,1039.7067004723165 179.3999641126058,1054.6379243217157 190.43495883182305,1045.9496355354922" stroke="rgb(255, 0, 0)" stroke-width="0.1pt" /><polygon fill="none" points="295.8836828590969,1037.1090352520068 314.3575826747848,1033.4089938986367 320.83190977689713,1019.5392631303658 290.5162040046905,1012.3921339130021 285.568166433152,1013.5590250763496 295.8836828590969,1037.1090352520068" stroke="rgb(255, 0, 0)" stroke-width="0.1pt" /><polygon fill="none" points="206.59097363967408,1093.8581152845247 203.2102939902175,1090.2520593361135 192.17529927100026,1098.940348122337 185.2773870151843,1112.6088847366902 186.17407905847296,1115.8795209258963 187.2792129555147,1117.527773641217 206.36743343671486,1119.8968545603648 213.61110831995705,1118.2567530004847 206.59097363967408,1093.8581152845247" stroke="rgb(255, 0, 0)" stroke-width="0.1pt" /><polygon fill="none" points="263.79038654867855,1084.347107331825 238.9504610207175,1087.0945596098236 245.97059570100052,1111.4931973257835 253.93354190608807,1113.431376754628 264.19955629004033,1094.2587479828417 263.79038654867855,1084.347107331825" stroke="rgb(255, 0, 0)" stroke-width="0.1pt" /><polygon fill="none" points="296.4979675433892,672.130401665898 293.46404343403833,660.5225847092281 289.5218159745699,663.4731156568287 294.238936540925,672.8986944927486 296.4979675433892,672.130401665898" stroke="rgb(255, 0, 0)" stroke-width="0.1pt" /><polygon fill="none" points="285.70589275652577,678.5963934432161 280.98877219017066,669.1708146072962 273.2917400717551,670.5455583165779 277.335786038115,681.7705965896733 279.86125434673454,683.548732503842 285.70589275652577,678.5963934432161" stroke="rgb(255, 0, 0)" stroke-width="0.1pt" /><polygon fill="none" points="307.92279018042336,667.3377234409577 319.4713704403663,666.0206637992367 312.46358693887174,646.8725929563059 304.88886607107247,655.7299064842877 307.92279018042336,667.3377234409577" stroke="rgb(255, 0, 0)" stroke-width="0.1pt" /><polygon fill="none" points="312.9503084441968,692.7733784118243 310.69127744173255,693.5416712386749 304.8466390319414,698.4940102993006 306.0127335270416,703.9512427160564 330.1107470370726,708.9176271018069 333.80103164920274,699.486712917571 324.4988887041397,691.4563187701034 312.9503084441968,692.7733784118243" stroke="rgb(255, 0, 0)" stroke-width="0.1pt" /><polygon fill="none" points="303.8916941303864,591.6543696665174 304.6341065039771,591.7821108358557 306.9661805918124,590.0621577500159 311.7347320925903,573.8074240396749 291.9554154609589,566.7584622888016 286.1100489510005,571.8985271025999 287.4720711094254,581.6567305112711 303.8916941303864,591.6543696665174" stroke="rgb(255, 0, 0)" stroke-width="0.1pt" /><polygon fill="none" points="288.4683416019593,611.4512724275469 272.0487185809984,601.4536332723007 263.324584871555,606.9481846072243 268.6177361294559,619.6182135680061 288.4683416019593,611.4512724275469" stroke="rgb(255, 0, 0)" stroke-width="0.1pt" /><polygon fill="none" points="249.75018483789725,571.5582078906236 247.04804548277997,570.6253625603039 233.33975693117588,570.1974926466195 229.16271345987406,573.8106696012657 231.14566126229215,583.921693143056 239.1037341392409,586.6602662907985 242.38807328687872,586.8109626342184 251.11220699632216,581.3164112992947 249.75018483789725,571.5582078906236" stroke="rgb(255, 0, 0)" stroke-width="0.1pt" /><polygon fill="none" points="268.4447137528575,539.2789270262924 268.5251809082155,537.2395773803961 254.24503641171856,520.4077052409256 253.38540471028625,521.9533093967844 259.89720788778186,543.486146509771 262.59934724289917,544.4189918400907 268.4447137528575,539.2789270262924" stroke="rgb(255, 0, 0)" stroke-width="0.1pt" /><polygon fill="none" points="320.8771074025351,546.5715712159723 321.4890934966726,545.921389227566 322.259990945903,524.1381840711439 309.52923462773987,524.0806346127462 301.1782579262616,537.4832598192028 301.09779077090366,539.5226094650991 320.8771074025351,546.5715712159723" stroke="rgb(255, 0, 0)" stroke-width="0.1pt" /><polygon fill="none" points="340.59673433598664,597.367458434691 351.9271038546197,600.9572270919277 360.3644114276778,599.6095489235665 365.51426612482953,581.1398397894061 345.9772719309021,580.4625427359438 345.36528583676454,581.1127247243502 340.59673433598664,597.367458434691" stroke="rgb(255, 0, 0)" stroke-width="0.1pt" /><polygon fill="none" points="332.544859298795,637.9967993075801 332.3807664143227,643.1962510580682 339.3885499158173,662.344321900999 348.6906928608803,670.3747160484667 356.5509633690719,665.9219635978877 346.20730290526336,639.8666148789769 334.87693338663036,636.2768462217402 332.544859298795,637.9967993075801" stroke="rgb(255, 0, 0)" stroke-width="0.1pt" /><polygon fill="none" points="293.88666856224285,629.4820525267894 274.03606308973946,637.6489936672486 270.0957390586656,644.5516086269114 275.25100760567807,647.9918336314798 282.9480397240937,646.6170899221981 286.89026718356206,643.6665589745976 294.46498805136133,634.809245446616 294.62908093583366,629.6097936961279 293.88666856224285,629.4820525267894" stroke="rgb(255, 0, 0)" stroke-width="0.1pt" /><polygon fill="none" points="424.43092382176656,473.7340921456096 415.11239214623686,467.23441371045715 403.6589261877573,465.60599028470597 397.7514179981649,482.4994892087335 406.6169176736357,495.28329456917675 427.9531090409922,480.05248948930745 424.43092382176656,473.7340921456096" stroke="rgb(255, 0, 0)" stroke-width="0.1pt" /><polygon fill="none" points="379.34683728717073,528.3159975606028 370.4813376117,515.5321922001597 355.71945655802097,522.7092569333353 355.59877007132314,522.8348961288016 354.82787262209274,544.6181012852238 374.3648668160202,545.2953983386861 379.5086635526052,543.3665652569583 380.7237744049211,530.9162623913569 379.34683728717073,528.3159975606028" stroke="rgb(255, 0, 0)" stroke-width="0.1pt" /><polygon fill="none" points="363.92867687105064,448.73834788411693 358.2590322770895,438.87410278313484 351.3895371857045,435.05906156263666 333.48319333685396,438.5351256348859 329.94027453304915,447.59193606493193 330.04271539921467,448.2659162347262 343.2592876277792,472.80891154132 358.02116868145816,465.6318468081445 363.92867687105064,448.73834788411693" stroke="rgb(255, 0, 0)" stroke-width="0.1pt" /><polygon fill="none" points="446.3840029548494,498.76097814594266 425.0478115874929,513.991783225812 426.4247487052432,516.5920480565661 452.1401299452332,513.3240687068305 452.49196796695605,506.99403445385906 446.3840029548494,498.76097814594266" stroke="rgb(255, 0, 0)" stroke-width="0.1pt" /><polygon fill="none" points="425.3765687200028,421.48860080650246 446.31867327448856,402.6794334282652 446.43441329373604,394.20620563191994 429.0169615436437,389.0171963575292 408.25345816756214,409.99593227976925 413.9231027615233,419.86017738075134 425.3765687200028,421.48860080650246" stroke="rgb(255, 0, 0)" stroke-width="0.1pt" /><polygon fill="none" points="456.4740423484122,446.18537594866507 473.72646948932135,437.7121698973723 476.2118016285667,431.994724974216 468.0976152273682,420.8765301352754 447.15551067288254,439.6856975135126 456.4740423484122,446.18537594866507" stroke="rgb(255, 0, 0)" stroke-width="0.1pt" /><polygon fill="none" points="465.674352574698,469.7189481706039 469.19653779392354,476.0373455143017 475.3045028060303,484.2704018222181 488.83817086280993,475.839985121316 482.92677971560704,461.2457421193111 465.674352574698,469.7189481706039" stroke="rgb(255, 0, 0)" stroke-width="0.1pt" /><polygon fill="none" points="178.74581158611832,374.6626382738098 180.51735739105564,348.4245573467549 161.65230771330363,334.70890696698444 138.82913664416733,338.0908945280632 138.8288801340294,348.9192771112847 149.16691453795815,369.5743448052729 173.43920594025286,376.66713357671085 178.74581158611832,374.6626382738098" stroke="rgb(255, 0, 0)" stroke-width="0.1pt" /><polygon fill="none" points="207.4871322442819,438.30981096174094 202.18052659841646,440.3143062646419 191.2910110971892,465.5826953843812 192.3141217823713,467.2656998193886 221.2876910252386,470.6237331758866 221.35255711942716,470.5309537622495 221.38668920648269,461.6913230515582 207.52467487287274,438.3267152706101 207.4871322442819,438.30981096174094" stroke="rgb(255, 0, 0)" stroke-width="0.1pt" /><polygon fill="none" points="205.22345343381653,180.709851033287 202.93293059805694,171.3025097077499 197.07655212330934,177.08856128641577 197.83474798355257,180.0837157172367 205.22345343381653,180.709851033287" stroke="rgb(255, 0, 0)" stroke-width="0.1pt" /><polygon fill="none" points="193.34020622141196,157.7008398956438 196.63748088413672,152.9861099606663 180.4807933655464,147.50951564649355 176.2844342116903,156.24718789950117 187.48382774666436,163.4868914743097 193.34020622141196,157.7008398956438" stroke="rgb(255, 0, 0)" stroke-width="0.1pt" /><polygon fill="none" points="171.45444673304934,188.0840145971543 170.6962508728061,185.08886016633332 159.49685733783207,177.8491565915248 140.97503663202727,191.68709359141872 166.04480969271958,202.13670089203123 171.45444673304934,188.0840145971543" stroke="rgb(255, 0, 0)" stroke-width="0.1pt" /><polygon fill="none" points="223.58916708933475,176.5279593294689 233.79829845756984,179.93878941882792 239.18002232429376,176.1110596514465 241.5989563439647,173.03165032691126 234.2325215462956,160.64168380644202 224.5959189162999,162.40588806895425 221.29864425357516,167.12061800393175 223.58916708933475,176.5279593294689" stroke="rgb(255, 0, 0)" stroke-width="0.1pt" /><polygon fill="none" points="207.32754540715942,201.70578237132327 199.93883995689546,201.079647055273 194.52920291656574,215.13233335015 202.07798174299316,223.27943481444913 204.58670312633603,222.91049735036088 217.53667677539454,205.11661246068232 207.32754540715942,201.70578237132327" stroke="rgb(255, 0, 0)" stroke-width="0.1pt" /><polygon fill="none" points="329.75720879803373,1087.1026975665714 332.14155342983815,1085.4840740103343 334.165604975382,1081.0246124805556 324.7312648163073,1066.0299672642182 306.2573650006194,1069.7300086175883 305.5677363347262,1071.962687841974 305.97690607608797,1081.8743284929908 328.3703551917382,1087.3725821267028 329.75720879803373,1087.1026975665714" stroke="rgb(255, 0, 0)" stroke-width="0.1pt" /><polygon fill="none" points="350.52028844567707,1170.498634821787 335.7824015789925,1160.4167255645964 314.2629922148706,1165.0303061761908 309.8030367204006,1167.4580825423166 310.40227289684225,1171.0506055209325 350.41011306074574,1170.7188097728201 350.52028844567707,1170.498634821787" stroke="rgb(255, 0, 0)" stroke-width="0.1pt" /><polygon fill="none" points="255.3113975916118,1166.6084261255528 247.26223756063817,1156.0694384789495 239.29929135555062,1154.1312590501047 232.05561647230846,1155.7713606099846 226.7860285711135,1174.144861357574 255.92838030810958,1174.144861357574 255.91063376805346,1170.200949104169 255.3113975916118,1166.6084261255528" stroke="rgb(255, 0, 0)" stroke-width="0.1pt" /><polygon fill="none" points="351.2394519795711,1184.6300067340887 352.3564914203039,1180.3542987325714 312.3486512564004,1180.6860944806838 312.3663977964565,1184.6300067340887 351.2394519795711,1184.6300067340887" stroke="rgb(255, 0, 0)" stroke-width="0.1pt" /><polygon fill="none" points="292.5447374819293,1139.1116527197332 312.6950854560882,1117.3260663011808 290.3016363404379,1111.8278126674688 280.0356219564856,1131.0004414392552 288.0847819874593,1141.5394290858587 292.5447374819293,1139.1116527197332" stroke="rgb(255, 0, 0)" stroke-width="0.1pt" /><polygon fill="none" points="334.77989935332965,1142.0821876846858 334.7976915696621,1124.6402973175966 333.41083796336665,1124.9101818777278 313.26048998920777,1146.6957682962802 334.77989935332965,1142.0821876846858" stroke="rgb(255, 0, 0)" stroke-width="0.1pt" /><polygon fill="none" points="375.25610414621036,1154.2175996562405 379.2576989623287,1150.890257809597 379.4871661400588,1142.7599486124484 362.9203541276627,1125.075176475724 360.5360094958583,1126.6938000319612 360.5182172795258,1144.1356903990504 375.25610414621036,1154.2175996562405" stroke="rgb(255, 0, 0)" stroke-width="0.1pt" /><polygon fill="none" points="420.8336377590884,1182.8531058531548 419.108432335584,1177.7934036643821 404.33642801338465,1175.0298810539605 400.33483319726633,1178.357222900604 400.224657812335,1178.5773978516377 399.1076183716022,1182.8531058531548 420.8336377590884,1182.8531058531548" stroke="rgb(255, 0, 0)" stroke-width="0.1pt" /><polygon fill="none" points="227.30631128805769,303.69947280129327 233.96677676702927,299.43305001264036 243.00612989470312,288.9331080169179 238.82542345473695,285.41410780474666 213.6490781972216,272.4961904611375 211.14035681387867,272.86512792522575 198.06513325040186,295.1067824548992 216.93018292815384,308.82243283466966 227.30631128805769,303.69947280129327" stroke="rgb(255, 0, 0)" stroke-width="0.1pt" /><polygon fill="none" points="315.44899358364296,393.31682027227214 318.62965768660416,395.37586640338577 336.5360015354547,391.8998023311365 335.3881407184224,383.6132486207597 320.9313830659786,364.48070975647863 311.853696089365,376.35858133591967 315.44899358364296,393.31682027227214" stroke="rgb(255, 0, 0)" stroke-width="0.1pt" /><polygon fill="none" points="257.13876900383025,419.07796856242953 240.45115011117483,420.89447020638715 254.31316444478477,444.25907798733505 275.9273327585487,433.5649236087753 279.4702515623535,424.50811317872933 276.2895874593923,422.44906704761576 257.13876900383025,419.07796856242953" stroke="rgb(255, 0, 0)" stroke-width="0.1pt" /><polygon fill="none" points="245.965358408715,370.1938950385224 236.41861135506124,352.5355155684141 226.04248299515743,357.6584756017905 224.27093719022008,383.8965565288454 224.30847981881092,383.9134608377146 240.99609871146635,382.09695919375696 245.965358408715,370.1938950385224" stroke="rgb(255, 0, 0)" stroke-width="0.1pt" /><polygon fill="none" points="271.7573261075949,361.2460056168627 278.53647708748497,358.6650891139456 272.4607145079167,349.4392452087147 271.7573261075949,361.2460056168627" stroke="rgb(255, 0, 0)" stroke-width="0.1pt" /><polygon fill="none" points="261.6334291250868,350.15934579563276 262.3368175254086,338.35258538748474 257.8843889141861,328.9796513870835 251.22392343521454,333.24607417573645 260.7706704888683,350.90445364584474 261.6334291250868,350.15934579563276" stroke="rgb(255, 0, 0)" stroke-width="0.1pt" /><polygon fill="none" points="288.3762542744428,336.9119182865675 291.3206059223696,338.55386634376504 300.3982928989832,326.675994764324 297.02988106920355,307.8542307255109 293.89286051374467,306.8423134769186 286.8874162113259,307.81319838521307 277.848063083652,318.31314038093547 282.30049169487444,327.68607438133665 288.3762542744428,336.9119182865675" stroke="rgb(255, 0, 0)" stroke-width="0.1pt" /><polygon fill="none" points="274.9756966285178,381.09216647314884 274.1129379922993,381.8372743233609 269.1436782950507,393.7403384785955 288.2944967506127,397.1114369637817 284.69919925633474,380.15319802742914 281.7548476084079,378.51124997023175 274.9756966285178,381.09216647314884" stroke="rgb(255, 0, 0)" stroke-width="0.1pt" /></svg>