<?xml version="1.0" encoding="utf-8" standalone="no"?>
<!DOCTYPE svg PUBLIC "-//W3C//DTD SVG 1.1//EN"
  "http://www.w3.org/Graphics/SVG/1.1/DTD/svg11.dtd">
<!-- Created with matplotlib (https://matplotlib.org/) -->
<svg height="1008pt" version="1.1" viewBox="0 0 792 1008" width="792pt" xmlns="http://www.w3.org/2000/svg" xmlns:xlink="http://www.w3.org/1999/xlink">
 <defs>
  <style type="text/css">
*{stroke-linecap:butt;stroke-linejoin:round;}
  </style>
 </defs>
 <g id="figure_1">
  <g id="axes_1">
   <g id="LineCollection_1">
    <path clip-path="url(#paf62dbe97b)" d="M 720 396 
L 718.786551 420.700319 
L 715.157891 445.162761 
L 709.148965 469.151739 
L 700.817642 492.436225 
L 690.244159 514.791978 
L 677.530342 536.003699 
L 662.798634 555.867108 
L 646.190909 574.190909 
L 627.867108 590.798634 
L 608.003699 605.530342 
L 586.791978 618.244159 
L 564.436225 628.817642 
L 541.151739 637.148965 
L 517.162761 643.157891 
L 492.700319 646.786551 
L 468 648 
L 443.299681 646.786551 
L 418.837239 643.157891 
L 394.848261 637.148965 
L 371.563775 628.817642 
L 349.208022 618.244159 
L 327.996301 605.530342 
L 308.132892 590.798634 
L 289.809091 574.190909 
L 273.201366 555.867108 
L 258.469658 536.003699 
L 245.755841 514.791978 
L 235.182358 492.436225 
L 226.851035 469.151739 
L 220.842109 445.162761 
L 217.213449 420.700319 
L 216 396 
L 217.213449 371.299681 
L 220.842109 346.837239 
L 226.851035 322.848261 
L 235.182358 299.563775 
L 245.755841 277.208022 
L 258.469658 255.996301 
L 273.201366 236.132892 
L 289.809091 217.809091 
L 308.132892 201.201366 
L 327.996301 186.469658 
L 349.208022 173.755841 
L 371.563775 163.182358 
L 394.848261 154.851035 
L 418.837239 148.842109 
L 443.299681 145.213449 
L 468 144 
L 492.700319 145.213449 
L 517.162761 148.842109 
L 541.151739 154.851035 
L 564.436225 163.182358 
L 586.791978 173.755841 
L 608.003699 186.469658 
L 627.867108 201.201366 
L 646.190909 217.809091 
L 662.798634 236.132892 
L 677.530342 255.996301 
L 690.244159 277.208022 
L 700.817642 299.563775 
L 709.148965 322.848261 
L 715.157891 346.837239 
L 718.786551 371.299681 
L 720 396 
L 720 396 
" style="fill:none;stroke:#000000;stroke-opacity:0.7;stroke-width:0.850394;"/>
    <path clip-path="url(#paf62dbe97b)" d="M 644.4 396 
L 643.550586 413.290224 
L 641.010523 430.413933 
L 636.804275 447.206217 
L 630.97235 463.505357 
L 623.570911 479.154384 
L 614.67124 494.002589 
L 604.359044 507.906975 
L 592.733636 520.733636 
L 579.906975 532.359044 
L 566.002589 542.67124 
L 551.154384 551.570911 
L 535.505357 558.97235 
L 519.206217 564.804275 
L 502.413933 569.010523 
L 485.290224 571.550586 
L 468 572.4 
L 450.709776 571.550586 
L 433.586067 569.010523 
L 416.793783 564.804275 
L 400.494643 558.97235 
L 384.845616 551.570911 
L 369.997411 542.67124 
L 356.093025 532.359044 
L 343.266364 520.733636 
L 331.640956 507.906975 
L 321.32876 494.002589 
L 312.429089 479.154384 
L 305.02765 463.505357 
L 299.195725 447.206217 
L 294.989477 430.413933 
L 292.449414 413.290224 
L 291.6 396 
L 292.449414 378.709776 
L 294.989477 361.586067 
L 299.195725 344.793783 
L 305.02765 328.494643 
L 312.429089 312.845616 
L 321.32876 297.997411 
L 331.640956 284.093025 
L 343.266364 271.266364 
L 356.093025 259.640956 
L 369.997411 249.32876 
L 384.845616 240.429089 
L 400.494643 233.02765 
L 416.793783 227.195725 
L 433.586067 222.989477 
L 450.709776 220.449414 
L 468 219.6 
L 485.290224 220.449414 
L 502.413933 222.989477 
L 519.206217 227.195725 
L 535.505357 233.02765 
L 551.154384 240.429089 
L 566.002589 249.32876 
L 579.906975 259.640956 
L 592.733636 271.266364 
L 604.359044 284.093025 
L 614.67124 297.997411 
L 623.570911 312.845616 
L 630.97235 328.494643 
L 636.804275 344.793783 
L 641.010523 361.586067 
L 643.550586 378.709776 
L 644.4 396 
L 644.4 396 
" style="fill:none;stroke:#000000;stroke-opacity:0.7;stroke-width:0.850394;"/>
    <path clip-path="url(#paf62dbe97b)" d="M 568.8 396 
L 568.31462 405.880128 
L 566.863156 415.665104 
L 564.459586 425.260695 
L 561.127057 434.57449 
L 556.897663 443.516791 
L 551.812137 452.001479 
L 545.919454 459.946843 
L 539.276364 467.276364 
L 531.946843 473.919454 
L 524.001479 479.812137 
L 515.516791 484.897663 
L 506.57449 489.127057 
L 497.260695 492.459586 
L 487.665104 494.863156 
L 477.880128 496.31462 
L 468 496.8 
L 458.119872 496.31462 
L 448.334896 494.863156 
L 438.739305 492.459586 
L 429.42551 489.127057 
L 420.483209 484.897663 
L 411.998521 479.812137 
L 404.053157 473.919454 
L 396.723636 467.276364 
L 390.080546 459.946843 
L 384.187863 452.001479 
L 379.102337 443.516791 
L 374.872943 434.57449 
L 371.540414 425.260695 
L 369.136844 415.665104 
L 367.68538 405.880128 
L 367.2 396 
L 367.68538 386.119872 
L 369.136844 376.334896 
L 371.540414 366.739305 
L 374.872943 357.42551 
L 379.102337 348.483209 
L 384.187863 339.998521 
L 390.080546 332.053157 
L 396.723636 324.723636 
L 404.053157 318.080546 
L 411.998521 312.187863 
L 420.483209 307.102337 
L 429.42551 302.872943 
L 438.739305 299.540414 
L 448.334896 297.136844 
L 458.119872 295.68538 
L 468 295.2 
L 477.880128 295.68538 
L 487.665104 297.136844 
L 497.260695 299.540414 
L 506.57449 302.872943 
L 515.516791 307.102337 
L 524.001479 312.187863 
L 531.946843 318.080546 
L 539.276364 324.723636 
L 545.919454 332.053157 
L 551.812137 339.998521 
L 556.897663 348.483209 
L 561.127057 357.42551 
L 564.459586 366.739305 
L 566.863156 376.334896 
L 568.31462 386.119872 
L 568.8 396 
L 568.8 396 
" style="fill:none;stroke:#000000;stroke-opacity:0.7;stroke-width:0.850394;"/>
    <path clip-path="url(#paf62dbe97b)" d="M 493.2 396 
L 493.078655 398.470032 
L 492.715789 400.916276 
L 492.114896 403.315174 
L 491.281764 405.643622 
L 490.224416 407.879198 
L 488.953034 410.00037 
L 487.479863 411.986711 
L 485.819091 413.819091 
L 483.986711 415.479863 
L 482.00037 416.953034 
L 479.879198 418.224416 
L 477.643622 419.281764 
L 475.315174 420.114896 
L 472.916276 420.715789 
L 470.470032 421.078655 
L 468 421.2 
L 465.529968 421.078655 
L 463.083724 420.715789 
L 460.684826 420.114896 
L 458.356378 419.281764 
L 456.120802 418.224416 
L 453.99963 416.953034 
L 452.013289 415.479863 
L 450.180909 413.819091 
L 448.520137 411.986711 
L 447.046966 410.00037 
L 445.775584 407.879198 
L 444.718236 405.643622 
L 443.885104 403.315174 
L 443.284211 400.916276 
L 442.921345 398.470032 
L 442.8 396 
L 442.921345 393.529968 
L 443.284211 391.083724 
L 443.885104 388.684826 
L 444.718236 386.356378 
L 445.775584 384.120802 
L 447.046966 381.99963 
L 448.520137 380.013289 
L 450.180909 378.180909 
L 452.013289 376.520137 
L 453.99963 375.046966 
L 456.120802 373.775584 
L 458.356378 372.718236 
L 460.684826 371.885104 
L 463.083724 371.284211 
L 465.529968 370.921345 
L 468 370.8 
L 470.470032 370.921345 
L 472.916276 371.284211 
L 475.315174 371.885104 
L 477.643622 372.718236 
L 479.879198 373.775584 
L 482.00037 375.046966 
L 483.986711 376.520137 
L 485.819091 378.180909 
L 487.479863 380.013289 
L 488.953034 381.99963 
L 490.224416 384.120802 
L 491.281764 386.356378 
L 492.114896 388.684826 
L 492.715789 391.083724 
L 493.078655 393.529968 
L 493.2 396 
L 493.2 396 
" style="fill:none;stroke:#000000;stroke-opacity:0.7;stroke-width:0.850394;"/>
   </g>
  </g>
 </g>
 <defs>
  <clipPath id="paf62dbe97b">
   <rect height="957.6" width="752.4" x="19.8" y="25.2"/>
  </clipPath>
 </defs>
</svg>
